<svg xmlns="http://www.w3.org/2000/svg" width="47.688" height="47.688"><g data-name="Group 1030" fill="none" stroke="#4ab7fd" stroke-miterlimit="10"><path data-name="Path 8610" d="M37.764 47.334l-10.44-10.44 9.57-9.57 10.44 10.44"/><path data-name="Path 8611" d="M.354 37.764l9.57-9.57 9.57 9.57-9.57 9.57"/><path data-name="Path 8612" d="M47.334 9.924l-10.44 10.44-9.57-9.57L37.764.354"/><path data-name="Path 8613" d="M9.924.354l6.96 6.96-9.57 9.57-6.96-6.96"/><path data-name="Path 8614" d="M27.324 36.894h-3.48l-5.22-5.22v-3.48"/><path data-name="Path 8615" d="M21.234 30.804l-9.9-9.9a1.843 1.843 0 01-.54-1.305h0a1.846 1.846 0 011.845-1.845h0a1.848 1.848 0 011.305.54l6.42 6.42"/><path data-name="Path 8616" d="M20.364 24.714l-6.42-6.42a1.843 1.843 0 01-.54-1.305h0a1.846 1.846 0 011.845-1.845h0a1.848 1.848 0 011.3.54l6.42 6.42"/><path data-name="Path 8617" d="M22.974 22.104l-6.42-6.42a1.843 1.843 0 01-.54-1.305h0a1.846 1.846 0 011.845-1.845h0a1.848 1.848 0 011.305.54l6.42 6.42"/><path data-name="Path 8618" d="M25.584 19.494l-6.42-6.42a1.843 1.843 0 01-.54-1.305h0a1.846 1.846 0 011.845-1.845h0a1.848 1.848 0 011.305.54l15.12 15.12v2.61"/><path data-name="Path 8619" d="M9.924 28.194v-3.48l2.61-2.61"/><path data-name="Path 8620" d="M19.494 37.764h3.48l.87-.87"/><path data-name="Path 8621" d="M7.314 16.884v5.22l2.61 2.61"/><path data-name="Path 8622" d="M16.884 7.314h1.74l3.48 3.48"/><path data-name="Path 8623" d="M36.894 20.364v3.48l-.87.87"/><path data-name="Path 8624" d="M27.324 10.794h-3.48l-.87.87"/><path data-name="Line 7" d="M31.844 40.844l9-9"/><path data-name="Line 9" d="M5.844 32.844l9 9"/><path data-name="Line 11" d="M2.844 12.844l10-10"/><path data-name="Line 13" d="M31.844 6.844l9 9"/></g></svg>