<svg xmlns="http://www.w3.org/2000/svg" width="43.377" height="43.286"><g fill="none" stroke="#4ab7fd" stroke-miterlimit="10.001"><path data-name="4" d="M14.748 38.419l-.038.004-.036-.01c-1.876-.32-3.8-.838-5.637-1.338-1.817-.499-3.626-1.03-5.437-1.555a2.9 2.9 0 01-1.633-.95 2.667 2.667 0 01-.467-1.424 8.061 8.061 0 01.17-2.048c.213-1.127.537-2.266.843-3.371.478-1.727.967-3.469 1.514-5.175a9.026 9.026 0 01.997-2.372 1.8 1.8 0 011.083-.722 4.5 4.5 0 011.448-.093c.44.04.843.143 1.273.209l.213.033a2.661 2.661 0 00.081-.458c.06-.477.116-.96.207-1.433a2.92 2.92 0 01.505-1.253 3.862 3.862 0 011.321-1.213 4.094 4.094 0 015.393 1.336 4.356 4.356 0 01.603 1.677 2.963 2.963 0 01-.137 1.344c-.137.462-.313.916-.482 1.366a3.54 3.54 0 01-.166.395 1.481 1.481 0 00.251.124c.401.177.786.338 1.178.54a3.665 3.665 0 01.87.569 1.442 1.442 0 01.397.67"/><path data-name="3" d="M38.506 28.54l.003.038-.005.037c-.32 1.876-.838 3.8-1.34 5.637-.497 1.817-1.027 3.625-1.553 5.436a2.894 2.894 0 01-.95 1.633 2.694 2.694 0 01-1.427.47 8.166 8.166 0 01-2.046-.173c-1.129-.213-2.266-.537-3.373-.843-1.726-.478-3.468-.967-5.177-1.513a9.036 9.036 0 01-2.372-.998 1.783 1.783 0 01-.72-1.082 4.44 4.44 0 01-.094-1.448c.04-.44.144-.843.21-1.27.006-.048.027-.2.034-.216a2.647 2.647 0 00-.458-.081c-.478-.06-.963-.113-1.434-.207a2.935 2.935 0 01-1.252-.503 3.863 3.863 0 01-1.212-1.323 4.092 4.092 0 011.336-5.393 4.3 4.3 0 011.675-.6 2.932 2.932 0 011.344.133c.462.138.916.313 1.366.482a3.568 3.568 0 01.395.166 1.5 1.5 0 00.126-.252c.177-.4.336-.786.54-1.176a3.56 3.56 0 01.569-.872 1.436 1.436 0 01.67-.397"/><path data-name="2" d="M5.157 14.753l-.005-.039.01-.035c.317-1.876.835-3.8 1.339-5.637.496-1.818 1.026-3.626 1.551-5.436a2.894 2.894 0 01.95-1.634 2.688 2.688 0 011.427-.468 8.194 8.194 0 012.046.171c1.129.214 2.266.538 3.372.844 1.728.478 3.468.968 5.177 1.514a9.041 9.041 0 012.372.997 1.785 1.785 0 01.721 1.083 4.52 4.52 0 01.095 1.448c-.04.44-.145.843-.21 1.273-.006.045-.028.2-.034.213a2.72 2.72 0 00.458.082c.478.059.962.113 1.434.207a2.93 2.93 0 011.253.502 3.88 3.88 0 011.212 1.323 4.093 4.093 0 01-1.337 5.393 4.3 4.3 0 01-1.675.6 2.94 2.94 0 01-1.343-.133c-.462-.138-.916-.313-1.367-.482a3.525 3.525 0 01-.394-.166 1.423 1.423 0 00-.127.252c-.177.4-.335.786-.54 1.175a3.571 3.571 0 01-.569.873 1.435 1.435 0 01-.67.397"/><path data-name="1" d="M28.628 4.844l.036-.003.036.004c1.879.32 3.799.837 5.639 1.338 1.819.496 3.627 1.027 5.438 1.552a2.906 2.906 0 011.633.95 2.674 2.674 0 01.462 1.43 8.06 8.06 0 01-.172 2.046c-.214 1.128-.537 2.266-.843 3.371-.478 1.727-.967 3.468-1.511 5.177a9.03 9.03 0 01-.998 2.373 1.784 1.784 0 01-1.082.72 4.465 4.465 0 01-1.45.093c-.439-.038-.84-.143-1.27-.208-.048-.008-.2-.028-.216-.034a2.677 2.677 0 00-.08.457c-.06.478-.115.96-.206 1.435a2.958 2.958 0 01-.504 1.253 3.837 3.837 0 01-1.324 1.213 4.093 4.093 0 01-5.392-1.337 4.34 4.34 0 01-.601-1.675 2.97 2.97 0 01.133-1.344c.139-.462.315-.915.483-1.368a4.118 4.118 0 01.167-.392 1.613 1.613 0 00-.251-.127c-.403-.177-.786-.335-1.178-.54a3.556 3.556 0 01-.87-.568 1.415 1.415 0 01-.393-.67"/></g></svg>