<svg xmlns="http://www.w3.org/2000/svg" width="44.334" height="44.375"><g data-name="Group 1050" fill="none" stroke="#4ab7fd"><path data-name="Path 8670" d="M6.254 21.875c3.038 0 5.5 1.343 5.5 3s-2.716 3-5.754 3-5.5-1.343-5.5-3 2.717-3 5.754-3z"/><path data-name="Path 8645" d="M11.734 28.629c0 1.773-2.515 3.21-5.617 3.21S.5 30.402.5 28.629" stroke-linejoin="round"/><path data-name="Path 8646" d="M27.783 20.605c0 1.773-2.515 3.21-5.617 3.21s-5.617-1.437-5.617-3.21" stroke-linejoin="round"/><path data-name="Path 8647" d="M27.783 24.617c0 1.773-2.515 3.21-5.617 3.21s-5.617-1.437-5.617-3.21" stroke-linejoin="round"/><path data-name="Path 8648" d="M27.783 28.629c0 1.773-2.515 3.21-5.617 3.21s-5.617-1.437-5.617-3.21" stroke-linejoin="round"/><path data-name="Path 8649" d="M27.783 32.641c0 1.773-2.515 3.21-5.617 3.21s-5.617-1.437-5.617-3.21" stroke-linejoin="round"/><path data-name="Path 8650" d="M27.783 36.653c0 1.773-2.515 3.21-5.617 3.21s-5.617-1.437-5.617-3.21" stroke-linejoin="round"/><path data-name="Path 8651" d="M43.831 8.568c0 1.773-2.515 3.21-5.617 3.21s-5.617-1.437-5.617-3.21" stroke-linejoin="round"/><path data-name="Path 8652" d="M43.831 12.58c0 1.773-2.515 3.21-5.617 3.21s-5.617-1.437-5.617-3.21" stroke-linejoin="round"/><path data-name="Path 8653" d="M43.831 16.592c0 1.773-2.515 3.21-5.617 3.21s-5.617-1.437-5.617-3.21" stroke-linejoin="round"/><path data-name="Path 8654" d="M43.831 20.605c0 1.773-2.515 3.21-5.617 3.21s-5.617-1.437-5.617-3.21" stroke-linejoin="round"/><path data-name="Path 8655" d="M43.831 24.617c0 1.773-2.515 3.21-5.617 3.21s-5.617-1.437-5.617-3.21" stroke-linejoin="round"/><path data-name="Path 8656" d="M43.831 28.629c0 1.773-2.515 3.21-5.617 3.21s-5.617-1.437-5.617-3.21" stroke-linejoin="round"/><path data-name="Path 8657" d="M43.831 32.641c0 1.773-2.515 3.21-5.617 3.21s-5.617-1.437-5.617-3.21" stroke-linejoin="round"/><path data-name="Path 8658" d="M43.831 36.653c0 1.773-2.515 3.21-5.617 3.21s-5.617-1.437-5.617-3.21" stroke-linejoin="round"/><path data-name="Path 8659" d="M11.734 32.641c0 1.773-2.515 3.21-5.617 3.21S.5 34.414.5 32.641" stroke-linejoin="round"/><path data-name="Path 8660" d="M11.734 36.653c0 1.773-2.515 3.21-5.617 3.21S.5 38.426.5 36.653" stroke-linejoin="round"/><path data-name="Path 8661" d="M.5 24.617v16.049c0 1.773 2.515 3.21 5.617 3.21s5.617-1.437 5.617-3.21V24.617" stroke-linejoin="round"/><path data-name="Path 8662" d="M16.549 16.592v24.073c0 1.773 2.515 3.21 5.617 3.21s5.617-1.437 5.617-3.21V16.592" stroke-linejoin="round"/><path data-name="Path 8663" d="M32.597 4.556v36.109c0 1.773 2.515 3.21 5.617 3.21s5.617-1.437 5.617-3.21V4.556" stroke-linejoin="round"/><path data-name="Path 8668" d="M22 13.875c3.038 0 5.817 1.343 5.817 3s-2.779 3-5.817 3-5.5-1.343-5.5-3 2.462-3 5.5-3z"/><path data-name="Path 8669" d="M38 .875c3.038 0 5.834 1.567 5.834 3.5s-2.796 3.5-5.834 3.5-5.406-1.567-5.406-3.5S34.962.875 38 .875z"/><path data-name="Path 8664" d="M22.166 16.593v-5.622l1.6-1.6" stroke-linejoin="round"/><path data-name="Path 8665" d="M29.335 3.806s.42 2.887-1.1 4.409-4.409 1.1-4.409 1.1-.42-2.887 1.1-4.409 4.409-1.1 4.409-1.1z" stroke-linejoin="round"/><path data-name="Path 8666" d="M11.794.605s3.3-.48 5.039 1.259 1.259 5.038 1.259 5.038-3.3.48-5.038-1.259-1.26-5.038-1.26-5.038z" stroke-linejoin="round"/><path data-name="Path 8667" d="M22.166 13.383l-4.012-4.012v-3.21" stroke-linejoin="round"/></g></svg>