<svg xmlns="http://www.w3.org/2000/svg" width="45" height="45"><g data-name="Group 1055" fill="none" stroke="#4ab7fd" stroke-linejoin="round"><path data-name="Path 8676" d="M36.969 36.969a13.647 13.647 0 10-12.193 7.532H44.5z"/><path data-name="Path 8677" d="M11.209 29.327a13.646 13.646 0 0112.547-12.086 9.858 9.858 0 10-18.205 7.035L.5 29.327z"/><g data-name="Group 1054"><path data-name="Path 8678" d="M39.036 17.794a11.371 11.371 0 10-20.983-7.381 9.88 9.88 0 015.7 6.826c.338-.026.676-.049 1.02-.049a13.64 13.64 0 0111.353 6.069h8.371z"/><path data-name="Path 8679" d="M20.596 17.867a10.723 10.723 0 000 0z"/><path data-name="Path 8680" d="M21.636 17.577c-.137.032-.274.062-.41.1.135-.038.273-.067.41-.1z"/><path data-name="Path 8681" d="M22.647 17.373c-.049.008-.1.013-.146.021.048-.008.099-.013.146-.021z"/></g><path data-name="Line 36" d="M17.5 26.5h14"/><path data-name="Line 37" d="M17.5 29.5h14"/><path data-name="Line 38" d="M17.5 32.5h14"/><path data-name="Line 39" d="M24.5 7.5h9"/><path data-name="Line 40" d="M24.5 10.5h9"/><path data-name="Line 41" d="M24.5 13.5h9"/><path data-name="Line 42" d="M9.5 14.5h2"/><path data-name="Line 43" d="M12.5 14.5h2"/><path data-name="Line 44" d="M9.5 17.5h2"/><path data-name="Line 45" d="M12.5 17.5h2"/><path data-name="Line 46" d="M15.5 14.5h2"/></g></svg>