<svg width="128" height="128" viewBox="0 0 128 128" fill="none" xmlns="http://www.w3.org/2000/svg">
<g clip-path="url(#clip0_968_1122)">
<path d="M124.442 73.6262C121.493 77.0083 120.279 81.6045 121.146 85.9406C122.534 93.0517 118.458 100.163 111.52 102.504C107.271 103.979 103.976 107.274 102.502 111.523C100.073 118.374 93.0489 122.45 85.9378 121.149C81.5151 120.282 77.0056 121.496 73.6235 124.445C68.0733 129.214 60.0083 129.214 54.4582 124.445C51.076 121.496 46.5666 120.282 42.1438 121.149C35.0327 122.537 27.9216 118.461 25.5801 111.523C24.1059 107.274 20.8105 103.979 16.5611 102.504C9.7102 100.076 5.63432 93.0517 6.93513 85.9406C7.80234 81.5178 6.58824 77.0083 3.63974 73.6262C-1.12991 68.0761 -1.12991 60.011 3.63974 54.4609C6.58824 51.0788 7.80234 46.5693 6.93513 42.1465C5.54759 34.9487 9.62347 27.9243 16.4744 25.4961C20.7237 24.0219 24.0191 20.7265 25.4934 16.4772C27.9216 9.62621 34.946 5.55033 42.0571 6.85114C46.4798 7.71835 50.9893 6.50426 54.3714 3.55575C59.9216 -1.2139 67.9866 -1.2139 73.5368 3.55575C76.9189 6.50426 81.4284 7.71835 85.8511 6.85114C92.9622 5.46361 100.073 9.53949 102.415 16.4772C103.889 20.7265 107.184 24.0219 111.434 25.4961C118.285 27.9243 122.361 34.9487 121.06 42.0598C120.193 46.4826 121.407 50.9921 124.355 54.3742C129.212 59.9243 129.212 68.0761 124.442 73.6262Z" fill="#DA3B8E"/>
<path d="M61.4888 54.6338C61.6623 54.5471 61.9224 54.3736 62.0959 54.2869L56.8059 52.8994C56.8926 53.1596 56.9793 53.333 57.1528 53.5064C57.5864 54.2002 58.2801 54.7205 59.1474 54.894C59.9278 55.0674 60.7951 54.9807 61.4888 54.6338ZM70.9414 57.062C71.1148 56.9753 71.375 56.8018 71.5484 56.7151L66.2585 55.3276C66.3452 55.5877 66.4319 55.7612 66.6054 55.9346C67.039 56.6284 67.7327 57.1487 68.5999 57.3222C69.3804 57.5823 70.1609 57.4089 70.9414 57.062ZM80.4807 59.4035C80.6541 59.3167 80.7409 59.23 80.9143 59.1433L75.6243 57.7558C75.711 58.0159 75.7978 58.1894 75.9712 58.3628C76.4048 59.0566 77.0986 59.5769 77.9658 59.7503C78.833 60.0105 79.7002 59.8371 80.4807 59.4035ZM52.123 52.2056C52.2964 52.1189 52.5566 51.9455 52.73 51.8587L47.44 50.4712C47.5268 50.6446 47.6135 50.8181 47.7002 51.0783C48.1338 51.772 48.8276 52.2923 49.6948 52.5525C50.562 52.6392 51.4292 52.5525 52.123 52.2056ZM54.291 54.2002C54.0308 54.3736 53.6839 54.5471 53.4238 54.7205C52.123 55.4143 50.562 55.5877 49.001 55.1541C47.44 54.7205 46.1392 53.7666 45.3587 52.5525C44.4915 51.2517 44.1446 49.6907 44.4048 48.1297L44.7517 45.875L46.6596 47.1758L46.833 47.2625C46.9197 47.2625 47.0064 47.3493 47.0064 47.3493L82.1284 56.4549C82.2151 56.4549 82.3885 56.4549 82.562 56.4549C82.7354 56.4549 82.8222 56.4549 82.9089 56.3682L85.5972 55.2409L84.8167 58.1026C84.3831 59.7503 83.2558 61.0512 81.8682 61.8316C80.4807 62.6121 78.833 62.8723 77.1853 62.4387C75.6243 62.0051 74.4102 61.1379 73.543 59.9238C73.3696 59.6636 73.1961 59.3167 73.0227 59.0566C72.7625 59.23 72.4156 59.4035 72.1555 59.5769C70.8547 60.2707 69.2937 60.4441 67.7327 60.0105C66.1717 59.5769 64.9577 58.7097 64.0904 57.4956C63.917 57.2354 63.7436 56.8886 63.5701 56.6284C63.31 56.8018 62.9631 56.9753 62.7029 57.1487C61.4021 57.8425 59.8411 58.0159 58.2801 57.5823C56.7192 57.1487 55.5051 56.2815 54.6379 55.0674C54.5512 54.8072 54.3777 54.5471 54.291 54.2002Z" fill="white"/>
<path d="M85.0752 44.4886L50.04 35.3829C49.6931 35.2962 49.3462 35.3829 49.0861 35.5563C48.8259 35.7298 48.5657 35.9899 48.479 36.3368L45.9641 45.9628C45.8774 46.3097 45.9641 46.6566 46.1376 46.9168C46.311 47.1769 46.5712 47.4371 46.9181 47.5238L82.04 56.6295C82.3869 56.7162 82.7338 56.6295 82.9939 56.456C83.2541 56.2826 83.5143 56.0224 83.601 55.6756L86.1159 45.9628C86.2026 45.6159 86.1159 45.3558 85.9424 45.0956C85.769 44.8355 85.5088 44.5753 85.1619 44.4886H85.0752ZM50.8205 32.6078C57.2378 34.2555 81.9533 39.7189 86.1159 41.8002C87.1565 42.1471 87.937 42.7542 88.4573 43.6214C88.9777 44.4886 89.1511 45.6159 88.8909 46.7433L86.376 56.3693C86.1159 57.4967 85.4221 58.3639 84.4682 58.8842C83.601 59.4046 82.4736 59.578 81.3462 59.3178L46.2243 50.1254C45.0969 49.8653 44.2297 49.1715 43.7094 48.2176C43.1891 47.3504 43.0156 46.223 43.2758 45.0956L45.7907 35.5563C46.0508 34.4289 46.7446 33.5617 47.6985 33.0414C48.5657 32.5211 49.6931 32.3476 50.8205 32.6078Z" fill="white"/>
<path d="M49.4323 53.6809L44.3158 73.54C43.7955 75.708 43.7955 77.876 44.4892 79.8706C45.0963 81.8652 46.3104 83.5996 48.0448 85.0738L62.7006 97.128C64.6085 98.689 66.8632 99.5562 69.2047 99.7297C71.5462 99.9031 73.8876 99.2961 75.9689 97.9085C78.0502 96.6077 79.6112 94.6998 80.4784 92.5318C81.3456 90.3638 81.5191 87.9356 80.912 85.5074C80.5651 84.1199 80.0448 82.9058 79.2643 81.6917C78.4838 80.5643 77.5299 79.437 76.3158 78.483L76.2291 78.3963C75.2752 77.6158 74.5814 76.5752 74.2345 75.4478C73.8876 74.3204 73.8009 73.0196 74.1478 71.7188L76.9228 61.0522L79.6979 61.7459L76.9228 72.4126C76.7494 73.1064 76.7494 73.8868 77.0096 74.4939C77.183 75.1877 77.6166 75.708 78.2237 76.2283C79.6112 77.3557 80.8253 78.6565 81.6925 80.044C82.6464 81.4316 83.3402 82.9925 83.6871 84.7269C84.4676 87.7622 84.2074 90.7974 83.1667 93.4858C82.1261 96.1741 80.2182 98.5156 77.5299 100.25C74.9283 101.898 71.9798 102.678 69.0312 102.505C66.1695 102.331 63.3077 101.204 60.8795 99.2961L46.2237 87.2419C44.0556 85.5074 42.4947 83.2527 41.7142 80.7378C40.9337 78.2229 40.847 75.5345 41.5407 72.8462L46.6573 52.9004L49.4323 53.6809Z" fill="white"/>
<path d="M84.2067 70.8508C83.4262 69.9836 81.3449 70.5039 77.1823 74.1462C79.437 77.0947 81.3449 77.3549 82.559 76.5744C83.5129 75.9673 84.2067 74.7532 84.4668 73.5391C84.727 72.4118 84.6403 71.3711 84.2067 70.8508ZM64.6078 68.5961C68.4235 63.3061 73.54 69.1164 75.5346 71.8047C81.0847 67.1218 84.5536 67.1218 86.288 68.8562C87.5021 70.0703 87.7622 72.1516 87.2419 74.1462C86.8083 75.9673 85.6809 77.8752 84.12 78.9158C81.7785 80.4768 78.4831 80.3901 75.101 76.054C72.3259 78.4822 69.8977 79.2627 67.9032 79.0026C66.7758 78.8291 65.8219 78.3955 65.0414 77.7017C64.2609 77.008 63.7406 76.2275 63.4804 75.1868C62.7866 73.279 63.0468 70.6774 64.6078 68.5961ZM73.3666 73.7126C72.0658 71.8915 68.6836 67.7288 66.8625 70.2438C65.9086 71.5446 65.7351 73.1055 66.082 74.3196C66.2555 74.84 66.5156 75.2736 66.8625 75.5337C67.2094 75.7939 67.643 76.054 68.1633 76.054C69.4641 76.3142 71.2853 75.6204 73.3666 73.7126Z" fill="white"/>
<path d="M102.242 73.4534C102.329 73.1933 102.502 72.9331 102.762 72.8464C103.022 72.7597 103.283 72.7597 103.63 72.8464L110.134 75.0144C110.827 75.2746 111.001 75.7082 110.827 76.4019C110.741 76.7488 110.567 76.9223 110.307 77.0957C110.047 77.1824 109.787 77.1824 109.44 77.0957L105.537 75.7949L108.659 80.738C108.833 80.9982 108.919 81.1716 109.006 81.4318C109.093 81.6052 109.006 81.8654 108.919 82.1255C108.833 82.3857 108.659 82.5591 108.399 82.6459C108.139 82.7326 107.879 82.7326 107.619 82.6459L101.028 80.3911C100.334 80.1309 100.074 79.6973 100.334 79.0036C100.594 78.3098 101.028 78.1364 101.722 78.3098L105.624 79.6106L102.502 74.6675C102.329 74.4074 102.242 74.2339 102.155 74.0605C102.155 73.887 102.155 73.7136 102.242 73.4534ZM103.63 63.8274C103.63 63.4805 103.803 63.2204 103.976 62.9602C104.15 62.7868 104.497 62.7001 104.844 62.7001L111.521 63.2204C111.868 63.2204 112.215 63.3938 112.388 63.5673C112.562 63.7407 112.648 64.0876 112.648 64.4345C112.648 64.7813 112.475 65.0415 112.302 65.3017C112.128 65.4751 111.781 65.5618 111.434 65.5618L109.093 65.3884L108.833 69.0307L111.174 69.2041C111.521 69.2041 111.868 69.3776 112.041 69.551C112.215 69.7244 112.302 70.0713 112.302 70.4182C112.302 70.7651 112.128 71.0252 111.955 71.2854C111.781 71.4589 111.434 71.5456 111.088 71.5456L104.41 71.0253C104.063 71.0253 103.716 70.8518 103.543 70.6784C103.369 70.5049 103.283 70.158 103.283 69.8112C103.283 69.4643 103.456 69.1174 103.63 68.944C103.803 68.7705 104.15 68.6838 104.497 68.6838L107.012 68.8572L107.272 65.215L104.757 65.0415C104.41 65.0415 104.063 64.8681 103.89 64.6946C103.716 64.5212 103.63 64.1743 103.63 63.8274ZM103.283 57.6702C103.196 57.1499 103.196 56.6296 103.283 56.1093C103.283 55.6757 103.456 55.1553 103.543 54.8084C103.63 54.5483 103.716 54.3748 103.89 54.2881C104.063 54.2014 104.237 54.1147 104.41 54.1147C104.583 54.1147 104.757 54.1147 104.93 54.2881C105.104 54.3748 105.19 54.5483 105.277 54.7217C105.364 54.8952 105.364 55.1553 105.277 55.4155C105.19 55.6757 105.104 56.0225 105.104 56.3694C105.104 56.7163 105.104 57.0632 105.104 57.3234C105.19 57.9304 105.277 58.2773 105.537 58.5374C105.711 58.7976 105.971 58.8843 106.318 58.8843C106.578 58.8843 106.838 58.7109 106.925 58.5374C107.012 58.364 107.098 58.0171 107.012 57.5835L106.838 56.2827C106.751 55.6757 107.012 55.3288 107.619 55.2421C108.226 55.1553 108.573 55.4155 108.573 56.0225L108.746 57.0632C108.833 57.4968 108.919 57.757 109.093 57.9304C109.266 58.1038 109.44 58.1906 109.787 58.1038C110.047 58.1038 110.22 57.9304 110.394 57.6702C110.567 57.4101 110.567 57.0632 110.48 56.6296C110.48 56.3694 110.394 56.1093 110.307 55.7624C110.22 55.5022 110.134 55.2421 109.96 54.9819C109.787 54.7217 109.787 54.5483 109.787 54.2881C109.787 54.1147 109.873 53.9412 110.047 53.7678C110.134 53.5944 110.307 53.5076 110.48 53.5076C110.654 53.4209 110.827 53.5076 111.001 53.5076C111.174 53.5944 111.348 53.6811 111.434 53.9412C111.868 54.635 112.215 55.5022 112.302 56.5429C112.475 57.6702 112.302 58.5374 111.955 59.1445C111.608 59.7515 111.001 60.0984 110.307 60.1851C109.873 60.2719 109.44 60.1851 109.093 60.0117C108.746 59.8383 108.399 59.5781 108.226 59.1445C108.139 59.6648 107.966 60.0984 107.619 60.3586C107.272 60.7055 106.838 60.8789 106.318 60.8789C105.537 60.9656 104.844 60.7922 104.323 60.1851C103.803 59.8383 103.369 58.9711 103.283 57.6702ZM100.334 46.7434C100.247 46.4832 100.247 46.2231 100.421 45.9629C100.508 45.7028 100.768 45.5293 101.115 45.4426L107.619 43.2746C108.312 43.0144 108.746 43.2746 109.006 43.9683C109.093 44.3152 109.093 44.5754 109.006 44.8356C108.919 45.0957 108.659 45.2692 108.312 45.3559L104.41 46.6567L109.873 48.6513C110.134 48.738 110.394 48.8247 110.48 48.9982C110.654 49.0849 110.741 49.345 110.827 49.6052C110.914 49.8654 110.914 50.1255 110.741 50.299C110.654 50.5591 110.394 50.6458 110.134 50.8193L103.543 53.074C102.849 53.3342 102.415 53.074 102.155 52.3803C101.895 51.6865 102.155 51.2529 102.849 50.9927L106.751 49.6919L101.288 47.6973C101.028 47.6106 100.768 47.4372 100.681 47.3505C100.594 47.0903 100.421 46.9169 100.334 46.7434ZM95.9113 39.4589C95.7379 39.1987 95.6512 38.8518 95.6512 38.5916C95.7379 38.3315 95.9113 38.0713 96.1715 37.8112L98.0794 36.4236L97.7325 35.99C97.4723 35.6431 97.2989 35.4697 97.0387 35.383C96.7786 35.2963 96.5184 35.2963 96.0848 35.2963L94.0902 35.7299C93.83 35.8166 93.5699 35.7299 93.3097 35.6431C93.0496 35.5564 92.8761 35.383 92.7894 35.1228C92.7027 34.9494 92.616 34.6892 92.616 34.429C92.616 34.1689 92.7027 33.9954 92.8761 33.822C93.0496 33.6486 93.3097 33.5618 93.6566 33.4751L95.5645 33.1282C96.4317 32.9548 97.1254 33.0415 97.7325 33.3017L98.8599 30.6133C98.9466 30.3532 99.12 30.093 99.3802 30.0063C99.5536 29.9196 99.8138 29.8328 99.9872 29.9196C100.161 29.9196 100.421 30.0063 100.594 30.1797C100.768 30.3532 100.854 30.5266 100.941 30.7868C101.028 31.0469 100.941 31.3071 100.854 31.5673L99.3802 34.8627L99.7271 35.383L101.722 33.9087C102.069 33.6486 102.329 33.5618 102.589 33.6486C102.849 33.6486 103.109 33.822 103.283 34.1689C103.456 34.429 103.543 34.7759 103.543 35.0361C103.456 35.2963 103.283 35.5564 103.022 35.7299L101.028 37.2041L101.375 37.7244L104.93 37.4643C105.19 37.4643 105.451 37.4643 105.711 37.6377C105.884 37.8112 106.058 37.8979 106.144 38.158C106.231 38.3315 106.231 38.5917 106.231 38.7651C106.231 38.9385 106.058 39.1987 105.884 39.2854C105.711 39.4589 105.451 39.5456 105.19 39.5456L102.242 39.719C102.329 40.3261 102.155 41.1066 101.722 41.8003L100.768 43.448C100.594 43.7082 100.421 43.9683 100.161 44.0551C99.9005 44.1418 99.7271 44.1418 99.4669 44.0551C99.2067 43.9683 99.0333 43.8816 98.8599 43.7082C98.6864 43.5347 98.5997 43.2746 98.5997 43.1011C98.5997 42.841 98.5997 42.5808 98.7731 42.3206L99.8138 40.4995C99.9872 40.1526 100.074 39.8925 100.074 39.6323C100.074 39.3721 99.9005 39.112 99.7271 38.7651L99.3802 38.3315L97.4723 39.719C97.1254 39.9792 96.8653 40.0659 96.6051 39.9792C96.4317 39.8925 96.1715 39.719 95.9113 39.4589ZM90.1878 21.074C89.5807 20.7272 89.2338 20.2935 89.0604 19.8599C88.887 19.4263 88.8002 18.9927 88.887 18.5591C88.887 18.3857 88.9737 18.2122 89.1471 18.1255C89.3206 18.0388 89.4073 18.0388 89.5807 18.1255C89.7542 18.2122 89.8409 18.2122 89.9276 18.3857C90.0143 18.4724 90.0143 18.6459 90.0143 18.906C90.0143 19.4263 90.2745 19.8599 90.7948 20.2068C91.3151 20.5537 91.8355 20.6404 92.2691 20.3803C92.4425 20.2935 92.616 20.2935 92.7894 20.2935C92.9628 20.2935 93.0496 20.3803 93.1363 20.5537C93.223 20.7272 93.3097 20.8139 93.3097 20.9873C93.3097 21.1608 93.223 21.2475 93.0496 21.4209C92.7027 21.6811 92.2691 21.7678 91.7487 21.7678C91.3151 21.5944 90.7948 21.4209 90.1878 21.074ZM82.4696 27.6648C82.2094 27.4914 82.036 27.3179 82.036 27.0578C81.9493 26.7976 82.036 26.5374 82.2962 26.1906L86.0252 20.3803C86.372 19.7732 86.8924 19.6865 87.4994 20.0334C87.7596 20.2068 87.933 20.467 88.0197 20.7272C88.1065 20.9873 88.0198 21.2475 87.8463 21.5076L85.5916 24.9765L91.1417 23.0686C91.4019 22.9819 91.662 22.8952 91.8355 22.8952C92.0089 22.8952 92.2691 22.9819 92.4425 23.1553C92.7027 23.3288 92.7894 23.5022 92.8761 23.7624C92.8761 24.0225 92.8761 24.2827 92.7027 24.5429L88.9737 30.4399C88.5401 31.0469 88.1065 31.1337 87.4994 30.7868C86.8924 30.4399 86.8057 29.9196 87.1525 29.3125L89.4073 25.8437L83.8571 27.7515C83.597 27.8383 83.3368 27.925 83.1634 27.925C82.9032 27.8383 82.7298 27.7515 82.4696 27.6648ZM75.5319 24.803C74.7515 24.5429 74.4913 24.0225 74.7515 23.2421L76.8328 17.0849C77.0929 16.3044 77.6132 16.0442 78.3937 16.3044L82.4696 17.6919C83.0767 17.8654 83.2501 18.299 83.0767 18.8193C82.9032 19.4263 82.4696 19.5998 81.9493 19.4263L78.8273 18.3857L78.307 19.9467L81.1688 20.9006C81.7758 21.074 81.9493 21.5076 81.7758 22.028C81.6024 22.635 81.1688 22.8085 80.6485 22.5483L77.6132 21.6811L77.0062 23.4155L80.1282 24.4561C80.7352 24.6296 80.9086 25.0632 80.7352 25.5835C80.5618 26.1906 80.1282 26.364 79.6078 26.1038L75.5319 24.803ZM65.7325 23.1553C65.3856 23.0686 65.1254 22.9819 64.952 22.7217C64.7786 22.4616 64.6918 22.2014 64.7785 21.7678L65.6458 15.0903C65.7325 14.7434 65.8192 14.3965 66.0794 14.2231C66.3395 14.0496 66.5997 13.9629 66.9466 14.0496C67.2935 14.1364 67.5536 14.2231 67.7271 14.4833C67.9005 14.7434 67.9872 15.0036 67.9005 15.4372L67.6403 17.7786L71.2826 18.2122L71.5428 15.8708C71.6295 15.5239 71.7162 15.177 71.9764 15.0036C72.2365 14.8301 72.4967 14.7434 72.8436 14.8301C73.1905 14.9169 73.4506 15.0036 73.6241 15.2637C73.7975 15.5239 73.8842 15.7841 73.7975 16.2177L72.9303 22.8952C72.8436 23.2421 72.7569 23.5889 72.4967 23.7624C72.2365 23.9358 71.9764 24.0225 71.6295 23.9358C71.2826 23.8491 71.0225 23.7624 70.849 23.5022C70.6756 23.2421 70.5888 22.9819 70.6756 22.5483L71.0225 20.1201L67.3802 19.6865L67.0333 22.1147C66.9466 22.4616 66.8599 22.8085 66.5997 22.9819C66.4263 23.1553 66.0794 23.1553 65.7325 23.1553ZM56.5401 21.9412L59.7487 21.5076L59.055 16.2177L56.8002 16.4778L56.887 17.2583C56.9737 18.299 57.0604 19.1662 56.9737 19.9467C56.887 20.8139 56.8002 21.4209 56.5401 21.9412ZM54.8924 26.2773C54.1986 26.364 53.8517 26.1038 53.765 25.4101L53.5048 23.3288C53.4181 22.7217 53.6783 22.2881 54.2853 22.2014C54.8924 21.2475 55.0658 19.5998 54.7189 17.345L54.5455 16.2177C54.4588 15.4372 54.8057 15.0036 55.5861 14.9169L59.9222 14.3965C60.7027 14.3098 61.1363 14.6567 61.3097 15.4372L62.0902 21.2475H62.3504C63.0441 21.1608 63.391 21.4209 63.4777 22.1147L63.7379 24.196C63.8246 24.8898 63.5645 25.2366 62.8707 25.3234C62.1769 25.4101 61.83 25.1499 61.7433 24.4561L61.5699 23.1553L55.6729 23.9358L55.8463 25.2366C55.8463 25.8437 55.5861 26.1906 54.8924 26.2773ZM43.7054 28.7922C43.4452 28.9656 43.1851 28.9656 42.9249 28.8789C42.6647 28.7922 42.4913 28.7055 42.3179 28.532C42.1444 28.3586 42.1444 28.0984 42.2311 27.7515L42.9249 24.0225L39.6295 22.4616C39.3693 22.2881 39.1092 22.1147 39.1092 21.9412C39.0225 21.6811 39.0225 21.5076 39.1092 21.2475C39.1959 20.9873 39.3693 20.8139 39.6295 20.7272C39.8897 20.6404 40.0631 20.5537 40.3233 20.5537C40.5834 20.5537 40.7569 20.6404 41.1038 20.8139L43.3585 22.028L43.7921 19.5131C43.7921 19.1662 43.8788 18.906 44.0523 18.7326C44.139 18.5591 44.3124 18.3857 44.5726 18.299C44.8328 18.1255 45.0929 18.1255 45.3531 18.1255C45.6132 18.2122 45.7867 18.299 45.9601 18.4724C46.1336 18.6459 46.1336 18.906 46.0468 19.2529L45.4398 22.8085L48.8219 24.4561C49.0821 24.6296 49.3422 24.803 49.429 24.9765C49.5157 25.2366 49.5157 25.4101 49.429 25.6702C49.3422 25.9304 49.1688 26.1038 48.9086 26.1906C48.7352 26.2773 48.475 26.364 48.3016 26.364C48.1281 26.364 47.868 26.2773 47.5211 26.1038L45.0929 24.8898L44.6593 27.4914C44.5726 27.8383 44.5726 28.0984 44.3992 28.2719C44.0523 28.532 43.8788 28.6188 43.7054 28.7922ZM34.1661 33.822L35.2067 32.8681C35.5536 32.6079 35.7271 32.3477 35.7271 32.0876C35.8138 31.8274 35.7271 31.5673 35.4669 31.3071C35.2935 31.0469 35.0333 30.9602 34.7731 30.9602C34.513 30.9602 34.2528 31.1337 33.9059 31.3938L32.952 32.3477L34.1661 33.822ZM40.6702 30.7001C40.41 30.9602 40.1498 31.0469 39.8029 31.0469C39.5428 31.0469 39.2826 30.8735 39.0225 30.6133L34.5997 25.4968C34.3395 25.2366 34.2528 24.8898 34.2528 24.6296C34.2528 24.3694 34.4263 24.1093 34.6864 23.8491C34.9466 23.5889 35.2067 23.5022 35.5536 23.5022C35.8138 23.5022 36.0739 23.6757 36.3341 23.9358L40.7569 29.0524C41.017 29.3125 41.1038 29.6594 41.1038 29.9196C41.1038 30.1797 40.9303 30.4399 40.6702 30.7001ZM34.513 35.9033C33.9059 36.4236 33.2989 36.4236 32.7786 35.8166L28.4425 30.7868C28.1823 30.5266 28.0956 30.1797 28.0956 29.9196C28.0956 29.6594 28.2691 29.3992 28.5292 29.1391C28.7894 28.8789 29.0496 28.7922 29.3964 28.7922C29.6566 28.7922 29.9168 28.9656 30.1769 29.2258L31.7379 31.0469L33.0387 29.9196C33.7325 29.3125 34.513 28.9656 35.2067 28.9656C35.9005 28.9656 36.5943 29.3125 37.1146 29.9196C37.7216 30.6133 37.8951 31.3071 37.8084 32.0009C37.7216 32.6946 37.288 33.3884 36.5076 33.9954L34.513 35.9033ZM28.5292 41.4534L29.5699 39.8925C29.83 39.5456 29.9168 39.1987 29.83 38.9385C29.83 38.6784 29.6566 38.5049 29.3964 38.3315C29.1363 38.158 28.8761 38.0713 28.616 38.158C28.3558 38.2448 28.1824 38.4182 27.9222 38.8518L26.8815 40.3261L28.5292 41.4534ZM25.494 39.4589L26.3612 38.0713C26.6214 37.7244 26.7081 37.3776 26.7081 37.2041C26.7081 36.944 26.5347 36.7705 26.2745 36.5971C26.0143 36.4236 25.7542 36.4236 25.5807 36.5103C25.3206 36.5971 25.1471 36.8572 24.887 37.2041L24.0197 38.5916L25.494 39.4589ZM29.4832 43.1879C29.0496 43.8816 28.5292 43.9683 27.8355 43.5347L22.3721 40.0659C21.6783 39.6323 21.5916 39.112 22.0252 38.4182L23.6729 35.8166C24.1932 35.0361 24.8002 34.5158 25.4073 34.2556C26.0143 33.9954 26.6214 34.0822 27.2284 34.5158C27.5753 34.7759 27.9222 35.0361 28.0956 35.4697C28.2691 35.8166 28.2691 36.2502 28.1824 36.6838C28.616 36.3369 28.9628 36.1635 29.4832 36.1635C29.9168 36.1635 30.3504 36.2502 30.784 36.5103C31.4777 36.944 31.8246 37.4643 31.9113 38.2448C31.9981 38.9385 31.7379 39.719 31.2176 40.4995L29.4832 43.1879ZM21.9384 48.1309L22.5455 46.6567C22.8924 45.7895 22.7189 45.2692 22.0252 45.009C21.3314 44.7488 20.8111 45.009 20.4642 45.8762L19.8571 47.3505L21.9384 48.1309ZM26.1011 51.0795C25.9276 51.4263 25.7542 51.6865 25.494 51.7732C25.2338 51.8599 24.887 51.8599 24.5401 51.7732L18.3829 49.345C18.036 49.1716 17.7758 48.9982 17.6891 48.738C17.6024 48.4778 17.6024 48.1309 17.6891 47.7841L18.8165 44.9223C19.1634 43.9683 19.6837 43.3613 20.3775 43.0144C21.0712 42.6675 21.8517 42.6675 22.6322 43.0144C23.4994 43.3613 24.0197 43.8816 24.2799 44.5754C24.5401 45.2692 24.5401 46.1364 24.1065 47.0036L23.4127 48.8247L25.2338 49.5185C25.5807 49.6919 25.8409 49.8654 25.9276 50.1255C26.2745 50.3857 26.1878 50.7326 26.1011 51.0795ZM24.4534 58.5374C24.2799 59.3179 23.8463 59.6648 23.0658 59.4914L16.6485 58.364C15.868 58.1906 15.5211 57.757 15.6945 56.9765L16.475 52.8139C16.5618 52.2068 16.9086 51.9467 17.5157 52.0334C18.1227 52.1201 18.3829 52.467 18.2095 53.074L17.6024 56.2827L19.2501 56.5429L19.7704 53.5944C19.8571 52.9873 20.204 52.7271 20.8111 52.9006C21.4181 52.9873 21.6783 53.3342 21.5048 53.9412L20.9845 56.8897L22.8057 57.2366L23.4127 54.028C23.4994 53.4209 23.8463 53.1608 24.4534 53.3342C25.0604 53.4209 25.3206 53.7678 25.1471 54.3748L24.4534 58.5374ZM24.7135 68.4236C24.7135 68.7705 24.6268 69.1174 24.4534 69.2908C24.2799 69.4643 24.0197 69.6377 23.5861 69.6377L16.9954 70.158C16.2149 70.2448 15.7813 69.8112 15.6945 69.0307L15.2609 63.3071C15.1742 62.5266 15.6078 62.093 16.3883 62.0063L22.9791 61.486C23.326 61.486 23.6729 61.5727 23.8463 61.7461C24.0197 61.9196 24.1932 62.1797 24.1932 62.6133C24.1932 62.9602 24.1065 63.3071 23.933 63.4805C23.7596 63.654 23.4994 63.8274 23.0658 63.8274L17.2555 64.1743L17.5157 67.7299L23.4127 67.2963C23.7596 67.2963 24.1065 67.383 24.2799 67.5564C24.5401 67.7299 24.7135 67.99 24.7135 68.4236ZM27.055 77.009C27.4019 77.9629 27.5753 78.7434 27.4886 79.6106C27.4019 80.3911 27.1417 81.0849 26.6214 81.6919C26.1011 82.299 25.4073 82.7326 24.5401 83.0795C23.6729 83.4263 22.8924 83.5131 22.1119 83.4263C21.3314 83.3396 20.6376 82.9927 20.0306 82.4724C19.4235 81.9521 18.9032 81.2583 18.5563 80.3044C18.3829 79.9575 18.2962 79.5239 18.2095 79.177C18.1227 78.7434 18.1227 78.3965 18.2095 78.0496C18.2095 77.7895 18.2962 77.616 18.4696 77.4426C18.6431 77.2692 18.8165 77.1824 18.9899 77.0957C19.1634 77.009 19.4235 77.009 19.597 77.0957C19.7704 77.1824 19.9439 77.2692 20.0306 77.4426C20.1173 77.616 20.204 77.7895 20.204 78.0496C20.1173 78.57 20.204 79.0903 20.4642 79.6106C20.7244 80.3044 21.158 80.8247 21.765 80.9982C22.2853 81.1716 22.9791 81.1716 23.7596 80.8247C24.5401 80.4778 25.0604 80.1309 25.3206 79.6106C25.5807 79.0903 25.5807 78.4832 25.3206 77.7028C25.2338 77.5293 25.1471 77.2692 24.9737 77.0957C24.8002 76.9223 24.6268 76.6621 24.4534 76.4887C24.2799 76.3152 24.1932 76.0551 24.1065 75.8816C24.1065 75.7082 24.1065 75.5347 24.1932 75.3613C24.2799 75.1879 24.4534 75.0144 24.6268 74.9277C24.8002 74.841 24.9737 74.7542 25.2338 74.7542C25.4073 74.7542 25.6674 74.841 25.8409 75.0144C26.101 75.1879 26.3612 75.5347 26.6214 75.8816C26.7081 76.2285 26.8815 76.5754 27.055 77.009Z" fill="white"/>
</g>
<defs>
<clipPath id="clip0_968_1122">
<rect width="128" height="128" fill="white"/>
</clipPath>
</defs>
</svg>
