<svg width="128" height="128" viewBox="0 0 128 128" fill="none" xmlns="http://www.w3.org/2000/svg">
<g clip-path="url(#clip0_968_1129)">
<path d="M124.45 73.6262C121.501 77.0083 120.287 81.6045 121.154 85.9406C122.542 93.0517 118.466 100.163 111.528 102.504C107.279 103.979 103.984 107.274 102.509 111.523C100.081 118.374 93.0568 122.45 85.9456 121.149C81.5229 120.282 77.0134 121.496 73.6313 124.445C68.0812 129.214 60.0161 129.214 54.466 124.445C51.0839 121.496 46.5744 120.282 42.1516 121.149C35.0405 122.537 27.9294 118.461 25.5879 111.523C24.1137 107.274 20.8183 103.979 16.569 102.504C9.71801 100.076 5.64213 93.0517 6.94294 85.9406C7.81015 81.5178 6.59606 77.0083 3.64755 73.6262C-1.1221 68.0761 -1.1221 60.011 3.64755 54.4609C6.59606 51.0788 7.81015 46.5693 6.94294 42.1465C5.55541 34.9487 9.63129 27.9243 16.4822 25.4961C20.7316 24.0219 24.027 20.7265 25.5012 16.4772C27.9294 9.62621 34.9538 5.55033 42.0649 6.85114C46.4877 7.71835 50.9971 6.50426 54.3792 3.55575C59.9294 -1.2139 67.9944 -1.2139 73.5446 3.55575C76.9267 6.50426 81.4362 7.71835 85.8589 6.85114C92.97 5.46361 100.081 9.53949 102.423 16.4772C103.897 20.7265 107.192 24.0219 111.442 25.4961C118.293 27.9243 122.368 34.9487 121.068 42.0598C120.2 46.4826 121.414 50.9921 124.363 54.3742C129.219 59.9243 129.219 68.0761 124.45 73.6262Z" fill="#D94599"/>
<path d="M109.444 53.7674C109.01 53.7674 108.663 53.594 108.403 53.3338C108.143 53.0737 107.969 52.7268 107.969 52.2932C107.969 51.8596 108.143 51.5127 108.403 51.2525C108.663 50.9924 109.01 50.8189 109.444 50.8189C109.877 50.8189 110.311 50.9924 110.571 51.2525C110.831 51.5127 111.005 51.8596 111.005 52.2932C111.005 52.7268 110.831 53.0737 110.571 53.3338C110.311 53.594 109.964 53.7674 109.444 53.7674ZM109.444 49.0845C109.01 49.0845 108.663 48.9111 108.403 48.6509C108.143 48.3907 107.969 48.0439 107.969 47.6102C107.969 47.1766 108.143 46.8298 108.403 46.5696C108.663 46.3094 109.01 46.136 109.444 46.136C109.877 46.136 110.311 46.3094 110.571 46.5696C110.831 46.8298 111.005 47.1766 111.005 47.6102C111.005 48.0439 110.831 48.3907 110.571 48.6509C110.311 48.9111 109.964 49.0845 109.444 49.0845ZM103.026 53.7674C102.593 53.7674 102.246 53.6807 101.986 53.4205C101.725 53.1604 101.639 52.8135 101.639 52.3799V45.2688H99.2973C98.5168 45.2688 98.1699 44.9219 98.1699 44.1414C98.1699 43.3609 98.5168 43.014 99.2973 43.014H106.842C107.623 43.014 107.969 43.3609 107.969 44.1414C107.969 44.9219 107.623 45.2688 106.842 45.2688H104.501V52.3799C104.501 52.8135 104.414 53.1604 104.154 53.4205C103.894 53.6807 103.547 53.7674 103.026 53.7674ZM88.8908 53.7674C88.5439 53.7674 88.1971 53.6807 88.0236 53.4205C87.7634 53.1604 87.6767 52.8135 87.6767 52.3799V44.1414C87.6767 43.2742 88.1103 42.8406 88.9775 42.8406C89.4111 42.8406 89.6713 42.9273 89.9315 43.1875C90.1916 43.4476 90.2783 43.7078 90.2783 44.1414V49.0845L94.6144 43.6211C94.8745 43.3609 95.048 43.1008 95.2214 43.014C95.3949 42.9273 95.655 42.8406 96.0019 42.8406C96.3488 42.8406 96.609 42.9273 96.7824 43.1875C96.9558 43.4476 97.0426 43.7078 97.0426 44.0547V52.4666C97.0426 53.3338 96.609 53.7674 95.7418 53.7674C94.8745 53.7674 94.4409 53.3338 94.4409 52.4666V47.5235L90.1049 52.9869C89.8447 53.2471 89.6713 53.5073 89.4979 53.594C89.4111 53.7674 89.2377 53.7674 88.8908 53.7674ZM78.6578 53.7674C78.2241 53.7674 77.8773 53.6807 77.7038 53.4205C77.4437 53.1604 77.3569 52.8135 77.3569 52.3799V49.5181H76.6632C76.2296 49.5181 75.8827 49.6048 75.5358 49.7783C75.2756 49.9517 75.0155 50.2119 74.842 50.6455L73.8014 52.9002C73.6279 53.2471 73.4545 53.4205 73.1943 53.594C72.9342 53.7674 72.674 53.7674 72.3271 53.7674C72.067 53.7674 71.8068 53.594 71.5466 53.5073C71.2865 53.3338 71.1998 53.0737 71.113 52.8135C71.0263 52.5533 71.113 52.2065 71.2865 51.8596L72.3271 49.7783C72.7607 48.8243 73.3678 48.2173 74.0615 47.7837L72.1537 44.8352C71.9802 44.4883 71.8935 44.2281 71.8935 43.968C71.8935 43.7078 72.067 43.4476 72.2404 43.2742C72.4139 43.1008 72.674 42.9273 72.9342 42.9273C73.1943 42.8406 73.4545 42.9273 73.7147 43.014C73.9748 43.1008 74.235 43.3609 74.4084 43.6211L76.5765 47.3501H77.2702V44.2281C77.2702 43.7945 77.3569 43.4476 77.6171 43.1875C77.8773 42.9273 78.1374 42.8406 78.571 42.8406C79.0046 42.8406 79.3515 42.9273 79.525 43.1875C79.7851 43.4476 79.8718 43.7945 79.8718 44.2281V47.2634H80.6523L82.8204 43.5344C82.9938 43.1875 83.254 43.014 83.5141 42.9273C83.7743 42.8406 84.0344 42.8406 84.2946 42.8406C84.5548 42.9273 84.8149 43.014 84.9884 43.1875C85.1618 43.3609 85.2485 43.6211 85.3353 43.8812C85.3353 44.1414 85.2485 44.4883 85.0751 44.7485L83.1672 47.697C83.861 48.0439 84.3813 48.7376 84.9016 49.6915L85.9423 51.7728C86.1157 52.1197 86.2025 52.4666 86.1158 52.7268C86.029 52.9869 85.9423 53.2471 85.6821 53.4205C85.422 53.594 85.2485 53.6807 84.9016 53.6807C84.6415 53.6807 84.3813 53.6807 84.0344 53.5073C83.7743 53.3338 83.6008 53.1604 83.4274 52.8135L82.3867 50.6455C82.2133 50.2119 81.9531 49.9517 81.693 49.7783C81.4328 49.6048 81.0859 49.5181 80.5656 49.5181H79.8718V52.3799C79.8718 52.8135 79.7851 53.1604 79.525 53.4205C79.3515 53.6807 79.0914 53.7674 78.6578 53.7674ZM64.0019 47.8704H65.9098C67.0372 47.8704 67.5575 47.4368 67.5575 46.4829C67.5575 45.5289 66.9504 45.0953 65.9098 45.0953H64.0886V47.8704H64.0019ZM62.6144 53.7674C62.1808 53.7674 61.8339 53.6807 61.5737 53.4205C61.3136 53.1604 61.2269 52.8135 61.2269 52.3799V44.4016C61.2269 43.968 61.3136 43.6211 61.5737 43.3609C61.8339 43.1008 62.1808 43.014 62.6144 43.014H66.3434C67.5575 43.014 68.5114 43.3609 69.1185 43.968C69.8122 44.575 70.0724 45.4422 70.0724 46.5696C70.0724 47.697 69.7255 48.4775 69.1185 49.1712C68.4247 49.7783 67.5575 50.1252 66.3434 50.1252H64.0019V52.5533C64.0019 52.9869 63.9152 53.3338 63.655 53.594C63.4816 53.6807 63.1347 53.7674 62.6144 53.7674ZM53.422 53.6807C52.468 53.6807 51.9477 53.1604 51.9477 52.2065V44.4016C51.9477 43.4476 52.468 42.9273 53.422 42.9273H58.5385C59.2323 42.9273 59.6659 43.2742 59.6659 43.968C59.6659 44.6617 59.319 45.0953 58.5385 45.0953H54.6361V47.0899H58.1916C58.8854 47.0899 59.319 47.4368 59.319 48.1306C59.319 48.8243 58.9721 49.1712 58.1916 49.1712H54.6361V51.3392H58.5385C59.2323 51.3392 59.6659 51.6861 59.6659 52.3799C59.6659 53.0737 59.319 53.4205 58.5385 53.4205H53.422V53.6807ZM42.4951 51.5127H46.3109V45.0953H43.5358V46.0493C43.5358 47.2634 43.4491 48.3907 43.2756 49.2579C43.1022 50.2119 42.842 50.9056 42.4951 51.5127ZM39.8935 56.4558C39.113 56.4558 38.6794 56.0222 38.6794 55.2417V52.7268C38.6794 51.9463 39.0263 51.5994 39.7201 51.5127C40.5873 50.472 41.0209 48.5642 41.0209 45.7891V44.4016C41.0209 43.4476 41.5412 42.9273 42.4951 42.9273H47.6984C48.6523 42.9273 49.1727 43.4476 49.1727 44.4016V51.5127H49.4328C50.3 51.5127 50.6469 51.9463 50.6469 52.7268V55.2417C50.6469 56.0222 50.2133 56.4558 49.4328 56.4558C48.6523 56.4558 48.2187 56.0222 48.2187 55.2417V53.6807H41.0209V55.2417C41.1076 56.0222 40.674 56.4558 39.8935 56.4558ZM32.6957 51.5127C33.4762 51.5127 34.0832 51.2525 34.5168 50.6455C34.9504 50.1252 35.2106 49.3447 35.2106 48.304C35.2106 47.2634 34.9504 46.5696 34.5168 45.9626C34.0832 45.4422 33.4762 45.0953 32.6957 45.0953C31.9152 45.0953 31.3082 45.3555 30.8746 45.9626C30.4409 46.4829 30.1808 47.2634 30.1808 48.304C30.1808 49.3447 30.4409 50.1252 30.8746 50.6455C31.3082 51.2525 31.9152 51.5127 32.6957 51.5127ZM32.6957 53.8541C31.655 53.8541 30.7011 53.594 29.8339 53.1604C29.0534 52.7268 28.3596 52.033 27.926 51.2525C27.4924 50.3853 27.2323 49.4314 27.2323 48.3907C27.2323 47.2634 27.4924 46.3094 27.926 45.5289C28.3596 44.7485 28.9667 44.0547 29.8339 43.6211C30.6144 43.1875 31.5683 42.9273 32.6957 42.9273C33.7363 42.9273 34.6903 43.1875 35.5575 43.6211C36.338 44.0547 37.0317 44.7485 37.4653 45.5289C37.8989 46.3094 38.1591 47.3501 38.1591 48.3907C38.1591 49.5181 37.8989 50.472 37.4653 51.2525C37.0317 52.1197 36.338 52.7268 35.5575 53.1604C34.777 53.594 33.8231 53.8541 32.6957 53.8541ZM22.7228 53.8541C21.5087 53.8541 20.5548 53.594 19.6876 53.1604C18.8204 52.7268 18.2133 52.033 17.7797 51.2525C17.3461 50.3853 17.0859 49.4314 17.0859 48.304C17.0859 47.1766 17.3461 46.2227 17.7797 45.4422C18.2133 44.6617 18.9071 43.968 19.6876 43.5344C20.5548 43.1008 21.5087 42.8406 22.7228 42.8406C23.1564 42.8406 23.6767 42.9273 24.197 43.014C24.7174 43.1008 25.151 43.2742 25.4979 43.4476C25.758 43.6211 26.0182 43.7945 26.1049 44.0547C26.1916 44.3149 26.2783 44.4883 26.1916 44.7485C26.1916 45.0086 26.1049 45.1821 25.9315 45.4422C25.758 45.6157 25.5846 45.7891 25.4111 45.7891C25.151 45.8758 24.9775 45.7891 24.7174 45.7024C24.1103 45.4422 23.5033 45.2688 22.8962 45.2688C21.9423 45.2688 21.2485 45.5289 20.8149 46.0493C20.3813 46.5696 20.1212 47.3501 20.1212 48.304C20.1212 49.3447 20.3813 50.0384 20.8149 50.5588C21.2485 51.0791 22.029 51.3392 22.8962 51.3392C23.1564 51.3392 23.4166 51.3392 23.7634 51.2525C24.0236 51.1658 24.3705 51.0791 24.6307 50.9056C24.8908 50.7322 25.2377 50.7322 25.4111 50.8189C25.6713 50.9056 25.8447 50.9924 26.0182 51.1658C26.1916 51.3392 26.2783 51.5994 26.2783 51.7728C26.2783 52.033 26.2783 52.2065 26.1916 52.4666C26.1049 52.7268 25.9315 52.9002 25.6713 52.9869C25.3244 53.1604 24.8908 53.3338 24.3705 53.5073C23.7634 53.7674 23.2431 53.8541 22.7228 53.8541ZM67.6442 38.678C66.6903 38.678 66.1699 38.1577 66.1699 37.2037V29.3989C66.1699 28.4449 66.6903 27.9246 67.6442 27.9246H72.8475C73.5412 27.9246 73.9748 28.2715 73.9748 28.9653C73.9748 29.659 73.6279 30.0926 72.8475 30.0926H68.945V32.0872H72.5006C73.1943 32.0872 73.6279 32.4341 73.6279 33.1279C73.6279 33.8216 73.2811 34.1685 72.5006 34.1685H68.945V36.3365H72.8475C73.5412 36.3365 73.9748 36.6834 73.9748 37.3772C73.9748 38.071 73.6279 38.4178 72.8475 38.4178H67.6442V38.678ZM55.6767 38.7647C55.2431 38.7647 54.8962 38.678 54.6361 38.4178C54.3759 38.1577 54.2892 37.8108 54.2892 37.3772V29.3121C54.2892 28.8785 54.3759 28.5317 54.6361 28.2715C54.8962 28.0113 55.2431 27.9246 55.6767 27.9246C56.1103 27.9246 56.4572 28.0113 56.7174 28.2715C56.9775 28.5317 57.0643 28.8785 57.0643 29.3121V32.0872H61.487V29.2254C61.487 28.7918 61.5737 28.4449 61.8339 28.1848C62.0941 27.9246 62.4409 27.8379 62.8746 27.8379C63.3082 27.8379 63.655 27.9246 63.9152 28.1848C64.1754 28.4449 64.2621 28.7918 64.2621 29.2254V37.2905C64.2621 37.7241 64.1754 38.071 63.9152 38.3311C63.655 38.5913 63.3082 38.678 62.8746 38.678C62.4409 38.678 62.0941 38.5913 61.8339 38.3311C61.5737 38.071 61.487 37.7241 61.487 37.2905V34.342H57.0643V37.2905C57.0643 37.7241 56.9775 38.071 56.7174 38.3311C56.5439 38.678 56.197 38.7647 55.6767 38.7647Z" fill="#FEFCFA"/>
<path d="M79.6904 89.8427L78.6497 92.3576H80.8178L79.6904 89.8427ZM76.5684 95.653C76.2216 95.653 75.9614 95.5663 75.788 95.3062C75.6145 95.046 75.6145 94.7858 75.788 94.4389L78.563 88.5419C78.7365 88.2818 78.8232 88.0216 79.0833 87.9349C79.2568 87.7614 79.517 87.7614 79.7771 87.7614C80.0373 87.7614 80.2107 87.8482 80.4709 87.9349C80.6443 88.1083 80.8178 88.2818 80.9912 88.5419L83.7663 94.4389C83.9397 94.7858 83.9397 95.1327 83.7663 95.3062C83.5928 95.5663 83.3327 95.653 83.0725 95.653C82.8124 95.653 82.5522 95.5663 82.3787 95.4796C82.2053 95.3062 82.1186 95.1327 81.9451 94.8726L81.5983 94.0053H78.1294L77.7825 94.8726C77.6091 95.1327 77.5224 95.3929 77.3489 95.4796C77.0888 95.5663 76.9153 95.653 76.5684 95.653ZM71.6254 91.317H73.0129C73.7934 91.317 74.227 90.9701 74.227 90.3631C74.227 89.6693 73.7934 89.4091 73.0129 89.4091H71.6254V91.317ZM70.5847 95.653C70.2378 95.653 69.9777 95.5663 69.8042 95.3929C69.6308 95.2194 69.5441 94.9593 69.5441 94.6124V88.8021C69.5441 88.4552 69.6308 88.195 69.8042 88.0216C69.9777 87.8482 70.2378 87.7614 70.5847 87.7614H73.2731C74.1403 87.7614 74.834 88.0216 75.3544 88.4552C75.8747 88.8888 76.0481 89.4959 76.0481 90.3631C76.0481 91.1435 75.788 91.7506 75.3544 92.2709C74.834 92.7045 74.227 92.9647 73.2731 92.9647H71.5386V94.6991C71.5386 95.046 71.4519 95.3062 71.2785 95.4796C71.1917 95.5663 70.9316 95.653 70.5847 95.653ZM64.4275 93.9186C65.0346 93.9186 65.4682 93.7452 65.8151 93.3116C66.1619 92.878 66.3354 92.3576 66.3354 91.5772C66.3354 90.8834 66.1619 90.2763 65.8151 89.8427C65.4682 89.4091 65.0346 89.2357 64.4275 89.2357C63.8205 89.2357 63.3869 89.4091 63.04 89.8427C62.6931 90.2763 62.5197 90.7967 62.5197 91.5772C62.5197 92.2709 62.6931 92.878 63.04 93.3116C63.3869 93.7452 63.8205 93.9186 64.4275 93.9186ZM64.4275 95.653C63.647 95.653 62.9533 95.4796 62.3462 95.1327C61.7392 94.7858 61.3056 94.3522 60.9587 93.7452C60.6118 93.1381 60.4384 92.4444 60.4384 91.6639C60.4384 90.8834 60.6118 90.1029 60.9587 89.5826C61.3056 88.9755 61.7392 88.5419 62.3462 88.195C62.9533 87.8482 63.647 87.6747 64.4275 87.6747C65.208 87.6747 65.9018 87.8482 66.5088 88.195C67.1159 88.5419 67.5495 88.9755 67.8964 89.5826C68.2432 90.1896 68.4167 90.8834 68.4167 91.6639C68.4167 92.4444 68.2432 93.1381 67.8964 93.7452C67.5495 94.3522 67.1159 94.7858 66.5088 95.1327C65.9018 95.4796 65.208 95.653 64.4275 95.653ZM58.1836 95.653C57.8367 95.653 57.5766 95.5663 57.4031 95.3929C57.2297 95.2194 57.143 94.9593 57.143 94.6124V89.4091H55.1484V90.7099C55.1484 91.8373 54.975 92.7912 54.6281 93.5717C54.2812 94.3522 53.7609 94.9593 53.1538 95.4796C52.8936 95.653 52.7202 95.653 52.46 95.653C52.1999 95.653 52.0264 95.4796 51.853 95.2194C51.6796 94.9593 51.5928 94.7858 51.6796 94.5257C51.7663 94.2655 51.853 94.0921 52.1132 93.9186C52.5468 93.5717 52.8937 93.0514 53.0671 92.4444C53.2405 91.8373 53.3273 91.0568 53.3273 90.1029V88.7154C53.3273 88.0216 53.6741 87.6747 54.3679 87.6747H58.1836C58.8774 87.6747 59.2243 88.0216 59.2243 88.7154V94.5257C59.2243 94.8725 59.1376 95.1327 58.9641 95.3062C58.7907 95.5663 58.5305 95.653 58.1836 95.653ZM45.1755 95.653C44.9153 95.653 44.7419 95.5663 44.5684 95.4796C44.395 95.3062 44.3083 95.1327 44.3083 94.9593C44.3083 94.6991 44.395 94.5257 44.5684 94.2655L46.563 91.6639L44.6552 89.149C44.4817 88.8888 44.395 88.7154 44.4817 88.4552C44.4817 88.2818 44.5684 88.0216 44.7419 87.9349C44.9153 87.7614 45.0888 87.7614 45.3489 87.7614C45.5224 87.7614 45.7825 87.8482 45.956 87.9349C46.1294 88.0216 46.3029 88.195 46.4763 88.4552L47.7771 90.2763L49.0779 88.4552C49.2514 88.195 49.4248 88.0216 49.5983 87.9349C49.7717 87.8482 49.9451 87.7614 50.2053 87.7614C50.4655 87.7614 50.7256 87.8482 50.8991 87.9349C51.0725 88.1083 51.1592 88.2818 51.1592 88.4552C51.1592 88.7154 51.0725 88.8888 50.8991 89.149L48.9912 91.6639L50.9858 94.2655C51.1592 94.5257 51.246 94.6991 51.246 94.9593C51.246 95.2194 51.1592 95.3929 50.9858 95.4796C50.8123 95.653 50.6389 95.653 50.292 95.653C50.1186 95.653 49.8584 95.5663 49.7717 95.4796C49.5983 95.3929 49.4248 95.2194 49.2514 94.9593L47.8638 93.0514L46.4763 94.9593C46.3029 95.2194 46.1294 95.3929 45.956 95.4796C45.6091 95.5663 45.4357 95.653 45.1755 95.653ZM98.1619 83.9457C98.0752 84.1192 97.9018 84.2059 97.7283 84.2059C97.5549 84.2059 97.4682 84.2059 97.3815 84.1192C97.2947 84.0324 97.208 83.9457 97.208 83.7723C97.208 83.5988 97.2947 83.5121 97.3815 83.3387C97.4682 83.252 97.5549 83.0785 97.6416 82.9918C97.7283 82.9051 97.7283 82.7316 97.8151 82.6449C97.5549 82.6449 97.2947 82.4715 97.1213 82.298C96.9479 82.1246 96.8611 81.8644 96.8611 81.5175C96.8611 81.1707 96.9479 80.9105 97.1213 80.737C97.2947 80.5636 97.5549 80.4769 97.9018 80.4769C98.2487 80.4769 98.5088 80.5636 98.6823 80.8238C98.8557 81.0839 98.9424 81.3441 98.9424 81.7777C98.9424 82.1246 98.8557 82.3847 98.769 82.7316C98.6823 83.1652 98.5088 83.5121 98.1619 83.9457ZM91.311 81.0839H92.9587C93.3056 81.0839 93.6525 80.9972 93.8259 80.9105C93.9993 80.737 94.0861 80.5636 94.0861 80.3034C94.0861 80.0433 93.9993 79.7831 93.8259 79.6964C93.6525 79.523 93.3923 79.523 92.9587 79.523H91.311V81.0839ZM91.311 77.8753H92.7852C93.1321 77.8753 93.3923 77.7885 93.5657 77.7018C93.7392 77.5284 93.8259 77.3549 93.8259 77.0948C93.8259 76.8346 93.7392 76.6612 93.5657 76.4877C93.3923 76.401 93.1321 76.3143 92.7852 76.3143H91.311V77.8753ZM90.4438 82.5582C89.75 82.5582 89.4031 82.2113 89.4031 81.5175V75.794C89.4031 75.1002 89.75 74.7533 90.4438 74.7533H93.1321C93.9993 74.7533 94.6064 74.9268 95.1267 75.2736C95.5603 75.6205 95.8205 76.1408 95.8205 76.7479C95.8205 77.1815 95.7337 77.5284 95.4736 77.7885C95.3001 78.0487 94.9533 78.3089 94.6064 78.4823C95.04 78.6557 95.3869 78.8292 95.647 79.1761C95.9072 79.523 95.9939 79.8698 95.9939 80.3034C95.9939 80.9972 95.7337 81.5175 95.3001 81.9511C94.7798 82.3847 94.1728 82.5582 93.3056 82.5582H90.4438ZM84.1999 80.9972C84.8069 80.9972 85.2405 80.8238 85.5874 80.3902C85.9343 79.9566 86.1077 79.4362 86.1077 78.6557C86.1077 77.962 85.9343 77.3549 85.5874 76.9213C85.2405 76.4877 84.8069 76.3143 84.1999 76.3143C83.5928 76.3143 83.1592 76.4877 82.8124 76.9213C82.4655 77.3549 82.292 77.8753 82.292 78.6557C82.292 79.3495 82.4655 79.9566 82.8124 80.3902C83.1592 80.8238 83.5928 80.9972 84.1999 80.9972ZM84.1999 82.7316C83.4194 82.7316 82.7256 82.5582 82.1186 82.2113C81.5115 81.8644 81.0779 81.4308 80.731 80.8238C80.3842 80.2167 80.2107 79.523 80.2107 78.7425C80.2107 77.962 80.3842 77.1815 80.731 76.6612C81.0779 76.0541 81.5115 75.6205 82.1186 75.2736C82.7256 74.9268 83.4194 74.7533 84.1999 74.7533C84.9804 74.7533 85.6741 74.9268 86.2812 75.2736C86.8882 75.6205 87.3218 76.0541 87.6687 76.6612C88.0156 77.2682 88.189 77.962 88.189 78.7425C88.189 79.523 88.0156 80.2167 87.6687 80.8238C87.3218 81.4308 86.8882 81.8644 86.2812 82.2113C85.6741 82.5582 84.9804 82.7316 84.1999 82.7316ZM76.5684 82.7316C76.2216 82.7316 75.9614 82.6449 75.788 82.4715C75.6145 82.298 75.5278 82.0379 75.5278 81.691V76.4877H73.7934C73.2731 76.4877 72.9262 76.2276 72.9262 75.6205C72.9262 75.1002 73.1863 74.7533 73.7934 74.7533H79.3435C79.8638 74.7533 80.2107 75.0135 80.2107 75.6205C80.2107 76.1408 79.9506 76.4877 79.3435 76.4877H77.6091V81.691C77.6091 82.0379 77.5224 82.298 77.3489 82.4715C77.0888 82.6449 76.8286 82.7316 76.5684 82.7316ZM69.7175 76.9213L68.6768 79.4362H70.8449L69.7175 76.9213ZM66.5955 82.7316C66.2487 82.7316 65.9885 82.6449 65.8151 82.3847C65.6416 82.1246 65.6416 81.8644 65.8151 81.5175L68.5901 75.6205C68.7636 75.3604 68.8503 75.1002 69.1104 75.0135C69.2839 74.84 69.5441 74.84 69.8042 74.84C70.0644 74.84 70.2378 74.9267 70.498 75.0135C70.6714 75.1869 70.8449 75.3604 71.0183 75.6205L73.7934 81.5175C73.9668 81.8644 73.9668 82.2113 73.7934 82.3847C73.6199 82.6449 73.3598 82.7316 73.0996 82.7316C72.8395 82.7316 72.5793 82.6449 72.4058 82.5582C72.2324 82.3847 72.1457 82.2113 71.9722 81.9511L71.6254 81.0839H68.1565L67.8096 81.9511C67.6362 82.2113 67.5495 82.4715 67.376 82.5582C67.1159 82.6449 66.8557 82.7316 66.5955 82.7316ZM62.9533 78.6557C62.9533 77.962 62.7798 77.5284 62.5197 77.1815C62.1728 76.9213 61.8259 76.7479 61.3923 76.7479V80.4769C61.6525 80.4769 61.9126 80.3902 62.1728 80.3034C62.4329 80.2167 62.6064 79.9566 62.7798 79.6964C62.8666 79.4362 62.9533 79.0893 62.9533 78.6557ZM59.311 80.4769V76.7479C58.8774 76.7479 58.5305 76.9213 58.1836 77.1815C57.8367 77.4417 57.75 77.962 57.75 78.6557C57.75 79.0893 57.8367 79.4362 57.9235 79.6964C58.0969 79.9566 58.2703 80.2167 58.5305 80.3034C58.7907 80.4769 59.0508 80.4769 59.311 80.4769ZM60.3516 82.9918C60.0048 82.9918 59.7446 82.9051 59.5712 82.7316C59.3977 82.5582 59.311 82.298 59.311 81.9511C58.1836 81.9511 57.3164 81.6043 56.6227 81.0839C56.0156 80.4769 55.6687 79.6964 55.6687 78.6557C55.6687 77.6151 56.0156 76.7479 56.6227 76.2276C57.2297 75.6205 58.1836 75.3604 59.311 75.3604C59.311 75.1002 59.3977 74.84 59.5712 74.6666C59.7446 74.4931 60.0048 74.4064 60.2649 74.4064C60.872 74.4064 61.2188 74.7533 61.3056 75.3604C62.4329 75.3604 63.3869 75.7072 63.9939 76.2276C64.601 76.8346 64.9478 77.6151 64.9478 78.6557C64.9478 79.6964 64.601 80.5636 63.9939 81.0839C63.3869 81.691 62.4329 81.9511 61.3056 81.9511C61.3923 82.6449 61.0454 82.9918 60.3516 82.9918ZM52.1999 82.7316C51.3327 82.7316 50.5522 82.5582 49.9451 82.2113C49.3381 81.8644 48.8178 81.4308 48.5576 80.8238C48.2107 80.2167 48.0373 79.523 48.0373 78.7425C48.0373 77.962 48.2107 77.1815 48.5576 76.6612C48.9045 76.0541 49.3381 75.6205 49.9451 75.2736C50.5522 74.9268 51.3327 74.7533 52.1999 74.7533C52.5468 74.7533 52.8937 74.7533 53.2405 74.84C53.5874 74.9268 53.9343 75.0135 54.1945 75.1869C54.3679 75.2736 54.5413 75.4471 54.6281 75.6205C54.7148 75.794 54.7148 75.9674 54.7148 76.1408C54.7148 76.3143 54.6281 76.4877 54.5413 76.5744C54.4546 76.7479 54.2812 76.8346 54.1077 76.8346C53.9343 76.9213 53.7609 76.8346 53.5874 76.7479C53.1538 76.5744 52.7202 76.401 52.2866 76.401C51.5928 76.401 51.0725 76.5744 50.7256 77.0081C50.3787 77.3549 50.2053 77.962 50.2053 78.6557C50.2053 79.3495 50.3787 79.9566 50.7256 80.3034C51.0725 80.6503 51.5928 80.9105 52.2866 80.9105C52.46 80.9105 52.7202 80.9105 52.8937 80.8238C53.1538 80.737 53.3273 80.737 53.5874 80.5636C53.8476 80.4769 54.021 80.4769 54.1945 80.4769C54.3679 80.5636 54.5413 80.6503 54.6281 80.737C54.7148 80.9105 54.8015 80.9972 54.8015 81.1707C54.8015 81.3441 54.8015 81.5175 54.7148 81.691C54.6281 81.8644 54.5413 82.0379 54.2812 82.1246C54.021 82.298 53.6741 82.3847 53.3273 82.4715C52.9804 82.6449 52.6335 82.7316 52.1999 82.7316ZM43.0942 80.9972C43.7012 80.9972 44.1348 80.8238 44.4817 80.3902C44.8286 79.9566 45.0021 79.4362 45.0021 78.6557C45.0021 77.962 44.8286 77.3549 44.4817 76.9213C44.1348 76.4877 43.7012 76.3143 43.0942 76.3143C42.4871 76.3143 42.0535 76.4877 41.7067 76.9213C41.3598 77.3549 41.1863 77.8753 41.1863 78.6557C41.1863 79.3495 41.3598 79.9566 41.7067 80.3902C42.0535 80.8238 42.5739 80.9972 43.0942 80.9972ZM43.0942 82.7316C42.3137 82.7316 41.6199 82.5582 41.0129 82.2113C40.4058 81.8644 39.9722 81.4308 39.6254 80.8238C39.2785 80.2167 39.105 79.523 39.105 78.7425C39.105 77.962 39.2785 77.1815 39.6254 76.6612C39.9722 76.0541 40.4058 75.6205 41.0129 75.2736C41.6199 74.9268 42.3137 74.7533 43.0942 74.7533C43.8747 74.7533 44.5684 74.9268 45.1755 75.2736C45.7825 75.6205 46.2161 76.0541 46.563 76.6612C46.9099 77.2682 47.0834 77.962 47.0834 78.7425C47.0834 79.523 46.9099 80.2167 46.563 80.8238C46.2161 81.4308 45.7825 81.8644 45.1755 82.2113C44.5684 82.5582 43.8747 82.7316 43.0942 82.7316ZM36.0698 78.6557C36.0698 77.962 35.8964 77.5284 35.6362 77.1815C35.2893 76.9213 34.9424 76.7479 34.5088 76.7479V80.4769C34.769 80.4769 35.0292 80.3902 35.2893 80.3034C35.5495 80.2167 35.7229 79.9566 35.8964 79.6964C35.9831 79.4362 36.0698 79.0893 36.0698 78.6557ZM32.5142 80.4769V76.7479C32.0806 76.7479 31.7338 76.9213 31.3869 77.1815C31.04 77.4417 30.9533 77.962 30.9533 78.6557C30.9533 79.0893 31.04 79.4362 31.1267 79.6964C31.3002 79.9566 31.4736 80.2167 31.7338 80.3034C31.9072 80.4769 32.2541 80.4769 32.5142 80.4769ZM33.4682 82.9918C33.1213 82.9918 32.8611 82.9051 32.6877 82.7316C32.5142 82.5582 32.4275 82.298 32.4275 81.9511C31.3002 81.9511 30.4329 81.6043 29.7392 81.0839C29.1321 80.4769 28.7853 79.6964 28.7853 78.6557C28.7853 77.6151 29.1321 76.7479 29.7392 76.2276C30.3462 75.6205 31.3002 75.3604 32.4275 75.3604C32.4275 75.1002 32.5142 74.84 32.6877 74.6666C32.8611 74.4931 33.1213 74.4064 33.3815 74.4064C33.9885 74.4064 34.3354 74.7533 34.4221 75.3604C35.5495 75.3604 36.5034 75.7072 37.1105 76.2276C37.7175 76.8346 38.0644 77.6151 38.0644 78.6557C38.0644 79.6964 37.7175 80.5636 37.1105 81.0839C36.5034 81.691 35.5495 81.9511 34.4221 81.9511C34.5088 82.6449 34.1619 82.9918 33.4682 82.9918ZM102.325 70.9376C102.238 71.111 102.064 71.1977 101.891 71.1977C101.717 71.1977 101.631 71.1978 101.544 71.111C101.457 71.0243 101.371 70.9376 101.371 70.7641C101.371 70.5907 101.457 70.504 101.544 70.3305C101.631 70.2438 101.717 70.0704 101.804 69.9837C101.891 69.8969 101.891 69.7235 101.978 69.6368C101.717 69.6368 101.457 69.4633 101.284 69.2899C101.11 69.1165 101.024 68.8563 101.024 68.5094C101.024 68.1625 101.11 67.9024 101.284 67.7289C101.457 67.5555 101.717 67.4688 102.064 67.4688C102.411 67.4688 102.671 67.5555 102.845 67.8156C103.018 68.0758 103.105 68.336 103.105 68.7696C103.105 69.1165 103.018 69.3766 102.932 69.7235C102.845 70.1571 102.671 70.5907 102.325 70.9376ZM96.3408 61.2249C95.7337 61.2249 95.3001 61.1381 94.8665 60.878C94.5197 60.6178 94.2595 60.3576 94.0861 60.0108C93.9993 59.8373 93.9993 59.6639 94.0861 59.5772C94.1728 59.4904 94.2595 59.4037 94.4329 59.317C94.6064 59.2303 94.6931 59.2303 94.7798 59.317C94.8666 59.4037 94.9533 59.4904 95.1267 59.6639C95.3869 60.0108 95.8205 60.1842 96.3408 60.1842C96.8611 60.1842 97.2947 60.0108 97.5549 59.6639C97.6416 59.4904 97.7283 59.4037 97.9018 59.317C97.9885 59.2303 98.1619 59.2303 98.2487 59.317C98.4221 59.4037 98.5088 59.4037 98.5955 59.5772C98.6823 59.6639 98.6823 59.8373 98.5955 60.0108C98.4221 60.3576 98.1619 60.7045 97.8151 60.878C97.3815 61.1381 96.9478 61.2249 96.3408 61.2249ZM93.7392 69.7235C93.479 69.7235 93.2188 69.6368 93.1321 69.4633C92.9587 69.2899 92.872 69.0297 92.872 68.6828V62.6124C92.872 62.0053 93.2188 61.6585 93.8259 61.6585C94.0861 61.6585 94.3462 61.7452 94.5197 61.9186C94.6931 62.0921 94.7798 62.3522 94.7798 62.6124V66.2547L97.9885 62.2655C98.1619 62.0921 98.3354 61.9186 98.4221 61.8319C98.5955 61.7452 98.769 61.6585 99.0291 61.6585C99.2893 61.6585 99.4627 61.7452 99.6362 61.9186C99.8096 62.0921 99.8964 62.2655 99.8964 62.6124V68.7696C99.8964 69.3766 99.5495 69.7235 98.9424 69.7235C98.3354 69.7235 97.9885 69.3766 97.9885 68.7696V65.1273L94.7798 69.1164C94.6064 69.2899 94.4329 69.4633 94.3462 69.5501C94.1728 69.7235 93.9993 69.7235 93.7392 69.7235ZM87.1484 69.6368C86.4546 69.6368 86.1077 69.2899 86.1077 68.5961V62.8725C86.1077 62.1788 86.4546 61.8319 87.1484 61.8319H90.8774C91.3977 61.8319 91.6579 62.0921 91.6579 62.6124C91.6579 63.1327 91.3977 63.3929 90.8774 63.3929H88.0156V64.8671H90.6172C91.1376 64.8671 91.3977 65.1273 91.3977 65.6476C91.3977 66.1679 91.1376 66.4281 90.6172 66.4281H88.0156V67.9891H90.8774C91.3977 67.9891 91.6579 68.2492 91.6579 68.7696C91.6579 69.2899 91.3977 69.5501 90.8774 69.5501H87.1484V69.6368ZM83.5928 69.7235C83.2459 69.7235 82.9858 69.6368 82.8124 69.4633C82.6389 69.2899 82.5522 69.0297 82.5522 68.6828V63.4796H80.5576V64.7804C80.5576 65.9078 80.3842 66.8617 80.0373 67.6422C79.6904 68.4227 79.1701 69.0297 78.563 69.5501C78.3029 69.7235 78.1294 69.7235 77.8693 69.7235C77.6091 69.7235 77.4356 69.5501 77.2622 69.2899C77.0888 69.0297 77.002 68.8563 77.0888 68.5961C77.1755 68.336 77.2622 68.1625 77.5224 67.9891C77.956 67.6422 78.3029 67.1219 78.4763 66.5148C78.6497 65.9078 78.7365 65.1273 78.7365 64.1734V62.7858C78.7365 62.0921 79.0834 61.7452 79.7771 61.7452H83.5928C84.2866 61.7452 84.6335 62.0921 84.6335 62.7858V68.5961C84.6335 68.943 84.5468 69.2032 84.3733 69.3766C84.1999 69.6368 83.9397 69.7235 83.5928 69.7235ZM71.8855 69.6368C71.1918 69.6368 70.8449 69.2899 70.8449 68.5961V62.8725C70.8449 62.1788 71.1918 61.8319 71.8855 61.8319H75.6145C76.1348 61.8319 76.395 62.0921 76.395 62.6124C76.395 63.1327 76.1348 63.3929 75.6145 63.3929H72.7527V64.8671H75.3544C75.8747 64.8671 76.1348 65.1273 76.1348 65.6476C76.1348 66.1679 75.8747 66.4281 75.3544 66.4281H72.7527V67.9891H75.6145C76.1348 67.9891 76.395 68.2492 76.395 68.7696C76.395 69.2899 76.1348 69.5501 75.6145 69.5501H71.8855V69.6368ZM66.5088 69.7235C66.1619 69.7235 65.9018 69.6368 65.7283 69.4633C65.5549 69.2899 65.4682 69.0297 65.4682 68.6828V63.4796H63.7338C63.2134 63.4796 62.8665 63.2194 62.8665 62.6124C62.8665 62.0921 63.1267 61.7452 63.7338 61.7452H69.2839C69.8042 61.7452 70.1511 62.0053 70.1511 62.6124C70.1511 63.1327 69.8909 63.4796 69.2839 63.4796H67.5495V68.6828C67.5495 69.0297 67.4628 69.2899 67.2893 69.4633C67.1159 69.6368 66.8557 69.7235 66.5088 69.7235ZM56.189 69.7235C55.9289 69.7235 55.6687 69.6368 55.582 69.4633C55.4086 69.2899 55.3218 69.0297 55.3218 68.6828V62.6124C55.3218 62.0053 55.6687 61.6585 56.2758 61.6585C56.5359 61.6585 56.7961 61.7452 56.9695 61.9186C57.143 62.0921 57.2297 62.3522 57.2297 62.6124V66.2547L60.4384 62.2655C60.6118 62.0921 60.7852 61.9186 60.872 61.8319C61.0454 61.7452 61.2189 61.6585 61.479 61.6585C61.7392 61.6585 61.9126 61.7452 62.0861 61.9186C62.2595 62.0921 62.3462 62.2655 62.3462 62.6124V68.7696C62.3462 69.3766 61.9993 69.7235 61.3923 69.7235C60.7853 69.7235 60.4384 69.3766 60.4384 68.7696V65.1273L57.2297 69.1164C57.0563 69.2899 56.8828 69.4633 56.7961 69.5501C56.6226 69.7235 56.3625 69.7235 56.189 69.7235ZM51.5928 69.7235C50.7256 69.7235 50.0319 69.5501 49.3381 69.2032C48.7311 68.8563 48.2107 68.4227 47.9506 67.8156C47.6037 67.2086 47.4302 66.5148 47.4302 65.7343C47.4302 64.9539 47.6037 64.2601 47.9506 63.653C48.2974 63.046 48.7311 62.6124 49.3381 62.2655C49.9451 61.9186 50.7256 61.7452 51.5928 61.7452C51.9397 61.7452 52.2866 61.7452 52.6335 61.8319C52.9804 61.9186 53.3273 62.0053 53.5874 62.1788C53.7609 62.2655 53.9343 62.4389 54.021 62.6124C54.1077 62.7858 54.1077 62.9593 54.1077 63.1327C54.1077 63.3062 54.021 63.4796 53.9343 63.5663C53.8476 63.7398 53.6741 63.8265 53.5007 63.8265C53.3273 63.9132 53.1538 63.8265 52.9804 63.7398C52.5468 63.5663 52.1132 63.3929 51.6796 63.3929C50.9858 63.3929 50.4655 63.5663 50.1186 63.9999C49.7717 64.3468 49.5983 64.9538 49.5983 65.6476C49.5983 66.3414 49.7717 66.9484 50.1186 67.2953C50.4655 67.6422 50.9858 67.9024 51.6796 67.9024C51.853 67.9024 52.1132 67.9024 52.2866 67.8156C52.5468 67.7289 52.7202 67.7289 52.9804 67.5555C53.2405 67.4688 53.414 67.4688 53.5874 67.4688C53.7609 67.5555 53.9343 67.6422 54.021 67.7289C54.1077 67.9024 54.1945 67.9891 54.1945 68.1625C54.1945 68.336 54.1945 68.5094 54.1077 68.6828C54.021 68.8563 53.9343 69.0297 53.6741 69.1164C53.414 69.2899 53.0671 69.3766 52.7202 69.4633C52.3733 69.7235 52.0264 69.7235 51.5928 69.7235ZM42.9208 63.9999L41.8801 66.5148H44.0481L42.9208 63.9999ZM39.7988 69.7235C39.4519 69.7235 39.1918 69.6368 39.0183 69.3766C38.8449 69.1165 38.8449 68.8563 39.0183 68.5094L41.7934 62.6124C41.9668 62.3522 42.0535 62.0921 42.3137 62.0053C42.4871 61.8319 42.7473 61.8319 43.0075 61.8319C43.2676 61.8319 43.4411 61.9186 43.7012 62.0053C43.8747 62.1788 44.0481 62.3522 44.2216 62.6124L46.9966 68.5094C47.1701 68.8563 47.1701 69.2032 46.9966 69.3766C46.8232 69.6368 46.563 69.7235 46.3029 69.7235C46.0427 69.7235 45.7825 69.6368 45.6091 69.5501C45.4357 69.3766 45.3489 69.2032 45.1755 68.943L44.8286 68.0758H41.3598L41.0129 68.943C40.8394 69.2032 40.7527 69.4633 40.5793 69.5501C40.3191 69.6368 40.1457 69.7235 39.7988 69.7235ZM34.8557 65.3875H36.2432C37.0237 65.3875 37.4573 65.0406 37.4573 64.4335C37.4573 63.7398 37.0237 63.4796 36.2432 63.4796H34.8557V65.3875ZM33.8151 69.7235C33.4682 69.7235 33.208 69.6368 33.0346 69.4633C32.8611 69.2899 32.7744 69.0297 32.7744 68.6828V62.8725C32.7744 62.5257 32.8611 62.2655 33.0346 62.0921C33.208 61.9186 33.4682 61.8319 33.8151 61.8319H36.5034C37.3706 61.8319 38.0644 62.0921 38.5847 62.5257C39.105 62.9593 39.2785 63.5663 39.2785 64.4335C39.2785 65.214 39.0183 65.8211 38.5847 66.3414C38.0644 66.775 37.4573 67.0352 36.5034 67.0352H34.769V68.7696C34.769 69.1165 34.6823 69.3766 34.5088 69.5501C34.4221 69.6368 34.1619 69.7235 33.8151 69.7235ZM25.9235 69.7235C25.5766 69.7235 25.3164 69.6368 25.143 69.4633C24.9695 69.2899 24.8828 69.0297 24.8828 68.6828V62.6991C24.8828 62.3522 24.9695 62.0921 25.143 61.9186C25.3164 61.7452 25.5766 61.6585 25.9235 61.6585C26.2703 61.6585 26.5305 61.7452 26.7039 61.9186C26.8774 62.0921 26.9641 62.3522 26.9641 62.6991V64.8671H27.7446L29.3056 62.1788C29.479 61.9186 29.5657 61.8319 29.8259 61.7452C29.9993 61.6585 30.1728 61.6585 30.4329 61.6585C30.6064 61.7452 30.7798 61.8319 30.9533 61.9186C31.1267 62.0921 31.1267 62.2655 31.2134 62.4389C31.2134 62.6124 31.2134 62.8726 31.04 63.1327L29.6525 65.3007C30.1728 65.5609 30.6064 66.0812 30.8665 66.6883L31.647 68.1625C31.8205 68.4227 31.8205 68.6828 31.7338 68.8563C31.647 69.0297 31.5603 69.2032 31.3869 69.3766C31.2134 69.4633 31.04 69.5501 30.8665 69.6368C30.6931 69.6368 30.4329 69.6368 30.2595 69.5501C30.0861 69.4633 29.9126 69.2899 29.8259 69.0297L29.0454 67.382C28.872 67.1219 28.6985 66.8617 28.5251 66.775C28.3516 66.6883 28.0915 66.6015 27.7446 66.6015H27.0508V68.6828C27.0508 69.0297 26.9641 69.2899 26.7907 69.4633C26.5305 69.6368 26.2703 69.7235 25.9235 69.7235Z" fill="#FEFCFA"/>
</g>
<defs>
<clipPath id="clip0_968_1129">
<rect width="128" height="128" fill="white"/>
</clipPath>
</defs>
</svg>
