<svg width="128" height="128" viewBox="0 0 128 128" fill="none" xmlns="http://www.w3.org/2000/svg">
<g clip-path="url(#clip0_968_1133)">
<path d="M124.45 73.6262C121.501 77.0083 120.287 81.6045 121.154 85.9406C122.542 93.0517 118.466 100.163 111.528 102.504C107.279 103.979 103.984 107.274 102.509 111.523C100.081 118.374 93.0568 122.45 85.9456 121.149C81.5229 120.282 77.0134 121.496 73.6313 124.445C68.0812 129.214 60.0161 129.214 54.466 124.445C51.0839 121.496 46.5744 120.282 42.1516 121.149C35.0405 122.537 27.9294 118.461 25.5879 111.523C24.1137 107.274 20.8183 103.979 16.569 102.504C9.71801 100.076 5.64213 93.0517 6.94294 85.9406C7.81015 81.5178 6.59606 77.0083 3.64755 73.6262C-1.1221 68.0761 -1.1221 60.011 3.64755 54.4609C6.59606 51.0788 7.81015 46.5693 6.94294 42.1465C5.55541 34.9487 9.63129 27.9243 16.4822 25.4961C20.7316 24.0219 24.027 20.7265 25.5012 16.4772C27.9294 9.62621 34.9538 5.55033 42.0649 6.85114C46.4877 7.71835 50.9971 6.50426 54.3793 3.55575C59.9294 -1.2139 67.9944 -1.2139 73.5446 3.55575C76.9267 6.50426 81.4362 7.71835 85.8589 6.85114C92.97 5.46361 100.081 9.53949 102.423 16.4772C103.897 20.7265 107.192 24.0219 111.442 25.4961C118.293 27.9243 122.368 34.9487 121.068 42.0598C120.2 46.4826 121.414 50.9921 124.363 54.3742C129.219 59.9243 129.219 68.0761 124.45 73.6262Z" fill="#D94599"/>
<path d="M90.4502 104.413C91.0572 104.066 91.5775 103.893 92.0111 103.893C92.5315 103.893 92.9651 103.98 93.312 104.24C93.4854 104.326 93.5721 104.5 93.5721 104.673C93.5721 104.847 93.5721 104.933 93.3987 105.107C93.312 105.28 93.1385 105.367 93.0518 105.367C92.8784 105.367 92.7916 105.367 92.5315 105.28C92.0979 105.107 91.5775 105.194 91.0572 105.454C90.5369 105.801 90.2767 106.234 90.2767 106.755C90.2767 106.928 90.19 107.102 90.19 107.275C90.1033 107.362 90.0166 107.448 89.8431 107.535C89.6697 107.622 89.4962 107.535 89.4095 107.535C89.2361 107.448 89.1494 107.275 89.1494 107.102C89.0626 106.668 89.1494 106.234 89.3228 105.801C89.4962 105.194 89.9298 104.76 90.4502 104.413ZM87.7618 94.7004C88.022 94.527 88.2822 94.4403 88.5423 94.527C88.8025 94.6137 89.0626 94.7872 89.2361 95.134L92.9651 100.944C93.312 101.551 93.2252 102.072 92.6182 102.419C92.358 102.592 92.0111 102.679 91.8377 102.592C91.5775 102.505 91.3174 102.332 91.1439 102.072L88.8892 98.6029L88.2822 104.413C88.2822 104.673 88.1954 104.933 88.1087 105.107C88.022 105.28 87.8485 105.454 87.5884 105.627C87.3282 105.801 87.0681 105.801 86.8946 105.714C86.6345 105.627 86.461 105.454 86.2876 105.194L82.5586 99.2966C82.125 98.6896 82.2984 98.1693 82.9055 97.8224C83.5125 97.4755 84.0328 97.5622 84.3797 98.1693L86.6345 101.638L87.2415 95.8278C87.2415 95.5676 87.3282 95.3075 87.4149 95.134C87.4149 94.9606 87.5017 94.7872 87.7618 94.7004ZM96.7808 88.3698L95.8269 89.4105C95.5667 89.7573 95.3933 90.0175 95.3933 90.2777C95.3933 90.5378 95.48 90.798 95.7401 90.9714C96.0003 91.1449 96.2605 91.2316 96.4339 91.2316C96.6941 91.1449 96.9542 90.9714 97.2144 90.7113L98.1683 89.6706L96.7808 88.3698ZM90.7971 92.359C91.0572 92.0988 91.3174 91.9254 91.5775 91.9254C91.8377 91.9254 92.1846 92.0121 92.4447 92.2723L97.5613 96.695C97.8214 96.9552 97.9949 97.2153 97.9949 97.4755C97.9949 97.7357 97.9082 98.0826 97.648 98.3427C97.3878 98.6029 97.1277 98.7763 96.8675 98.7763C96.6073 98.7763 96.2605 98.6896 96.0003 98.4294L90.8838 94.0067C90.6236 93.7465 90.4502 93.4863 90.3634 93.2262C90.4502 92.966 90.5369 92.7059 90.7971 92.359ZM96.1738 86.3752C96.6941 85.7682 97.3011 85.6815 97.9082 86.2018L102.938 90.5378C103.198 90.798 103.372 91.0582 103.372 91.3183C103.372 91.5785 103.285 91.9254 103.025 92.1855C102.765 92.4457 102.504 92.6191 102.244 92.6191C101.984 92.6191 101.637 92.5324 101.377 92.2723L99.5559 90.7113L98.4285 92.0121C97.8214 92.7059 97.1277 93.1395 96.4339 93.3129C95.7401 93.3996 95.0464 93.2262 94.3526 92.6191C93.6588 92.0121 93.3987 91.405 93.3987 90.7113C93.3987 90.0175 93.7456 89.237 94.3526 88.5433L96.1738 86.3752ZM100.943 77.6164C101.117 77.2695 101.29 77.0961 101.637 77.0094C101.897 76.9227 102.244 76.9227 102.591 77.1828L108.575 80.218C108.922 80.3915 109.095 80.6517 109.182 80.9118C109.269 81.172 109.269 81.5189 109.095 81.779C108.922 82.1259 108.748 82.2994 108.401 82.3861C108.141 82.4728 107.794 82.3861 107.447 82.2126L105.366 81.172L103.718 84.4674L105.8 85.508C106.147 85.6815 106.32 85.9416 106.407 86.2018C106.494 86.462 106.494 86.8088 106.32 87.069C106.147 87.4159 105.973 87.5893 105.626 87.676C105.366 87.7628 105.019 87.676 104.672 87.5026L98.6887 84.4674C98.3418 84.2939 98.1683 84.0338 98.0816 83.7736C97.9949 83.5134 97.9949 83.1666 98.1683 82.9064C98.3418 82.5595 98.6019 82.3861 98.8621 82.2994C99.1223 82.2126 99.4691 82.2993 99.816 82.4728L101.984 83.6002L103.632 80.3048L101.464 79.1774C101.117 79.004 100.943 78.7438 100.857 78.4836C100.683 78.3102 100.77 77.9633 100.943 77.6164ZM102.418 72.4999C102.678 71.546 103.025 70.7655 103.545 70.1584C104.065 69.5514 104.672 69.1178 105.453 68.9443C106.233 68.7709 107.014 68.7709 107.968 68.9443C108.835 69.1178 109.615 69.5514 110.223 70.0717C110.83 70.592 111.176 71.1991 111.437 71.9796C111.61 72.7601 111.61 73.6273 111.437 74.5812C111.35 74.9281 111.176 75.3617 111.003 75.7086C110.83 76.0555 110.569 76.4023 110.396 76.6625C110.223 76.8359 110.049 77.0094 109.789 77.0094C109.615 77.0961 109.355 77.0094 109.182 77.0094C109.008 76.9227 108.835 76.8359 108.662 76.6625C108.575 76.4891 108.488 76.3156 108.488 76.1422C108.488 75.9687 108.575 75.7953 108.662 75.5351C109.008 75.1015 109.269 74.6679 109.355 74.1476C109.529 73.3671 109.442 72.7601 109.095 72.2397C108.748 71.7194 108.141 71.4592 107.361 71.1991C106.58 71.0256 105.886 71.0256 105.366 71.3725C104.846 71.6327 104.499 72.153 104.326 72.9335C104.239 73.1069 104.239 73.3671 104.239 73.6273C104.239 73.8874 104.239 74.1476 104.326 74.4078C104.412 74.6679 104.326 74.9281 104.239 75.1015C104.152 75.275 103.979 75.4484 103.805 75.5351C103.632 75.6218 103.458 75.6218 103.285 75.6218C103.111 75.6218 102.938 75.5351 102.765 75.4484C102.591 75.3617 102.504 75.1015 102.418 74.9281C102.331 74.5812 102.244 74.2343 102.244 73.8007C102.244 73.3671 102.331 72.9335 102.418 72.4999ZM110.223 62.3536L107.274 61.2262L107.361 63.6544L110.223 62.3536ZM103.545 58.9714C103.545 58.5378 103.632 58.2777 103.892 58.1042C104.152 57.9308 104.499 57.9308 104.933 58.1042L111.784 61.0527C112.13 61.2262 112.391 61.3996 112.477 61.5731C112.651 61.7465 112.737 62.0067 112.737 62.3536C112.737 62.6137 112.651 62.8739 112.564 63.134C112.391 63.3942 112.217 63.5676 111.87 63.7411L105.193 67.0365C104.759 67.2099 104.412 67.2966 104.152 67.1232C103.892 66.9498 103.718 66.6896 103.718 66.3427C103.718 65.9958 103.805 65.7357 103.892 65.5622C104.065 65.3888 104.239 65.2153 104.586 65.0419L105.54 64.6083L105.453 60.6191L104.499 60.2723C104.152 60.0988 103.892 60.0121 103.718 59.8386C103.632 59.5785 103.545 59.3183 103.545 58.9714ZM101.724 50.1259C101.637 49.779 101.637 49.4321 101.811 49.2587C101.984 48.9985 102.244 48.8251 102.591 48.7384L109.008 47.2641C109.789 47.0907 110.223 47.3508 110.483 48.1313L111.784 53.7682C111.957 54.5487 111.697 55.069 110.916 55.2424L104.499 56.7167C104.152 56.8034 103.805 56.8034 103.545 56.63C103.285 56.4565 103.111 56.1964 103.025 55.8495C102.938 55.5026 102.938 55.1557 103.111 54.9823C103.285 54.7221 103.545 54.5487 103.892 54.462L109.615 53.1611L108.835 49.6923L103.111 50.9931C102.765 51.0798 102.418 51.0798 102.157 50.9064C101.984 50.733 101.811 50.4728 101.724 50.1259ZM100.423 42.8414C100.77 43.4484 101.204 43.7086 101.811 43.7953C102.418 43.882 103.025 43.7086 103.805 43.275C104.499 42.8414 105.019 42.4078 105.193 41.8007C105.366 41.2804 105.366 40.6733 105.019 40.153C104.672 39.546 104.239 39.2858 103.632 39.1991C103.025 39.1124 102.418 39.2858 101.637 39.7194C100.943 40.153 100.423 40.5866 100.25 41.1937C99.9895 41.714 100.076 42.2343 100.423 42.8414ZM98.6887 43.7953C98.2551 43.0148 97.9949 42.2343 97.9949 41.4538C97.9949 40.6733 98.1683 39.9796 98.6019 39.2858C99.0355 38.592 99.6426 38.0717 100.423 37.6381C101.204 37.2045 101.984 36.9443 102.765 36.9443C103.545 36.9443 104.239 37.1178 104.933 37.5514C105.626 37.985 106.147 38.5053 106.58 39.2858C107.014 40.0663 107.274 40.8468 107.274 41.6273C107.274 42.4078 107.101 43.1015 106.667 43.7953C106.233 44.4891 105.626 45.0094 104.846 45.5297C104.065 45.9633 103.285 46.2235 102.504 46.2235C101.724 46.2235 101.03 46.05 100.336 45.6164C99.7293 45.1828 99.1223 44.5758 98.6887 43.7953ZM93.312 36.2506C92.9651 35.817 92.7049 35.3834 92.4447 35.0365C92.1846 34.6029 92.0111 34.1693 91.9244 33.8224C91.8377 33.5622 91.8377 33.3888 91.9244 33.1286C92.0111 32.9552 92.0979 32.7817 92.2713 32.695C92.4447 32.6083 92.6182 32.5216 92.7916 32.5216C92.9651 32.5216 93.1385 32.6083 93.312 32.695C93.4854 32.7817 93.5721 32.9552 93.6588 33.2153C93.7456 33.4755 93.8323 33.8224 94.0057 34.0826C94.1792 34.3427 94.3526 34.6029 94.6128 34.863C94.9597 35.2966 95.3065 35.5568 95.6534 35.6435C95.9136 35.7302 96.2605 35.6435 96.5206 35.4701C96.6941 35.2966 96.8675 35.0365 96.7808 34.863C96.7808 34.6029 96.6074 34.3427 96.3472 33.9958L95.48 32.9552C95.0464 32.5216 95.1331 32.088 95.5667 31.6544C96.0003 31.3075 96.4339 31.3075 96.8675 31.7411L97.5613 32.5216C97.8214 32.8685 98.0816 33.0419 98.3418 33.1286C98.6019 33.2153 98.7754 33.1286 99.0355 32.9552C99.209 32.7817 99.2957 32.5216 99.2957 32.2614C99.2957 32.0013 99.1223 31.6544 98.7754 31.3075C98.6019 31.134 98.4285 30.8739 98.1683 30.7004C97.9082 30.527 97.7347 30.3536 97.4746 30.2668C97.2144 30.1801 97.041 30.0067 96.9542 29.8332C96.8675 29.6598 96.8675 29.4863 96.8675 29.3129C96.8675 29.1395 96.9542 28.966 97.1277 28.7926C97.2144 28.6191 97.3878 28.5324 97.648 28.5324C97.8214 28.5324 98.0816 28.5324 98.2551 28.6191C99.0355 28.966 99.816 29.4863 100.423 30.2668C101.117 31.134 101.55 31.9145 101.55 32.6083C101.55 33.3021 101.29 33.9091 100.77 34.3427C100.423 34.6029 100.076 34.863 99.6426 34.863C99.209 34.9498 98.8621 34.863 98.4285 34.6029C98.6019 35.0365 98.6887 35.5568 98.6019 35.9904C98.5152 36.424 98.2551 36.7709 97.8214 37.1178C97.2144 37.6381 96.5206 37.8116 95.7401 37.7248C94.9597 37.7248 94.1792 37.2045 93.312 36.2506ZM86.3743 29.92C85.7672 29.3996 85.6805 28.8793 86.2009 28.2723L90.19 23.1557C90.7103 22.5487 91.2307 22.462 91.8377 22.9823L95.2198 25.5839C95.6534 25.9308 95.7401 26.3644 95.3933 26.798C95.0464 27.2316 94.6128 27.3183 94.0924 26.9714L91.4908 24.9769L90.4502 26.2777L92.7916 28.0988C93.2252 28.4457 93.312 28.8793 92.9651 29.3996C92.6182 29.8332 92.1846 29.92 91.6643 29.5731L89.3228 27.7519L88.1954 29.2262L90.7971 31.2208C91.2307 31.5676 91.3174 32.0013 90.9705 32.5216C90.6236 32.9552 90.19 33.0419 89.6697 32.695L86.3743 29.92ZM80.3905 24.7167L82.125 25.4972C82.5586 25.6706 82.8187 25.7573 83.0789 25.6706C83.3391 25.5839 83.5125 25.4105 83.6859 25.1503C83.8594 24.8901 83.8594 24.63 83.6859 24.3698C83.5992 24.1097 83.3391 23.9362 82.9055 23.7628L81.171 22.9823L80.3905 24.7167ZM78.7429 25.9308C78.0491 25.5839 77.7889 25.0636 78.1358 24.3698L80.8242 18.4728C81.171 17.779 81.6914 17.5189 82.3851 17.8658L86.6345 19.7736C87.1548 20.0338 87.3282 20.3807 87.0681 20.9877C86.8079 21.508 86.461 21.6815 85.854 21.4213L82.5586 19.9471L81.8648 21.4213L83.8594 22.2885C84.7266 22.7221 85.3336 23.2424 85.6805 23.8495C86.0274 24.5433 85.9407 25.237 85.5938 26.0175C85.2469 26.798 84.7266 27.3183 84.0328 27.4918C83.3391 27.6652 82.5586 27.5785 81.6914 27.2316L78.7429 25.9308ZM65.7347 23.1557C65.3878 23.1557 65.2144 22.9823 65.041 22.8088C64.8675 22.5487 64.8675 22.2885 64.8675 21.9416L65.7347 15.0907C65.8214 14.3969 66.255 14.05 66.9488 14.1368C67.2957 14.2235 67.5559 14.3102 67.7293 14.4836C67.9027 14.6571 67.9895 15.004 67.9027 15.3508L67.3824 19.4267L71.545 15.3508C71.7185 15.1774 71.9786 15.004 72.1521 14.9172C72.3255 14.8305 72.5857 14.8305 72.8458 14.8305C73.106 14.8305 73.3662 15.004 73.4529 15.1774C73.6263 15.3508 73.6263 15.611 73.6263 15.9579L72.7591 22.8956C72.6724 23.5893 72.2388 23.9362 71.545 23.8495C70.8513 23.7628 70.5044 23.3292 70.5911 22.6354L71.1114 18.5595L66.9488 22.6354C66.6887 22.8088 66.5152 22.9823 66.3418 23.069C66.1683 23.1557 65.9949 23.1557 65.7347 23.1557ZM53.5071 14.6571C52.8133 14.8305 52.293 14.8305 51.8594 14.6571C51.4258 14.4836 50.9922 14.2235 50.732 13.8766C50.6453 13.7031 50.5586 13.5297 50.6453 13.3563C50.6453 13.1828 50.8187 13.0961 50.9055 13.0094C51.0789 12.9227 51.1656 12.9227 51.3391 12.9227C51.4258 13.0094 51.5992 13.0961 51.7727 13.1828C52.1195 13.5297 52.6399 13.6164 53.2469 13.5297C53.854 13.3563 54.2876 13.0961 54.461 12.5758C54.5477 12.4023 54.6345 12.2289 54.7212 12.1422C54.8079 12.0555 54.9813 11.9687 55.1548 12.0555C55.3282 12.0555 55.5017 12.1422 55.5884 12.2289C55.6751 12.3156 55.7618 12.4891 55.6751 12.7492C55.5884 13.1828 55.4149 13.6164 55.0681 13.9633C54.6345 14.3102 54.1141 14.5704 53.5071 14.6571ZM52.7266 24.8034C52.4664 24.8901 52.1195 24.8034 51.9461 24.7167C51.6859 24.5433 51.5992 24.2831 51.5125 23.9362L49.9515 17.2587C49.7781 16.5649 50.0382 16.1313 50.732 15.9579C51.0789 15.8712 51.3391 15.8712 51.5992 16.0446C51.8594 16.2181 51.9461 16.3915 52.0328 16.7384L52.9868 20.7275L55.5017 15.4376C55.5884 15.1774 55.7618 15.004 55.9353 14.8305C56.1087 14.6571 56.2821 14.5704 56.5423 14.5704C56.8025 14.4836 57.0626 14.5704 57.2361 14.6571C57.4095 14.8305 57.583 15.004 57.6697 15.3508L59.2307 22.1151C59.4041 22.8088 59.1439 23.2424 58.4502 23.4159C57.7564 23.5893 57.3228 23.3292 57.1494 22.5487L56.1954 18.5595L53.7672 23.9362C53.5938 24.1964 53.5071 24.3698 53.4204 24.5433C53.2469 24.63 52.9868 24.7167 52.7266 24.8034ZM42.1466 27.4918L43.3607 26.8847C43.7076 26.7113 43.9678 26.4511 44.0545 26.2777C44.1412 26.0175 44.1412 25.7573 43.9678 25.4972C43.7943 25.237 43.6209 25.0636 43.3607 24.9769C43.1006 24.8901 42.8404 24.9769 42.4068 25.1503L41.1927 25.7573L42.1466 27.4918ZM49.171 25.9308C48.8242 26.1042 48.564 26.1042 48.3038 26.0175C48.0437 25.9308 47.7835 25.7573 47.6101 25.4105L44.5748 19.4267C44.4014 19.0798 44.3147 18.733 44.4014 18.4728C44.4881 18.2126 44.6616 17.9525 45.0084 17.779C45.3553 17.6056 45.6155 17.6056 45.8756 17.6923C46.1358 17.779 46.396 18.0392 46.5694 18.2994L49.6046 24.2831C49.7781 24.63 49.8648 24.8901 49.7781 25.237C49.6914 25.5839 49.5179 25.7573 49.171 25.9308ZM41.9732 29.4863C41.2794 29.8332 40.6724 29.6598 40.3255 28.966L37.2903 23.1557C37.1168 22.8088 37.0301 22.462 37.1168 22.2018C37.2036 21.9416 37.377 21.6815 37.7239 21.508C38.0708 21.3346 38.3309 21.3346 38.5911 21.4213C38.8513 21.508 39.1114 21.6815 39.2849 22.0284L40.4122 24.1097L41.9732 23.3292C42.8404 22.8956 43.6209 22.7221 44.3147 22.8956C45.0084 23.069 45.6155 23.5026 45.9624 24.2831C46.396 25.0636 46.396 25.7573 46.1358 26.4511C45.8756 27.1449 45.2686 27.6652 44.4014 28.0988L41.9732 29.4863ZM34.5152 36.2506C34.255 36.5107 33.9949 36.5975 33.648 36.5975C33.3878 36.5975 33.1277 36.424 32.7808 36.1639L28.0979 31.3075C27.8377 31.0473 27.6643 30.7872 27.751 30.4403C27.751 30.1801 27.9244 29.92 28.1846 29.6598C28.4448 29.3996 28.7049 29.3129 29.0518 29.3129C29.312 29.3129 29.5721 29.4863 29.919 29.7465L31.5667 31.4809L34.255 28.966L32.6074 27.2316C32.3472 26.9714 32.1737 26.7113 32.2605 26.3644C32.2605 26.1042 32.4339 25.8441 32.6941 25.5839C32.9542 25.3237 33.2144 25.237 33.4746 25.237C33.7347 25.237 33.9949 25.4105 34.255 25.6706L38.938 30.527C39.1981 30.7872 39.3716 31.0473 39.3716 31.3942C39.3716 31.6544 39.1981 31.9145 38.938 32.1747C38.6778 32.4349 38.4177 32.5216 38.0708 32.5216C37.8106 32.5216 37.5504 32.3481 37.2903 32.088L35.5559 30.2668L32.8675 32.7817L34.6019 34.6029C34.8621 34.863 35.0355 35.1232 35.0355 35.4701C34.9488 35.7303 34.8621 35.9904 34.5152 36.2506ZM32.087 39.2858C31.9136 39.6327 31.6534 39.8061 31.3933 39.8929C31.1331 39.9796 30.7862 39.8929 30.5261 39.6327L28.7916 38.5053C28.7916 38.6788 28.7049 38.9389 28.5315 39.1991C28.4448 39.4592 28.2713 39.7194 28.0979 39.9796C27.4908 41.0202 26.7103 41.6273 25.8431 41.8007C24.9759 41.9742 23.9353 41.8007 22.8946 41.1069L21.9407 40.4999C21.5938 40.3265 21.4204 40.0663 21.3336 39.8061C21.2469 39.546 21.3336 39.1991 21.5071 38.9389C21.6805 38.592 21.9407 38.4186 22.2008 38.4186C22.461 38.3319 22.8079 38.4186 23.0681 38.6788L23.9353 39.1991C24.5423 39.546 25.0626 39.7194 25.4095 39.6327C25.8431 39.546 26.19 39.2858 26.4502 38.7655C26.5369 38.592 26.7103 38.4186 26.7971 38.1584C26.8838 37.8983 26.9705 37.7248 26.9705 37.5514L24.629 36.0771C24.2821 35.9037 24.1087 35.6435 24.022 35.3834C23.9353 35.1232 24.022 34.7763 24.1954 34.5162C24.3689 34.1693 24.629 33.9958 24.8892 33.9958C25.1494 33.9091 25.4962 33.9958 25.7564 34.256L31.3933 37.8983C31.7401 38.0717 31.9136 38.3319 32.0003 38.592C32.3472 38.6788 32.2605 38.9389 32.087 39.2858ZM25.6697 52.5541C25.583 52.8143 25.4095 53.0744 25.1494 53.1611C24.8892 53.2479 24.629 53.2479 24.2821 53.1611L17.7781 50.9931C17.0843 50.733 16.9109 50.2994 17.0843 49.6056C17.171 49.2587 17.3445 49.0853 17.6046 48.9118C17.8648 48.8251 18.125 48.8251 18.4719 48.9118L22.3743 50.2126L19.2523 45.2695C19.0789 45.0094 18.9922 44.8359 18.9055 44.5758C18.8187 44.4023 18.9055 44.1422 18.9922 43.882C19.0789 43.6218 19.2523 43.4484 19.5125 43.3617C19.7727 43.275 20.0328 43.275 20.293 43.3617L26.8838 45.6164C27.5775 45.8766 27.8377 46.3102 27.5775 47.004C27.3174 47.6977 26.8838 47.8712 26.19 47.6977L22.2876 46.3969L25.4095 51.34C25.583 51.6002 25.6697 51.7736 25.7564 51.9471C25.7564 52.1205 25.7564 52.2939 25.6697 52.5541ZM24.5423 59.5785C24.4556 59.9254 24.3689 60.1855 24.1087 60.359C23.8485 60.5324 23.5884 60.6191 23.2415 60.5324L16.6507 59.6652C15.8702 59.5785 15.5233 59.1449 15.6101 58.3644L16.1304 54.2018C16.2171 53.5947 16.564 53.3346 17.171 53.3346C17.7781 53.4213 18.0382 53.7682 17.9515 54.3752L17.5179 57.4972L23.4149 58.2777C23.7618 58.3644 24.022 58.4511 24.2821 58.7113C24.5423 58.8847 24.5423 59.2316 24.5423 59.5785ZM22.7212 66.6896C22.6345 65.9958 22.3743 65.5622 21.9407 65.2153C21.4204 64.8685 20.8133 64.7817 19.9461 64.7817C19.0789 64.8685 18.4719 65.0419 18.0382 65.4755C17.6046 65.9091 17.4312 66.4294 17.4312 67.0365C17.5179 67.7303 17.7781 68.1638 18.2117 68.5107C18.732 68.8576 19.3391 68.9443 20.2063 68.9443C21.0735 68.8576 21.6805 68.6842 22.1141 68.2506C22.5477 67.9037 22.7212 67.3834 22.7212 66.6896ZM24.629 66.6029C24.7158 67.4701 24.5423 68.3373 24.1954 69.0311C23.8485 69.7248 23.4149 70.3319 22.7212 70.7655C22.0274 71.1991 21.2469 71.4592 20.3797 71.546C19.4258 71.6327 18.6453 71.4592 17.9515 71.1991C17.2578 70.8522 16.6507 70.4186 16.2171 69.7248C15.7835 69.1178 15.5233 68.3373 15.4366 67.3834C15.3499 66.5162 15.5233 65.6489 15.7835 64.9552C16.1304 64.2614 16.564 63.6544 17.2578 63.2208C17.9515 62.7872 18.732 62.527 19.5992 62.4403C20.5532 62.3536 21.3336 62.527 22.0274 62.7872C22.7212 63.134 23.3282 63.5676 23.7618 64.2614C24.2821 64.8685 24.5423 65.649 24.629 66.6029ZM25.8431 73.4538C25.9298 73.8007 25.9298 74.1476 25.8431 74.4078C25.7564 74.6679 25.4962 74.8414 25.0626 74.9281L19.4258 76.8359L20.2063 79.004L21.5938 78.5704C22.8079 78.1367 23.9353 77.9633 24.8892 78.05C25.8431 78.1367 26.7103 78.3969 27.4908 78.9172C27.751 79.0907 27.9244 79.3508 27.9244 79.611C28.0111 79.8712 27.9244 80.1313 27.751 80.3915C27.5775 80.6516 27.3174 80.8251 27.0572 80.8251C26.7971 80.8251 26.5369 80.7384 26.2767 80.5649C25.7564 80.218 25.1494 80.0446 24.3689 80.0446C23.6751 80.0446 22.7212 80.218 21.7672 80.5649L20.293 81.0853C19.5125 81.3454 18.9922 81.0853 18.8187 80.3048L17.3445 76.4023C17.0843 75.6218 17.3445 75.1015 18.125 74.8414L24.3689 72.7601C24.7158 72.6733 25.0626 72.6733 25.3228 72.7601C25.4962 72.9335 25.6697 73.1069 25.8431 73.4538ZM29.5721 85.9416C29.2252 85.4213 28.7049 85.0744 28.1846 84.9877C27.5775 84.901 26.9705 85.0744 26.2767 85.5947C25.583 86.0283 25.1494 86.5487 24.9759 87.069C24.8025 87.5893 24.8892 88.1964 25.2361 88.7167C25.583 89.237 26.1033 89.5839 26.6236 89.6706C27.2307 89.7573 27.8377 89.4972 28.5315 89.0636C29.2252 88.63 29.6588 88.1096 29.8323 87.5893C30.0057 87.069 29.919 86.5487 29.5721 85.9416ZM31.1331 84.901C31.6534 85.6815 31.9136 86.462 31.9136 87.1557C32.0003 87.9362 31.8269 88.63 31.3933 89.3237C31.0464 90.0175 30.4393 90.6246 29.6588 91.0582C28.8784 91.5785 28.0979 91.8386 27.3174 91.9254C26.5369 92.0121 25.8431 91.8386 25.1494 91.4918C24.4556 91.1449 23.8485 90.5378 23.4149 89.8441C22.8946 89.0636 22.6345 88.2831 22.6345 87.5893C22.5477 86.8088 22.7212 86.1151 23.1548 85.4213C23.5017 84.7275 24.1087 84.1205 24.8892 83.6869C25.6697 83.1666 26.4502 82.9064 27.2307 82.9064C28.0111 82.8197 28.7916 82.9931 29.3987 83.34C30.0924 83.6002 30.6995 84.1205 31.1331 84.901ZM39.0247 93.7465C39.2849 94.0067 39.4583 94.2668 39.4583 94.527C39.4583 94.7872 39.3716 95.0473 39.1114 95.3942L34.4285 100.251C34.1683 100.511 33.9082 100.684 33.648 100.684C33.3878 100.684 33.1277 100.597 32.7808 100.337C32.5206 100.077 32.3472 99.817 32.3472 99.5568C32.3472 99.2966 32.4339 99.0365 32.6941 98.6896L34.4285 96.8685L33.8214 96.2614L30.3526 97.2153C30.0924 97.3021 29.8323 97.3021 29.5721 97.2153C29.312 97.1286 29.1385 96.9552 29.0518 96.7817C28.9651 96.6083 28.8784 96.4349 28.8784 96.1747C28.8784 95.9145 28.9651 95.7411 29.0518 95.5676C29.2252 95.3942 29.3987 95.2208 29.7456 95.134L32.6074 94.4403C32.4339 93.8332 32.4339 93.1395 32.6941 92.2723L33.3011 90.4511C33.3878 90.1042 33.5613 89.9308 33.7347 89.7573C33.9082 89.5839 34.1683 89.5839 34.3418 89.5839C34.6019 89.5839 34.7754 89.6706 34.9488 89.8441C35.1223 90.0175 35.2957 90.191 35.3824 90.4511C35.4691 90.7113 35.4691 90.9714 35.3824 91.2316L34.6887 93.2262C34.6019 93.5731 34.5152 93.9199 34.6019 94.1801C34.6887 94.4403 34.8621 94.7004 35.1223 94.9606L35.7293 95.5676L37.377 93.8332C37.6372 93.5731 37.8973 93.3996 38.1575 93.3996C38.5044 93.3129 38.7645 93.4863 39.0247 93.7465ZM45.0952 97.6489C45.442 97.8224 45.7889 98.0826 46.0491 98.3427C46.3092 98.6029 46.5694 98.9498 46.8296 99.2099C47.003 99.4701 47.0897 99.6435 47.003 99.9037C47.003 100.077 46.9163 100.337 46.8296 100.511C46.7429 100.684 46.5694 100.771 46.396 100.858C46.2225 100.944 46.0491 100.944 45.7889 100.858C45.6155 100.771 45.442 100.684 45.2686 100.424C45.0952 100.164 44.9217 99.9904 44.7483 99.817C44.5748 99.6435 44.4014 99.4701 44.1412 99.3834C43.6209 99.0365 43.1006 98.9498 42.5803 99.0365C42.0599 99.1232 41.6263 99.2966 41.2794 99.817L43.6209 101.118C43.8811 101.291 44.0545 101.465 44.1412 101.638C44.228 101.812 44.2279 102.072 44.0545 102.332C43.8811 102.592 43.7076 102.765 43.4475 102.852C43.1873 102.939 42.9271 102.939 42.667 102.765L40.4122 101.465C40.2388 101.985 40.3255 102.505 40.499 102.939C40.6724 103.373 41.0193 103.719 41.5396 103.98C41.9732 104.24 42.4935 104.413 43.0139 104.413C43.274 104.413 43.5342 104.5 43.7076 104.673C43.8811 104.847 43.9678 105.02 43.9678 105.194C43.9678 105.367 43.9678 105.541 43.8811 105.801C43.7943 105.974 43.7076 106.148 43.5342 106.234C43.3607 106.321 43.1006 106.408 42.8404 106.408C42.4068 106.408 42.0599 106.321 41.6263 106.234C41.1927 106.148 40.8458 105.974 40.4122 105.714C39.545 105.194 38.938 104.673 38.5044 103.98C38.0708 103.286 37.8973 102.592 37.8973 101.812C37.8973 101.031 38.1575 100.251 38.5911 99.4701C39.0247 98.6896 39.6317 98.0826 40.3255 97.6489C41.0193 97.2153 41.713 97.0419 42.4935 97.0419C43.4475 96.8685 44.3147 97.1286 45.0952 97.6489Z" fill="#FEFCFA"/>
<path d="M52.726 90.8846C43.5336 86.8955 36.5092 78.1367 36.8561 64.6082C36.7693 63.8277 37.3764 63.1339 38.1569 63.0472C39.8913 62.8738 41.539 63.1339 43.1867 63.6543L43.6203 63.8277C40.2382 55.5892 42.9265 48.9117 43.0132 48.825C43.1867 48.3914 43.5336 48.0445 44.0539 47.9578C47.0024 47.264 51.8588 49.1719 54.5471 50.4727C55.7612 40.4998 63.8263 33.2152 63.8263 33.1285C64.3466 32.6082 65.2138 32.6082 65.8208 33.1285C65.8208 33.1285 73.8859 40.4998 75.1 50.4727C77.7883 49.2586 82.558 47.3507 85.5065 47.9578C86.0268 48.0445 86.4604 48.3914 86.6338 48.825C86.6338 48.825 89.3222 55.5025 86.0268 63.8277L86.4604 63.6543C88.1081 63.1339 89.7558 62.8738 91.4902 63.0472C92.184 63.1339 92.791 63.741 92.791 64.4348C93.1379 78.0499 86.0268 86.8087 76.9211 90.7979C73.1054 92.4456 69.0295 93.2261 64.8669 93.2261C60.6176 93.3128 56.5417 92.4456 52.726 90.8846ZM39.7178 65.909C39.8913 77.3562 45.9618 84.8142 53.8533 88.1963C57.2355 89.6705 60.9645 90.451 64.7802 90.451C68.5092 90.451 72.2382 89.6705 75.707 88.1963C83.5986 84.8142 89.6691 77.3562 89.9292 65.909C89.062 65.9957 88.1948 66.0825 87.3276 66.4293C86.0268 66.8629 84.726 67.5567 83.4252 68.4239C82.7314 68.8575 81.8642 68.6841 81.4306 68.077C81.0837 67.5567 81.0837 66.9497 81.4306 66.5161C86.0268 59.4049 84.8127 52.9876 84.2057 50.8196C80.7368 50.7329 74.4929 54.0283 74.4929 54.0283C73.7992 54.3751 72.9319 54.115 72.5851 53.4212C72.4983 53.2478 72.4116 52.9876 72.4116 52.7274C72.3249 45.0093 67.0349 38.6787 64.8669 36.2505C62.6122 38.5919 57.4089 45.0093 57.3222 52.7274C57.3222 53.5079 56.6284 54.115 55.8479 54.115C55.5878 54.115 55.4143 54.0283 55.1542 53.9415C55.1542 53.9415 48.9103 50.6461 45.4414 50.7329C44.8344 52.9009 43.6203 59.3182 48.2165 66.4293C48.6501 67.1231 48.4767 67.9903 47.7829 68.4239C47.2626 68.7708 46.6555 68.6841 46.1352 68.3372C44.8344 67.47 43.6203 66.7762 42.3195 66.3426C41.3655 66.0825 40.5851 65.909 39.7178 65.909Z" fill="#FEFCFA"/>
<path d="M63.3047 45.2672C63.3047 44.4867 63.9117 43.793 64.7789 43.793C65.5594 43.793 66.2532 44.4 66.2532 45.2672V99.5545C66.2532 100.335 65.6461 101.029 64.7789 101.029C63.9985 101.029 63.3047 100.422 63.3047 99.5545V45.2672Z" fill="#FEFCFA"/>
<path d="M48.0441 56.7164C47.5238 56.1094 47.5238 55.2422 48.1308 54.7218C48.7379 54.2015 49.6051 54.2015 50.1254 54.8085L59.1444 64.6947C59.6647 65.3018 59.6647 66.169 59.0576 66.6893C58.4506 67.2096 57.5834 67.2096 57.0631 66.6026L48.0441 56.7164Z" fill="#FEFCFA"/>
<path d="M79.3435 54.8085C79.8639 54.2015 80.8178 54.2015 81.3381 54.7218C81.9452 55.2422 81.9452 56.1961 81.4248 56.7164L72.4926 66.6026C71.9723 67.2096 71.0183 67.2096 70.498 66.6893C69.891 66.169 69.891 65.2151 70.4113 64.6947L79.3435 54.8085Z" fill="#FEFCFA"/>
<path d="M48.0441 76.6617C47.5238 76.0547 47.5238 75.1875 48.1308 74.6671C48.7379 74.1468 49.6051 74.1468 50.1254 74.7539L59.1444 84.64C59.6647 85.2471 59.6647 86.1143 59.0576 86.6346C58.4506 87.1549 57.5834 87.1549 57.0631 86.5479L48.0441 76.6617Z" fill="#FEFCFA"/>
<path d="M79.3435 74.7539C79.8639 74.1468 80.8178 74.1468 81.3381 74.6671C81.9452 75.1875 81.9452 76.1414 81.4248 76.6617L72.4926 86.5479C71.9723 87.1549 71.0183 87.1549 70.498 86.6346C69.891 86.1143 69.891 85.1604 70.4113 84.64L79.3435 74.7539Z" fill="#FEFCFA"/>
</g>
<defs>
<clipPath id="clip0_968_1133">
<rect width="128" height="128" fill="white"/>
</clipPath>
</defs>
</svg>
