<svg width="128" height="128" viewBox="0 0 128 128" fill="none" xmlns="http://www.w3.org/2000/svg">
<g clip-path="url(#clip0_968_1142)">
<path d="M124.45 73.6262C121.501 77.0083 120.287 81.6045 121.154 85.9406C122.542 93.0517 118.466 100.163 111.528 102.504C107.279 103.979 103.984 107.274 102.509 111.523C100.081 118.374 93.0568 122.45 85.9456 121.149C81.5229 120.282 77.0134 121.496 73.6313 124.445C68.0812 129.214 60.0161 129.214 54.466 124.445C51.0839 121.496 46.5744 120.282 42.1516 121.149C35.0405 122.537 27.9294 118.461 25.5879 111.523C24.1137 107.274 20.8183 103.979 16.569 102.504C9.71801 100.076 5.64213 93.0517 6.94294 85.9406C7.81015 81.5178 6.59606 77.0083 3.64755 73.6262C-1.1221 68.0761 -1.1221 60.011 3.64755 54.4609C6.59606 51.0788 7.81015 46.5693 6.94294 42.1465C5.55541 34.9487 9.63129 27.9243 16.4822 25.4961C20.7316 24.0219 24.027 20.7265 25.5012 16.4772C27.9294 9.62621 34.9538 5.55033 42.0649 6.85114C46.4877 7.71835 50.9971 6.50426 54.3792 3.55575C59.9294 -1.2139 67.9944 -1.2139 73.5446 3.55575C76.9267 6.50426 81.4362 7.71835 85.8589 6.85114C92.97 5.46361 100.081 9.53949 102.423 16.4772C103.897 20.7265 107.192 24.0219 111.442 25.4961C118.293 27.9243 122.368 34.9487 121.068 42.0598C120.2 46.4826 121.414 50.9921 124.363 54.3742C129.219 59.9243 129.219 68.0761 124.45 73.6262Z" fill="#D94599"/>
<path d="M109.444 56.0225C109.01 56.0225 108.663 55.8491 108.403 55.5889C108.143 55.3287 107.969 54.9819 107.969 54.5483C107.969 54.1146 108.143 53.7678 108.403 53.5076C108.663 53.2474 109.01 53.074 109.444 53.074C109.877 53.074 110.311 53.2474 110.571 53.5076C110.831 53.7678 111.005 54.1146 111.005 54.5483C111.005 54.9819 110.831 55.3287 110.571 55.5889C110.311 55.8491 109.964 56.0225 109.444 56.0225ZM109.444 51.3396C109.01 51.3396 108.663 51.1661 108.403 50.906C108.143 50.6458 107.969 50.2989 107.969 49.8653C107.969 49.4317 108.143 49.0848 108.403 48.8247C108.663 48.5645 109.01 48.3911 109.444 48.3911C109.877 48.3911 110.311 48.5645 110.571 48.8247C110.831 49.0848 111.005 49.4317 111.005 49.8653C111.005 50.2989 110.831 50.6458 110.571 50.906C110.311 51.1661 109.964 51.3396 109.444 51.3396ZM103.026 56.0225C102.593 56.0225 102.246 55.9358 101.986 55.6756C101.725 55.4155 101.639 55.0686 101.639 54.635V47.5239H99.2973C98.5168 47.5239 98.1699 47.177 98.1699 46.3965C98.1699 45.616 98.5168 45.2691 99.2973 45.2691H106.842C107.623 45.2691 107.969 45.616 107.969 46.3965C107.969 47.177 107.623 47.5239 106.842 47.5239H104.501V54.635C104.501 55.0686 104.414 55.4155 104.154 55.6756C103.894 55.9358 103.547 56.0225 103.026 56.0225ZM88.8908 56.0225C88.5439 56.0225 88.197 55.9358 88.0236 55.6756C87.7634 55.4155 87.6767 55.0686 87.6767 54.635V46.3965C87.6767 45.5293 88.1103 45.0957 88.9775 45.0957C89.4111 45.0957 89.6713 45.1824 89.9315 45.4426C90.1916 45.7027 90.2783 45.9629 90.2783 46.3965V51.3396L94.6144 45.8762C94.8745 45.616 95.048 45.3558 95.2214 45.2691C95.3949 45.1824 95.655 45.0957 96.0019 45.0957C96.3488 45.0957 96.609 45.1824 96.7824 45.4426C96.9558 45.7027 97.0426 45.9629 97.0426 46.3098V54.7217C97.0426 55.5889 96.609 56.0225 95.7418 56.0225C94.8745 56.0225 94.4409 55.5889 94.4409 54.7217V49.7786L90.1049 55.242C89.8447 55.5022 89.6713 55.7623 89.4979 55.8491C89.4111 56.0225 89.2377 56.0225 88.8908 56.0225ZM78.6577 56.0225C78.2241 56.0225 77.8773 55.9358 77.7038 55.6756C77.4436 55.4155 77.3569 55.0686 77.3569 54.635V51.7732H76.6632C76.2296 51.7732 75.8827 51.8599 75.5358 52.0333C75.2756 52.2068 75.0155 52.467 74.842 52.9006L73.8014 55.1553C73.6279 55.5022 73.4545 55.6756 73.1943 55.8491C72.9342 56.0225 72.674 56.0225 72.3271 56.0225C72.067 56.0225 71.8068 55.8491 71.5466 55.7623C71.2865 55.5889 71.1998 55.3287 71.113 55.0686C71.0263 54.8084 71.113 54.4615 71.2865 54.1146L72.3271 52.0333C72.7607 51.0794 73.3678 50.4724 74.0615 50.0388L72.1537 47.0903C71.9802 46.7434 71.8935 46.4832 71.8935 46.223C71.8935 45.9629 72.067 45.7027 72.2404 45.5293C72.4138 45.3558 72.674 45.1824 72.9342 45.1824C73.1943 45.0957 73.4545 45.1824 73.7147 45.2691C73.9748 45.3558 74.235 45.616 74.4084 45.8762L76.5765 49.6052H77.2702V46.5699C77.2702 46.1363 77.3569 45.7894 77.6171 45.5293C77.8773 45.2691 78.1374 45.1824 78.571 45.1824C79.0046 45.1824 79.3515 45.2691 79.525 45.5293C79.7851 45.7894 79.8718 46.1363 79.8718 46.5699V49.6052H80.6523L82.8204 45.8762C82.9938 45.5293 83.254 45.3558 83.5141 45.2691C83.7743 45.0957 84.1212 45.0957 84.3813 45.0957C84.6415 45.1824 84.9016 45.2691 85.0751 45.4426C85.2485 45.616 85.3353 45.8762 85.422 46.1363C85.422 46.3965 85.3353 46.7434 85.1618 47.0035L83.254 49.952C83.9477 50.2989 84.468 50.9927 84.9884 51.9466L86.029 54.0279C86.2025 54.3748 86.2892 54.7217 86.2025 54.9819C86.1157 55.242 86.029 55.5022 85.7689 55.6756C85.5087 55.8491 85.3353 55.9358 84.9884 55.9358C84.7282 55.9358 84.468 55.9358 84.1212 55.7623C83.861 55.5889 83.6876 55.4155 83.5141 55.0686L82.3867 52.9006C82.2133 52.467 81.9531 52.2068 81.693 52.0333C81.4328 51.8599 81.0859 51.7732 80.5656 51.7732H79.8718V54.635C79.8718 55.0686 79.7851 55.4155 79.525 55.6756C79.3515 55.9358 79.0914 56.0225 78.6577 56.0225ZM64.0019 50.1255H65.9098C67.0372 50.1255 67.5575 49.6919 67.5575 48.738C67.5575 47.8707 67.0372 47.3504 65.9098 47.3504H64.0886V50.1255H64.0019ZM62.6144 56.0225C62.1808 56.0225 61.8339 55.9358 61.5737 55.6756C61.3136 55.4155 61.2269 55.0686 61.2269 54.635V46.6567C61.2269 46.223 61.3136 45.8762 61.5737 45.616C61.8339 45.3558 62.1808 45.2691 62.6144 45.2691H66.3434C67.5575 45.2691 68.5114 45.616 69.1185 46.223C69.8122 46.8301 70.0724 47.6973 70.0724 48.8247C70.0724 49.952 69.7255 50.7325 69.1185 51.4263C68.4247 52.0333 67.5575 52.3802 66.3434 52.3802H64.0019V54.635C64.0019 55.0686 63.9152 55.4155 63.655 55.6756C63.4816 55.9358 63.1347 56.0225 62.6144 56.0225ZM53.422 55.9358C52.468 55.9358 51.9477 55.4155 51.9477 54.4615V46.6567C51.9477 45.7027 52.468 45.1824 53.422 45.1824H58.5385C59.2323 45.1824 59.6659 45.5293 59.6659 46.223C59.6659 46.9168 59.319 47.3504 58.5385 47.3504H54.6361V49.4317H58.1916C58.8854 49.4317 59.319 49.7786 59.319 50.4724C59.319 51.1661 58.9721 51.513 58.1916 51.513H54.6361V53.7678H58.5385C59.2323 53.7678 59.6659 54.1146 59.6659 54.8084C59.6659 55.5022 59.319 55.8491 58.5385 55.8491H53.422V55.9358ZM42.4951 53.7678H46.3109V47.3504H43.5358V48.3043C43.5358 49.5184 43.4491 50.6458 43.2756 51.513C43.1022 52.467 42.842 53.1607 42.4951 53.7678ZM39.8935 58.7108C39.113 58.7108 38.6794 58.2773 38.6794 57.4968V54.9819C38.6794 54.2014 39.0263 53.8545 39.7201 53.7678C40.5873 52.7271 41.0209 50.8193 41.0209 48.0442V46.6567C41.0209 45.7027 41.5412 45.1824 42.4951 45.1824H47.6984C48.6523 45.1824 49.1727 45.7027 49.1727 46.6567V53.7678H49.4328C50.3 53.7678 50.6469 54.2014 50.6469 54.9819V57.4968C50.6469 58.2773 50.2133 58.7108 49.4328 58.7108C48.6523 58.7108 48.2187 58.2773 48.2187 57.4968V55.9358H41.0209V57.4968C41.1076 58.2773 40.674 58.7108 39.8935 58.7108ZM32.6957 53.7678C33.4762 53.7678 34.0832 53.5076 34.5168 52.9006C34.9504 52.3802 35.2106 51.5997 35.2106 50.5591C35.2106 49.5184 34.9504 48.8247 34.5168 48.2176C34.0832 47.6973 33.4762 47.3504 32.6957 47.3504C31.9152 47.3504 31.3082 47.6106 30.8746 48.2176C30.4409 48.738 30.1808 49.5184 30.1808 50.5591C30.1808 51.5997 30.4409 52.3802 30.8746 52.9006C31.3082 53.5076 31.9152 53.7678 32.6957 53.7678ZM32.6957 56.1092C31.655 56.1092 30.7011 55.8491 29.8339 55.4155C29.0534 54.9819 28.3596 54.2881 27.926 53.5076C27.4924 52.6404 27.2323 51.6865 27.2323 50.6458C27.2323 49.5184 27.4924 48.5645 27.926 47.784C28.3596 47.0035 28.9667 46.3098 29.8339 45.8762C30.6144 45.4426 31.5683 45.1824 32.6957 45.1824C33.7363 45.1824 34.6903 45.4426 35.5575 45.8762C36.338 46.3098 37.0317 47.0035 37.4653 47.784C37.8989 48.5645 38.1591 49.6052 38.1591 50.6458C38.1591 51.7732 37.8989 52.7271 37.4653 53.5076C37.0317 54.3748 36.338 54.9819 35.5575 55.4155C34.777 55.8491 33.8231 56.1092 32.6957 56.1092ZM22.7228 56.1092C21.5087 56.1092 20.5548 55.8491 19.6876 55.4155C18.8204 54.9819 18.2133 54.2881 17.7797 53.5076C17.3461 52.6404 17.0859 51.6865 17.0859 50.5591C17.0859 49.4317 17.3461 48.4778 17.7797 47.6973C18.2133 46.9168 18.9071 46.223 19.6876 45.7894C20.5548 45.3558 21.5087 45.0957 22.7228 45.0957C23.1564 45.0957 23.6767 45.1824 24.197 45.2691C24.7174 45.3558 25.151 45.5293 25.4979 45.7027C25.758 45.8762 26.0182 46.0496 26.1049 46.3098C26.1916 46.5699 26.2783 46.7434 26.1916 47.0035C26.1916 47.2637 26.1049 47.4371 25.9315 47.6973C25.758 47.8707 25.5846 48.0442 25.4111 48.0442C25.151 48.1309 24.9775 48.0442 24.7174 47.9575C24.1103 47.6973 23.5033 47.5239 22.8962 47.5239C21.9423 47.5239 21.2485 47.784 20.8149 48.3043C20.3813 48.8247 20.1212 49.6052 20.1212 50.5591C20.1212 51.5997 20.3813 52.2935 20.8149 52.8138C21.2485 53.3342 22.029 53.5943 22.8962 53.5943C23.1564 53.5943 23.4166 53.5943 23.7634 53.5076C24.0236 53.4209 24.3705 53.3342 24.6307 53.1607C24.8908 52.9873 25.2377 52.9873 25.4111 53.074C25.6713 53.1607 25.8447 53.2474 26.0182 53.4209C26.1916 53.5943 26.2783 53.8545 26.2783 54.0279C26.2783 54.2881 26.2783 54.4615 26.1916 54.7217C26.1049 54.9819 25.9315 55.1553 25.6713 55.242C25.3244 55.4155 24.8908 55.5889 24.3705 55.7623C23.7634 56.0225 23.2431 56.1092 22.7228 56.1092ZM67.6442 40.9331C66.6903 40.9331 66.1699 40.4128 66.1699 39.4588V31.6539C66.1699 30.7 66.6903 30.1797 67.6442 30.1797H72.8475C73.5412 30.1797 73.9748 30.5266 73.9748 31.2203C73.9748 31.9141 73.6279 32.3477 72.8475 32.3477H68.945V34.3423H72.5006C73.1943 34.3423 73.6279 34.6892 73.6279 35.3829C73.6279 36.0767 73.2811 36.4236 72.5006 36.4236H68.945V38.5916H72.8475C73.5412 38.5916 73.9748 38.9385 73.9748 39.6323C73.9748 40.326 73.6279 40.6729 72.8475 40.6729H67.6442V40.9331ZM55.6767 41.0198C55.2431 41.0198 54.8962 40.9331 54.6361 40.6729C54.3759 40.4128 54.2892 40.0659 54.2892 39.6323V31.5672C54.2892 31.1336 54.3759 30.7867 54.6361 30.5266C54.8962 30.2664 55.2431 30.1797 55.6767 30.1797C56.1103 30.1797 56.4572 30.2664 56.7174 30.5266C56.9775 30.7867 57.0643 31.1336 57.0643 31.5672V34.429H61.487V31.5672C61.487 31.1336 61.5737 30.7867 61.8339 30.5266C62.0941 30.2664 62.4409 30.1797 62.8745 30.1797C63.3082 30.1797 63.655 30.2664 63.9152 30.5266C64.1754 30.7867 64.2621 31.1336 64.2621 31.5672V39.6323C64.2621 40.0659 64.1754 40.4128 63.9152 40.6729C63.655 40.9331 63.3082 41.0198 62.8745 41.0198C62.4409 41.0198 62.0941 40.9331 61.8339 40.6729C61.5737 40.4128 61.487 40.0659 61.487 39.6323V36.6838H57.0643V39.6323C57.0643 40.0659 56.9775 40.4128 56.7174 40.6729C56.5439 40.9331 56.197 41.0198 55.6767 41.0198Z" fill="#FEFCFA"/>
<path d="M107.873 83.0796C107.006 83.0796 106.139 82.9929 105.185 82.8195C104.231 82.646 103.451 82.3859 102.844 82.039C102.497 81.8655 102.15 81.6054 102.063 81.2585C101.89 80.9116 101.89 80.6514 101.89 80.3046C101.89 79.9577 102.063 79.6975 102.237 79.4374C102.41 79.1772 102.67 79.0038 103.017 78.917C103.364 78.8303 103.711 78.8303 104.144 79.0905C104.665 79.3506 105.272 79.5241 105.966 79.6975C106.659 79.871 107.266 79.871 107.873 79.871C108.827 79.871 109.521 79.7842 109.868 79.5241C110.215 79.2639 110.475 79.0038 110.475 78.5701C110.475 78.2233 110.302 77.9631 110.041 77.7897C109.781 77.6162 109.348 77.4428 108.654 77.2693L106.139 76.749C103.451 76.142 102.063 74.7544 102.063 72.4997C102.063 71.5458 102.323 70.6785 102.844 69.8981C103.364 69.1176 104.144 68.5972 105.098 68.1636C106.052 67.73 107.18 67.5566 108.48 67.5566C109.261 67.5566 109.955 67.6433 110.735 67.8168C111.516 67.9902 112.123 68.2504 112.73 68.5972C113.163 68.8574 113.424 69.1176 113.51 69.5512C113.597 69.9848 113.597 70.3317 113.51 70.6786C113.337 71.0254 113.077 71.2856 112.73 71.459C112.383 71.6325 111.863 71.6325 111.342 71.3723C110.909 71.1989 110.475 71.0254 109.955 70.9387C109.434 70.852 108.914 70.7653 108.48 70.7653C107.7 70.7653 107.093 70.9387 106.659 71.1989C106.226 71.459 106.052 71.8059 106.052 72.3262C106.052 72.6731 106.139 72.9333 106.399 73.1067C106.659 73.2802 107.093 73.4536 107.787 73.6271L110.302 74.1474C113.077 74.7544 114.464 76.142 114.464 78.31C114.464 79.2639 114.204 80.1311 113.684 80.9116C113.163 81.6054 112.383 82.2124 111.429 82.646C110.302 82.8195 109.174 83.0796 107.873 83.0796ZM91.3964 82.8195C90.0089 82.8195 89.3151 82.1257 89.3151 80.7382V69.7246C89.3151 68.3371 90.0089 67.6433 91.3964 67.6433H98.681C99.7216 67.6433 100.242 68.1636 100.242 69.1176C100.242 70.1582 99.7216 70.6786 98.681 70.6786H93.1308V73.5403H98.2474C99.288 73.5403 99.8083 74.0607 99.8083 75.1013C99.8083 76.142 99.288 76.6623 98.2474 76.6623H93.1308V79.7842H98.681C99.7216 79.7842 100.242 80.3046 100.242 81.3452C100.242 82.3859 99.7216 82.9062 98.681 82.9062H91.3964V82.8195ZM78.7352 82.8195C78.1281 82.8195 77.6078 82.646 77.2609 82.2991C76.914 81.9523 76.7406 81.4319 76.7406 80.8249V69.6379C76.7406 69.0309 76.914 68.5105 77.2609 68.1636C77.6078 67.8168 78.1281 67.6433 78.7352 67.6433C79.3422 67.6433 79.8625 67.8168 80.2094 68.1636C80.5563 68.5105 80.7298 69.0309 80.7298 69.6379V79.5241H85.933C86.4533 79.5241 86.8869 79.6975 87.1471 79.9577C87.4073 80.2178 87.5807 80.6514 87.5807 81.1718C87.5807 81.6921 87.4073 82.1257 87.1471 82.3859C86.8869 82.646 86.4533 82.8195 85.933 82.8195H78.7352ZM68.4154 83.0796C67.5482 83.0796 66.681 82.9929 65.7271 82.8195C64.7731 82.646 63.9926 82.3859 63.3856 82.039C63.0387 81.8655 62.6918 81.6054 62.6051 81.2585C62.4317 80.9116 62.4317 80.6514 62.4317 80.3046C62.4317 79.9577 62.6051 79.6975 62.7785 79.4374C62.952 79.1772 63.2121 79.0038 63.559 78.917C63.9059 78.8303 64.2528 78.8303 64.6864 79.0905C65.2067 79.3506 65.8138 79.5241 66.5075 79.6975C67.2013 79.871 67.8083 79.871 68.4154 79.871C69.3693 79.871 70.0631 79.7842 70.41 79.5241C70.7569 79.2639 71.017 79.0038 71.017 78.5701C71.017 78.2233 70.8436 77.9631 70.5834 77.7897C70.3233 77.6162 69.8897 77.4428 69.1959 77.2693L66.681 76.749C63.9926 76.142 62.6051 74.7544 62.6051 72.4997C62.6051 71.5458 62.8653 70.6785 63.3856 69.8981C63.9059 69.1176 64.6864 68.5972 65.6403 68.1636C66.5943 67.73 67.7216 67.5566 69.0224 67.5566C69.8029 67.5566 70.4967 67.6433 71.2772 67.8168C72.0577 67.9902 72.6647 68.2504 73.2718 68.5972C73.7054 68.8574 73.9655 69.1176 74.0523 69.5512C74.139 69.9848 74.139 70.3317 74.0523 70.6786C73.8788 71.0254 73.6186 71.2856 73.2718 71.459C72.9249 71.6325 72.4046 71.6325 71.8842 71.3723C71.4506 71.1989 71.017 71.0254 70.4967 70.9387C69.9764 70.852 69.456 70.7653 69.0224 70.7653C68.242 70.7653 67.6349 70.9387 67.2013 71.1989C66.7677 71.459 66.5943 71.8059 66.5943 72.3262C66.5943 72.6731 66.681 72.9333 66.9411 73.1067C67.2013 73.2802 67.6349 73.4536 68.3287 73.6271L70.8436 74.1474C73.6186 74.7544 75.0062 76.142 75.0062 78.31C75.0062 79.2639 74.746 80.1311 74.2257 80.9116C73.7054 81.6921 72.9249 82.2124 71.971 82.646C70.8436 82.8195 69.7162 83.0796 68.4154 83.0796ZM56.7081 83.2531C56.5346 83.6867 56.2745 84.0336 55.9276 84.207C55.5807 84.3804 55.2338 84.3804 54.8002 84.2937C54.4533 84.207 54.1065 83.9468 53.933 83.6867C53.7596 83.3398 53.7596 82.9062 53.8463 82.3859L58.6159 67.5566C58.7894 67.123 59.0495 66.7761 59.3964 66.6027C59.7433 66.4292 60.0902 66.4292 60.5238 66.5159C60.8707 66.6027 61.2176 66.8628 61.391 67.123C61.5644 67.4699 61.6512 67.8168 61.4777 68.3371L56.7081 83.2531ZM46.8219 83.0796C45.9547 83.0796 45.0875 82.9929 44.1336 82.8195C43.1796 82.646 42.3991 82.3859 41.7921 82.039C41.4452 81.8655 41.0983 81.6054 41.0116 81.2585C40.7514 80.9116 40.7514 80.6514 40.7514 80.3046C40.7514 79.9577 40.9249 79.6975 41.0983 79.4374C41.2718 79.1772 41.5319 79.0038 41.8788 78.917C42.2257 78.8303 42.5726 78.8303 43.0062 79.0905C43.5265 79.3506 44.1336 79.5241 44.8273 79.6975C45.5211 79.871 46.1281 79.871 46.7352 79.871C47.6891 79.871 48.3829 79.7842 48.7298 79.5241C49.0766 79.2639 49.3368 79.0038 49.3368 78.5701C49.3368 78.2233 49.1634 77.9631 48.9032 77.7897C48.643 77.6162 48.2094 77.4428 47.5157 77.2693L45.0875 76.6623C42.3991 76.0552 41.0116 74.6677 41.0116 72.413C41.0116 71.459 41.2718 70.5918 41.7921 69.8113C42.3124 69.0309 43.0929 68.5105 44.0468 68.0769C45.0008 67.6433 46.1281 67.4699 47.4289 67.4699C48.2094 67.4699 48.9032 67.5566 49.6837 67.73C50.4642 67.9035 51.0712 68.1636 51.6783 68.5105C52.1119 68.7707 52.372 69.0309 52.4588 69.4645C52.5455 69.8981 52.5455 70.2449 52.4588 70.5918C52.2853 70.9387 52.0252 71.1989 51.6783 71.3723C51.3314 71.5458 50.8111 71.5458 50.2907 71.2856C49.8571 71.1122 49.4235 70.9387 48.9032 70.852C48.3829 70.7653 47.8626 70.6786 47.4289 70.6786C46.6485 70.6786 46.0414 70.852 45.6078 71.1122C45.1742 71.3723 45.0008 71.7192 45.0008 72.2395C45.0008 72.5864 45.0875 72.8466 45.3476 73.02C45.6078 73.1935 46.0414 73.3669 46.7352 73.5403L49.2501 74.0607C52.0252 74.6677 53.4127 76.0552 53.4127 78.2233C53.4127 79.1772 53.1525 80.0444 52.6322 80.8249C52.1119 81.6054 51.3314 82.1257 50.3775 82.5593C49.2501 82.8195 48.1227 83.0796 46.8219 83.0796ZM33.3802 82.9929C32.7731 82.9929 32.2528 82.8195 31.9059 82.4726C31.559 82.1257 31.3856 81.6054 31.3856 80.9983V70.852H28.0035C26.8761 70.852 26.3558 70.3317 26.3558 69.2043C26.3558 68.1636 26.8761 67.5566 28.0035 67.5566H38.6701C39.7975 67.5566 40.3178 68.0769 40.3178 69.2043C40.3178 70.2449 39.7975 70.852 38.6701 70.852H35.288V80.9983C35.288 81.6054 35.1146 82.1257 34.7677 82.4726C34.5075 82.8195 33.9872 82.9929 33.3802 82.9929ZM19.765 83.0796C18.8978 83.0796 18.0306 82.9929 17.0766 82.8195C16.1227 82.646 15.3422 82.3859 14.7352 82.039C14.3883 81.8655 14.0414 81.6054 13.9547 81.2585C13.7813 80.9116 13.7812 80.6514 13.7812 80.3046C13.7812 79.9577 13.9547 79.6975 14.1281 79.4374C14.3016 79.1772 14.5617 79.0038 14.9086 78.917C15.2555 78.8303 15.6024 78.8303 16.036 79.0905C16.5563 79.3506 17.1634 79.5241 17.8571 79.6975C18.5509 79.871 19.1579 79.871 19.765 79.871C20.7189 79.871 21.4127 79.7842 21.7596 79.5241C22.1065 79.2639 22.3666 79.0038 22.3666 78.5701C22.3666 78.2233 22.1932 77.9631 21.933 77.7897C21.6728 77.6162 21.2392 77.4428 20.5455 77.2693L18.0306 76.749C15.3422 76.142 13.9547 74.7544 13.9547 72.4997C13.9547 71.5458 14.2149 70.6785 14.7352 69.8981C15.2555 69.1176 16.036 68.5972 16.9899 68.1636C17.9439 67.73 19.0712 67.5566 20.372 67.5566C21.1525 67.5566 21.8463 67.6433 22.6268 67.8168C23.4073 67.9902 24.0143 68.2504 24.6214 68.5972C25.055 68.8574 25.3151 69.1176 25.4018 69.5512C25.4886 69.9848 25.4886 70.3317 25.4018 70.6786C25.2284 71.0254 24.9682 71.2856 24.6214 71.459C24.2745 71.6325 23.7541 71.6325 23.2338 71.3723C22.8002 71.1989 22.3666 71.0254 21.8463 70.9387C21.326 70.852 20.8056 70.7653 20.372 70.7653C19.5915 70.7653 18.9845 70.9387 18.5509 71.1989C18.1173 71.459 17.9439 71.8059 17.9439 72.3262C17.9439 72.6731 18.0306 72.9333 18.2907 73.1067C18.5509 73.2802 18.9845 73.4536 19.6783 73.6271L22.1932 74.1474C24.9682 74.7544 26.3558 76.142 26.3558 78.31C26.3558 79.2639 26.0956 80.1311 25.5753 80.9116C25.055 81.6921 24.2745 82.2124 23.3205 82.646C22.1932 82.8195 21.0658 83.0796 19.765 83.0796Z" fill="#FEFCFA"/>
</g>
<defs>
<clipPath id="clip0_968_1142">
<rect width="128" height="128" fill="white"/>
</clipPath>
</defs>
</svg>
