<svg width="128" height="128" viewBox="0 0 128 128" fill="none" xmlns="http://www.w3.org/2000/svg">
<g clip-path="url(#clip0_968_1146)">
<path d="M124.45 73.6262C121.501 77.0083 120.287 81.6045 121.154 85.9406C122.542 93.0517 118.466 100.163 111.528 102.504C107.279 103.979 103.984 107.274 102.509 111.523C100.081 118.374 93.0567 122.45 85.9456 121.149C81.5229 120.282 77.0134 121.496 73.6313 124.445C68.0811 129.214 60.0161 129.214 54.466 124.445C51.0839 121.496 46.5744 120.282 42.1516 121.149C35.0405 122.537 27.9294 118.461 25.5879 111.523C24.1137 107.274 20.8183 103.979 16.569 102.504C9.71801 100.076 5.64213 93.0517 6.94294 85.9406C7.81015 81.5178 6.59606 77.0083 3.64755 73.6262C-1.1221 68.0761 -1.1221 60.011 3.64755 54.4609C6.59606 51.0788 7.81015 46.5693 6.94294 42.1465C5.55541 34.9487 9.63129 27.9243 16.4822 25.4961C20.7316 24.0219 24.0269 20.7265 25.5012 16.4772C27.9294 9.62621 34.9538 5.55033 42.0649 6.85114C46.4876 7.71835 50.9971 6.50426 54.3792 3.55575C59.9294 -1.2139 67.9944 -1.2139 73.5446 3.55575C76.9267 6.50426 81.4362 7.71835 85.8589 6.85114C92.97 5.46361 100.081 9.53949 102.423 16.4772C103.897 20.7265 107.192 24.0219 111.442 25.4961C118.293 27.9243 122.368 34.9487 121.068 42.0598C120.2 46.4826 121.414 50.9921 124.363 54.3742C129.219 59.9243 129.219 68.0761 124.45 73.6262Z" fill="#D94599"/>
<path d="M114.038 66.0802C114.125 65.3864 114.298 64.8661 114.559 64.5192C114.819 64.0856 115.166 63.8254 115.599 63.7387C115.773 63.652 115.946 63.652 116.12 63.7387C116.293 63.8254 116.38 63.9121 116.38 64.0856C116.466 64.259 116.38 64.4325 116.293 64.5192C116.206 64.6059 116.12 64.7794 115.859 64.8661C115.426 65.1262 115.166 65.5598 115.166 66.1669C115.079 66.7739 115.252 67.2943 115.686 67.5544C115.859 67.7279 115.946 67.8146 116.033 67.9013C116.12 67.988 116.12 68.1615 116.033 68.3349C115.946 68.5084 115.859 68.5951 115.686 68.6818C115.512 68.7685 115.339 68.7685 115.166 68.5951C114.732 68.4216 114.472 68.0747 114.212 67.6411C114.038 67.2943 113.952 66.7739 114.038 66.0802ZM104.586 62.4379C104.586 62.091 104.759 61.9176 104.933 61.7441C105.106 61.5707 105.453 61.484 105.8 61.5707L112.651 62.091C113.344 62.1777 113.691 62.5246 113.605 63.2184C113.605 63.5653 113.431 63.8254 113.258 63.9989C113.084 64.1723 112.824 64.259 112.477 64.1723L108.401 63.8254L112.651 67.8146C112.911 67.988 112.998 68.1615 113.084 68.3349C113.171 68.5084 113.171 68.7685 113.171 69.0287C113.171 69.2888 112.998 69.549 112.824 69.7224C112.651 69.8959 112.391 69.9826 112.044 69.8959L105.106 69.3756C104.412 69.2888 104.065 68.942 104.065 68.2482C104.152 67.5544 104.499 67.2075 105.279 67.2943L109.355 67.6411L105.106 63.652C104.846 63.4785 104.759 63.2184 104.672 63.1317C104.586 62.8715 104.586 62.6981 104.586 62.4379ZM104.672 51.4243L105.019 52.8119C105.106 53.2455 105.279 53.5056 105.453 53.6791C105.626 53.8525 105.886 53.8525 106.233 53.7658C106.58 53.6791 106.754 53.5056 106.84 53.3322C106.927 53.072 106.927 52.8119 106.84 52.3783L106.494 50.9907L104.672 51.4243ZM104.412 58.6222C104.325 58.2753 104.325 57.9284 104.499 57.755C104.672 57.4948 104.933 57.3214 105.279 57.2346L111.87 55.7604C112.217 55.6737 112.564 55.6737 112.824 55.8471C113.084 56.0205 113.258 56.2807 113.344 56.6276C113.431 56.9745 113.431 57.3214 113.258 57.4948C113.084 57.755 112.824 57.9284 112.477 58.0151L105.886 59.4894C105.54 59.5761 105.193 59.5761 104.933 59.4027C104.586 59.2292 104.499 58.9691 104.412 58.6222ZM102.678 50.7306C102.504 49.9501 102.765 49.4298 103.545 49.2563L109.962 47.7821C110.309 47.6953 110.656 47.6953 110.916 47.8688C111.176 48.0422 111.35 48.3024 111.437 48.6493C111.523 48.9962 111.523 49.343 111.35 49.5165C111.176 49.7766 110.916 49.9501 110.569 50.0368L108.228 50.5571L108.575 52.2048C108.748 53.1588 108.748 53.9392 108.401 54.5463C108.054 55.1533 107.447 55.5869 106.667 55.8471C105.8 56.0205 105.106 55.9338 104.499 55.5002C103.892 55.0666 103.545 54.3728 103.285 53.4189L102.678 50.7306ZM98.255 41.7983C98.0816 41.4514 98.0816 41.1913 98.1683 40.9311C98.255 40.671 98.4285 40.4108 98.7754 40.2373L104.759 37.2021C105.106 37.0287 105.453 36.942 105.713 37.0287C105.973 37.1154 106.233 37.2888 106.407 37.6357C106.58 37.9826 106.58 38.2428 106.494 38.5029C106.407 38.7631 106.233 39.0233 105.886 39.1967L103.805 40.2373L105.453 43.5327L107.534 42.4921C107.881 42.3186 108.228 42.2319 108.488 42.3186C108.748 42.4054 109.008 42.5788 109.182 42.9257C109.355 43.2726 109.355 43.5327 109.269 43.7929C109.182 44.0531 108.922 44.3132 108.662 44.4867L102.678 47.5219C102.331 47.6953 102.071 47.7821 101.724 47.6953C101.464 47.6086 101.204 47.4352 101.03 47.0883C100.857 46.7414 100.857 46.4812 100.943 46.2211C101.03 45.9609 101.29 45.7008 101.55 45.5273L103.718 44.3999L102.071 41.1046L99.9027 42.2319C99.5558 42.4054 99.2957 42.4921 98.9488 42.4054C98.6886 42.3186 98.4285 42.1452 98.255 41.7983ZM91.8377 34.3403C91.5775 34.0802 91.4908 33.82 91.4908 33.4731C91.4908 33.213 91.6642 32.9528 91.9244 32.6059L96.7808 27.923C97.0409 27.6628 97.3011 27.4894 97.648 27.5761C97.9081 27.5761 98.1683 27.7495 98.4285 28.0097C98.6886 28.2699 98.7754 28.53 98.7754 28.8769C98.7754 29.1371 98.6019 29.3972 98.3418 29.7441L96.6073 31.3918L99.1222 34.0802L100.857 32.4325C101.117 32.1723 101.377 31.9989 101.724 32.0856C101.984 32.0856 102.244 32.259 102.504 32.5192C102.765 32.7794 102.851 33.0395 102.851 33.2997C102.851 33.5598 102.678 33.82 102.418 34.0802L97.5613 38.7631C97.3011 39.0233 97.0409 39.1967 96.6941 39.1967C96.4339 39.1967 96.1737 39.0233 95.9136 38.7631C95.6534 38.5029 95.5667 38.2428 95.5667 37.8959C95.5667 37.6357 95.7401 37.3756 96.0003 37.1154L97.8214 35.381L95.3065 32.6926L93.4854 34.427C93.2252 34.6872 92.9651 34.8607 92.6182 34.8607C92.358 34.6872 92.0978 34.6005 91.8377 34.3403ZM85.8539 29.5707C85.1602 29.1371 85.0735 28.53 85.5938 27.923L89.3228 22.633C89.7564 22.026 90.3634 21.8525 90.9705 22.3728L94.4393 24.8878C94.9596 25.2346 95.0464 25.6682 94.6995 26.1018C94.3526 26.6222 93.919 26.6222 93.3987 26.2753L90.7103 24.3674L89.7564 25.755L92.1846 27.4894C92.7049 27.8363 92.7916 28.2699 92.4447 28.7035C92.0978 29.2238 91.6642 29.2238 91.2306 28.8769L88.8025 27.1425L87.7618 28.6168L90.4502 30.5246C90.9705 30.8715 91.0572 31.3051 90.7103 31.7387C90.3634 32.259 89.9298 32.259 89.4962 31.9121L85.8539 29.5707ZM79.2632 26.362C78.9163 26.1886 78.7428 26.0151 78.5694 25.755C78.4827 25.4948 78.4827 25.1479 78.6561 24.801L81.3445 18.7306C81.6913 18.0368 82.2117 17.7766 82.9054 18.1235L86.7212 19.8579C87.3282 20.1181 87.5016 20.5517 87.2415 21.072C86.9813 21.6791 86.5477 21.7658 85.9407 21.5056L83.2523 20.3783L80.8241 25.755C80.6507 26.1018 80.4773 26.362 80.2171 26.4487C79.8702 26.5354 79.61 26.5354 79.2632 26.362ZM73.2794 19.5978L74.7537 19.9447C75.6209 20.1181 76.1412 19.8579 76.3147 19.1642C76.4881 18.4704 76.1412 17.9501 75.274 17.7766L73.7997 17.343L73.2794 19.5978ZM71.1114 24.1073C70.7645 24.0205 70.5044 23.8471 70.3309 23.5869C70.1575 23.3268 70.1575 23.0666 70.2442 22.633L71.7184 16.1289C71.8052 15.7821 71.9786 15.5219 72.2388 15.3485C72.4989 15.175 72.7591 15.175 73.1927 15.2617L76.2279 15.9555C77.1819 16.2157 77.8756 16.6493 78.3092 17.2563C78.7428 17.8634 78.8296 18.6439 78.6561 19.5111C78.4827 20.3783 78.0491 20.9853 77.3553 21.4189C76.6615 21.7658 75.8811 21.8525 74.9271 21.6791L73.0193 21.2455L72.5857 23.1533C72.4989 23.5002 72.3255 23.7604 72.0653 23.9338C71.7184 24.194 71.4583 24.194 71.1114 24.1073ZM63.3932 23.5869C62.6128 23.5869 62.1791 23.1533 62.1791 22.3728L62.3526 15.8688C62.3526 15.0883 62.7862 14.6547 63.5667 14.7414L67.816 14.8281C68.423 14.8281 68.6832 15.175 68.6832 15.6953C68.6832 16.3024 68.3363 16.5625 67.7293 16.5625L64.6073 16.4758V18.1235L67.5558 18.2102C68.1629 18.2102 68.4231 18.5571 68.4231 19.1642C68.4231 19.7712 68.0762 20.0314 67.4691 20.0314L64.5206 19.9447L64.4339 21.7658L67.7293 21.8525C68.3363 21.8525 68.5965 22.1994 68.5965 22.8065C68.5965 23.4135 68.2496 23.6737 67.6426 23.6737L63.3932 23.5869ZM59.4908 23.9338C59.1439 24.0205 58.797 24.0205 58.6236 23.8471C58.3634 23.6737 58.19 23.4135 58.1033 23.0666L56.8025 17.343L54.5477 17.8634L54.8946 19.2509C55.1548 20.465 55.2415 21.5924 55.068 22.5463C54.8946 23.5002 54.461 24.3674 53.9407 25.0612C53.7672 25.3214 53.5071 25.4081 53.2469 25.4081C52.9867 25.4081 52.7266 25.3214 52.4664 25.1479C52.2063 24.9745 52.1195 24.7143 52.1195 24.4541C52.1195 24.194 52.2063 23.9338 52.3797 23.6737C52.8133 23.1533 52.9867 22.5463 53.0735 21.8525C53.1602 21.1588 52.9867 20.2048 52.8133 19.1642L52.4664 17.6899C52.293 16.9094 52.5531 16.4758 53.3336 16.2157L57.5829 15.2617C58.3634 15.0883 58.8838 15.3485 59.0572 16.1289L60.5315 22.5463C60.6182 22.8932 60.6182 23.2401 60.4447 23.5002C60.0978 23.6737 59.8377 23.8471 59.4908 23.9338ZM50.125 26.362C49.7781 26.5354 49.5179 26.5354 49.2577 26.4487C48.9976 26.362 48.7374 26.1018 48.564 25.8417L45.8756 20.5517L43.7943 21.5924L44.4881 22.8932C45.0951 24.0205 45.3553 25.0612 45.442 26.1018C45.5287 27.0558 45.3553 28.0097 44.9217 28.7902C44.7483 29.0504 44.5748 29.2238 44.3147 29.3105C44.0545 29.3972 43.7943 29.3972 43.4474 29.2238C43.1873 29.0504 43.0138 28.8769 42.9271 28.6168C42.8404 28.3566 42.9271 28.0964 43.0138 27.7495C43.274 27.1425 43.3607 26.5354 43.1873 25.755C43.0138 25.0612 42.7537 24.194 42.2334 23.2401L41.6263 21.9392C41.2794 21.2455 41.4529 20.7252 42.1466 20.2915L46.0491 18.297C46.7428 17.9501 47.3499 18.1235 47.6968 18.8173L50.732 24.7143C50.9054 25.0612 50.9922 25.4081 50.9054 25.6682C50.6453 25.9284 50.4718 26.1886 50.125 26.362ZM35.209 27.8363L36.1629 30.7848L37.984 29.2238L35.209 27.8363ZM36.8567 35.1208C36.5965 35.381 36.2496 35.4677 35.9027 35.381C35.5558 35.2943 35.3824 35.0341 35.209 34.6005L33.1277 27.4894C33.0409 27.1425 33.0409 26.8823 33.0409 26.6222C33.1277 26.362 33.2144 26.1018 33.4745 25.9284C33.648 25.755 33.9082 25.6682 34.1683 25.5815C34.4285 25.5815 34.6886 25.5815 35.0355 25.755L41.7997 28.7902C42.2334 28.9636 42.4068 29.2238 42.4935 29.5707C42.4935 29.9176 42.4068 30.1777 42.1466 30.4379C41.8865 30.6981 41.6263 30.7848 41.4529 30.7848C41.1927 30.7848 40.9325 30.6981 40.5857 30.5246L39.6317 30.091L36.5965 32.6926L36.9434 33.6466C37.0301 33.9934 37.1168 34.2536 37.0301 34.5138C37.2035 34.7739 37.1168 34.9474 36.8567 35.1208ZM31.3932 38.6764C31.7401 38.156 31.9136 37.549 31.7401 37.0287C31.5667 36.4216 31.1331 35.9013 30.4393 35.4677C29.7455 34.9474 29.1385 34.7739 28.5315 34.7739C27.9244 34.7739 27.4908 35.1208 27.0572 35.6411C26.7103 36.1615 26.5369 36.7685 26.7103 37.2888C26.8838 37.8959 27.3174 38.4162 28.0111 38.8498C28.7049 39.3701 29.3119 39.5436 29.919 39.5436C30.526 39.4569 31.0464 39.1967 31.3932 38.6764ZM33.0409 39.8037C32.5206 40.4975 31.9136 41.1046 31.2198 41.3647C30.526 41.7116 29.7456 41.7983 28.9651 41.7116C28.1846 41.6249 27.4041 41.278 26.7103 40.7577C25.9298 40.2373 25.4095 39.6303 25.0626 38.9365C24.7157 38.2428 24.629 37.4623 24.7157 36.7685C24.8025 35.988 25.0626 35.2075 25.6697 34.5138C26.19 33.82 26.797 33.213 27.4908 32.9528C28.1846 32.6059 28.9651 32.5192 29.7455 32.6059C30.526 32.6926 31.3065 33.0395 32.0003 33.5598C32.7808 34.0802 33.3011 34.6872 33.648 35.381C33.9949 36.0747 34.0816 36.8552 34.0816 37.6357C33.8214 38.3295 33.5613 39.0233 33.0409 39.8037ZM27.0572 51.1642C26.8838 51.5111 26.7103 51.7712 26.4502 51.8579C26.19 51.9447 25.8431 51.9447 25.4962 51.8579L19.339 49.4298C18.5586 49.1696 18.3851 48.6493 18.6453 47.8688L20.8133 42.4921C21.0735 41.7116 21.5938 41.5382 22.3743 41.7983L28.5315 44.2265C28.8783 44.3999 29.1385 44.5734 29.2252 44.8336C29.3119 45.0937 29.3119 45.3539 29.2252 45.7875C29.0518 46.1344 28.8783 46.3945 28.6182 46.4812C28.358 46.568 28.0111 46.568 27.6642 46.4812L22.2008 44.2265L20.9 47.5219L26.3634 49.6899C26.7103 49.8634 26.9705 50.0368 27.0572 50.297C27.2306 50.5571 27.1439 50.8173 27.0572 51.1642ZM25.2361 60.7035C25.2361 61.0504 25.0626 61.2238 24.8892 61.3972C24.629 61.5707 24.3689 61.5707 24.022 61.5707L17.171 60.7035C16.4773 60.6167 16.1304 60.1831 16.2171 59.4894C16.3038 59.1425 16.3905 58.8823 16.564 58.7089C16.7374 58.5354 17.0843 58.4487 17.4312 58.5354L21.5071 59.0558L17.4312 54.8932C17.2577 54.7197 17.0843 54.4596 16.9976 54.2861C16.9109 54.1127 16.9109 53.8525 16.9109 53.5924C16.9109 53.3322 17.0843 53.072 17.2577 52.9853C17.4312 52.8119 17.6913 52.8119 18.0382 52.8119L24.9759 53.6791C25.6697 53.7658 26.0166 54.1994 25.9298 54.8932C25.8431 55.5869 25.4095 55.9338 24.7157 55.8471L20.6399 55.3268L24.7157 59.4894C24.8892 59.7495 25.0626 59.923 25.1493 60.0964C25.2361 60.1831 25.3228 60.4433 25.2361 60.7035ZM25.4962 67.8146C25.4962 68.1615 25.4095 68.5083 25.2361 68.6818C25.0626 68.8552 24.8025 69.0287 24.3689 69.0287L17.7781 69.549C16.9976 69.6357 16.564 69.2021 16.4773 68.4216L16.1304 64.1723C16.0437 63.5653 16.3905 63.2184 16.9976 63.1317C17.6046 63.0449 17.9515 63.3918 18.0382 63.9989L18.2984 67.1208L24.1954 66.6872C24.5423 66.6872 24.8892 66.7739 25.0626 66.9474C25.3228 67.1208 25.4095 67.381 25.4962 67.8146Z" fill="#FEFCFA"/>
<path d="M69.2907 59.0576C57.0631 75.2744 61.0523 89.2365 62.2664 92.4451C64.0008 92.6186 65.8219 92.3584 67.7298 91.6646C72.4127 89.9302 77.0956 85.5942 80.9113 80.044C84.8138 74.4072 87.9357 67.4695 89.2365 60.5318C90.2772 55.1552 90.2772 49.7785 88.8897 45.0955C80.7379 48.044 76.055 51.5996 74.4073 52.9004L76.9222 60.7053C77.0956 61.1389 77.0089 61.5725 76.8355 61.9194C76.4018 62.6131 75.5346 62.7866 74.8409 62.4397L69.2907 59.0576ZM59.9249 94.2663C59.4913 93.3123 52.12 76.0549 67.8165 56.2825C68.2501 55.6755 69.1173 55.5888 69.7243 55.9356L73.0197 57.9302L71.372 52.9004C71.1986 52.3801 71.372 51.773 71.7189 51.4262C71.7189 51.4262 77.3558 45.9627 89.3233 41.8869C90.1037 41.6267 90.8842 42.0603 91.1444 42.7541C93.2257 48.3042 93.3124 54.7215 92.0983 61.0522C90.6241 68.3367 87.4154 75.6213 83.3395 81.605C79.1769 87.6755 73.9737 92.3584 68.7704 94.2663C66.1688 95.2202 63.5672 95.5671 61.0523 95.0467C60.4452 95.0467 60.0983 94.6999 59.9249 94.2663Z" fill="#FEFCFA"/>
<path d="M72.144 69.2049C72.5776 68.5979 73.5315 68.4244 74.1385 68.8581C74.7456 69.2917 74.919 70.2456 74.4854 70.8526C74.4854 70.9393 63.0383 86.9827 59.2226 105.975C59.0491 106.755 58.3553 107.275 57.5749 107.102C56.7944 106.929 56.274 106.235 56.4475 105.454C60.3499 85.7686 72.0572 69.2917 72.144 69.2049Z" fill="#FEFCFA"/>
<path d="M96.4327 57.15C96.4327 56.3696 97.0397 55.6758 97.8202 55.6758C98.6007 55.6758 99.2945 56.2828 99.2945 57.0633C99.2945 57.0633 99.5546 68.4238 91.8365 80.9983C91.4029 81.692 90.5356 81.8655 89.8419 81.4319C89.1481 80.9983 88.9747 80.1311 89.4083 79.4373C96.6928 67.6433 96.4327 57.2368 96.4327 57.15Z" fill="#FEFCFA"/>
<path d="M42.2336 48.3042C53.1604 36.1633 65.0412 39.372 65.0412 39.372C65.4748 39.4587 65.8217 39.8056 65.9951 40.2392C66.6021 41.8001 66.6889 43.5346 66.342 45.269C65.6482 48.7378 63.3068 52.4668 60.0114 55.7622C56.8027 58.9709 52.6401 61.7459 48.304 63.3936C44.4883 64.8679 40.4992 65.4749 36.7702 64.7812C35.9897 64.6077 35.4694 63.914 35.6428 63.1335C36.8569 55.3286 39.632 51.2527 39.632 51.2527C39.8921 50.8191 40.4992 50.5589 41.0195 50.6457L42.8406 50.9058L42.2336 50.2121C41.8 49.6917 41.8 48.9112 42.2336 48.3042ZM63.5669 41.9736C61.1387 41.6267 53.1604 41.1064 45.2688 49.2581L47.6103 51.8598C48.1306 52.4668 48.0439 53.334 47.5236 53.8543C47.1767 54.2012 46.7431 54.2879 46.3095 54.2012L41.6265 53.6809C40.9328 54.9817 39.632 57.7568 38.7647 62.1795C41.5398 62.4397 44.4883 61.8327 47.3501 60.7053C51.3393 59.1443 55.155 56.6294 58.1035 53.6809C60.9653 50.8191 63.0466 47.6104 63.5669 44.7486C63.7404 43.7947 63.7404 42.8408 63.5669 41.9736Z" fill="#FEFCFA"/>
<path d="M52.6426 51.5996C52.1223 52.12 51.1684 52.12 50.6481 51.5996C50.1277 51.0793 50.1277 50.1254 50.6481 49.6051C50.6481 49.6051 59.4936 40.5861 71.1142 36.0766C71.8947 35.8164 72.6752 36.1633 72.9353 36.8571C73.1955 37.6376 72.8486 38.4181 72.1548 38.6782C61.1413 43.0143 52.6426 51.5996 52.6426 51.5996Z" fill="#FEFCFA"/>
</g>
<defs>
<clipPath id="clip0_968_1146">
<rect width="128" height="128" fill="white"/>
</clipPath>
</defs>
</svg>
