<svg width="128" height="128" viewBox="0 0 128 128" fill="none" xmlns="http://www.w3.org/2000/svg">
<g clip-path="url(#clip0_968_1154)">
<path d="M124.45 73.6262C121.501 77.0083 120.287 81.6045 121.154 85.9406C122.542 93.0517 118.466 100.163 111.528 102.504C107.279 103.979 103.984 107.274 102.509 111.523C100.081 118.374 93.0568 122.45 85.9456 121.149C81.5229 120.282 77.0134 121.496 73.6313 124.445C68.0812 129.214 60.0161 129.214 54.466 124.445C51.0839 121.496 46.5744 120.282 42.1516 121.149C35.0405 122.537 27.9294 118.461 25.5879 111.523C24.1137 107.274 20.8183 103.979 16.569 102.504C9.71801 100.076 5.64213 93.0517 6.94294 85.9406C7.81015 81.5178 6.59606 77.0083 3.64755 73.6262C-1.1221 68.0761 -1.1221 60.011 3.64755 54.4609C6.59606 51.0788 7.81015 46.5693 6.94294 42.1465C5.55541 34.9487 9.63129 27.9243 16.4822 25.4961C20.7316 24.0219 24.027 20.7265 25.5012 16.4772C27.9294 9.62621 34.9538 5.55033 42.0649 6.85114C46.4877 7.71835 50.9971 6.50426 54.3792 3.55575C59.9294 -1.2139 67.9944 -1.2139 73.5446 3.55575C76.9267 6.50426 81.4362 7.71835 85.8589 6.85114C92.97 5.46361 100.081 9.53949 102.423 16.4772C103.897 20.7265 107.192 24.0219 111.442 25.4961C118.293 27.9243 122.368 34.9487 121.068 42.0598C120.2 46.4826 121.414 50.9921 124.363 54.3742C129.219 59.9243 129.219 68.0761 124.45 73.6262Z" fill="#D94599"/>
<path d="M103.018 55.8475C102.931 55.5006 103.018 55.1537 103.191 54.9803C103.365 54.7201 103.625 54.6334 104.058 54.5467L110.736 53.6795C111.083 53.5928 111.43 53.6795 111.69 53.8529C111.95 54.0264 112.037 54.2865 112.123 54.6334C112.21 54.9803 112.123 55.3272 111.95 55.5006C111.777 55.7608 111.516 55.8475 111.083 55.9342L108.741 56.1944L109.175 59.8367L111.516 59.5765C111.863 59.4898 112.21 59.5765 112.47 59.7499C112.73 59.9234 112.817 60.1835 112.904 60.5304C112.991 60.8773 112.904 61.2242 112.73 61.3976C112.557 61.6578 112.297 61.7445 111.863 61.8312L105.186 62.6985C104.839 62.7852 104.492 62.6984 104.232 62.525C103.972 62.3516 103.885 62.0914 103.798 61.7445C103.712 61.3976 103.798 61.0508 103.972 60.8773C104.145 60.6171 104.405 60.5304 104.839 60.4437L107.267 60.0968L106.833 56.4545L104.405 56.8014C104.058 56.8882 103.712 56.8014 103.451 56.628C103.191 56.4546 103.104 56.1944 103.018 55.8475ZM105.706 47.1754L106.226 48.6497C106.487 49.5169 107.007 49.777 107.701 49.6036C108.394 49.3434 108.655 48.8231 108.308 47.9559L107.787 46.4817L105.706 47.1754ZM100.676 47.6957C100.59 47.3489 100.59 47.002 100.676 46.8285C100.763 46.5684 101.023 46.3949 101.37 46.2215L107.701 44.0535C108.048 43.9667 108.394 43.9667 108.655 44.0535C108.915 44.1402 109.088 44.4004 109.262 44.7472L110.216 47.6957C110.562 48.6497 110.562 49.4302 110.216 50.1239C109.869 50.8177 109.348 51.338 108.481 51.5982C107.614 51.8583 106.833 51.8583 106.226 51.5115C105.533 51.1646 105.099 50.4708 104.752 49.5169L104.145 47.6957L102.237 48.3028C101.89 48.3895 101.544 48.3895 101.283 48.3028C101.023 48.3028 100.763 48.0426 100.676 47.6957ZM103.104 32.7798C102.671 32.2594 102.497 31.7391 102.411 31.2188C102.324 30.6985 102.411 30.2649 102.671 29.918C102.758 29.7445 102.931 29.6578 103.104 29.5711C103.278 29.5711 103.451 29.5711 103.538 29.6578C103.712 29.7445 103.798 29.918 103.798 30.0047C103.798 30.1781 103.798 30.3516 103.712 30.525C103.538 31.0453 103.712 31.4789 104.058 31.9993C104.405 32.5196 104.926 32.693 105.359 32.693C105.619 32.693 105.706 32.693 105.88 32.7798C105.966 32.8665 106.14 32.9532 106.14 33.1266C106.226 33.3001 106.226 33.4735 106.14 33.5602C106.053 33.7337 105.966 33.8204 105.706 33.8204C105.273 33.9071 104.839 33.9071 104.405 33.7337C103.972 33.647 103.538 33.3001 103.104 32.7798ZM93.6519 36.5088C93.4785 36.2486 93.3917 35.9884 93.3917 35.7283C93.4785 35.4681 93.5652 35.2079 93.9121 34.9478L99.2888 30.6985C99.8958 30.2649 100.329 30.3516 100.85 30.8719C101.023 31.1321 101.11 31.3922 101.11 31.6524C101.11 31.9125 100.936 32.1727 100.676 32.3462L97.4676 34.8611L103.278 34.9478C103.538 34.9478 103.798 34.9478 103.972 35.0345C104.145 35.1212 104.319 35.2079 104.492 35.4681C104.665 35.7283 104.752 35.9017 104.665 36.1619C104.579 36.422 104.492 36.5955 104.232 36.8556L98.7684 41.1917C98.1614 41.6253 97.7278 41.6253 97.2075 41.0182C96.7739 40.4979 96.8606 39.9776 97.3809 39.4573L100.59 36.9424H94.7793C94.4324 36.9424 94.2589 36.9424 94.0855 36.8556C93.9988 36.7689 93.8253 36.6822 93.6519 36.5088ZM86.7142 28.0101L87.8416 28.8773C88.1885 29.1375 88.4487 29.3109 88.7088 29.3109C88.969 29.3109 89.2291 29.1375 89.4026 28.8773C89.576 28.6172 89.6627 28.357 89.576 28.0968C89.4893 27.8367 89.3159 27.5765 88.969 27.3163L87.8416 26.4491L86.7142 28.0101ZM91.0503 33.7337C90.7901 33.4735 90.6167 33.2134 90.53 32.9532C90.53 32.693 90.6167 32.3462 90.8768 32.086L95.0394 26.796C95.2996 26.5359 95.5598 26.3624 95.8199 26.2757C96.0801 26.2757 96.427 26.3624 96.6871 26.5359C96.9473 26.796 97.1207 27.0562 97.2075 27.3163C97.2075 27.5765 97.1207 27.9234 96.8606 28.1836L92.698 33.4735C92.4378 33.7337 92.1776 33.9071 91.9175 33.9938C91.6573 34.0806 91.3972 33.9939 91.0503 33.7337ZM84.8064 28.7039C84.1993 28.1835 84.1126 27.6632 84.6329 27.0562L88.7088 21.8529C88.969 21.506 89.2291 21.4193 89.4893 21.3326C89.7495 21.3326 90.0963 21.4193 90.3565 21.5928C90.6167 21.8529 90.7901 22.1131 90.8768 22.3733C90.8768 22.6334 90.7901 22.9803 90.53 23.2405L89.0557 25.1483L90.4432 26.189C91.2237 26.796 91.6573 27.4031 91.8308 28.1836C92.0042 28.8773 91.744 29.5711 91.2237 30.2649C90.7034 30.9586 90.0096 31.3055 89.3159 31.3055C88.6221 31.3055 87.8416 31.0453 87.0611 30.4383L84.8064 28.7039ZM75.5272 24.8014C75.1804 24.628 74.9202 24.4546 74.8335 24.1944C74.7468 23.9342 74.7468 23.5873 74.8335 23.2405L77.2617 16.9966C77.4351 16.6497 77.6085 16.3895 77.8687 16.3028C78.1289 16.2161 78.4758 16.2161 78.7359 16.3028C79.0828 16.4762 79.343 16.6497 79.4297 16.9098C79.5164 17.17 79.5164 17.5169 79.4297 17.8638L78.5625 20.0318L81.9446 21.3326L82.8118 19.1646C82.9852 18.8177 83.1587 18.5575 83.4188 18.4708C83.679 18.3841 84.0259 18.3841 84.286 18.4708C84.6329 18.6443 84.8931 18.8177 84.9798 19.0779C85.0665 19.338 85.0665 19.6849 84.8931 20.0318L82.3782 26.2757C82.2048 26.6226 82.0313 26.8827 81.7711 26.9695C81.511 27.0562 81.2508 27.0562 80.9039 26.9695C80.5571 26.796 80.2969 26.6226 80.2102 26.3624C80.1234 26.1022 80.1235 25.7554 80.2969 25.4085L81.1641 23.067L77.782 21.7662L76.9148 24.1077C76.7413 24.4546 76.5679 24.7147 76.3077 24.8014C76.221 24.9749 75.9608 24.9749 75.5272 24.8014ZM68.4161 21.5928L70.1506 21.8529C70.5842 21.9396 70.931 21.8529 71.1045 21.7662C71.2779 21.5928 71.4514 21.4193 71.4514 21.0724C71.4514 20.7256 71.4514 20.4654 71.2779 20.292C71.1045 20.1185 70.8443 20.0318 70.4107 19.9451L68.6763 19.6849L68.4161 21.5928ZM67.1153 23.2405C66.3348 23.1537 65.9879 22.7201 66.0747 21.9396L66.9419 15.3489C67.0286 15.002 67.1153 14.6551 67.3755 14.4817C67.6356 14.3082 67.8958 14.2215 68.2427 14.3082C68.5896 14.3949 68.8497 14.4817 69.0232 14.7418C69.1966 15.002 69.2833 15.2621 69.1966 15.6957L68.9365 18.0372L71.0178 18.2974C71.9717 18.3841 72.6655 18.731 73.1858 19.2513C73.7061 19.7716 73.8796 20.4654 73.7928 21.3326C73.7061 22.1998 73.3592 22.8069 72.6655 23.2405C72.0584 23.6741 71.2779 23.7608 70.324 23.6741L67.1153 23.2405ZM63.1262 23.1537C62.7793 23.1537 62.4324 23.067 62.259 22.8936C62.0855 22.7201 61.9121 22.46 61.9121 22.0264L61.4785 16.1294L59.137 16.3028L59.2237 17.777C59.3104 19.0779 59.2237 20.2052 58.8768 21.0724C58.53 22.0264 58.0096 22.8069 57.3159 23.3272C57.0557 23.5006 56.7955 23.5873 56.5354 23.5873C56.2752 23.5873 56.0151 23.4139 55.8416 23.1537C55.6682 22.8936 55.5814 22.6334 55.5814 22.3733C55.5814 22.1131 55.7549 21.8529 56.015 21.6795C56.4487 21.2459 56.7955 20.6388 56.969 19.9451C57.1424 19.2513 57.1424 18.2974 57.0557 17.2567L56.969 15.6957C56.8823 14.9153 57.3159 14.4817 58.0964 14.3949L62.4324 14.0481C63.2129 13.9613 63.6465 14.3949 63.7332 15.1754L64.2535 21.7662C64.2535 22.1131 64.1668 22.46 63.9934 22.6334C63.8199 23.067 63.5598 23.1537 63.1262 23.1537ZM48.8172 19.2513L48.5571 22.3733L50.8985 21.5928L48.8172 19.2513ZM47.6031 26.6226C47.2562 26.7093 46.9094 26.7093 46.6492 26.5359C46.389 26.3624 46.3023 26.0155 46.3023 25.5819L47.0828 18.2107C47.0828 17.8638 47.2562 17.6036 47.343 17.3434C47.5164 17.17 47.6898 16.9966 48.0367 16.9098C48.2969 16.8231 48.5571 16.8231 48.8172 16.9098C49.0774 16.9966 49.3375 17.17 49.5977 17.4302L54.7142 22.8069C55.0611 23.1537 55.1478 23.4139 55.0611 23.7608C54.9744 24.1077 54.801 24.2811 54.3674 24.3678C54.0205 24.4546 53.7603 24.4546 53.5869 24.3678C53.3267 24.2811 53.1533 24.1077 52.8931 23.8475L52.1993 23.067L48.4703 24.2811L48.3836 25.3218C48.3836 25.6686 48.2969 25.9288 48.2102 26.189C48.1235 26.3624 47.8633 26.4491 47.6031 26.6226ZM40.0584 25.3218L41.3592 24.4546C42.1397 23.9342 42.3132 23.4139 41.8795 22.8069C41.4459 22.1998 40.9256 22.1131 40.1451 22.5467L38.8443 23.4139L40.0584 25.3218ZM41.7061 30.0914C41.3592 30.2649 41.0991 30.3516 40.8389 30.2649C40.5787 30.1781 40.3186 30.0047 40.1451 29.6578L36.5896 24.021C36.4161 23.6741 36.3294 23.4139 36.4161 23.1537C36.5029 22.8936 36.6763 22.6334 37.0232 22.46L39.6248 20.8123C40.492 20.292 41.2725 20.0318 41.9663 20.2052C42.7468 20.3787 43.3538 20.8123 43.7874 21.5928C44.3077 22.3733 44.3945 23.067 44.221 23.8475C44.0476 24.5413 43.5272 25.235 42.66 25.7554L41.0123 26.796L42.053 28.4437C42.2264 28.7906 42.3132 29.0508 42.3132 29.3109C42.2264 29.6578 42.053 29.918 41.7061 30.0914ZM37.0232 33.8204C36.763 34.0806 36.5029 34.1673 36.156 34.1673C35.8958 34.1673 35.6356 33.9939 35.3755 33.7337L31.2996 29.4844L29.9121 30.8719C29.4785 31.3055 29.0449 31.3055 28.6113 30.8719C28.1777 30.4383 28.1777 30.0047 28.6113 29.5711L33.1207 25.235C33.5543 24.8014 33.988 24.8014 34.5083 25.235C34.9419 25.6686 34.9419 26.1023 34.5083 26.5359L32.9473 27.9234L37.0232 32.1727C37.2833 32.4329 37.3701 32.693 37.3701 33.0399C37.4568 33.3001 37.2833 33.5602 37.0232 33.8204ZM23.408 34.8611C23.0611 35.3814 22.6275 35.815 22.1072 35.9884C21.6736 36.1619 21.24 36.2486 20.8064 36.1619C20.6329 36.0751 20.4595 35.9884 20.3728 35.9017C20.2861 35.7283 20.2861 35.6415 20.3728 35.4681C20.4595 35.2947 20.5462 35.2079 20.6329 35.1212C20.7197 35.0345 20.8931 35.0345 21.1533 35.0345C21.6736 35.0345 22.1072 34.7743 22.4541 34.254C22.801 33.7337 22.8877 33.2134 22.7142 32.7798C22.6275 32.6063 22.6275 32.4329 22.6275 32.2594C22.6275 32.086 22.7142 31.9993 22.8877 31.9125C23.0611 31.8258 23.1478 31.7391 23.3213 31.7391C23.4947 31.7391 23.5814 31.8258 23.7549 32.086C24.0151 32.4329 24.1018 32.9532 24.0151 33.3868C24.0151 33.8204 23.8416 34.3407 23.408 34.8611ZM29.5652 42.9261C29.3917 43.1863 29.1316 43.3597 28.8714 43.3597C28.6113 43.3597 28.3511 43.273 28.0042 43.0995L22.3674 39.1104C21.7603 38.6768 21.6736 38.1565 22.1072 37.6361C22.2806 37.376 22.5408 37.2025 22.801 37.1158C23.0611 37.1158 23.3213 37.1158 23.5814 37.376L26.9636 39.8041L25.4026 34.1673C25.3159 33.9071 25.3159 33.647 25.3159 33.4735C25.3159 33.3001 25.4026 33.0399 25.576 32.8665C25.7495 32.6063 25.9229 32.5196 26.1831 32.5196C26.4432 32.5196 26.7034 32.6063 26.9636 32.7798L32.6871 36.8556C33.2942 37.2892 33.3809 37.8096 32.9473 38.3299C32.5137 38.9369 31.9934 39.0237 31.473 38.5901L28.0909 36.1619L29.7386 41.7987C29.8253 42.0589 29.8254 42.319 29.8254 42.4925C29.8254 42.4925 29.7386 42.6659 29.5652 42.9261ZM26.4432 49.777C26.1831 50.5575 25.6628 50.731 24.8823 50.4708L18.8118 48.1293C18.0313 47.8692 17.8579 47.3489 18.118 46.5684L19.679 42.5792C19.9392 42.0589 20.2861 41.8854 20.8064 42.0589C21.3267 42.319 21.5001 42.6659 21.3267 43.273L20.1126 46.3082L21.6736 46.9153L22.801 44.1402C23.0611 43.6199 23.408 43.4464 23.9283 43.6199C24.4487 43.88 24.6221 44.2269 24.4487 44.834L23.3213 47.609L25.0557 48.3028L26.2698 45.2676C26.53 44.7472 26.8768 44.5738 27.3972 44.7472C27.9175 45.0074 28.0909 45.3543 27.9175 45.9613L26.4432 49.777ZM24.3619 59.4898C24.2752 59.8367 24.1885 60.0968 23.9283 60.2703C23.6682 60.4437 23.408 60.4437 22.9744 60.4437L16.3836 59.2296C16.0367 59.1429 15.6899 58.9695 15.6031 58.796C15.4297 58.5359 15.4297 58.2757 15.4297 57.9288C15.5164 57.5819 15.6031 57.3218 15.8633 57.1483C16.1235 56.9749 16.3836 56.9749 16.8172 56.9749L19.1587 57.4085L19.7657 53.7662L17.4243 53.3326C17.0774 53.2459 16.7305 53.0724 16.6438 52.899C16.4703 52.6388 16.4703 52.3787 16.4703 52.0318C16.5571 51.6849 16.6438 51.4247 16.9039 51.2513C17.1641 51.0779 17.4243 51.0779 17.8579 51.0779L24.4487 52.2919C24.7955 52.3787 25.1424 52.4654 25.2291 52.7256C25.4026 52.9857 25.4026 53.2459 25.4026 53.5928C25.3159 53.9396 25.2291 54.1998 24.969 54.3732C24.7088 54.5467 24.4487 54.5467 24.0151 54.5467L21.6736 54.0264L21.0665 57.6686L23.408 58.1022C23.7549 58.189 24.1018 58.2757 24.1885 58.5359C24.4487 58.796 24.4487 59.0562 24.3619 59.4898Z" fill="#FEFCFA"/>
<path d="M59.3165 105.887C60.5306 107.101 62.1783 107.795 63.9994 107.795C65.8206 107.795 67.4683 107.014 68.6824 105.887C69.8965 104.673 70.5902 103.025 70.5902 101.204C70.5902 99.4695 69.0293 96.521 67.3816 93.9193C66.0807 91.838 64.6932 89.9302 63.9127 88.9762C63.219 89.9302 61.8314 91.7513 60.4439 93.9193C58.7962 96.521 57.2352 99.4695 57.2352 101.204C57.4087 103.025 58.1892 104.759 59.3165 105.887ZM64.0862 110.743C61.4845 110.743 59.0564 109.703 57.3219 107.968C55.5875 106.234 54.5469 103.892 54.5469 101.204C54.5469 98.7757 56.2813 95.3936 58.1891 92.3584C60.0103 89.4966 61.9181 87.0684 62.265 86.6348C62.5252 86.3746 62.7854 86.1145 63.0455 86.0277C63.3924 85.8543 63.7393 85.7676 63.9994 85.7676C64.3463 85.7676 64.6932 85.8543 64.9534 86.0277C65.2135 86.2012 65.5604 86.3746 65.7339 86.6348C66.0808 87.1551 67.9886 89.5833 69.8097 92.3584C71.7176 95.3069 73.452 98.7757 73.452 101.204C73.452 103.806 72.4114 106.234 70.677 107.968C69.0293 109.703 66.6878 110.743 64.0862 110.743Z" fill="#FEFCFA"/>
<path d="M40.5821 95.3933C41.2759 96.0871 42.1431 96.4339 43.1838 96.4339C44.2244 96.4339 45.0916 96.0003 45.7854 95.3933C46.4791 94.6995 46.826 93.8323 46.826 92.7917C46.826 91.751 45.8721 90.0166 44.9182 88.4556C44.3111 87.5017 43.6174 86.5478 43.1838 85.9407C42.49 86.8946 41.3626 88.4556 40.5821 90.0166C39.9751 91.144 39.5415 92.1846 39.5415 92.7917C39.4548 93.8323 39.8884 94.6995 40.5821 95.3933ZM43.1838 99.2957C41.3626 99.2957 39.7149 98.602 38.5875 97.3879C37.3735 96.1738 36.6797 94.5261 36.6797 92.7917C36.6797 91.5776 37.2867 90.1033 38.0672 88.6291C39.368 86.2009 41.3626 83.686 41.7095 83.2524C41.8829 82.9922 42.1431 82.8188 42.4033 82.732C42.6634 82.5586 43.0103 82.5586 43.2705 82.5586C43.5306 82.5586 43.8775 82.6453 44.1377 82.732C44.3978 82.8188 44.658 83.0789 44.8315 83.2524C45.0916 83.5992 46.3057 85.0735 47.4331 86.9814C48.6472 88.8892 49.8613 91.2307 49.8613 92.8784C49.8613 94.6995 49.1675 96.3472 47.9534 97.4746C46.6526 98.602 45.0049 99.2957 43.1838 99.2957Z" fill="#FEFCFA"/>
<path d="M82.3868 95.3933C83.0806 96.0871 83.9478 96.4339 84.9884 96.4339C86.0291 96.4339 86.8963 96.0003 87.5901 95.3933C88.2838 94.6995 88.6307 93.8323 88.6307 92.7917C88.6307 91.751 87.6768 90.0166 86.7229 88.4556C86.1158 87.5017 85.422 86.5478 84.9884 85.9407C84.2947 86.8946 83.1673 88.4556 82.3868 90.0166C81.7798 91.144 81.3462 92.1846 81.3462 92.7917C81.2594 93.8323 81.693 94.6995 82.3868 95.3933ZM84.9884 99.2957C83.1673 99.2957 81.5196 98.602 80.3922 97.3879C79.1781 96.1738 78.4844 94.5261 78.4844 92.7917C78.4844 91.5776 79.0914 90.1033 79.8719 88.6291C81.1727 86.2009 83.1673 83.686 83.5142 83.2524C83.6876 82.9922 83.9478 82.8188 84.208 82.732C84.4681 82.5586 84.815 82.5586 85.0752 82.5586C85.3353 82.5586 85.6822 82.6453 85.9424 82.732C86.2025 82.8188 86.4627 83.0789 86.6361 83.2524C86.8963 83.5992 88.1104 85.0735 89.2378 86.9814C90.4519 88.8892 91.6659 91.2307 91.6659 92.8784C91.6659 94.6995 90.9722 96.3472 89.7581 97.4746C88.3706 98.602 86.7229 99.2957 84.9884 99.2957Z" fill="#FEFCFA"/>
<path d="M80.657 75.1862C79.3562 75.1862 78.0554 75.0128 76.6679 74.7526C75.2803 74.4925 73.9795 74.0589 72.7654 73.4518C72.0717 73.1049 71.5513 72.5846 71.2912 71.9776C71.031 71.3705 70.9443 70.7635 71.031 70.1564C71.1177 69.5494 71.3779 69.029 71.7248 68.5954C72.0717 68.1618 72.592 67.815 73.199 67.6415C73.8061 67.4681 74.4998 67.5548 75.1936 67.9884C76.0608 68.422 76.928 68.6822 77.882 68.9423C78.8359 69.1158 79.7031 69.2892 80.4836 69.2892C81.7844 69.2892 82.8251 69.0291 83.6055 68.422C84.2993 67.815 84.7329 67.0345 84.7329 65.9938C84.7329 64.9532 84.386 64.1727 83.6923 63.5656C82.9985 62.9586 82.0446 62.6117 80.8305 62.6117C80.3101 62.6117 79.7031 62.6984 79.0961 62.8719C78.489 63.0453 77.882 63.3055 77.1882 63.7391C76.8413 63.9125 76.4944 64.086 75.9741 64.2594C75.4538 64.4328 75.0202 64.5196 74.4131 64.5196C72.592 64.5196 71.6381 63.6524 71.6381 61.9179V50.0372C71.6381 47.9559 72.6787 47.002 74.6733 47.002H87.0744C89.069 47.002 90.1096 47.9559 90.1096 49.9505C90.1096 51.8583 89.069 52.899 87.0744 52.899H78.4023V57.7553C79.6164 57.1483 81.0039 56.8014 82.5649 56.8014C84.2993 56.8014 85.8603 57.1483 87.2478 57.9288C88.5486 58.7093 89.676 59.7499 90.3698 61.0507C91.1502 62.3515 91.4971 63.9992 91.4971 65.7337C91.4971 67.6415 91.0635 69.2892 90.1963 70.7635C89.3291 72.2377 88.0283 73.2784 86.3806 74.0589C84.8196 74.7526 82.9118 75.1862 80.657 75.1862ZM63.6597 75.0128C62.4457 75.0128 61.5784 74.6659 60.798 73.8854C60.1042 73.1917 59.7573 72.2377 59.7573 71.1104C59.7573 69.983 60.1042 69.1158 60.798 68.422C61.4917 67.7282 62.4457 67.3814 63.6597 67.3814C64.8738 67.3814 65.8278 67.7282 66.5215 68.422C67.2153 69.1158 67.5622 70.0697 67.5622 71.1104C67.5622 72.2377 67.2153 73.1917 66.5215 73.8854C65.8278 74.5792 64.8738 75.0128 63.6597 75.0128ZM46.2288 75.1862C44.928 75.1862 43.6272 75.0128 42.2397 74.7526C40.8522 74.4925 39.5513 74.0589 38.3373 73.4518C37.6435 73.1049 37.1232 72.5846 36.863 71.9776C36.6028 71.3705 36.5161 70.7635 36.6028 70.1564C36.6896 69.5494 36.9497 69.029 37.2966 68.5954C37.6435 68.1618 38.1638 67.815 38.7709 67.6415C39.3779 67.4681 40.0717 67.5548 40.7654 67.9884C41.6326 68.422 42.4998 68.6822 43.4538 68.9423C44.4077 69.1158 45.2749 69.2892 46.0554 69.2892C47.3562 69.2892 48.3969 69.0291 49.1774 68.422C49.8711 67.815 50.3047 67.0345 50.3047 65.9938C50.3047 64.9532 49.9578 64.1727 49.2641 63.5656C48.5703 62.9586 47.6164 62.6117 46.4023 62.6117C45.882 62.6117 45.2749 62.6984 44.6679 62.8719C44.0608 63.0453 43.4538 63.3055 42.76 63.7391C42.4131 63.9125 42.0662 64.086 41.5459 64.2594C41.0256 64.4328 40.592 64.5196 39.9849 64.5196C38.1638 64.5196 37.2099 63.6524 37.2099 61.9179V50.0372C37.2099 47.9559 38.2505 47.002 40.2451 47.002H52.6462C54.6408 47.002 55.6814 47.9559 55.6814 49.9505C55.6814 51.8583 54.6408 52.899 52.6462 52.899H43.9741V57.7553C45.1882 57.1483 46.5757 56.8014 48.1367 56.8014C49.8711 56.8014 51.4321 57.1483 52.8196 57.9288C54.1204 58.7093 55.2478 59.7499 55.9416 61.0507C56.7221 62.3515 57.069 63.9992 57.069 65.7337C57.069 67.6415 56.6354 69.2892 55.7681 70.7635C54.9009 72.2377 53.6001 73.2784 51.9524 74.0589C50.4782 74.7526 48.4836 75.1862 46.2288 75.1862Z" fill="#FEFCFA"/>
</g>
<defs>
<clipPath id="clip0_968_1154">
<rect width="128" height="128" fill="white"/>
</clipPath>
</defs>
</svg>
