<svg width="44" height="33" viewBox="0 0 44 33" fill="none" xmlns="http://www.w3.org/2000/svg">
<g clip-path="url(#clip0_1_313)">
<path d="M0 -0.000976562H44V32.999H0V-0.000976562Z" fill="#00008B"/>
<path d="M5.15625 -0.000976562L21.9313 12.4428L38.6375 -0.000976562H44V4.26152L27.5 16.5678L44 28.8053V32.999H38.5L22 20.6928L5.56875 32.999H0V28.874L16.4313 16.6365L0 4.39902V-0.000976562H5.15625Z" fill="white"/>
<path d="M29.15 19.3178L44 30.249V32.999L25.3688 19.3178H29.15ZM16.5 20.6928L16.9125 23.099L3.7125 32.999H0L16.5 20.6928ZM44 -0.000976562V0.205273L26.8813 13.1303L27.0188 10.1053L40.5625 -0.000976562H44ZM0 -0.000976562L16.4313 12.099H12.3063L0 2.88652V-0.000976562Z" fill="#FF0000"/>
<path d="M16.5688 -0.000976562V32.999H27.5688V-0.000976562H16.5688ZM0 10.999V21.999H44V10.999H0Z" fill="white"/>
<path d="M0 13.2678V19.8678H44V13.2678H0ZM18.7688 -0.000976562V32.999H25.3688V-0.000976562H18.7688Z" fill="#FF0000"/>
</g>
<defs>
<clipPath id="clip0_1_313">
<rect y="-0.000976562" width="44" height="33" rx="2" fill="white"/>
</clipPath>
</defs>
</svg>
