<svg width="44" height="33" viewBox="0 0 44 33" fill="none" xmlns="http://www.w3.org/2000/svg">
<g clip-path="url(#clip0_9_601)">
<path d="M10.3194 0H33.6737V33H10.3125L10.3194 0Z" fill="white"/>
<path d="M-1.35437 0H10.3194V33H-1.35437V0ZM33.6738 0H45.3475V33H33.6806L33.6738 0ZM13.8188 15.95L12.9044 16.2525L17.1256 19.965C17.4488 20.9069 17.0156 21.1887 16.7406 21.6838L21.3194 21.1063L21.2094 25.7125L22.165 25.6919L21.9519 21.1131L26.5375 21.6631C26.2556 21.065 26.0013 20.7488 26.2625 19.7931L30.4769 16.2869L29.7413 16.0119C29.1363 15.5444 30.0025 13.7706 30.1263 12.65C30.1263 12.65 27.6719 13.4956 27.5138 13.0488L26.8813 11.8456L24.64 14.3069C24.3994 14.3688 24.2963 14.2725 24.2344 14.0663L25.2656 8.92375L23.6294 9.845C23.4919 9.90687 23.3544 9.85188 23.2719 9.69375L21.6906 6.53125L20.0681 9.8175C19.9444 9.93438 19.8206 9.94812 19.7244 9.86563L18.15 8.9925L19.0919 14.0869C19.0163 14.2931 18.8375 14.3481 18.6313 14.2381L16.4863 11.8113C16.2113 12.2581 16.0188 12.9869 15.6475 13.1519C15.2763 13.31 14.0319 12.8425 13.2 12.6706C13.4888 13.6881 14.3688 15.3931 13.8188 15.95Z" fill="#D52B1E"/>
</g>
<defs>
<clipPath id="clip0_9_601">
<rect width="44" height="33" rx="2" fill="white"/>
</clipPath>
</defs>
</svg>
