<svg width="44" height="33" viewBox="0 0 44 33" fill="none" xmlns="http://www.w3.org/2000/svg">
<g clip-path="url(#clip0_1_353)">
<path fill-rule="evenodd" clip-rule="evenodd" d="M0 -0.000976562H49.4936V32.999H0V-0.000976562Z" fill="white"/>
<path fill-rule="evenodd" clip-rule="evenodd" d="M0 -0.000976562H14.9982V15.0037H0V-0.000976562Z" fill="#000066"/>
<path fill-rule="evenodd" clip-rule="evenodd" d="M0 29.9634H49.4936V32.9991H0V29.9634Z" fill="#CC0000"/>
<path fill-rule="evenodd" clip-rule="evenodd" d="M0 29.9955H49.4936V32.999H0V29.9955ZM0 24.0078H49.4936V26.9855H0V24.0078ZM0 18.0008H49.3711V21.0107H0V18.0008ZM14.9982 -0.000976562H49.4871V2.99609H14.9982V-0.000976562ZM14.9982 11.9873H49.4871V15.0037H14.9982V11.9873ZM14.9982 6.0125H49.4871V9.00957H14.9982V6.0125Z" fill="#CC0000"/>
<path fill-rule="evenodd" clip-rule="evenodd" d="M10.7169 11.4396L7.44914 9.4415L4.2007 11.4589L5.40598 8.17822L2.16399 6.15439L6.17942 6.12861L7.42336 2.86084L8.69953 6.12217H12.715L9.48586 8.16533L10.7169 11.4396Z" fill="white"/>
</g>
<defs>
<clipPath id="clip0_1_353">
<rect y="-0.000976562" width="44" height="33" rx="2" fill="white"/>
</clipPath>
</defs>
</svg>
