<svg width="439" height="293" viewBox="0 0 439 293" fill="none" xmlns="http://www.w3.org/2000/svg">
<path d="M268.431 1.37207C268.723 1.37207 269.014 1.37207 269.402 1.37207C270.568 1.66242 271.733 1.85598 272.995 2.04954C274.258 2.24311 276.297 2.04954 276.588 2.63023C277.365 4.46909 277.948 3.30771 278.822 2.92058C280.57 2.14632 282.512 0.79138 284.26 2.33989C286.396 4.08196 288.241 6.30794 289.989 8.43714C290.474 9.11461 290.377 10.276 290.571 11.147C290.96 12.8891 291.057 14.8247 292.028 16.2765C292.902 17.6314 294.747 18.4057 296.009 19.6638C297.078 20.7284 298.146 21.8898 298.923 23.148C299.797 24.89 298.923 25.9546 297.078 26.245C295.621 26.5353 294.164 26.7289 292.708 27.0192C291.737 27.2128 290.863 27.4064 292.125 28.7613C293.873 30.7937 294.941 33.3101 294.359 36.2135C294.262 36.6974 295.038 37.3749 295.233 37.9556C295.524 38.6331 295.718 39.4073 295.718 40.0848C295.621 40.9558 295.33 41.7301 295.038 42.6011C295.718 42.4075 296.398 42.1172 297.175 41.9236C297.466 41.8269 297.854 41.7301 298.049 41.8269C300.088 43.3754 303.584 41.3429 305.04 44.6335C305.137 44.9239 306.109 45.0207 306.594 44.9239C307.856 44.7303 309.216 44.5367 310.381 43.9561C313.294 42.6011 315.042 43.2786 315.916 46.182C316.402 47.9241 316.596 50.2469 319.606 49.1823C320.092 48.9887 321.063 49.5694 321.548 50.0533C321.743 50.2469 321.257 51.2147 321.063 51.7954C320.966 52.1825 320.48 52.6664 320.577 52.9568C321.548 55.1827 322.714 57.3119 323.588 59.4411C324.17 60.8929 324.947 62.5382 323.685 64.0867C322.422 65.5384 322.908 69.5064 324.753 70.1839C326.21 70.7646 326.695 71.6356 326.986 73.0874C327.375 74.8294 328.637 74.9262 330.094 73.9584C331.55 72.9906 333.298 72.1195 335.046 71.7324C338.639 70.9582 341.552 72.2163 343.203 75.7973C343.786 77.0554 344.466 77.0554 345.922 76.6683C347.087 76.378 350.001 77.3458 350.292 78.3136C351.166 81.1203 351.554 79.3782 352.817 78.7007C355.147 77.249 357.672 75.7005 360.197 75.3134C363.11 74.9262 365.732 74.7327 368.062 72.5067C369.325 71.2485 372.238 71.6356 372.432 72.797C372.626 74.9262 374.471 75.4101 375.637 76.5715C376.705 77.5393 376.414 79.7653 377.093 81.3138C378.162 83.7334 380.007 85.3787 382.531 86.3465C383.502 86.7336 384.376 87.7982 384.862 88.766C385.639 90.6049 387.192 90.2177 388.358 89.8306C388.94 89.6371 388.94 88.1853 389.232 87.2175C389.426 86.54 389.717 85.9593 389.911 85.2819C391.077 85.7658 392.825 83.9269 393.601 85.9593C394.67 88.6692 396.903 89.1531 399.428 88.9596C400.884 88.8628 402.147 88.4757 402.729 90.5081C402.924 91.0888 404.186 91.4759 404.963 91.863C405.643 92.2502 406.517 92.3469 407.002 92.8309C409.333 94.8633 409.624 94.9601 412.052 92.7341C413.217 91.6695 414.091 91.863 414.771 93.3148C414.965 93.7987 415.062 94.3794 415.256 94.8633C416.033 97.186 416.81 97.2828 419.238 96.9925C420.694 96.7989 423.316 97.4764 423.704 98.541C424.578 100.767 425.938 102.025 427.977 103.186C429.628 104.154 430.599 103.961 431.958 103.09C432.347 102.799 432.638 102.219 432.93 102.219C434.289 102.219 435.746 102.509 437.105 102.606C436.717 103.477 436.328 104.348 436.134 105.316C435.94 106.284 435.551 107.445 435.843 108.219C436.328 109.477 437.396 110.542 438.173 111.703C438.173 112.961 438.173 114.22 438.173 115.381C436.522 116.93 434.192 118.091 433.512 120.027C432.444 122.736 430.502 123.027 428.366 123.511C428.171 123.607 427.783 123.511 427.686 123.704C427.394 124.285 426.812 125.156 427.006 125.543C428.268 127.963 431.182 129.027 433.901 128.156C435.357 127.672 435.843 128.447 435.649 129.705C435.454 131.544 433.415 132.802 431.667 132.221C430.696 131.931 429.628 130.576 428.56 132.124C427.88 133.092 427.297 134.06 426.812 135.028C426.618 135.512 426.812 136.189 426.521 136.576C425.549 138.318 425.841 138.996 427.977 139.189C428.851 139.286 430.016 140.254 430.405 141.222C431.085 142.77 431.376 144.512 431.764 146.254C431.861 146.932 431.861 147.803 431.473 148.48C430.793 149.642 431.182 149.739 432.25 149.835C432.832 149.835 433.998 150.319 433.998 150.61C433.998 151.384 433.609 152.158 433.221 152.836C432.832 153.416 431.959 153.803 431.667 154.481C430.308 157.675 429.24 161.062 429.045 164.546C428.948 167.159 427.88 167.74 425.355 167.45C421.762 167.062 418.169 166.966 414.576 166.675C413.411 166.579 412.149 166.675 411.081 166.288C407.293 165.03 405.643 165.611 404.574 168.998C404.089 170.643 403.895 171.998 401.661 172.869C399.913 173.547 398.36 174.418 396.418 174.611C393.699 174.902 392.145 177.225 392.242 179.934C392.339 181.193 391.756 182.548 391.562 183.806C391.465 184.386 391.659 185.257 391.951 185.451C393.796 186.419 393.213 187.29 392.145 188.548C391.562 189.225 390.688 190.29 390.882 190.968C391.465 193.774 389.329 194.742 388.455 195.807C387.29 195.129 386.513 194.355 385.736 194.355C383.114 194.258 380.298 195.032 377.773 194.452C374.569 193.677 373.209 195.323 371.85 197.452C371.17 198.517 370.393 199.678 369.713 200.743C369.131 201.517 368.742 202.485 367.868 200.839C367.286 199.678 366.315 199.872 365.149 200.355C360.779 202.097 357.187 204.517 356.215 209.55C356.215 209.646 356.215 209.743 356.118 209.743C355.73 210.034 355.342 210.324 354.953 210.517C354.953 210.034 354.953 209.55 355.05 209.163C355.924 207.227 355.244 205.582 353.302 205.678C350.098 205.872 346.99 206.453 344.757 209.066C343.883 210.034 343.3 213.518 341.358 209.743C341.261 209.646 341.067 209.55 340.97 209.55C337.668 208.582 332.133 210.517 329.9 213.227C329.026 214.292 328.055 215.26 326.986 216.131C325.53 217.389 324.073 218.454 322.52 219.615C321.646 220.292 320.674 221.163 319.703 221.163C319.024 221.163 318.441 219.712 317.858 218.938C316.11 222.035 314.071 225.035 309.896 225.422C309.313 225.519 308.439 226.39 308.342 226.97C308.148 229.293 307.177 228.519 305.914 227.841C305.332 227.551 304.264 227.164 303.972 227.454C302.321 229.003 300.379 228.325 298.826 227.745C297.175 227.164 296.398 226.777 296.204 228.906C296.204 229.196 293.873 226.003 292.999 224.164C292.805 224.261 284.745 225.809 282.9 225.035C282.609 224.938 281.735 225.422 281.541 225.906C281.346 226.196 281.638 226.874 281.832 227.358C281.929 227.551 282.609 227.648 282.803 227.551C284.842 225.615 284.745 227.358 285.036 228.712C285.231 229.874 285.522 230.648 286.881 229.487C287.27 229.196 288.435 229.584 289.115 229.874C289.989 230.164 290.766 230.938 291.64 231.132C294.456 231.809 297.466 231.906 298.923 235.1C299.02 235.39 300.865 238.294 301.156 234.81C301.156 234.616 301.836 234.423 302.127 234.519C302.71 234.81 303.681 235.197 303.681 235.584C303.681 236.455 303.195 237.326 302.807 238.1C302.418 238.778 303.778 238.391 305.04 237.713C305.332 237.52 305.817 237.616 306.206 237.52C306.109 237.907 306.206 238.584 306.011 238.778C305.04 239.262 304.846 239.455 306.011 239.939C306.497 240.133 306.594 241.101 306.788 241.681C306.885 242.068 306.982 242.552 306.982 242.939C308.633 242.552 309.119 244.488 310.187 244.778C312.712 245.456 313.392 247.585 314.168 249.424C314.654 250.682 314.848 252.618 314.168 253.682C313.1 255.424 313.974 256.295 315.139 256.779C317.47 257.941 321.646 258.618 321.16 257.941C321.646 257.941 321.937 257.941 322.131 257.941C327.084 259.005 329.123 258.037 331.55 253.392C331.745 253.005 332.23 252.714 332.619 252.327C332.91 252.811 333.104 253.295 333.493 253.682C334.269 254.553 335.143 255.327 336.017 256.005C336.212 256.102 337.085 255.521 337.377 255.134C339.028 252.714 341.941 251.747 344.757 252.618C346.699 253.198 348.738 253.295 350.583 254.069C351.36 254.36 351.943 255.424 352.331 256.392C352.428 256.779 351.554 257.941 351.263 257.941C349.806 257.65 349.321 258.328 348.447 259.489C346.893 261.522 346.505 263.457 347.573 265.586C348.253 267.038 347.767 267.812 346.602 268.006C344.077 268.587 341.844 270.619 338.931 268.877C338.542 268.683 337.668 269.07 337.183 269.458C335.24 270.813 333.104 270.329 331.453 268.78C330.191 267.522 328.346 266.457 326.598 265.973C324.462 265.393 323.005 267.135 322.811 269.167C322.714 270.135 321.548 271.78 320.869 271.78C317.858 271.877 316.402 273.522 315.431 276.136C314.848 277.781 313.974 278.265 312.518 276.813C312.129 276.426 311.352 276.136 310.867 276.232C308.342 276.91 305.914 277.878 303.39 278.362C300.088 279.039 298.437 281.168 297.272 284.072C296.981 284.943 296.592 285.911 295.912 286.491C293.29 288.524 290.571 290.362 287.853 292.298C285.716 292.298 283.483 292.298 281.346 292.298C279.016 290.943 277.559 288.427 274.84 287.653C274.258 287.459 273.772 286.782 273.287 286.298C272.315 285.33 272.121 284.652 273.675 283.975C276.2 283.007 276.491 281.846 276.394 279.233C276.297 277.781 277.074 276.232 277.462 274.781C277.753 273.619 278.239 272.458 278.239 271.393C278.239 270.135 277.753 268.877 277.365 267.619C276.685 265.102 273.578 263.457 271.15 264.135C270.568 264.328 269.791 264.135 269.305 263.747C267.072 262.005 265.032 260.07 262.799 258.328C260.663 256.682 258.526 256.779 256.196 258.231C255.807 258.521 255.128 258.812 254.739 258.618C253.574 258.134 252.117 257.65 251.438 256.682C250.369 255.231 251.243 253.585 252.506 252.618C253.865 251.553 255.516 250.779 256.973 249.811C259.497 248.069 262.022 246.23 264.45 244.391C265.518 243.617 266.392 242.649 267.363 241.778C267.557 241.584 267.946 241.294 268.043 241.391C270.568 243.423 271.733 241.004 273.287 239.842C273.966 239.358 274.937 239.165 275.811 238.778C277.559 238.004 279.404 237.229 281.152 236.455C281.055 236.261 280.958 236.068 280.861 235.874C278.724 235.778 278.724 235.778 278.627 233.648C278.627 232.487 278.822 231.326 278.822 230.261C278.822 229.777 278.336 229.39 278.142 228.906C277.851 229.293 277.656 229.68 277.365 229.971C276.879 230.745 276.394 231.906 275.714 232.1C275.034 232.293 273.675 231.809 273.189 231.229C272.315 230.261 270.47 230.842 270.082 229.1C269.985 228.809 268.528 228.616 267.751 228.712C264.935 228.906 262.119 229.196 259.303 229.487C258.526 229.584 257.749 229.777 257.07 229.777C254.545 229.971 252.117 232.1 249.495 230.648C246.971 229.293 244.446 227.841 242.115 226.099C240.367 224.744 238.62 223.68 236.289 223.583C235.512 223.583 234.735 222.518 233.958 221.938C234.735 221.551 235.609 221.067 236.483 220.776C236.969 220.583 237.648 220.873 238.037 220.68C238.814 220.196 239.396 219.518 240.076 218.938C239.396 218.55 238.814 218.066 238.134 217.776C237.454 217.486 236.677 217.292 235.998 216.905C234.347 216.131 232.696 215.647 232.016 218.26C230.365 216.324 229.297 213.518 229.977 213.421C233.57 212.743 236.774 214.679 240.173 214.969C242.212 215.163 244.252 215.26 246.194 215.453C246.388 212.84 246.388 212.84 243.475 213.421C243.184 213.518 242.698 213.421 242.504 213.131C240.853 211.389 239.202 209.646 237.746 208.001C237.357 211.292 236.192 212.26 233.084 211.098C231.725 210.614 230.56 209.743 229.492 211.582C229.394 211.776 228.618 211.679 228.229 211.485C226.967 210.808 225.801 211.098 224.539 211.679C223.665 212.066 222.597 211.872 221.626 211.872C220.072 211.872 218.033 211.195 216.965 211.969C214.44 213.518 209.002 212.453 210.556 218.163C210.653 218.357 210.459 218.647 210.362 218.841C209.682 220.002 208.905 220.97 208.419 222.228C205.895 228.422 201.039 232.971 197.446 238.391C197.058 238.971 196.378 239.746 195.698 239.842C194.436 240.036 193.174 242.068 191.717 240.23C191.426 240.52 191.037 240.907 190.746 241.197C189.969 241.972 190.649 244.585 188.221 243.133C188.027 243.036 187.444 243.327 187.25 243.52C187.153 243.714 187.25 244.294 187.444 244.488C189.484 246.52 186.862 246.617 186.182 247.295C185.017 248.456 184.725 247.488 184.337 246.327C183.949 245.069 183.269 243.907 182.783 242.939C182.589 243.617 182.298 244.391 182.006 245.165C181.327 247.391 182.201 249.424 184.046 249.714C183.56 250.488 183.172 251.263 182.978 251.65C184.046 252.618 185.502 253.295 185.599 254.069C185.794 256.295 185.502 258.715 185.114 260.941C185.017 261.522 184.046 261.909 183.463 262.393C183.269 261.812 183.075 261.231 182.88 260.65C182.395 259.296 182.298 257.457 181.327 256.586C179.482 254.94 177.054 253.682 174.529 254.844C171.907 256.005 169.286 257.36 166.955 259.005C165.887 259.779 165.304 260.36 164.042 259.489C163.75 259.296 162.488 259.683 162.391 260.07C161.808 262.296 161.031 262.683 158.798 261.909C156.953 261.231 155.205 260.263 153.36 259.973C149.573 259.199 149.864 255.231 147.825 253.198C147.728 253.101 147.922 252.618 148.019 252.327C148.699 250.392 150.156 250.488 151.806 250.682C152.777 250.876 154.622 250.972 154.72 250.585C155.205 249.521 155.399 247.972 155.011 246.907C154.428 245.456 154.72 244.585 155.691 243.714C156.662 242.843 157.827 242.262 158.701 241.294C159.575 240.326 160.934 238.971 160.74 238.1C160.158 235.1 161.517 234.229 164.042 233.745C164.722 233.648 166.081 232.681 165.984 232.584C165.11 230.455 166.372 228.906 167.343 227.261C167.44 227.067 167.44 226.486 167.343 226.39C165.11 224.841 165.984 222.422 165.401 220.389C164.624 217.97 165.693 216.518 167.732 215.55C168.606 215.066 169.577 214.679 170.451 214.195C172.199 213.324 172.878 214.098 173.073 215.744C173.17 216.712 173.267 217.679 173.364 218.841C174.626 217.97 173.752 215.357 175.792 216.615C176.763 217.195 176.957 217.002 177.637 216.421C178.122 216.034 179.19 215.84 179.482 216.131C180.356 216.905 180.938 218.066 181.618 219.034C182.298 220.002 182.589 220.002 183.075 218.841C183.463 217.873 184.337 217.195 185.017 216.421C185.697 217.099 186.473 217.776 187.153 218.55C187.542 219.034 187.736 219.809 187.833 220.196C188.318 220.099 189.192 220.196 190.358 220.389C191.523 220.583 195.893 222.615 197.252 222.809C200.165 223.293 202.981 224.067 201.136 221.841C199.68 220.486 190.746 217.099 189.581 215.84C189.095 215.357 188.513 214.002 188.804 213.808C190.843 211.679 189.775 209.066 190.066 206.743C190.163 206.066 189.581 205.001 188.998 204.614C187.25 203.356 185.502 202.291 183.56 201.226C180.356 199.581 180.356 199.581 181.521 196.194C181.812 195.42 182.298 194.548 180.647 195.129C180.356 195.226 179.676 194.936 179.482 194.549C179.19 194.161 178.996 193.194 179.19 193.097C181.618 191.839 179.482 189.032 181.23 187.483C181.424 187.387 180.744 186.322 180.453 185.741C180.453 185.645 179.773 185.838 179.579 186.128C177.637 188.064 177.151 187.967 175.889 185.645C175.209 184.29 174.044 182.935 172.781 182.257C171.325 181.386 169.771 178.967 170.257 177.321C170.936 175.289 171.616 173.353 172.004 171.321C172.199 170.353 171.325 168.901 171.713 168.417C173.267 166.482 171.228 165.224 171.033 163.578C170.936 162.514 169.965 161.933 169.091 163.288C168.12 164.836 166.858 164.546 165.79 163.482C164.916 162.611 163.653 161.643 163.459 160.675C163.071 157.288 160.546 156.997 158.021 156.416C156.565 156.126 155.496 156.513 154.817 157.965C154.622 158.449 154.234 158.739 153.943 159.223C153.554 158.739 153.166 158.352 152.875 157.868C152.68 157.481 152.68 157.094 152.68 156.997C151.709 156.997 151.127 157.094 150.447 157.094C150.544 156.513 150.738 155.933 150.835 155.352C150.932 154.868 151.029 154.384 151.127 153.9C150.641 153.9 150.058 153.997 149.573 153.997C148.699 153.997 147.825 153.997 146.951 153.997C145.203 153.9 144.135 153.319 144.426 151.287C144.426 151.19 144.135 150.9 143.941 150.9C141.61 150.61 140.056 149.255 138.794 147.416C137.435 145.48 135.201 146.545 133.453 145.867C132.482 145.577 131.22 145.577 130.346 145.964C128.501 146.835 125.976 146.351 124.714 148.577C124.617 148.674 124.228 148.771 124.034 148.674C121.995 148.19 120.053 148.287 118.013 149.061C117.625 149.158 117.042 148.964 116.654 148.771C115.1 147.996 114.129 147.9 114.226 150.126C114.226 151.384 113.352 151.868 112.381 151.287C110.925 150.416 110.73 151.287 109.953 152.255C109.177 153.223 107.914 154.19 106.749 154.481C104.418 154.965 102.573 155.545 101.505 158.062C100.437 160.578 99.3689 163.578 95.4846 162.804C95.2904 162.804 94.9991 162.901 94.8048 162.998C90.8235 163.578 87.0363 164.74 82.9579 164.74C79.3649 164.74 75.5778 165.417 73.927 169.772C73.2472 171.708 68.2948 173.353 67.5179 172.289C66.0613 170.063 64.2163 168.514 61.9829 167.256C61.7887 167.159 61.7886 166.869 61.6915 166.675C60.5263 163.965 58.0015 163.288 55.1854 164.546C52.6606 165.611 49.9417 166.482 47.3198 164.449C46.64 163.965 45.3777 164.159 44.4066 164.159C43.6297 164.159 42.2703 164.643 42.076 164.353C40.231 161.836 37.2207 162.223 35.2786 162.514C31.977 162.998 30.0348 161.836 28.1898 159.61C26.8303 158.062 25.665 158.449 24.694 160.288C24.1113 161.256 22.849 161.739 21.8779 162.417C21.4895 162.707 21.101 162.804 20.6155 162.998C19.9358 163.191 19.256 163.385 18.6734 163.482C18.4792 162.804 18.0907 162.127 18.1878 161.546C18.5763 159.223 17.1197 157.771 14.8862 158.546C13.1383 159.126 12.2643 158.642 11.4875 156.9C10.9049 155.642 9.73958 153.707 8.76852 153.61C6.43796 153.416 5.66111 151.965 4.78715 150.319C4.0103 148.867 3.23345 147.125 1 147.222C1 144.899 1 142.577 1 140.254C2.94213 138.609 5.27268 137.35 5.66111 134.35C5.85532 132.705 6.63218 131.06 7.31192 129.511C8.38009 127.285 9.54537 125.059 10.7106 122.93C11.002 122.543 11.8759 122.156 12.3615 122.253C13.7209 122.543 14.9833 123.124 16.3428 123.511C16.8284 123.704 17.411 123.704 17.9936 123.801C17.7023 123.124 17.6052 122.446 17.2168 121.865C16.8284 121.285 16.2457 120.704 15.6631 120.51C14.0123 119.93 14.2065 118.962 14.7891 117.801C15.8573 115.381 15.0804 113.058 14.4007 110.735C13.6238 108.316 12.2643 105.703 14.8862 103.283C16.2457 102.025 17.3139 100.38 18.4792 98.9281C21.5866 94.9601 24.4998 90.7984 27.8014 86.9272C30.6175 83.7334 34.1133 81.217 36.8323 77.9265C38.9686 75.4101 41.0079 73.7648 44.4066 74.2488C44.8921 74.3455 45.669 73.7648 46.0574 73.2809C46.8343 72.3131 47.4169 71.2485 47.9995 70.1839C48.1937 69.7968 48.4851 69.3129 48.2909 68.9258C47.8053 67.1837 47.4169 65.3448 46.5429 63.7963C44.0182 59.7315 43.9211 59.8283 48.5822 58.4733C45.5719 56.7312 43.9211 54.1181 43.1442 50.8276C42.8529 49.6662 42.2702 48.408 41.4934 47.4402C39.5513 44.8271 35.5699 43.1818 37.8034 38.8266C37.9976 38.5363 37.512 37.8588 37.4149 37.3749C37.0265 35.3425 36.6381 33.2133 36.4439 31.1809C36.4439 30.7937 37.1236 29.9227 37.512 29.9227C39.6484 29.8259 42.2702 29.2452 43.7268 30.213C46.1545 31.9551 47.1256 30.6969 48.4851 29.342C49.0677 28.7613 49.6503 28.2774 50.3301 27.8903C51.7867 26.9225 52.8549 25.8579 53.3404 24.019C53.7288 22.7608 54.8941 21.3091 56.0594 20.922C57.9044 20.3413 60.0407 20.2445 62.08 20.3413C65.77 20.4381 69.2658 20.1477 72.7617 18.696C74.1212 18.1153 75.772 18.3089 77.2286 18.4057C80.8215 18.5992 84.4145 18.9864 88.0074 19.1799C91.0177 19.3735 94.1251 19.567 97.1354 19.8574C97.4267 19.8574 97.718 20.3413 98.0094 20.5349C98.8833 20.922 99.7573 21.4059 100.631 21.5995C102.573 21.9866 104.807 20.8252 106.263 23.148C106.361 23.3415 107.137 23.148 107.623 23.2448C109.468 23.5351 111.313 23.6319 112.964 24.2126C115.1 24.9868 117.042 25.7611 119.47 25.0836C120.732 24.6965 123.063 24.9868 123.743 25.8579C124.617 27.0192 125.49 28.3742 126.17 29.6324C127.336 31.7615 128.501 31.1809 129.666 30.6002C132.191 29.342 134.133 31.1809 136.269 31.568C136.464 31.568 136.464 32.7294 136.464 33.3101C136.464 33.9875 136.464 34.665 136.561 35.3425C137.046 34.7618 137.629 34.1811 138.017 33.5036C138.211 33.1165 138.017 32.439 138.211 31.9551C138.6 30.5034 139.765 30.1163 141.028 31.0841C143.844 33.2133 144.815 33.1165 146.951 30.3098C148.116 28.7613 148.796 29.0517 150.156 30.6002C150.932 31.4712 151.127 33.5036 153.36 32.6326C154.72 32.1487 156.565 32.3422 158.021 32.6326C158.507 32.7294 158.701 34.2779 158.992 35.1489C159.186 35.6328 159.575 36.1167 159.963 36.6006C160.449 36.2135 161.129 35.9232 161.323 35.3425C162.197 33.5036 163.556 32.5358 165.498 32.0519C166.275 31.8583 167.052 31.3744 167.732 30.7937C168.994 29.5356 171.131 29.5356 171.907 31.0841C172.684 32.5358 172.976 34.1811 173.655 35.7296C174.141 36.7942 174.529 38.4395 175.403 38.7298C176.374 39.117 177.928 38.5363 178.996 37.9556C180.259 37.2781 181.132 35.9232 182.492 35.3425C183.172 35.0521 184.337 35.7296 185.211 35.9232C186.182 36.1167 187.25 36.6974 188.221 36.5039C190.552 36.2135 192.979 34.9553 195.116 35.3425C196.961 35.7296 199.097 37.4717 200.068 39.2137C200.845 40.6655 200.748 42.3108 202.884 42.4075C203.564 42.4075 204.438 42.7947 204.826 42.4075C205.895 41.5365 206.963 40.6655 206.089 38.9234C205.118 36.9878 204.438 34.9553 203.855 32.8261C203.661 32.2455 203.855 31.4712 204.147 30.8905C204.826 29.342 205.506 27.8903 206.283 26.4386C207.351 24.5029 208.322 22.4705 209.585 20.6316C210.75 18.9864 212.692 17.825 213.372 15.9861C214.052 14.1473 215.023 13.7601 216.771 13.5666C219.392 13.2762 222.306 15.599 224.636 12.5988C224.733 12.4052 225.413 12.502 225.801 12.502C229.103 12.5988 232.405 12.5988 235.803 12.6955C236.386 12.6955 237.357 12.8891 237.454 13.2762C238.425 15.9861 240.756 14.6312 242.31 14.8247C244.446 15.1151 247.262 12.8891 247.553 11.0502C247.845 9.40496 247.942 7.75967 248.33 6.21116C248.524 5.63047 249.495 4.75943 249.981 4.75943C251.535 4.85621 253.088 5.14656 254.448 5.72725C256.39 6.5015 258.235 7.27576 260.566 7.17898C263.867 5.43691 266.198 3.59805 268.431 1.37207Z" stroke="#C9D3DA" stroke-miterlimit="10"/>
</svg>
