<svg width="280" height="30" viewBox="0 0 280 30" fill="none" xmlns="http://www.w3.org/2000/svg">
<path d="M18.7982 28.9437V6.07394H0V1.10916H41.2621V6.07394H22.3385V28.9437H18.7982Z" fill="black"/>
<path d="M77.6811 28.9437L72.2297 21.4965H45.0976L39.5834 28.9437H34.7272L55.2173 1.10916H62.2039L82.6627 28.9437H77.6811ZM57.4104 4.75352L48.7006 16.5845H68.6267L59.8228 4.75352H57.4104Z" fill="black"/>
<path d="M130.651 28.9437H122.537L106.182 17.2183L89.5145 28.9437H81.2119L101.859 14.3662L83.1544 1.10916H91.5196L106.245 11.5141L121.033 1.10916H129.085L110.286 14.419L130.651 28.9437Z" fill="black"/>
<path d="M133.264 28.9437V1.10916H136.836V28.9437H133.264Z" fill="black"/>
<path d="M182.513 1.10916V6.07394H146.045V11.5141C151.747 9.92958 157.867 9.13732 164.404 9.13732C177.542 9.13732 184.111 12.6056 184.111 19.5423C184.111 26.5141 177.448 30 164.122 30C155.851 30 148.75 28.6796 142.818 26.0387V20.8099C150.045 23.5563 157.397 24.9296 164.874 24.9296C169.741 24.9296 173.605 24.3838 176.466 23.2923C179.098 22.2711 180.414 21.0035 180.414 19.4894C180.414 17.9049 179.056 16.6021 176.341 15.581C173.396 14.4542 169.407 13.8908 164.373 13.8908C156.081 13.8908 148.896 15.0176 142.818 17.2711V1.10916H182.513Z" fill="#7DE25B"/>
<path d="M210.645 30C202.332 30 196.17 28.8028 192.16 26.4085C188.066 23.9789 186.019 20.1937 186.019 15.0528C186.019 9.94718 188.056 6.16197 192.129 3.69718C196.118 1.26761 202.217 0.0528162 210.426 0.0528162C218.655 0.0528162 224.764 1.26761 228.754 3.69718C232.827 6.16197 234.863 9.94718 234.863 15.0528C234.863 25.0176 226.79 30 210.645 30ZM210.238 25.1408C224.253 25.1408 231.26 21.7782 231.26 15.0528C231.26 11.3908 229.527 8.78521 226.059 7.23592C222.843 5.79225 217.642 5.07042 210.457 5.07042C203.272 5.07042 198.061 5.79225 194.823 7.23592C191.356 8.78521 189.622 11.3908 189.622 15.0528C189.622 21.7782 196.494 25.1408 210.238 25.1408Z" fill="#7DE25B"/>
<path d="M279.154 28.9437H237.359V22.0775C238.195 20 240.075 18.2218 242.999 16.743C246.069 15.1585 250.048 14.0493 254.936 13.4155C257.275 13.0986 261.076 12.7817 266.34 12.4648C270.12 12.2183 272.763 11.8486 274.267 11.3556C275.687 10.8627 276.397 10.088 276.397 9.03169C276.397 7.7993 274.987 6.84859 272.167 6.17958C269.222 5.44014 265.024 5.07042 259.573 5.07042C252.596 5.07042 245.317 6.09155 237.735 8.1338V3.32747C243.939 1.10916 250.957 0 258.789 0C266.225 0 271.551 0.616198 274.768 1.84859C278.256 3.18662 280 5.51056 280 8.82042C280 11.7782 278.914 13.9261 276.742 15.2641C274.716 16.5317 271.405 17.2887 266.81 17.5352L260.074 17.9049C250.737 18.4331 244.294 20.2641 240.743 23.3979V23.662H279.154V28.9437Z" fill="#7DE25B"/>
</svg>
