<svg width="373" height="248" viewBox="0 0 373 248" fill="none" xmlns="http://www.w3.org/2000/svg">
<path d="M228.161 0.412003C228.409 0.412003 228.657 0.412003 228.988 0.412003C229.98 0.659179 230.972 0.823963 232.046 0.988747C233.121 1.15353 234.857 0.988747 235.105 1.4831C235.767 3.04855 236.263 2.05984 237.007 1.73027C238.495 1.07114 240.148 -0.0823496 241.636 1.23592C243.455 2.71898 245.025 4.614 246.513 6.42662C246.927 7.00336 246.844 7.99207 247.009 8.7336C247.34 10.2167 247.423 11.8645 248.249 13.1004C248.994 14.2539 250.564 14.913 251.639 15.9841C252.548 16.8904 253.458 17.8791 254.119 18.9502C254.863 20.4333 254.119 21.3396 252.548 21.5868C251.308 21.8339 250.068 21.9987 248.828 22.2459C248.001 22.4107 247.257 22.5755 248.332 23.7289C249.82 25.4592 250.73 27.6014 250.234 30.0731C250.151 30.4851 250.812 31.0618 250.978 31.5562C251.226 32.1329 251.391 32.7921 251.391 33.3688C251.308 34.1103 251.06 34.7695 250.812 35.511C251.391 35.3462 251.97 35.099 252.631 34.9343C252.879 34.8519 253.21 34.7695 253.375 34.8519C255.111 36.1701 258.087 34.4399 259.327 37.2412C259.41 37.4884 260.236 37.5708 260.65 37.4884C261.724 37.3236 262.882 37.1588 263.874 36.6645C266.354 35.511 267.842 36.0877 268.586 38.5595C268.999 40.0426 269.165 42.02 271.727 41.1137C272.141 40.9489 272.967 41.4432 273.381 41.8552C273.546 42.02 273.133 42.8439 272.967 43.3382C272.885 43.6678 272.471 44.0798 272.554 44.327C273.381 46.222 274.373 48.0346 275.117 49.8472C275.613 51.0831 276.274 52.4838 275.199 53.802C274.125 55.0379 274.538 58.416 276.109 58.9927C277.349 59.4871 277.762 60.2286 278.01 61.4645C278.341 62.9475 279.416 63.0299 280.656 62.206C281.896 61.3821 283.384 60.6406 284.872 60.311C287.93 59.6519 290.41 60.723 291.816 63.7715C292.312 64.8426 292.89 64.8426 294.13 64.513C295.122 64.2658 297.603 65.0897 297.851 65.9137C298.595 68.303 298.925 66.82 300 66.2432C301.984 65.0074 304.133 63.6891 306.283 63.3595C308.763 63.0299 310.995 62.8652 312.979 60.9701C314.054 59.899 316.534 60.2286 316.699 61.2173C316.864 63.0299 318.435 63.4419 319.427 64.4306C320.336 65.2545 320.088 67.1495 320.667 68.4678C321.576 70.5276 323.147 71.9283 325.296 72.7522C326.123 73.0818 326.867 73.9881 327.281 74.812C327.942 76.3775 329.265 76.0479 330.257 75.7183C330.753 75.5535 330.753 74.3176 331.001 73.4937C331.166 72.917 331.414 72.4226 331.579 71.8459C332.571 72.2578 334.059 70.6924 334.721 72.4226C335.63 74.7296 337.531 75.1416 339.681 74.9768C340.921 74.8944 341.996 74.5648 342.492 76.2951C342.657 76.7894 343.732 77.119 344.393 77.4485C344.972 77.7781 345.716 77.8605 346.129 78.2725C348.113 80.0027 348.361 80.0851 350.428 78.1901C351.42 77.2838 352.164 77.4485 352.742 78.6844C352.908 79.0964 352.99 79.5907 353.156 80.0027C353.817 81.9801 354.478 82.0625 356.545 81.8153C357.785 81.6505 360.017 82.2273 360.348 83.1336C361.092 85.0286 362.249 86.0997 363.985 87.0884C365.391 87.9123 366.217 87.7475 367.375 87.006C367.705 86.7588 367.953 86.2645 368.201 86.2645C369.359 86.2645 370.599 86.5117 371.756 86.5941C371.425 87.3356 371.095 88.0771 370.929 88.901C370.764 89.725 370.433 90.7137 370.681 91.3728C371.095 92.4439 372.004 93.3502 372.665 94.3389C372.665 95.41 372.665 96.4811 372.665 97.4698C371.26 98.7881 369.276 99.7768 368.697 101.425C367.788 103.732 366.135 103.979 364.316 104.391C364.151 104.473 363.82 104.391 363.737 104.556C363.489 105.05 362.993 105.791 363.159 106.121C364.233 108.181 366.713 109.087 369.028 108.346C370.268 107.934 370.681 108.593 370.516 109.664C370.351 111.229 368.615 112.3 367.127 111.806C366.3 111.559 365.391 110.405 364.481 111.724C363.903 112.548 363.407 113.371 362.993 114.195C362.828 114.607 362.993 115.184 362.745 115.514C361.919 116.997 362.167 117.573 363.985 117.738C364.729 117.821 365.721 118.645 366.052 119.468C366.631 120.787 366.879 122.27 367.209 123.753C367.292 124.33 367.292 125.071 366.961 125.648C366.383 126.637 366.713 126.719 367.623 126.801C368.119 126.801 369.111 127.213 369.111 127.461C369.111 128.12 368.78 128.779 368.449 129.356C368.119 129.85 367.375 130.179 367.127 130.756C365.969 133.475 365.06 136.359 364.895 139.325C364.812 141.55 363.903 142.044 361.753 141.797C358.695 141.467 355.636 141.385 352.577 141.138C351.585 141.055 350.51 141.138 349.601 140.808C346.377 139.737 344.972 140.231 344.062 143.115C343.649 144.516 343.484 145.669 341.582 146.411C340.094 146.987 338.771 147.729 337.118 147.894C334.803 148.141 333.481 150.118 333.563 152.425C333.646 153.496 333.15 154.65 332.985 155.721C332.902 156.215 333.067 156.957 333.315 157.122C334.886 157.946 334.39 158.687 333.481 159.758C332.985 160.335 332.241 161.241 332.406 161.818C332.902 164.207 331.083 165.031 330.339 165.938C329.347 165.361 328.686 164.702 328.025 164.702C325.792 164.619 323.395 165.278 321.246 164.784C318.518 164.125 317.36 165.526 316.203 167.338C315.624 168.245 314.963 169.233 314.384 170.14C313.888 170.799 313.558 171.623 312.814 170.222C312.318 169.233 311.491 169.398 310.499 169.81C306.779 171.293 303.72 173.353 302.893 177.637C302.893 177.72 302.893 177.802 302.811 177.802C302.48 178.049 302.149 178.296 301.819 178.461C301.819 178.049 301.819 177.637 301.901 177.308C302.645 175.66 302.067 174.259 300.413 174.342C297.685 174.506 295.04 175.001 293.138 177.225C292.394 178.049 291.898 181.015 290.245 177.802C290.162 177.72 289.997 177.637 289.914 177.637C287.104 176.813 282.392 178.461 280.49 180.768C279.746 181.674 278.919 182.498 278.01 183.24C276.77 184.311 275.53 185.217 274.207 186.206C273.463 186.783 272.637 187.524 271.81 187.524C271.231 187.524 270.735 186.288 270.239 185.629C268.751 188.266 267.015 190.82 263.461 191.15C262.964 191.232 262.22 191.973 262.138 192.468C261.972 194.445 261.146 193.786 260.071 193.209C259.575 192.962 258.666 192.633 258.418 192.88C257.012 194.198 255.359 193.621 254.036 193.127C252.631 192.633 251.97 192.303 251.804 194.116C251.804 194.363 249.82 191.644 249.076 190.078C248.911 190.161 242.049 191.479 240.479 190.82C240.231 190.738 239.487 191.15 239.321 191.562C239.156 191.809 239.404 192.385 239.569 192.797C239.652 192.962 240.231 193.045 240.396 192.962C242.132 191.314 242.049 192.797 242.297 193.951C242.463 194.94 242.711 195.599 243.868 194.61C244.199 194.363 245.191 194.692 245.769 194.94C246.513 195.187 247.175 195.846 247.919 196.011C250.316 196.587 252.879 196.67 254.119 199.389C254.202 199.636 255.772 202.108 256.02 199.142C256.02 198.977 256.599 198.812 256.847 198.894C257.343 199.142 258.17 199.471 258.17 199.801C258.17 200.542 257.756 201.284 257.426 201.943C257.095 202.52 258.252 202.19 259.327 201.613C259.575 201.449 259.988 201.531 260.319 201.449C260.236 201.778 260.319 202.355 260.154 202.52C259.327 202.932 259.162 203.096 260.154 203.508C260.567 203.673 260.65 204.497 260.815 204.991C260.898 205.321 260.98 205.733 260.98 206.063C262.386 205.733 262.799 207.381 263.709 207.628C265.858 208.205 266.437 210.017 267.098 211.583C267.511 212.654 267.677 214.302 267.098 215.208C266.189 216.691 266.933 217.433 267.925 217.845C269.909 218.833 273.463 219.41 273.05 218.833C273.463 218.833 273.711 218.833 273.877 218.833C278.093 219.74 279.829 218.916 281.896 214.961C282.061 214.631 282.474 214.384 282.805 214.055C283.053 214.466 283.218 214.878 283.549 215.208C284.21 215.95 284.954 216.609 285.698 217.185C285.864 217.268 286.608 216.773 286.856 216.444C288.261 214.384 290.741 213.56 293.138 214.302C294.792 214.796 296.528 214.878 298.099 215.538C298.76 215.785 299.256 216.691 299.587 217.515C299.669 217.845 298.925 218.833 298.677 218.833C297.437 218.586 297.024 219.163 296.28 220.152C294.957 221.882 294.626 223.53 295.536 225.342C296.115 226.578 295.701 227.237 294.709 227.402C292.56 227.896 290.658 229.627 288.178 228.144C287.848 227.979 287.104 228.308 286.69 228.638C285.037 229.791 283.218 229.379 281.813 228.061C280.738 226.99 279.167 226.084 277.679 225.672C275.861 225.177 274.621 226.661 274.455 228.391C274.373 229.215 273.381 230.615 272.802 230.615C270.239 230.698 268.999 232.098 268.173 234.323C267.677 235.724 266.933 236.136 265.693 234.9C265.362 234.57 264.701 234.323 264.287 234.405C262.138 234.982 260.071 235.806 257.922 236.218C255.111 236.795 253.706 238.607 252.714 241.079C252.466 241.821 252.135 242.645 251.556 243.139C249.324 244.869 247.009 246.435 244.695 248.082C242.876 248.082 240.975 248.082 239.156 248.082C237.172 246.929 235.932 244.787 233.617 244.128C233.121 243.963 232.708 243.386 232.294 242.974C231.468 242.15 231.302 241.573 232.625 240.997C234.775 240.173 235.023 239.184 234.94 236.96C234.857 235.724 235.519 234.405 235.849 233.169C236.097 232.181 236.511 231.192 236.511 230.286C236.511 229.215 236.097 228.144 235.767 227.072C235.188 224.93 232.542 223.53 230.476 224.106C229.98 224.271 229.318 224.106 228.905 223.777C227.004 222.294 225.268 220.646 223.366 219.163C221.548 217.762 219.729 217.845 217.745 219.08C217.414 219.328 216.835 219.575 216.505 219.41C215.513 218.998 214.273 218.586 213.694 217.762C212.785 216.526 213.529 215.126 214.603 214.302C215.761 213.395 217.166 212.736 218.406 211.912C220.556 210.429 222.705 208.864 224.772 207.298C225.681 206.639 226.425 205.815 227.252 205.074C227.417 204.909 227.748 204.662 227.83 204.744C229.98 206.474 230.972 204.415 232.294 203.426C232.873 203.014 233.7 202.849 234.444 202.52C235.932 201.861 237.503 201.201 238.991 200.542C238.908 200.377 238.825 200.213 238.743 200.048C236.924 199.965 236.924 199.965 236.841 198.153C236.841 197.164 237.007 196.175 237.007 195.269C237.007 194.857 236.593 194.528 236.428 194.116C236.18 194.445 236.015 194.775 235.767 195.022C235.353 195.681 234.94 196.67 234.361 196.835C233.783 196.999 232.625 196.587 232.212 196.093C231.468 195.269 229.897 195.763 229.566 194.28C229.484 194.033 228.244 193.868 227.582 193.951C225.185 194.116 222.788 194.363 220.39 194.61C219.729 194.692 219.068 194.857 218.489 194.857C216.339 195.022 214.273 196.835 212.041 195.599C209.891 194.445 207.742 193.209 205.758 191.726C204.27 190.573 202.782 189.666 200.798 189.584C200.136 189.584 199.475 188.678 198.814 188.183C199.475 187.854 200.219 187.442 200.963 187.195C201.377 187.03 201.955 187.277 202.286 187.112C202.947 186.7 203.443 186.124 204.022 185.629C203.443 185.3 202.947 184.888 202.369 184.641C201.79 184.393 201.128 184.229 200.55 183.899C199.144 183.24 197.739 182.828 197.16 185.053C195.755 183.405 194.846 181.015 195.424 180.933C198.483 180.356 201.211 182.004 204.105 182.251C205.841 182.416 207.577 182.498 209.23 182.663C209.395 180.439 209.395 180.439 206.915 180.933C206.667 181.015 206.254 180.933 206.089 180.686C204.683 179.203 203.278 177.72 202.038 176.319C201.707 179.12 200.715 179.944 198.07 178.956C196.912 178.544 195.92 177.802 195.011 179.367C194.928 179.532 194.267 179.45 193.936 179.285C192.862 178.708 191.87 178.956 190.795 179.45C190.051 179.779 189.142 179.615 188.315 179.615C186.992 179.615 185.256 179.038 184.347 179.697C182.197 181.015 177.568 180.109 178.891 184.97C178.973 185.135 178.808 185.382 178.725 185.547C178.147 186.536 177.485 187.36 177.072 188.431C174.923 193.704 170.789 197.576 167.73 202.19C167.4 202.684 166.821 203.344 166.242 203.426C165.168 203.591 164.093 205.321 162.853 203.756C162.605 204.003 162.274 204.332 162.026 204.579C161.365 205.239 161.944 207.463 159.877 206.227C159.712 206.145 159.216 206.392 159.05 206.557C158.968 206.722 159.05 207.216 159.216 207.381C160.952 209.111 158.72 209.193 158.141 209.77C157.149 210.759 156.901 209.935 156.57 208.946C156.24 207.875 155.661 206.886 155.248 206.063C155.082 206.639 154.834 207.298 154.586 207.958C154.007 209.853 154.751 211.583 156.322 211.83C155.909 212.489 155.578 213.148 155.413 213.478C156.322 214.302 157.562 214.878 157.645 215.538C157.81 217.433 157.562 219.492 157.232 221.387C157.149 221.882 156.322 222.211 155.826 222.623C155.661 222.129 155.496 221.635 155.33 221.14C154.917 219.987 154.834 218.421 154.007 217.68C152.437 216.279 150.37 215.208 148.221 216.197C145.989 217.185 143.757 218.339 141.773 219.74C140.863 220.399 140.367 220.893 139.292 220.152C139.044 219.987 137.97 220.316 137.887 220.646C137.391 222.541 136.73 222.87 134.828 222.211C133.258 221.635 131.77 220.811 130.199 220.564C126.975 219.904 127.223 216.526 125.487 214.796C125.404 214.714 125.57 214.302 125.652 214.055C126.231 212.407 127.471 212.489 128.876 212.654C129.703 212.819 131.274 212.901 131.356 212.571C131.77 211.665 131.935 210.347 131.604 209.441C131.108 208.205 131.356 207.463 132.183 206.722C133.01 205.98 134.002 205.486 134.746 204.662C135.49 203.838 136.647 202.684 136.482 201.943C135.986 199.389 137.143 198.647 139.292 198.235C139.871 198.153 141.029 197.329 140.946 197.247C140.202 195.434 141.277 194.116 142.103 192.715C142.186 192.55 142.186 192.056 142.103 191.973C140.202 190.655 140.946 188.595 140.45 186.865C139.789 184.805 140.698 183.569 142.434 182.746C143.178 182.334 144.005 182.004 144.749 181.592C146.237 180.851 146.815 181.51 146.981 182.91C147.063 183.734 147.146 184.558 147.229 185.547C148.303 184.805 147.559 182.581 149.295 183.652C150.122 184.146 150.287 183.981 150.866 183.487C151.279 183.158 152.189 182.993 152.437 183.24C153.181 183.899 153.677 184.888 154.255 185.712C154.834 186.536 155.082 186.536 155.496 185.547C155.826 184.723 156.57 184.146 157.149 183.487C157.728 184.064 158.389 184.641 158.968 185.3C159.298 185.712 159.464 186.371 159.546 186.7C159.96 186.618 160.704 186.7 161.696 186.865C162.688 187.03 166.408 188.76 167.565 188.925C170.045 189.337 172.443 189.996 170.872 188.101C169.632 186.948 162.026 184.064 161.034 182.993C160.621 182.581 160.125 181.427 160.373 181.262C162.109 179.45 161.2 177.225 161.448 175.248C161.53 174.671 161.034 173.765 160.538 173.435C159.05 172.364 157.562 171.458 155.909 170.552C153.181 169.151 153.181 169.151 154.173 166.267C154.421 165.608 154.834 164.866 153.429 165.361C153.181 165.443 152.602 165.196 152.437 164.866C152.189 164.537 152.023 163.713 152.189 163.631C154.255 162.56 152.437 160.17 153.925 158.852C154.09 158.769 153.511 157.863 153.263 157.369C153.263 157.286 152.685 157.451 152.519 157.698C150.866 159.346 150.453 159.264 149.378 157.286C148.799 156.133 147.807 154.979 146.733 154.403C145.493 153.661 144.17 151.601 144.583 150.201C145.162 148.47 145.741 146.823 146.071 145.092C146.237 144.268 145.493 143.033 145.823 142.621C147.146 140.973 145.41 139.902 145.245 138.501C145.162 137.595 144.335 137.1 143.591 138.254C142.765 139.572 141.69 139.325 140.781 138.419C140.037 137.677 138.962 136.853 138.796 136.029C138.466 133.146 136.316 132.898 134.167 132.404C132.927 132.157 132.018 132.486 131.439 133.722C131.274 134.134 130.943 134.381 130.695 134.793C130.364 134.381 130.034 134.052 129.786 133.64C129.62 133.31 129.62 132.981 129.62 132.898C128.794 132.898 128.298 132.981 127.719 132.981C127.802 132.486 127.967 131.992 128.05 131.498C128.132 131.086 128.215 130.674 128.298 130.262C127.884 130.262 127.388 130.344 126.975 130.344C126.231 130.344 125.487 130.344 124.743 130.344C123.255 130.262 122.345 129.767 122.593 128.037C122.593 127.955 122.345 127.708 122.18 127.708C120.196 127.461 118.873 126.307 117.799 124.742C116.641 123.094 114.74 124 113.252 123.423C112.425 123.176 111.351 123.176 110.607 123.506C109.036 124.247 106.886 123.835 105.812 125.73C105.729 125.813 105.398 125.895 105.233 125.813C103.497 125.401 101.844 125.483 100.108 126.142C99.777 126.225 99.281 126.06 98.9503 125.895C97.6276 125.236 96.8009 125.154 96.8836 127.049C96.8836 128.12 96.1396 128.532 95.3129 128.037C94.0729 127.296 93.9075 128.037 93.2462 128.861C92.5848 129.685 91.5101 130.509 90.5181 130.756C88.5341 131.168 86.9634 131.662 86.054 133.805C85.1447 135.947 84.2353 138.501 80.9286 137.842C80.7632 137.842 80.5152 137.924 80.3499 138.007C76.9605 138.501 73.7364 139.49 70.2644 139.49C67.2056 139.49 63.9815 140.066 62.5762 143.774C61.9975 145.422 57.7814 146.823 57.1201 145.916C55.88 144.021 54.3093 142.703 52.408 141.632C52.2426 141.55 52.2426 141.302 52.16 141.138C51.1679 138.831 49.0186 138.254 46.6212 139.325C44.4718 140.231 42.1571 140.973 39.925 139.243C39.3464 138.831 38.2717 138.995 37.445 138.995C36.7836 138.995 35.6263 139.407 35.4609 139.16C33.8902 137.018 31.3275 137.348 29.6741 137.595C26.8634 138.007 25.2101 137.018 23.6394 135.123C22.482 133.805 21.49 134.134 20.6633 135.7C20.1673 136.524 19.0926 136.936 18.2659 137.512C17.9352 137.76 17.6046 137.842 17.1912 138.007C16.6125 138.171 16.0339 138.336 15.5378 138.419C15.3725 137.842 15.0418 137.265 15.1245 136.771C15.4552 134.793 14.2151 133.558 12.3138 134.217C10.8257 134.711 10.0817 134.299 9.42038 132.816C8.92437 131.745 7.93235 130.097 7.10566 130.015C5.12162 129.85 4.46027 128.614 3.71626 127.213C3.05491 125.977 2.39356 124.494 0.492188 124.577C0.492188 122.599 0.492188 120.622 0.492188 118.645C2.14556 117.244 4.1296 116.173 4.46027 113.619C4.62561 112.218 5.28696 110.817 5.86564 109.499C6.77499 107.604 7.76701 105.709 8.75903 103.896C9.00704 103.567 9.75105 103.237 10.1644 103.32C11.3218 103.567 12.3964 104.061 13.5538 104.391C13.9671 104.556 14.4632 104.556 14.9592 104.638C14.7112 104.061 14.6285 103.484 14.2978 102.99C13.9671 102.496 13.4711 102.001 12.9751 101.837C11.5698 101.342 11.7351 100.518 12.2311 99.5296C13.1405 97.4698 12.4791 95.4924 11.9004 93.515C11.2391 91.4552 10.0817 89.2306 12.3138 87.1708C13.4711 86.0997 14.3805 84.699 15.3725 83.4632C18.0179 80.0851 20.498 76.5422 23.3087 73.2466C25.7061 70.5276 28.6821 68.3854 30.9968 65.5841C32.8155 63.4419 34.5516 62.0412 37.445 62.4532C37.8583 62.5356 38.5197 62.0412 38.8503 61.6293C39.5117 60.8054 40.0077 59.899 40.5037 58.9927C40.6691 58.6632 40.9171 58.2512 40.7517 57.9216C40.3384 56.4386 40.0077 54.8731 39.2637 53.5549C37.1143 50.0944 37.0316 50.1768 40.9997 49.0233C38.437 47.5402 37.0316 45.3157 36.3703 42.5143C36.1223 41.5256 35.6263 40.4545 34.9649 39.6306C33.3116 37.406 29.9222 36.0054 31.8235 32.2977C31.9889 32.0505 31.5755 31.4738 31.4929 31.0618C31.1622 29.3316 30.8315 27.519 30.6662 25.7887C30.6662 25.4592 31.2448 24.7176 31.5755 24.7176C33.3942 24.6353 35.6263 24.1409 36.8663 24.9648C38.933 26.4479 39.7597 25.3768 40.9171 24.2233C41.4131 23.7289 41.9091 23.317 42.4878 22.9874C43.7278 22.1635 44.6371 21.2572 45.0505 19.6917C45.3812 18.6206 46.3732 17.3848 47.3652 17.0552C48.9359 16.5608 50.7546 16.4784 52.4906 16.5608C55.632 16.6432 58.6081 16.3961 61.5842 15.1602C62.7415 14.6658 64.1469 14.8306 65.3869 14.913C68.4456 15.0778 71.5044 15.4074 74.5631 15.5721C77.1258 15.7369 79.7712 15.9017 82.3339 16.1489C82.5819 16.1489 82.83 16.5608 83.078 16.7256C83.822 17.0552 84.566 17.4672 85.31 17.6319C86.9634 17.9615 88.8648 16.9728 90.1048 18.9502C90.1874 19.115 90.8488 18.9502 91.2621 19.0326C92.8328 19.2798 94.4035 19.3622 95.8089 19.8565C97.6276 20.5157 99.281 21.1748 101.348 20.598C102.422 20.2685 104.406 20.5157 104.985 21.2572C105.729 22.2459 106.473 23.3994 107.052 24.4705C108.044 26.2831 109.036 25.7887 110.028 25.2944C112.177 24.2233 113.831 25.7887 115.649 26.1183C115.815 26.1183 115.815 27.107 115.815 27.6014C115.815 28.1781 115.815 28.7549 115.897 29.3316C116.311 28.8372 116.807 28.3429 117.137 27.7662C117.303 27.4366 117.137 26.8598 117.303 26.4479C117.633 25.212 118.625 24.8824 119.7 25.7064C122.097 27.519 122.924 27.4366 124.743 25.0472C125.735 23.7289 126.314 23.9761 127.471 25.2944C128.132 26.0359 128.298 27.7662 130.199 27.0246C131.356 26.6127 132.927 26.7774 134.167 27.0246C134.58 27.107 134.746 28.4253 134.994 29.1668C135.159 29.5788 135.49 29.9907 135.82 30.4027C136.234 30.0731 136.812 29.826 136.978 29.3316C137.722 27.7662 138.879 26.9422 140.533 26.5303C141.194 26.3655 141.855 25.9535 142.434 25.4592C143.509 24.3881 145.327 24.3881 145.989 25.7064C146.65 26.9422 146.898 28.3429 147.477 29.6612C147.89 30.5675 148.221 31.9681 148.965 32.2153C149.791 32.5449 151.114 32.0505 152.023 31.5562C153.098 30.9794 153.842 29.826 154.999 29.3316C155.578 29.0844 156.57 29.6612 157.314 29.826C158.141 29.9907 159.05 30.4851 159.877 30.3203C161.861 30.0731 163.928 29.002 165.746 29.3316C167.317 29.6612 169.136 31.1442 169.962 32.6273C170.624 33.8632 170.541 35.2638 172.36 35.3462C172.939 35.3462 173.683 35.6758 174.013 35.3462C174.923 34.6047 175.832 33.8632 175.088 32.3801C174.261 30.7323 173.683 29.002 173.187 27.1894C173.021 26.6951 173.187 26.0359 173.435 25.5416C174.013 24.2233 174.592 22.9874 175.253 21.7515C176.163 20.1037 176.989 18.3735 178.064 16.808C179.056 15.4074 180.709 14.4186 181.288 12.8532C181.867 11.2878 182.693 10.9582 184.181 10.7934C186.414 10.5462 188.894 12.5236 190.878 9.96948C190.96 9.80469 191.539 9.88709 191.87 9.88709C194.68 9.96948 197.491 9.96948 200.384 10.0519C200.88 10.0519 201.707 10.2167 201.79 10.5462C202.617 12.8532 204.601 11.6997 205.923 11.8645C207.742 12.1117 210.139 10.2167 210.387 8.65121C210.635 7.25054 210.718 5.84988 211.049 4.5316C211.214 4.03725 212.041 3.29572 212.454 3.29572C213.777 3.37812 215.099 3.62529 216.257 4.11964C217.91 4.77878 219.481 5.43792 221.465 5.35552C224.276 3.87247 226.26 2.30702 228.161 0.412003Z" stroke="#C9D3DA" stroke-miterlimit="10"/>
</svg>
