<svg width="310" height="42" viewBox="0 0 310 42" fill="none" xmlns="http://www.w3.org/2000/svg">
<g filter="url(#filter0_d_124_1173)">
<path fill-rule="evenodd" clip-rule="evenodd" d="M4 5H11.0099C13.6027 5 14.4507 6.21277 15.2743 7.46207L23.5207 19.9703C23.6165 20.1267 23.7456 20.0641 23.8238 19.9703L31.309 8.25844C32.534 6.34163 33.9304 5.03356 37.1495 5.03356H56.0396C58.6833 5.03356 64 7.83379 64 14.1485C64 18.9105 60.3982 22.8723 56.9901 22.8723C56.8594 22.8488 56.8189 23.0079 57.0584 23.3625L61.4395 29.8494H54.5484C51.963 29.8494 50.5217 28.3935 49.5741 26.9381L48.6733 25.5544C48.0066 24.3998 46.1504 23.2112 44.6146 23.2112H36.6555L39.6258 18.7822C40.9748 16.7706 42.5285 16.2694 45.703 16.2694H53.3191C56.7094 16.2694 56.4055 11.9772 53.3874 11.9772H41.8056C40.3235 11.9772 38.0935 12.7908 36.3168 15.5743L29.1881 26.7426C26.7304 30.661 21.014 31.3092 18.1209 26.7426L4 5Z" fill="#9CA8AC"/>
<g clip-path="url(#clip0_124_1173)">
<path d="M205.779 25.5622C204.405 25.5622 203.287 24.4505 203.287 23.0848C203.287 21.7191 204.405 20.6082 205.779 20.6082C207.154 20.6082 208.272 21.7191 208.272 23.0848C208.272 24.4505 207.154 25.5622 205.779 25.5622ZM178.226 25.5622C176.852 25.5622 175.734 24.4505 175.734 23.0848C175.734 21.7191 176.852 20.6082 178.226 20.6082C179.601 20.6082 180.719 21.7191 180.719 23.0848C180.719 24.4505 179.601 25.5622 178.226 25.5622ZM206.673 10.643L211.655 2.07007C211.941 1.57731 211.771 0.947912 211.276 0.663353C210.781 0.379598 210.147 0.548403 209.86 1.04035L204.816 9.7218C200.958 7.97265 196.626 6.9984 192.003 6.9984C187.38 6.9984 183.047 7.97265 179.19 9.7218L174.145 1.04035C173.859 0.548403 173.225 0.379598 172.73 0.663353C172.234 0.947912 172.064 1.57731 172.35 2.07007L177.332 10.643C168.777 15.2659 162.926 23.871 162.07 34.0371H221.935C221.079 23.871 215.227 15.2659 206.673 10.643Z" fill="#9CA8AC"/>
</g>
<path d="M246.279 31.5178H251.241V10.233H246.279V31.5178ZM248.75 7.4417C250.304 7.4417 251.52 6.23687 251.52 4.7309C251.52 3.20478 250.304 2 248.75 2C247.216 2 246 3.20483 246 4.7309C246 6.23692 247.216 7.4417 248.75 7.4417ZM267.76 2.06009C259.371 2.06009 254.111 7.82313 254.111 17.0401C254.111 26.257 259.371 32 267.76 32C276.129 32 281.39 26.257 281.39 17.0401C281.39 7.82313 276.13 2.06009 267.76 2.06009ZM267.76 6.47775C272.881 6.47775 276.149 10.5741 276.149 17.04C276.149 23.4857 272.881 27.5821 267.76 27.5821C262.619 27.5821 259.371 23.4858 259.371 17.04C259.371 10.5742 262.619 6.47775 267.76 6.47775ZM283.483 23.3654C283.702 28.7069 288.046 31.9999 294.662 31.9999C301.616 31.9999 306 28.5461 306 23.0441C306 18.7269 303.529 16.2972 297.691 14.9519L294.383 14.1888C290.856 13.3455 289.401 12.221 289.401 10.2933C289.401 7.88368 291.593 6.27727 294.841 6.27727C298.129 6.27727 300.381 7.90378 300.62 10.6146H305.522C305.402 5.51421 301.218 2.06025 294.881 2.06025C288.624 2.06025 284.181 5.5341 284.181 10.6747C284.181 14.8112 286.691 17.3816 291.991 18.6065L295.718 19.4901C299.344 20.3535 300.819 21.5583 300.819 23.6467C300.819 26.0563 298.408 27.7832 294.941 27.7832C291.434 27.7832 288.784 26.0362 288.465 23.3655H283.483L283.483 23.3654Z" fill="#9CA8AC"/>
<path d="M128.751 21.4063C129.528 22.2801 130.267 23.0963 131.006 23.9221C133.221 26.3899 135.437 28.848 137.643 31.3158C137.789 31.4791 137.857 31.6999 138.003 31.9496C137.769 31.9688 137.662 31.9976 137.556 31.9976C135.544 31.9976 133.542 32.0072 131.53 31.988C131.317 31.988 131.025 31.8536 130.889 31.6903C127.186 26.918 123.493 22.136 119.81 17.3541C119.713 17.2293 119.635 17.1044 119.489 16.8932C119.742 16.8932 119.907 16.8932 120.073 16.8932C121.9 16.8932 123.736 16.9124 125.563 16.8836C127.235 16.8548 128.751 16.4035 129.762 14.9823C130.86 13.4267 130.986 11.7367 130.228 10.0179C129.451 8.2703 127.964 7.4061 126.117 7.34848C123.066 7.25246 120.005 7.31967 116.953 7.31007C116.924 7.31007 116.895 7.32928 116.768 7.37729C116.768 9.23053 116.768 11.1126 116.768 13.0042C114.737 9.43219 113.503 5.52404 111.336 2.02881C111.472 2.0192 111.618 2 111.773 2C116.419 2.0096 121.064 1.9904 125.719 2.04801C128.148 2.07682 130.471 2.63375 132.463 4.0933C135.32 6.1866 136.516 9.0673 136.399 12.5241C136.331 14.4254 135.855 16.221 134.728 17.8054C133.425 19.6394 131.589 20.6669 129.441 21.2238C129.217 21.2814 129.023 21.3294 128.751 21.4063Z" fill="#9CA8AC"/>
<path d="M88 31.9984C92.0296 22.8063 96.0116 13.6921 100.041 4.5C102.408 10.2159 101.609 15.6104 98.7867 20.927C99.1384 20.927 99.3189 20.927 99.509 20.927C101.457 20.927 103.406 20.9173 105.354 20.927C106.684 20.9367 107.73 21.8326 107.958 23.1082C108.176 24.3448 107.53 25.601 106.371 26.0586C106.029 26.1949 105.629 26.2339 105.259 26.2534C103.9 26.3215 102.522 26.2242 101.191 26.4384C98.0359 26.935 95.7645 28.7656 94.2344 31.6187C94.1584 31.7647 93.9969 31.979 93.8733 31.979C91.944 32.0082 90.0053 31.9984 88 31.9984Z" fill="#9CA8AC"/>
<path d="M121.331 31.989C119.957 31.941 118.659 32.1425 117.381 31.7587C115.635 31.2309 114.385 30.1179 113.651 28.4387C109.863 19.7644 106.076 11.0901 102.298 2.41579C102.25 2.30065 102.212 2.1855 102.164 2.04157C104.129 1.95521 106.057 1.87845 107.707 3.18343C108.528 3.82632 109.138 4.62275 109.558 5.5727C110.741 8.24023 111.933 10.9078 113.126 13.5753C115.759 19.4861 118.402 25.4065 121.035 31.3173C121.13 31.5188 121.216 31.7203 121.331 31.989Z" fill="#9CA8AC"/>
</g>
<defs>
<filter id="filter0_d_124_1173" x="0" y="0" width="310" height="42" filterUnits="userSpaceOnUse" color-interpolation-filters="sRGB">
<feFlood flood-opacity="0" result="BackgroundImageFix"/>
<feColorMatrix in="SourceAlpha" type="matrix" values="0 0 0 0 0 0 0 0 0 0 0 0 0 0 0 0 0 0 127 0" result="hardAlpha"/>
<feOffset dy="4"/>
<feGaussianBlur stdDeviation="2"/>
<feComposite in2="hardAlpha" operator="out"/>
<feColorMatrix type="matrix" values="0 0 0 0 0 0 0 0 0 0 0 0 0 0 0 0 0 0 0.25 0"/>
<feBlend mode="normal" in2="BackgroundImageFix" result="effect1_dropShadow_124_1173"/>
<feBlend mode="normal" in="SourceGraphic" in2="effect1_dropShadow_124_1173" result="shape"/>
</filter>
<clipPath id="clip0_124_1173">
<rect width="60" height="34" fill="white" transform="translate(162)"/>
</clipPath>
</defs>
</svg>
