<svg width="60" height="30" viewBox="0 0 60 30" fill="none" xmlns="http://www.w3.org/2000/svg">
<path d="M0.278931 29.5178H5.24061V8.233H0.278931V29.5178ZM2.74982 5.4417C4.30409 5.4417 5.51959 4.23687 5.51959 2.7309C5.51959 1.20478 4.30409 0 2.74982 0C1.2155 0 0 1.20483 0 2.7309C0 4.23692 1.2155 5.4417 2.74982 5.4417ZM21.7603 0.0600926C13.3714 0.0600926 8.11062 5.82313 8.11062 15.0401C8.11062 24.257 13.3709 30 21.7603 30C30.1292 30 35.39 24.257 35.39 15.0401C35.39 5.82313 30.1297 0.0600926 21.7603 0.0600926ZM21.7603 4.47775C26.8813 4.47775 30.1491 8.57412 30.1491 15.04C30.1491 21.4857 26.8812 25.5821 21.7603 25.5821C16.6193 25.5821 13.3714 21.4858 13.3714 15.04C13.3714 8.57423 16.6194 4.47775 21.7603 4.47775ZM37.483 21.3654C37.7022 26.7069 42.0462 29.9999 48.6617 29.9999C55.6161 29.9999 60 26.5461 60 21.0441C60 16.7269 57.5291 14.2972 51.6907 12.9519L48.383 12.1888C44.856 11.3455 43.4014 10.221 43.4014 8.2933C43.4014 5.88368 45.5933 4.27727 48.8412 4.27727C52.1291 4.27727 54.3806 5.90378 54.6198 8.61458H59.5217C59.4021 3.51421 55.2176 0.0602469 48.8812 0.0602469C42.6242 0.0602469 38.1806 3.5341 38.1806 8.67472C38.1806 12.8112 40.6913 15.3816 45.9914 16.6065L49.7177 17.4901C53.3443 18.3535 54.8188 19.5583 54.8188 21.6467C54.8188 24.0563 52.4077 25.7832 48.9408 25.7832C45.4337 25.7832 42.7837 24.0362 42.4649 21.3655H37.4833L37.483 21.3654Z" fill="#9CA8AC"/>
</svg>
