<svg width="60" height="34" viewBox="0 0 60 34" fill="none" xmlns="http://www.w3.org/2000/svg">
<g clip-path="url(#clip0_124_1176)">
<path d="M43.7793 25.5622C42.4048 25.5622 41.2866 24.4505 41.2866 23.0848C41.2866 21.7191 42.4048 20.6082 43.7793 20.6082C45.1539 20.6082 46.272 21.7191 46.272 23.0848C46.272 24.4505 45.1539 25.5622 43.7793 25.5622ZM16.2263 25.5622C14.8517 25.5622 13.7336 24.4505 13.7336 23.0848C13.7336 21.7191 14.8517 20.6082 16.2263 20.6082C17.6008 20.6082 18.719 21.7191 18.719 23.0848C18.719 24.4505 17.6008 25.5622 16.2263 25.5622ZM44.6734 10.643L49.6555 2.07007C49.9411 1.57731 49.7712 0.947912 49.276 0.663353C48.7809 0.379598 48.1466 0.548403 47.8602 1.04035L42.8158 9.7218C38.9582 7.97265 34.6257 6.9984 30.0028 6.9984C25.3799 6.9984 21.0474 7.97265 17.1898 9.7218L12.1454 1.04035C11.859 0.548403 11.2247 0.379598 10.7296 0.663353C10.2344 0.947912 10.0637 1.57731 10.3501 2.07007L15.3322 10.643C6.77734 15.2659 0.926278 23.871 0.0703125 34.0371H59.9353C59.0785 23.871 53.2275 15.2659 44.6734 10.643Z" fill="#9CA8AC"/>
</g>
<defs>
<clipPath id="clip0_124_1176">
<rect width="60" height="34" fill="white"/>
</clipPath>
</defs>
</svg>
