<svg width="50" height="30" viewBox="0 0 50 30" fill="none" xmlns="http://www.w3.org/2000/svg">
<path d="M40.7509 19.4063C41.5284 20.2801 42.2669 21.0963 43.0055 21.9221C45.2213 24.3899 47.437 26.848 49.643 29.3158C49.7888 29.4791 49.8568 29.6999 50.0026 29.9496C49.7694 29.9688 49.6625 29.9976 49.5556 29.9976C47.5439 29.9976 45.542 30.0072 43.5303 29.988C43.3165 29.988 43.025 29.8536 42.8889 29.6903C39.1863 24.918 35.4934 20.136 31.8102 15.3541C31.713 15.2293 31.6353 15.1044 31.4895 14.8932C31.7422 14.8932 31.9074 14.8932 32.0726 14.8932C33.8996 14.8932 35.7363 14.9124 37.5633 14.8836C39.2349 14.8548 40.7509 14.4035 41.7616 12.9823C42.8597 11.4267 42.9861 9.73674 42.2281 8.01792C41.4506 6.2703 39.9637 5.4061 38.1173 5.34848C35.0658 5.25246 32.0045 5.31967 28.953 5.31007C28.9239 5.31007 28.8947 5.32928 28.7684 5.37729C28.7684 7.23053 28.7684 9.11259 28.7684 11.0042C26.7373 7.43219 25.5031 3.52404 23.3359 0.0288057C23.472 0.0192034 23.6178 0 23.7733 0C28.4185 0.0096023 33.0638 -0.00960231 37.7188 0.0480115C40.1484 0.0768184 42.471 0.633751 44.4632 2.0933C47.3204 4.1866 48.5157 7.0673 48.3991 10.5241C48.3311 12.4254 47.8549 14.221 46.7276 15.8054C45.4253 17.6394 43.5886 18.6669 41.4409 19.2238C41.2174 19.2814 41.023 19.3294 40.7509 19.4063Z" fill="#9CA8AC"/>
<path d="M0 29.9984C4.02958 20.8063 8.01164 11.6921 12.0412 2.5C14.4076 8.21586 13.6093 13.6104 10.7867 18.927C11.1384 18.927 11.3189 18.927 11.509 18.927C13.4573 18.927 15.4055 18.9173 17.3538 18.927C18.6843 18.9367 19.7297 19.8326 19.9578 21.1082C20.1764 22.3448 19.5302 23.601 18.3707 24.0586C18.0286 24.1949 17.6294 24.2339 17.2588 24.2534C15.8997 24.3215 14.5217 24.2242 13.1912 24.4384C10.0359 24.935 7.76454 26.7656 6.23444 29.6187C6.15841 29.7647 5.99685 29.979 5.8733 29.979C3.94405 30.0082 2.00529 29.9984 0 29.9984Z" fill="#9CA8AC"/>
<path d="M33.3307 29.989C31.9569 29.941 30.6594 30.1425 29.381 29.7587C27.6351 29.2309 26.3853 28.1179 25.6507 26.4387C21.8632 17.7644 18.0756 9.09008 14.2976 0.415793C14.2499 0.300647 14.2118 0.185499 14.1641 0.0415677C16.1294 -0.0447913 18.0565 -0.121553 19.707 1.18343C20.5275 1.82632 21.1381 2.62275 21.5579 3.5727C22.7409 6.24023 23.9334 8.90776 25.126 11.5753C27.7591 17.4861 30.4018 23.4065 33.035 29.3173C33.1304 29.5188 33.2162 29.7203 33.3307 29.989Z" fill="#9CA8AC"/>
</svg>
