<svg width="45" height="45" viewBox="0 0 45 45" fill="none" xmlns="http://www.w3.org/2000/svg">
<g clip-path="url(#clip0_124_464)">
<path d="M39.093 24.8743C39.093 24.1959 39.3191 23.5175 39.3191 22.613C39.3191 21.7085 39.3191 21.0301 39.093 20.3517L43.8417 16.5075C44.294 16.0552 44.294 15.603 44.0679 15.1507L39.5453 7.23617C39.3191 7.01004 38.867 6.78391 38.1885 7.01004L32.5352 9.27134C31.4046 8.36682 30.0478 7.68843 28.691 7.01004L27.7865 1.13065C28.0126 0.45226 27.3341 0 26.882 0H17.8368C17.3844 0 16.7061 0.45226 16.7061 0.904521L15.8016 7.01004C14.4448 7.4623 13.3142 8.36682 11.9574 9.27134L6.53025 7.01004C5.85186 6.78391 5.3996 7.01004 4.94725 7.4623L0.424649 15.3769C0.198519 15.603 0.42465 16.2814 0.87691 16.7336L5.62564 20.3517C5.62564 21.0301 5.39951 21.7085 5.39951 22.613C5.39951 23.5175 5.39951 24.1959 5.62564 24.8743L0.87691 28.7185C0.42465 29.1709 0.424649 29.6231 0.65078 30.0754L5.17338 37.99C5.39951 38.2161 5.85169 38.4422 6.53017 38.2161L12.1834 35.9548C13.3141 36.8593 14.6709 37.5377 16.0276 38.2161L16.9322 44.0955C16.9322 44.5477 17.3844 45 18.0628 45H27.108C27.5604 45 28.2387 44.5477 28.2387 44.0955L29.1432 38.2161C30.5 37.5377 31.8568 36.8593 32.9874 35.9548L38.6407 38.2161C39.093 38.4422 39.7713 38.2161 39.9975 37.7637L44.5201 29.8492C44.7463 29.3969 44.7463 28.7185 44.2939 28.4924L39.093 24.8743ZM22.3594 30.5276C18.0629 30.5276 14.4448 26.9095 14.4448 22.613C14.4448 18.3165 18.0629 14.6985 22.3594 14.6985C26.6558 14.6985 30.2739 18.3165 30.2739 22.613C30.2739 26.9095 26.6558 30.5276 22.3594 30.5276Z" fill="url(#paint0_linear_124_464)"/>
</g>
<defs>
<linearGradient id="paint0_linear_124_464" x1="40.0021" y1="6.9724e-06" x2="2.35639" y2="1.80793" gradientUnits="userSpaceOnUse">
<stop stop-color="#27A2E7"/>
<stop offset="1" stop-color="#27C4E7"/>
</linearGradient>
<clipPath id="clip0_124_464">
<rect width="45" height="45" fill="white"/>
</clipPath>
</defs>
</svg>
