<svg width="53" height="53" viewBox="0 0 53 53" fill="none" xmlns="http://www.w3.org/2000/svg">
<g clip-path="url(#clip0_124_472)" filter="url(#filter0_d_124_472)">
<path d="M43.8864 30.682C42.6044 30.682 41.4452 31.1726 40.5467 31.955L33.5404 26.5972C34.2472 25.3875 34.6818 23.9994 34.6818 22.5002C34.6818 21.0599 34.2755 19.7253 33.6193 18.5485L38.4223 15.0256C39.3302 15.8484 40.5222 16.3638 41.841 16.3638C44.6604 16.3638 46.9546 14.0697 46.9546 11.2502C46.9546 8.43075 44.6604 6.13652 41.841 6.13652C39.0215 6.13652 36.7274 8.43065 36.7274 11.2501C36.7274 12.0122 36.9063 12.7293 37.2065 13.3796L32.4235 16.8879C30.9313 15.3137 28.835 14.3184 26.5 14.3184C25.8483 14.3184 25.2222 14.4147 24.6142 14.5594L23.4363 11.4171C25.2592 10.3521 26.5 8.39595 26.5 6.13661C26.5 2.75279 23.7475 0.000244141 20.3637 0.000244141C16.9799 0.000244141 14.2273 2.75279 14.2273 6.13661C14.2273 9.52044 16.9799 12.273 20.3637 12.273C20.7625 12.273 21.1506 12.2283 21.5284 12.1552L22.7056 15.2954C20.5347 16.4443 18.9332 18.5135 18.4696 21.0033L14.1536 20.75C13.7965 18.2768 11.6841 16.3638 9.11361 16.3638C6.29414 16.3638 4 18.658 4 21.4774C4 24.2969 6.29414 26.591 9.11361 26.591C11.476 26.591 13.4502 24.9722 14.0345 22.7914L18.3734 23.046C18.5139 25.1281 19.4079 27.0006 20.8211 28.3684L17.0231 33.4327C16.1808 32.997 15.2394 32.7273 14.2273 32.7273C10.8435 32.7273 8.09094 35.4799 8.09094 38.8637C8.09094 42.2475 10.8435 45 14.2273 45C17.6111 45 20.3637 42.2475 20.3637 38.8637C20.3637 37.2291 19.7116 35.7507 18.6662 34.6498L22.4705 29.5772C23.6651 30.2603 25.0282 30.6819 26.5 30.6819C28.7767 30.6819 30.8352 29.7436 32.3198 28.2378L39.3008 33.5761C38.973 34.2502 38.7728 34.997 38.7728 35.7955C38.7728 38.615 41.0669 40.9091 43.8864 40.9091C46.7059 40.9091 49 38.615 49 35.7955C49 32.976 46.7059 30.682 43.8864 30.682Z" fill="url(#paint0_linear_124_472)"/>
</g>
<defs>
<filter id="filter0_d_124_472" x="0" y="0" width="53" height="53" filterUnits="userSpaceOnUse" color-interpolation-filters="sRGB">
<feFlood flood-opacity="0" result="BackgroundImageFix"/>
<feColorMatrix in="SourceAlpha" type="matrix" values="0 0 0 0 0 0 0 0 0 0 0 0 0 0 0 0 0 0 127 0" result="hardAlpha"/>
<feOffset dy="4"/>
<feGaussianBlur stdDeviation="2"/>
<feComposite in2="hardAlpha" operator="out"/>
<feColorMatrix type="matrix" values="0 0 0 0 0 0 0 0 0 0 0 0 0 0 0 0 0 0 0.25 0"/>
<feBlend mode="normal" in2="BackgroundImageFix" result="effect1_dropShadow_124_472"/>
<feBlend mode="normal" in="SourceGraphic" in2="effect1_dropShadow_124_472" result="shape"/>
</filter>
<linearGradient id="paint0_linear_124_472" x1="44.2632" y1="0.000251113" x2="6.05353" y2="1.86288" gradientUnits="userSpaceOnUse">
<stop stop-color="#27A2E7"/>
<stop offset="1" stop-color="#27C4E7"/>
</linearGradient>
<clipPath id="clip0_124_472">
<rect width="45" height="45" fill="white" transform="translate(4)"/>
</clipPath>
</defs>
</svg>
