<svg width="45" height="45" viewBox="0 0 45 45" fill="none" xmlns="http://www.w3.org/2000/svg">
<g clip-path="url(#clip0_124_489)">
<path d="M19.8091 22.6844L5.43989 14.8753C4.80073 14.5281 4.04597 14.5424 3.42052 14.9142C2.79508 15.2859 2.42188 15.9422 2.42188 16.6698V34.7853C2.42188 35.5183 2.81768 36.1987 3.4549 36.561L17.8243 44.73C18.1411 44.91 18.4875 45 18.834 45C19.187 45 19.54 44.9065 19.861 44.7197C20.4967 44.3498 20.8763 43.6898 20.8763 42.9542V24.4791C20.8763 23.7299 20.4675 23.0422 19.8091 22.6844V22.6844Z" fill="url(#paint0_linear_124_489)"/>
<path d="M39.9665 10.1632C39.9655 9.39836 39.543 8.7046 38.864 8.35267L23.1949 0.229221C22.6016 -0.0784892 21.8945 -0.0762034 21.3034 0.234935L5.86475 8.35838C5.19254 8.71225 4.77441 9.40389 4.77344 10.1636C4.77256 10.9231 5.18902 11.6157 5.86027 11.9711L21.299 20.1453C21.598 20.3034 21.9261 20.3825 22.2545 20.3825C22.5788 20.3825 22.9033 20.3053 23.1992 20.1509L38.8686 11.9769C39.5468 11.6231 39.9675 10.9281 39.9665 10.1632V10.1632Z" fill="url(#paint1_linear_124_489)"/>
<path d="M41.5729 14.9144C40.9479 14.5426 40.1927 14.5279 39.5538 14.8753L25.1842 22.6846C24.526 23.0424 24.1172 23.73 24.1172 24.4791V42.9543C24.1172 43.6899 24.4967 44.3499 25.1325 44.7197C25.4534 44.9066 25.8063 44.9999 26.1595 44.9999C26.5059 44.9999 26.8525 44.91 27.1691 44.73L41.5387 36.561C42.1759 36.1987 42.5716 35.5183 42.5716 34.7854V16.67C42.5716 15.9424 42.1984 15.2861 41.5729 14.9144V14.9144Z" fill="url(#paint2_linear_124_489)"/>
</g>
<defs>
<linearGradient id="paint0_linear_124_489" x1="18.9337" y1="14.6248" x2="3.24055" y2="15.0895" gradientUnits="userSpaceOnUse">
<stop stop-color="#27A2E7"/>
<stop offset="1" stop-color="#27C4E7"/>
</linearGradient>
<linearGradient id="paint1_linear_124_489" x1="36.2619" y1="3.15812e-06" x2="6.51913" y2="2.50342" gradientUnits="userSpaceOnUse">
<stop stop-color="#27A2E7"/>
<stop offset="1" stop-color="#27C4E7"/>
</linearGradient>
<linearGradient id="paint2_linear_124_489" x1="40.629" y1="14.6248" x2="24.9359" y2="15.0895" gradientUnits="userSpaceOnUse">
<stop stop-color="#27A2E7"/>
<stop offset="1" stop-color="#27C4E7"/>
</linearGradient>
<clipPath id="clip0_124_489">
<rect width="45" height="45" fill="white"/>
</clipPath>
</defs>
</svg>
