<svg width="60" height="60" viewBox="0 0 60 60" fill="none" xmlns="http://www.w3.org/2000/svg">
<path opacity="0.7" d="M49.8895 48.0773L39.116 29.9723L49.8895 11.8673L55.0831 29.9723L49.8895 48.0773ZM25.9118 46.3106L12.3755 32.8976H33.9225L44.6959 51.0026L25.9118 46.3106ZM25.9118 13.5786L44.6411 8.88661L33.8676 26.9916H12.3206L25.9118 13.5786ZM53.4256 0L28.9501 6.34793L25.3037 12.5851L17.956 12.5297L0 29.9723L17.956 47.4149L25.3037 47.3596L28.9501 53.5967L53.4256 60L60 36.2094L56.2981 30.0277L60 23.8454L53.4256 0Z" fill="url(#paint0_linear_124_2031)"/>
<defs>
<linearGradient id="paint0_linear_124_2031" x1="53.6842" y1="9.29654e-06" x2="2.73803" y2="2.48351" gradientUnits="userSpaceOnUse">
<stop stop-color="#27A2E7"/>
<stop offset="1" stop-color="#27C4E7"/>
</linearGradient>
</defs>
</svg>
