<svg width="243" height="99" viewBox="0 0 243 99" fill="none" xmlns="http://www.w3.org/2000/svg">
<path d="M8.25 20C8.25 13.5107 13.5107 8.25 20 8.25H223C229.489 8.25 234.75 13.5107 234.75 20V79C234.75 85.4893 229.489 90.75 223 90.75H20C13.5107 90.75 8.25 85.4893 8.25 79V20Z" fill="url(#paint0_linear_2766_2507)" stroke="url(#paint1_linear_2766_2507)" stroke-width="0.5"/>
<rect x="22.25" y="45.75" width="2.5" height="2.5" transform="rotate(90 22.25 45.75)" fill="url(#paint2_linear_2766_2507)" stroke="url(#paint3_linear_2766_2507)" stroke-width="0.5"/>
<rect x="224.25" y="45.75" width="2.5" height="2.5" transform="rotate(90 224.25 45.75)" fill="url(#paint4_linear_2766_2507)" stroke="url(#paint5_linear_2766_2507)" stroke-width="0.5"/>
<rect x="22.25" y="51.75" width="2.5" height="2.5" transform="rotate(90 22.25 51.75)" fill="url(#paint6_linear_2766_2507)" stroke="url(#paint7_linear_2766_2507)" stroke-width="0.5"/>
<rect x="224.25" y="51.75" width="2.5" height="2.5" transform="rotate(90 224.25 51.75)" fill="url(#paint8_linear_2766_2507)" stroke="url(#paint9_linear_2766_2507)" stroke-width="0.5"/>
<rect x="22.25" y="40.75" width="2.5" height="2.5" transform="rotate(90 22.25 40.75)" fill="url(#paint10_linear_2766_2507)" stroke="url(#paint11_linear_2766_2507)" stroke-width="0.5"/>
<rect x="224.25" y="40.75" width="2.5" height="2.5" transform="rotate(90 224.25 40.75)" fill="url(#paint12_linear_2766_2507)" stroke="url(#paint13_linear_2766_2507)" stroke-width="0.5"/>
<path fill-rule="evenodd" clip-rule="evenodd" d="M35 95L34 95L34 98L35 98L35 95ZM31 95L32 95L32 98L31 98L31 95ZM30 95L29 95L29 98L30 98L30 95ZM26 95L27 95L27 98L26 98L26 95ZM24 95L23 95L23 98L24 98L24 95ZM21 95L20 95L20 98L21 98L21 95Z" fill="#070917"/>
<path fill-rule="evenodd" clip-rule="evenodd" d="M224 95L223 95L223 98L224 98L224 95ZM220 95L221 95L221 98L220 98L220 95ZM219 95L218 95L218 98L219 98L219 95ZM215 95L216 95L216 98L215 98L215 95ZM213 95L212 95L212 98L213 98L213 95ZM210 95L209 95L209 98L210 98L210 95Z" fill="#070917"/>
<circle cx="117" cy="15" r="1.25" fill="url(#paint14_linear_2766_2507)" stroke="url(#paint15_linear_2766_2507)" stroke-width="0.5"/>
<circle cx="121" cy="15" r="1.25" fill="url(#paint16_linear_2766_2507)" stroke="url(#paint17_linear_2766_2507)" stroke-width="0.5"/>
<circle cx="126" cy="15" r="1.25" fill="url(#paint18_linear_2766_2507)" stroke="url(#paint19_linear_2766_2507)" stroke-width="0.5"/>
<path d="M133.474 91C133.474 84.9539 128.113 80.0526 121.5 80.0526C114.887 80.0526 109.526 84.9539 109.526 91M139 91C139 82.1634 131.165 75 121.5 75C111.835 75 104 82.1634 104 91" stroke="url(#paint20_linear_2766_2507)" stroke-width="0.5"/>
<path fill-rule="evenodd" clip-rule="evenodd" d="M121.5 80.0526C128.113 80.0526 133.474 84.9539 133.474 91L139 91C139 82.1634 131.165 75 121.5 75C111.835 75 104 82.1634 104 91L109.526 91C109.526 84.9539 114.887 80.0526 121.5 80.0526Z" fill="#131728"/>
<path d="M223.75 20C223.75 19.5858 223.414 19.25 223 19.25H212C211.586 19.25 211.25 19.5858 211.25 20V24.5622C211.25 24.7715 211.337 24.9713 211.491 25.1133L217.382 30.5511C217.521 30.679 217.702 30.75 217.891 30.75H223C223.414 30.75 223.75 30.4142 223.75 30V20Z" fill="#070917" stroke="url(#paint21_linear_2766_2507)" stroke-width="0.5"/>
<rect x="0.25" y="-0.25" width="2.5" height="2.5" transform="matrix(-1 0 0 1 222.5 21)" fill="url(#paint22_linear_2766_2507)" stroke="url(#paint23_linear_2766_2507)" stroke-width="0.5"/>
<rect x="0.25" y="-0.25" width="2.5" height="2.5" transform="matrix(-1 0 0 1 222.5 27)" fill="url(#paint24_linear_2766_2507)" stroke="url(#paint25_linear_2766_2507)" stroke-width="0.5"/>
<rect x="0.25" y="-0.25" width="2.5" height="2.5" transform="matrix(-1 0 0 1 216.5 21)" fill="url(#paint26_linear_2766_2507)" stroke="url(#paint27_linear_2766_2507)" stroke-width="0.5"/>
<path d="M19.25 20C19.25 19.5858 19.5858 19.25 20 19.25H31C31.4142 19.25 31.75 19.5858 31.75 20V24.5622C31.75 24.7715 31.6625 24.9713 31.5087 25.1133L25.6177 30.5511C25.4792 30.679 25.2976 30.75 25.109 30.75H20C19.5858 30.75 19.25 30.4142 19.25 30V20Z" fill="#070917" stroke="url(#paint28_linear_2766_2507)" stroke-width="0.5"/>
<rect x="20.75" y="20.75" width="2.5" height="2.5" fill="url(#paint29_linear_2766_2507)" stroke="url(#paint30_linear_2766_2507)" stroke-width="0.5"/>
<rect x="20.75" y="26.75" width="2.5" height="2.5" fill="url(#paint31_linear_2766_2507)" stroke="url(#paint32_linear_2766_2507)" stroke-width="0.5"/>
<rect x="26.75" y="20.75" width="2.5" height="2.5" fill="url(#paint33_linear_2766_2507)" stroke="url(#paint34_linear_2766_2507)" stroke-width="0.5"/>
<rect x="0.25" y="0.25" width="242.5" height="98.5" rx="15.75" stroke="url(#paint35_linear_2766_2507)" stroke-width="0.5"/>
<rect x="88.25" y="57.25" width="19.5" height="5.5" rx="2.75" fill="url(#paint36_linear_2766_2507)" stroke="url(#paint37_linear_2766_2507)" stroke-width="0.5"/>
<rect x="89.25" y="58.25" width="17.5" height="3.5" rx="1.75" fill="url(#paint38_linear_2766_2507)" stroke="url(#paint39_linear_2766_2507)" stroke-width="0.5"/>
<g filter="url(#filter0_f_2766_2507)">
<rect x="89" y="59" width="18" height="3" rx="1.5" fill="url(#paint40_linear_2766_2507)"/>
</g>
<rect x="112.25" y="57.25" width="19.5" height="5.5" rx="2.75" fill="url(#paint41_linear_2766_2507)" stroke="url(#paint42_linear_2766_2507)" stroke-width="0.5"/>
<rect x="113.25" y="58.25" width="17.5" height="3.5" rx="1.75" fill="url(#paint43_linear_2766_2507)" stroke="url(#paint44_linear_2766_2507)" stroke-width="0.5"/>
<g filter="url(#filter1_f_2766_2507)">
<rect x="113" y="59" width="18" height="3" rx="1.5" fill="url(#paint45_linear_2766_2507)"/>
</g>
<rect x="135.25" y="57.25" width="19.5" height="5.5" rx="2.75" fill="url(#paint46_linear_2766_2507)" stroke="url(#paint47_linear_2766_2507)" stroke-width="0.5"/>
<rect x="136.25" y="58.25" width="17.5" height="3.5" rx="1.75" fill="url(#paint48_linear_2766_2507)" stroke="url(#paint49_linear_2766_2507)" stroke-width="0.5"/>
<g filter="url(#filter2_f_2766_2507)">
<rect x="136" y="59" width="18" height="3" rx="1.5" fill="url(#paint50_linear_2766_2507)"/>
</g>
<rect x="52.25" y="25.25" width="138.5" height="23.5" rx="11.75" fill="url(#paint51_linear_2766_2507)" stroke="url(#paint52_linear_2766_2507)" stroke-width="0.5"/>
<rect x="50.5" y="23.5" width="142" height="27" rx="13.5" stroke="url(#paint53_linear_2766_2507)" stroke-width="3"/>
<defs>
<filter id="filter0_f_2766_2507" x="85" y="55" width="26" height="11" filterUnits="userSpaceOnUse" color-interpolation-filters="sRGB">
<feFlood flood-opacity="0" result="BackgroundImageFix"/>
<feBlend mode="normal" in="SourceGraphic" in2="BackgroundImageFix" result="shape"/>
<feGaussianBlur stdDeviation="2" result="effect1_foregroundBlur_2766_2507"/>
</filter>
<filter id="filter1_f_2766_2507" x="109" y="55" width="26" height="11" filterUnits="userSpaceOnUse" color-interpolation-filters="sRGB">
<feFlood flood-opacity="0" result="BackgroundImageFix"/>
<feBlend mode="normal" in="SourceGraphic" in2="BackgroundImageFix" result="shape"/>
<feGaussianBlur stdDeviation="2" result="effect1_foregroundBlur_2766_2507"/>
</filter>
<filter id="filter2_f_2766_2507" x="132" y="55" width="26" height="11" filterUnits="userSpaceOnUse" color-interpolation-filters="sRGB">
<feFlood flood-opacity="0" result="BackgroundImageFix"/>
<feBlend mode="normal" in="SourceGraphic" in2="BackgroundImageFix" result="shape"/>
<feGaussianBlur stdDeviation="2" result="effect1_foregroundBlur_2766_2507"/>
</filter>
<linearGradient id="paint0_linear_2766_2507" x1="121.5" y1="8" x2="121.5" y2="83.2374" gradientUnits="userSpaceOnUse">
<stop stop-color="#1C2139"/>
<stop offset="1" stop-color="#131727"/>
</linearGradient>
<linearGradient id="paint1_linear_2766_2507" x1="121.5" y1="8" x2="121.5" y2="91" gradientUnits="userSpaceOnUse">
<stop stop-color="#394163"/>
<stop offset="1" stop-color="#181B2A"/>
</linearGradient>
<linearGradient id="paint2_linear_2766_2507" x1="23.6667" y1="44.3333" x2="22.3333" y2="48.6667" gradientUnits="userSpaceOnUse">
<stop stop-color="#222A4A"/>
<stop offset="1" stop-color="#262E4B"/>
</linearGradient>
<linearGradient id="paint3_linear_2766_2507" x1="22.3333" y1="44.6667" x2="22" y2="49.3333" gradientUnits="userSpaceOnUse">
<stop stop-color="#3A4162"/>
<stop offset="1" stop-color="#252E54"/>
</linearGradient>
<linearGradient id="paint4_linear_2766_2507" x1="225.667" y1="44.3333" x2="224.333" y2="48.6667" gradientUnits="userSpaceOnUse">
<stop stop-color="#222A4A"/>
<stop offset="1" stop-color="#262E4B"/>
</linearGradient>
<linearGradient id="paint5_linear_2766_2507" x1="224.333" y1="44.6667" x2="224" y2="49.3333" gradientUnits="userSpaceOnUse">
<stop stop-color="#3A4162"/>
<stop offset="1" stop-color="#252E54"/>
</linearGradient>
<linearGradient id="paint6_linear_2766_2507" x1="23.6667" y1="50.3333" x2="22.3333" y2="54.6667" gradientUnits="userSpaceOnUse">
<stop stop-color="#222A4A"/>
<stop offset="1" stop-color="#262E4B"/>
</linearGradient>
<linearGradient id="paint7_linear_2766_2507" x1="22.3333" y1="50.6667" x2="22" y2="55.3333" gradientUnits="userSpaceOnUse">
<stop stop-color="#3A4162"/>
<stop offset="1" stop-color="#252E54"/>
</linearGradient>
<linearGradient id="paint8_linear_2766_2507" x1="225.667" y1="50.3333" x2="224.333" y2="54.6667" gradientUnits="userSpaceOnUse">
<stop stop-color="#222A4A"/>
<stop offset="1" stop-color="#262E4B"/>
</linearGradient>
<linearGradient id="paint9_linear_2766_2507" x1="224.333" y1="50.6667" x2="224" y2="55.3333" gradientUnits="userSpaceOnUse">
<stop stop-color="#3A4162"/>
<stop offset="1" stop-color="#252E54"/>
</linearGradient>
<linearGradient id="paint10_linear_2766_2507" x1="23.6667" y1="39.3333" x2="22.3333" y2="43.6667" gradientUnits="userSpaceOnUse">
<stop stop-color="#222A4A"/>
<stop offset="1" stop-color="#262E4B"/>
</linearGradient>
<linearGradient id="paint11_linear_2766_2507" x1="22.3333" y1="39.6667" x2="22" y2="44.3333" gradientUnits="userSpaceOnUse">
<stop stop-color="#3A4162"/>
<stop offset="1" stop-color="#252E54"/>
</linearGradient>
<linearGradient id="paint12_linear_2766_2507" x1="225.667" y1="39.3333" x2="224.333" y2="43.6667" gradientUnits="userSpaceOnUse">
<stop stop-color="#222A4A"/>
<stop offset="1" stop-color="#262E4B"/>
</linearGradient>
<linearGradient id="paint13_linear_2766_2507" x1="224.333" y1="39.6667" x2="224" y2="44.3333" gradientUnits="userSpaceOnUse">
<stop stop-color="#3A4162"/>
<stop offset="1" stop-color="#252E54"/>
</linearGradient>
<linearGradient id="paint14_linear_2766_2507" x1="117" y1="11.8462" x2="117" y2="18.1538" gradientUnits="userSpaceOnUse">
<stop/>
<stop offset="0.494234" stop-color="#10121C"/>
<stop offset="1" stop-color="#181B2A"/>
</linearGradient>
<linearGradient id="paint15_linear_2766_2507" x1="117" y1="14" x2="117" y2="15.6667" gradientUnits="userSpaceOnUse">
<stop stop-color="#151723"/>
<stop offset="1" stop-color="#242C45"/>
</linearGradient>
<linearGradient id="paint16_linear_2766_2507" x1="121" y1="11.8462" x2="121" y2="18.1538" gradientUnits="userSpaceOnUse">
<stop/>
<stop offset="0.494234" stop-color="#10121C"/>
<stop offset="1" stop-color="#181B2A"/>
</linearGradient>
<linearGradient id="paint17_linear_2766_2507" x1="121" y1="14" x2="121" y2="15.6667" gradientUnits="userSpaceOnUse">
<stop stop-color="#151723"/>
<stop offset="1" stop-color="#242C45"/>
</linearGradient>
<linearGradient id="paint18_linear_2766_2507" x1="126" y1="11.8462" x2="126" y2="18.1538" gradientUnits="userSpaceOnUse">
<stop/>
<stop offset="0.494234" stop-color="#10121C"/>
<stop offset="1" stop-color="#181B2A"/>
</linearGradient>
<linearGradient id="paint19_linear_2766_2507" x1="126" y1="14" x2="126" y2="15.6667" gradientUnits="userSpaceOnUse">
<stop stop-color="#151723"/>
<stop offset="1" stop-color="#242C45"/>
</linearGradient>
<linearGradient id="paint20_linear_2766_2507" x1="117.125" y1="101" x2="127.341" y2="66.463" gradientUnits="userSpaceOnUse">
<stop stop-color="#23262F" stop-opacity="0.13"/>
<stop offset="1" stop-color="#36415E"/>
</linearGradient>
<linearGradient id="paint21_linear_2766_2507" x1="217.5" y1="19" x2="217.5" y2="31" gradientUnits="userSpaceOnUse">
<stop stop-color="#384262"/>
<stop offset="1" stop-color="#212941"/>
</linearGradient>
<linearGradient id="paint22_linear_2766_2507" x1="1.66667" y1="-1.66667" x2="0.333333" y2="2.66667" gradientUnits="userSpaceOnUse">
<stop stop-color="#323F5F"/>
<stop offset="1" stop-color="#323F5F" stop-opacity="0"/>
</linearGradient>
<linearGradient id="paint23_linear_2766_2507" x1="0.333333" y1="-1.33333" x2="-1.51495e-07" y2="3.33333" gradientUnits="userSpaceOnUse">
<stop stop-color="#212941"/>
<stop offset="1" stop-color="#2D3449" stop-opacity="0.39"/>
</linearGradient>
<linearGradient id="paint24_linear_2766_2507" x1="1.66667" y1="-1.66667" x2="0.333333" y2="2.66667" gradientUnits="userSpaceOnUse">
<stop stop-color="#323F5F"/>
<stop offset="1" stop-color="#323F5F" stop-opacity="0"/>
</linearGradient>
<linearGradient id="paint25_linear_2766_2507" x1="0.333333" y1="-1.33333" x2="-1.51495e-07" y2="3.33333" gradientUnits="userSpaceOnUse">
<stop stop-color="#212941"/>
<stop offset="1" stop-color="#2D3449" stop-opacity="0.39"/>
</linearGradient>
<linearGradient id="paint26_linear_2766_2507" x1="1.66667" y1="-1.66667" x2="0.333333" y2="2.66667" gradientUnits="userSpaceOnUse">
<stop stop-color="#323F5F"/>
<stop offset="1" stop-color="#323F5F" stop-opacity="0"/>
</linearGradient>
<linearGradient id="paint27_linear_2766_2507" x1="0.333333" y1="-1.33333" x2="-1.51495e-07" y2="3.33333" gradientUnits="userSpaceOnUse">
<stop stop-color="#212941"/>
<stop offset="1" stop-color="#2D3449" stop-opacity="0.39"/>
</linearGradient>
<linearGradient id="paint28_linear_2766_2507" x1="25.5" y1="19" x2="25.5" y2="31" gradientUnits="userSpaceOnUse">
<stop stop-color="#384262"/>
<stop offset="1" stop-color="#212941"/>
</linearGradient>
<linearGradient id="paint29_linear_2766_2507" x1="22.6667" y1="19.3333" x2="21.3333" y2="23.6667" gradientUnits="userSpaceOnUse">
<stop stop-color="#323F5F"/>
<stop offset="1" stop-color="#323F5F" stop-opacity="0"/>
</linearGradient>
<linearGradient id="paint30_linear_2766_2507" x1="21.3333" y1="19.6667" x2="21" y2="24.3333" gradientUnits="userSpaceOnUse">
<stop stop-color="#212941"/>
<stop offset="1" stop-color="#2D3449" stop-opacity="0.39"/>
</linearGradient>
<linearGradient id="paint31_linear_2766_2507" x1="22.6667" y1="25.3333" x2="21.3333" y2="29.6667" gradientUnits="userSpaceOnUse">
<stop stop-color="#323F5F"/>
<stop offset="1" stop-color="#323F5F" stop-opacity="0"/>
</linearGradient>
<linearGradient id="paint32_linear_2766_2507" x1="21.3333" y1="25.6667" x2="21" y2="30.3333" gradientUnits="userSpaceOnUse">
<stop stop-color="#212941"/>
<stop offset="1" stop-color="#2D3449" stop-opacity="0.39"/>
</linearGradient>
<linearGradient id="paint33_linear_2766_2507" x1="28.6667" y1="19.3333" x2="27.3333" y2="23.6667" gradientUnits="userSpaceOnUse">
<stop stop-color="#323F5F"/>
<stop offset="1" stop-color="#323F5F" stop-opacity="0"/>
</linearGradient>
<linearGradient id="paint34_linear_2766_2507" x1="27.3333" y1="19.6667" x2="27" y2="24.3333" gradientUnits="userSpaceOnUse">
<stop stop-color="#212941"/>
<stop offset="1" stop-color="#2D3449" stop-opacity="0.39"/>
</linearGradient>
<linearGradient id="paint35_linear_2766_2507" x1="121.5" y1="0" x2="121.5" y2="99" gradientUnits="userSpaceOnUse">
<stop stop-color="#202639"/>
<stop offset="1" stop-color="#242D46"/>
</linearGradient>
<linearGradient id="paint36_linear_2766_2507" x1="98" y1="50.5385" x2="98" y2="69.4615" gradientUnits="userSpaceOnUse">
<stop stop-color="#191D2E"/>
<stop offset="0.494234" stop-color="#0B0C11"/>
<stop offset="1" stop-color="#191D2E"/>
</linearGradient>
<linearGradient id="paint37_linear_2766_2507" x1="98" y1="57" x2="98" y2="62" gradientUnits="userSpaceOnUse">
<stop stop-color="#1D202F" stop-opacity="0"/>
<stop offset="1" stop-color="#242C45"/>
</linearGradient>
<linearGradient id="paint38_linear_2766_2507" x1="101.808" y1="59.3333" x2="93.4541" y2="67.3143" gradientUnits="userSpaceOnUse">
<stop stop-color="#EEEEEE"/>
<stop offset="0.51" stop-color="#C8DCF5"/>
<stop offset="1" stop-color="#CBD5E2"/>
</linearGradient>
<linearGradient id="paint39_linear_2766_2507" x1="98" y1="58" x2="98" y2="61.3333" gradientUnits="userSpaceOnUse">
<stop stop-color="#A7C0DF"/>
<stop offset="1" stop-color="#C7DDF8"/>
</linearGradient>
<linearGradient id="paint40_linear_2766_2507" x1="101.808" y1="60" x2="95.7153" y2="67.7608" gradientUnits="userSpaceOnUse">
<stop stop-color="#EEEEEE"/>
<stop offset="0.51" stop-color="#C8DCF5"/>
<stop offset="1" stop-color="#CBD5E2"/>
</linearGradient>
<linearGradient id="paint41_linear_2766_2507" x1="122" y1="50.5385" x2="122" y2="69.4615" gradientUnits="userSpaceOnUse">
<stop stop-color="#191D2E"/>
<stop offset="0.494234" stop-color="#0B0C11"/>
<stop offset="1" stop-color="#191D2E"/>
</linearGradient>
<linearGradient id="paint42_linear_2766_2507" x1="122" y1="57" x2="122" y2="62" gradientUnits="userSpaceOnUse">
<stop stop-color="#1D202F" stop-opacity="0"/>
<stop offset="1" stop-color="#242C45"/>
</linearGradient>
<linearGradient id="paint43_linear_2766_2507" x1="125.808" y1="59.3333" x2="117.454" y2="67.3143" gradientUnits="userSpaceOnUse">
<stop stop-color="#EEEEEE"/>
<stop offset="0.51" stop-color="#C8DCF5"/>
<stop offset="1" stop-color="#CBD5E2"/>
</linearGradient>
<linearGradient id="paint44_linear_2766_2507" x1="122" y1="58" x2="122" y2="61.3333" gradientUnits="userSpaceOnUse">
<stop stop-color="#A7C0DF"/>
<stop offset="1" stop-color="#C7DDF8"/>
</linearGradient>
<linearGradient id="paint45_linear_2766_2507" x1="125.808" y1="60" x2="119.715" y2="67.7608" gradientUnits="userSpaceOnUse">
<stop stop-color="#EEEEEE"/>
<stop offset="0.51" stop-color="#C8DCF5"/>
<stop offset="1" stop-color="#CBD5E2"/>
</linearGradient>
<linearGradient id="paint46_linear_2766_2507" x1="145" y1="50.5385" x2="145" y2="69.4615" gradientUnits="userSpaceOnUse">
<stop stop-color="#191D2E"/>
<stop offset="0.494234" stop-color="#0B0C11"/>
<stop offset="1" stop-color="#191D2E"/>
</linearGradient>
<linearGradient id="paint47_linear_2766_2507" x1="145" y1="57" x2="145" y2="62" gradientUnits="userSpaceOnUse">
<stop stop-color="#1D202F" stop-opacity="0"/>
<stop offset="1" stop-color="#242C45"/>
</linearGradient>
<linearGradient id="paint48_linear_2766_2507" x1="148.808" y1="59.3333" x2="140.454" y2="67.3143" gradientUnits="userSpaceOnUse">
<stop stop-color="#EEEEEE"/>
<stop offset="0.51" stop-color="#C8DCF5"/>
<stop offset="1" stop-color="#CBD5E2"/>
</linearGradient>
<linearGradient id="paint49_linear_2766_2507" x1="145" y1="58" x2="145" y2="61.3333" gradientUnits="userSpaceOnUse">
<stop stop-color="#A7C0DF"/>
<stop offset="1" stop-color="#C7DDF8"/>
</linearGradient>
<linearGradient id="paint50_linear_2766_2507" x1="148.808" y1="60" x2="142.715" y2="67.7608" gradientUnits="userSpaceOnUse">
<stop stop-color="#EEEEEE"/>
<stop offset="0.51" stop-color="#C8DCF5"/>
<stop offset="1" stop-color="#CBD5E2"/>
</linearGradient>
<linearGradient id="paint51_linear_2766_2507" x1="121.5" y1="-0.846154" x2="121.5" y2="74.8462" gradientUnits="userSpaceOnUse">
<stop stop-color="#080C21"/>
<stop offset="0.494234" stop-color="#0C0E1B"/>
<stop offset="1" stop-color="#272E51"/>
</linearGradient>
<linearGradient id="paint52_linear_2766_2507" x1="121.5" y1="25" x2="121.5" y2="49" gradientUnits="userSpaceOnUse">
<stop stop-color="#202639"/>
<stop offset="1" stop-color="#242D46"/>
</linearGradient>
<linearGradient id="paint53_linear_2766_2507" x1="138.52" y1="18.7391" x2="136.133" y2="50.1136" gradientUnits="userSpaceOnUse">
<stop stop-color="#323D5E"/>
<stop offset="1" stop-color="#242D46" stop-opacity="0.23"/>
</linearGradient>
</defs>
</svg>
