<svg width="44" height="44" viewBox="0 0 44 44" fill="none" xmlns="http://www.w3.org/2000/svg">
<circle cx="22" cy="22" r="21.75" fill="#2F3558" stroke="url(#paint0_linear_2775_5571)" stroke-width="0.5"/>
<g clip-path="url(#clip0_2775_5571)">
<mask id="mask0_2775_5571" style="mask-type:luminance" maskUnits="userSpaceOnUse" x="4" y="3" width="36" height="37">
<path d="M40 3H4V40H40V3Z" fill="white"/>
</mask>
<g mask="url(#mask0_2775_5571)">
<path d="M34.8002 12.5016L37.5002 13.9016C39.1002 14.8016 39.8002 16.7016 39.0002 18.4016L37.7002 21.1016C37.6002 21.3016 37.6002 21.6016 37.7002 21.8016L39.0002 24.5016C39.8002 26.2016 39.2002 28.1016 37.5002 29.0016L34.8002 30.4016C34.6002 30.5016 34.4002 30.7016 34.4002 31.0016L33.9002 34.0016C33.6002 35.8016 31.9002 37.0016 30.1002 36.8016L27.1002 36.4016C26.8002 36.4016 26.6002 36.4016 26.4002 36.6016L24.2002 38.7016C23.5002 39.3016 22.7002 39.7016 21.8002 39.7016C21.0002 39.7016 20.1002 39.4016 19.4002 38.7016L17.2002 36.6016C17.0002 36.4016 16.8002 36.3016 16.5002 36.4016L13.5002 36.8016C13.3002 36.8016 13.2002 36.8016 13.0002 36.8016C11.4002 36.8016 10.0002 35.6016 9.7002 34.0016L9.2002 31.0016C9.2002 30.8016 9.0002 30.5016 8.8002 30.4016L6.1002 29.0016C4.5002 28.1016 3.8002 26.2016 4.6002 24.5016L5.9002 21.8016C6.0002 21.6016 6.0002 21.3016 5.9002 21.1016L4.6002 18.4016C3.8002 16.7016 4.4002 14.8016 6.1002 13.9016L9.7002 24.6016L21.8002 39.7016L34.4002 31.0016L34.8002 12.5016ZM34.8002 12.5016C34.6002 12.4016 34.4002 12.2016 34.4002 11.9016L33.9002 8.90156C33.6002 7.10156 31.9002 5.90156 30.1002 6.10156L27.1002 6.50156C26.8002 6.50156 26.6002 6.50156 26.4002 6.30156L24.2002 4.20156C22.9002 2.90156 20.8002 2.90156 19.5002 4.20156L17.3002 6.30156C17.1002 6.50156 16.9002 6.60156 16.6002 6.50156L13.6002 6.10156C11.7002 5.90156 10.0002 7.10156 9.7002 8.90156L9.2002 11.9016C9.2002 12.1016 9.0002 12.4016 8.8002 12.5016L6.1002 13.9016L9.7002 24.6016L21.8002 39.7016L34.4002 31.0016L34.8002 12.5016ZM17.6002 12.4016C19.6002 12.4016 21.2002 14.0016 21.2002 16.0016C21.2002 18.0016 19.6002 19.6016 17.6002 19.6016C15.6002 19.6016 14.0002 18.0016 14.0002 16.0016C14.0002 14.0016 15.7002 12.4016 17.6002 12.4016ZM25.9002 30.6016C23.9002 30.6016 22.3002 29.0016 22.3002 27.0016C22.3002 25.0016 23.9002 23.4016 25.9002 23.4016C27.9002 23.4016 29.5002 25.0016 29.5002 27.0016C29.5002 29.0016 27.9002 30.6016 25.9002 30.6016Z" fill="url(#paint1_radial_2775_5571)"/>
<path d="M37.6002 21.1016L39.0002 18.4016C39.8002 16.7016 39.1002 14.8016 37.5002 13.9016L34.8002 12.5016C34.6002 12.4016 34.4002 12.2016 34.4002 11.9016L33.9002 8.90156C33.6002 7.10156 31.9002 5.90156 30.1002 6.10156L27.1002 6.50156C26.8002 6.50156 26.6002 6.50156 26.4002 6.30156L24.2002 4.20156C22.9002 2.90156 20.8002 2.90156 19.5002 4.20156L17.3002 6.30156C17.1002 6.50156 16.9002 6.60156 16.6002 6.50156L13.6002 6.10156C11.7002 5.90156 10.0002 7.10156 9.7002 8.90156L9.2002 11.9016C9.2002 12.1016 9.0002 12.4016 8.8002 12.5016L6.1002 13.9016C4.4002 14.8016 3.8002 16.8016 4.6002 18.5016L5.9002 21.2016C6.0002 21.4016 6.0002 21.7016 5.9002 21.9016L4.6002 24.6016C3.8002 26.3016 4.5002 28.2016 6.1002 29.1016L8.8002 30.5016C9.0002 30.6016 9.2002 30.9016 9.2002 31.1016L9.7002 34.1016M37.6002 21.1016L37.4002 21.0016M37.6002 21.1016C37.5002 21.3016 37.5002 21.6016 37.6002 21.8016L38.9002 24.5016C39.7002 26.2016 39.1002 28.1016 37.4002 29.0016L34.7002 30.4016C34.5002 30.5016 34.3002 30.7016 34.3002 31.0016L33.9002 34.1016C33.6002 35.9016 31.9002 37.1016 30.1002 36.9016L27.1002 36.5016C26.8002 36.5016 26.6002 36.5016 26.4002 36.7016L24.2002 38.8016C23.5002 39.4016 22.7002 39.8016 21.8002 39.8016C21.0002 39.8016 20.1002 39.5016 19.4002 38.8016L17.2002 36.7016C17.0002 36.5016 16.8002 36.4016 16.5002 36.5016L13.5002 36.9016C13.3002 36.9016 13.2002 36.9016 13.0002 36.9016C11.4002 36.9016 10.0002 35.7016 9.7002 34.1016M9.7002 34.1016H9.9002M17.6002 12.4016C19.6002 12.4016 21.2002 14.0016 21.2002 16.0016C21.2002 18.0016 19.6002 19.6016 17.6002 19.6016C15.6002 19.6016 14.0002 18.0016 14.0002 16.0016C14.0002 14.0016 15.7002 12.4016 17.6002 12.4016ZM25.9002 30.6016C23.9002 30.6016 22.3002 29.0016 22.3002 27.0016C22.3002 25.0016 23.9002 23.4016 25.9002 23.4016C27.9002 23.4016 29.5002 25.0016 29.5002 27.0016C29.5002 29.0016 27.9002 30.6016 25.9002 30.6016Z" stroke="url(#paint2_linear_2775_5571)" stroke-width="0.5"/>
<path d="M25.8992 25.3008C24.8992 25.3008 24.1992 26.1008 24.1992 27.0008C24.1992 28.0008 24.9992 28.7008 25.8992 28.7008C26.8992 28.7008 27.5992 27.9008 27.5992 27.0008C27.6992 26.1008 26.8992 25.3008 25.8992 25.3008Z" fill="url(#paint3_radial_2775_5571)"/>
<path d="M17.5984 14.2031C16.5984 14.2031 15.8984 15.0031 15.8984 15.9031C15.8984 16.9031 16.6984 17.6031 17.5984 17.6031C18.5984 17.6031 19.2984 16.8031 19.2984 15.9031C19.3984 15.0031 18.5984 14.2031 17.5984 14.2031Z" fill="url(#paint4_radial_2775_5571)"/>
<path d="M29.3 15.4031C29.7 15.0031 29.7 14.4031 29.3 14.0031C28.9 13.6031 28.3 13.6031 27.9 14.0031L14.3 27.7031C13.9 28.1031 13.9 28.7031 14.3 29.1031C14.7 29.5031 15.3 29.5031 15.7 29.1031L29.3 15.4031Z" fill="#2F3558"/>
</g>
</g>
<defs>
<linearGradient id="paint0_linear_2775_5571" x1="22" y1="0" x2="22" y2="44" gradientUnits="userSpaceOnUse">
<stop stop-color="#212941"/>
<stop offset="1" stop-color="#3B435C"/>
</linearGradient>
<radialGradient id="paint1_radial_2775_5571" cx="0" cy="0" r="1" gradientUnits="userSpaceOnUse" gradientTransform="translate(21.759 18.053) rotate(-103.771) scale(113.105 177.186)">
<stop stop-color="white"/>
<stop offset="0.51" stop-color="#318BF8"/>
<stop offset="1" stop-color="#318EFE"/>
</radialGradient>
<linearGradient id="paint2_linear_2775_5571" x1="21.5004" y1="3.52866" x2="22.0522" y2="40.0577" gradientUnits="userSpaceOnUse">
<stop stop-color="#EEEEEE"/>
<stop offset="0.4703" stop-color="#81B6F6"/>
<stop offset="1" stop-color="#CBD5E2"/>
</linearGradient>
<radialGradient id="paint3_radial_2775_5571" cx="0" cy="0" r="1" gradientUnits="userSpaceOnUse" gradientTransform="translate(25.9536 26.7315) rotate(-104.329) scale(10.8987 17.7073)">
<stop stop-color="white"/>
<stop offset="0.51" stop-color="#318BF8"/>
<stop offset="1" stop-color="#318EFE"/>
</radialGradient>
<radialGradient id="paint4_radial_2775_5571" cx="0" cy="0" r="1" gradientUnits="userSpaceOnUse" gradientTransform="translate(17.6304 15.6587) rotate(-104.328) scale(10.8988 17.7073)">
<stop stop-color="white"/>
<stop offset="0.51" stop-color="#318BF8"/>
<stop offset="1" stop-color="#318EFE"/>
</radialGradient>
<clipPath id="clip0_2775_5571">
<rect width="36" height="37" fill="white" transform="translate(4 3)"/>
</clipPath>
</defs>
</svg>
