						<svg width="94" height="58" viewBox="0 0 94 58" fill="none" xmlns="http://www.w3.org/2000/svg">
							<g opacity="0.6" filter="url(#filter0_f_2694_10103)">
							<rect x="89" y="53" width="84" height="48" rx="24" transform="rotate(-180 89 53)" fill="url(#paint0_linear_2694_10103)"/>
							<rect x="89.25" y="53.25" width="84.5" height="48.5" rx="24.25" transform="rotate(-180 89.25 53.25)" stroke="url(#paint1_linear_2694_10103)" stroke-width="0.5"/>
							</g>
							<rect x="6.5" y="6.5" width="81" height="45" rx="22.5" stroke="#181C2D" stroke-width="3"/>
							<g filter="url(#filter1_f_2694_10103)">
							<rect x="8" y="8" width="78" height="42" rx="21" fill="url(#paint2_linear_2694_10103)"/>
							<rect x="7.75" y="7.75" width="78.5" height="42.5" rx="21.25" stroke="url(#paint3_linear_2694_10103)" stroke-width="0.5"/>
							</g>
							<rect x="7.75" y="7.75" width="78.5" height="42.5" rx="21.25" fill="url(#paint4_linear_2694_10103)" stroke="url(#paint5_linear_2694_10103)" stroke-width="0.5"/>
							<rect opacity="0.3" x="89.25" y="53.25" width="84.5" height="48.5" rx="24.25" transform="rotate(-180 89.25 53.25)" stroke="url(#paint6_linear_2694_10103)" stroke-width="0.5"/>
							<g filter="url(#filter2_f_2694_10103)">
							<circle cx="30" cy="29" r="13.25" transform="rotate(-180 30 29)" stroke="url(#paint7_linear_2694_10103)" stroke-width="0.5"/>
							</g>
							<g filter="url(#filter3_f_2694_10103)">
							<circle cx="30" cy="29" r="13.25" transform="rotate(-180 30 29)" stroke="url(#paint8_linear_2694_10103)" stroke-width="0.5"/>
							</g>
							<circle cx="30" cy="29" r="13.25" transform="rotate(-180 30 29)" stroke="url(#paint9_linear_2694_10103)" stroke-width="0.5"/>
							<circle cx="30" cy="29" r="13" fill="url(#paint10_radial_2694_10103)"/>
							<g clip-path="url(#clip0_2694_10103)">
							<path d="M35.7615 32.7733L35.7614 32.7734C34.9695 34.8582 33.4409 36.1785 33.2807 36.3127L33.2723 36.3197L33.2645 36.3275C32.9512 36.6406 32.5834 36.751 32.2193 36.751C31.7295 36.751 31.2553 36.5491 30.9855 36.3709C30.5043 36.0411 29.907 36.0285 29.441 36.0901C28.9674 36.1528 28.5785 36.299 28.4739 36.3408L28.4502 36.3503L28.429 36.3643C27.4439 37.0141 26.6053 36.6212 26.2926 36.3321L26.2812 36.3216L26.2686 36.3125C25.6152 35.8437 24.9924 34.9635 24.5182 34.1579C24.069 33.3949 23.772 32.7319 23.7274 32.6308C22.9053 30.1522 23.2933 28.4852 23.8948 27.4251C24.503 26.3532 25.3486 25.8688 25.4799 25.7986L25.4887 25.7939L25.4971 25.7885C26.2046 25.3342 27.0136 25.3259 27.741 25.4868C28.4682 25.6477 29.084 25.9719 29.37 26.1399L29.4934 26.2124L29.6184 26.1427C30.9854 25.3799 32.2132 25.1524 33.2832 25.4173C34.6375 25.7528 35.2789 26.7687 35.34 26.8706L35.3401 26.8707L35.3689 26.9187L35.3125 26.945L35.3124 26.9451C34.1972 27.4664 33.4961 28.5324 33.4961 29.7304C33.4961 31.078 34.3953 32.2556 35.7182 32.6694L35.759 32.6822L35.7653 32.7632L35.7615 32.7733ZM35.9952 32.8622C35.1805 35.0068 33.6128 36.3607 33.4412 36.5043L35.9952 32.8622ZM29.9471 24.8689C29.6276 24.9462 29.4102 24.9635 29.4025 24.9641C29.4023 24.9641 29.4022 24.9641 29.4023 24.9641L29.3269 24.9691L29.331 24.905L29.331 24.9049C29.4354 23.2578 30.2415 22.3629 31.0189 21.8707C31.7992 21.3767 32.5592 21.285 32.5734 21.2833L32.5736 21.2833L32.5739 21.2833L32.6449 21.2759L32.6482 21.3367L32.6482 21.3369C32.6952 22.1944 32.514 22.8385 32.2273 23.3256C31.9396 23.8145 31.5369 24.16 31.1199 24.4044C30.7021 24.6492 30.2745 24.7897 29.9471 24.8689Z" stroke="url(#paint11_linear_2694_10103)" stroke-width="0.5"/>
							</g>
							<g filter="url(#filter4_f_2694_10103)">
							<circle cx="64" cy="29" r="13.25" transform="rotate(-180 64 29)" stroke="url(#paint12_linear_2694_10103)" stroke-width="0.5"/>
							</g>
							<g filter="url(#filter5_f_2694_10103)">
							<circle cx="64" cy="29" r="13.25" transform="rotate(-180 64 29)" stroke="url(#paint13_linear_2694_10103)" stroke-width="0.5"/>
							</g>
							<circle cx="64" cy="29" r="13.25" transform="rotate(-180 64 29)" stroke="url(#paint14_linear_2694_10103)" stroke-width="0.5"/>
							<circle cx="64" cy="29" r="13" fill="url(#paint15_radial_2694_10103)"/>
							<path d="M64 26.4414C65.8565 26.4414 67.637 27.1789 68.9497 28.4917C70.2625 29.8044 71 31.5849 71 33.4414V34.1081H57V33.4414C57 31.5849 57.7375 29.8044 59.0503 28.4917C60.363 27.1789 62.1435 26.4414 64 26.4414Z" stroke="url(#paint16_linear_2694_10103)" stroke-width="0.5" stroke-miterlimit="10"/>
							<path d="M60.8208 31.5284C61.1706 31.5284 61.4542 31.2448 61.4542 30.8951C61.4542 30.5453 61.1706 30.2617 60.8208 30.2617C60.4711 30.2617 60.1875 30.5453 60.1875 30.8951C60.1875 31.2448 60.4711 31.5284 60.8208 31.5284Z" fill="url(#paint17_linear_2694_10103)"/>
							<path d="M67.1802 31.5284C67.53 31.5284 67.8135 31.2448 67.8135 30.8951C67.8135 30.5453 67.53 30.2617 67.1802 30.2617C66.8304 30.2617 66.5469 30.5453 66.5469 30.8951C66.5469 31.2448 66.8304 31.5284 67.1802 31.5284Z" fill="url(#paint18_linear_2694_10103)"/>
							<path d="M58.2734 23.2617L60.1801 27.0751" stroke="url(#paint19_linear_2694_10103)" stroke-width="0.5" stroke-miterlimit="10"/>
							<path d="M69.727 23.2617L67.8203 27.0751" stroke="url(#paint20_linear_2694_10103)" stroke-width="0.5" stroke-miterlimit="10"/>
							<defs>
							<filter id="filter0_f_2694_10103" x="0.5" y="0.5" width="93" height="57" filterUnits="userSpaceOnUse" color-interpolation-filters="sRGB">
							<feFlood flood-opacity="0" result="BackgroundImageFix"/>
							<feBlend mode="normal" in="SourceGraphic" in2="BackgroundImageFix" result="shape"/>
							<feGaussianBlur stdDeviation="2" result="effect1_foregroundBlur_2694_10103"/>
							</filter>
							<filter id="filter1_f_2694_10103" x="6.5" y="6.5" width="81" height="45" filterUnits="userSpaceOnUse" color-interpolation-filters="sRGB">
							<feFlood flood-opacity="0" result="BackgroundImageFix"/>
							<feBlend mode="normal" in="SourceGraphic" in2="BackgroundImageFix" result="shape"/>
							<feGaussianBlur stdDeviation="0.5" result="effect1_foregroundBlur_2694_10103"/>
							</filter>
							<filter id="filter2_f_2694_10103" x="14.5" y="13.5" width="31" height="31" filterUnits="userSpaceOnUse" color-interpolation-filters="sRGB">
							<feFlood flood-opacity="0" result="BackgroundImageFix"/>
							<feBlend mode="normal" in="SourceGraphic" in2="BackgroundImageFix" result="shape"/>
							<feGaussianBlur stdDeviation="1" result="effect1_foregroundBlur_2694_10103"/>
							</filter>
							<filter id="filter3_f_2694_10103" x="14.5" y="13.5" width="31" height="31" filterUnits="userSpaceOnUse" color-interpolation-filters="sRGB">
							<feFlood flood-opacity="0" result="BackgroundImageFix"/>
							<feBlend mode="normal" in="SourceGraphic" in2="BackgroundImageFix" result="shape"/>
							<feGaussianBlur stdDeviation="1" result="effect1_foregroundBlur_2694_10103"/>
							</filter>
							<filter id="filter4_f_2694_10103" x="48.5" y="13.5" width="31" height="31" filterUnits="userSpaceOnUse" color-interpolation-filters="sRGB">
							<feFlood flood-opacity="0" result="BackgroundImageFix"/>
							<feBlend mode="normal" in="SourceGraphic" in2="BackgroundImageFix" result="shape"/>
							<feGaussianBlur stdDeviation="1" result="effect1_foregroundBlur_2694_10103"/>
							</filter>
							<filter id="filter5_f_2694_10103" x="48.5" y="13.5" width="31" height="31" filterUnits="userSpaceOnUse" color-interpolation-filters="sRGB">
							<feFlood flood-opacity="0" result="BackgroundImageFix"/>
							<feBlend mode="normal" in="SourceGraphic" in2="BackgroundImageFix" result="shape"/>
							<feGaussianBlur stdDeviation="1" result="effect1_foregroundBlur_2694_10103"/>
							</filter>
							<linearGradient id="paint0_linear_2694_10103" x1="131" y1="53" x2="131" y2="71.6667" gradientUnits="userSpaceOnUse">
							<stop stop-color="#262B46"/>
							<stop offset="1" stop-color="#1D2136" stop-opacity="0"/>
							</linearGradient>
							<linearGradient id="paint1_linear_2694_10103" x1="131" y1="53" x2="131" y2="101" gradientUnits="userSpaceOnUse">
							<stop stop-color="#4C5375" stop-opacity="0.6"/>
							<stop offset="1" stop-color="#1D2135" stop-opacity="0"/>
							</linearGradient>
							<linearGradient id="paint2_linear_2694_10103" x1="47" y1="8" x2="47" y2="24.3333" gradientUnits="userSpaceOnUse">
							<stop stop-color="#262B46"/>
							<stop offset="1" stop-color="#1D2136" stop-opacity="0"/>
							</linearGradient>
							<linearGradient id="paint3_linear_2694_10103" x1="47" y1="8" x2="47" y2="50" gradientUnits="userSpaceOnUse">
							<stop stop-color="#4C5375" stop-opacity="0.6"/>
							<stop offset="1" stop-color="#1D2135" stop-opacity="0"/>
							</linearGradient>
							<linearGradient id="paint4_linear_2694_10103" x1="47" y1="8" x2="47" y2="24.3333" gradientUnits="userSpaceOnUse">
							<stop stop-color="#262B46"/>
							<stop offset="1" stop-color="#1D2136" stop-opacity="0"/>
							</linearGradient>
							<linearGradient id="paint5_linear_2694_10103" x1="47" y1="8" x2="47" y2="50" gradientUnits="userSpaceOnUse">
							<stop stop-color="#4C5375" stop-opacity="0.6"/>
							<stop offset="1" stop-color="#1D2135" stop-opacity="0"/>
							</linearGradient>
							<linearGradient id="paint6_linear_2694_10103" x1="131" y1="53" x2="131" y2="101" gradientUnits="userSpaceOnUse">
							<stop stop-color="#4C5375" stop-opacity="0.6"/>
							<stop offset="1" stop-color="#1D2135" stop-opacity="0"/>
							</linearGradient>
							<linearGradient id="paint7_linear_2694_10103" x1="30" y1="16" x2="30" y2="42" gradientUnits="userSpaceOnUse">
							<stop stop-color="#4C5375" stop-opacity="0.6"/>
							<stop offset="1" stop-color="#1D2135" stop-opacity="0"/>
							</linearGradient>
							<linearGradient id="paint8_linear_2694_10103" x1="30" y1="16" x2="30" y2="42" gradientUnits="userSpaceOnUse">
							<stop stop-color="#4C5375" stop-opacity="0.6"/>
							<stop offset="1" stop-color="#1D2135" stop-opacity="0"/>
							</linearGradient>
							<linearGradient id="paint9_linear_2694_10103" x1="30" y1="16" x2="30" y2="42" gradientUnits="userSpaceOnUse">
							<stop stop-color="#4C5375" stop-opacity="0.6"/>
							<stop offset="1" stop-color="#1D2135" stop-opacity="0"/>
							</linearGradient>
							<radialGradient id="paint10_radial_2694_10103" cx="0" cy="0" r="1" gradientUnits="userSpaceOnUse" gradientTransform="translate(30 29) rotate(90) scale(11)">
							<stop stop-color="#1D2544"/>
							<stop offset="1" stop-color="#181C2D"/>
							</radialGradient>
							<linearGradient id="paint11_linear_2694_10103" x1="29.5134" y1="26.9051" x2="29.5134" y2="32.715" gradientUnits="userSpaceOnUse">
							<stop stop-color="#EEEEEE"/>
							<stop offset="0.51" stop-color="#C8DCF5"/>
							<stop offset="1" stop-color="#CBD5E2"/>
							</linearGradient>
							<linearGradient id="paint12_linear_2694_10103" x1="64" y1="16" x2="64" y2="42" gradientUnits="userSpaceOnUse">
							<stop stop-color="#4C5375" stop-opacity="0.6"/>
							<stop offset="1" stop-color="#1D2135" stop-opacity="0"/>
							</linearGradient>
							<linearGradient id="paint13_linear_2694_10103" x1="64" y1="16" x2="64" y2="42" gradientUnits="userSpaceOnUse">
							<stop stop-color="#4C5375" stop-opacity="0.6"/>
							<stop offset="1" stop-color="#1D2135" stop-opacity="0"/>
							</linearGradient>
							<linearGradient id="paint14_linear_2694_10103" x1="64" y1="16" x2="64" y2="42" gradientUnits="userSpaceOnUse">
							<stop stop-color="#4C5375" stop-opacity="0.6"/>
							<stop offset="1" stop-color="#1D2135" stop-opacity="0"/>
							</linearGradient>
							<radialGradient id="paint15_radial_2694_10103" cx="0" cy="0" r="1" gradientUnits="userSpaceOnUse" gradientTransform="translate(64 29) rotate(90) scale(11)">
							<stop stop-color="#1D2544"/>
							<stop offset="1" stop-color="#181C2D"/>
							</radialGradient>
							<linearGradient id="paint16_linear_2694_10103" x1="64" y1="29.2708" x2="64" y2="32.0545" gradientUnits="userSpaceOnUse">
							<stop stop-color="#EEEEEE"/>
							<stop offset="0.51" stop-color="#C8DCF5"/>
							<stop offset="1" stop-color="#CBD5E2"/>
							</linearGradient>
							<linearGradient id="paint17_linear_2694_10103" x1="60.8208" y1="30.7292" x2="60.8208" y2="31.1891" gradientUnits="userSpaceOnUse">
							<stop stop-color="#EEEEEE"/>
							<stop offset="0.51" stop-color="#C8DCF5"/>
							<stop offset="1" stop-color="#CBD5E2"/>
							</linearGradient>
							<linearGradient id="paint18_linear_2694_10103" x1="67.1802" y1="30.7292" x2="67.1802" y2="31.1891" gradientUnits="userSpaceOnUse">
							<stop stop-color="#EEEEEE"/>
							<stop offset="0.51" stop-color="#C8DCF5"/>
							<stop offset="1" stop-color="#CBD5E2"/>
							</linearGradient>
							<linearGradient id="paint19_linear_2694_10103" x1="59.2268" y1="24.669" x2="59.2268" y2="26.0536" gradientUnits="userSpaceOnUse">
							<stop stop-color="#EEEEEE"/>
							<stop offset="0.51" stop-color="#C8DCF5"/>
							<stop offset="1" stop-color="#CBD5E2"/>
							</linearGradient>
							<linearGradient id="paint20_linear_2694_10103" x1="68.7736" y1="24.669" x2="68.7736" y2="26.0536" gradientUnits="userSpaceOnUse">
							<stop stop-color="#EEEEEE"/>
							<stop offset="0.51" stop-color="#C8DCF5"/>
							<stop offset="1" stop-color="#CBD5E2"/>
							</linearGradient>
							<clipPath id="clip0_2694_10103">
							<rect width="15" height="16" fill="white" transform="translate(22 21)"/>
							</clipPath>
							</defs>
						</svg>