									<svg width="112" height="112" viewBox="0 0 112 112" fill="none" xmlns="http://www.w3.org/2000/svg">
										<rect x="0.25" y="0.25" width="111.5" height="111.5" rx="7.75" stroke="#212941" stroke-width="0.5"/>
										<mask id="path-2-inside-1_2805_3342" fill="white">
										<path fill-rule="evenodd" clip-rule="evenodd" d="M56 10C57.6569 10 59 8.65685 59 7C59 6.64936 58.9398 6.31278 58.8293 6H102C104.209 6 106 7.79086 106 10V14C104.343 14 103 15.3431 103 17C103 18.6569 104.343 20 106 20V24C104.343 24 103 25.3431 103 27C103 28.6569 104.343 30 106 30V82C104.343 82 103 83.3431 103 85C103 86.6569 104.343 88 106 88V92C104.343 92 103 93.3431 103 95C103 96.6569 104.343 98 106 98V102C106 104.209 104.209 106 102 106H59C59 104.343 57.6569 103 56 103C54.3431 103 53 104.343 53 106H10C7.79086 106 6 104.209 6 102V98C7.65685 98 9 96.6569 9 95C9 93.3431 7.65685 92 6 92V88C7.65685 88 9 86.6569 9 85C9 83.3431 7.65685 82 6 82V30C7.65685 30 9 28.6569 9 27C9 25.3431 7.65685 24 6 24V20C7.65685 20 9 18.6569 9 17C9 15.3431 7.65685 14 6 14V10C6 7.79086 7.79086 6 10 6H53.1707C53.0602 6.31278 53 6.64936 53 7C53 8.65685 54.3431 10 56 10Z"/>
										</mask>
										<path fill-rule="evenodd" clip-rule="evenodd" d="M56 10C57.6569 10 59 8.65685 59 7C59 6.64936 58.9398 6.31278 58.8293 6H102C104.209 6 106 7.79086 106 10V14C104.343 14 103 15.3431 103 17C103 18.6569 104.343 20 106 20V24C104.343 24 103 25.3431 103 27C103 28.6569 104.343 30 106 30V82C104.343 82 103 83.3431 103 85C103 86.6569 104.343 88 106 88V92C104.343 92 103 93.3431 103 95C103 96.6569 104.343 98 106 98V102C106 104.209 104.209 106 102 106H59C59 104.343 57.6569 103 56 103C54.3431 103 53 104.343 53 106H10C7.79086 106 6 104.209 6 102V98C7.65685 98 9 96.6569 9 95C9 93.3431 7.65685 92 6 92V88C7.65685 88 9 86.6569 9 85C9 83.3431 7.65685 82 6 82V30C7.65685 30 9 28.6569 9 27C9 25.3431 7.65685 24 6 24V20C7.65685 20 9 18.6569 9 17C9 15.3431 7.65685 14 6 14V10C6 7.79086 7.79086 6 10 6H53.1707C53.0602 6.31278 53 6.64936 53 7C53 8.65685 54.3431 10 56 10Z" fill="url(#paint0_linear_2805_3342)"/>
										<path d="M58.8293 6V5.5H58.1223L58.3579 6.16662L58.8293 6ZM106 14V14.5H106.5V14H106ZM106 20H106.5V19.5H106V20ZM106 24V24.5H106.5V24H106ZM106 30H106.5V29.5H106V30ZM106 82V82.5H106.5V82H106ZM106 88H106.5V87.5H106V88ZM106 92V92.5H106.5V92H106ZM106 98H106.5V97.5H106V98ZM59 106H58.5V106.5H59V106ZM53 106V106.5H53.5V106H53ZM6 98V97.5H5.5V98H6ZM6 92H5.5V92.5H6V92ZM6 88V87.5H5.5V88H6ZM6 82H5.5V82.5H6V82ZM6 30V29.5H5.5V30H6ZM6 24H5.5V24.5H6V24ZM6 20V19.5H5.5V20H6ZM6 14H5.5V14.5H6V14ZM53.1707 6L53.6421 6.16662L53.8777 5.5H53.1707V6ZM58.5 7C58.5 8.38071 57.3807 9.5 56 9.5V10.5C57.933 10.5 59.5 8.933 59.5 7H58.5ZM58.3579 6.16662C58.4498 6.42663 58.5 6.70691 58.5 7H59.5C59.5 6.59182 59.4299 6.19892 59.3007 5.83338L58.3579 6.16662ZM102 5.5H58.8293V6.5H102V5.5ZM106.5 10C106.5 7.51472 104.485 5.5 102 5.5V6.5C103.933 6.5 105.5 8.067 105.5 10H106.5ZM106.5 14V10H105.5V14H106.5ZM103.5 17C103.5 15.6193 104.619 14.5 106 14.5V13.5C104.067 13.5 102.5 15.067 102.5 17H103.5ZM106 19.5C104.619 19.5 103.5 18.3807 103.5 17H102.5C102.5 18.933 104.067 20.5 106 20.5V19.5ZM106.5 24V20H105.5V24H106.5ZM103.5 27C103.5 25.6193 104.619 24.5 106 24.5V23.5C104.067 23.5 102.5 25.067 102.5 27H103.5ZM106 29.5C104.619 29.5 103.5 28.3807 103.5 27H102.5C102.5 28.933 104.067 30.5 106 30.5V29.5ZM106.5 82V30H105.5V82H106.5ZM103.5 85C103.5 83.6193 104.619 82.5 106 82.5V81.5C104.067 81.5 102.5 83.067 102.5 85H103.5ZM106 87.5C104.619 87.5 103.5 86.3807 103.5 85H102.5C102.5 86.933 104.067 88.5 106 88.5V87.5ZM106.5 92V88H105.5V92H106.5ZM103.5 95C103.5 93.6193 104.619 92.5 106 92.5V91.5C104.067 91.5 102.5 93.067 102.5 95H103.5ZM106 97.5C104.619 97.5 103.5 96.3807 103.5 95H102.5C102.5 96.933 104.067 98.5 106 98.5V97.5ZM106.5 102V98H105.5V102H106.5ZM102 106.5C104.485 106.5 106.5 104.485 106.5 102H105.5C105.5 103.933 103.933 105.5 102 105.5V106.5ZM59 106.5H102V105.5H59V106.5ZM56 103.5C57.3807 103.5 58.5 104.619 58.5 106H59.5C59.5 104.067 57.933 102.5 56 102.5V103.5ZM53.5 106C53.5 104.619 54.6193 103.5 56 103.5V102.5C54.067 102.5 52.5 104.067 52.5 106H53.5ZM10 106.5H53V105.5H10V106.5ZM5.5 102C5.5 104.485 7.51472 106.5 10 106.5V105.5C8.06701 105.5 6.5 103.933 6.5 102H5.5ZM5.5 98V102H6.5V98H5.5ZM8.5 95C8.5 96.3807 7.38071 97.5 6 97.5V98.5C7.933 98.5 9.5 96.933 9.5 95H8.5ZM6 92.5C7.38071 92.5 8.5 93.6193 8.5 95H9.5C9.5 93.067 7.933 91.5 6 91.5V92.5ZM5.5 88V92H6.5V88H5.5ZM8.5 85C8.5 86.3807 7.38071 87.5 6 87.5V88.5C7.933 88.5 9.5 86.933 9.5 85H8.5ZM6 82.5C7.38071 82.5 8.5 83.6193 8.5 85H9.5C9.5 83.067 7.933 81.5 6 81.5V82.5ZM5.5 30V82H6.5V30H5.5ZM8.5 27C8.5 28.3807 7.38071 29.5 6 29.5V30.5C7.933 30.5 9.5 28.933 9.5 27H8.5ZM6 24.5C7.38071 24.5 8.5 25.6193 8.5 27H9.5C9.5 25.067 7.933 23.5 6 23.5V24.5ZM5.5 20V24H6.5V20H5.5ZM8.5 17C8.5 18.3807 7.38071 19.5 6 19.5V20.5C7.933 20.5 9.5 18.933 9.5 17H8.5ZM6 14.5C7.38071 14.5 8.5 15.6193 8.5 17H9.5C9.5 15.067 7.933 13.5 6 13.5V14.5ZM5.5 10V14H6.5V10H5.5ZM10 5.5C7.51472 5.5 5.5 7.51472 5.5 10H6.5C6.5 8.06701 8.067 6.5 10 6.5V5.5ZM53.1707 5.5H10V6.5H53.1707V5.5ZM53.5 7C53.5 6.70691 53.5502 6.42663 53.6421 6.16662L52.6993 5.83338C52.5701 6.19892 52.5 6.59182 52.5 7H53.5ZM56 9.5C54.6193 9.5 53.5 8.38071 53.5 7H52.5C52.5 8.933 54.067 10.5 56 10.5V9.5Z" fill="#323F5F" mask="url(#path-2-inside-1_2805_3342)"/>
										<rect x="18.5" y="18.5" width="75" height="75" rx="8.5" stroke="url(#paint1_linear_2805_3342)"/>
										<rect x="19" y="19" width="74" height="74" rx="8" fill="#070917"/>
										<rect x="19" y="19" width="74" height="74" rx="8" fill="#070917"/>
										<rect x="21" y="21" width="70" height="70" rx="6" fill="#1F2338"/>
										<rect x="50.75" y="74.75" width="2.5" height="2.5" fill="url(#paint2_linear_2805_3342)" stroke="url(#paint3_linear_2805_3342)" stroke-width="0.5"/>
										<rect x="55.75" y="74.75" width="2.5" height="2.5" fill="url(#paint4_linear_2805_3342)" stroke="url(#paint5_linear_2805_3342)" stroke-width="0.5"/>
										<rect x="60.75" y="74.75" width="2.5" height="2.5" fill="url(#paint6_linear_2805_3342)" stroke="url(#paint7_linear_2805_3342)" stroke-width="0.5"/>
										<path d="M32.25 55C32.25 49.0629 37.0629 44.25 43 44.25H70C75.9371 44.25 80.75 49.0629 80.75 55C80.75 60.9371 75.9371 65.75 70 65.75H43C37.0629 65.75 32.25 60.9371 32.25 55Z" fill="url(#paint8_linear_2805_3342)" stroke="url(#paint9_linear_2805_3342)" stroke-width="0.5"/>
									
										<rect x="42.25" y="27.25" width="27.5" height="2.5" rx="1.25" fill="url(#paint12_linear_2805_3342)" stroke="url(#paint13_linear_2805_3342)" stroke-width="0.5"/>
										<circle cx="84.5" cy="28.5" r="1.75" fill="url(#paint14_linear_2805_3342)" stroke="url(#paint15_linear_2805_3342)" stroke-width="0.5"/>
										<circle cx="27.5" cy="28.5" r="1.75" fill="url(#paint16_linear_2805_3342)" stroke="url(#paint17_linear_2805_3342)" stroke-width="0.5"/>
										<rect x="42.25" y="82.25" width="27.5" height="2.5" rx="1.25" fill="url(#paint18_linear_2805_3342)" stroke="url(#paint19_linear_2805_3342)" stroke-width="0.5"/>
										<circle cx="84.5" cy="83.5" r="1.75" fill="url(#paint20_linear_2805_3342)" stroke="url(#paint21_linear_2805_3342)" stroke-width="0.5"/>
										<circle cx="27.5" cy="83.5" r="1.75" fill="url(#paint22_linear_2805_3342)" stroke="url(#paint23_linear_2805_3342)" stroke-width="0.5"/>
										<defs>
										<linearGradient id="paint0_linear_2805_3342" x1="56" y1="6" x2="56" y2="106" gradientUnits="userSpaceOnUse">
										<stop stop-color="#1C2138"/>
										<stop offset="1" stop-color="#15182A"/>
										</linearGradient>
										<linearGradient id="paint1_linear_2805_3342" x1="56" y1="46.0476" x2="56" y2="73.6429" gradientUnits="userSpaceOnUse">
										<stop stop-color="#9CBCED"/>
										<stop offset="0.51" stop-color="#9CC3F2"/>
										<stop offset="1" stop-color="#82B4F0"/>
										</linearGradient>
										<linearGradient id="paint2_linear_2805_3342" x1="52.6667" y1="73.3333" x2="51.3333" y2="77.6667" gradientUnits="userSpaceOnUse">
										<stop stop-color="#222A4A"/>
										<stop offset="1" stop-color="#262E4B"/>
										</linearGradient>
										<linearGradient id="paint3_linear_2805_3342" x1="51.3333" y1="73.6667" x2="51" y2="78.3333" gradientUnits="userSpaceOnUse">
										<stop stop-color="#3A4162"/>
										<stop offset="1" stop-color="#252E54"/>
										</linearGradient>
										<linearGradient id="paint4_linear_2805_3342" x1="57.6667" y1="73.3333" x2="56.3333" y2="77.6667" gradientUnits="userSpaceOnUse">
										<stop stop-color="#222A4A"/>
										<stop offset="1" stop-color="#262E4B"/>
										</linearGradient>
										<linearGradient id="paint5_linear_2805_3342" x1="56.3333" y1="73.6667" x2="56" y2="78.3333" gradientUnits="userSpaceOnUse">
										<stop stop-color="#3A4162"/>
										<stop offset="1" stop-color="#252E54"/>
										</linearGradient>
										<linearGradient id="paint6_linear_2805_3342" x1="62.6667" y1="73.3333" x2="61.3333" y2="77.6667" gradientUnits="userSpaceOnUse">
										<stop stop-color="#222A4A"/>
										<stop offset="1" stop-color="#262E4B"/>
										</linearGradient>
										<linearGradient id="paint7_linear_2805_3342" x1="61.3333" y1="73.6667" x2="61" y2="78.3333" gradientUnits="userSpaceOnUse">
										<stop stop-color="#3A4162"/>
										<stop offset="1" stop-color="#252E54"/>
										</linearGradient>
										<linearGradient id="paint8_linear_2805_3342" x1="56.5" y1="20.3077" x2="56.5" y2="89.6923" gradientUnits="userSpaceOnUse">
										<stop stop-color="#191D2E"/>
										<stop offset="0.494234" stop-color="#181B29"/>
										<stop offset="1" stop-color="#191D2E"/>
										</linearGradient>
										<linearGradient id="paint9_linear_2805_3342" x1="56.5" y1="44" x2="56.5" y2="66" gradientUnits="userSpaceOnUse">
										<stop stop-color="#202639"/>
										<stop offset="1" stop-color="#242D46"/>
										</linearGradient>
										<linearGradient id="paint10_linear_2805_3342" x1="62.5" y1="38.2609" x2="56.9912" y2="66.0972" gradientUnits="userSpaceOnUse">
										<stop stop-color="#323D5E"/>
										<stop offset="1" stop-color="#212435"/>
										</linearGradient>
										<linearGradient id="paint11_linear_2805_3342" x1="56" y1="52.6429" x2="56" y2="59.1786" gradientUnits="userSpaceOnUse">
										<stop stop-color="#EEEEEE"/>
										<stop offset="0.51" stop-color="#C8DCF5"/>
										<stop offset="1" stop-color="#CBD5E2"/>
										</linearGradient>
										<linearGradient id="paint12_linear_2805_3342" x1="56" y1="23.7692" x2="56" y2="33.2308" gradientUnits="userSpaceOnUse">
										<stop stop-color="#191D2E"/>
										<stop offset="0.494234" stop-color="#181B29"/>
										<stop offset="1" stop-color="#191D2E"/>
										</linearGradient>
										<linearGradient id="paint13_linear_2805_3342" x1="56" y1="27" x2="56" y2="29.5" gradientUnits="userSpaceOnUse">
										<stop stop-color="#1D202F" stop-opacity="0"/>
										<stop offset="1" stop-color="#242C45"/>
										</linearGradient>
										<linearGradient id="paint14_linear_2805_3342" x1="84.5" y1="23.7692" x2="84.5" y2="33.2308" gradientUnits="userSpaceOnUse">
										<stop stop-color="#191D2E"/>
										<stop offset="0.494234" stop-color="#181B29"/>
										<stop offset="1" stop-color="#191D2E"/>
										</linearGradient>
										<linearGradient id="paint15_linear_2805_3342" x1="84.5" y1="27" x2="84.5" y2="29.5" gradientUnits="userSpaceOnUse">
										<stop stop-color="#1D202F" stop-opacity="0"/>
										<stop offset="1" stop-color="#242C45"/>
										</linearGradient>
										<linearGradient id="paint16_linear_2805_3342" x1="27.5" y1="23.7692" x2="27.5" y2="33.2308" gradientUnits="userSpaceOnUse">
										<stop stop-color="#191D2E"/>
										<stop offset="0.494234" stop-color="#181B29"/>
										<stop offset="1" stop-color="#191D2E"/>
										</linearGradient>
										<linearGradient id="paint17_linear_2805_3342" x1="27.5" y1="27" x2="27.5" y2="29.5" gradientUnits="userSpaceOnUse">
										<stop stop-color="#1D202F" stop-opacity="0"/>
										<stop offset="1" stop-color="#242C45"/>
										</linearGradient>
										<linearGradient id="paint18_linear_2805_3342" x1="56" y1="78.7692" x2="56" y2="88.2308" gradientUnits="userSpaceOnUse">
										<stop stop-color="#191D2E"/>
										<stop offset="0.494234" stop-color="#181B29"/>
										<stop offset="1" stop-color="#191D2E"/>
										</linearGradient>
										<linearGradient id="paint19_linear_2805_3342" x1="56" y1="82" x2="56" y2="84.5" gradientUnits="userSpaceOnUse">
										<stop stop-color="#1D202F" stop-opacity="0"/>
										<stop offset="1" stop-color="#242C45"/>
										</linearGradient>
										<linearGradient id="paint20_linear_2805_3342" x1="84.5" y1="78.7692" x2="84.5" y2="88.2308" gradientUnits="userSpaceOnUse">
										<stop stop-color="#191D2E"/>
										<stop offset="0.494234" stop-color="#181B29"/>
										<stop offset="1" stop-color="#191D2E"/>
										</linearGradient>
										<linearGradient id="paint21_linear_2805_3342" x1="84.5" y1="82" x2="84.5" y2="84.5" gradientUnits="userSpaceOnUse">
										<stop stop-color="#1D202F" stop-opacity="0"/>
										<stop offset="1" stop-color="#242C45"/>
										</linearGradient>
										<linearGradient id="paint22_linear_2805_3342" x1="27.5" y1="78.7692" x2="27.5" y2="88.2308" gradientUnits="userSpaceOnUse">
										<stop stop-color="#191D2E"/>
										<stop offset="0.494234" stop-color="#181B29"/>
										<stop offset="1" stop-color="#191D2E"/>
										</linearGradient>
										<linearGradient id="paint23_linear_2805_3342" x1="27.5" y1="82" x2="27.5" y2="84.5" gradientUnits="userSpaceOnUse">
										<stop stop-color="#1D202F" stop-opacity="0"/>
										<stop offset="1" stop-color="#242C45"/>
										</linearGradient>
										</defs>
									</svg>