									<svg width="136" height="114" viewBox="0 0 136 114" fill="none" xmlns="http://www.w3.org/2000/svg">
										<rect x="8" y="8" width="120" height="98" rx="5" fill="#1D2135"/>
										<circle cx="68" cy="39" r="14.75" fill="#2F3558" stroke="url(#paint0_linear_2805_3301)" stroke-width="0.5"/>
										<circle cx="68" cy="39" r="12.25" fill="url(#paint1_radial_2805_3301)" stroke="url(#paint2_linear_2805_3301)" stroke-width="0.5"/>
										<g opacity="0.1" filter="url(#filter0_f_2805_3301)">
										<path d="M60.4453 34.6875H62.3208L64.7823 43.4443L67.322 34.6875H69.5686L72.1279 43.4443L74.5503 34.6875H76.4453L73.2414 45.0579H70.9752L68.4355 36.6553L65.8959 45.0579H63.6492L60.4453 34.6875Z" fill="#232A3C"/>
										</g>
										<path d="M60.4453 34.6875H62.3208L64.7823 43.4443L67.322 34.6875H69.5686L72.1279 43.4443L74.5503 34.6875H76.4453L73.2414 45.0579H70.9752L68.4355 36.6553L65.8959 45.0579H63.6492L60.4453 34.6875Z" fill="#242A3C"/>
										<path d="M60.4453 34.6875H62.3208L64.7823 43.4443L67.322 34.6875H69.5686L72.1279 43.4443L74.5503 34.6875H76.4453L73.2414 45.0579H70.9752L68.4355 36.6553L65.8959 45.0579H63.6492L60.4453 34.6875Z" stroke="#212941"/>
										<mask id="mask0_2805_3301" style="mask-type:alpha" maskUnits="userSpaceOnUse" x="60" y="34" width="17" height="12">
										<path d="M60.4453 34.6875H62.3208L64.7823 43.4443L67.322 34.6875H69.5686L72.1279 43.4443L74.5503 34.6875H76.4453L73.2414 45.0579H70.9752L68.4355 36.6553L65.8959 45.0579H63.6492L60.4453 34.6875Z" fill="#131827"/>
										<path d="M60.4453 34.6875H62.3208L64.7823 43.4443L67.322 34.6875H69.5686L72.1279 43.4443L74.5503 34.6875H76.4453L73.2414 45.0579H70.9752L68.4355 36.6553L65.8959 45.0579H63.6492L60.4453 34.6875Z" stroke="#212941"/>
										</mask>
										<g mask="url(#mask0_2805_3301)">
										<g filter="url(#filter1_f_2805_3301)">
										<circle cx="66.417" cy="45.7959" r="2.51852" fill="url(#paint3_linear_2805_3301)"/>
										</g>
										<g filter="url(#filter2_f_2805_3301)">
										<circle cx="62.2181" cy="34.1946" r="1.67901" fill="url(#paint4_linear_2805_3301)"/>
										</g>
										<g filter="url(#filter3_f_2805_3301)">
										<circle cx="76.5462" cy="34.2884" r="1.67901" fill="url(#paint5_linear_2805_3301)"/>
										</g>
										<g filter="url(#filter4_f_2805_3301)">
										<circle cx="68.1478" cy="33.304" r="1.67901" fill="url(#paint6_linear_2805_3301)"/>
										</g>
										</g>
										<rect x="16" y="78" width="104" height="16" rx="2" fill="url(#paint7_linear_2805_3301)"/>
										<path d="M48.3675 85.6042C48.6731 85.9861 48.8154 86.4236 48.7946 86.9167C48.7738 87.4167 48.614 87.8403 48.3154 88.1875C48.0168 88.5347 47.6453 88.7708 47.2008 88.8958C46.9717 88.9653 46.621 89 46.1488 89H43.4821V81.5H46.0133C46.4925 81.5 46.8085 81.5243 46.9613 81.5729C47.371 81.684 47.7078 81.9028 47.9717 82.2292C48.2425 82.5278 48.3953 82.9167 48.43 83.3958C48.4578 83.8194 48.3258 84.2187 48.0342 84.5937C47.93 84.7396 47.812 84.8681 47.68 84.9792C47.9508 85.1319 48.18 85.3403 48.3675 85.6042ZM46.3675 82.2292H44.2529V84.6979H46.3675C46.5481 84.6979 46.7356 84.6493 46.93 84.5521C47.1245 84.4549 47.2807 84.3264 47.3988 84.1667C47.5654 83.9167 47.6453 83.6597 47.6383 83.3958C47.6383 83.1042 47.5307 82.8437 47.3154 82.6146C47.0654 82.3576 46.7495 82.2292 46.3675 82.2292ZM47.6279 87.8229C47.8779 87.559 48.0029 87.2569 48.0029 86.9167C48.0029 86.5694 47.9022 86.2639 47.7008 86C47.5758 85.8194 47.4057 85.6806 47.1904 85.5833C46.9821 85.4792 46.7703 85.4271 46.555 85.4271H44.2529V88.2604H46.1383C46.43 88.2604 46.6349 88.2569 46.7529 88.25C46.871 88.2431 47.0133 88.2083 47.18 88.1458C47.3536 88.0764 47.5029 87.9687 47.6279 87.8229ZM54.3063 89H53.6188V88.0937C53.1605 88.8021 52.4209 89.1562 51.4001 89.1562C50.8584 89.1562 50.414 89.0035 50.0667 88.6979C49.7265 88.3854 49.5563 87.9722 49.5563 87.4583C49.5563 86.7569 49.8862 86.2396 50.5459 85.9062C50.7056 85.8229 50.9105 85.75 51.1605 85.6875C51.4174 85.6181 51.6327 85.5694 51.8063 85.5417C51.9869 85.5069 52.2785 85.4618 52.6813 85.4062C53.0841 85.3507 53.3653 85.309 53.5251 85.2812C53.5181 84.8437 53.3827 84.5139 53.1188 84.2917C52.8549 84.0694 52.5042 83.9583 52.0667 83.9583C51.3723 83.9583 50.8237 84.2049 50.4209 84.6979L49.9209 84.1771C50.4556 83.5382 51.2021 83.2187 52.1605 83.2187C52.7369 83.2187 53.2265 83.3958 53.6292 83.75C54.0806 84.1319 54.3063 84.7257 54.3063 85.5312V89ZM53.3167 87.5104C53.414 87.316 53.4765 87.1111 53.5042 86.8958C53.532 86.6736 53.5459 86.3507 53.5459 85.9271C52.5042 86.0868 51.8549 86.1979 51.598 86.2604C51.223 86.3368 50.9174 86.4722 50.6813 86.6667C50.4452 86.8611 50.3271 87.1007 50.3271 87.3854C50.3271 87.7118 50.4383 87.9757 50.6605 88.1771C50.8827 88.3715 51.1709 88.4687 51.5251 88.4687C52.3862 88.4687 52.9834 88.1493 53.3167 87.5104ZM55.6598 89V83.375H56.3682V88.2708H58.4515V83.375H59.1598V88.2708H61.2432V83.375H61.9515V89H55.6598ZM70.0687 83.375V84.0833H68.0687V89H67.3083V84.0833H65.3083V83.375H70.0687ZM75.2406 88.2396C74.7614 88.8507 74.0843 89.1562 73.2093 89.1562C72.3343 89.1562 71.6572 88.8507 71.1781 88.2396C70.7544 87.7118 70.5426 87.0243 70.5426 86.1771C70.5426 85.3368 70.7544 84.6528 71.1781 84.125C71.4072 83.8333 71.6989 83.6111 72.0531 83.4583C72.4142 83.2986 72.7996 83.2187 73.2093 83.2187C74.0843 83.2187 74.7614 83.5208 75.2406 84.125C75.6642 84.6597 75.876 85.3437 75.876 86.1771C75.876 87.0035 75.6642 87.691 75.2406 88.2396ZM74.626 87.7708C74.9176 87.3958 75.0635 86.8646 75.0635 86.1771C75.0635 85.4965 74.9176 84.9687 74.626 84.5937C74.2996 84.1632 73.8274 83.9479 73.2093 83.9479C72.5774 83.9479 72.1051 84.1632 71.7926 84.5937C71.501 84.9687 71.3551 85.4965 71.3551 86.1771C71.3551 86.8646 71.501 87.3958 71.7926 87.7708C72.1121 88.2083 72.5843 88.4271 73.2093 88.4271C73.8204 88.4271 74.2926 88.2083 74.626 87.7708ZM77.0173 83.3854L79.736 83.375C80.2291 83.375 80.6249 83.5278 80.9235 83.8333C81.2429 84.1181 81.4027 84.4896 81.4027 84.9479C81.4027 85.309 81.295 85.6181 81.0798 85.875C81.0242 85.9444 80.9582 86.0139 80.8818 86.0833C81.0554 86.1875 81.1943 86.3056 81.2985 86.4375C81.5624 86.7153 81.6943 87.0451 81.6943 87.4271C81.6943 87.9062 81.5103 88.3021 81.1423 88.6146C80.8436 88.8715 80.4791 89 80.0485 89H77.0173V83.3854ZM77.7881 84.0312V85.8646H79.736C80.0138 85.8646 80.2395 85.7604 80.4131 85.5521C80.552 85.3715 80.6214 85.1701 80.6214 84.9479C80.6075 84.7187 80.5381 84.5208 80.4131 84.3542C80.2325 84.1389 80.0068 84.0312 79.736 84.0312H77.7881ZM77.7881 86.5208V88.3437H79.9443C80.236 88.3437 80.4721 88.2535 80.6527 88.0729C80.8054 87.9201 80.8888 87.7049 80.9027 87.4271C80.9166 87.184 80.8332 86.9722 80.6527 86.7917C80.4721 86.6111 80.2013 86.5208 79.8402 86.5208H77.7881ZM87.2751 89H86.5876V88.0937C86.1292 88.8021 85.3896 89.1562 84.3688 89.1562C83.8271 89.1562 83.3827 89.0035 83.0355 88.6979C82.6952 88.3854 82.5251 87.9722 82.5251 87.4583C82.5251 86.7569 82.8549 86.2396 83.5146 85.9062C83.6744 85.8229 83.8792 85.75 84.1292 85.6875C84.3862 85.6181 84.6015 85.5694 84.7751 85.5417C84.9556 85.5069 85.2473 85.4618 85.6501 85.4062C86.0528 85.3507 86.3341 85.309 86.4938 85.2812C86.4869 84.8437 86.3515 84.5139 86.0876 84.2917C85.8237 84.0694 85.473 83.9583 85.0355 83.9583C84.341 83.9583 83.7924 84.2049 83.3896 84.6979L82.8896 84.1771C83.4244 83.5382 84.1709 83.2187 85.1292 83.2187C85.7056 83.2187 86.1952 83.3958 86.598 83.75C87.0494 84.1319 87.2751 84.7257 87.2751 85.5312V89ZM86.2855 87.5104C86.3827 87.316 86.4452 87.1111 86.473 86.8958C86.5008 86.6736 86.5146 86.3507 86.5146 85.9271C85.473 86.0868 84.8237 86.1979 84.5667 86.2604C84.1917 86.3368 83.8862 86.4722 83.6501 86.6667C83.414 86.8611 83.2959 87.1007 83.2959 87.3854C83.2959 87.7118 83.407 87.9757 83.6292 88.1771C83.8515 88.3715 84.1396 88.4687 84.4938 88.4687C85.3549 88.4687 85.9521 88.1493 86.2855 87.5104ZM93.2119 84.125C93.6216 84.6458 93.8265 85.3299 93.8265 86.1771C93.8265 87.0312 93.6216 87.7222 93.2119 88.25C92.7327 88.8542 92.0834 89.1562 91.264 89.1562C90.4584 89.1562 89.8369 88.8785 89.3994 88.3229V91.5H88.6286V83.375H89.3161V84.1354C89.5383 83.8437 89.823 83.6181 90.1702 83.4583C90.5244 83.2986 90.8994 83.2187 91.2952 83.2187C92.1077 83.2187 92.7466 83.5208 93.2119 84.125ZM92.5973 87.7708C92.8751 87.4028 93.014 86.8715 93.014 86.1771C93.014 85.5035 92.8716 84.9757 92.5869 84.5937C92.2675 84.1493 91.7952 83.9271 91.1702 83.9271C90.5591 83.9271 90.0939 84.1354 89.7744 84.5521C89.4689 84.941 89.3161 85.4826 89.3161 86.1771C89.3161 86.8854 89.4689 87.4306 89.7744 87.8125C90.1008 88.2361 90.5696 88.4479 91.1807 88.4479C91.7987 88.4479 92.2709 88.2222 92.5973 87.7708Z" fill="#323F5F"/>
										<rect x="16.25" y="58.25" width="103.5" height="15.5" rx="1.75" fill="url(#paint8_linear_2805_3301)" stroke="url(#paint9_linear_2805_3301)" stroke-width="0.5"/>
										<path d="M23.5 69.5C25.7091 69.5 27.5 67.7091 27.5 65.5C27.5 63.2909 25.7091 61.5 23.5 61.5C21.2909 61.5 19.5 63.2909 19.5 65.5C19.5 67.7091 21.2909 69.5 23.5 69.5Z" stroke="#8B9FCE" stroke-linecap="round" stroke-linejoin="round"/>
										<path d="M28.4992 70.4992L26.3242 68.3242" stroke="#8B9FCE" stroke-linecap="round" stroke-linejoin="round"/>
										<rect x="6.5" y="6.5" width="123" height="101" rx="6.5" stroke="url(#paint10_linear_2805_3301)"/>
										<path d="M0.25 8C0.25 3.71979 3.71979 0.25 8 0.25H128C132.28 0.25 135.75 3.71979 135.75 8V106C135.75 110.28 132.28 113.75 128 113.75H8C3.71979 113.75 0.25 110.28 0.25 106V8Z" stroke="#323F5F" stroke-width="0.5"/>
										<defs>
										<filter id="filter0_f_2805_3301" x="30.4453" y="4.6875" width="76" height="70.3711" filterUnits="userSpaceOnUse" color-interpolation-filters="sRGB">
										<feFlood flood-opacity="0" result="BackgroundImageFix"/>
										<feBlend mode="normal" in="SourceGraphic" in2="BackgroundImageFix" result="shape"/>
										<feGaussianBlur stdDeviation="15" result="effect1_foregroundBlur_2805_3301"/>
										</filter>
										<filter id="filter1_f_2805_3301" x="-96.1016" y="-116.723" width="325.035" height="325.035" filterUnits="userSpaceOnUse" color-interpolation-filters="sRGB">
										<feFlood flood-opacity="0" result="BackgroundImageFix"/>
										<feBlend mode="normal" in="SourceGraphic" in2="BackgroundImageFix" result="shape"/>
										<feGaussianBlur stdDeviation="80" result="effect1_foregroundBlur_2805_3301"/>
										</filter>
										<filter id="filter2_f_2805_3301" x="16.5391" y="-11.4844" width="91.3594" height="91.3594" filterUnits="userSpaceOnUse" color-interpolation-filters="sRGB">
										<feFlood flood-opacity="0" result="BackgroundImageFix"/>
										<feBlend mode="normal" in="SourceGraphic" in2="BackgroundImageFix" result="shape"/>
										<feGaussianBlur stdDeviation="22" result="effect1_foregroundBlur_2805_3301"/>
										</filter>
										<filter id="filter3_f_2805_3301" x="30.8672" y="-11.3906" width="91.3594" height="91.3594" filterUnits="userSpaceOnUse" color-interpolation-filters="sRGB">
										<feFlood flood-opacity="0" result="BackgroundImageFix"/>
										<feBlend mode="normal" in="SourceGraphic" in2="BackgroundImageFix" result="shape"/>
										<feGaussianBlur stdDeviation="22" result="effect1_foregroundBlur_2805_3301"/>
										</filter>
										<filter id="filter4_f_2805_3301" x="22.4688" y="-12.375" width="91.3594" height="91.3594" filterUnits="userSpaceOnUse" color-interpolation-filters="sRGB">
										<feFlood flood-opacity="0" result="BackgroundImageFix"/>
										<feBlend mode="normal" in="SourceGraphic" in2="BackgroundImageFix" result="shape"/>
										<feGaussianBlur stdDeviation="22" result="effect1_foregroundBlur_2805_3301"/>
										</filter>
										<linearGradient id="paint0_linear_2805_3301" x1="68" y1="24" x2="68" y2="54" gradientUnits="userSpaceOnUse">
										<stop stop-color="#212941"/>
										<stop offset="1" stop-color="#3B435C"/>
										</linearGradient>
										<radialGradient id="paint1_radial_2805_3301" cx="0" cy="0" r="1" gradientUnits="userSpaceOnUse" gradientTransform="translate(68 36.7059) rotate(-104.328) scale(75.5865 122.806)">
										<stop stop-color="white"/>
										<stop offset="0.51" stop-color="#318BF8"/>
										<stop offset="1" stop-color="white"/>
										<stop offset="1" stop-color="#318EFE"/>
										</radialGradient>
										<linearGradient id="paint2_linear_2805_3301" x1="69.0588" y1="27" x2="69.4118" y2="51.3529" gradientUnits="userSpaceOnUse">
										<stop stop-color="#EEEEEE"/>
										<stop offset="0.470342" stop-color="#81B6F6"/>
										<stop offset="1" stop-color="#CBD5E2"/>
										</linearGradient>
										<linearGradient id="paint3_linear_2805_3301" x1="66.417" y1="45.1363" x2="66.417" y2="46.9652" gradientUnits="userSpaceOnUse">
										<stop stop-color="#EEEEEE"/>
										<stop offset="0.51" stop-color="#C8DCF5"/>
										<stop offset="1" stop-color="#CBD5E2"/>
										</linearGradient>
										<linearGradient id="paint4_linear_2805_3301" x1="62.2181" y1="33.7549" x2="62.2181" y2="34.9742" gradientUnits="userSpaceOnUse">
										<stop stop-color="#EEEEEE"/>
										<stop offset="0.51" stop-color="#C8DCF5"/>
										<stop offset="1" stop-color="#CBD5E2"/>
										</linearGradient>
										<linearGradient id="paint5_linear_2805_3301" x1="76.5462" y1="33.8486" x2="76.5462" y2="35.0679" gradientUnits="userSpaceOnUse">
										<stop stop-color="#EEEEEE"/>
										<stop offset="0.51" stop-color="#C8DCF5"/>
										<stop offset="1" stop-color="#CBD5E2"/>
										</linearGradient>
										<linearGradient id="paint6_linear_2805_3301" x1="68.1478" y1="32.8643" x2="68.1478" y2="34.0836" gradientUnits="userSpaceOnUse">
										<stop stop-color="#EEEEEE"/>
										<stop offset="0.51" stop-color="#C8DCF5"/>
										<stop offset="1" stop-color="#CBD5E2"/>
										</linearGradient>
										<linearGradient id="paint7_linear_2805_3301" x1="68" y1="60.7692" x2="68" y2="111.231" gradientUnits="userSpaceOnUse">
										<stop stop-color="#191D2E"/>
										<stop offset="0.494234" stop-color="#191B2A"/>
										<stop offset="1" stop-color="#191D2E"/>
										</linearGradient>
										<linearGradient id="paint8_linear_2805_3301" x1="68" y1="40.7692" x2="68" y2="91.2308" gradientUnits="userSpaceOnUse">
										<stop stop-color="#191D2E"/>
										<stop offset="0.494234" stop-color="#191B2A"/>
										<stop offset="1" stop-color="#191D2E"/>
										</linearGradient>
										<linearGradient id="paint9_linear_2805_3301" x1="68" y1="58" x2="68" y2="74" gradientUnits="userSpaceOnUse">
										<stop stop-color="#202639"/>
										<stop offset="1" stop-color="#242D46"/>
										</linearGradient>
										<linearGradient id="paint10_linear_2805_3301" x1="68" y1="43.6429" x2="68" y2="80.6786" gradientUnits="userSpaceOnUse">
										<stop stop-color="#9CBCED"/>
										<stop offset="0.51" stop-color="#9CC3F2"/>
										<stop offset="1" stop-color="#82B4F0"/>
										</linearGradient>
										</defs>
									</svg>