									<svg width="97" height="80" viewBox="0 0 97 80" fill="none" xmlns="http://www.w3.org/2000/svg">
										<rect x="0.25" y="0.25" width="96.5" height="79.5" rx="7.75" stroke="#212941" stroke-width="0.5"/>
										<rect x="6.5" y="6.5" width="83" height="67" rx="6.5" stroke="url(#paint0_linear_2805_3097)"/>
										<rect x="7" y="7" width="82" height="66" rx="6" fill="#1F2338"/>
										<rect opacity="0.3" x="13" y="26" width="72" height="2" rx="1" fill="url(#paint1_linear_2805_3097)"/>
										<rect x="34.25" y="13.25" width="27.5" height="2.5" rx="1.25" fill="url(#paint2_linear_2805_3097)" stroke="url(#paint3_linear_2805_3097)" stroke-width="0.5"/>
										<circle cx="76.5" cy="14.5" r="1.75" fill="url(#paint4_linear_2805_3097)" stroke="url(#paint5_linear_2805_3097)" stroke-width="0.5"/>
										<circle cx="19.5" cy="14.5" r="1.75" fill="url(#paint6_linear_2805_3097)" stroke="url(#paint7_linear_2805_3097)" stroke-width="0.5"/>
										<rect opacity="0.3" x="85" y="54" width="72" height="2" rx="1" transform="rotate(180 85 54)" fill="url(#paint8_linear_2805_3097)"/>
										<rect x="34.25" y="64.25" width="27.5" height="2.5" rx="1.25" fill="url(#paint9_linear_2805_3097)" stroke="url(#paint10_linear_2805_3097)" stroke-width="0.5"/>
										<circle cx="76.5" cy="65.5" r="1.75" fill="url(#paint11_linear_2805_3097)" stroke="url(#paint12_linear_2805_3097)" stroke-width="0.5"/>
										<circle cx="19.5" cy="65.5" r="1.75" fill="url(#paint13_linear_2805_3097)" stroke="url(#paint14_linear_2805_3097)" stroke-width="0.5"/>
										<!-- <path opacity="0.3" d="M17.5 34H72.5L80 46H24L17.5 34Z" fill="url(#paint15_linear_2805_3097)"/>
										<mask id="path-13-inside-1_2805_3097" fill="white">
										<path fill-rule="evenodd" clip-rule="evenodd" d="M72.6382 33.9297L72.5962 34.0024L58.7818 34.0024L65.71 46.0024L65.752 45.9297L79.5664 45.9297L72.6382 33.9297ZM51.6319 46.0024L51.6305 46L37.8585 46L44.7445 34.0731L44.7037 34.0024L44.7853 34.0024L44.7867 34L44.7881 34.0024L58.5601 34.0024L51.6741 45.9293L51.7149 46L51.6333 46L51.6319 46.0024ZM30.857 34L30.815 34.0727L17.0005 34.0727L23.9287 46.0727L23.9707 46L37.7852 46L30.857 34Z"/>
										</mask>
										<path fill-rule="evenodd" clip-rule="evenodd" d="M72.6382 33.9297L72.5962 34.0024L58.7818 34.0024L65.71 46.0024L65.752 45.9297L79.5664 45.9297L72.6382 33.9297ZM51.6319 46.0024L51.6305 46L37.8585 46L44.7445 34.0731L44.7037 34.0024L44.7853 34.0024L44.7867 34L44.7881 34.0024L58.5601 34.0024L51.6741 45.9293L51.7149 46L51.6333 46L51.6319 46.0024ZM30.857 34L30.815 34.0727L17.0005 34.0727L23.9287 46.0727L23.9707 46L37.7852 46L30.857 34Z" fill="url(#paint16_linear_2805_3097)"/>
										<path d="M72.5962 34.0024L72.5962 34.5024L72.8849 34.5024L73.0292 34.2524L72.5962 34.0024ZM72.6382 33.9297L73.0712 33.6797L72.6382 32.9297L72.2052 33.6797L72.6382 33.9297ZM58.7818 34.0024L58.7818 33.5024L57.9158 33.5024L58.3488 34.2524L58.7818 34.0024ZM65.71 46.0024L65.277 46.2524L65.71 47.0024L66.143 46.2524L65.71 46.0024ZM65.752 45.9297L65.752 45.4297L65.4633 45.4297L65.319 45.6797L65.752 45.9297ZM79.5664 45.9297L79.5664 46.4297L80.4324 46.4297L79.9994 45.6797L79.5664 45.9297ZM51.6305 46L52.0635 45.7501L51.9192 45.5L51.6305 45.5L51.6305 46ZM51.6319 46.0024L51.1988 46.2524L51.6319 47.0027L52.0649 46.2524L51.6319 46.0024ZM37.8585 46L37.4254 45.75L36.9924 46.5L37.8585 46.5L37.8585 46ZM44.7445 34.0731L45.1775 34.3231L45.3218 34.0731L45.1775 33.8231L44.7445 34.0731ZM44.7037 34.0024L44.7037 33.5024L43.8376 33.5024L44.2707 34.2524L44.7037 34.0024ZM44.7853 34.0024L44.7853 34.5024L45.0738 34.5024L45.2182 34.2526L44.7853 34.0024ZM44.7867 34L45.2196 33.7498L44.7867 33.0008L44.3538 33.7498L44.7867 34ZM44.7881 34.0024L44.3552 34.2526L44.4995 34.5024L44.7881 34.5024L44.7881 34.0024ZM58.5601 34.0024L58.9931 34.2524L59.4261 33.5024L58.5601 33.5024L58.5601 34.0024ZM51.6741 45.9293L51.2411 45.6793L51.0967 45.9293L51.2411 46.1793L51.6741 45.9293ZM51.7149 46L51.7149 46.5L52.5809 46.5L52.1479 45.75L51.7149 46ZM51.6333 46L51.6333 45.5L51.3445 45.5L51.2002 45.7501L51.6333 46ZM30.815 34.0727L30.815 34.5727L31.1036 34.5727L31.248 34.3227L30.815 34.0727ZM30.857 34L31.29 33.75L30.8569 33L30.4239 33.75L30.857 34ZM17.0005 34.0727L17.0005 33.5727L16.1345 33.5727L16.5675 34.3227L17.0005 34.0727ZM23.9287 46.0727L23.4957 46.3227L23.9288 47.0727L24.3618 46.3227L23.9287 46.0727ZM23.9707 46L23.9707 45.5L23.6821 45.5L23.5377 45.75L23.9707 46ZM37.7852 46L37.7852 46.5L38.6512 46.5L38.2182 45.75L37.7852 46ZM73.0292 34.2524L73.0712 34.1797L72.2052 33.6797L72.1632 33.7524L73.0292 34.2524ZM58.7818 34.5024L72.5962 34.5024L72.5962 33.5024L58.7818 33.5024L58.7818 34.5024ZM66.143 45.7524L59.2148 33.7524L58.3488 34.2524L65.277 46.2524L66.143 45.7524ZM65.319 45.6797L65.277 45.7524L66.143 46.2524L66.185 46.1797L65.319 45.6797ZM79.5664 45.4297L65.752 45.4297L65.752 46.4297L79.5664 46.4297L79.5664 45.4297ZM72.2052 34.1797L79.1334 46.1797L79.9994 45.6797L73.0712 33.6797L72.2052 34.1797ZM51.1974 46.2499L51.1988 46.2524L52.0649 45.7525L52.0635 45.7501L51.1974 46.2499ZM37.8585 46.5L51.6305 46.5L51.6305 45.5L37.8585 45.5L37.8585 46.5ZM44.3115 33.8231L37.4254 45.75L38.2915 46.25L45.1775 34.3231L44.3115 33.8231ZM44.2707 34.2524L44.3115 34.3231L45.1775 33.8231L45.1367 33.7524L44.2707 34.2524ZM44.7853 33.5024L44.7037 33.5024L44.7037 34.5024L44.7853 34.5024L44.7853 33.5024ZM44.3538 33.7498L44.3524 33.7522L45.2182 34.2526L45.2196 34.2502L44.3538 33.7498ZM45.221 33.7522L45.2196 33.7498L44.3538 34.2502L44.3552 34.2526L45.221 33.7522ZM58.5601 33.5024L44.7881 33.5024L44.7881 34.5024L58.5601 34.5024L58.5601 33.5024ZM52.1071 46.1793L58.9931 34.2524L58.1271 33.7524L51.2411 45.6793L52.1071 46.1793ZM52.1479 45.75L52.1071 45.6793L51.2411 46.1793L51.2818 46.25L52.1479 45.75ZM51.6333 46.5L51.7149 46.5L51.7149 45.5L51.6333 45.5L51.6333 46.5ZM52.0649 46.2524L52.0663 46.2499L51.2002 45.7501L51.1988 45.7525L52.0649 46.2524ZM31.248 34.3227L31.29 34.25L30.4239 33.75L30.3819 33.8227L31.248 34.3227ZM17.0005 34.5727L30.815 34.5727L30.815 33.5727L17.0005 33.5727L17.0005 34.5727ZM24.3618 45.8227L17.4336 33.8227L16.5675 34.3227L23.4957 46.3227L24.3618 45.8227ZM23.5377 45.75L23.4957 45.8227L24.3618 46.3227L24.4038 46.25L23.5377 45.75ZM37.7852 45.5L23.9707 45.5L23.9707 46.5L37.7852 46.5L37.7852 45.5ZM30.4239 34.25L37.3521 46.25L38.2182 45.75L31.29 33.75L30.4239 34.25Z" fill="url(#paint17_linear_2805_3097)" mask="url(#path-13-inside-1_2805_3097)"/> -->
										<defs>
										<linearGradient id="paint0_linear_2805_3097" x1="48" y1="31.0952" x2="48" y2="55.7857" gradientUnits="userSpaceOnUse">
										<stop stop-color="#9CBCED"/>
										<stop offset="0.51" stop-color="#9CC3F2"/>
										<stop offset="1" stop-color="#82B4F0"/>
										</linearGradient>
										<linearGradient id="paint1_linear_2805_3097" x1="85" y1="27" x2="13" y2="27" gradientUnits="userSpaceOnUse">
										<stop stop-color="#599EF0" stop-opacity="0"/>
										<stop offset="1" stop-color="#A9CBF3"/>
										</linearGradient>
										<linearGradient id="paint2_linear_2805_3097" x1="48" y1="9.76923" x2="48" y2="19.2308" gradientUnits="userSpaceOnUse">
										<stop stop-color="#191D2E"/>
										<stop offset="0.494234" stop-color="#181B29"/>
										<stop offset="1" stop-color="#191D2E"/>
										</linearGradient>
										<linearGradient id="paint3_linear_2805_3097" x1="48" y1="13" x2="48" y2="15.5" gradientUnits="userSpaceOnUse">
										<stop stop-color="#1D202F" stop-opacity="0"/>
										<stop offset="1" stop-color="#242C45"/>
										</linearGradient>
										<linearGradient id="paint4_linear_2805_3097" x1="76.5" y1="9.76923" x2="76.5" y2="19.2308" gradientUnits="userSpaceOnUse">
										<stop stop-color="#191D2E"/>
										<stop offset="0.494234" stop-color="#181B29"/>
										<stop offset="1" stop-color="#191D2E"/>
										</linearGradient>
										<linearGradient id="paint5_linear_2805_3097" x1="76.5" y1="13" x2="76.5" y2="15.5" gradientUnits="userSpaceOnUse">
										<stop stop-color="#1D202F" stop-opacity="0"/>
										<stop offset="1" stop-color="#242C45"/>
										</linearGradient>
										<linearGradient id="paint6_linear_2805_3097" x1="19.5" y1="9.76923" x2="19.5" y2="19.2308" gradientUnits="userSpaceOnUse">
										<stop stop-color="#191D2E"/>
										<stop offset="0.494234" stop-color="#181B29"/>
										<stop offset="1" stop-color="#191D2E"/>
										</linearGradient>
										<linearGradient id="paint7_linear_2805_3097" x1="19.5" y1="13" x2="19.5" y2="15.5" gradientUnits="userSpaceOnUse">
										<stop stop-color="#1D202F" stop-opacity="0"/>
										<stop offset="1" stop-color="#242C45"/>
										</linearGradient>
										<linearGradient id="paint8_linear_2805_3097" x1="157" y1="55" x2="85" y2="55" gradientUnits="userSpaceOnUse">
										<stop stop-color="#599EF0" stop-opacity="0"/>
										<stop offset="1" stop-color="#A9CBF3"/>
										</linearGradient>
										<linearGradient id="paint9_linear_2805_3097" x1="48" y1="60.7692" x2="48" y2="70.2308" gradientUnits="userSpaceOnUse">
										<stop stop-color="#191D2E"/>
										<stop offset="0.494234" stop-color="#181B29"/>
										<stop offset="1" stop-color="#191D2E"/>
										</linearGradient>
										<linearGradient id="paint10_linear_2805_3097" x1="48" y1="64" x2="48" y2="66.5" gradientUnits="userSpaceOnUse">
										<stop stop-color="#1D202F" stop-opacity="0"/>
										<stop offset="1" stop-color="#242C45"/>
										</linearGradient>
										<linearGradient id="paint11_linear_2805_3097" x1="76.5" y1="60.7692" x2="76.5" y2="70.2308" gradientUnits="userSpaceOnUse">
										<stop stop-color="#191D2E"/>
										<stop offset="0.494234" stop-color="#181B29"/>
										<stop offset="1" stop-color="#191D2E"/>
										</linearGradient>
										<linearGradient id="paint12_linear_2805_3097" x1="76.5" y1="64" x2="76.5" y2="66.5" gradientUnits="userSpaceOnUse">
										<stop stop-color="#1D202F" stop-opacity="0"/>
										<stop offset="1" stop-color="#242C45"/>
										</linearGradient>
										<linearGradient id="paint13_linear_2805_3097" x1="19.5" y1="60.7692" x2="19.5" y2="70.2308" gradientUnits="userSpaceOnUse">
										<stop stop-color="#191D2E"/>
										<stop offset="0.494234" stop-color="#181B29"/>
										<stop offset="1" stop-color="#191D2E"/>
										</linearGradient>
										<linearGradient id="paint14_linear_2805_3097" x1="19.5" y1="64" x2="19.5" y2="66.5" gradientUnits="userSpaceOnUse">
										<stop stop-color="#1D202F" stop-opacity="0"/>
										<stop offset="1" stop-color="#242C45"/>
										</linearGradient>
										<linearGradient id="paint15_linear_2805_3097" x1="59" y1="47" x2="59" y2="33" gradientUnits="userSpaceOnUse">
										<stop stop-color="#181B2A"/>
										<stop offset="0.495994" stop-color="#87B8F3"/>
										<stop offset="1" stop-color="#181B2A"/>
										</linearGradient>
										<linearGradient id="paint16_linear_2805_3097" x1="56.4766" y1="40.0012" x2="33.7593" y2="40.0012" gradientUnits="userSpaceOnUse">
										<stop stop-color="#EEEEEE"/>
										<stop offset="0.51" stop-color="#C8DCF5"/>
										<stop offset="1" stop-color="#CBD5E2"/>
										</linearGradient>
										<linearGradient id="paint17_linear_2805_3097" x1="91.3378" y1="37.9863" x2="60.1025" y2="38.3981" gradientUnits="userSpaceOnUse">
										<stop stop-color="white"/>
										<stop offset="1" stop-color="#7AAAF2" stop-opacity="0"/>
										</linearGradient>
										</defs>
									</svg>