									<svg width="112" height="112" viewBox="0 0 112 112" fill="none" xmlns="http://www.w3.org/2000/svg">
										<rect x="0.25" y="0.25" width="111.5" height="111.5" rx="7.75" stroke="#212941" stroke-width="0.5"/>
										<mask id="path-2-inside-1_2805_3342" fill="white">
										<path fill-rule="evenodd" clip-rule="evenodd" d="M56 10C57.6569 10 59 8.65685 59 7C59 6.64936 58.9398 6.31278 58.8293 6H102C104.209 6 106 7.79086 106 10V14C104.343 14 103 15.3431 103 17C103 18.6569 104.343 20 106 20V24C104.343 24 103 25.3431 103 27C103 28.6569 104.343 30 106 30V82C104.343 82 103 83.3431 103 85C103 86.6569 104.343 88 106 88V92C104.343 92 103 93.3431 103 95C103 96.6569 104.343 98 106 98V102C106 104.209 104.209 106 102 106H59C59 104.343 57.6569 103 56 103C54.3431 103 53 104.343 53 106H10C7.79086 106 6 104.209 6 102V98C7.65685 98 9 96.6569 9 95C9 93.3431 7.65685 92 6 92V88C7.65685 88 9 86.6569 9 85C9 83.3431 7.65685 82 6 82V30C7.65685 30 9 28.6569 9 27C9 25.3431 7.65685 24 6 24V20C7.65685 20 9 18.6569 9 17C9 15.3431 7.65685 14 6 14V10C6 7.79086 7.79086 6 10 6H53.1707C53.0602 6.31278 53 6.64936 53 7C53 8.65685 54.3431 10 56 10Z"/>
										</mask>
										<path fill-rule="evenodd" clip-rule="evenodd" d="M56 10C57.6569 10 59 8.65685 59 7C59 6.64936 58.9398 6.31278 58.8293 6H102C104.209 6 106 7.79086 106 10V14C104.343 14 103 15.3431 103 17C103 18.6569 104.343 20 106 20V24C104.343 24 103 25.3431 103 27C103 28.6569 104.343 30 106 30V82C104.343 82 103 83.3431 103 85C103 86.6569 104.343 88 106 88V92C104.343 92 103 93.3431 103 95C103 96.6569 104.343 98 106 98V102C106 104.209 104.209 106 102 106H59C59 104.343 57.6569 103 56 103C54.3431 103 53 104.343 53 106H10C7.79086 106 6 104.209 6 102V98C7.65685 98 9 96.6569 9 95C9 93.3431 7.65685 92 6 92V88C7.65685 88 9 86.6569 9 85C9 83.3431 7.65685 82 6 82V30C7.65685 30 9 28.6569 9 27C9 25.3431 7.65685 24 6 24V20C7.65685 20 9 18.6569 9 17C9 15.3431 7.65685 14 6 14V10C6 7.79086 7.79086 6 10 6H53.1707C53.0602 6.31278 53 6.64936 53 7C53 8.65685 54.3431 10 56 10Z" fill="url(#paint0_linear_2805_3342)"/>
										<path d="M58.8293 6V5.5H58.1223L58.3579 6.16662L58.8293 6ZM106 14V14.5H106.5V14H106ZM106 20H106.5V19.5H106V20ZM106 24V24.5H106.5V24H106ZM106 30H106.5V29.5H106V30ZM106 82V82.5H106.5V82H106ZM106 88H106.5V87.5H106V88ZM106 92V92.5H106.5V92H106ZM106 98H106.5V97.5H106V98ZM59 106H58.5V106.5H59V106ZM53 106V106.5H53.5V106H53ZM6 98V97.5H5.5V98H6ZM6 92H5.5V92.5H6V92ZM6 88V87.5H5.5V88H6ZM6 82H5.5V82.5H6V82ZM6 30V29.5H5.5V30H6ZM6 24H5.5V24.5H6V24ZM6 20V19.5H5.5V20H6ZM6 14H5.5V14.5H6V14ZM53.1707 6L53.6421 6.16662L53.8777 5.5H53.1707V6ZM58.5 7C58.5 8.38071 57.3807 9.5 56 9.5V10.5C57.933 10.5 59.5 8.933 59.5 7H58.5ZM58.3579 6.16662C58.4498 6.42663 58.5 6.70691 58.5 7H59.5C59.5 6.59182 59.4299 6.19892 59.3007 5.83338L58.3579 6.16662ZM102 5.5H58.8293V6.5H102V5.5ZM106.5 10C106.5 7.51472 104.485 5.5 102 5.5V6.5C103.933 6.5 105.5 8.067 105.5 10H106.5ZM106.5 14V10H105.5V14H106.5ZM103.5 17C103.5 15.6193 104.619 14.5 106 14.5V13.5C104.067 13.5 102.5 15.067 102.5 17H103.5ZM106 19.5C104.619 19.5 103.5 18.3807 103.5 17H102.5C102.5 18.933 104.067 20.5 106 20.5V19.5ZM106.5 24V20H105.5V24H106.5ZM103.5 27C103.5 25.6193 104.619 24.5 106 24.5V23.5C104.067 23.5 102.5 25.067 102.5 27H103.5ZM106 29.5C104.619 29.5 103.5 28.3807 103.5 27H102.5C102.5 28.933 104.067 30.5 106 30.5V29.5ZM106.5 82V30H105.5V82H106.5ZM103.5 85C103.5 83.6193 104.619 82.5 106 82.5V81.5C104.067 81.5 102.5 83.067 102.5 85H103.5ZM106 87.5C104.619 87.5 103.5 86.3807 103.5 85H102.5C102.5 86.933 104.067 88.5 106 88.5V87.5ZM106.5 92V88H105.5V92H106.5ZM103.5 95C103.5 93.6193 104.619 92.5 106 92.5V91.5C104.067 91.5 102.5 93.067 102.5 95H103.5ZM106 97.5C104.619 97.5 103.5 96.3807 103.5 95H102.5C102.5 96.933 104.067 98.5 106 98.5V97.5ZM106.5 102V98H105.5V102H106.5ZM102 106.5C104.485 106.5 106.5 104.485 106.5 102H105.5C105.5 103.933 103.933 105.5 102 105.5V106.5ZM59 106.5H102V105.5H59V106.5ZM56 103.5C57.3807 103.5 58.5 104.619 58.5 106H59.5C59.5 104.067 57.933 102.5 56 102.5V103.5ZM53.5 106C53.5 104.619 54.6193 103.5 56 103.5V102.5C54.067 102.5 52.5 104.067 52.5 106H53.5ZM10 106.5H53V105.5H10V106.5ZM5.5 102C5.5 104.485 7.51472 106.5 10 106.5V105.5C8.06701 105.5 6.5 103.933 6.5 102H5.5ZM5.5 98V102H6.5V98H5.5ZM8.5 95C8.5 96.3807 7.38071 97.5 6 97.5V98.5C7.933 98.5 9.5 96.933 9.5 95H8.5ZM6 92.5C7.38071 92.5 8.5 93.6193 8.5 95H9.5C9.5 93.067 7.933 91.5 6 91.5V92.5ZM5.5 88V92H6.5V88H5.5ZM8.5 85C8.5 86.3807 7.38071 87.5 6 87.5V88.5C7.933 88.5 9.5 86.933 9.5 85H8.5ZM6 82.5C7.38071 82.5 8.5 83.6193 8.5 85H9.5C9.5 83.067 7.933 81.5 6 81.5V82.5ZM5.5 30V82H6.5V30H5.5ZM8.5 27C8.5 28.3807 7.38071 29.5 6 29.5V30.5C7.933 30.5 9.5 28.933 9.5 27H8.5ZM6 24.5C7.38071 24.5 8.5 25.6193 8.5 27H9.5C9.5 25.067 7.933 23.5 6 23.5V24.5ZM5.5 20V24H6.5V20H5.5ZM8.5 17C8.5 18.3807 7.38071 19.5 6 19.5V20.5C7.933 20.5 9.5 18.933 9.5 17H8.5ZM6 14.5C7.38071 14.5 8.5 15.6193 8.5 17H9.5C9.5 15.067 7.933 13.5 6 13.5V14.5ZM5.5 10V14H6.5V10H5.5ZM10 5.5C7.51472 5.5 5.5 7.51472 5.5 10H6.5C6.5 8.06701 8.067 6.5 10 6.5V5.5ZM53.1707 5.5H10V6.5H53.1707V5.5ZM53.5 7C53.5 6.70691 53.5502 6.42663 53.6421 6.16662L52.6993 5.83338C52.5701 6.19892 52.5 6.59182 52.5 7H53.5ZM56 9.5C54.6193 9.5 53.5 8.38071 53.5 7H52.5C52.5 8.933 54.067 10.5 56 10.5V9.5Z" fill="#323F5F" mask="url(#path-2-inside-1_2805_3342)"/>
										<rect x="18.5" y="18.5" width="75" height="75" rx="8.5" stroke="url(#paint1_linear_2805_3342)"/>
										<rect x="19" y="19" width="74" height="74" rx="8" fill="#070917"/>
										<rect x="19" y="19" width="74" height="74" rx="8" fill="#070917"/>
										<rect x="21" y="21" width="70" height="70" rx="6" fill="#1F2338"/>
										<rect x="50.75" y="74.75" width="2.5" height="2.5" fill="url(#paint2_linear_2805_3342)" stroke="url(#paint3_linear_2805_3342)" stroke-width="0.5"/>
										<rect x="55.75" y="74.75" width="2.5" height="2.5" fill="url(#paint4_linear_2805_3342)" stroke="url(#paint5_linear_2805_3342)" stroke-width="0.5"/>
										<rect x="60.75" y="74.75" width="2.5" height="2.5" fill="url(#paint6_linear_2805_3342)" stroke="url(#paint7_linear_2805_3342)" stroke-width="0.5"/>
										<path d="M32.25 55C32.25 49.0629 37.0629 44.25 43 44.25H70C75.9371 44.25 80.75 49.0629 80.75 55C80.75 60.9371 75.9371 65.75 70 65.75H43C37.0629 65.75 32.25 60.9371 32.25 55Z" fill="url(#paint8_linear_2805_3342)" stroke="url(#paint9_linear_2805_3342)" stroke-width="0.5"/>
										<path d="M43 42.5C36.0964 42.5 30.5 48.0964 30.5 55C30.5 61.9036 36.0964 67.5 43 67.5H70C76.9036 67.5 82.5 61.9036 82.5 55C82.5 48.0964 76.9036 42.5 70 42.5H43Z" stroke="url(#paint10_linear_2805_3342)" stroke-width="3"/>
										<path d="M49.4316 49.9141L49.666 49.7266C49.8535 49.8164 49.8535 49.9648 49.666 50.1719C49.7793 50.2461 49.834 50.3555 49.8301 50.5C49.6895 50.5742 49.5645 50.5352 49.4551 50.3828C49.3652 50.4727 49.248 50.5273 49.1035 50.5469C49.0254 50.4062 49.0645 50.2812 49.2207 50.1719C49.084 50.0469 49.0527 49.9062 49.127 49.75C49.248 49.7539 49.3496 49.8086 49.4316 49.9141ZM48.5645 50.8516C48.6074 50.7852 48.6699 50.7227 48.752 50.6641C48.9707 50.7461 48.9707 50.8867 48.752 51.0859C48.8457 51.1562 48.9082 51.25 48.9395 51.3672C48.8301 51.5391 48.7051 51.5234 48.5645 51.3203C48.4395 51.4609 48.2988 51.4922 48.1426 51.4141C48.1621 51.2852 48.2246 51.168 48.3301 51.0625C48.2168 50.9922 48.1621 50.8828 48.166 50.7344C48.3105 50.6836 48.4434 50.7227 48.5645 50.8516ZM49.2441 51.0625C49.0957 50.9727 49.0645 50.8477 49.1504 50.6875C49.2598 50.7031 49.3613 50.7578 49.4551 50.8516C49.5605 50.7109 49.6934 50.6797 49.8535 50.7578C49.8496 50.8789 49.7949 50.9805 49.6895 51.0625C49.9121 51.3164 49.8965 51.4648 49.6426 51.5078L49.5723 51.4141L49.4316 51.3203C49.2598 51.5625 49.1348 51.5547 49.0566 51.2969C49.123 51.2422 49.1855 51.1641 49.2441 51.0625ZM47.8379 52C47.6855 51.8906 47.6621 51.7578 47.7676 51.6016C47.877 51.6094 47.9707 51.6641 48.0488 51.7656C48.1465 51.6602 48.2715 51.6133 48.4238 51.625C48.459 51.7656 48.4121 51.8828 48.2832 51.9766C48.5449 52.3477 48.5137 52.4727 48.1895 52.3516L48.0723 52.2344C47.9824 52.3633 47.8652 52.4102 47.7207 52.375C47.6504 52.2461 47.6895 52.1211 47.8379 52ZM49.2207 52.0234C49.0645 51.8789 49.0332 51.7383 49.127 51.6016C49.2363 51.6094 49.3301 51.6641 49.4082 51.7656C49.4785 51.7383 49.541 51.6836 49.5957 51.6016C49.8105 51.6172 49.8574 51.7188 49.7363 51.9062L49.666 52.0234C49.8965 52.2344 49.8809 52.3672 49.6191 52.4219C49.5723 52.3477 49.502 52.2852 49.4082 52.2344C49.3301 52.3711 49.2129 52.418 49.0566 52.375C49.0332 52.2344 49.0879 52.1172 49.2207 52.0234ZM49.2207 52.8906C49.0723 52.8047 49.0332 52.6797 49.1035 52.5156C49.2324 52.5234 49.3418 52.5859 49.4316 52.7031C49.541 52.5586 49.6738 52.5117 49.8301 52.5625C49.8418 52.6953 49.7871 52.8125 49.666 52.9141C49.916 53.2891 49.877 53.3984 49.5488 53.2422L49.4316 53.1484C49.2324 53.3945 49.1074 53.3789 49.0566 53.1016C49.127 53.0508 49.1816 52.9805 49.2207 52.8906ZM49.2207 53.8984C49.0645 53.7109 49.0488 53.5625 49.1738 53.4531C49.2715 53.4805 49.3574 53.543 49.4316 53.6406C49.5215 53.5117 49.6387 53.4648 49.7832 53.5C49.8457 53.5898 49.8301 53.6758 49.7363 53.7578L49.666 53.875C49.7793 53.9453 49.834 54.0547 49.8301 54.2031C49.6934 54.293 49.5605 54.2539 49.4316 54.0859C49.3418 54.2422 49.2168 54.2812 49.0566 54.2031C49.0605 54.0781 49.1152 53.9766 49.2207 53.8984ZM49.2441 54.7656C49.0723 54.6445 49.0488 54.5117 49.1738 54.3672C49.2715 54.3867 49.3574 54.4414 49.4316 54.5312C49.502 54.5039 49.5723 54.4492 49.6426 54.3672C49.8652 54.4141 49.8965 54.5234 49.7363 54.6953L49.6895 54.8125C49.8105 54.8789 49.8574 54.9805 49.8301 55.1172C49.7051 55.2031 49.5801 55.1641 49.4551 55C49.3691 55.1367 49.2441 55.1836 49.0801 55.1406C49.0605 55.0078 49.1152 54.8828 49.2441 54.7656ZM49.2207 55.6797C49.0723 55.5898 49.041 55.4648 49.127 55.3047C49.2363 55.3125 49.3301 55.3672 49.4082 55.4688C49.5332 55.3281 49.6738 55.2969 49.8301 55.375C49.8262 55.4961 49.7715 55.5977 49.666 55.6797C49.9199 56.0859 49.8809 56.2031 49.5488 56.0312L49.4082 55.9375C49.2363 56.1797 49.1113 56.1719 49.0332 55.9141C49.0996 55.8594 49.1621 55.7812 49.2207 55.6797ZM49.4785 56.4062C49.5215 56.3516 49.584 56.2891 49.666 56.2188C49.8848 56.3008 49.8848 56.4414 49.666 56.6406C49.7832 56.7227 49.8457 56.8398 49.8535 56.9922C49.709 57.0664 49.584 57.0273 49.4785 56.875C49.3535 57.0156 49.2129 57.0469 49.0566 56.9688C49.0762 56.8477 49.1387 56.7305 49.2441 56.6172C49.1113 56.5391 49.0645 56.4219 49.1035 56.2656C49.2363 56.2422 49.3613 56.2891 49.4785 56.4062ZM48.2363 57.5312C48.084 57.4297 48.0605 57.3047 48.166 57.1562C48.2754 57.1641 48.3691 57.2188 48.4473 57.3203C48.5176 57.293 48.5801 57.2383 48.6348 57.1562C48.8613 57.1836 48.9004 57.2852 48.752 57.4609L48.6816 57.5781C48.7871 57.6406 48.8418 57.7422 48.8457 57.8828C48.7324 57.9922 48.5996 57.9609 48.4473 57.7891C48.3613 57.9375 48.2363 57.9766 48.0723 57.9062C48.084 57.7734 48.1387 57.6484 48.2363 57.5312ZM49.2441 57.1797C49.3457 57.3516 49.4629 57.3438 49.5957 57.1562C49.8145 57.2227 49.8223 57.3711 49.6191 57.6016C49.7168 57.6641 49.7793 57.7656 49.8066 57.9062C49.6582 58.0117 49.5254 57.9727 49.4082 57.7891C49.3066 57.9336 49.1738 57.9805 49.0098 57.9297C49.0059 57.8008 49.0605 57.6836 49.1738 57.5781C49.0332 57.4648 49.002 57.332 49.0801 57.1797H49.2441ZM50.1582 57.5781C50.002 57.4375 49.9707 57.2969 50.0645 57.1562C50.1738 57.1641 50.2676 57.2188 50.3457 57.3203C50.416 57.293 50.4785 57.2383 50.5332 57.1562C50.752 57.1758 50.7988 57.2773 50.6738 57.4609L50.6035 57.5781C50.834 57.7891 50.8184 57.9219 50.5566 57.9766C50.5098 57.9023 50.4395 57.8398 50.3457 57.7891C50.2793 57.9336 50.1621 57.9805 49.9941 57.9297C49.9707 57.793 50.0254 57.6758 50.1582 57.5781ZM53.1465 49.9141C53.1895 49.8438 53.2598 49.7812 53.3574 49.7266C53.5449 49.8359 53.5371 49.9766 53.334 50.1484C53.4551 50.2344 53.5098 50.3594 53.498 50.5234C53.3535 50.5703 53.2363 50.5234 53.1465 50.3828C53.0332 50.5039 52.9004 50.5508 52.748 50.5234C52.7324 50.3828 52.7793 50.25 52.8887 50.125C52.7715 50.0352 52.7324 49.918 52.7715 49.7734C52.8965 49.7578 53.0215 49.8047 53.1465 49.9141ZM53.8262 50.1719C53.6855 50.0352 53.6621 49.8945 53.7559 49.75C53.8652 49.7578 53.959 49.8125 54.0371 49.9141C54.1074 49.8867 54.1699 49.832 54.2246 49.75C54.4512 49.7773 54.4902 49.8789 54.3418 50.0547L54.2715 50.1719C54.5293 50.3828 54.5215 50.5156 54.248 50.5703C54.209 50.5078 54.1387 50.4453 54.0371 50.3828C53.9473 50.5352 53.8223 50.5742 53.6621 50.5C53.666 50.3867 53.7207 50.2773 53.8262 50.1719ZM54.9512 49.9375L55.1855 49.75C55.3887 49.8359 55.3887 49.9844 55.1855 50.1953C55.2871 50.2578 55.3496 50.3594 55.373 50.5C55.2363 50.6094 55.1113 50.5781 54.998 50.4062C54.8848 50.5273 54.752 50.5742 54.5996 50.5469C54.584 50.4062 54.6309 50.2734 54.7402 50.1484C54.6191 50.0586 54.5801 49.9414 54.623 49.7969C54.7559 49.7695 54.8652 49.8164 54.9512 49.9375ZM51.9746 50.6406C51.8223 50.5039 51.7988 50.3633 51.9043 50.2188C52.0137 50.2422 52.1074 50.3047 52.1855 50.4062C52.2949 50.2461 52.4277 50.207 52.584 50.2891C52.5801 50.4102 52.5254 50.5117 52.4199 50.5938C52.6465 50.8555 52.6309 51.0039 52.373 51.0391L52.3027 50.9453L52.1855 50.8516C52.123 50.957 52.0215 51.0117 51.8809 51.0156C51.7715 50.8789 51.8027 50.7539 51.9746 50.6406ZM55.6777 50.6406C55.5371 50.5156 55.5059 50.375 55.584 50.2188C55.6934 50.2266 55.7871 50.2812 55.8652 50.3828C55.9355 50.3555 55.998 50.3008 56.0527 50.2188C56.2715 50.2344 56.3184 50.3359 56.1934 50.5234L56.123 50.6406C56.248 50.7148 56.2949 50.8242 56.2637 50.9688C56.1426 51.0547 56.0176 51.0156 55.8887 50.8516C55.7793 51.0117 55.6465 51.043 55.4902 50.9453C55.5098 50.8242 55.5723 50.7227 55.6777 50.6406ZM51.5059 51.5078C51.3613 51.418 51.3301 51.293 51.4121 51.1328C51.5293 51.1406 51.6309 51.1953 51.7168 51.2969C51.8223 51.1562 51.9551 51.125 52.1152 51.2031C52.1113 51.3242 52.0566 51.4258 51.9512 51.5078C52.209 51.9141 52.1699 52.0312 51.834 51.8594L51.6934 51.7656C51.5332 51.9961 51.4082 51.9883 51.3184 51.7422C51.3848 51.6875 51.4473 51.6094 51.5059 51.5078ZM56.3809 51.3438C56.4355 51.2734 56.5059 51.2109 56.5918 51.1562C56.7754 51.2344 56.7754 51.3828 56.5918 51.6016C56.6973 51.6719 56.752 51.7812 56.7559 51.9297C56.6152 52.0078 56.4902 51.9688 56.3809 51.8125C56.2363 51.9648 56.0957 51.9961 55.959 51.9062C55.9785 51.7852 56.041 51.668 56.1465 51.5547C56.0176 51.4688 55.9707 51.3516 56.0059 51.2031C56.1387 51.1797 56.2637 51.2266 56.3809 51.3438ZM51.5059 52.4453C51.3145 52.3008 51.2988 52.1602 51.459 52.0234C51.5449 52.0586 51.623 52.1211 51.6934 52.2109C51.8965 51.9922 52.0371 52 52.1152 52.2344L51.998 52.3516L51.9277 52.4453C52.041 52.5156 52.0957 52.625 52.0918 52.7734C51.9785 52.875 51.8535 52.8438 51.7168 52.6797C51.6113 52.8203 51.4785 52.8516 51.3184 52.7734C51.3379 52.6445 51.4004 52.5352 51.5059 52.4453ZM56.3574 52.2344C56.4004 52.1797 56.4629 52.1172 56.5449 52.0469C56.7598 52.1367 56.7598 52.2773 56.5449 52.4688C56.6621 52.5547 56.7246 52.6719 56.7324 52.8203C56.5918 52.8984 56.4668 52.8594 56.3574 52.7031C56.2129 52.8555 56.0723 52.8867 55.9355 52.7969C55.9551 52.6758 56.0176 52.5586 56.123 52.4453C55.9902 52.3672 55.9434 52.25 55.9824 52.0938C56.1152 52.0742 56.2402 52.1211 56.3574 52.2344ZM51.5059 53.3828C51.3145 53.2227 51.3066 53.082 51.4824 52.9609C51.5684 53 51.6465 53.0625 51.7168 53.1484C51.7988 53.0273 51.9082 52.9805 52.0449 53.0078C52.127 53.1094 52.1113 53.2031 51.998 53.2891L51.9512 53.4062C52.041 53.4648 52.0957 53.5508 52.1152 53.6641C52.0098 53.8359 51.877 53.8125 51.7168 53.5938C51.6309 53.7422 51.5059 53.7891 51.3418 53.7344C51.3301 53.6016 51.3848 53.4844 51.5059 53.3828ZM56.1465 53.4062C55.9668 53.3008 55.9277 53.168 56.0293 53.0078C56.1504 53.0156 56.252 53.0781 56.334 53.1953C56.4355 53.0625 56.5684 53.0156 56.7324 53.0547C56.7559 53.1914 56.7012 53.3086 56.5684 53.4062C56.8145 53.7539 56.7832 53.8711 56.4746 53.7578L56.334 53.6641C56.2754 53.7617 56.1816 53.8086 56.0527 53.8047C55.9395 53.6797 55.9707 53.5469 56.1465 53.4062ZM51.4824 54.3203C51.334 54.1797 51.3105 54.0391 51.4121 53.8984C51.5215 53.918 51.6152 53.9805 51.6934 54.0859C51.9277 53.8398 52.0605 53.8555 52.0918 54.1328L51.998 54.2031L51.9277 54.3203C52.0332 54.3867 52.0879 54.4883 52.0918 54.625C51.9668 54.7422 51.834 54.7109 51.6934 54.5312C51.6035 54.6875 51.4785 54.7266 51.3184 54.6484C51.3223 54.5273 51.377 54.418 51.4824 54.3203ZM56.0996 54.3438C55.916 54.1836 55.9082 54.043 56.0762 53.9219C56.1621 53.9609 56.2402 54.0234 56.3105 54.1094C56.3965 53.9844 56.5059 53.9375 56.6387 53.9688C56.7207 54.0703 56.7051 54.1641 56.5918 54.25L56.5449 54.3672C56.6504 54.4258 56.7051 54.5195 56.709 54.6484C56.5879 54.7812 56.4551 54.75 56.3105 54.5547C56.2246 54.7031 56.0996 54.75 55.9355 54.6953C55.9277 54.5664 55.9824 54.4492 56.0996 54.3438ZM56.3105 55.0234L56.5449 54.8359C56.748 54.9219 56.748 55.0703 56.5449 55.2812C56.6465 55.3438 56.709 55.4453 56.7324 55.5859C56.6113 55.6875 56.4707 55.6562 56.3105 55.4922C56.2324 55.625 56.1152 55.6719 55.959 55.6328C55.9434 55.4922 55.9902 55.3594 56.0996 55.2344C55.9785 55.1445 55.9395 55.0273 55.9824 54.8828C56.1152 54.8555 56.2246 54.9023 56.3105 55.0234ZM51.4824 55.2812C51.3418 55.1367 51.3184 54.9961 51.4121 54.8594C51.5215 54.8672 51.6152 54.9219 51.6934 55.0234C51.7637 54.9961 51.8262 54.9414 51.8809 54.8594C52.1113 54.8828 52.1504 54.9844 51.998 55.1641L51.9277 55.2812C52.1777 55.4766 52.1699 55.6094 51.9043 55.6797C51.8574 55.6055 51.7871 55.543 51.6934 55.4922C51.6152 55.6289 51.498 55.6758 51.3418 55.6328C51.3223 55.5 51.3691 55.3828 51.4824 55.2812ZM51.5059 56.1953C51.3574 56.0586 51.334 55.918 51.4355 55.7734C51.5449 55.7812 51.6387 55.8359 51.7168 55.9375C51.7871 55.9102 51.8496 55.8555 51.9043 55.7734C52.1309 55.8047 52.1699 55.9062 52.0215 56.0781L51.9512 56.1953C52.0566 56.2578 52.1113 56.3594 52.1152 56.5C51.9902 56.6133 51.8574 56.582 51.7168 56.4062C51.6309 56.5547 51.5059 56.5938 51.3418 56.5234C51.3496 56.3984 51.4043 56.2891 51.5059 56.1953ZM56.1465 56.1719C55.9707 56.0625 55.9473 55.9297 56.0762 55.7734C56.1738 55.793 56.2598 55.8477 56.334 55.9375C56.4043 55.9102 56.4746 55.8555 56.5449 55.7734C56.7598 55.8203 56.791 55.9297 56.6387 56.1016L56.5684 56.1953C56.6816 56.2656 56.7363 56.375 56.7324 56.5234C56.5957 56.6133 56.4707 56.5742 56.3574 56.4062C56.2637 56.5625 56.1309 56.6016 55.959 56.5234C55.9785 56.3945 56.041 56.2773 56.1465 56.1719ZM51.9746 57.0859C51.8066 56.9844 51.7754 56.8516 51.8809 56.6875C51.9902 56.6953 52.084 56.75 52.1621 56.8516C52.2324 56.8242 52.2949 56.7695 52.3496 56.6875C52.5762 56.7148 52.6152 56.8164 52.4668 56.9922L52.3965 57.1094C52.5098 57.1797 52.5645 57.2891 52.5605 57.4375C52.4316 57.5234 52.2988 57.4844 52.1621 57.3203C52.0723 57.4727 51.9473 57.5117 51.7871 57.4375C51.7988 57.3047 51.8613 57.1875 51.9746 57.0859ZM55.6777 57.0859C55.502 56.9688 55.4785 56.8359 55.6074 56.6875C55.7051 56.707 55.791 56.7617 55.8652 56.8516C55.9355 56.8242 56.0059 56.7695 56.0762 56.6875C56.2988 56.7344 56.3301 56.8438 56.1699 57.0156L56.0996 57.1094C56.1973 57.1719 56.2598 57.2656 56.2871 57.3906C56.1895 57.543 56.0566 57.5195 55.8887 57.3203C55.8027 57.457 55.6777 57.5039 55.5137 57.4609C55.4941 57.3281 55.5488 57.2031 55.6777 57.0859ZM52.8184 57.5781C52.6816 57.4219 52.6582 57.2812 52.748 57.1562C52.8574 57.1641 52.9512 57.2188 53.0293 57.3203C53.0996 57.293 53.1621 57.2383 53.2168 57.1562C53.4473 57.1797 53.4863 57.2812 53.334 57.4609L53.2871 57.5781C53.5098 57.7812 53.4941 57.9141 53.2402 57.9766C53.1934 57.9023 53.123 57.8398 53.0293 57.7891C52.9512 57.9258 52.834 57.9727 52.6777 57.9297C52.6543 57.8008 52.7012 57.6836 52.8184 57.5781ZM53.7559 57.5781C53.5801 57.4023 53.5723 57.2617 53.7324 57.1562C53.8184 57.1953 53.8965 57.2578 53.9668 57.3438C54.0566 57.2148 54.1738 57.168 54.3184 57.2031C54.3887 57.3164 54.3652 57.418 54.248 57.5078L54.2012 57.5781C54.3105 57.6562 54.3652 57.7656 54.3652 57.9062C54.2363 58.0078 54.1035 57.9688 53.9668 57.7891C53.8965 57.9258 53.7793 57.9805 53.6152 57.9531C53.5801 57.8203 53.627 57.6953 53.7559 57.5781ZM54.7402 57.5547C54.5996 57.4492 54.5684 57.3164 54.6465 57.1562C54.7559 57.1641 54.8496 57.2188 54.9277 57.3203C55.0527 57.1797 55.1934 57.1484 55.3496 57.2266C55.3457 57.3477 55.291 57.4492 55.1855 57.5312C55.4082 57.7852 55.3926 57.9336 55.1387 57.9766L55.0684 57.8828L54.9277 57.7891C54.8691 57.9023 54.7754 57.957 54.6465 57.9531C54.5332 57.8281 54.5645 57.6953 54.7402 57.5547ZM57.6113 52C57.3965 51.8281 57.3809 51.6797 57.5645 51.5547C57.6504 51.5938 57.7285 51.6562 57.7988 51.7422C57.9238 51.6055 58.0645 51.5742 58.2207 51.6484C58.2012 51.7773 58.1387 51.8867 58.0332 51.9766C58.3105 52.3516 58.2715 52.4609 57.916 52.3047L57.7988 52.2109C57.752 52.3164 57.666 52.3711 57.541 52.375C57.4043 52.2461 57.4277 52.1211 57.6113 52ZM61.7598 51.9766C61.6191 51.8711 61.5879 51.7383 61.666 51.5781C61.7754 51.5859 61.8691 51.6406 61.9473 51.7422C62.0723 51.6016 62.2129 51.5703 62.3691 51.6484C62.3535 51.7656 62.2988 51.8672 62.2051 51.9531C62.4277 52.207 62.4121 52.3555 62.1582 52.3984L62.0879 52.3047L61.9473 52.2109C61.8887 52.3242 61.7949 52.3789 61.666 52.375C61.5527 52.25 61.584 52.1172 61.7598 51.9766ZM62.6973 51.9766C62.5215 51.8555 62.5059 51.7227 62.6504 51.5781C62.7441 51.6133 62.8379 51.6758 62.9316 51.7656C63.0059 51.6523 63.1152 51.5977 63.2598 51.6016C63.3145 51.7422 63.2754 51.8594 63.1426 51.9531C63.3262 52.168 63.3418 52.3242 63.1895 52.4219C63.0996 52.3789 63.0137 52.3086 62.9316 52.2109C62.8457 52.332 62.7207 52.3867 62.5566 52.375C62.5176 52.2383 62.5645 52.1055 62.6973 51.9766ZM58.5254 52C58.3652 51.9023 58.3262 51.7695 58.4082 51.6016C58.541 51.6133 58.6582 51.6758 58.7598 51.7891C58.8496 51.6328 58.9746 51.5938 59.1348 51.6719C59.1309 51.7969 59.0762 51.8984 58.9707 51.9766C59.1113 52.1445 59.1426 52.2773 59.0645 52.375C58.9824 52.4102 58.9121 52.3945 58.8535 52.3281L58.7363 52.2344C58.6777 52.3398 58.584 52.3945 58.4551 52.3984C58.3262 52.2891 58.3496 52.1562 58.5254 52ZM59.4629 52.0469C59.2793 51.8789 59.2559 51.7305 59.3926 51.6016C59.4902 51.6211 59.5762 51.6836 59.6504 51.7891C60.0801 51.5234 60.1895 51.5703 59.9785 51.9297L59.9082 52.0469C60.0137 52.1133 60.0605 52.2148 60.0488 52.3516C59.9277 52.4336 59.8027 52.4023 59.6738 52.2578C59.5879 52.3867 59.4707 52.4336 59.3223 52.3984C59.2988 52.2617 59.3457 52.1445 59.4629 52.0469ZM63.6348 52.0469C63.4902 51.9141 63.4512 51.7656 63.5176 51.6016C63.6465 51.6094 63.7559 51.6719 63.8457 51.7891C64.0801 51.543 64.2129 51.5586 64.2441 51.8359L64.1504 51.9062L64.0801 52.0469C64.1777 52.1055 64.2246 52.1992 64.2207 52.3281C64.1035 52.4375 63.9785 52.4062 63.8457 52.2344C63.7559 52.3906 63.6309 52.4297 63.4707 52.3516C63.4746 52.2266 63.5293 52.125 63.6348 52.0469ZM58.5488 52.9141C58.3887 52.8203 58.3496 52.6875 58.4316 52.5156C58.5605 52.5352 58.6777 52.5977 58.7832 52.7031C58.8457 52.6016 58.9473 52.5391 59.0879 52.5156C59.1855 52.6562 59.1543 52.7812 58.9941 52.8906C59.1426 53.0703 59.166 53.2109 59.0645 53.3125C58.9434 53.3242 58.8496 53.2695 58.7832 53.1484C58.7012 53.2461 58.5918 53.3086 58.4551 53.3359C58.3613 53.2109 58.3926 53.0703 58.5488 52.9141ZM62.6973 52.9609C62.502 52.8086 62.4785 52.6602 62.627 52.5156C62.7207 52.5391 62.8066 52.6016 62.8848 52.7031C63.0098 52.5625 63.1504 52.5312 63.3066 52.6094C63.291 52.7383 63.2285 52.8477 63.1191 52.9375C63.2441 53.0273 63.291 53.1445 63.2598 53.2891C63.1621 53.3477 63.0762 53.332 63.002 53.2422L62.8848 53.1719C62.8379 53.2656 62.7598 53.3203 62.6504 53.3359C62.4785 53.2305 62.4941 53.1055 62.6973 52.9609ZM59.4395 53.8281C59.2637 53.7266 59.2324 53.5938 59.3457 53.4297C59.4551 53.4492 59.5566 53.5117 59.6504 53.6172C59.7598 53.4648 59.8926 53.4258 60.0488 53.5C60.0449 53.6328 59.9902 53.7422 59.8848 53.8281C60.1152 54.1797 60.0762 54.2969 59.7676 54.1797L59.627 54.0859C59.5645 54.1953 59.4707 54.2422 59.3457 54.2266C59.248 54.1211 59.2793 53.9883 59.4395 53.8281ZM61.8066 53.875C61.6465 53.7578 61.6074 53.6172 61.6895 53.4531C61.8027 53.4648 61.9199 53.5195 62.041 53.6172C62.1074 53.5273 62.209 53.4727 62.3457 53.4531C62.4277 53.6016 62.3887 53.7422 62.2285 53.875C62.416 53.9961 62.4395 54.1211 62.2988 54.25C62.1895 54.2344 62.0879 54.1797 61.9941 54.0859C61.9395 54.1836 61.8457 54.2461 61.7129 54.2734C61.6035 54.125 61.6348 53.9922 61.8066 53.875ZM59.9316 54.7656C59.7559 54.6562 59.7246 54.5156 59.8379 54.3438C59.9473 54.3672 60.041 54.4297 60.1191 54.5312L60.4004 54.3438L60.541 54.4375C60.5254 54.5625 60.4629 54.6719 60.3535 54.7656C60.4863 54.8594 60.5332 54.9766 60.4941 55.1172C60.3965 55.1758 60.3105 55.1602 60.2363 55.0703L60.1191 55C60.0684 55.0898 59.9902 55.1445 59.8848 55.1641C59.7129 55.0664 59.7285 54.9336 59.9316 54.7656ZM60.8457 54.8125C60.6816 54.6328 60.6582 54.4844 60.7754 54.3672C60.8691 54.3906 60.9785 54.4531 61.1035 54.5547C61.1621 54.4609 61.2559 54.3984 61.3848 54.3672C61.4902 54.5 61.459 54.6484 61.291 54.8125C61.4551 54.9102 61.4863 55.0273 61.3848 55.1641C61.2754 55.1797 61.1738 55.1328 61.0801 55.0234C60.998 55.1289 60.8809 55.1758 60.7285 55.1641C60.6816 55.0273 60.7207 54.9102 60.8457 54.8125ZM59.6504 55.4688L59.8848 55.2812C60.0996 55.3711 60.0996 55.5117 59.8848 55.7031C59.9863 55.7773 60.0488 55.8867 60.0723 56.0312C59.9434 56.125 59.8027 56.0938 59.6504 55.9375C59.5605 56.0859 59.4355 56.1172 59.2754 56.0312C59.2949 55.9023 59.3574 55.7852 59.4629 55.6797C59.3145 55.5938 59.2754 55.4688 59.3457 55.3047C59.4707 55.3008 59.5723 55.3555 59.6504 55.4688ZM61.7598 55.7031C61.6074 55.5664 61.584 55.4258 61.6895 55.2812C61.7988 55.3047 61.8926 55.3672 61.9707 55.4688C62.0723 55.3125 62.2051 55.2734 62.3691 55.3516C62.3652 55.4727 62.3105 55.5742 62.2051 55.6562C62.2402 55.7422 62.3027 55.8281 62.3926 55.9141C62.3457 56.1016 62.2441 56.1328 62.0879 56.0078L61.9707 55.9141C61.9082 56.0195 61.8066 56.0742 61.666 56.0781C61.5488 55.9453 61.5801 55.8203 61.7598 55.7031ZM58.5254 56.6406C58.3535 56.5117 58.3223 56.3711 58.4316 56.2188C58.5527 56.2266 58.6543 56.2891 58.7363 56.4062C58.8496 56.25 58.9824 56.2109 59.1348 56.2891C59.1309 56.4102 59.0762 56.5195 58.9707 56.6172C59.1074 56.7422 59.1387 56.8672 59.0645 56.9922C58.9668 57.043 58.8809 57.0117 58.8066 56.8984L58.7363 56.8516C58.6738 56.9648 58.5723 57.0195 58.4316 57.0156C58.334 56.8945 58.3652 56.7695 58.5254 56.6406ZM62.6973 56.6172C62.5176 56.5117 62.4785 56.3789 62.5801 56.2188C62.7051 56.2227 62.8066 56.2852 62.8848 56.4062C62.9863 56.2695 63.1191 56.2227 63.2832 56.2656C63.3066 56.4023 63.252 56.5195 63.1191 56.6172C63.3809 56.9688 63.3496 57.0859 63.0254 56.9688L62.8848 56.875C62.8262 56.9727 62.7324 57.0195 62.6035 57.0156C62.4902 56.8945 62.5215 56.7617 62.6973 56.6172ZM57.6113 57.5781C57.4004 57.418 57.377 57.2695 57.541 57.1328C57.6309 57.168 57.7168 57.2305 57.7988 57.3203C57.9043 57.2031 58.0371 57.1641 58.1973 57.2031C58.2129 57.3359 58.1582 57.4531 58.0332 57.5547C58.2949 57.9258 58.2559 58.0352 57.916 57.8828L57.7988 57.7891C57.7402 57.8828 57.6543 57.9375 57.541 57.9531C57.3887 57.8359 57.4121 57.7109 57.6113 57.5781ZM58.5254 57.5547C58.3457 57.4219 58.3223 57.2812 58.4551 57.1328C58.5527 57.1562 58.6387 57.2188 58.7129 57.3203C58.8027 57.1914 58.9199 57.1445 59.0645 57.1797C59.127 57.2734 59.1113 57.3672 59.0176 57.4609L58.9473 57.5547C59.0605 57.625 59.1152 57.7344 59.1113 57.8828C58.9746 57.9727 58.8418 57.9336 58.7129 57.7656C58.6348 57.9297 58.5098 57.9688 58.3379 57.8828C58.3574 57.7539 58.4199 57.6445 58.5254 57.5547ZM63.6348 57.5547C63.459 57.4219 63.4355 57.2812 63.5645 57.1328C63.6621 57.1523 63.748 57.207 63.8223 57.2969C63.8926 57.2695 63.9629 57.2148 64.0332 57.1328C64.2754 57.1992 64.2832 57.3398 64.0566 57.5547C64.2793 57.707 64.2949 57.8398 64.1035 57.9531C64.0098 57.918 63.916 57.8555 63.8223 57.7656C63.752 57.8906 63.6426 57.9453 63.4941 57.9297C63.4434 57.7852 63.4902 57.6602 63.6348 57.5547ZM59.4629 57.5547C59.3027 57.457 59.2637 57.3242 59.3457 57.1562C59.4746 57.1562 59.5762 57.2188 59.6504 57.3438C59.7676 57.1836 59.9082 57.1445 60.0723 57.2266C60.0527 57.3555 59.9902 57.4648 59.8848 57.5547C60.1543 57.9336 60.1152 58.043 59.7676 57.8828L59.6504 57.8125C59.5918 57.9102 59.498 57.957 59.3691 57.9531C59.2559 57.8281 59.2871 57.6953 59.4629 57.5547ZM61.8066 57.5781C61.6152 57.4336 61.5996 57.293 61.7598 57.1562C61.8457 57.1914 61.9238 57.2539 61.9941 57.3438C62.0527 57.3086 62.1074 57.2539 62.1582 57.1797C62.4043 57.1836 62.4512 57.2852 62.2988 57.4844L62.2285 57.5781C62.3457 57.6523 62.4004 57.7617 62.3926 57.9062C62.2871 58.0039 62.1543 57.9727 61.9941 57.8125C61.9043 57.957 61.7793 57.9883 61.6191 57.9062C61.6387 57.7773 61.7012 57.668 61.8066 57.5781ZM62.6973 57.5547C62.5215 57.4531 62.4902 57.3203 62.6035 57.1562C62.7168 57.1758 62.8105 57.2383 62.8848 57.3438C62.9902 57.2266 63.123 57.1797 63.2832 57.2031C63.3066 57.3398 63.2598 57.457 63.1426 57.5547C63.3613 57.8555 63.3301 57.9805 63.0488 57.9297L62.9316 57.8125C62.6816 58.0391 62.5488 58.0156 62.5332 57.7422C62.5996 57.6992 62.6543 57.6367 62.6973 57.5547Z" fill="url(#paint11_linear_2805_3342)"/>
										<rect x="42.25" y="27.25" width="27.5" height="2.5" rx="1.25" fill="url(#paint12_linear_2805_3342)" stroke="url(#paint13_linear_2805_3342)" stroke-width="0.5"/>
										<circle cx="84.5" cy="28.5" r="1.75" fill="url(#paint14_linear_2805_3342)" stroke="url(#paint15_linear_2805_3342)" stroke-width="0.5"/>
										<circle cx="27.5" cy="28.5" r="1.75" fill="url(#paint16_linear_2805_3342)" stroke="url(#paint17_linear_2805_3342)" stroke-width="0.5"/>
										<rect x="42.25" y="82.25" width="27.5" height="2.5" rx="1.25" fill="url(#paint18_linear_2805_3342)" stroke="url(#paint19_linear_2805_3342)" stroke-width="0.5"/>
										<circle cx="84.5" cy="83.5" r="1.75" fill="url(#paint20_linear_2805_3342)" stroke="url(#paint21_linear_2805_3342)" stroke-width="0.5"/>
										<circle cx="27.5" cy="83.5" r="1.75" fill="url(#paint22_linear_2805_3342)" stroke="url(#paint23_linear_2805_3342)" stroke-width="0.5"/>
										<defs>
										<linearGradient id="paint0_linear_2805_3342" x1="56" y1="6" x2="56" y2="106" gradientUnits="userSpaceOnUse">
										<stop stop-color="#1C2138"/>
										<stop offset="1" stop-color="#15182A"/>
										</linearGradient>
										<linearGradient id="paint1_linear_2805_3342" x1="56" y1="46.0476" x2="56" y2="73.6429" gradientUnits="userSpaceOnUse">
										<stop stop-color="#9CBCED"/>
										<stop offset="0.51" stop-color="#9CC3F2"/>
										<stop offset="1" stop-color="#82B4F0"/>
										</linearGradient>
										<linearGradient id="paint2_linear_2805_3342" x1="52.6667" y1="73.3333" x2="51.3333" y2="77.6667" gradientUnits="userSpaceOnUse">
										<stop stop-color="#222A4A"/>
										<stop offset="1" stop-color="#262E4B"/>
										</linearGradient>
										<linearGradient id="paint3_linear_2805_3342" x1="51.3333" y1="73.6667" x2="51" y2="78.3333" gradientUnits="userSpaceOnUse">
										<stop stop-color="#3A4162"/>
										<stop offset="1" stop-color="#252E54"/>
										</linearGradient>
										<linearGradient id="paint4_linear_2805_3342" x1="57.6667" y1="73.3333" x2="56.3333" y2="77.6667" gradientUnits="userSpaceOnUse">
										<stop stop-color="#222A4A"/>
										<stop offset="1" stop-color="#262E4B"/>
										</linearGradient>
										<linearGradient id="paint5_linear_2805_3342" x1="56.3333" y1="73.6667" x2="56" y2="78.3333" gradientUnits="userSpaceOnUse">
										<stop stop-color="#3A4162"/>
										<stop offset="1" stop-color="#252E54"/>
										</linearGradient>
										<linearGradient id="paint6_linear_2805_3342" x1="62.6667" y1="73.3333" x2="61.3333" y2="77.6667" gradientUnits="userSpaceOnUse">
										<stop stop-color="#222A4A"/>
										<stop offset="1" stop-color="#262E4B"/>
										</linearGradient>
										<linearGradient id="paint7_linear_2805_3342" x1="61.3333" y1="73.6667" x2="61" y2="78.3333" gradientUnits="userSpaceOnUse">
										<stop stop-color="#3A4162"/>
										<stop offset="1" stop-color="#252E54"/>
										</linearGradient>
										<linearGradient id="paint8_linear_2805_3342" x1="56.5" y1="20.3077" x2="56.5" y2="89.6923" gradientUnits="userSpaceOnUse">
										<stop stop-color="#191D2E"/>
										<stop offset="0.494234" stop-color="#181B29"/>
										<stop offset="1" stop-color="#191D2E"/>
										</linearGradient>
										<linearGradient id="paint9_linear_2805_3342" x1="56.5" y1="44" x2="56.5" y2="66" gradientUnits="userSpaceOnUse">
										<stop stop-color="#202639"/>
										<stop offset="1" stop-color="#242D46"/>
										</linearGradient>
										<linearGradient id="paint10_linear_2805_3342" x1="62.5" y1="38.2609" x2="56.9912" y2="66.0972" gradientUnits="userSpaceOnUse">
										<stop stop-color="#323D5E"/>
										<stop offset="1" stop-color="#212435"/>
										</linearGradient>
										<linearGradient id="paint11_linear_2805_3342" x1="56" y1="52.6429" x2="56" y2="59.1786" gradientUnits="userSpaceOnUse">
										<stop stop-color="#EEEEEE"/>
										<stop offset="0.51" stop-color="#C8DCF5"/>
										<stop offset="1" stop-color="#CBD5E2"/>
										</linearGradient>
										<linearGradient id="paint12_linear_2805_3342" x1="56" y1="23.7692" x2="56" y2="33.2308" gradientUnits="userSpaceOnUse">
										<stop stop-color="#191D2E"/>
										<stop offset="0.494234" stop-color="#181B29"/>
										<stop offset="1" stop-color="#191D2E"/>
										</linearGradient>
										<linearGradient id="paint13_linear_2805_3342" x1="56" y1="27" x2="56" y2="29.5" gradientUnits="userSpaceOnUse">
										<stop stop-color="#1D202F" stop-opacity="0"/>
										<stop offset="1" stop-color="#242C45"/>
										</linearGradient>
										<linearGradient id="paint14_linear_2805_3342" x1="84.5" y1="23.7692" x2="84.5" y2="33.2308" gradientUnits="userSpaceOnUse">
										<stop stop-color="#191D2E"/>
										<stop offset="0.494234" stop-color="#181B29"/>
										<stop offset="1" stop-color="#191D2E"/>
										</linearGradient>
										<linearGradient id="paint15_linear_2805_3342" x1="84.5" y1="27" x2="84.5" y2="29.5" gradientUnits="userSpaceOnUse">
										<stop stop-color="#1D202F" stop-opacity="0"/>
										<stop offset="1" stop-color="#242C45"/>
										</linearGradient>
										<linearGradient id="paint16_linear_2805_3342" x1="27.5" y1="23.7692" x2="27.5" y2="33.2308" gradientUnits="userSpaceOnUse">
										<stop stop-color="#191D2E"/>
										<stop offset="0.494234" stop-color="#181B29"/>
										<stop offset="1" stop-color="#191D2E"/>
										</linearGradient>
										<linearGradient id="paint17_linear_2805_3342" x1="27.5" y1="27" x2="27.5" y2="29.5" gradientUnits="userSpaceOnUse">
										<stop stop-color="#1D202F" stop-opacity="0"/>
										<stop offset="1" stop-color="#242C45"/>
										</linearGradient>
										<linearGradient id="paint18_linear_2805_3342" x1="56" y1="78.7692" x2="56" y2="88.2308" gradientUnits="userSpaceOnUse">
										<stop stop-color="#191D2E"/>
										<stop offset="0.494234" stop-color="#181B29"/>
										<stop offset="1" stop-color="#191D2E"/>
										</linearGradient>
										<linearGradient id="paint19_linear_2805_3342" x1="56" y1="82" x2="56" y2="84.5" gradientUnits="userSpaceOnUse">
										<stop stop-color="#1D202F" stop-opacity="0"/>
										<stop offset="1" stop-color="#242C45"/>
										</linearGradient>
										<linearGradient id="paint20_linear_2805_3342" x1="84.5" y1="78.7692" x2="84.5" y2="88.2308" gradientUnits="userSpaceOnUse">
										<stop stop-color="#191D2E"/>
										<stop offset="0.494234" stop-color="#181B29"/>
										<stop offset="1" stop-color="#191D2E"/>
										</linearGradient>
										<linearGradient id="paint21_linear_2805_3342" x1="84.5" y1="82" x2="84.5" y2="84.5" gradientUnits="userSpaceOnUse">
										<stop stop-color="#1D202F" stop-opacity="0"/>
										<stop offset="1" stop-color="#242C45"/>
										</linearGradient>
										<linearGradient id="paint22_linear_2805_3342" x1="27.5" y1="78.7692" x2="27.5" y2="88.2308" gradientUnits="userSpaceOnUse">
										<stop stop-color="#191D2E"/>
										<stop offset="0.494234" stop-color="#181B29"/>
										<stop offset="1" stop-color="#191D2E"/>
										</linearGradient>
										<linearGradient id="paint23_linear_2805_3342" x1="27.5" y1="82" x2="27.5" y2="84.5" gradientUnits="userSpaceOnUse">
										<stop stop-color="#1D202F" stop-opacity="0"/>
										<stop offset="1" stop-color="#242C45"/>
										</linearGradient>
										</defs>
									</svg>