<svg width="329" height="300" viewBox="0 0 329 300" fill="none" xmlns="http://www.w3.org/2000/svg">
<g filter="url(#filter0_df_6450_255)">
<mask id="path-1-inside-1_6450_255" fill="white">
<path d="M92.7165 24.8164C119.155 12.3999 148.682 8.10224 177.564 12.4669C206.445 16.8317 233.384 29.6627 254.973 49.3374C276.562 69.0122 291.832 94.647 298.852 123C305.872 151.353 304.326 181.152 294.411 208.626C284.496 236.101 266.656 260.019 243.147 277.355C219.639 294.691 191.517 304.666 162.339 306.02C133.162 307.374 104.237 300.044 79.2249 284.96C54.2123 269.875 34.2346 247.711 21.8181 221.273L44.4709 210.634C54.7834 232.593 71.3756 251 92.1496 263.529C112.924 276.057 136.946 282.144 161.18 281.02C185.413 279.896 208.769 271.611 228.294 257.213C247.819 242.815 262.635 222.95 270.87 200.131C279.106 177.312 280.389 152.563 274.559 129.015C268.728 105.466 256.046 84.1756 238.115 67.8349C220.185 51.4943 197.811 40.8376 173.824 37.2125C149.837 33.5874 125.313 37.1568 103.355 47.4692L92.7165 24.8164Z"/>
</mask>
<path d="M92.7165 24.8164C119.155 12.3999 148.682 8.10224 177.564 12.4669C206.445 16.8317 233.384 29.6627 254.973 49.3374C276.562 69.0122 291.832 94.647 298.852 123C305.872 151.353 304.326 181.152 294.411 208.626C284.496 236.101 266.656 260.019 243.147 277.355C219.639 294.691 191.517 304.666 162.339 306.02C133.162 307.374 104.237 300.044 79.2249 284.96C54.2123 269.875 34.2346 247.711 21.8181 221.273L44.4709 210.634C54.7834 232.593 71.3756 251 92.1496 263.529C112.924 276.057 136.946 282.144 161.18 281.02C185.413 279.896 208.769 271.611 228.294 257.213C247.819 242.815 262.635 222.95 270.87 200.131C279.106 177.312 280.389 152.563 274.559 129.015C268.728 105.466 256.046 84.1756 238.115 67.8349C220.185 51.4943 197.811 40.8376 173.824 37.2125C149.837 33.5874 125.313 37.1568 103.355 47.4692L92.7165 24.8164Z" stroke="#FF70E4" stroke-width="4" shape-rendering="crispEdges" mask="url(#path-1-inside-1_6450_255)"/>
</g>
<defs>
<filter id="filter0_df_6450_255" x="-3.17969" y="0.808594" width="331.359" height="345.37" filterUnits="userSpaceOnUse" color-interpolation-filters="sRGB">
<feFlood flood-opacity="0" result="BackgroundImageFix"/>
<feColorMatrix in="SourceAlpha" type="matrix" values="0 0 0 0 0 0 0 0 0 0 0 0 0 0 0 0 0 0 127 0" result="hardAlpha"/>
<feOffset dy="15"/>
<feGaussianBlur stdDeviation="12.5"/>
<feComposite in2="hardAlpha" operator="out"/>
<feColorMatrix type="matrix" values="0 0 0 0 1 0 0 0 0 0.4375 0 0 0 0 0.894812 0 0 0 0.47 0"/>
<feBlend mode="normal" in2="BackgroundImageFix" result="effect1_dropShadow_6450_255"/>
<feBlend mode="normal" in="SourceGraphic" in2="effect1_dropShadow_6450_255" result="shape"/>
<feGaussianBlur stdDeviation="0.5" result="effect2_foregroundBlur_6450_255"/>
</filter>
</defs>
</svg>
