						<svg width="83" height="54" viewBox="0 0 83 54" fill="none" xmlns="http://www.w3.org/2000/svg">
							<rect x="1" y="1" width="23" height="23" rx="4" fill="#181C2D"/>
							<circle cx="12.5" cy="12.5" r="7.25" stroke="#323F5F" stroke-width="0.5"/>
							<rect x="24.25" y="24.25" width="23.5" height="23.5" rx="4.25" transform="rotate(-180 24.25 24.25)" stroke="url(#paint0_linear_2694_9986)" stroke-width="0.5"/>
							<rect x="1" y="30" width="23" height="23" rx="4" fill="#181C2D"/>
							<rect x="24.25" y="53.25" width="23.5" height="23.5" rx="4.25" transform="rotate(-180 24.25 53.25)" stroke="url(#paint1_linear_2694_9986)" stroke-width="0.5"/>
							<circle cx="12.5" cy="41.5" r="7.25" stroke="#323F5F" stroke-width="0.5"/>
							<rect x="30" y="1" width="23" height="23" rx="4" fill="#181C2D"/>
							<rect x="35.25" y="6.25" width="13.5" height="13.5" rx="1.75" stroke="#8DA7C9" stroke-width="0.5"/>
							<g opacity="0.12" filter="url(#filter0_f_2694_9986)">
							<ellipse cx="42" cy="23.5" rx="7" ry="0.5" fill="url(#paint2_linear_2694_9986)"/>
							</g>
							<rect x="53.25" y="24.25" width="23.5" height="23.5" rx="4.25" transform="rotate(-180 53.25 24.25)" stroke="url(#paint3_linear_2694_9986)" stroke-width="0.5"/>
							<rect x="30" y="30" width="23" height="23" rx="4" fill="#181C2D"/>
							<rect x="53.25" y="53.25" width="23.5" height="23.5" rx="4.25" transform="rotate(-180 53.25 53.25)" stroke="url(#paint4_linear_2694_9986)" stroke-width="0.5"/>
							<path d="M40.8589 35.5376C41.151 35.0566 41.849 35.0566 42.1411 35.5376L48.8641 46.6108C49.1675 47.1106 48.8077 47.75 48.223 47.75H34.777C34.1923 47.75 33.8325 47.1106 34.1359 46.6108L40.8589 35.5376Z" stroke="#323F5F" stroke-width="0.5"/>
							<rect x="59" y="1" width="23" height="23" rx="4" fill="#181C2D"/>
							<g opacity="0.12" filter="url(#filter1_f_2694_9986)">
							<ellipse cx="71" cy="23.5" rx="7" ry="0.5" fill="url(#paint5_linear_2694_9986)"/>
							</g>
							<rect x="82.25" y="24.25" width="23.5" height="23.5" rx="4.25" transform="rotate(-180 82.25 24.25)" stroke="url(#paint6_linear_2694_9986)" stroke-width="0.5"/>
							<circle cx="70.5" cy="12.5" r="7.25" stroke="#8DA7C9" stroke-width="0.5"/>
							<rect x="59" y="30" width="23" height="23" rx="4" fill="#181C2D"/>
							<rect x="82.25" y="53.25" width="23.5" height="23.5" rx="4.25" transform="rotate(-180 82.25 53.25)" stroke="url(#paint7_linear_2694_9986)" stroke-width="0.5"/>
							<rect x="64.25" y="35.25" width="13.5" height="13.5" rx="1.75" stroke="#323F5F" stroke-width="0.5"/>
							<defs>
							<filter id="filter0_f_2694_9986" x="33" y="21" width="18" height="5" filterUnits="userSpaceOnUse" color-interpolation-filters="sRGB">
							<feFlood flood-opacity="0" result="BackgroundImageFix"/>
							<feBlend mode="normal" in="SourceGraphic" in2="BackgroundImageFix" result="shape"/>
							<feGaussianBlur stdDeviation="1" result="effect1_foregroundBlur_2694_9986"/>
							</filter>
							<filter id="filter1_f_2694_9986" x="62" y="21" width="18" height="5" filterUnits="userSpaceOnUse" color-interpolation-filters="sRGB">
							<feFlood flood-opacity="0" result="BackgroundImageFix"/>
							<feBlend mode="normal" in="SourceGraphic" in2="BackgroundImageFix" result="shape"/>
							<feGaussianBlur stdDeviation="1" result="effect1_foregroundBlur_2694_9986"/>
							</filter>
							<linearGradient id="paint0_linear_2694_9986" x1="35.5" y1="24" x2="35.5" y2="47" gradientUnits="userSpaceOnUse">
							<stop stop-color="#4C5375" stop-opacity="0.6"/>
							<stop offset="1" stop-color="#1D2135" stop-opacity="0"/>
							</linearGradient>
							<linearGradient id="paint1_linear_2694_9986" x1="35.5" y1="53" x2="35.5" y2="76" gradientUnits="userSpaceOnUse">
							<stop stop-color="#4C5375" stop-opacity="0.6"/>
							<stop offset="1" stop-color="#1D2135" stop-opacity="0"/>
							</linearGradient>
							<linearGradient id="paint2_linear_2694_9986" x1="39.6667" y1="22.5" x2="39.6041" y2="26.355" gradientUnits="userSpaceOnUse">
							<stop stop-color="#92B8E7"/>
							<stop offset="0.51" stop-color="#C8DCF5"/>
							<stop offset="1" stop-color="#CBD5E2"/>
							</linearGradient>
							<linearGradient id="paint3_linear_2694_9986" x1="64.5" y1="24" x2="64.5" y2="47" gradientUnits="userSpaceOnUse">
							<stop stop-color="#4C5375" stop-opacity="0.6"/>
							<stop offset="1" stop-color="#1D2135" stop-opacity="0"/>
							</linearGradient>
							<linearGradient id="paint4_linear_2694_9986" x1="64.5" y1="53" x2="64.5" y2="76" gradientUnits="userSpaceOnUse">
							<stop stop-color="#4C5375" stop-opacity="0.6"/>
							<stop offset="1" stop-color="#1D2135" stop-opacity="0"/>
							</linearGradient>
							<linearGradient id="paint5_linear_2694_9986" x1="68.6667" y1="22.5" x2="68.6041" y2="26.355" gradientUnits="userSpaceOnUse">
							<stop stop-color="#92B8E7"/>
							<stop offset="0.51" stop-color="#C8DCF5"/>
							<stop offset="1" stop-color="#CBD5E2"/>
							</linearGradient>
							<linearGradient id="paint6_linear_2694_9986" x1="93.5" y1="24" x2="93.5" y2="47" gradientUnits="userSpaceOnUse">
							<stop stop-color="#4C5375" stop-opacity="0.6"/>
							<stop offset="1" stop-color="#1D2135" stop-opacity="0"/>
							</linearGradient>
							<linearGradient id="paint7_linear_2694_9986" x1="93.5" y1="53" x2="93.5" y2="76" gradientUnits="userSpaceOnUse">
							<stop stop-color="#4C5375" stop-opacity="0.6"/>
							<stop offset="1" stop-color="#1D2135" stop-opacity="0"/>
							</linearGradient>
							</defs>
						</svg>