						<svg width="129" height="58" viewBox="0 0 129 58" fill="none" xmlns="http://www.w3.org/2000/svg">
							<mask id="path-1-inside-1_2694_10075" fill="white">
							<path fill-rule="evenodd" clip-rule="evenodd" d="M111.272 4.20696C112.035 1.7691 114.311 0 117 0H123C126.314 0 129 2.68629 129 6C129 9.31371 126.314 12 123 12H117C114.416 12 112.213 10.3665 111.369 8.0757L107.175 11.6707C107.064 11.7657 107 11.9043 107 12.0503V32H104V12.0503C104 11.0286 104.446 10.0578 105.222 9.39291L111.272 4.20696Z"/>
							</mask>
							<path fill-rule="evenodd" clip-rule="evenodd" d="M111.272 4.20696C112.035 1.7691 114.311 0 117 0H123C126.314 0 129 2.68629 129 6C129 9.31371 126.314 12 123 12H117C114.416 12 112.213 10.3665 111.369 8.0757L107.175 11.6707C107.064 11.7657 107 11.9043 107 12.0503V32H104V12.0503C104 11.0286 104.446 10.0578 105.222 9.39291L111.272 4.20696Z" fill="#181C2D"/>
							<path d="M111.272 4.20696L111.75 4.3562L111.707 4.49319L111.598 4.58659L111.272 4.20696ZM111.369 8.0757L111.043 7.69607L111.589 7.22823L111.838 7.90272L111.369 8.0757ZM107.175 11.6707L107.5 12.0503L107.5 12.0503L107.175 11.6707ZM107 32H107.5V32.5H107V32ZM104 32V32.5H103.5V32H104ZM105.222 9.39291L104.897 9.01328L105.222 9.39291ZM110.795 4.05772C111.621 1.41715 114.086 -0.5 117 -0.5V0.5C114.536 0.5 112.449 2.12105 111.75 4.3562L110.795 4.05772ZM117 -0.5H123V0.5H117V-0.5ZM123 -0.5C126.59 -0.5 129.5 2.41015 129.5 6H128.5C128.5 2.96243 126.038 0.5 123 0.5V-0.5ZM129.5 6C129.5 9.58985 126.59 12.5 123 12.5V11.5C126.038 11.5 128.5 9.03757 128.5 6H129.5ZM123 12.5H117V11.5H123V12.5ZM117 12.5C114.2 12.5 111.814 10.7296 110.9 8.24868L111.838 7.90272C112.612 10.0033 114.632 11.5 117 11.5V12.5ZM111.694 8.45533L107.5 12.0503L106.849 11.291L111.043 7.69607L111.694 8.45533ZM107.5 12.0503L107.5 12.0503H106.5C106.5 11.7584 106.628 11.481 106.849 11.291L107.5 12.0503ZM107.5 12.0503V32H106.5V12.0503H107.5ZM107 32.5H104V31.5H107V32.5ZM103.5 32V12.0503H104.5V32H103.5ZM103.5 12.0503C103.5 10.8826 104.01 9.77321 104.897 9.01328L105.548 9.77254C104.883 10.3425 104.5 11.1745 104.5 12.0503H103.5ZM104.897 9.01328L110.947 3.82733L111.598 4.58659L105.548 9.77254L104.897 9.01328Z" fill="url(#paint0_linear_2694_10075)" mask="url(#path-1-inside-1_2694_10075)"/>
							<!-- <rect x="114.25" y="3.25" width="11.5" height="5.5" rx="2.75" stroke="#8DA7C9" stroke-width="0.5"/> -->
							<path fill-rule="evenodd" clip-rule="evenodd" d="M107 12.0503L107 32L104 32L104 12.0503C104 11.0286 104.446 10.0578 105.222 9.39291L111.524 3.99155L113.476 6.26932L107.175 11.6707C107.064 11.7657 107 11.9043 107 12.0503Z" fill="url(#paint1_linear_2694_10075)"/>
							<path fill-rule="evenodd" clip-rule="evenodd" d="M48.4324 38.5H31.5V35.5H48.4324C49.3607 35.5 50.2509 35.8687 50.9073 36.5251L54.8215 40.4393L52.7002 42.5607L48.786 38.6464C48.6922 38.5527 48.5651 38.5 48.4324 38.5Z" fill="#181C2D"/>
							<path d="M31.5 38.5H48.4324C48.5651 38.5 48.6922 38.5527 48.786 38.6464L52.7002 42.5607" stroke="url(#paint2_linear_2694_10075)" stroke-width="0.5"/>
							<path d="M31.5 38.5H48.4324C48.5651 38.5 48.6922 38.5527 48.786 38.6464L52.7002 42.5607" stroke="url(#paint3_linear_2694_10075)" stroke-width="0.5"/>
							<path fill-rule="evenodd" clip-rule="evenodd" d="M78.8879 38H95.8203V35H78.8879C77.9596 35 77.0694 35.3687 76.413 36.0251L72.4988 39.9393L74.6201 42.0607L78.5343 38.1464C78.6281 38.0527 78.7553 38 78.8879 38Z" fill="#181C2D"/>
							<path d="M95.8203 38H78.8879C78.7553 38 78.6281 38.0527 78.5343 38.1464L74.6201 42.0607" stroke="url(#paint4_linear_2694_10075)" stroke-width="0.5"/>
							<path d="M95.8203 38H78.8879C78.7553 38 78.6281 38.0527 78.5343 38.1464L74.6201 42.0607" stroke="url(#paint5_linear_2694_10075)" stroke-width="0.5"/>
							<circle cx="64" cy="46" r="11.75" fill="#181C2D" stroke="url(#paint6_linear_2694_10075)" stroke-width="0.5"/>
							<mask id="path-12-inside-2_2694_10075" fill="white">
							<path fill-rule="evenodd" clip-rule="evenodd" d="M6 0C2.68629 0 0 2.68629 0 6C0 9.31371 2.68629 12 6 12H12C14.4625 12 16.5786 10.5165 17.5032 8.39447L21.3254 11.6707C21.4362 11.7657 21.5 11.9043 21.5 12.0503V32H24.5V12.0503C24.5 11.0286 24.0535 10.0578 23.2778 9.39291L17.8715 4.75896C17.2998 2.04074 14.8882 0 12 0H6Z"/>
							</mask>
							<path fill-rule="evenodd" clip-rule="evenodd" d="M6 0C2.68629 0 0 2.68629 0 6C0 9.31371 2.68629 12 6 12H12C14.4625 12 16.5786 10.5165 17.5032 8.39447L21.3254 11.6707C21.4362 11.7657 21.5 11.9043 21.5 12.0503V32H24.5V12.0503C24.5 11.0286 24.0535 10.0578 23.2778 9.39291L17.8715 4.75896C17.2998 2.04074 14.8882 0 12 0H6Z" fill="#181C2D"/>
							<path d="M17.5032 8.39447L17.8286 8.01485L17.315 7.57463L17.0448 8.19475L17.5032 8.39447ZM21.3254 11.6707L21 12.0503L21 12.0503L21.3254 11.6707ZM21.5 32H21V32.5H21.5V32ZM24.5 32V32.5H25V32H24.5ZM23.2778 9.39291L23.6032 9.01328L23.2778 9.39291ZM17.8715 4.75896L17.3822 4.86186L17.4172 5.02806L17.5461 5.13859L17.8715 4.75896ZM0.5 6C0.5 2.96243 2.96243 0.5 6 0.5V-0.5C2.41015 -0.5 -0.5 2.41015 -0.5 6H0.5ZM6 11.5C2.96243 11.5 0.5 9.03757 0.5 6H-0.5C-0.5 9.58985 2.41015 12.5 6 12.5V11.5ZM12 11.5H6V12.5H12V11.5ZM17.0448 8.19475C16.1968 10.141 14.2565 11.5 12 11.5V12.5C14.6685 12.5 16.9603 10.892 17.9615 8.5942L17.0448 8.19475ZM17.1778 8.7741L21 12.0503L21.6508 11.291L17.8286 8.01485L17.1778 8.7741ZM21 12.0503L21 12.0503H22C22 11.7584 21.8724 11.481 21.6508 11.291L21 12.0503ZM21 12.0503V32H22V12.0503H21ZM21.5 32.5H24.5V31.5H21.5V32.5ZM25 32V12.0503H24V32H25ZM25 12.0503C25 10.8826 24.4897 9.77321 23.6032 9.01328L22.9524 9.77254C23.6173 10.3425 24 11.1745 24 12.0503H25ZM23.6032 9.01328L18.1969 4.37933L17.5461 5.13859L22.9524 9.77254L23.6032 9.01328ZM12 0.5C14.6469 0.5 16.8582 2.37034 17.3822 4.86186L18.3608 4.65605C17.7414 1.71115 15.1295 -0.5 12 -0.5V0.5ZM6 0.5H12V-0.5H6V0.5Z" fill="url(#paint7_linear_2694_10075)" mask="url(#path-12-inside-2_2694_10075)"/>
							<!-- <rect x="3.25" y="3.25" width="11.5" height="5.5" rx="2.75" stroke="#8DA7C9" stroke-width="0.5"/> -->
							<path fill-rule="evenodd" clip-rule="evenodd" d="M21.5 12.0503L21.5 32L24.5 32L24.5 12.0503C24.5 11.0286 24.0535 10.0578 23.2778 9.39291L16.9762 3.99155L15.0238 6.26932L21.3254 11.6707C21.4362 11.7657 21.5 11.9043 21.5 12.0503Z" fill="url(#paint8_linear_2694_10075)"/>
							<rect x="96.25" y="30.25" width="17.5" height="11.5" rx="5.75" fill="#181C2D" stroke="url(#paint9_linear_2694_10075)" stroke-width="0.5"/>
							<rect x="14.25" y="31.25" width="17.5" height="11.5" rx="5.75" fill="#181C2D" stroke="url(#paint10_linear_2694_10075)" stroke-width="0.5"/>
							<!-- <rect x="17.25" y="34.25" width="11.5" height="5.5" rx="2.75" stroke="#8DA7C9" stroke-width="0.5"/> -->
							<circle cx="64" cy="46" r="6.75" stroke="#8DA7C9" stroke-width="0.5"/>
							<!-- <rect x="99.25" y="33.25" width="11.5" height="5.5" rx="2.75" stroke="#8DA7C9" stroke-width="0.5"/> -->
							<defs>
							<linearGradient id="paint0_linear_2694_10075" x1="119.434" y1="14" x2="119.597" y2="6.49523" gradientUnits="userSpaceOnUse">
							<stop stop-color="#4C5375" stop-opacity="0.3"/>
							<stop offset="1" stop-color="#4C5375" stop-opacity="0"/>
							</linearGradient>
							<linearGradient id="paint1_linear_2694_10075" x1="105" y1="17.5" x2="109" y2="17.5" gradientUnits="userSpaceOnUse">
							<stop stop-color="#181C2D"/>
							<stop offset="1" stop-color="#181C2D" stop-opacity="0"/>
							</linearGradient>
							<linearGradient id="paint2_linear_2694_10075" x1="39" y1="52" x2="43.5" y2="35.5" gradientUnits="userSpaceOnUse">
							<stop stop-color="#4C5375" stop-opacity="0"/>
							<stop offset="1" stop-color="#181C2D"/>
							</linearGradient>
							<linearGradient id="paint3_linear_2694_10075" x1="20" y1="42" x2="49" y2="39" gradientUnits="userSpaceOnUse">
							<stop stop-color="#181C2D"/>
							<stop offset="1" stop-color="#181C2D" stop-opacity="0"/>
							</linearGradient>
							<linearGradient id="paint4_linear_2694_10075" x1="88.3203" y1="51.5" x2="83.8203" y2="35" gradientUnits="userSpaceOnUse">
							<stop stop-color="#4C5375" stop-opacity="0"/>
							<stop offset="1" stop-color="#181C2D"/>
							</linearGradient>
							<linearGradient id="paint5_linear_2694_10075" x1="107.32" y1="41.5" x2="78.3203" y2="38.5" gradientUnits="userSpaceOnUse">
							<stop stop-color="#181C2D"/>
							<stop offset="1" stop-color="#181C2D" stop-opacity="0"/>
							</linearGradient>
							<linearGradient id="paint6_linear_2694_10075" x1="64.5" y1="62" x2="64" y2="47" gradientUnits="userSpaceOnUse">
							<stop stop-color="#4C5375" stop-opacity="0.3"/>
							<stop offset="0.0001" stop-color="#4C5375" stop-opacity="0.6"/>
							<stop offset="1" stop-color="#4C5375" stop-opacity="0"/>
							</linearGradient>
							<linearGradient id="paint7_linear_2694_10075" x1="9.375" y1="14" x2="9.20823" y2="6.49537" gradientUnits="userSpaceOnUse">
							<stop stop-color="#4C5375" stop-opacity="0.3"/>
							<stop offset="1" stop-color="#4C5375" stop-opacity="0"/>
							</linearGradient>
							<linearGradient id="paint8_linear_2694_10075" x1="23.5" y1="17.5" x2="19.5" y2="17.5" gradientUnits="userSpaceOnUse">
							<stop stop-color="#181C2D"/>
							<stop offset="1" stop-color="#181C2D" stop-opacity="0"/>
							</linearGradient>
							<linearGradient id="paint9_linear_2694_10075" x1="105" y1="44.5" x2="105.208" y2="37.0058" gradientUnits="userSpaceOnUse">
							<stop stop-color="#4C5375" stop-opacity="0.6"/>
							<stop offset="1" stop-color="#4C5375" stop-opacity="0"/>
							</linearGradient>
							<linearGradient id="paint10_linear_2694_10075" x1="23" y1="45.5" x2="23.2079" y2="38.0058" gradientUnits="userSpaceOnUse">
							<stop stop-color="#4C5375" stop-opacity="0.6"/>
							<stop offset="1" stop-color="#4C5375" stop-opacity="0"/>
							</linearGradient>
							</defs>
						</svg>