						<svg width="185" height="229" viewBox="0 0 185 229" fill="none" xmlns="http://www.w3.org/2000/svg">
							<circle cx="92.5" cy="114.5" r="51.5" fill="#181C2D"/>
							<g opacity="0.6">
							<g opacity="0.3" filter="url(#filter0_f_2694_10013)">
							<path d="M92.3688 189L40 65L145 65L92.3688 189Z" fill="#8298E9"/>
							</g>
							<g opacity="0.3" filter="url(#filter1_f_2694_10013)">
							<path d="M92.6313 40L145 164L40 164L92.6313 40Z" fill="#8298E9"/>
							</g>
							</g>
							<g filter="url(#filter2_f_2694_10013)">
							<ellipse cx="93.5" cy="119.5" rx="9.5" ry="8.5" fill="#070917"/>
							</g>
							<g filter="url(#filter3_f_2694_10013)">
							<circle cx="93" cy="114" r="30.5" stroke="#070917"/>
							</g>
							<g filter="url(#filter4_f_2694_10013)">
							<circle cx="93" cy="114" r="31" fill="url(#paint0_radial_2694_10013)"/>
							</g>
							<path d="M83.1597 112.999C83.1597 119.226 87.6656 124.275 93.2231 124.275C98.7805 124.275 103.286 119.226 103.286 112.999C103.286 108.282 100.701 104.241 97.0318 102.56L124.493 108.591C124.705 110.029 124.813 111.502 124.813 112.999C124.813 130.118 110.67 144 93.2231 144C75.7764 144 61.6328 130.118 61.6328 112.999C61.6328 95.8789 75.7764 82 93.2231 82L97.6433 82.3033L129.374 84.484L127.436 104.226L123.439 103.935L94.5546 101.82C94.1174 101.757 93.6745 101.722 93.2231 101.722C87.6656 101.722 83.1597 106.771 83.1597 112.999Z" fill="url(#paint1_linear_2694_10013)"/>
							<path d="M93.2257 102.221C98.455 102.221 102.789 106.991 102.789 112.997C102.789 119.003 98.455 123.773 93.2257 123.773C92.8 123.773 92.3812 123.741 91.9661 123.68C86.0557 122.821 83.6623 117.581 83.6623 112.997C83.6623 106.991 87.9964 102.221 93.2257 102.221Z" stroke="url(#paint2_linear_2694_10013)"/>
							<mask id="mask0_2694_10013" style="mask-type:alpha" maskUnits="userSpaceOnUse" x="61" y="82" width="69" height="62">
							<path d="M83.1597 112.999C83.1597 119.226 87.6656 124.275 93.2231 124.275C98.7805 124.275 103.286 119.226 103.286 112.999C103.286 108.282 100.701 104.241 97.0318 102.56L124.493 108.591C124.705 110.029 124.813 111.502 124.813 112.999C124.813 130.118 110.67 144 93.2231 144C75.7764 144 61.6328 130.118 61.6328 112.999C61.6328 95.8789 75.7764 82 93.2231 82L97.6433 82.3033L129.374 84.484L127.436 104.226L123.439 103.935L94.5546 101.82C94.1174 101.757 93.6745 101.722 93.2231 101.722C87.6656 101.722 83.1597 106.771 83.1597 112.999Z" fill="#BAD0EC"/>
							</mask>
							<g mask="url(#mask0_2694_10013)">
							<g filter="url(#filter5_f_2694_10013)">
							<path fill-rule="evenodd" clip-rule="evenodd" d="M63.9291 113C63.9291 128.832 77.0165 141.704 93.2069 141.704C100.458 141.704 108.38 138.753 114.004 133.5C120.938 127.023 125.504 114.5 123.52 103.934C123.705 105.241 123.52 102.576 123.52 103.934L123.504 104C123.705 105.413 123.52 102.468 123.52 103.934C130.004 127 110.624 144 93.2069 144C75.7897 144 61.6328 130.141 61.6328 113C61.6328 95.8587 75.7897 82 93.2069 82L93.2069 84.2963C77.0165 84.2963 63.9291 97.1679 63.9291 113Z" fill="url(#paint3_linear_2694_10013)"/>
							</g>
							<g filter="url(#filter6_f_2694_10013)">
							<path d="M124.504 110.5C124.504 125.964 112.123 138.5 95.0024 138.5C77.8815 138.5 62.5011 126 65.502 104C65.502 104 63.6962 129.5 93.5039 129.5C123.312 129.5 124.504 110.5 124.504 110.5Z" fill="white"/>
							</g>
							<g opacity="0.6" filter="url(#filter7_f_2694_10013)">
							<path d="M128.5 83.5L132 84L129.5 105.5L126 105L128.5 83.5Z" fill="white"/>
							</g>
							<g opacity="0.6" filter="url(#filter8_f_2694_10013)">
							<path d="M47 97.5L87.5 80.5L132 83.5L131 105.5L95 101.5L47 97.5Z" fill="white"/>
							</g>
							<g opacity="0.5" filter="url(#filter9_f_2694_10013)">
							<path d="M127.5 102.5L127.5 104.5L108.5 103L93.5 101.5L127.5 102.5Z" fill="white"/>
							</g>
							</g>
							<g filter="url(#filter10_f_2694_10013)">
							<path d="M124.495 108.59L97.0334 102.559C96.2505 102.198 98.6691 102.793 97.8034 102.666L121.914 105.538C122.386 107.043 124.266 106.996 124.495 108.59Z" fill="url(#paint4_linear_2694_10013)"/>
							</g>
							<path d="M124.493 108.591L97.032 102.56C96.2491 102.199 95.4204 101.947 94.5547 101.82L123.439 103.935C123.911 105.44 124.265 106.996 124.493 108.591Z" fill="url(#paint5_linear_2694_10013)"/>
							<defs>
							<filter id="filter0_f_2694_10013" x="0" y="25" width="185" height="204" filterUnits="userSpaceOnUse" color-interpolation-filters="sRGB">
							<feFlood flood-opacity="0" result="BackgroundImageFix"/>
							<feBlend mode="normal" in="SourceGraphic" in2="BackgroundImageFix" result="shape"/>
							<feGaussianBlur stdDeviation="20" result="effect1_foregroundBlur_2694_10013"/>
							</filter>
							<filter id="filter1_f_2694_10013" x="0" y="0" width="185" height="204" filterUnits="userSpaceOnUse" color-interpolation-filters="sRGB">
							<feFlood flood-opacity="0" result="BackgroundImageFix"/>
							<feBlend mode="normal" in="SourceGraphic" in2="BackgroundImageFix" result="shape"/>
							<feGaussianBlur stdDeviation="20" result="effect1_foregroundBlur_2694_10013"/>
							</filter>
							<filter id="filter2_f_2694_10013" x="60" y="87" width="67" height="65" filterUnits="userSpaceOnUse" color-interpolation-filters="sRGB">
							<feFlood flood-opacity="0" result="BackgroundImageFix"/>
							<feBlend mode="normal" in="SourceGraphic" in2="BackgroundImageFix" result="shape"/>
							<feGaussianBlur stdDeviation="12" result="effect1_foregroundBlur_2694_10013"/>
							</filter>
							<filter id="filter3_f_2694_10013" x="50" y="71" width="86" height="86" filterUnits="userSpaceOnUse" color-interpolation-filters="sRGB">
							<feFlood flood-opacity="0" result="BackgroundImageFix"/>
							<feBlend mode="normal" in="SourceGraphic" in2="BackgroundImageFix" result="shape"/>
							<feGaussianBlur stdDeviation="6" result="effect1_foregroundBlur_2694_10013"/>
							</filter>
							<filter id="filter4_f_2694_10013" x="49" y="70" width="88" height="88" filterUnits="userSpaceOnUse" color-interpolation-filters="sRGB">
							<feFlood flood-opacity="0" result="BackgroundImageFix"/>
							<feBlend mode="normal" in="SourceGraphic" in2="BackgroundImageFix" result="shape"/>
							<feGaussianBlur stdDeviation="6.5" result="effect1_foregroundBlur_2694_10013"/>
							</filter>
							<filter id="filter5_f_2694_10013" x="61.1328" y="81.5" width="64.168" height="63" filterUnits="userSpaceOnUse" color-interpolation-filters="sRGB">
							<feFlood flood-opacity="0" result="BackgroundImageFix"/>
							<feBlend mode="normal" in="SourceGraphic" in2="BackgroundImageFix" result="shape"/>
							<feGaussianBlur stdDeviation="0.25" result="effect1_foregroundBlur_2694_10013"/>
							</filter>
							<filter id="filter6_f_2694_10013" x="51.125" y="90" width="87.3789" height="62.5" filterUnits="userSpaceOnUse" color-interpolation-filters="sRGB">
							<feFlood flood-opacity="0" result="BackgroundImageFix"/>
							<feBlend mode="normal" in="SourceGraphic" in2="BackgroundImageFix" result="shape"/>
							<feGaussianBlur stdDeviation="7" result="effect1_foregroundBlur_2694_10013"/>
							</filter>
							<filter id="filter7_f_2694_10013" x="125" y="82.5" width="8" height="24" filterUnits="userSpaceOnUse" color-interpolation-filters="sRGB">
							<feFlood flood-opacity="0" result="BackgroundImageFix"/>
							<feBlend mode="normal" in="SourceGraphic" in2="BackgroundImageFix" result="shape"/>
							<feGaussianBlur stdDeviation="0.5" result="effect1_foregroundBlur_2694_10013"/>
							</filter>
							<filter id="filter8_f_2694_10013" x="36" y="69.5" width="107" height="47" filterUnits="userSpaceOnUse" color-interpolation-filters="sRGB">
							<feFlood flood-opacity="0" result="BackgroundImageFix"/>
							<feBlend mode="normal" in="SourceGraphic" in2="BackgroundImageFix" result="shape"/>
							<feGaussianBlur stdDeviation="5.5" result="effect1_foregroundBlur_2694_10013"/>
							</filter>
							<filter id="filter9_f_2694_10013" x="92.5" y="100.5" width="36" height="5" filterUnits="userSpaceOnUse" color-interpolation-filters="sRGB">
							<feFlood flood-opacity="0" result="BackgroundImageFix"/>
							<feBlend mode="normal" in="SourceGraphic" in2="BackgroundImageFix" result="shape"/>
							<feGaussianBlur stdDeviation="0.5" result="effect1_foregroundBlur_2694_10013"/>
							</filter>
							<filter id="filter10_f_2694_10013" x="95.875" y="101.441" width="29.6211" height="8.14844" filterUnits="userSpaceOnUse" color-interpolation-filters="sRGB">
							<feFlood flood-opacity="0" result="BackgroundImageFix"/>
							<feBlend mode="normal" in="SourceGraphic" in2="BackgroundImageFix" result="shape"/>
							<feGaussianBlur stdDeviation="0.5" result="effect1_foregroundBlur_2694_10013"/>
							</filter>
							<radialGradient id="paint0_radial_2694_10013" cx="0" cy="0" r="1" gradientUnits="userSpaceOnUse" gradientTransform="translate(93 117.137) rotate(-90) scale(39.1369 44.8726)">
							<stop stop-color="#92B8E7" stop-opacity="0"/>
							<stop offset="1" stop-color="#9DC1EB"/>
							</radialGradient>
							<linearGradient id="paint1_linear_2694_10013" x1="95.5032" y1="104.881" x2="95.5032" y2="127.393" gradientUnits="userSpaceOnUse">
							<stop stop-color="#EEEEEE"/>
							<stop offset="0.51" stop-color="#C8DCF5"/>
							<stop offset="1" stop-color="#CBD5E2"/>
							</linearGradient>
							<linearGradient id="paint2_linear_2694_10013" x1="93.2257" y1="115.95" x2="93.2257" y2="107.762" gradientUnits="userSpaceOnUse">
							<stop stop-color="#EFEFEF"/>
							<stop offset="0.51" stop-color="#C8DCF5"/>
							<stop offset="1" stop-color="#A8C4E4"/>
							</linearGradient>
							<linearGradient id="paint3_linear_2694_10013" x1="92.6537" y1="83.1482" x2="93.0039" y2="146" gradientUnits="userSpaceOnUse">
							<stop stop-color="white" stop-opacity="0"/>
							<stop offset="0.535" stop-color="white"/>
							<stop offset="1" stop-color="#90BFF8" stop-opacity="0"/>
							</linearGradient>
							<linearGradient id="paint4_linear_2694_10013" x1="110.685" y1="102.441" x2="110.685" y2="108.59" gradientUnits="userSpaceOnUse">
							<stop stop-color="#798CB9"/>
							<stop offset="1" stop-color="#798CB9" stop-opacity="0"/>
							</linearGradient>
							<linearGradient id="paint5_linear_2694_10013" x1="113.508" y1="106.5" x2="110.008" y2="97.5" gradientUnits="userSpaceOnUse">
							<stop stop-color="#ABC3E0"/>
							<stop offset="1" stop-color="#798CB9"/>
							</linearGradient>
							</defs>
						</svg>