									<svg width="60" height="60" viewBox="0 0 60 60" fill="none" xmlns="http://www.w3.org/2000/svg">
										<g filter="url(#filter0_b_2694_19344)">
										<rect width="60" height="60" rx="12" fill="#131827"/>
										</g>
										<mask id="mask0_2694_19344" style="mask-type:alpha" maskUnits="userSpaceOnUse" x="0" y="0" width="60" height="60">
										<rect x="0.25" y="0.25" width="59.5" height="59.5" rx="11.75" fill="#131827" stroke="url(#paint0_linear_2694_19344)" stroke-width="0.5"/>
										</mask>
										<g mask="url(#mask0_2694_19344)">
										<rect x="6" y="3" width="1" height="1" fill="#323F5F"/>
										<rect x="2" y="3" width="1" height="1" fill="#323F5F"/>
										<rect x="10" y="3" width="1" height="1" fill="#323F5F"/>
										<rect x="14" y="3" width="1" height="1" fill="#323F5F"/>
										<rect x="18" y="3" width="1" height="1" fill="#323F5F"/>
										<rect x="22" y="3" width="1" height="1" fill="#323F5F"/>
										<rect x="26" y="3" width="1" height="1" fill="#323F5F"/>
										<rect x="30" y="3" width="1" height="1" fill="#323F5F"/>
										<rect x="34" y="3" width="1" height="1" fill="#323F5F"/>
										<rect x="38" y="3" width="1" height="1" fill="#323F5F"/>
										<rect x="42" y="3" width="1" height="1" fill="#323F5F"/>
										<rect x="46" y="3" width="1" height="1" fill="#323F5F"/>
										<rect x="50" y="3" width="1" height="1" fill="#323F5F"/>
										<rect x="54" y="3" width="1" height="1" fill="#323F5F"/>
										<rect x="58" y="3" width="1" height="1" fill="#323F5F"/>
										<rect x="6" y="7" width="1" height="1" fill="#323F5F"/>
										<rect x="2" y="7" width="1" height="1" fill="#323F5F"/>
										<rect x="10" y="7" width="1" height="1" fill="#323F5F"/>
										<rect x="14" y="7" width="1" height="1" fill="#323F5F"/>
										<rect x="18" y="7" width="1" height="1" fill="#323F5F"/>
										<rect opacity="0.3" x="22" y="7" width="1" height="1" fill="#323F5F"/>
										<rect opacity="0.3" x="26" y="7" width="1" height="1" fill="#323F5F"/>
										<rect opacity="0.3" x="30" y="7" width="1" height="1" fill="#323F5F"/>
										<rect x="34" y="7" width="1" height="1" fill="#323F5F"/>
										<rect opacity="0.6" x="38" y="7" width="1" height="1" fill="#323F5F"/>
										<rect opacity="0.6" x="42" y="7" width="1" height="1" fill="#323F5F"/>
										<rect opacity="0.6" x="46" y="7" width="1" height="1" fill="#323F5F"/>
										<rect x="50" y="7" width="1" height="1" fill="#323F5F"/>
										<rect x="54" y="7" width="1" height="1" fill="#323F5F"/>
										<rect x="58" y="7" width="1" height="1" fill="#323F5F"/>
										<rect opacity="0.6" x="6" y="11" width="1" height="1" fill="#323F5F"/>
										<rect x="2" y="11" width="1" height="1" fill="#323F5F"/>
										<rect opacity="0.3" x="10" y="11" width="1" height="1" fill="#323F5F"/>
										<rect opacity="0.3" x="14" y="11" width="1" height="1" fill="#323F5F"/>
										<rect x="18" y="11" width="1" height="1" fill="#323F5F"/>
										<rect x="22" y="11" width="1" height="1" fill="#323F5F"/>
										<rect x="26" y="11" width="1" height="1" fill="#323F5F"/>
										<rect opacity="0.3" x="30" y="11" width="1" height="1" fill="#323F5F"/>
										<rect opacity="0.3" x="34" y="11" width="1" height="1" fill="#323F5F"/>
										<rect opacity="0.3" x="38" y="11" width="1" height="1" fill="#323F5F"/>
										<rect opacity="0.6" x="42" y="11" width="1" height="1" fill="#323F5F"/>
										<rect opacity="0.3" x="46" y="11" width="1" height="1" fill="#323F5F"/>
										<rect opacity="0.3" x="50" y="11" width="1" height="1" fill="#323F5F"/>
										<rect x="54" y="11" width="1" height="1" fill="#323F5F"/>
										<rect x="58" y="11" width="1" height="1" fill="#323F5F"/>
										<rect opacity="0.6" x="6" y="15" width="1" height="1" fill="#323F5F"/>
										<rect opacity="0.6" x="2" y="15" width="1" height="1" fill="#323F5F"/>
										<rect opacity="0.1" x="10" y="15" width="1" height="1" fill="#323F5F"/>
										<rect opacity="0.1" x="14" y="15" width="1" height="1" fill="#323F5F"/>
										<rect opacity="0.1" x="18" y="15" width="1" height="1" fill="#323F5F"/>
										<rect opacity="0.1" x="22" y="15" width="1" height="1" fill="#323F5F"/>
										<rect opacity="0.1" x="26" y="15" width="1" height="1" fill="#323F5F"/>
										<rect opacity="0.3" x="30" y="15" width="1" height="1" fill="#323F5F"/>
										<rect opacity="0.3" x="34" y="15" width="1" height="1" fill="#323F5F"/>
										<rect opacity="0.3" x="38" y="15" width="1" height="1" fill="#323F5F"/>
										<rect opacity="0.3" x="42" y="15" width="1" height="1" fill="#323F5F"/>
										<rect opacity="0.3" x="46" y="15" width="1" height="1" fill="#323F5F"/>
										<rect opacity="0.3" x="50" y="15" width="1" height="1" fill="#323F5F"/>
										<rect x="54" y="15" width="1" height="1" fill="#323F5F"/>
										<rect x="58" y="15" width="1" height="1" fill="#323F5F"/>
										<rect x="6" y="19" width="1" height="1" fill="#323F5F"/>
										<rect x="2" y="19" width="1" height="1" fill="#323F5F"/>
										<rect x="10" y="19" width="1" height="1" fill="#323F5F"/>
										<rect x="14" y="19" width="1" height="1" fill="#323F5F"/>
										<rect x="18" y="19" width="1" height="1" fill="#323F5F"/>
										<rect x="22" y="19" width="1" height="1" fill="#323F5F"/>
										<rect x="26" y="19" width="1" height="1" fill="#323F5F"/>
										<rect x="30" y="19" width="1" height="1" fill="#323F5F"/>
										<rect x="34" y="19" width="1" height="1" fill="#323F5F"/>
										<rect x="38" y="19" width="1" height="1" fill="#323F5F"/>
										<rect x="42" y="19" width="1" height="1" fill="#323F5F"/>
										<rect x="46" y="19" width="1" height="1" fill="#323F5F"/>
										<rect x="50" y="19" width="1" height="1" fill="#323F5F"/>
										<rect opacity="0.6" x="54" y="19" width="1" height="1" fill="#323F5F"/>
										<rect x="58" y="19" width="1" height="1" fill="#323F5F"/>
										<g opacity="0.3">
										<rect x="6" y="23" width="1" height="1" fill="#323F5F"/>
										<rect x="2" y="23" width="1" height="1" fill="#323F5F"/>
										<rect x="10" y="23" width="1" height="1" fill="#323F5F"/>
										<rect x="14" y="23" width="1" height="1" fill="#323F5F"/>
										<rect x="18" y="23" width="1" height="1" fill="#323F5F"/>
										<rect x="22" y="23" width="1" height="1" fill="#323F5F"/>
										<rect x="26" y="23" width="1" height="1" fill="#323F5F"/>
										<rect x="30" y="23" width="1" height="1" fill="#323F5F"/>
										<rect x="34" y="23" width="1" height="1" fill="#323F5F"/>
										<rect x="38" y="23" width="1" height="1" fill="#323F5F"/>
										<rect x="42" y="23" width="1" height="1" fill="#323F5F"/>
										<rect x="46" y="23" width="1" height="1" fill="#323F5F"/>
										<rect x="50" y="23" width="1" height="1" fill="#323F5F"/>
										<rect opacity="0.6" x="54" y="23" width="1" height="1" fill="#323F5F"/>
										<rect x="58" y="23" width="1" height="1" fill="#323F5F"/>
										</g>
										<g opacity="0.3">
										<rect x="6" y="27" width="1" height="1" fill="#323F5F"/>
										<rect opacity="0.1" x="2" y="27" width="1" height="1" fill="#323F5F"/>
										<rect x="10" y="27" width="1" height="1" fill="#323F5F"/>
										<rect x="14" y="27" width="1" height="1" fill="#323F5F"/>
										<rect x="18" y="27" width="1" height="1" fill="#323F5F"/>
										<rect x="22" y="27" width="1" height="1" fill="#323F5F"/>
										<rect x="26" y="27" width="1" height="1" fill="#323F5F"/>
										<rect x="30" y="27" width="1" height="1" fill="#323F5F"/>
										<rect x="34" y="27" width="1" height="1" fill="#323F5F"/>
										<rect x="38" y="27" width="1" height="1" fill="#323F5F"/>
										<rect x="42" y="27" width="1" height="1" fill="#323F5F"/>
										<rect x="46" y="27" width="1" height="1" fill="#323F5F"/>
										<rect x="50" y="27" width="1" height="1" fill="#323F5F"/>
										<rect opacity="0.3" x="54" y="27" width="1" height="1" fill="#323F5F"/>
										<rect x="58" y="27" width="1" height="1" fill="#323F5F"/>
										</g>
										<g opacity="0.3">
										<rect x="6" y="31" width="1" height="1" fill="#323F5F"/>
										<rect x="2" y="31" width="1" height="1" fill="#323F5F"/>
										<rect x="10" y="31" width="1" height="1" fill="#323F5F"/>
										<rect x="14" y="31" width="1" height="1" fill="#323F5F"/>
										<rect x="18" y="31" width="1" height="1" fill="#323F5F"/>
										<rect x="22" y="31" width="1" height="1" fill="#323F5F"/>
										<rect x="26" y="31" width="1" height="1" fill="#323F5F"/>
										<rect x="30" y="31" width="1" height="1" fill="#323F5F"/>
										<rect x="34" y="31" width="1" height="1" fill="#323F5F"/>
										<rect x="38" y="31" width="1" height="1" fill="#323F5F"/>
										<rect x="42" y="31" width="1" height="1" fill="#323F5F"/>
										<rect x="46" y="31" width="1" height="1" fill="#323F5F"/>
										<rect x="50" y="31" width="1" height="1" fill="#323F5F"/>
										<rect opacity="0.3" x="54" y="31" width="1" height="1" fill="#323F5F"/>
										<rect x="58" y="31" width="1" height="1" fill="#323F5F"/>
										</g>
										<rect x="6" y="35" width="1" height="1" fill="#323F5F"/>
										<rect opacity="0.3" x="2" y="35" width="1" height="1" fill="#323F5F"/>
										<rect x="10" y="35" width="1" height="1" fill="#323F5F"/>
										<rect x="14" y="35" width="1" height="1" fill="#323F5F"/>
										<rect x="18" y="35" width="1" height="1" fill="#323F5F"/>
										<rect x="22" y="35" width="1" height="1" fill="#323F5F"/>
										<rect x="26" y="35" width="1" height="1" fill="#323F5F"/>
										<rect x="30" y="35" width="1" height="1" fill="#323F5F"/>
										<rect x="34" y="35" width="1" height="1" fill="#323F5F"/>
										<rect x="38" y="35" width="1" height="1" fill="#323F5F"/>
										<rect x="42" y="35" width="1" height="1" fill="#323F5F"/>
										<rect x="46" y="35" width="1" height="1" fill="#323F5F"/>
										<rect x="50" y="35" width="1" height="1" fill="#323F5F"/>
										<rect opacity="0.3" x="54" y="35" width="1" height="1" fill="#323F5F"/>
										<rect x="58" y="35" width="1" height="1" fill="#323F5F"/>
										<g opacity="0.1">
										<rect x="6" y="39" width="1" height="1" fill="#323F5F"/>
										<rect opacity="0.6" x="2" y="39" width="1" height="1" fill="#323F5F"/>
										<rect x="10" y="39" width="1" height="1" fill="#323F5F"/>
										<rect x="14" y="39" width="1" height="1" fill="#323F5F"/>
										<rect x="18" y="39" width="1" height="1" fill="#323F5F"/>
										<rect x="22" y="39" width="1" height="1" fill="#323F5F"/>
										<rect x="26" y="39" width="1" height="1" fill="#323F5F"/>
										<rect x="30" y="39" width="1" height="1" fill="#323F5F"/>
										<rect x="34" y="39" width="1" height="1" fill="#323F5F"/>
										<rect x="38" y="39" width="1" height="1" fill="#323F5F"/>
										<rect x="42" y="39" width="1" height="1" fill="#323F5F"/>
										<rect x="46" y="39" width="1" height="1" fill="#323F5F"/>
										<rect x="50" y="39" width="1" height="1" fill="#323F5F"/>
										<rect opacity="0.3" x="54" y="39" width="1" height="1" fill="#323F5F"/>
										<rect x="58" y="39" width="1" height="1" fill="#323F5F"/>
										</g>
										<rect opacity="0.3" x="6" y="43" width="1" height="1" fill="#323F5F"/>
										<rect opacity="0.3" x="2" y="43" width="1" height="1" fill="#323F5F"/>
										<rect opacity="0.3" x="10" y="43" width="1" height="1" fill="#323F5F"/>
										<rect opacity="0.3" x="14" y="43" width="1" height="1" fill="#323F5F"/>
										<rect opacity="0.1" x="18" y="43" width="1" height="1" fill="#323F5F"/>
										<rect opacity="0.1" x="22" y="43" width="1" height="1" fill="#323F5F"/>
										<rect opacity="0.1" x="26" y="43" width="1" height="1" fill="#323F5F"/>
										<rect opacity="0.1" x="30" y="43" width="1" height="1" fill="#323F5F"/>
										<rect opacity="0.1" x="34" y="43" width="1" height="1" fill="#323F5F"/>
										<rect opacity="0.1" x="38" y="43" width="1" height="1" fill="#323F5F"/>
										<rect opacity="0.1" x="42" y="43" width="1" height="1" fill="#323F5F"/>
										<rect opacity="0.1" x="46" y="43" width="1" height="1" fill="#323F5F"/>
										<rect opacity="0.1" x="50" y="43" width="1" height="1" fill="#323F5F"/>
										<rect opacity="0.1" x="54" y="43" width="1" height="1" fill="#323F5F"/>
										<rect x="58" y="43" width="1" height="1" fill="#323F5F"/>
										<rect x="6" y="47" width="1" height="1" fill="#323F5F"/>
										<rect x="2" y="47" width="1" height="1" fill="#323F5F"/>
										<rect opacity="0.6" x="10" y="47" width="1" height="1" fill="#323F5F"/>
										<rect x="14" y="47" width="1" height="1" fill="#323F5F"/>
										<rect opacity="0.3" x="18" y="47" width="1" height="1" fill="#323F5F"/>
										<rect opacity="0.3" x="22" y="47" width="1" height="1" fill="#323F5F"/>
										<rect opacity="0.3" x="26" y="47" width="1" height="1" fill="#323F5F"/>
										<rect opacity="0.3" x="30" y="47" width="1" height="1" fill="#323F5F"/>
										<rect x="34" y="47" width="1" height="1" fill="#323F5F"/>
										<rect x="38" y="47" width="1" height="1" fill="#323F5F"/>
										<rect opacity="0.6" x="42" y="47" width="1" height="1" fill="#323F5F"/>
										<rect x="46" y="47" width="1" height="1" fill="#323F5F"/>
										<rect opacity="0.6" x="50" y="47" width="1" height="1" fill="#323F5F"/>
										<rect x="54" y="47" width="1" height="1" fill="#323F5F"/>
										<rect x="58" y="47" width="1" height="1" fill="#323F5F"/>
										<rect opacity="0.3" x="6" y="51" width="1" height="1" fill="#323F5F"/>
										<rect x="2" y="51" width="1" height="1" fill="#323F5F"/>
										<rect x="10" y="51" width="1" height="1" fill="#323F5F"/>
										<rect x="14" y="51" width="1" height="1" fill="#323F5F"/>
										<rect opacity="0.6" x="18" y="51" width="1" height="1" fill="#323F5F"/>
										<rect opacity="0.3" x="22" y="51" width="1" height="1" fill="#323F5F"/>
										<rect x="26" y="51" width="1" height="1" fill="#323F5F"/>
										<rect opacity="0.3" x="30" y="51" width="1" height="1" fill="#323F5F"/>
										<rect x="34" y="51" width="1" height="1" fill="#323F5F"/>
										<rect opacity="0.3" x="38" y="51" width="1" height="1" fill="#323F5F"/>
										<rect x="42" y="51" width="1" height="1" fill="#323F5F"/>
										<rect x="46" y="51" width="1" height="1" fill="#323F5F"/>
										<rect opacity="0.6" x="50" y="51" width="1" height="1" fill="#323F5F"/>
										<rect x="54" y="51" width="1" height="1" fill="#323F5F"/>
										<rect x="58" y="51" width="1" height="1" fill="#323F5F"/>
										<rect x="6" y="55" width="1" height="1" fill="#323F5F"/>
										<rect x="2" y="55" width="1" height="1" fill="#323F5F"/>
										<rect x="10" y="55" width="1" height="1" fill="#323F5F"/>
										<rect x="14" y="55" width="1" height="1" fill="#323F5F"/>
										<rect x="18" y="55" width="1" height="1" fill="#323F5F"/>
										<rect x="22" y="55" width="1" height="1" fill="#323F5F"/>
										<rect x="26" y="55" width="1" height="1" fill="#323F5F"/>
										<rect x="30" y="55" width="1" height="1" fill="#323F5F"/>
										<rect opacity="0.3" x="34" y="55" width="1" height="1" fill="#323F5F"/>
										<rect x="38" y="55" width="1" height="1" fill="#323F5F"/>
										<rect x="42" y="55" width="1" height="1" fill="#323F5F"/>
										<rect x="46" y="55" width="1" height="1" fill="#323F5F"/>
										<rect x="50" y="55" width="1" height="1" fill="#323F5F"/>
										<rect x="54" y="55" width="1" height="1" fill="#323F5F"/>
										<rect x="58" y="55" width="1" height="1" fill="#323F5F"/>
										<rect x="6" y="59" width="1" height="1" fill="#323F5F"/>
										<rect x="2" y="59" width="1" height="1" fill="#323F5F"/>
										<rect x="10" y="59" width="1" height="1" fill="#323F5F"/>
										<rect x="14" y="59" width="1" height="1" fill="#323F5F"/>
										<rect x="18" y="59" width="1" height="1" fill="#323F5F"/>
										<rect x="22" y="59" width="1" height="1" fill="#323F5F"/>
										<rect x="26" y="59" width="1" height="1" fill="#323F5F"/>
										<rect x="30" y="59" width="1" height="1" fill="#323F5F"/>
										<rect x="34" y="59" width="1" height="1" fill="#323F5F"/>
										<rect x="38" y="59" width="1" height="1" fill="#323F5F"/>
										<rect x="42" y="59" width="1" height="1" fill="#323F5F"/>
										<rect x="46" y="59" width="1" height="1" fill="#323F5F"/>
										<rect x="50" y="59" width="1" height="1" fill="#323F5F"/>
										<rect x="54" y="59" width="1" height="1" fill="#323F5F"/>
										<rect x="58" y="59" width="1" height="1" fill="#323F5F"/>
										</g>
										<rect opacity="0.7" width="60" height="60" rx="12" fill="url(#paint1_radial_2694_19344)"/>
										<g clip-path="url(#clip0_2694_19344)">
										<path d="M29.7554 51.8976C41.6757 51.8976 51.339 42.2343 51.339 30.314C51.339 18.3938 41.6757 8.73047 29.7554 8.73047C17.8352 8.73047 8.17188 18.3938 8.17188 30.314C8.17188 42.2343 17.8352 51.8976 29.7554 51.8976Z" fill="#263151"/>
										<path d="M29.9127 9.31989C30.0777 9.31989 30.2427 9.31989 30.4077 9.32775L30.2977 13.0127L29.8734 13.0127L29.9048 9.31989L29.9127 9.31989ZM29.2055 9.31989L29.2998 13.0049C29.1584 13.0049 29.0248 13.0127 28.8834 13.0206L28.7027 9.3356C28.8677 9.32775 29.0405 9.31989 29.2055 9.31989ZM31.1148 9.35132C31.2877 9.35917 31.4527 9.37489 31.6255 9.3906L31.3034 13.0599C31.1698 13.0442 31.0284 13.0363 30.8948 13.0285L31.1227 9.35132L31.1148 9.35132ZM28.0034 9.38275L28.302 13.0599C28.1684 13.0677 28.027 13.0835 27.8934 13.0992L27.4927 9.43775C27.6577 9.42203 27.8305 9.40632 28.0034 9.3906L28.0034 9.38275ZM32.3248 9.46132C32.4898 9.48489 32.6627 9.5006 32.8277 9.52418L32.3013 13.1699C32.1677 13.1463 32.0263 13.1306 31.8848 13.1149L32.3248 9.45346L32.3248 9.46132ZM26.7934 9.51631L27.312 13.1699C27.1784 13.1935 27.037 13.2092 26.9034 13.2327L26.2984 9.59489C26.4634 9.56346 26.6284 9.53988 26.7934 9.51631ZM33.5191 9.64203C33.6841 9.67346 33.8491 9.70489 34.0141 9.73632L33.2755 13.3506C33.142 13.327 33.0084 13.2956 32.867 13.272L33.5113 9.64203L33.5191 9.64203ZM25.607 9.7206L26.3298 13.3349C26.1963 13.3585 26.0627 13.3899 25.9291 13.4213L25.112 9.8306C25.277 9.79131 25.442 9.75989 25.6148 9.7206L25.607 9.7206ZM34.7055 9.89346C34.8705 9.93275 35.0355 9.97203 35.2005 10.0192L34.2498 13.5785C34.1163 13.547 33.9827 13.5077 33.8491 13.4763L34.7055 9.8856L34.7055 9.89346ZM24.4205 9.9956L25.3634 13.5627C25.2298 13.602 25.0963 13.6335 24.9627 13.6727L23.9413 10.1292C24.0984 10.082 24.2634 10.0349 24.4284 9.9956L24.4205 9.9956ZM35.8763 10.2077C36.0413 10.2549 36.1984 10.3099 36.3634 10.3649L35.2005 13.8613C35.067 13.8142 34.9413 13.7749 34.8077 13.7356L35.8763 10.2077ZM23.2577 10.3335L24.397 13.8377C24.2634 13.877 24.1298 13.9242 23.9963 13.9713L22.7784 10.4906C22.9355 10.4356 23.0927 10.3806 23.2577 10.3256L23.2577 10.3335ZM37.0234 10.5927C37.1805 10.6477 37.3377 10.7106 37.4948 10.7735L36.1434 14.1992C36.0177 14.152 35.8841 14.097 35.7505 14.0499L37.0234 10.5927ZM22.1105 10.742L23.4541 14.1756C23.3284 14.2227 23.1948 14.2777 23.0691 14.3327L21.6391 10.9306C21.7963 10.8677 21.9534 10.8049 22.1105 10.742ZM38.147 11.0406C38.3041 11.1113 38.4534 11.1742 38.6027 11.2449L37.047 14.592C36.9213 14.537 36.7955 14.4742 36.6698 14.4192L38.147 11.0406ZM20.9948 11.2213L22.5348 14.5685C22.4091 14.6235 22.2834 14.6863 22.1577 14.7492L20.5313 11.4413C20.6805 11.3706 20.8377 11.292 20.987 11.2213L20.9948 11.2213ZM39.247 11.5592C39.3963 11.6377 39.5455 11.7085 39.687 11.787L37.9427 15.032C37.817 14.9692 37.6991 14.8985 37.5734 14.8356L39.247 11.5513L39.247 11.5592ZM19.9105 11.7635L21.647 15.0163C21.5213 15.0792 21.4034 15.1499 21.2855 15.2127L19.4705 12.007C19.6198 11.9206 19.7691 11.842 19.9184 11.7635L19.9105 11.7635ZM40.3077 12.1327C40.457 12.2192 40.5984 12.3056 40.7398 12.392L38.807 15.5349C38.6891 15.4642 38.5713 15.3935 38.4534 15.3227L40.2998 12.1327L40.3077 12.1327ZM18.8577 12.3606L20.7748 15.5113C20.657 15.582 20.5391 15.6606 20.4212 15.7313L18.4255 12.6277C18.567 12.5335 18.7084 12.447 18.8577 12.3606ZM41.337 12.7692C41.4784 12.8635 41.6198 12.9577 41.7534 13.052L39.6477 16.077C39.5377 15.9985 39.4198 15.9199 39.302 15.8492L41.3291 12.7692L41.337 12.7692ZM17.8441 13.0206L19.942 16.0535C19.8241 16.132 19.7141 16.2106 19.6041 16.297L17.4355 13.3113C17.5691 13.2092 17.7105 13.1149 17.8441 13.0206ZM42.327 13.4685C42.4605 13.5706 42.5941 13.6727 42.7277 13.7749L40.457 16.6742C40.347 16.5877 40.237 16.5013 40.127 16.4227L42.3348 13.4685L42.327 13.4685ZM16.862 13.7435L19.1327 16.6506L18.8027 16.9177L16.477 14.0577C16.6027 13.9556 16.7363 13.8456 16.8698 13.7435L16.862 13.7435ZM43.2698 14.2227C43.3955 14.3327 43.5213 14.4427 43.647 14.5527L41.2113 17.3185C41.1091 17.2242 40.9991 17.1377 40.897 17.0435L43.2698 14.2227ZM15.927 14.5135L18.3548 17.287C18.2527 17.3813 18.1427 17.4756 18.0405 17.5699L15.5498 14.8513C15.6755 14.7413 15.8012 14.6235 15.927 14.5135ZM44.1655 15.0163C44.2913 15.1342 44.4091 15.252 44.527 15.3699L41.942 18.002C41.8398 17.9077 41.7455 17.8056 41.6434 17.7113L44.1655 15.0163ZM15.0312 15.3385L17.6162 17.9706C17.5141 18.0649 17.4198 18.167 17.3177 18.2692L14.6698 15.6999C14.7877 15.582 14.9055 15.4642 15.0234 15.3463L15.0312 15.3385ZM45.022 15.8806C45.1398 15.9985 45.2498 16.1242 45.3598 16.2499L42.6255 18.7249L42.3427 18.4185L45.022 15.8885L45.022 15.8806ZM14.1905 16.2106L16.917 18.6935C16.8227 18.7956 16.7363 18.8977 16.642 18.9999L13.8527 16.5877C13.9627 16.462 14.0727 16.3363 14.1905 16.2106ZM45.8313 16.7842C45.9413 16.9099 46.0434 17.0356 46.1455 17.1692L43.2698 19.4792L43.0027 19.1492L45.8234 16.7763L45.8313 16.7842ZM13.4048 17.1299L16.2727 19.4477C16.1862 19.5577 16.0998 19.6599 16.0134 19.7699L13.0905 17.5227C13.1927 17.3892 13.2948 17.2556 13.4048 17.122L13.4048 17.1299ZM46.5855 17.727C46.6877 17.8606 46.782 17.9942 46.8841 18.1356L43.8827 20.2727C43.8041 20.1627 43.7177 20.0449 43.6391 19.9349L46.5934 17.727L46.5855 17.727ZM12.6741 18.0885L15.6755 20.2335L15.432 20.5792L12.3912 18.497C12.4855 18.3635 12.5798 18.222 12.6741 18.0885ZM47.2848 18.7092C47.3791 18.8506 47.4734 18.992 47.5598 19.1335L44.4405 21.0977C44.3698 20.9799 44.2913 20.862 44.2127 20.752L47.2848 18.7092ZM11.9984 19.0863L15.1098 21.0585C15.0391 21.1763 14.9605 21.2942 14.8898 21.412L11.7312 19.5185C11.8177 19.377 11.9041 19.2277 11.9984 19.0863ZM47.9291 19.7385C48.0155 19.8799 48.0941 20.0292 48.1805 20.1785L44.9513 21.962C44.8805 21.8363 44.8177 21.7185 44.747 21.6006L47.9291 19.7463L47.9291 19.7385ZM11.3855 20.1235L14.607 21.9149C14.5362 22.0327 14.4734 22.1585 14.4105 22.2763L11.142 20.5635C11.2205 20.4142 11.2991 20.2649 11.3855 20.1156L11.3855 20.1235ZM48.5105 20.7992C48.5891 20.9485 48.6598 21.0977 48.7305 21.247L45.407 22.842C45.3441 22.7163 45.2813 22.5906 45.2184 22.4649L48.5027 20.7913L48.5105 20.7992ZM10.8277 21.192L14.1434 22.7949C14.0805 22.9206 14.0255 23.0463 13.9705 23.1642L10.6077 21.6477C10.6784 21.4906 10.7491 21.3413 10.8198 21.192L10.8277 21.192ZM49.0291 21.8913C49.0998 22.0485 49.1627 22.1977 49.2255 22.3549L45.8155 23.7535C45.7605 23.6277 45.7055 23.4942 45.6505 23.3685L49.0291 21.8835L49.0291 21.8913ZM10.3327 22.292L13.7427 23.6985C13.6877 23.8242 13.6405 23.9577 13.5855 24.0913L10.1441 22.7635C10.207 22.6063 10.2698 22.4492 10.3327 22.2999L10.3327 22.292ZM49.4848 23.0227C49.5398 23.1799 49.6027 23.337 49.6498 23.4942L46.1613 24.6885C46.1141 24.5549 46.067 24.4213 46.0198 24.2877L49.477 23.0149L49.4848 23.0227ZM9.90053 23.4235L13.3812 24.6335C13.3341 24.767 13.2948 24.8927 13.2477 25.0263L9.73553 23.9027C9.79053 23.7456 9.83768 23.5806 9.89268 23.4235L9.90053 23.4235ZM49.8698 24.1777C49.917 24.3349 49.9641 24.4999 50.0113 24.657L46.4598 25.647C46.4205 25.5135 46.3813 25.3799 46.342 25.2463L49.8698 24.1777ZM9.53911 24.5863L13.0827 25.592C13.0434 25.7256 13.012 25.8592 12.9727 25.9927L9.40554 25.0735C9.44482 24.9085 9.49196 24.7435 9.53911 24.5863ZM50.192 25.3406C50.2313 25.5056 50.2705 25.6706 50.302 25.8356L46.7034 26.6213C46.672 26.4877 46.6405 26.3542 46.6091 26.2206L50.192 25.3406ZM9.24053 25.757L12.8391 26.5585C12.8077 26.692 12.7841 26.8256 12.7527 26.9592L9.13053 26.2599C9.16196 26.0949 9.20125 25.922 9.23268 25.757L9.24053 25.757ZM50.4434 26.527C50.4748 26.692 50.4984 26.857 50.5298 27.022L46.8841 27.5956C46.8605 27.462 46.837 27.3206 46.8134 27.187L50.4434 26.527ZM9.01268 26.9435L12.6505 27.5249L12.5877 27.9413L8.93411 27.4385C8.95768 27.2735 8.98125 27.1085 9.00482 26.9435L9.01268 26.9435ZM50.6241 27.7213C50.6477 27.8863 50.6634 28.0513 50.6791 28.2163L47.0098 28.5856L46.9627 28.1692L50.6241 27.7213ZM8.85553 28.1377L12.5248 28.5149C12.5091 28.6485 12.5012 28.7899 12.4855 28.9235L8.80839 28.6406C8.82411 28.4677 8.83982 28.3027 8.85553 28.1299L8.85553 28.1377ZM50.7341 28.9156C50.742 29.0885 50.7577 29.2535 50.7577 29.4263L47.0727 29.5756C47.0727 29.4342 47.057 29.3006 47.0491 29.167L50.7263 28.9156L50.7341 28.9156ZM8.76125 29.3477L12.4462 29.5127L12.4305 29.937L8.74553 29.8506C8.74553 29.6856 8.75339 29.5206 8.76125 29.3556L8.76125 29.3477ZM50.7813 30.1335L50.7813 30.3142L50.7813 30.6363L47.0963 30.5892L47.0963 30.3299L47.0963 30.1727L50.7813 30.1413L50.7813 30.1335ZM12.4305 30.5106C12.4305 30.652 12.4305 30.7856 12.4384 30.927L8.75339 31.0606C8.75339 30.8956 8.74553 30.7227 8.73768 30.5577L12.4227 30.5185L12.4305 30.5106ZM47.0727 31.1549L50.7577 31.3356C50.7498 31.5006 50.742 31.6656 50.7263 31.8306L47.0491 31.5713L47.0727 31.147L47.0727 31.1549ZM12.4698 31.5085C12.4777 31.642 12.4934 31.7835 12.5012 31.917L8.83196 32.2627C8.81625 32.0977 8.80053 31.9249 8.79268 31.752L12.4698 31.5006L12.4698 31.5085ZM46.9941 32.1527L50.6634 32.5377C50.6477 32.7027 50.6241 32.8756 50.6005 33.0406L46.947 32.5613C46.9627 32.4277 46.9784 32.2863 46.9941 32.1449L46.9941 32.1527ZM12.5641 32.4985L12.6191 32.9149L8.97339 33.457C8.94982 33.292 8.92625 33.127 8.90268 32.962L12.5562 32.4985L12.5641 32.4985ZM46.8605 33.1349L50.4984 33.7399C50.4748 33.9049 50.4434 34.0699 50.412 34.2349L46.7898 33.5513L46.8605 33.1349ZM12.7134 33.4885C12.737 33.622 12.7684 33.7556 12.792 33.8892L9.18553 34.6592C9.14625 34.4942 9.11482 34.3292 9.08339 34.1563L12.7055 33.4885L12.7134 33.4885ZM46.6641 34.1249L50.2627 34.9185C50.2234 35.0835 50.1841 35.2563 50.1448 35.4213L46.5698 34.5256C46.6013 34.392 46.6327 34.2585 46.6641 34.1249ZM12.9255 34.4627C12.957 34.5963 12.9962 34.7299 13.0277 34.8635L9.46839 35.8377C9.42125 35.6727 9.38196 35.5077 9.34268 35.3427L12.9255 34.4627ZM46.4205 35.0913L49.9641 36.1049C49.917 36.2699 49.8698 36.427 49.8148 36.592L46.2948 35.4842C46.3341 35.3506 46.3734 35.217 46.4127 35.0913L46.4205 35.0913ZM13.1927 35.4292C13.232 35.5627 13.2791 35.6963 13.3184 35.822L9.82196 37.0006C9.76696 36.8435 9.71196 36.6785 9.66482 36.5135L13.1848 35.4213L13.1927 35.4292ZM46.122 36.042L49.6027 37.2599C49.5477 37.417 49.4927 37.5742 49.4298 37.7313L45.9805 36.4349C46.0277 36.3013 46.0748 36.1756 46.122 36.042ZM13.5148 36.372C13.562 36.5056 13.617 36.6313 13.6641 36.7649L10.2384 38.132C10.1755 37.9749 10.1127 37.8177 10.0577 37.6606L13.5148 36.372ZM45.7605 36.977L49.1627 38.3913C49.0998 38.5485 49.0291 38.7056 48.9663 38.8549L45.5955 37.3542C45.6505 37.2285 45.7055 37.1027 45.7605 36.977ZM13.892 37.307C13.947 37.4327 14.002 37.5585 14.0648 37.6842L10.7334 39.2556C10.6627 39.0985 10.592 38.9492 10.5212 38.792L13.892 37.307ZM45.352 37.8806L48.6677 39.4913C48.597 39.6406 48.5184 39.7899 48.4398 39.9392L45.1634 38.2499C45.2263 38.1242 45.2891 38.0063 45.352 37.8806ZM14.3241 38.2106C14.387 38.3363 14.4498 38.462 14.5205 38.5799L11.2755 40.332C11.197 40.1827 11.1184 40.0335 11.0398 39.8842L14.3163 38.2027L14.3241 38.2106ZM44.8963 38.7685L48.1177 40.5677C48.0391 40.717 47.9527 40.8585 47.8663 41.0077L44.692 39.1299C44.7627 39.012 44.8334 38.8942 44.8963 38.7685ZM14.8112 39.0906C14.882 39.2085 14.9527 39.3263 15.0234 39.4442L11.8884 41.3849C11.802 41.2435 11.7077 41.0942 11.6291 40.9527L14.8112 39.0906ZM44.3855 39.6327L47.497 41.6049C47.4027 41.7463 47.3163 41.8877 47.2141 42.0292L44.1577 39.9706C44.2362 39.8606 44.307 39.7427 44.3777 39.6327L44.3855 39.6327ZM15.3455 39.9392L15.5812 40.2849L12.5641 42.3985C12.4698 42.2649 12.3755 42.1235 12.2812 41.9899L15.3455 39.9392ZM43.8277 40.4577L46.8291 42.6027C46.727 42.7442 46.6248 42.8777 46.5227 43.0192L43.5841 40.7877C43.6627 40.6777 43.7491 40.5677 43.8277 40.4577ZM15.927 40.7485C16.0134 40.8585 16.0998 40.9685 16.1862 41.0785L13.2948 43.3727C13.1927 43.2392 13.0905 43.1056 12.9884 42.972L15.927 40.7485ZM43.2305 41.2435L46.0905 43.5692C45.9884 43.6949 45.8784 43.8285 45.7684 43.9542L42.9634 41.5577C43.0577 41.4556 43.1441 41.3456 43.2305 41.2356L43.2305 41.2435ZM16.5555 41.5342C16.6498 41.6442 16.7362 41.7463 16.8305 41.8485L14.0805 44.2999C13.9705 44.1742 13.8605 44.0485 13.7505 43.9227L16.5634 41.5342L16.5555 41.5342ZM42.5784 42.0056L45.3048 44.4885C45.1948 44.6142 45.077 44.732 44.9591 44.8577L42.2955 42.3042C42.3898 42.202 42.4841 42.1077 42.5784 42.0056ZM17.2234 42.2806C17.3177 42.3827 17.412 42.477 17.5141 42.5713L14.9134 45.1799C14.7955 45.062 14.6777 44.9363 14.5598 44.8185L17.2312 42.2806L17.2234 42.2806ZM41.8791 42.7206L44.4563 45.3527C44.3384 45.4706 44.2127 45.5885 44.087 45.7063L41.5805 43.0035C41.6827 42.9092 41.777 42.8149 41.8791 42.7206ZM17.9305 42.9799C18.0327 43.0742 18.1348 43.1685 18.237 43.2627L15.7855 46.0206C15.6598 45.9106 15.5341 45.7927 15.4084 45.6827L17.9305 42.9877L17.9305 42.9799ZM41.1484 43.3963L43.5605 46.1777C43.4348 46.2877 43.3091 46.3977 43.1755 46.4999L40.8262 43.6635C40.9362 43.577 41.0384 43.4827 41.1484 43.3963ZM18.677 43.6399C18.787 43.7263 18.8891 43.8206 18.9991 43.907L16.7048 46.7985C16.5712 46.6963 16.4455 46.5863 16.312 46.4842L18.6691 43.6477L18.677 43.6399ZM40.3705 44.0327L42.6334 46.9399C42.4998 47.042 42.3662 47.1442 42.2327 47.2463L40.0405 44.2842C40.1505 44.2056 40.2605 44.1192 40.3705 44.0327ZM19.4627 44.2606C19.5727 44.3392 19.6827 44.4256 19.8005 44.5042L17.6791 47.5213C17.5377 47.427 17.4041 47.3249 17.2705 47.2227L19.4627 44.2606ZM39.5613 44.622L41.6513 47.6627C41.5098 47.757 41.3684 47.8513 41.227 47.9456L39.2155 44.8577C39.3334 44.7792 39.4434 44.7085 39.5613 44.6299L39.5613 44.622ZM20.2798 44.8263L20.6334 45.0542L18.6848 48.1813C18.5434 48.0949 18.402 48.0006 18.2605 47.9142L20.2798 44.8263ZM38.7284 45.1642L40.6298 48.3227C40.4884 48.4092 40.3391 48.4956 40.1977 48.5742L38.367 45.3763C38.4848 45.3056 38.6105 45.2349 38.7284 45.1642ZM21.1363 45.3527C21.2541 45.4235 21.3798 45.4863 21.4977 45.557L19.7298 48.7942C19.5805 48.7156 19.4391 48.6292 19.2898 48.5506L21.1284 45.3527L21.1363 45.3527ZM37.8562 45.6592L39.5848 48.9199C39.4355 48.9985 39.2862 49.077 39.1291 49.1556L37.487 45.8556C37.6127 45.7927 37.7305 45.7299 37.8562 45.667L37.8562 45.6592ZM22.0084 45.8242C22.1341 45.887 22.2598 45.9499 22.3855 46.0049L20.8141 49.3363C20.6648 49.2656 20.5155 49.1949 20.3662 49.1163L22.0162 45.8163L22.0084 45.8242ZM36.9527 46.0992L38.4848 49.4542C38.3277 49.5249 38.1784 49.5956 38.0212 49.6585L36.5677 46.272C36.6934 46.217 36.8191 46.162 36.9448 46.107L36.9527 46.0992ZM22.9041 46.2406C23.0298 46.2956 23.1634 46.3506 23.2891 46.3977L21.9062 49.8156C21.7491 49.7527 21.5998 49.6899 21.4427 49.627L22.8962 46.2406L22.9041 46.2406ZM36.0334 46.4842L37.3534 49.9256C37.1962 49.9885 37.0391 50.0435 36.882 50.0985L35.6327 46.6256L36.0255 46.4763L36.0334 46.4842ZM23.8312 46.6099C23.957 46.657 24.0905 46.7042 24.2241 46.7435L23.0455 50.2399C22.8884 50.1849 22.7234 50.1299 22.5662 50.0749L23.8312 46.6099ZM35.0905 46.8142L36.2141 50.3263C36.057 50.3735 35.892 50.4285 35.7348 50.4756L34.6898 46.9399C34.8234 46.9006 34.957 46.8613 35.0905 46.8142ZM24.782 46.9242C24.9155 46.9635 25.0491 47.0027 25.1827 47.042L24.2084 50.6013C24.0434 50.5542 23.8862 50.507 23.7212 50.4599L24.782 46.932L24.782 46.9242ZM34.132 47.097L35.0512 50.6642C34.8862 50.7035 34.7291 50.7427 34.5641 50.782L33.7234 47.1913C33.857 47.1599 33.9984 47.1285 34.132 47.0892L34.132 47.097ZM25.7405 47.1835C25.8741 47.2149 26.0077 47.2463 26.1412 47.2699L25.387 50.8763C25.222 50.8449 25.057 50.8056 24.8841 50.7663L25.7405 47.1835ZM33.1498 47.3249L33.8727 50.9392C33.7077 50.9706 33.5348 51.002 33.3698 51.0335L32.7412 47.4035C32.8748 47.3799 33.0084 47.3563 33.142 47.3249L33.1498 47.3249ZM26.7148 47.3877L27.1312 47.4585L26.5734 51.1042C26.4084 51.0806 26.2434 51.0492 26.0784 51.0256L26.7148 47.3956L26.7148 47.3877ZM32.1677 47.4899L32.6784 51.1435C32.5134 51.167 32.3484 51.1906 32.1755 51.2063L31.7512 47.5449C31.8927 47.5292 32.0262 47.5135 32.1598 47.4899L32.1677 47.4899ZM27.7048 47.537C27.8462 47.5527 27.9798 47.5685 28.1212 47.5842L27.7755 51.2535C27.6105 51.2377 27.4377 51.222 27.2727 51.1985L27.7048 47.537ZM31.1777 47.5999L31.4762 51.277C31.3034 51.2927 31.1384 51.3006 30.9655 51.3085L30.7612 47.6235C30.8948 47.6235 31.0362 47.6077 31.1698 47.592L31.1777 47.5999ZM28.7027 47.6235C28.8441 47.6313 28.9777 47.6392 29.1191 47.647L28.9934 51.332C28.8284 51.332 28.6555 51.3163 28.4905 51.3085L28.7105 47.6313L28.7027 47.6235ZM30.1877 47.647L30.2741 51.332C30.1091 51.332 29.9362 51.332 29.7712 51.332L29.7005 47.647L29.8027 47.647C29.9048 47.647 30.0462 47.647 30.1877 47.647Z" fill="url(#paint2_linear_2694_19344)"/>
										<g filter="url(#filter1_b_2694_19344)">
										<path d="M29.7506 13.7109C20.5813 13.7109 13.1484 21.1438 13.1484 30.3131C13.1484 39.4824 20.5813 46.9152 29.7506 46.9152C38.9199 46.9152 46.3527 39.4824 46.3527 30.3131C46.3527 21.1438 38.9199 13.7109 29.7506 13.7109Z" fill="#131827"/>
										</g>
										<g filter="url(#filter2_b_2694_19344)">
										<path d="M45.6771 30.3131C45.6749 30.3131 45.6731 30.3149 45.6731 30.3171C45.671 39.1074 38.5454 46.2396 29.7546 46.2396C20.9624 46.2396 13.8281 39.0974 13.8281 30.3131C13.8281 29.5117 13.891 28.726 14.001 27.956C15.1481 20.2796 21.7638 14.3867 29.7624 14.3867C37.761 14.3867 44.3767 20.2874 45.5081 27.9639C45.6179 28.7326 45.6808 29.517 45.681 30.3092C45.681 30.3114 45.6792 30.3131 45.6771 30.3131Z" fill="url(#paint3_linear_2694_19344)"/>
										<path d="M45.2607 27.9996C45.3665 28.7402 45.4279 29.4943 45.4309 30.2548C45.4258 30.2748 45.4231 30.2956 45.4231 30.317C45.421 38.9695 38.4072 45.9896 29.7546 45.9896C21.1006 45.9896 14.0781 38.9594 14.0781 30.3131C14.0781 29.5251 14.1399 28.7515 14.2484 27.9922C15.3778 20.4365 21.8899 14.6367 29.7624 14.6367C37.6348 14.6367 44.1468 20.4443 45.2607 27.9996Z" stroke="url(#paint4_linear_2694_19344)" stroke-width="0.5"/>
										</g>
										<g opacity="0.7" filter="url(#filter3_f_2694_19344)">
										<circle cx="31" cy="32" r="4" fill="url(#paint5_linear_2694_19344)"/>
										</g>
										<g filter="url(#filter4_f_2694_19344)">
										<path d="M45.4995 27.9639C44.3602 20.2874 37.7445 14.3867 29.7537 14.3867C25.1416 14.3867 21.0009 16.351 18.0938 19.4781C20.9459 16.7753 24.788 15.1096 29.0309 15.1096C37.0295 15.1096 43.6452 21.0103 44.7766 28.6867C44.8866 29.4567 44.9495 30.2424 44.9495 31.036C44.9495 35.2474 43.2995 39.0739 40.628 41.9181C43.7237 39.011 45.6723 34.886 45.6723 30.3053C45.6723 29.5117 45.6095 28.726 45.4995 27.956V27.9639Z" fill="black" fill-opacity="0.6" style="mix-blend-mode:color-burn"/>
										</g>
										<g clip-path="url(#clip1_2694_19344)">
										<path d="M31.2769 32.4232C33.8812 32.4232 36 30.5339 36 28.2118C36 25.8897 33.8814 24 31.2769 24H26.6786V30.534H25V32.4232H26.6786V33.4458H25V34.9153H26.6786V38H28.7972V34.9153H33.6121V33.4458H28.7972V32.4232H31.2769ZM28.7972 25.8892H31.2769C32.713 25.8892 33.8814 26.9311 33.8814 28.2118C33.8814 29.4925 32.713 30.534 31.2769 30.534H28.7972V25.8892Z" fill="url(#paint6_linear_2694_19344)"/>
										</g>
										</g>
										<g filter="url(#filter5_b_2694_19344)">
										<rect x="0.25" y="0.25" width="59.5" height="59.5" rx="11.75" stroke="url(#paint7_linear_2694_19344)" stroke-width="0.5"/>
										</g>
										<defs>
										<filter id="filter0_b_2694_19344" x="-110" y="-110" width="280" height="280" filterUnits="userSpaceOnUse" color-interpolation-filters="sRGB">
										<feFlood flood-opacity="0" result="BackgroundImageFix"/>
										<feGaussianBlur in="BackgroundImageFix" stdDeviation="55"/>
										<feComposite in2="SourceAlpha" operator="in" result="effect1_backgroundBlur_2694_19344"/>
										<feBlend mode="normal" in="SourceGraphic" in2="effect1_backgroundBlur_2694_19344" result="shape"/>
										</filter>
										<filter id="filter1_b_2694_19344" x="-96.8516" y="-96.2891" width="253.203" height="253.203" filterUnits="userSpaceOnUse" color-interpolation-filters="sRGB">
										<feFlood flood-opacity="0" result="BackgroundImageFix"/>
										<feGaussianBlur in="BackgroundImageFix" stdDeviation="55"/>
										<feComposite in2="SourceAlpha" operator="in" result="effect1_backgroundBlur_2694_19344"/>
										<feBlend mode="normal" in="SourceGraphic" in2="effect1_backgroundBlur_2694_19344" result="shape"/>
										</filter>
										<filter id="filter2_b_2694_19344" x="-96.1719" y="-95.6133" width="251.852" height="251.852" filterUnits="userSpaceOnUse" color-interpolation-filters="sRGB">
										<feFlood flood-opacity="0" result="BackgroundImageFix"/>
										<feGaussianBlur in="BackgroundImageFix" stdDeviation="55"/>
										<feComposite in2="SourceAlpha" operator="in" result="effect1_backgroundBlur_2694_19344"/>
										<feBlend mode="normal" in="SourceGraphic" in2="effect1_backgroundBlur_2694_19344" result="shape"/>
										</filter>
										<filter id="filter3_f_2694_19344" x="17" y="18" width="28" height="28" filterUnits="userSpaceOnUse" color-interpolation-filters="sRGB">
										<feFlood flood-opacity="0" result="BackgroundImageFix"/>
										<feBlend mode="normal" in="SourceGraphic" in2="BackgroundImageFix" result="shape"/>
										<feGaussianBlur stdDeviation="5" result="effect1_foregroundBlur_2694_19344"/>
										</filter>
										<filter id="filter4_f_2694_19344" x="15.0938" y="11.3867" width="33.5781" height="33.5312" filterUnits="userSpaceOnUse" color-interpolation-filters="sRGB">
										<feFlood flood-opacity="0" result="BackgroundImageFix"/>
										<feBlend mode="normal" in="SourceGraphic" in2="BackgroundImageFix" result="shape"/>
										<feGaussianBlur stdDeviation="1.5" result="effect1_foregroundBlur_2694_19344"/>
										</filter>
										<filter id="filter5_b_2694_19344" x="-110" y="-110" width="280" height="280" filterUnits="userSpaceOnUse" color-interpolation-filters="sRGB">
										<feFlood flood-opacity="0" result="BackgroundImageFix"/>
										<feGaussianBlur in="BackgroundImageFix" stdDeviation="55"/>
										<feComposite in2="SourceAlpha" operator="in" result="effect1_backgroundBlur_2694_19344"/>
										<feBlend mode="normal" in="SourceGraphic" in2="effect1_backgroundBlur_2694_19344" result="shape"/>
										</filter>
										<linearGradient id="paint0_linear_2694_19344" x1="30" y1="0" x2="30" y2="60" gradientUnits="userSpaceOnUse">
										<stop stop-color="#212941"/>
										<stop offset="0.469183" stop-color="#2C3A65"/>
										<stop offset="1" stop-color="#272C3D"/>
										</linearGradient>
										<radialGradient id="paint1_radial_2694_19344" cx="0" cy="0" r="1" gradientUnits="userSpaceOnUse" gradientTransform="translate(30 30) rotate(90) scale(30)">
										<stop stop-color="#131827" stop-opacity="0"/>
										<stop offset="1" stop-color="#131827"/>
										</radialGradient>
										<linearGradient id="paint2_linear_2694_19344" x1="20" y1="54" x2="29.7595" y2="9.31989" gradientUnits="userSpaceOnUse">
										<stop stop-color="#323F5F"/>
										<stop offset="1" stop-color="#5E6B88"/>
										</linearGradient>
										<linearGradient id="paint3_linear_2694_19344" x1="29.7546" y1="14.3867" x2="29.7546" y2="46.2396" gradientUnits="userSpaceOnUse">
										<stop stop-color="#131827"/>
										<stop offset="1" stop-color="#303953"/>
										</linearGradient>
										<linearGradient id="paint4_linear_2694_19344" x1="29.7546" y1="14.3867" x2="29.7546" y2="46.2396" gradientUnits="userSpaceOnUse">
										<stop stop-color="#212941"/>
										<stop offset="0.469183" stop-color="#2C3A65"/>
										<stop offset="1" stop-color="#272C3D"/>
										</linearGradient>
										<linearGradient id="paint5_linear_2694_19344" x1="31" y1="30.9524" x2="31" y2="33.8571" gradientUnits="userSpaceOnUse">
										<stop stop-color="#EEEEEE"/>
										<stop offset="0.51" stop-color="#C8DCF5"/>
										<stop offset="1" stop-color="#CBD5E2"/>
										</linearGradient>
										<linearGradient id="paint6_linear_2694_19344" x1="30.5" y1="24" x2="30.5" y2="38" gradientUnits="userSpaceOnUse">
										<stop stop-color="#B2CAEF"/>
										<stop offset="1" stop-color="white"/>
										</linearGradient>
										<linearGradient id="paint7_linear_2694_19344" x1="30" y1="0" x2="30" y2="60" gradientUnits="userSpaceOnUse">
										<stop stop-color="#212941"/>
										<stop offset="0.469183" stop-color="#2C3A65"/>
										<stop offset="1" stop-color="#272C3D"/>
										</linearGradient>
										<clipPath id="clip0_2694_19344">
										<rect width="44" height="44" fill="white" transform="translate(8 8)"/>
										</clipPath>
										<clipPath id="clip1_2694_19344">
										<rect width="11" height="14" fill="white" transform="translate(25 24)"/>
										</clipPath>
										</defs>
									</svg>