									<svg width="60" height="60" viewBox="0 0 60 60" fill="none" xmlns="http://www.w3.org/2000/svg">
										<g filter="url(#filter0_b_2694_19308)">
										<rect width="60" height="60" rx="12" fill="#131827"/>
										<rect x="0.25" y="0.25" width="59.5" height="59.5" rx="11.75" stroke="url(#paint0_linear_2694_19308)" stroke-width="0.5"/>
										</g>
										<g filter="url(#filter1_b_2694_19308)">
										<rect width="60" height="60" rx="12" fill="#131827"/>
										</g>
										<line x1="12.25" y1="3" x2="12.25" y2="39" stroke="url(#paint1_linear_2694_19308)" stroke-width="0.5"/>
										<line x1="24.25" y1="3" x2="24.25" y2="39" stroke="url(#paint2_linear_2694_19308)" stroke-width="0.5"/>
										<line x1="36.25" y1="3" x2="36.25" y2="39" stroke="url(#paint3_linear_2694_19308)" stroke-width="0.5"/>
										<line x1="3" y1="6.80078" x2="57" y2="6.80079" stroke="url(#paint4_linear_2694_19308)" stroke-width="0.5"/>
										<line x1="3" y1="18.9492" x2="57" y2="18.9492" stroke="url(#paint5_linear_2694_19308)" stroke-width="0.5"/>
										<line x1="3" y1="31.1016" x2="57" y2="31.1016" stroke="url(#paint6_linear_2694_19308)" stroke-width="0.5"/>
										<line x1="48.25" y1="3" x2="48.25" y2="39" stroke="url(#paint7_linear_2694_19308)" stroke-width="0.5"/>
										<rect x="11.7812" y="6.27734" width="1" height="1" fill="#323F5F"/>
										<rect x="11.7812" y="18.4727" width="1" height="1" fill="#323F5F"/>
										<rect x="11.7812" y="30.668" width="1" height="1" fill="#323F5F"/>
										<rect x="23.8672" y="6.27734" width="1" height="1" fill="#323F5F"/>
										<rect x="23.8672" y="18.4727" width="1" height="1" fill="#323F5F"/>
										<rect x="23.8672" y="30.668" width="1" height="1" fill="#323F5F"/>
										<rect x="35.7344" y="6.27734" width="1" height="1" fill="#323F5F"/>
										<rect x="35.7344" y="18.4727" width="1" height="1" fill="#323F5F"/>
										<rect x="35.7344" y="30.668" width="1" height="1" fill="#323F5F"/>
										<rect x="47.7578" y="6.27734" width="1" height="1" fill="#323F5F"/>
										<rect x="47.7578" y="18.4727" width="1" height="1" fill="#323F5F"/>
										<rect x="47.7578" y="30.668" width="1" height="1" fill="#323F5F"/>
										<mask id="mask0_2694_19308" style="mask-type:alpha" maskUnits="userSpaceOnUse" x="0" y="0" width="60" height="60">
										<rect width="60" height="60" rx="12" fill="#131827"/>
										</mask>
										<g mask="url(#mask0_2694_19308)">
										<path d="M0.25 39.7194C0.25 39.5062 0.340718 39.3031 0.49948 39.1608L6.61453 33.6811C6.86055 33.4607 7.22184 33.4271 7.50423 33.5985L16.5248 39.0744C17.0217 39.376 17.6609 39.2953 18.0672 38.8798L27.4403 29.2936C27.7412 28.986 28.2387 28.994 28.5294 29.3112L36.9435 38.4901C37.4956 39.0925 38.4678 39.0118 38.913 38.3266L50.8025 20.032C51.1109 19.5576 51.8135 19.5824 52.0875 20.0775L62.6183 39.0993C62.6976 39.2426 62.7278 39.4079 62.7044 39.57L59.7836 59.75H0.25V39.7194Z" fill="url(#paint8_linear_2694_19308)" stroke="url(#paint9_linear_2694_19308)" stroke-width="0.5"/>
										<rect width="15" height="40" transform="matrix(-1 0 0 1 15 19)" fill="url(#paint10_linear_2694_19308)"/>
										<rect x="46" y="18" width="14" height="41" fill="url(#paint11_linear_2694_19308)"/>
										<rect x="60" y="21" width="39" height="60" transform="rotate(90 60 21)" fill="url(#paint12_linear_2694_19308)"/>
										<rect x="60" y="29" width="31" height="60" transform="rotate(90 60 29)" fill="url(#paint13_linear_2694_19308)"/>
										<rect x="60" y="28" width="32" height="60" transform="rotate(90 60 28)" fill="url(#paint14_linear_2694_19308)"/>
										<g filter="url(#filter2_f_2694_19308)">
										<circle cx="49" cy="25" r="8" fill="#8B9FCE"/>
										</g>
										</g>
										<g filter="url(#filter3_b_2694_19308)">
										<rect x="0.25" y="0.25" width="59.5" height="59.5" rx="11.75" stroke="url(#paint15_linear_2694_19308)" stroke-width="0.5"/>
										</g>
										<defs>
										<filter id="filter0_b_2694_19308" x="-110" y="-110" width="280" height="280" filterUnits="userSpaceOnUse" color-interpolation-filters="sRGB">
										<feFlood flood-opacity="0" result="BackgroundImageFix"/>
										<feGaussianBlur in="BackgroundImageFix" stdDeviation="55"/>
										<feComposite in2="SourceAlpha" operator="in" result="effect1_backgroundBlur_2694_19308"/>
										<feBlend mode="normal" in="SourceGraphic" in2="effect1_backgroundBlur_2694_19308" result="shape"/>
										</filter>
										<filter id="filter1_b_2694_19308" x="-110" y="-110" width="280" height="280" filterUnits="userSpaceOnUse" color-interpolation-filters="sRGB">
										<feFlood flood-opacity="0" result="BackgroundImageFix"/>
										<feGaussianBlur in="BackgroundImageFix" stdDeviation="55"/>
										<feComposite in2="SourceAlpha" operator="in" result="effect1_backgroundBlur_2694_19308"/>
										<feBlend mode="normal" in="SourceGraphic" in2="effect1_backgroundBlur_2694_19308" result="shape"/>
										</filter>
										<filter id="filter2_f_2694_19308" x="27" y="3" width="44" height="44" filterUnits="userSpaceOnUse" color-interpolation-filters="sRGB">
										<feFlood flood-opacity="0" result="BackgroundImageFix"/>
										<feBlend mode="normal" in="SourceGraphic" in2="BackgroundImageFix" result="shape"/>
										<feGaussianBlur stdDeviation="7" result="effect1_foregroundBlur_2694_19308"/>
										</filter>
										<filter id="filter3_b_2694_19308" x="-110" y="-110" width="280" height="280" filterUnits="userSpaceOnUse" color-interpolation-filters="sRGB">
										<feFlood flood-opacity="0" result="BackgroundImageFix"/>
										<feGaussianBlur in="BackgroundImageFix" stdDeviation="55"/>
										<feComposite in2="SourceAlpha" operator="in" result="effect1_backgroundBlur_2694_19308"/>
										<feBlend mode="normal" in="SourceGraphic" in2="effect1_backgroundBlur_2694_19308" result="shape"/>
										</filter>
										<linearGradient id="paint0_linear_2694_19308" x1="30" y1="0" x2="30" y2="60" gradientUnits="userSpaceOnUse">
										<stop stop-color="#212941"/>
										<stop offset="0.469183" stop-color="#2C3A65"/>
										<stop offset="1" stop-color="#272C3D"/>
										</linearGradient>
										<linearGradient id="paint1_linear_2694_19308" x1="12" y1="39.9" x2="12" y2="3" gradientUnits="userSpaceOnUse">
										<stop stop-color="#323F5F" stop-opacity="0"/>
										<stop offset="0.52" stop-color="#323F5F" stop-opacity="0.48"/>
										<stop offset="1" stop-color="#323F5F" stop-opacity="0"/>
										</linearGradient>
										<linearGradient id="paint2_linear_2694_19308" x1="24" y1="39.9" x2="24" y2="3" gradientUnits="userSpaceOnUse">
										<stop stop-color="#323F5F" stop-opacity="0"/>
										<stop offset="0.52" stop-color="#323F5F" stop-opacity="0.48"/>
										<stop offset="1" stop-color="#323F5F" stop-opacity="0"/>
										</linearGradient>
										<linearGradient id="paint3_linear_2694_19308" x1="36" y1="39.9" x2="36" y2="3" gradientUnits="userSpaceOnUse">
										<stop stop-color="#323F5F" stop-opacity="0"/>
										<stop offset="0.52" stop-color="#323F5F" stop-opacity="0.48"/>
										<stop offset="1" stop-color="#323F5F" stop-opacity="0"/>
										</linearGradient>
										<linearGradient id="paint4_linear_2694_19308" x1="58.35" y1="7.05077" x2="3" y2="7.0508" gradientUnits="userSpaceOnUse">
										<stop stop-color="#323F5F" stop-opacity="0"/>
										<stop offset="0.52" stop-color="#323F5F" stop-opacity="0.48"/>
										<stop offset="1" stop-color="#323F5F" stop-opacity="0"/>
										</linearGradient>
										<linearGradient id="paint5_linear_2694_19308" x1="58.35" y1="19.1992" x2="3" y2="19.1992" gradientUnits="userSpaceOnUse">
										<stop stop-color="#323F5F" stop-opacity="0"/>
										<stop offset="0.52" stop-color="#323F5F" stop-opacity="0.48"/>
										<stop offset="1" stop-color="#323F5F" stop-opacity="0"/>
										</linearGradient>
										<linearGradient id="paint6_linear_2694_19308" x1="58.35" y1="31.3515" x2="3" y2="31.3516" gradientUnits="userSpaceOnUse">
										<stop stop-color="#323F5F" stop-opacity="0"/>
										<stop offset="0.52" stop-color="#323F5F" stop-opacity="0.48"/>
										<stop offset="1" stop-color="#323F5F" stop-opacity="0"/>
										</linearGradient>
										<linearGradient id="paint7_linear_2694_19308" x1="48" y1="39.9" x2="48" y2="3" gradientUnits="userSpaceOnUse">
										<stop stop-color="#323F5F" stop-opacity="0"/>
										<stop offset="0.52" stop-color="#323F5F" stop-opacity="0.48"/>
										<stop offset="1" stop-color="#323F5F" stop-opacity="0"/>
										</linearGradient>
										<linearGradient id="paint8_linear_2694_19308" x1="30" y1="24" x2="30" y2="60" gradientUnits="userSpaceOnUse">
										<stop stop-color="white"/>
										<stop offset="0.487142" stop-color="#AAC2FF" stop-opacity="0.512858"/>
										<stop offset="1" stop-color="white" stop-opacity="0"/>
										</linearGradient>
										<linearGradient id="paint9_linear_2694_19308" x1="31.5" y1="18.5" x2="31.5" y2="60" gradientUnits="userSpaceOnUse">
										<stop stop-color="#9EA8C2"/>
										<stop offset="1"/>
										</linearGradient>
										<linearGradient id="paint10_linear_2694_19308" x1="0" y1="18.9474" x2="17.7273" y2="18.9474" gradientUnits="userSpaceOnUse">
										<stop stop-color="#131827" stop-opacity="0"/>
										<stop offset="1" stop-color="#131827"/>
										</linearGradient>
										<linearGradient id="paint11_linear_2694_19308" x1="46" y1="37.4211" x2="62.5455" y2="37.4211" gradientUnits="userSpaceOnUse">
										<stop stop-color="#131827" stop-opacity="0"/>
										<stop offset="1" stop-color="#131827"/>
										</linearGradient>
										<linearGradient id="paint12_linear_2694_19308" x1="60" y1="49.4211" x2="106.091" y2="49.4211" gradientUnits="userSpaceOnUse">
										<stop stop-color="#131827" stop-opacity="0"/>
										<stop offset="1" stop-color="#131827"/>
										</linearGradient>
										<linearGradient id="paint13_linear_2694_19308" x1="60" y1="57.4211" x2="96.6364" y2="57.4211" gradientUnits="userSpaceOnUse">
										<stop stop-color="#131827" stop-opacity="0"/>
										<stop offset="1" stop-color="#131827"/>
										</linearGradient>
										<linearGradient id="paint14_linear_2694_19308" x1="60" y1="56.4211" x2="97.8182" y2="56.4211" gradientUnits="userSpaceOnUse">
										<stop stop-color="#131827" stop-opacity="0"/>
										<stop offset="1" stop-color="#131827"/>
										</linearGradient>
										<linearGradient id="paint15_linear_2694_19308" x1="30" y1="0" x2="30" y2="60" gradientUnits="userSpaceOnUse">
										<stop stop-color="#212941"/>
										<stop offset="0.469183" stop-color="#2C3A65"/>
										<stop offset="1" stop-color="#272C3D"/>
										</linearGradient>
										</defs>
									</svg>