<svg width="140" height="58" viewBox="0 0 140 58" fill="none" xmlns="http://www.w3.org/2000/svg">
<foreignObject x="-4" y="-4" width="148" height="66"><div xmlns="http://www.w3.org/1999/xhtml" style="backdrop-filter:blur(2px);clip-path:url(#bgblur_0_17966_2825_clip_path);height:100%;width:100%"></div></foreignObject><path data-figma-bg-blur-radius="4" d="M12 0.5H128C134.351 0.5 139.5 5.64873 139.5 12V46C139.5 52.3513 134.351 57.5 128 57.5H12C5.64873 57.5 0.5 52.3513 0.5 46V12C0.5 5.64873 5.64873 0.5 12 0.5Z" fill="url(#paint0_radial_17966_2825)" stroke="url(#paint1_linear_17966_2825)"/>
<defs>
<clipPath id="bgblur_0_17966_2825_clip_path" transform="translate(4 4)"><path d="M12 0.5H128C134.351 0.5 139.5 5.64873 139.5 12V46C139.5 52.3513 134.351 57.5 128 57.5H12C5.64873 57.5 0.5 52.3513 0.5 46V12C0.5 5.64873 5.64873 0.5 12 0.5Z"/>
</clipPath><radialGradient id="paint0_radial_17966_2825" cx="0" cy="0" r="1" gradientTransform="matrix(-145 94 -63.3446 -236.066 125 29)" gradientUnits="userSpaceOnUse">
<stop stop-color="#F16386"/>
<stop offset="1" stop-color="#050728"/>
</radialGradient>
<linearGradient id="paint1_linear_17966_2825" x1="70" y1="0" x2="70" y2="58" gradientUnits="userSpaceOnUse">
<stop stop-color="white" stop-opacity="0.3"/>
<stop offset="0.5" stop-color="white" stop-opacity="0.1"/>
<stop offset="1" stop-color="white" stop-opacity="0"/>
</linearGradient>
</defs>
</svg>
