									<svg width="112" height="112" viewBox="0 0 112 112" fill="none" xmlns="http://www.w3.org/2000/svg">
										<rect x="0.25" y="0.25" width="111.5" height="111.5" rx="7.75" stroke="#212941" stroke-width="0.5" />
										<mask id="path-2-inside-1_2694_21759" fill="white">
											<path fill-rule="evenodd" clip-rule="evenodd"
												d="M6 10C6 7.79086 7.79086 6 10 6H102C104.209 6 106 7.79086 106 10V14C104.343 14 103 15.3431 103 17C103 18.6569 104.343 20 106 20V92C104.343 92 103 93.3431 103 95C103 96.6569 104.343 98 106 98V102C106 104.209 104.209 106 102 106H10C7.79086 106 6 104.209 6 102V98C7.65685 98 9 96.6569 9 95C9 93.3431 7.65685 92 6 92V20C7.65685 20 9 18.6569 9 17C9 15.3431 7.65685 14 6 14V10Z" />
										</mask>
										<path fill-rule="evenodd" clip-rule="evenodd"
											d="M6 10C6 7.79086 7.79086 6 10 6H102C104.209 6 106 7.79086 106 10V14C104.343 14 103 15.3431 103 17C103 18.6569 104.343 20 106 20V92C104.343 92 103 93.3431 103 95C103 96.6569 104.343 98 106 98V102C106 104.209 104.209 106 102 106H10C7.79086 106 6 104.209 6 102V98C7.65685 98 9 96.6569 9 95C9 93.3431 7.65685 92 6 92V20C7.65685 20 9 18.6569 9 17C9 15.3431 7.65685 14 6 14V10Z"
											fill="url(#paint0_linear_2694_21759)" />
										<path
											d="M106 14V14.5H106.5V14H106ZM106 20H106.5V19.5H106V20ZM106 92V92.5H106.5V92H106ZM106 98H106.5V97.5H106V98ZM6 98V97.5H5.5V98H6ZM6 92H5.5V92.5H6V92ZM6 20V19.5H5.5V20H6ZM6 14H5.5V14.5H6V14ZM10 5.5C7.51472 5.5 5.5 7.51472 5.5 10H6.5C6.5 8.06701 8.067 6.5 10 6.5V5.5ZM102 5.5H10V6.5H102V5.5ZM106.5 10C106.5 7.51472 104.485 5.5 102 5.5V6.5C103.933 6.5 105.5 8.067 105.5 10H106.5ZM106.5 14V10H105.5V14H106.5ZM103.5 17C103.5 15.6193 104.619 14.5 106 14.5V13.5C104.067 13.5 102.5 15.067 102.5 17H103.5ZM106 19.5C104.619 19.5 103.5 18.3807 103.5 17H102.5C102.5 18.933 104.067 20.5 106 20.5V19.5ZM106.5 92V20H105.5V92H106.5ZM103.5 95C103.5 93.6193 104.619 92.5 106 92.5V91.5C104.067 91.5 102.5 93.067 102.5 95H103.5ZM106 97.5C104.619 97.5 103.5 96.3807 103.5 95H102.5C102.5 96.933 104.067 98.5 106 98.5V97.5ZM106.5 102V98H105.5V102H106.5ZM102 106.5C104.485 106.5 106.5 104.485 106.5 102H105.5C105.5 103.933 103.933 105.5 102 105.5V106.5ZM10 106.5H102V105.5H10V106.5ZM5.5 102C5.5 104.485 7.51472 106.5 10 106.5V105.5C8.06701 105.5 6.5 103.933 6.5 102H5.5ZM5.5 98V102H6.5V98H5.5ZM8.5 95C8.5 96.3807 7.38071 97.5 6 97.5V98.5C7.933 98.5 9.5 96.933 9.5 95H8.5ZM6 92.5C7.38071 92.5 8.5 93.6193 8.5 95H9.5C9.5 93.067 7.933 91.5 6 91.5V92.5ZM5.5 20V92H6.5V20H5.5ZM8.5 17C8.5 18.3807 7.38071 19.5 6 19.5V20.5C7.933 20.5 9.5 18.933 9.5 17H8.5ZM6 14.5C7.38071 14.5 8.5 15.6193 8.5 17H9.5C9.5 15.067 7.933 13.5 6 13.5V14.5ZM5.5 10V14H6.5V10H5.5Z"
											fill="#323F5F" mask="url(#path-2-inside-1_2694_21759)" />
										<rect x="18.5" y="18.5" width="75" height="75" rx="8.5" stroke="url(#paint1_linear_2694_21759)" />
										<rect x="19" y="19" width="74" height="74" rx="8" fill="#070917" />
										<rect x="19" y="19" width="74" height="74" rx="8" fill="#070917" />
										<rect x="21" y="21" width="70" height="70" rx="6" fill="#1F2338" />
										<path
											d="M32.25 55C32.25 49.0629 37.0629 44.25 43 44.25H70C75.9371 44.25 80.75 49.0629 80.75 55C80.75 60.9371 75.9371 65.75 70 65.75H43C37.0629 65.75 32.25 60.9371 32.25 55Z"
											fill="url(#paint2_linear_2694_21759)" stroke="url(#paint3_linear_2694_21759)" stroke-width="0.5" />
										<path
											d="M43 42.5C36.0964 42.5 30.5 48.0964 30.5 55C30.5 61.9036 36.0964 67.5 43 67.5H70C76.9036 67.5 82.5 61.9036 82.5 55C82.5 48.0964 76.9036 42.5 70 42.5H43Z"
											stroke="url(#paint4_linear_2694_21759)" stroke-width="3" />
										<path
											d="M53.3965 51.1719C53.2129 50.957 53.1973 50.8008 53.3496 50.7031C53.4434 50.7461 53.5371 50.8164 53.6309 50.9141C53.7168 50.7656 53.8418 50.7188 54.0059 50.7734C54.0176 50.9062 53.9629 51.0234 53.8418 51.125C54.1035 51.5039 54.0645 51.6133 53.7246 51.4531L53.6074 51.3594C53.5488 51.4648 53.4551 51.5195 53.3262 51.5234C53.2129 51.4023 53.2363 51.2852 53.3965 51.1719ZM52.9512 52.0859C52.752 51.9102 52.7363 51.7617 52.9043 51.6406L53.0215 51.6875C53.0605 51.7422 53.1152 51.7969 53.1855 51.8516C53.2559 51.7148 53.373 51.6602 53.5371 51.6875C53.5605 51.8242 53.5137 51.9414 53.3965 52.0391C53.6113 52.3828 53.5801 52.5078 53.3027 52.4141L53.1855 52.2969C53.0957 52.4258 52.9785 52.4727 52.834 52.4375C52.7637 52.3008 52.8027 52.1836 52.9512 52.0859ZM52.3184 52.7891C52.3262 52.7266 52.3574 52.6641 52.4121 52.6016C52.5215 52.6094 52.6152 52.6641 52.6934 52.7656C52.7637 52.7383 52.8262 52.6836 52.8809 52.6016C53.1074 52.6328 53.1465 52.7344 52.998 52.9062L52.9277 53.0234C53.0332 53.0859 53.0879 53.1875 53.0918 53.3281C52.9746 53.4414 52.8418 53.4102 52.6934 53.2344C52.6074 53.3828 52.4824 53.4219 52.3184 53.3516V53.1875C52.4863 53.0742 52.4863 52.9414 52.3184 52.7891ZM53.8652 53.9141C53.6973 53.7891 53.666 53.6484 53.7715 53.4922C53.8809 53.5117 53.9902 53.5742 54.0996 53.6797C54.166 53.5703 54.2754 53.5156 54.4277 53.5156C54.502 53.6562 54.4629 53.7812 54.3105 53.8906C54.4551 54.0234 54.4863 54.1562 54.4043 54.2891C54.2832 54.3047 54.1816 54.2578 54.0996 54.1484C54.0059 54.2578 53.8809 54.3047 53.7246 54.2891C53.7012 54.1562 53.748 54.0312 53.8652 53.9141ZM52.0137 53.9609C51.8223 53.8047 51.7988 53.6562 51.9434 53.5156C52.0371 53.5508 52.1309 53.6133 52.2246 53.7031C52.3223 53.582 52.4473 53.5352 52.5996 53.5625C52.627 53.7109 52.5723 53.8359 52.4355 53.9375C52.6738 54.1562 52.6582 54.2891 52.3887 54.3359L52.3418 54.2656L52.2012 54.1719C52.1582 54.2578 52.0801 54.3125 51.9668 54.3359C51.7949 54.2305 51.8105 54.1055 52.0137 53.9609ZM51.5449 54.875C51.3457 54.6992 51.3301 54.5508 51.498 54.4297L51.6152 54.4766C51.6543 54.5312 51.709 54.5859 51.7793 54.6406C51.8535 54.5117 51.9707 54.457 52.1309 54.4766C52.166 54.6172 52.1191 54.7344 51.9902 54.8281C52.1699 55.0391 52.1777 55.1797 52.0137 55.25C51.9277 55.2266 51.8496 55.1719 51.7793 55.0859C51.6973 55.1953 51.5801 55.25 51.4277 55.25C51.3691 55.1094 51.4082 54.9844 51.5449 54.875ZM53.8652 54.8281C53.7012 54.7266 53.6699 54.5938 53.7715 54.4297C53.8809 54.4375 53.9746 54.4922 54.0527 54.5938C54.123 54.5664 54.1855 54.5117 54.2402 54.4297C54.4707 54.457 54.5098 54.5586 54.3574 54.7344L54.2871 54.8516C54.5449 55.0625 54.5371 55.1953 54.2637 55.25C54.2246 55.1875 54.1543 55.125 54.0527 55.0625C53.9746 55.2031 53.8574 55.25 53.7012 55.2031C53.6777 55.0703 53.7324 54.9453 53.8652 54.8281ZM51.0762 55.7891C50.9082 55.6289 50.8848 55.4805 51.0059 55.3438C51.1152 55.3672 51.209 55.4297 51.2871 55.5312C51.3457 55.5078 51.3926 55.4609 51.4277 55.3906C51.709 55.3516 51.7637 55.4453 51.5918 55.6719L51.5215 55.7891C51.6348 55.8555 51.6816 55.957 51.6621 56.0938C51.5488 56.1719 51.4238 56.1406 51.2871 56C51.1973 56.1484 51.0723 56.1797 50.9121 56.0938C50.9277 55.9727 50.9824 55.8711 51.0762 55.7891ZM53.8652 55.7656C53.6855 55.6328 53.6621 55.4922 53.7949 55.3438C53.8965 55.3672 53.9824 55.4297 54.0527 55.5312C54.1309 55.5039 54.2012 55.4492 54.2637 55.3672C54.4941 55.3867 54.5332 55.4883 54.3809 55.6719L54.3105 55.7891C54.416 55.8555 54.4629 55.957 54.4512 56.0938C54.3301 56.1758 54.2051 56.1445 54.0762 56C53.998 56.1328 53.8809 56.1797 53.7246 56.1406C53.7051 56.0078 53.752 55.8828 53.8652 55.7656ZM51.5449 56.7266C51.3418 56.5547 51.3262 56.4062 51.498 56.2812L51.6152 56.3281C51.6543 56.3828 51.709 56.4375 51.7793 56.4922C51.8496 56.3555 51.9668 56.3008 52.1309 56.3281C52.1543 56.4648 52.1074 56.582 51.9902 56.6797C52.2051 57.0234 52.1738 57.1484 51.8965 57.0547L51.7793 56.9375C51.6895 57.0664 51.5723 57.1133 51.4277 57.0781C51.3574 56.9414 51.3965 56.8242 51.5449 56.7266ZM54.334 56.7031C54.1738 56.5859 54.1348 56.4453 54.2168 56.2812C54.3496 56.2891 54.4512 56.3516 54.5215 56.4688C54.6191 56.3555 54.7441 56.3008 54.8965 56.3047C54.9473 56.4492 54.9004 56.5742 54.7559 56.6797C54.9043 56.7891 54.9434 56.9219 54.873 57.0781C54.7598 57.0938 54.6504 57.0469 54.5449 56.9375C54.459 57.0391 54.3418 57.0859 54.1934 57.0781C54.1426 56.9297 54.1895 56.8047 54.334 56.7031ZM50.6309 56.7031C50.4473 56.5977 50.4082 56.4648 50.5137 56.3047C50.6348 56.3125 50.7363 56.375 50.8184 56.4922C50.9199 56.3555 51.0527 56.3086 51.2168 56.3516C51.2402 56.4883 51.1855 56.6055 51.0527 56.7031C51.3105 57.0547 51.2793 57.1719 50.959 57.0547L50.8184 56.9609C50.7598 57.0586 50.666 57.1055 50.5371 57.1016C50.4238 56.9766 50.4551 56.8438 50.6309 56.7031ZM52.4824 56.7031C52.3223 56.6094 52.2832 56.4766 52.3652 56.3047C52.4941 56.3047 52.5957 56.3672 52.6699 56.4922C52.7988 56.3398 52.9395 56.3008 53.0918 56.375C53.0723 56.5039 53.0098 56.6133 52.9043 56.7031C53.1855 57.1016 53.1465 57.2109 52.7871 57.0312L52.6699 56.9609C52.6113 57.0586 52.5176 57.1055 52.3887 57.1016C52.2754 56.9805 52.3066 56.8477 52.4824 56.7031ZM53.4434 56.7031C53.2832 56.6094 53.2441 56.4766 53.3262 56.3047C53.4512 56.3086 53.5527 56.3711 53.6309 56.4922C53.748 56.3594 53.8809 56.3125 54.0293 56.3516C54.0527 56.4922 53.998 56.6094 53.8652 56.7031C54.1348 57.0547 54.1035 57.1719 53.7715 57.0547L53.6309 56.9609C53.5645 57.0625 53.4707 57.1094 53.3496 57.1016C53.248 56.9805 53.2793 56.8477 53.4434 56.7031ZM55.248 56.7031C55.0918 56.6055 55.0527 56.4727 55.1309 56.3047C55.2637 56.3164 55.3809 56.3789 55.4824 56.4922C55.5723 56.3359 55.6973 56.2969 55.8574 56.375C55.8574 56.4922 55.8027 56.6016 55.6934 56.7031C55.7207 56.7734 55.7754 56.8438 55.8574 56.9141C55.8105 57.1172 55.709 57.1484 55.5527 57.0078L55.459 56.9375C55.4004 57.0469 55.3066 57.1016 55.1777 57.1016C55.0566 57 55.0801 56.8672 55.248 56.7031ZM53.8652 57.6641C53.7051 57.5703 53.666 57.4375 53.748 57.2656C53.877 57.2852 53.9941 57.3477 54.0996 57.4531C54.1895 57.2969 54.3145 57.2578 54.4746 57.3359C54.4707 57.4609 54.416 57.5625 54.3105 57.6406C54.3379 57.7188 54.3926 57.7969 54.4746 57.875C54.4395 58.0703 54.3379 58.1094 54.1699 57.9922L54.0762 57.8984C54.0137 58.0117 53.9121 58.0664 53.7715 58.0625C53.6777 57.9414 53.709 57.8086 53.8652 57.6641ZM53.8652 58.6016C53.7012 58.418 53.6934 58.2695 53.8418 58.1562C53.9277 58.1953 54.0059 58.2578 54.0762 58.3438C54.166 58.2188 54.2832 58.1719 54.4277 58.2031C54.498 58.3164 54.4746 58.418 54.3574 58.5078L54.3105 58.5781C54.4238 58.6523 54.4785 58.7617 54.4746 58.9062C54.3496 59.0078 54.2168 58.9688 54.0762 58.7891C54.0059 58.9297 53.8887 58.9844 53.7246 58.9531C53.7012 58.8164 53.748 58.6992 53.8652 58.6016ZM54.8027 58.5723C54.6426 58.4785 54.6035 58.3457 54.6855 58.1738C54.8145 58.1934 54.9316 58.2559 55.0371 58.3613C55.127 58.2051 55.252 58.166 55.4121 58.2441C55.4082 58.3691 55.3535 58.4707 55.248 58.5488C55.2754 58.627 55.3301 58.7051 55.4121 58.7832C55.377 58.9785 55.2754 59.0176 55.1074 58.9004L55.0137 58.8066C54.9512 58.9199 54.8496 58.9746 54.709 58.9707C54.6152 58.8496 54.6465 58.7168 54.8027 58.5723ZM52.8984 58.6016C52.7344 58.418 52.7266 58.2695 52.875 58.1562C52.9609 58.1953 53.0391 58.2578 53.1094 58.3438C53.1992 58.2188 53.3164 58.1719 53.4609 58.2031C53.5312 58.3164 53.5078 58.418 53.3906 58.5078L53.3438 58.5781C53.457 58.6523 53.5117 58.7617 53.5078 58.9062C53.3828 59.0078 53.25 58.9688 53.1094 58.7891C53.0391 58.9297 52.9219 58.9844 52.7578 58.9531C52.7344 58.8164 52.7812 58.6992 52.8984 58.6016ZM56.7832 57.6875C56.5879 57.5 56.5723 57.3516 56.7363 57.2422C56.8262 57.2852 56.9121 57.3555 56.9941 57.4531C57.0957 57.2969 57.2285 57.2578 57.3926 57.3359C57.373 57.4648 57.3105 57.5742 57.2051 57.6641C57.4902 58.043 57.459 58.1523 57.1113 57.9922L56.9941 57.8984C56.9355 58.0039 56.8418 58.0586 56.7129 58.0625C56.5957 57.9336 56.6191 57.8086 56.7832 57.6875ZM57.6738 57.6406C57.5293 57.5508 57.498 57.4258 57.5801 57.2656C57.7012 57.2695 57.8027 57.3242 57.8848 57.4297C57.9902 57.2891 58.123 57.2578 58.2832 57.3359C58.2715 57.457 58.2168 57.5586 58.1191 57.6406C58.373 58.0469 58.334 58.1641 58.002 57.9922L57.8613 57.8984C57.6973 58.1211 57.5723 58.1133 57.4863 57.875C57.5527 57.8203 57.6152 57.7422 57.6738 57.6406ZM56.7598 58.5781C56.5879 58.4453 56.5645 58.3047 56.6895 58.1562C56.7949 58.1875 56.8965 58.25 56.9941 58.3438C57.0684 58.2383 57.1777 58.1836 57.3223 58.1797C57.4004 58.3203 57.3613 58.4453 57.2051 58.5547C57.3418 58.6797 57.373 58.8203 57.2988 58.9766C57.1816 58.9766 57.0879 58.9219 57.0176 58.8125C56.9277 58.8984 56.8105 58.9531 56.666 58.9766C56.5879 58.8359 56.6191 58.7031 56.7598 58.5781ZM57.6738 58.5547C57.4863 58.4453 57.4629 58.3125 57.6035 58.1562C57.7168 58.1992 57.8184 58.2695 57.9082 58.3672C57.9785 58.2305 58.0957 58.1758 58.2598 58.2031C58.2949 58.3398 58.248 58.457 58.1191 58.5547C58.3379 58.8633 58.3066 58.9883 58.0254 58.9297L57.9082 58.8125C57.8496 58.8477 57.7949 58.9023 57.7441 58.9766C57.4785 58.9609 57.4551 58.8203 57.6738 58.5547ZM61.1074 51.1719C60.9004 51.0078 60.8848 50.8594 61.0605 50.7266C61.1465 50.7656 61.2246 50.8281 61.2949 50.9141C61.4199 50.7773 61.5605 50.7461 61.7168 50.8203C61.6973 50.9492 61.6348 51.0586 61.5293 51.1484C61.7988 51.5039 61.7598 51.6133 61.4121 51.4766L61.3184 51.3828C61.2598 51.4805 61.166 51.5352 61.0371 51.5469C60.8926 51.4258 60.916 51.3008 61.1074 51.1719ZM60.123 51.1953C59.9629 51.0469 59.9316 50.8984 60.0293 50.75C60.1387 50.7695 60.248 50.832 60.3574 50.9375C60.4316 50.8242 60.541 50.7695 60.6855 50.7734C60.7637 50.9141 60.7246 51.0391 60.5684 51.1484C60.7129 51.2812 60.7441 51.4141 60.6621 51.5469C60.5488 51.5547 60.4395 51.5078 60.334 51.4062C60.2676 51.4961 60.166 51.5508 60.0293 51.5703C59.9512 51.4336 59.9824 51.3086 60.123 51.1953ZM62.0215 51.1719C61.8574 51.0469 61.8262 50.9062 61.9277 50.75C62.0488 50.7695 62.1504 50.832 62.2324 50.9375C62.6309 50.6602 62.7402 50.6992 62.5605 51.0547L62.4668 51.1953C62.5723 51.2617 62.6191 51.3633 62.6074 51.5C62.4824 51.582 62.3574 51.5508 62.2324 51.4062C62.1426 51.5547 62.0176 51.5859 61.8574 51.5C61.8691 51.3867 61.9238 51.2773 62.0215 51.1719ZM59.2324 52.1094C59.0488 51.9414 59.0254 51.793 59.1621 51.6641C59.2598 51.6914 59.3457 51.7539 59.4199 51.8516C59.8418 51.5898 59.9512 51.6367 59.748 51.9922L59.6777 52.1094C59.7754 52.168 59.8223 52.2617 59.8184 52.3906C59.7129 52.5156 59.5879 52.4922 59.4434 52.3203C59.3574 52.4336 59.2402 52.4805 59.0918 52.4609C59.0684 52.3242 59.1152 52.207 59.2324 52.1094ZM62.9121 52.1094C62.7285 51.9414 62.7051 51.793 62.8418 51.6641C62.9355 51.6875 63.0215 51.75 63.0996 51.8516C63.2051 51.75 63.3379 51.7031 63.498 51.7109C63.5215 51.8477 63.4746 51.9648 63.3574 52.0625C63.5762 52.4414 63.5371 52.5586 63.2402 52.4141L63.123 52.3203C63.0645 52.4102 62.9785 52.4648 62.8652 52.4844C62.6973 52.3789 62.7129 52.2539 62.9121 52.1094ZM59.1621 53C58.9902 52.8711 58.9668 52.7305 59.0918 52.5781C59.1973 52.6016 59.291 52.6641 59.373 52.7656C59.4785 52.6484 59.6113 52.6094 59.7715 52.6484C59.7871 52.7812 59.7324 52.8906 59.6074 52.9766C59.8457 53.332 59.8066 53.4492 59.4902 53.3281L59.373 53.2344C59.3066 53.3555 59.2051 53.4023 59.0684 53.375C58.9902 53.2617 59.0215 53.1367 59.1621 53ZM62.9355 53C62.7598 52.8984 62.7285 52.7656 62.8418 52.6016C62.9512 52.6211 63.0449 52.6836 63.123 52.7891C63.2402 52.6641 63.373 52.6172 63.5215 52.6484C63.5449 52.7852 63.498 52.9023 63.3809 53C63.5996 53.375 63.5605 53.4922 63.2637 53.3516L63.123 53.2578C63.0566 53.3594 62.9629 53.4062 62.8418 53.3984C62.7441 53.2891 62.7754 53.1562 62.9355 53ZM59.2324 53.9141C59.0566 53.8125 59.0254 53.6797 59.1387 53.5156C59.2559 53.5352 59.3496 53.5977 59.4199 53.7031C59.5332 53.5781 59.666 53.5312 59.8184 53.5625C59.8418 53.6992 59.7949 53.8164 59.6777 53.9141C59.9043 54.2891 59.8652 54.4062 59.5605 54.2656L59.4199 54.1719C59.2129 54.4062 59.0957 54.3828 59.0684 54.1016C59.1348 54.0586 59.1895 53.9961 59.2324 53.9141ZM62.9355 53.9375C62.7637 53.8086 62.7324 53.668 62.8418 53.5156C62.9629 53.5352 63.0645 53.5977 63.1465 53.7031C63.5059 53.4297 63.6152 53.4688 63.4746 53.8203L63.3809 53.9609C63.6035 54.1445 63.5879 54.2695 63.334 54.3359C63.2871 54.2734 63.2168 54.2188 63.123 54.1719C63.041 54.3125 62.9238 54.3438 62.7715 54.2656C62.7832 54.1523 62.8379 54.043 62.9355 53.9375ZM60.1934 54.4297C60.0059 54.2852 59.9746 54.1367 60.0996 53.9844C60.209 54.0078 60.3027 54.0703 60.3809 54.1719L60.6621 53.9844L60.8027 54.0781C60.7832 54.1914 60.7207 54.3008 60.6152 54.4062C60.6504 54.4648 60.7051 54.5195 60.7793 54.5703C60.7559 54.8242 60.6543 54.8633 60.4746 54.6875C60.373 54.6602 60.2715 54.707 60.1699 54.8281C59.9746 54.7148 59.9824 54.582 60.1934 54.4297ZM61.1309 54.4531C60.9512 54.2422 60.9355 54.0859 61.084 53.9844C61.1738 54.0117 61.2598 54.0742 61.3418 54.1719C61.4316 54.0859 61.5488 54.0312 61.6934 54.0078C61.7637 54.1523 61.7246 54.2852 61.5762 54.4062C61.7754 54.5898 61.7832 54.7227 61.5996 54.8047C61.5176 54.7734 61.4316 54.7188 61.3418 54.6406C61.2793 54.7461 61.1777 54.8008 61.0371 54.8047C60.9629 54.6719 60.9941 54.5547 61.1309 54.4531ZM62.0918 54.4297C61.9316 54.293 61.9004 54.1523 61.998 54.0078C62.1191 54.0156 62.2207 54.0781 62.3027 54.1953C62.3848 54.0977 62.4941 54.0352 62.6309 54.0078C62.7324 54.1445 62.7012 54.2852 62.5371 54.4297C62.6973 54.5469 62.7207 54.6719 62.6074 54.8047C62.498 54.8008 62.4043 54.7461 62.3262 54.6406C62.2441 54.7617 62.127 54.8164 61.9746 54.8047C61.9316 54.6719 61.9707 54.5469 62.0918 54.4297ZM62.9355 54.8281C62.7754 54.7305 62.7441 54.6055 62.8418 54.4531C62.9629 54.4609 63.0645 54.5234 63.1465 54.6406C63.2363 54.5117 63.3535 54.4648 63.498 54.5C63.5762 54.6016 63.5605 54.6953 63.4512 54.7812L63.3809 54.875C63.5918 55.0664 63.584 55.1992 63.3574 55.2734C63.2988 55.207 63.2285 55.1523 63.1465 55.1094C63.0645 55.2383 62.9473 55.2773 62.7949 55.2266C62.7871 55.1016 62.834 54.9688 62.9355 54.8281ZM62.9355 55.8125C62.7441 55.6367 62.7285 55.4883 62.8887 55.3672C62.9785 55.4102 63.0645 55.4805 63.1465 55.5781C63.2324 55.457 63.3574 55.4023 63.5215 55.4141C63.5566 55.5547 63.5098 55.6719 63.3809 55.7656C63.6035 56.1133 63.5723 56.2383 63.2871 56.1406L63.1699 56.0234C63.0801 56.1523 62.9629 56.1992 62.8184 56.1641C62.7676 56.0273 62.8066 55.9102 62.9355 55.8125ZM62.959 56.7266C62.7871 56.5977 62.7559 56.457 62.8652 56.3047C62.9863 56.3125 63.0879 56.375 63.1699 56.4922C63.5293 56.2148 63.6387 56.2539 63.498 56.6094L63.4043 56.75C63.502 56.8086 63.5488 56.9023 63.5449 57.0312C63.4238 57.1406 63.2988 57.1094 63.1699 56.9375C63.084 57.0938 62.959 57.1328 62.7949 57.0547C62.7988 56.9414 62.8535 56.832 62.959 56.7266ZM59.209 57.1953C59.0371 57.0664 59.0059 56.9258 59.1152 56.7734C59.2363 56.793 59.3379 56.8555 59.4199 56.9609C59.7949 56.6758 59.9043 56.7148 59.748 57.0781L59.6543 57.2188C59.7559 57.2852 59.8027 57.3867 59.7949 57.5234C59.6738 57.5898 59.541 57.5586 59.3965 57.4297C59.3145 57.5703 59.1973 57.6016 59.0449 57.5234C59.0566 57.4102 59.1113 57.3008 59.209 57.1953ZM62.9355 57.6641C62.7676 57.5391 62.7363 57.3984 62.8418 57.2422C62.9551 57.2617 63.0488 57.3242 63.123 57.4297C63.1934 57.4023 63.2559 57.3477 63.3105 57.2656C63.5527 57.2734 63.5996 57.375 63.4512 57.5703L63.3809 57.6875C63.5996 57.8711 63.584 57.9961 63.334 58.0625C63.2754 57.9961 63.2051 57.9414 63.123 57.8984C63.0566 58.0195 62.9473 58.0664 62.7949 58.0391C62.7715 57.9062 62.8184 57.7812 62.9355 57.6641ZM59.2559 58.1328C59.041 57.9609 59.0254 57.8125 59.209 57.6875C59.2949 57.7266 59.373 57.7891 59.4434 57.875C59.5684 57.7344 59.709 57.7031 59.8652 57.7812C59.8496 57.9062 59.7871 58.0156 59.6777 58.1094C59.9434 58.4805 59.9043 58.5898 59.5605 58.4375L59.4434 58.3438C59.3926 58.4375 59.3066 58.4922 59.1855 58.5078C59.0332 58.3906 59.0566 58.2656 59.2559 58.1328ZM60.1699 58.6016C59.9863 58.4336 59.9629 58.2852 60.0996 58.1562C60.1934 58.1797 60.2793 58.2422 60.3574 58.3438C60.4629 58.2422 60.5957 58.1953 60.7559 58.2031C60.7793 58.3398 60.7324 58.457 60.6152 58.5547C60.7949 58.7656 60.7949 58.9062 60.6152 58.9766C60.5488 58.9453 60.4707 58.8906 60.3809 58.8125C60.3105 58.918 60.2012 58.9727 60.0527 58.9766C59.9824 58.8359 60.0215 58.7109 60.1699 58.6016ZM61.084 58.5781C60.9121 58.4492 60.8809 58.3086 60.9902 58.1562C61.1074 58.1758 61.209 58.2383 61.2949 58.3438C61.4043 58.1914 61.5371 58.1523 61.6934 58.2266C61.6895 58.3438 61.6348 58.4531 61.5293 58.5547C61.5566 58.6289 61.6113 58.6992 61.6934 58.7656C61.6582 58.9648 61.5566 59.0039 61.3887 58.8828L61.2715 58.8125C61.2051 58.9141 61.1113 58.9609 60.9902 58.9531C60.8887 58.8398 60.9199 58.7148 61.084 58.5781ZM61.998 58.6016C61.8301 58.4336 61.8066 58.2852 61.9277 58.1562C62.0332 58.1875 62.1348 58.25 62.2324 58.3438C62.3418 58.1797 62.4746 58.1484 62.6309 58.25C62.6113 58.3711 62.5488 58.4727 62.4434 58.5547C62.4707 58.625 62.5254 58.6875 62.6074 58.7422C62.5918 58.9727 62.498 59.0195 62.3262 58.8828L62.209 58.8125C62.1426 58.9258 62.041 58.9727 61.9043 58.9531C61.8301 58.8203 61.8613 58.7031 61.998 58.6016Z"
											fill="url(#paint5_linear_2694_21759)" />
										<rect x="42.25" y="27.25" width="27.5" height="2.5" rx="1.25" fill="url(#paint6_linear_2694_21759)"
											stroke="url(#paint7_linear_2694_21759)" stroke-width="0.5" />
										<circle cx="84.5" cy="28.5" r="1.75" fill="url(#paint8_linear_2694_21759)"
											stroke="url(#paint9_linear_2694_21759)" stroke-width="0.5" />
										<circle cx="27.5" cy="28.5" r="1.75" fill="url(#paint10_linear_2694_21759)"
											stroke="url(#paint11_linear_2694_21759)" stroke-width="0.5" />
										<rect x="42.25" y="82.25" width="27.5" height="2.5" rx="1.25" fill="url(#paint12_linear_2694_21759)"
											stroke="url(#paint13_linear_2694_21759)" stroke-width="0.5" />
										<circle cx="84.5" cy="83.5" r="1.75" fill="url(#paint14_linear_2694_21759)"
											stroke="url(#paint15_linear_2694_21759)" stroke-width="0.5" />
										<circle cx="27.5" cy="83.5" r="1.75" fill="url(#paint16_linear_2694_21759)"
											stroke="url(#paint17_linear_2694_21759)" stroke-width="0.5" />
										<rect x="50.75" y="74.75" width="2.5" height="2.5" fill="url(#paint18_linear_2694_21759)"
											stroke="url(#paint19_linear_2694_21759)" stroke-width="0.5" />
										<rect x="55.75" y="74.75" width="2.5" height="2.5" fill="url(#paint20_linear_2694_21759)"
											stroke="url(#paint21_linear_2694_21759)" stroke-width="0.5" />
										<rect x="60.75" y="74.75" width="2.5" height="2.5" fill="url(#paint22_linear_2694_21759)"
											stroke="url(#paint23_linear_2694_21759)" stroke-width="0.5" />
										<defs>
											<linearGradient id="paint0_linear_2694_21759" x1="56" y1="6" x2="56" y2="106"
												gradientUnits="userSpaceOnUse">
												<stop stop-color="#1C2138" />
												<stop offset="1" stop-color="#15182A" />
											</linearGradient>
											<linearGradient id="paint1_linear_2694_21759" x1="56" y1="46.0476" x2="56" y2="73.6429"
												gradientUnits="userSpaceOnUse">
												<stop stop-color="#9CBCED" />
												<stop offset="0.51" stop-color="#9CC3F2" />
												<stop offset="1" stop-color="#82B4F0" />
											</linearGradient>
											<linearGradient id="paint2_linear_2694_21759" x1="56.5" y1="20.3077" x2="56.5" y2="89.6923"
												gradientUnits="userSpaceOnUse">
												<stop stop-color="#191D2E" />
												<stop offset="0.494234" stop-color="#181B29" />
												<stop offset="1" stop-color="#191D2E" />
											</linearGradient>
											<linearGradient id="paint3_linear_2694_21759" x1="56.5" y1="44" x2="56.5" y2="66"
												gradientUnits="userSpaceOnUse">
												<stop stop-color="#202639" />
												<stop offset="1" stop-color="#242D46" />
											</linearGradient>
											<linearGradient id="paint4_linear_2694_21759" x1="62.5" y1="38.2609" x2="56.9912" y2="66.0972"
												gradientUnits="userSpaceOnUse">
												<stop stop-color="#323D5E" />
												<stop offset="1" stop-color="#22293D" />
											</linearGradient>
											<linearGradient id="paint5_linear_2694_21759" x1="57" y1="52.9048" x2="57" y2="58.7143"
												gradientUnits="userSpaceOnUse">
												<stop stop-color="#EEEEEE" />
												<stop offset="0.51" stop-color="#C8DCF5" />
												<stop offset="1" stop-color="#CBD5E2" />
											</linearGradient>
											<linearGradient id="paint6_linear_2694_21759" x1="56" y1="23.7692" x2="56" y2="33.2308"
												gradientUnits="userSpaceOnUse">
												<stop stop-color="#191D2E" />
												<stop offset="0.494234" stop-color="#181B29" />
												<stop offset="1" stop-color="#191D2E" />
											</linearGradient>
											<linearGradient id="paint7_linear_2694_21759" x1="56" y1="27" x2="56" y2="29.5"
												gradientUnits="userSpaceOnUse">
												<stop stop-color="#1D202F" stop-opacity="0" />
												<stop offset="1" stop-color="#242C45" />
											</linearGradient>
											<linearGradient id="paint8_linear_2694_21759" x1="84.5" y1="23.7692" x2="84.5" y2="33.2308"
												gradientUnits="userSpaceOnUse">
												<stop stop-color="#191D2E" />
												<stop offset="0.494234" stop-color="#181B29" />
												<stop offset="1" stop-color="#191D2E" />
											</linearGradient>
											<linearGradient id="paint9_linear_2694_21759" x1="84.5" y1="27" x2="84.5" y2="29.5"
												gradientUnits="userSpaceOnUse">
												<stop stop-color="#1D202F" stop-opacity="0" />
												<stop offset="1" stop-color="#242C45" />
											</linearGradient>
											<linearGradient id="paint10_linear_2694_21759" x1="27.5" y1="23.7692" x2="27.5" y2="33.2308"
												gradientUnits="userSpaceOnUse">
												<stop stop-color="#191D2E" />
												<stop offset="0.494234" stop-color="#181B29" />
												<stop offset="1" stop-color="#191D2E" />
											</linearGradient>
											<linearGradient id="paint11_linear_2694_21759" x1="27.5" y1="27" x2="27.5" y2="29.5"
												gradientUnits="userSpaceOnUse">
												<stop stop-color="#1D202F" stop-opacity="0" />
												<stop offset="1" stop-color="#242C45" />
											</linearGradient>
											<linearGradient id="paint12_linear_2694_21759" x1="56" y1="78.7692" x2="56" y2="88.2308"
												gradientUnits="userSpaceOnUse">
												<stop stop-color="#191D2E" />
												<stop offset="0.494234" stop-color="#181B29" />
												<stop offset="1" stop-color="#191D2E" />
											</linearGradient>
											<linearGradient id="paint13_linear_2694_21759" x1="56" y1="82" x2="56" y2="84.5"
												gradientUnits="userSpaceOnUse">
												<stop stop-color="#1D202F" stop-opacity="0" />
												<stop offset="1" stop-color="#242C45" />
											</linearGradient>
											<linearGradient id="paint14_linear_2694_21759" x1="84.5" y1="78.7692" x2="84.5" y2="88.2308"
												gradientUnits="userSpaceOnUse">
												<stop stop-color="#191D2E" />
												<stop offset="0.494234" stop-color="#181B29" />
												<stop offset="1" stop-color="#191D2E" />
											</linearGradient>
											<linearGradient id="paint15_linear_2694_21759" x1="84.5" y1="82" x2="84.5" y2="84.5"
												gradientUnits="userSpaceOnUse">
												<stop stop-color="#1D202F" stop-opacity="0" />
												<stop offset="1" stop-color="#242C45" />
											</linearGradient>
											<linearGradient id="paint16_linear_2694_21759" x1="27.5" y1="78.7692" x2="27.5" y2="88.2308"
												gradientUnits="userSpaceOnUse">
												<stop stop-color="#191D2E" />
												<stop offset="0.494234" stop-color="#181B29" />
												<stop offset="1" stop-color="#191D2E" />
											</linearGradient>
											<linearGradient id="paint17_linear_2694_21759" x1="27.5" y1="82" x2="27.5" y2="84.5"
												gradientUnits="userSpaceOnUse">
												<stop stop-color="#1D202F" stop-opacity="0" />
												<stop offset="1" stop-color="#242C45" />
											</linearGradient>
											<linearGradient id="paint18_linear_2694_21759" x1="52.6667" y1="73.3333" x2="51.3333" y2="77.6667"
												gradientUnits="userSpaceOnUse">
												<stop stop-color="#222A4A" />
												<stop offset="1" stop-color="#262E4B" />
											</linearGradient>
											<linearGradient id="paint19_linear_2694_21759" x1="51.3333" y1="73.6667" x2="51" y2="78.3333"
												gradientUnits="userSpaceOnUse">
												<stop stop-color="#3A4162" />
												<stop offset="1" stop-color="#252E54" />
											</linearGradient>
											<linearGradient id="paint20_linear_2694_21759" x1="57.6667" y1="73.3333" x2="56.3333" y2="77.6667"
												gradientUnits="userSpaceOnUse">
												<stop stop-color="#222A4A" />
												<stop offset="1" stop-color="#262E4B" />
											</linearGradient>
											<linearGradient id="paint21_linear_2694_21759" x1="56.3333" y1="73.6667" x2="56" y2="78.3333"
												gradientUnits="userSpaceOnUse">
												<stop stop-color="#3A4162" />
												<stop offset="1" stop-color="#252E54" />
											</linearGradient>
											<linearGradient id="paint22_linear_2694_21759" x1="62.6667" y1="73.3333" x2="61.3333" y2="77.6667"
												gradientUnits="userSpaceOnUse">
												<stop stop-color="#222A4A" />
												<stop offset="1" stop-color="#262E4B" />
											</linearGradient>
											<linearGradient id="paint23_linear_2694_21759" x1="61.3333" y1="73.6667" x2="61" y2="78.3333"
												gradientUnits="userSpaceOnUse">
												<stop stop-color="#3A4162" />
												<stop offset="1" stop-color="#252E54" />
											</linearGradient>
										</defs>
									</svg>