									<svg width="112" height="112" viewBox="0 0 112 112" fill="none" xmlns="http://www.w3.org/2000/svg">
										<rect x="0.25" y="0.25" width="111.5" height="111.5" rx="7.75" stroke="#212941" stroke-width="0.5" />
										<mask id="path-2-inside-1_2694_21759" fill="white">
											<path fill-rule="evenodd" clip-rule="evenodd"
												d="M6 10C6 7.79086 7.79086 6 10 6H102C104.209 6 106 7.79086 106 10V14C104.343 14 103 15.3431 103 17C103 18.6569 104.343 20 106 20V92C104.343 92 103 93.3431 103 95C103 96.6569 104.343 98 106 98V102C106 104.209 104.209 106 102 106H10C7.79086 106 6 104.209 6 102V98C7.65685 98 9 96.6569 9 95C9 93.3431 7.65685 92 6 92V20C7.65685 20 9 18.6569 9 17C9 15.3431 7.65685 14 6 14V10Z" />
										</mask>
										<path fill-rule="evenodd" clip-rule="evenodd"
											d="M6 10C6 7.79086 7.79086 6 10 6H102C104.209 6 106 7.79086 106 10V14C104.343 14 103 15.3431 103 17C103 18.6569 104.343 20 106 20V92C104.343 92 103 93.3431 103 95C103 96.6569 104.343 98 106 98V102C106 104.209 104.209 106 102 106H10C7.79086 106 6 104.209 6 102V98C7.65685 98 9 96.6569 9 95C9 93.3431 7.65685 92 6 92V20C7.65685 20 9 18.6569 9 17C9 15.3431 7.65685 14 6 14V10Z"
											fill="url(#paint0_linear_2694_21759)" />
										<path
											d="M106 14V14.5H106.5V14H106ZM106 20H106.5V19.5H106V20ZM106 92V92.5H106.5V92H106ZM106 98H106.5V97.5H106V98ZM6 98V97.5H5.5V98H6ZM6 92H5.5V92.5H6V92ZM6 20V19.5H5.5V20H6ZM6 14H5.5V14.5H6V14ZM10 5.5C7.51472 5.5 5.5 7.51472 5.5 10H6.5C6.5 8.06701 8.067 6.5 10 6.5V5.5ZM102 5.5H10V6.5H102V5.5ZM106.5 10C106.5 7.51472 104.485 5.5 102 5.5V6.5C103.933 6.5 105.5 8.067 105.5 10H106.5ZM106.5 14V10H105.5V14H106.5ZM103.5 17C103.5 15.6193 104.619 14.5 106 14.5V13.5C104.067 13.5 102.5 15.067 102.5 17H103.5ZM106 19.5C104.619 19.5 103.5 18.3807 103.5 17H102.5C102.5 18.933 104.067 20.5 106 20.5V19.5ZM106.5 92V20H105.5V92H106.5ZM103.5 95C103.5 93.6193 104.619 92.5 106 92.5V91.5C104.067 91.5 102.5 93.067 102.5 95H103.5ZM106 97.5C104.619 97.5 103.5 96.3807 103.5 95H102.5C102.5 96.933 104.067 98.5 106 98.5V97.5ZM106.5 102V98H105.5V102H106.5ZM102 106.5C104.485 106.5 106.5 104.485 106.5 102H105.5C105.5 103.933 103.933 105.5 102 105.5V106.5ZM10 106.5H102V105.5H10V106.5ZM5.5 102C5.5 104.485 7.51472 106.5 10 106.5V105.5C8.06701 105.5 6.5 103.933 6.5 102H5.5ZM5.5 98V102H6.5V98H5.5ZM8.5 95C8.5 96.3807 7.38071 97.5 6 97.5V98.5C7.933 98.5 9.5 96.933 9.5 95H8.5ZM6 92.5C7.38071 92.5 8.5 93.6193 8.5 95H9.5C9.5 93.067 7.933 91.5 6 91.5V92.5ZM5.5 20V92H6.5V20H5.5ZM8.5 17C8.5 18.3807 7.38071 19.5 6 19.5V20.5C7.933 20.5 9.5 18.933 9.5 17H8.5ZM6 14.5C7.38071 14.5 8.5 15.6193 8.5 17H9.5C9.5 15.067 7.933 13.5 6 13.5V14.5ZM5.5 10V14H6.5V10H5.5Z"
											fill="#323F5F" mask="url(#path-2-inside-1_2694_21759)" />
										<rect x="18.5" y="18.5" width="75" height="75" rx="8.5" stroke="url(#paint1_linear_2694_21759)" />
										<rect x="19" y="19" width="74" height="74" rx="8" fill="#070917" />
										<rect x="19" y="19" width="74" height="74" rx="8" fill="#070917" />
										<rect x="21" y="21" width="70" height="70" rx="6" fill="#1F2338" />
										<path
											d="M32.25 55C32.25 49.0629 37.0629 44.25 43 44.25H70C75.9371 44.25 80.75 49.0629 80.75 55C80.75 60.9371 75.9371 65.75 70 65.75H43C37.0629 65.75 32.25 60.9371 32.25 55Z"
											fill="url(#paint2_linear_2694_21759)" stroke="url(#paint3_linear_2694_21759)" stroke-width="0.5" />
										<path
											d="M43 42.5C36.0964 42.5 30.5 48.0964 30.5 55C30.5 61.9036 36.0964 67.5 43 67.5H70C76.9036 67.5 82.5 61.9036 82.5 55C82.5 48.0964 76.9036 42.5 70 42.5H43Z"
											stroke="url(#paint4_linear_2694_21759)" stroke-width="3" />
										
										<rect x="42.25" y="27.25" width="27.5" height="2.5" rx="1.25" fill="url(#paint6_linear_2694_21759)"
											stroke="url(#paint7_linear_2694_21759)" stroke-width="0.5" />
										<circle cx="84.5" cy="28.5" r="1.75" fill="url(#paint8_linear_2694_21759)"
											stroke="url(#paint9_linear_2694_21759)" stroke-width="0.5" />
										<circle cx="27.5" cy="28.5" r="1.75" fill="url(#paint10_linear_2694_21759)"
											stroke="url(#paint11_linear_2694_21759)" stroke-width="0.5" />
										<rect x="42.25" y="82.25" width="27.5" height="2.5" rx="1.25" fill="url(#paint12_linear_2694_21759)"
											stroke="url(#paint13_linear_2694_21759)" stroke-width="0.5" />
										<circle cx="84.5" cy="83.5" r="1.75" fill="url(#paint14_linear_2694_21759)"
											stroke="url(#paint15_linear_2694_21759)" stroke-width="0.5" />
										<circle cx="27.5" cy="83.5" r="1.75" fill="url(#paint16_linear_2694_21759)"
											stroke="url(#paint17_linear_2694_21759)" stroke-width="0.5" />
										<rect x="50.75" y="74.75" width="2.5" height="2.5" fill="url(#paint18_linear_2694_21759)"
											stroke="url(#paint19_linear_2694_21759)" stroke-width="0.5" />
										<rect x="55.75" y="74.75" width="2.5" height="2.5" fill="url(#paint20_linear_2694_21759)"
											stroke="url(#paint21_linear_2694_21759)" stroke-width="0.5" />
										<rect x="60.75" y="74.75" width="2.5" height="2.5" fill="url(#paint22_linear_2694_21759)"
											stroke="url(#paint23_linear_2694_21759)" stroke-width="0.5" />
										<defs>
											<linearGradient id="paint0_linear_2694_21759" x1="56" y1="6" x2="56" y2="106"
												gradientUnits="userSpaceOnUse">
												<stop stop-color="#1C2138" />
												<stop offset="1" stop-color="#15182A" />
											</linearGradient>
											<linearGradient id="paint1_linear_2694_21759" x1="56" y1="46.0476" x2="56" y2="73.6429"
												gradientUnits="userSpaceOnUse">
												<stop stop-color="#9CBCED" />
												<stop offset="0.51" stop-color="#9CC3F2" />
												<stop offset="1" stop-color="#82B4F0" />
											</linearGradient>
											<linearGradient id="paint2_linear_2694_21759" x1="56.5" y1="20.3077" x2="56.5" y2="89.6923"
												gradientUnits="userSpaceOnUse">
												<stop stop-color="#191D2E" />
												<stop offset="0.494234" stop-color="#181B29" />
												<stop offset="1" stop-color="#191D2E" />
											</linearGradient>
											<linearGradient id="paint3_linear_2694_21759" x1="56.5" y1="44" x2="56.5" y2="66"
												gradientUnits="userSpaceOnUse">
												<stop stop-color="#202639" />
												<stop offset="1" stop-color="#242D46" />
											</linearGradient>
											<linearGradient id="paint4_linear_2694_21759" x1="62.5" y1="38.2609" x2="56.9912" y2="66.0972"
												gradientUnits="userSpaceOnUse">
												<stop stop-color="#323D5E" />
												<stop offset="1" stop-color="#22293D" />
											</linearGradient>
											<linearGradient id="paint5_linear_2694_21759" x1="57" y1="52.9048" x2="57" y2="58.7143"
												gradientUnits="userSpaceOnUse">
												<stop stop-color="#EEEEEE" />
												<stop offset="0.51" stop-color="#C8DCF5" />
												<stop offset="1" stop-color="#CBD5E2" />
											</linearGradient>
											<linearGradient id="paint6_linear_2694_21759" x1="56" y1="23.7692" x2="56" y2="33.2308"
												gradientUnits="userSpaceOnUse">
												<stop stop-color="#191D2E" />
												<stop offset="0.494234" stop-color="#181B29" />
												<stop offset="1" stop-color="#191D2E" />
											</linearGradient>
											<linearGradient id="paint7_linear_2694_21759" x1="56" y1="27" x2="56" y2="29.5"
												gradientUnits="userSpaceOnUse">
												<stop stop-color="#1D202F" stop-opacity="0" />
												<stop offset="1" stop-color="#242C45" />
											</linearGradient>
											<linearGradient id="paint8_linear_2694_21759" x1="84.5" y1="23.7692" x2="84.5" y2="33.2308"
												gradientUnits="userSpaceOnUse">
												<stop stop-color="#191D2E" />
												<stop offset="0.494234" stop-color="#181B29" />
												<stop offset="1" stop-color="#191D2E" />
											</linearGradient>
											<linearGradient id="paint9_linear_2694_21759" x1="84.5" y1="27" x2="84.5" y2="29.5"
												gradientUnits="userSpaceOnUse">
												<stop stop-color="#1D202F" stop-opacity="0" />
												<stop offset="1" stop-color="#242C45" />
											</linearGradient>
											<linearGradient id="paint10_linear_2694_21759" x1="27.5" y1="23.7692" x2="27.5" y2="33.2308"
												gradientUnits="userSpaceOnUse">
												<stop stop-color="#191D2E" />
												<stop offset="0.494234" stop-color="#181B29" />
												<stop offset="1" stop-color="#191D2E" />
											</linearGradient>
											<linearGradient id="paint11_linear_2694_21759" x1="27.5" y1="27" x2="27.5" y2="29.5"
												gradientUnits="userSpaceOnUse">
												<stop stop-color="#1D202F" stop-opacity="0" />
												<stop offset="1" stop-color="#242C45" />
											</linearGradient>
											<linearGradient id="paint12_linear_2694_21759" x1="56" y1="78.7692" x2="56" y2="88.2308"
												gradientUnits="userSpaceOnUse">
												<stop stop-color="#191D2E" />
												<stop offset="0.494234" stop-color="#181B29" />
												<stop offset="1" stop-color="#191D2E" />
											</linearGradient>
											<linearGradient id="paint13_linear_2694_21759" x1="56" y1="82" x2="56" y2="84.5"
												gradientUnits="userSpaceOnUse">
												<stop stop-color="#1D202F" stop-opacity="0" />
												<stop offset="1" stop-color="#242C45" />
											</linearGradient>
											<linearGradient id="paint14_linear_2694_21759" x1="84.5" y1="78.7692" x2="84.5" y2="88.2308"
												gradientUnits="userSpaceOnUse">
												<stop stop-color="#191D2E" />
												<stop offset="0.494234" stop-color="#181B29" />
												<stop offset="1" stop-color="#191D2E" />
											</linearGradient>
											<linearGradient id="paint15_linear_2694_21759" x1="84.5" y1="82" x2="84.5" y2="84.5"
												gradientUnits="userSpaceOnUse">
												<stop stop-color="#1D202F" stop-opacity="0" />
												<stop offset="1" stop-color="#242C45" />
											</linearGradient>
											<linearGradient id="paint16_linear_2694_21759" x1="27.5" y1="78.7692" x2="27.5" y2="88.2308"
												gradientUnits="userSpaceOnUse">
												<stop stop-color="#191D2E" />
												<stop offset="0.494234" stop-color="#181B29" />
												<stop offset="1" stop-color="#191D2E" />
											</linearGradient>
											<linearGradient id="paint17_linear_2694_21759" x1="27.5" y1="82" x2="27.5" y2="84.5"
												gradientUnits="userSpaceOnUse">
												<stop stop-color="#1D202F" stop-opacity="0" />
												<stop offset="1" stop-color="#242C45" />
											</linearGradient>
											<linearGradient id="paint18_linear_2694_21759" x1="52.6667" y1="73.3333" x2="51.3333" y2="77.6667"
												gradientUnits="userSpaceOnUse">
												<stop stop-color="#222A4A" />
												<stop offset="1" stop-color="#262E4B" />
											</linearGradient>
											<linearGradient id="paint19_linear_2694_21759" x1="51.3333" y1="73.6667" x2="51" y2="78.3333"
												gradientUnits="userSpaceOnUse">
												<stop stop-color="#3A4162" />
												<stop offset="1" stop-color="#252E54" />
											</linearGradient>
											<linearGradient id="paint20_linear_2694_21759" x1="57.6667" y1="73.3333" x2="56.3333" y2="77.6667"
												gradientUnits="userSpaceOnUse">
												<stop stop-color="#222A4A" />
												<stop offset="1" stop-color="#262E4B" />
											</linearGradient>
											<linearGradient id="paint21_linear_2694_21759" x1="56.3333" y1="73.6667" x2="56" y2="78.3333"
												gradientUnits="userSpaceOnUse">
												<stop stop-color="#3A4162" />
												<stop offset="1" stop-color="#252E54" />
											</linearGradient>
											<linearGradient id="paint22_linear_2694_21759" x1="62.6667" y1="73.3333" x2="61.3333" y2="77.6667"
												gradientUnits="userSpaceOnUse">
												<stop stop-color="#222A4A" />
												<stop offset="1" stop-color="#262E4B" />
											</linearGradient>
											<linearGradient id="paint23_linear_2694_21759" x1="61.3333" y1="73.6667" x2="61" y2="78.3333"
												gradientUnits="userSpaceOnUse">
												<stop stop-color="#3A4162" />
												<stop offset="1" stop-color="#252E54" />
											</linearGradient>
										</defs>
									</svg>