<svg xmlns="http://www.w3.org/2000/svg" width="476" height="106" fill="none">
  <path fill="url(#a)"
    d="M17.542 105H.168L38.42 2.8h20.002L96.528 105H78.57l-9.636-25.258H27.032L17.542 105ZM47.91 20.904l-16.206 44.53h32.558L47.91 20.904Zm106.172 46.72V30.248h15.768V105h-13.87l-1.752-9.49c-4.672 5.694-11.534 10.366-23.068 10.366-15.914 0-29.492-8.468-29.492-34.018v-41.61h15.768v39.858c0 14.6 5.84 22.046 17.374 22.046 11.972 0 19.272-9.052 19.272-24.528Zm30.138 17.082V9.37h15.768v20.878h18.104v13.87h-18.104V83.1c0 5.84 2.19 8.03 7.738 8.03h11.972V105h-15.184c-14.308 0-20.294-6.716-20.294-20.294Zm84.784-55.334c16.644 0 30.222 9.052 30.222 34.018V105h-15.768V64.704c0-14.162-6.278-21.754-17.958-21.754-12.41 0-20.002 9.198-20.002 24.236V105H229.73V2.8h15.768v38.252c4.672-6.424 11.826-11.68 23.506-11.68ZM315.172 105V2.8h16.79v52.706L378.828 2.8h20.44l-37.522 42.924L402.042 105h-20.294l-32.12-46.866-17.666 19.856V105h-16.79Zm102.522-85.264c-5.402 0-9.636-3.942-9.636-9.49s4.234-9.49 9.636-9.49c5.402 0 9.636 3.942 9.636 9.49s-4.234 9.49-9.636 9.49ZM409.664 105V30.248h15.768V105h-15.768Zm30.056-20.294V9.37h15.768v20.878h18.104v13.87h-18.104V83.1c0 5.84 2.19 8.03 7.738 8.03h11.972V105h-15.184c-14.308 0-20.294-6.716-20.294-20.294Z" />
  <defs>
    <linearGradient id="a" x1="239.053" x2="239.053" y1="125" y2="-21"
      gradientUnits="userSpaceOnUse">
      <stop stop-color="#D8ECF8" />
      <stop offset="1" stop-color="#98C0EF" />
    </linearGradient>
  </defs>
</svg>