									<svg width="60" height="60" viewBox="0 0 60 60" fill="none" xmlns="http://www.w3.org/2000/svg">
										<g filter="url(#filter0_b_2694_8372)">
										<rect width="60" height="60" rx="12" fill="#131827"/>
										</g>
										<mask id="mask0_2694_8372" style="mask-type:alpha" maskUnits="userSpaceOnUse" x="0" y="0" width="60" height="60">
										<rect x="0.25" y="0.25" width="59.5" height="59.5" rx="11.75" fill="#131827" stroke="url(#paint0_linear_2694_8372)" stroke-width="0.5"/>
										</mask>
										<g mask="url(#mask0_2694_8372)">
										<rect x="6" y="3" width="1" height="1" fill="#323F5F"/>
										<rect x="2" y="3" width="1" height="1" fill="#323F5F"/>
										<rect x="10" y="3" width="1" height="1" fill="#323F5F"/>
										<rect x="14" y="3" width="1" height="1" fill="#323F5F"/>
										<rect x="18" y="3" width="1" height="1" fill="#323F5F"/>
										<rect x="22" y="3" width="1" height="1" fill="#323F5F"/>
										<rect x="26" y="3" width="1" height="1" fill="#323F5F"/>
										<rect x="30" y="3" width="1" height="1" fill="#323F5F"/>
										<rect x="34" y="3" width="1" height="1" fill="#323F5F"/>
										<rect x="38" y="3" width="1" height="1" fill="#323F5F"/>
										<rect x="42" y="3" width="1" height="1" fill="#323F5F"/>
										<rect x="46" y="3" width="1" height="1" fill="#323F5F"/>
										<rect x="50" y="3" width="1" height="1" fill="#323F5F"/>
										<rect x="54" y="3" width="1" height="1" fill="#323F5F"/>
										<rect x="58" y="3" width="1" height="1" fill="#323F5F"/>
										<rect x="6" y="7" width="1" height="1" fill="#323F5F"/>
										<rect x="2" y="7" width="1" height="1" fill="#323F5F"/>
										<rect x="10" y="7" width="1" height="1" fill="#323F5F"/>
										<rect x="14" y="7" width="1" height="1" fill="#323F5F"/>
										<rect x="18" y="7" width="1" height="1" fill="#323F5F"/>
										<rect opacity="0.3" x="22" y="7" width="1" height="1" fill="#323F5F"/>
										<rect opacity="0.3" x="26" y="7" width="1" height="1" fill="#323F5F"/>
										<rect opacity="0.3" x="30" y="7" width="1" height="1" fill="#323F5F"/>
										<rect x="34" y="7" width="1" height="1" fill="#323F5F"/>
										<rect opacity="0.6" x="38" y="7" width="1" height="1" fill="#323F5F"/>
										<rect opacity="0.6" x="42" y="7" width="1" height="1" fill="#323F5F"/>
										<rect opacity="0.6" x="46" y="7" width="1" height="1" fill="#323F5F"/>
										<rect x="50" y="7" width="1" height="1" fill="#323F5F"/>
										<rect x="54" y="7" width="1" height="1" fill="#323F5F"/>
										<rect x="58" y="7" width="1" height="1" fill="#323F5F"/>
										<rect opacity="0.6" x="6" y="11" width="1" height="1" fill="#323F5F"/>
										<rect x="2" y="11" width="1" height="1" fill="#323F5F"/>
										<rect opacity="0.3" x="10" y="11" width="1" height="1" fill="#323F5F"/>
										<rect opacity="0.3" x="14" y="11" width="1" height="1" fill="#323F5F"/>
										<rect x="18" y="11" width="1" height="1" fill="#323F5F"/>
										<rect x="22" y="11" width="1" height="1" fill="#323F5F"/>
										<rect x="26" y="11" width="1" height="1" fill="#323F5F"/>
										<rect opacity="0.3" x="30" y="11" width="1" height="1" fill="#323F5F"/>
										<rect opacity="0.3" x="34" y="11" width="1" height="1" fill="#323F5F"/>
										<rect opacity="0.3" x="38" y="11" width="1" height="1" fill="#323F5F"/>
										<rect opacity="0.6" x="42" y="11" width="1" height="1" fill="#323F5F"/>
										<rect opacity="0.3" x="46" y="11" width="1" height="1" fill="#323F5F"/>
										<rect opacity="0.3" x="50" y="11" width="1" height="1" fill="#323F5F"/>
										<rect x="54" y="11" width="1" height="1" fill="#323F5F"/>
										<rect x="58" y="11" width="1" height="1" fill="#323F5F"/>
										<rect opacity="0.6" x="6" y="15" width="1" height="1" fill="#323F5F"/>
										<rect opacity="0.6" x="2" y="15" width="1" height="1" fill="#323F5F"/>
										<rect opacity="0.1" x="10" y="15" width="1" height="1" fill="#323F5F"/>
										<rect opacity="0.1" x="14" y="15" width="1" height="1" fill="#323F5F"/>
										<rect opacity="0.1" x="18" y="15" width="1" height="1" fill="#323F5F"/>
										<rect opacity="0.1" x="22" y="15" width="1" height="1" fill="#323F5F"/>
										<rect opacity="0.1" x="26" y="15" width="1" height="1" fill="#323F5F"/>
										<rect opacity="0.3" x="30" y="15" width="1" height="1" fill="#323F5F"/>
										<rect opacity="0.3" x="34" y="15" width="1" height="1" fill="#323F5F"/>
										<rect opacity="0.3" x="38" y="15" width="1" height="1" fill="#323F5F"/>
										<rect opacity="0.3" x="42" y="15" width="1" height="1" fill="#323F5F"/>
										<rect opacity="0.3" x="46" y="15" width="1" height="1" fill="#323F5F"/>
										<rect opacity="0.3" x="50" y="15" width="1" height="1" fill="#323F5F"/>
										<rect x="54" y="15" width="1" height="1" fill="#323F5F"/>
										<rect x="58" y="15" width="1" height="1" fill="#323F5F"/>
										<rect x="6" y="19" width="1" height="1" fill="#323F5F"/>
										<rect x="2" y="19" width="1" height="1" fill="#323F5F"/>
										<rect x="10" y="19" width="1" height="1" fill="#323F5F"/>
										<rect x="14" y="19" width="1" height="1" fill="#323F5F"/>
										<rect x="18" y="19" width="1" height="1" fill="#323F5F"/>
										<rect x="22" y="19" width="1" height="1" fill="#323F5F"/>
										<rect x="26" y="19" width="1" height="1" fill="#323F5F"/>
										<rect x="30" y="19" width="1" height="1" fill="#323F5F"/>
										<rect x="34" y="19" width="1" height="1" fill="#323F5F"/>
										<rect x="38" y="19" width="1" height="1" fill="#323F5F"/>
										<rect x="42" y="19" width="1" height="1" fill="#323F5F"/>
										<rect x="46" y="19" width="1" height="1" fill="#323F5F"/>
										<rect x="50" y="19" width="1" height="1" fill="#323F5F"/>
										<rect opacity="0.6" x="54" y="19" width="1" height="1" fill="#323F5F"/>
										<rect x="58" y="19" width="1" height="1" fill="#323F5F"/>
										<g opacity="0.3">
										<rect x="6" y="23" width="1" height="1" fill="#323F5F"/>
										<rect x="2" y="23" width="1" height="1" fill="#323F5F"/>
										<rect x="10" y="23" width="1" height="1" fill="#323F5F"/>
										<rect x="14" y="23" width="1" height="1" fill="#323F5F"/>
										<rect x="18" y="23" width="1" height="1" fill="#323F5F"/>
										<rect x="22" y="23" width="1" height="1" fill="#323F5F"/>
										<rect x="26" y="23" width="1" height="1" fill="#323F5F"/>
										<rect x="30" y="23" width="1" height="1" fill="#323F5F"/>
										<rect x="34" y="23" width="1" height="1" fill="#323F5F"/>
										<rect x="38" y="23" width="1" height="1" fill="#323F5F"/>
										<rect x="42" y="23" width="1" height="1" fill="#323F5F"/>
										<rect x="46" y="23" width="1" height="1" fill="#323F5F"/>
										<rect x="50" y="23" width="1" height="1" fill="#323F5F"/>
										<rect opacity="0.6" x="54" y="23" width="1" height="1" fill="#323F5F"/>
										<rect x="58" y="23" width="1" height="1" fill="#323F5F"/>
										</g>
										<g opacity="0.3">
										<rect x="6" y="27" width="1" height="1" fill="#323F5F"/>
										<rect opacity="0.1" x="2" y="27" width="1" height="1" fill="#323F5F"/>
										<rect x="10" y="27" width="1" height="1" fill="#323F5F"/>
										<rect x="14" y="27" width="1" height="1" fill="#323F5F"/>
										<rect x="18" y="27" width="1" height="1" fill="#323F5F"/>
										<rect x="22" y="27" width="1" height="1" fill="#323F5F"/>
										<rect x="26" y="27" width="1" height="1" fill="#323F5F"/>
										<rect x="30" y="27" width="1" height="1" fill="#323F5F"/>
										<rect x="34" y="27" width="1" height="1" fill="#323F5F"/>
										<rect x="38" y="27" width="1" height="1" fill="#323F5F"/>
										<rect x="42" y="27" width="1" height="1" fill="#323F5F"/>
										<rect x="46" y="27" width="1" height="1" fill="#323F5F"/>
										<rect x="50" y="27" width="1" height="1" fill="#323F5F"/>
										<rect opacity="0.3" x="54" y="27" width="1" height="1" fill="#323F5F"/>
										<rect x="58" y="27" width="1" height="1" fill="#323F5F"/>
										</g>
										<g opacity="0.3">
										<rect x="6" y="31" width="1" height="1" fill="#323F5F"/>
										<rect x="2" y="31" width="1" height="1" fill="#323F5F"/>
										<rect x="10" y="31" width="1" height="1" fill="#323F5F"/>
										<rect x="14" y="31" width="1" height="1" fill="#323F5F"/>
										<rect x="18" y="31" width="1" height="1" fill="#323F5F"/>
										<rect x="22" y="31" width="1" height="1" fill="#323F5F"/>
										<rect x="26" y="31" width="1" height="1" fill="#323F5F"/>
										<rect x="30" y="31" width="1" height="1" fill="#323F5F"/>
										<rect x="34" y="31" width="1" height="1" fill="#323F5F"/>
										<rect x="38" y="31" width="1" height="1" fill="#323F5F"/>
										<rect x="42" y="31" width="1" height="1" fill="#323F5F"/>
										<rect x="46" y="31" width="1" height="1" fill="#323F5F"/>
										<rect x="50" y="31" width="1" height="1" fill="#323F5F"/>
										<rect opacity="0.3" x="54" y="31" width="1" height="1" fill="#323F5F"/>
										<rect x="58" y="31" width="1" height="1" fill="#323F5F"/>
										</g>
										<rect x="6" y="35" width="1" height="1" fill="#323F5F"/>
										<rect opacity="0.3" x="2" y="35" width="1" height="1" fill="#323F5F"/>
										<rect x="10" y="35" width="1" height="1" fill="#323F5F"/>
										<rect x="14" y="35" width="1" height="1" fill="#323F5F"/>
										<rect x="18" y="35" width="1" height="1" fill="#323F5F"/>
										<rect x="22" y="35" width="1" height="1" fill="#323F5F"/>
										<rect x="26" y="35" width="1" height="1" fill="#323F5F"/>
										<rect x="30" y="35" width="1" height="1" fill="#323F5F"/>
										<rect x="34" y="35" width="1" height="1" fill="#323F5F"/>
										<rect x="38" y="35" width="1" height="1" fill="#323F5F"/>
										<rect x="42" y="35" width="1" height="1" fill="#323F5F"/>
										<rect x="46" y="35" width="1" height="1" fill="#323F5F"/>
										<rect x="50" y="35" width="1" height="1" fill="#323F5F"/>
										<rect opacity="0.3" x="54" y="35" width="1" height="1" fill="#323F5F"/>
										<rect x="58" y="35" width="1" height="1" fill="#323F5F"/>
										<g opacity="0.1">
										<rect x="6" y="39" width="1" height="1" fill="#323F5F"/>
										<rect opacity="0.6" x="2" y="39" width="1" height="1" fill="#323F5F"/>
										<rect x="10" y="39" width="1" height="1" fill="#323F5F"/>
										<rect x="14" y="39" width="1" height="1" fill="#323F5F"/>
										<rect x="18" y="39" width="1" height="1" fill="#323F5F"/>
										<rect x="22" y="39" width="1" height="1" fill="#323F5F"/>
										<rect x="26" y="39" width="1" height="1" fill="#323F5F"/>
										<rect x="30" y="39" width="1" height="1" fill="#323F5F"/>
										<rect x="34" y="39" width="1" height="1" fill="#323F5F"/>
										<rect x="38" y="39" width="1" height="1" fill="#323F5F"/>
										<rect x="42" y="39" width="1" height="1" fill="#323F5F"/>
										<rect x="46" y="39" width="1" height="1" fill="#323F5F"/>
										<rect x="50" y="39" width="1" height="1" fill="#323F5F"/>
										<rect opacity="0.3" x="54" y="39" width="1" height="1" fill="#323F5F"/>
										<rect x="58" y="39" width="1" height="1" fill="#323F5F"/>
										</g>
										<rect opacity="0.3" x="6" y="43" width="1" height="1" fill="#323F5F"/>
										<rect opacity="0.3" x="2" y="43" width="1" height="1" fill="#323F5F"/>
										<rect opacity="0.3" x="10" y="43" width="1" height="1" fill="#323F5F"/>
										<rect opacity="0.3" x="14" y="43" width="1" height="1" fill="#323F5F"/>
										<rect opacity="0.1" x="18" y="43" width="1" height="1" fill="#323F5F"/>
										<rect opacity="0.1" x="22" y="43" width="1" height="1" fill="#323F5F"/>
										<rect opacity="0.1" x="26" y="43" width="1" height="1" fill="#323F5F"/>
										<rect opacity="0.1" x="30" y="43" width="1" height="1" fill="#323F5F"/>
										<rect opacity="0.1" x="34" y="43" width="1" height="1" fill="#323F5F"/>
										<rect opacity="0.1" x="38" y="43" width="1" height="1" fill="#323F5F"/>
										<rect opacity="0.1" x="42" y="43" width="1" height="1" fill="#323F5F"/>
										<rect opacity="0.1" x="46" y="43" width="1" height="1" fill="#323F5F"/>
										<rect opacity="0.1" x="50" y="43" width="1" height="1" fill="#323F5F"/>
										<rect opacity="0.1" x="54" y="43" width="1" height="1" fill="#323F5F"/>
										<rect x="58" y="43" width="1" height="1" fill="#323F5F"/>
										<rect x="6" y="47" width="1" height="1" fill="#323F5F"/>
										<rect x="2" y="47" width="1" height="1" fill="#323F5F"/>
										<rect opacity="0.6" x="10" y="47" width="1" height="1" fill="#323F5F"/>
										<rect x="14" y="47" width="1" height="1" fill="#323F5F"/>
										<rect opacity="0.3" x="18" y="47" width="1" height="1" fill="#323F5F"/>
										<rect opacity="0.3" x="22" y="47" width="1" height="1" fill="#323F5F"/>
										<rect opacity="0.3" x="26" y="47" width="1" height="1" fill="#323F5F"/>
										<rect opacity="0.3" x="30" y="47" width="1" height="1" fill="#323F5F"/>
										<rect x="34" y="47" width="1" height="1" fill="#323F5F"/>
										<rect x="38" y="47" width="1" height="1" fill="#323F5F"/>
										<rect opacity="0.6" x="42" y="47" width="1" height="1" fill="#323F5F"/>
										<rect x="46" y="47" width="1" height="1" fill="#323F5F"/>
										<rect opacity="0.6" x="50" y="47" width="1" height="1" fill="#323F5F"/>
										<rect x="54" y="47" width="1" height="1" fill="#323F5F"/>
										<rect x="58" y="47" width="1" height="1" fill="#323F5F"/>
										<rect opacity="0.3" x="6" y="51" width="1" height="1" fill="#323F5F"/>
										<rect x="2" y="51" width="1" height="1" fill="#323F5F"/>
										<rect x="10" y="51" width="1" height="1" fill="#323F5F"/>
										<rect x="14" y="51" width="1" height="1" fill="#323F5F"/>
										<rect opacity="0.6" x="18" y="51" width="1" height="1" fill="#323F5F"/>
										<rect opacity="0.3" x="22" y="51" width="1" height="1" fill="#323F5F"/>
										<rect x="26" y="51" width="1" height="1" fill="#323F5F"/>
										<rect opacity="0.3" x="30" y="51" width="1" height="1" fill="#323F5F"/>
										<rect x="34" y="51" width="1" height="1" fill="#323F5F"/>
										<rect opacity="0.3" x="38" y="51" width="1" height="1" fill="#323F5F"/>
										<rect x="42" y="51" width="1" height="1" fill="#323F5F"/>
										<rect x="46" y="51" width="1" height="1" fill="#323F5F"/>
										<rect opacity="0.6" x="50" y="51" width="1" height="1" fill="#323F5F"/>
										<rect x="54" y="51" width="1" height="1" fill="#323F5F"/>
										<rect x="58" y="51" width="1" height="1" fill="#323F5F"/>
										<rect x="6" y="55" width="1" height="1" fill="#323F5F"/>
										<rect x="2" y="55" width="1" height="1" fill="#323F5F"/>
										<rect x="10" y="55" width="1" height="1" fill="#323F5F"/>
										<rect x="14" y="55" width="1" height="1" fill="#323F5F"/>
										<rect x="18" y="55" width="1" height="1" fill="#323F5F"/>
										<rect x="22" y="55" width="1" height="1" fill="#323F5F"/>
										<rect x="26" y="55" width="1" height="1" fill="#323F5F"/>
										<rect x="30" y="55" width="1" height="1" fill="#323F5F"/>
										<rect opacity="0.3" x="34" y="55" width="1" height="1" fill="#323F5F"/>
										<rect x="38" y="55" width="1" height="1" fill="#323F5F"/>
										<rect x="42" y="55" width="1" height="1" fill="#323F5F"/>
										<rect x="46" y="55" width="1" height="1" fill="#323F5F"/>
										<rect x="50" y="55" width="1" height="1" fill="#323F5F"/>
										<rect x="54" y="55" width="1" height="1" fill="#323F5F"/>
										<rect x="58" y="55" width="1" height="1" fill="#323F5F"/>
										<rect x="6" y="59" width="1" height="1" fill="#323F5F"/>
										<rect x="2" y="59" width="1" height="1" fill="#323F5F"/>
										<rect x="10" y="59" width="1" height="1" fill="#323F5F"/>
										<rect x="14" y="59" width="1" height="1" fill="#323F5F"/>
										<rect x="18" y="59" width="1" height="1" fill="#323F5F"/>
										<rect x="22" y="59" width="1" height="1" fill="#323F5F"/>
										<rect x="26" y="59" width="1" height="1" fill="#323F5F"/>
										<rect x="30" y="59" width="1" height="1" fill="#323F5F"/>
										<rect x="34" y="59" width="1" height="1" fill="#323F5F"/>
										<rect x="38" y="59" width="1" height="1" fill="#323F5F"/>
										<rect x="42" y="59" width="1" height="1" fill="#323F5F"/>
										<rect x="46" y="59" width="1" height="1" fill="#323F5F"/>
										<rect x="50" y="59" width="1" height="1" fill="#323F5F"/>
										<rect x="54" y="59" width="1" height="1" fill="#323F5F"/>
										<rect x="58" y="59" width="1" height="1" fill="#323F5F"/>
										</g>
										<rect opacity="0.7" width="60" height="60" rx="12" fill="url(#paint1_radial_2694_8372)"/>
										<g clip-path="url(#clip0_2694_8372)">
										<g filter="url(#filter1_b_2694_8372)">
										<path d="M11.8205 10.2852H48.1566C48.8897 10.2852 49.4854 10.8925 49.4854 11.6413V49.5897C49.4854 50.9214 48.4258 52.0028 47.1209 52.0028H11.7158C11.0405 52.0028 10.4922 51.4432 10.4922 50.754V11.6408C10.4922 10.8925 11.0873 10.2852 11.8205 10.2852Z" fill="url(#paint2_linear_2694_8372)"/>
										<path d="M11.8205 10.5352H48.1566C48.747 10.5352 49.2354 11.0259 49.2354 11.6413V49.5897C49.2354 50.7881 48.283 51.7528 47.1209 51.7528H11.7158C11.1833 51.7528 10.7422 51.31 10.7422 50.754V11.6408C10.7422 11.0258 11.2302 10.5352 11.8205 10.5352Z" stroke="url(#paint3_linear_2694_8372)" stroke-width="0.5"/>
										</g>
										<path d="M25.0312 27.9883C25.0885 27.8945 25.1823 27.8112 25.3125 27.7383C25.5625 27.8841 25.5521 28.0716 25.2812 28.3008C25.4427 28.4154 25.5156 28.582 25.5 28.8008C25.3073 28.8633 25.151 28.8008 25.0312 28.6133C24.8802 28.7747 24.7031 28.8372 24.5 28.8008C24.4792 28.6133 24.5417 28.4362 24.6875 28.2695C24.5312 28.1497 24.4792 27.9935 24.5312 27.8008C24.6979 27.7799 24.8646 27.8424 25.0312 27.9883ZM25.9375 28.332C25.75 28.1497 25.7188 27.9622 25.8438 27.7695C25.9896 27.7799 26.1146 27.8529 26.2188 27.9883C26.3125 27.9518 26.3958 27.8789 26.4688 27.7695C26.7708 27.806 26.8229 27.9414 26.625 28.1758L26.5312 28.332C26.875 28.6133 26.8646 28.7904 26.5 28.8633C26.4479 28.7799 26.3542 28.6966 26.2188 28.6133C26.099 28.8164 25.9323 28.8685 25.7188 28.7695C25.724 28.6185 25.7969 28.4727 25.9375 28.332ZM27.4375 28.0195L27.75 27.7695C28.0208 27.8841 28.0208 28.082 27.75 28.3633C27.8854 28.4466 27.9688 28.582 28 28.7695C27.8177 28.9154 27.651 28.8737 27.5 28.6445C27.349 28.806 27.1719 28.8685 26.9688 28.832C26.9479 28.6445 27.0104 28.4674 27.1562 28.3008C26.9948 28.181 26.9427 28.0247 27 27.832C27.1771 27.7956 27.3229 27.8581 27.4375 28.0195ZM23.4688 28.957C23.2656 28.7747 23.2344 28.5872 23.375 28.3945C23.5208 28.4258 23.6458 28.5091 23.75 28.6445C23.8958 28.431 24.0729 28.3789 24.2812 28.4883C24.276 28.6497 24.2031 28.7852 24.0625 28.8945C24.3646 29.2435 24.3438 29.4414 24 29.4883L23.9062 29.3633L23.75 29.2383C23.6667 29.3789 23.5312 29.4518 23.3438 29.457C23.1979 29.2747 23.2396 29.1081 23.4688 28.957ZM28.4062 28.957C28.2188 28.7904 28.1771 28.6029 28.2812 28.3945C28.4271 28.4049 28.5521 28.4779 28.6562 28.6133C28.75 28.5768 28.8333 28.5039 28.9062 28.3945C29.1979 28.4154 29.2604 28.5508 29.0938 28.8008L29 28.957C29.1667 29.056 29.2292 29.2018 29.1875 29.3945C29.026 29.5091 28.8594 29.457 28.6875 29.2383C28.5417 29.4518 28.3646 29.4935 28.1562 29.3633C28.1823 29.2018 28.2656 29.0664 28.4062 28.957ZM22.8438 30.1133C22.651 29.9935 22.6094 29.8268 22.7188 29.6133C22.875 29.6237 23.0104 29.6966 23.125 29.832C23.2656 29.6445 23.4427 29.6029 23.6562 29.707C23.651 29.8685 23.5781 30.0039 23.4375 30.1133C23.7812 30.6549 23.7292 30.8112 23.2812 30.582L23.0938 30.457C22.8802 30.7643 22.7135 30.7539 22.5938 30.4258C22.6823 30.3529 22.7656 30.2487 22.8438 30.1133ZM29.3438 29.8945C29.4167 29.8008 29.5104 29.7174 29.625 29.6445C29.8698 29.7487 29.8698 29.9466 29.625 30.2383C29.7656 30.332 29.8385 30.4779 29.8438 30.6758C29.6562 30.7799 29.4896 30.7279 29.3438 30.5195C29.151 30.7227 28.9635 30.7643 28.7812 30.6445C28.8073 30.4831 28.8906 30.3268 29.0312 30.1758C28.8594 30.0612 28.7969 29.9049 28.8438 29.707C29.0208 29.6758 29.1875 29.7383 29.3438 29.8945ZM22.8438 31.3633C22.5885 31.1706 22.5677 30.9831 22.7812 30.8008C22.8958 30.8477 23 30.931 23.0938 31.0508C23.3646 30.7591 23.5521 30.7695 23.6562 31.082L23.5 31.2383L23.4062 31.3633C23.5573 31.457 23.6302 31.6029 23.625 31.8008C23.474 31.9362 23.3073 31.8945 23.125 31.6758C22.9844 31.8633 22.8073 31.9049 22.5938 31.8008C22.6198 31.6289 22.7031 31.4831 22.8438 31.3633ZM29.3125 31.082C29.3698 31.0091 29.4531 30.9258 29.5625 30.832C29.849 30.9518 29.849 31.1393 29.5625 31.3945C29.7188 31.5091 29.8021 31.6654 29.8125 31.8633C29.625 31.9674 29.4583 31.9154 29.3125 31.707C29.1198 31.9102 28.9323 31.9518 28.75 31.832C28.776 31.6706 28.8594 31.5143 29 31.3633C28.8229 31.2591 28.7604 31.1029 28.8125 30.8945C28.9896 30.8685 29.1562 30.931 29.3125 31.082ZM22.8438 32.6133C22.5885 32.3997 22.5781 32.2122 22.8125 32.0508C22.9271 32.1029 23.0312 32.1862 23.125 32.3008C23.2344 32.1393 23.3802 32.0768 23.5625 32.1133C23.6719 32.2487 23.651 32.3737 23.5 32.4883L23.4375 32.6445C23.5573 32.7227 23.6302 32.8372 23.6562 32.9883C23.5156 33.2174 23.3385 33.1862 23.125 32.8945C23.0104 33.0924 22.8438 33.1549 22.625 33.082C22.6094 32.9049 22.6823 32.7487 22.8438 32.6133ZM29.0312 32.6445C28.7917 32.5039 28.7396 32.3268 28.875 32.1133C29.0365 32.1237 29.1719 32.207 29.2812 32.3633C29.4167 32.1862 29.5938 32.1237 29.8125 32.1758C29.8438 32.3581 29.7708 32.5143 29.5938 32.6445C29.9219 33.1081 29.8802 33.2643 29.4688 33.1133L29.2812 32.9883C29.2031 33.1185 29.0781 33.181 28.9062 33.1758C28.7552 33.0091 28.7969 32.832 29.0312 32.6445ZM22.8125 33.8633C22.6146 33.6758 22.5833 33.4883 22.7188 33.3008C22.8646 33.3268 22.9896 33.4102 23.0938 33.5508C23.4062 33.2227 23.5833 33.2435 23.625 33.6133L23.5 33.707L23.4062 33.8633C23.5469 33.9518 23.6198 34.0872 23.625 34.2695C23.4583 34.4258 23.2812 34.3841 23.0938 34.1445C22.974 34.3529 22.8073 34.4049 22.5938 34.3008C22.599 34.1393 22.6719 33.9935 22.8125 33.8633ZM28.9688 33.8945C28.724 33.681 28.7135 33.4935 28.9375 33.332C29.0521 33.3841 29.1562 33.4674 29.25 33.582C29.3646 33.4154 29.5104 33.3529 29.6875 33.3945C29.7969 33.5299 29.776 33.6549 29.625 33.7695L29.5625 33.9258C29.7031 34.0039 29.776 34.1289 29.7812 34.3008C29.6198 34.4779 29.4427 34.4362 29.25 34.1758C29.1354 34.3737 28.9688 34.4362 28.75 34.3633C28.7396 34.1914 28.8125 34.0352 28.9688 33.8945ZM29.25 34.8008L29.5625 34.5508C29.8333 34.6654 29.8333 34.8633 29.5625 35.1445C29.6979 35.2279 29.7812 35.3633 29.8125 35.5508C29.651 35.6862 29.4635 35.6445 29.25 35.4258C29.1458 35.6029 28.9896 35.6654 28.7812 35.6133C28.7604 35.4258 28.8229 35.2487 28.9688 35.082C28.8073 34.9622 28.7552 34.806 28.8125 34.6133C28.9896 34.5768 29.1354 34.6393 29.25 34.8008ZM22.8125 35.1445C22.625 34.9518 22.5938 34.7643 22.7188 34.582C22.8646 34.5924 22.9896 34.6654 23.0938 34.8008C23.1875 34.7643 23.2708 34.6914 23.3438 34.582C23.651 34.6133 23.7031 34.7487 23.5 34.9883L23.4062 35.1445C23.7396 35.4049 23.7292 35.582 23.375 35.6758C23.3125 35.5768 23.2188 35.4935 23.0938 35.4258C22.9896 35.6081 22.8333 35.6706 22.625 35.6133C22.599 35.4362 22.6615 35.2799 22.8125 35.1445ZM22.8438 36.3633C22.6458 36.181 22.6146 35.9935 22.75 35.8008C22.8958 35.8112 23.0208 35.8841 23.125 36.0195C23.2188 35.9831 23.3021 35.9102 23.375 35.8008C23.6771 35.8424 23.7292 35.9779 23.5312 36.207L23.4375 36.3633C23.5781 36.4466 23.651 36.582 23.6562 36.7695C23.4896 36.9206 23.3125 36.8789 23.125 36.6445C23.0104 36.8424 22.8438 36.8945 22.625 36.8008C22.6354 36.6341 22.7083 36.4883 22.8438 36.3633ZM29.0312 36.332C28.7969 36.1862 28.7656 36.0091 28.9375 35.8008C29.0677 35.8268 29.1823 35.8997 29.2812 36.0195C29.375 35.9831 29.4688 35.9102 29.5625 35.8008C29.849 35.8633 29.8906 36.0091 29.6875 36.2383L29.5938 36.3633C29.7448 36.457 29.8177 36.6029 29.8125 36.8008C29.6302 36.9206 29.4635 36.8685 29.3125 36.6445C29.1875 36.8529 29.0104 36.9049 28.7812 36.8008C28.8073 36.6289 28.8906 36.4727 29.0312 36.332ZM23.4688 37.5508C23.2448 37.4154 23.2031 37.2383 23.3438 37.0195C23.4896 37.0299 23.6146 37.1029 23.7188 37.2383C23.8125 37.2018 23.8958 37.1289 23.9688 37.0195C24.2708 37.056 24.3229 37.1914 24.125 37.4258L24.0312 37.582C24.1823 37.6758 24.2552 37.8216 24.25 38.0195C24.0781 38.1341 23.901 38.082 23.7188 37.8633C23.599 38.0664 23.4323 38.1185 23.2188 38.0195C23.2344 37.8424 23.3177 37.6862 23.4688 37.5508ZM28.4062 37.5508C28.1719 37.3945 28.1406 37.2174 28.3125 37.0195C28.4427 37.0456 28.5573 37.1185 28.6562 37.2383C28.75 37.2018 28.8438 37.1289 28.9375 37.0195C29.2344 37.082 29.276 37.2279 29.0625 37.457L28.9688 37.582C29.099 37.6654 29.1823 37.7904 29.2188 37.957C29.0885 38.1602 28.9115 38.1289 28.6875 37.8633C28.5729 38.0456 28.4062 38.1081 28.1875 38.0508C28.1615 37.8737 28.2344 37.707 28.4062 37.5508ZM24.5938 38.207C24.4115 37.9987 24.3802 37.8112 24.5 37.6445C24.6458 37.6549 24.7708 37.7279 24.875 37.8633C24.9688 37.8268 25.0521 37.7539 25.125 37.6445C25.4323 37.6758 25.4844 37.8112 25.2812 38.0508L25.2188 38.207C25.5156 38.4779 25.4948 38.6549 25.1562 38.7383C25.0938 38.6393 25 38.556 24.875 38.4883C24.7708 38.6706 24.6146 38.7331 24.4062 38.6758C24.375 38.5039 24.4375 38.3477 24.5938 38.207ZM25.8438 38.207C25.6094 37.9727 25.599 37.7852 25.8125 37.6445C25.9271 37.6966 26.0312 37.7799 26.125 37.8945C26.2448 37.7227 26.401 37.6602 26.5938 37.707C26.6875 37.8581 26.6562 37.9935 26.5 38.1133L26.4375 38.207C26.5833 38.3112 26.6562 38.457 26.6562 38.6445C26.4844 38.7799 26.3073 38.7279 26.125 38.4883C26.0312 38.6706 25.875 38.7435 25.6562 38.707C25.6094 38.5299 25.6719 38.3633 25.8438 38.207ZM27.1562 38.1758C26.9688 38.0352 26.9271 37.8581 27.0312 37.6445C27.1771 37.6549 27.3021 37.7279 27.4062 37.8633C27.5729 37.6758 27.7604 37.6341 27.9688 37.7383C27.9635 37.8997 27.8906 38.0352 27.75 38.1445C28.0469 38.4831 28.026 38.681 27.6875 38.7383L27.5938 38.6133L27.4062 38.4883C27.3281 38.6393 27.2031 38.7122 27.0312 38.707C26.8802 38.5404 26.9219 38.3633 27.1562 38.1758ZM31.2188 37.0195C30.9583 36.7695 30.9375 36.5716 31.1562 36.4258C31.276 36.4831 31.3906 36.5768 31.5 36.707C31.6354 36.4987 31.8125 36.4466 32.0312 36.5508C32.0052 36.7227 31.9219 36.8685 31.7812 36.9883C32.1615 37.4935 32.1198 37.6393 31.6562 37.4258L31.5 37.3008C31.4219 37.4414 31.2969 37.5143 31.125 37.5195C30.9688 37.3477 31 37.181 31.2188 37.0195ZM32.4062 36.957C32.2135 36.8372 32.1719 36.6706 32.2812 36.457C32.4427 36.4622 32.5781 36.5352 32.6875 36.6758C32.8281 36.4883 33.0052 36.4466 33.2188 36.5508C33.2031 36.7122 33.1302 36.8477 33 36.957C33.3385 37.4987 33.2865 37.6549 32.8438 37.4258L32.6562 37.3008C32.4375 37.5977 32.2708 37.5872 32.1562 37.2695C32.2448 37.1966 32.3281 37.0924 32.4062 36.957ZM31.1875 38.207C30.9583 38.0299 30.9271 37.8424 31.0938 37.6445C31.2344 37.6862 31.3698 37.7695 31.5 37.8945C31.599 37.7539 31.7448 37.681 31.9375 37.6758C32.0417 37.8633 31.9896 38.0299 31.7812 38.1758C31.9635 38.3424 32.0052 38.5299 31.9062 38.7383C31.75 38.7383 31.625 38.6654 31.5312 38.5195C31.4115 38.6341 31.2552 38.707 31.0625 38.7383C30.9583 38.5508 31 38.3737 31.1875 38.207ZM32.4062 38.1758C32.1562 38.0299 32.125 37.8529 32.3125 37.6445C32.4635 37.7018 32.599 37.7956 32.7188 37.9258C32.8125 37.7435 32.9688 37.6706 33.1875 37.707C33.2344 37.8893 33.1719 38.0456 33 38.1758C33.2917 38.5872 33.25 38.7539 32.875 38.6758L32.7188 38.5195C32.6406 38.5664 32.5677 38.6393 32.5 38.7383C32.1458 38.7174 32.1146 38.5299 32.4062 38.1758ZM36.4375 27.9883L36.75 27.7383C37 27.8581 37 28.056 36.75 28.332C36.901 28.431 36.974 28.5768 36.9688 28.7695C36.7812 28.8685 36.6146 28.8164 36.4688 28.6133C36.349 28.7331 36.1927 28.806 36 28.832C35.8958 28.6445 35.9479 28.4779 36.1562 28.332C35.974 28.1654 35.9323 27.9779 36.0312 27.7695C36.1927 27.7747 36.3281 27.8477 36.4375 27.9883ZM35.2812 29.2383C35.3385 29.1497 35.4219 29.0664 35.5312 28.9883C35.8229 29.0977 35.8229 29.2852 35.5312 29.5508C35.6562 29.6445 35.7396 29.7695 35.7812 29.9258C35.6354 30.1549 35.4688 30.1341 35.2812 29.8633C35.1146 30.0508 34.9271 30.0924 34.7188 29.9883C34.7448 29.8164 34.8281 29.6602 34.9688 29.5195C34.8177 29.4258 34.7448 29.2799 34.75 29.082C34.9427 29.0143 35.1198 29.0664 35.2812 29.2383ZM36.1875 29.5195C35.9896 29.3997 35.9479 29.2331 36.0625 29.0195C36.2083 29.0404 36.3438 29.1133 36.4688 29.2383C36.6094 29.0508 36.7865 29.0091 37 29.1133C36.9948 29.2747 36.9219 29.4102 36.7812 29.5195C37.0781 29.8581 37.0573 30.056 36.7188 30.1133L36.625 29.9883L36.4375 29.8633C36.2083 30.1862 36.0417 30.1758 35.9375 29.832C36.026 29.7591 36.1094 29.6549 36.1875 29.5195ZM34.3125 30.7695C34.1094 30.6237 34.0781 30.4466 34.2188 30.2383C34.3646 30.2487 34.4896 30.3216 34.5938 30.457C34.724 30.3164 34.8906 30.2539 35.0938 30.2695C35.1406 30.457 35.0781 30.6133 34.9062 30.7383C35.2552 31.2331 35.2135 31.3997 34.7812 31.2383L34.625 31.082C34.5052 31.2539 34.349 31.3164 34.1562 31.2695C34.0625 31.0977 34.1146 30.931 34.3125 30.7695ZM36.1562 30.8008C35.9479 30.6081 35.9062 30.4206 36.0312 30.2383C36.1771 30.2487 36.3021 30.3216 36.4062 30.457C36.5 30.4206 36.5833 30.3477 36.6562 30.2383C36.9427 30.2591 37.0052 30.3945 36.8438 30.6445L36.75 30.8008C37.0573 31.082 37.0365 31.2591 36.6875 31.332C36.625 31.2331 36.5312 31.1497 36.4062 31.082C36.3021 31.2643 36.1458 31.3268 35.9375 31.2695C35.9062 31.082 35.9792 30.9258 36.1562 30.8008ZM36.1562 31.957C35.9583 31.8424 35.9062 31.6758 36 31.457C36.1719 31.4674 36.3177 31.5508 36.4375 31.707C36.5833 31.5143 36.7604 31.4518 36.9688 31.5195C36.9844 31.6966 36.9115 31.8529 36.75 31.9883C37.0833 32.4883 37.0312 32.6341 36.5938 32.4258L36.4375 32.3008C36.1719 32.6289 36.0052 32.6081 35.9375 32.2383C36.0312 32.1706 36.1042 32.0768 36.1562 31.957ZM36.1562 33.3008C35.9479 33.0508 35.9271 32.8529 36.0938 32.707C36.224 32.7435 36.3385 32.8268 36.4375 32.957C36.5573 32.7852 36.7135 32.7227 36.9062 32.7695C36.9896 32.8893 36.9688 33.0039 36.8438 33.1133L36.75 33.2695C36.901 33.3633 36.974 33.5091 36.9688 33.707C36.7865 33.8268 36.6094 33.7747 36.4375 33.5508C36.3177 33.7591 36.151 33.8112 35.9375 33.707C35.9427 33.5404 36.0156 33.4049 36.1562 33.3008ZM36.1875 34.457C35.9583 34.2956 35.9271 34.1185 36.0938 33.9258C36.224 33.9518 36.3385 34.0247 36.4375 34.1445C36.5312 34.1081 36.625 34.0352 36.7188 33.9258C37.0156 33.9883 37.0573 34.1341 36.8438 34.3633L36.7812 34.5195C36.9427 34.6081 37.0052 34.7435 36.9688 34.9258C36.8021 35.0404 36.6354 34.9883 36.4688 34.7695C36.3542 34.9518 36.1875 35.0143 35.9688 34.957C35.9427 34.7799 36.0156 34.6133 36.1875 34.457ZM36.1562 35.6758C35.9583 35.556 35.9167 35.3893 36.0312 35.1758C36.1771 35.1862 36.3021 35.2591 36.4062 35.3945C36.5729 35.207 36.7604 35.1654 36.9688 35.2695C36.9635 35.431 36.8906 35.5664 36.75 35.6758C37.0885 36.2174 37.0365 36.3737 36.5938 36.1445L36.4062 36.0195C36.1771 36.3424 36.0104 36.332 35.9062 35.9883C35.9948 35.9154 36.0781 35.8112 36.1562 35.6758ZM36.5 36.6445C36.5573 36.5716 36.6406 36.4883 36.75 36.3945C37.0417 36.5039 37.0417 36.6914 36.75 36.957C36.9062 37.0664 36.9896 37.2227 37 37.4258C36.8073 37.5247 36.6406 37.4727 36.5 37.2695C36.3333 37.457 36.1458 37.4987 35.9375 37.3945C35.9635 37.2331 36.0469 37.0768 36.1875 36.9258C36.0104 36.8216 35.9479 36.6654 36 36.457C36.1771 36.4258 36.3438 36.4883 36.5 36.6445ZM34.8438 38.1445C34.6406 38.0091 34.6094 37.8424 34.75 37.6445C34.8958 37.6549 35.0208 37.7279 35.125 37.8633C35.2188 37.8268 35.3021 37.7539 35.375 37.6445C35.6771 37.681 35.7292 37.8164 35.5312 38.0508L35.4375 38.207C35.5781 38.2904 35.651 38.4258 35.6562 38.6133C35.5052 38.7591 35.3281 38.7174 35.125 38.4883C35.0104 38.6862 34.8438 38.7383 34.625 38.6445C34.6406 38.4674 34.7135 38.3008 34.8438 38.1445ZM36.1875 37.6758C36.3229 37.9049 36.4792 37.8945 36.6562 37.6445C36.9479 37.7331 36.9583 37.931 36.6875 38.2383C36.8177 38.3216 36.901 38.457 36.9375 38.6445C36.7396 38.7852 36.5625 38.7331 36.4062 38.4883C36.2708 38.681 36.0938 38.7435 35.875 38.6758C35.8698 38.5039 35.9427 38.3477 36.0938 38.207C35.9062 38.056 35.8646 37.8789 35.9688 37.6758H36.1875ZM37.4062 38.207C37.1979 38.0195 37.1562 37.832 37.2812 37.6445C37.4271 37.6549 37.5521 37.7279 37.6562 37.8633C37.75 37.8268 37.8333 37.7539 37.9062 37.6445C38.1979 37.6706 38.2604 37.806 38.0938 38.0508L38 38.207C38.3073 38.4883 38.2865 38.6654 37.9375 38.7383C37.875 38.6393 37.7812 38.556 37.6562 38.4883C37.5677 38.681 37.4115 38.7435 37.1875 38.6758C37.1562 38.4935 37.2292 38.3372 37.4062 38.207Z" fill="url(#paint4_linear_2694_8372)"/>
										<g clip-path="url(#clip1_2694_8372)">
										<path d="M14.5 51.5001C14.5 51.5001 16.2823 51.5001 17.0015 51.5001H21.6383C29.8821 51.7073 44.6844 51.0472 49.4958 44.4077L45.7188 39.1875C37.7416 49.1782 26.1544 50.8133 14.5 51.5001Z" fill="#1B2032"/>
										</g>
										<path d="M49.4884 44.3828V50.5534C49.4884 51.3532 48.8532 52.001 48.0701 52.001H23.7422C32.0441 51.7257 45.3395 50.3292 49.4884 44.3828Z" fill="url(#paint5_linear_2694_8372)"/>
										<path d="M49.4884 44.3828V50.5534C49.4884 51.3532 48.8532 52.001 48.0701 52.001H23.7422C32.0441 51.7257 45.3395 50.3292 49.4884 44.3828Z" fill="url(#paint6_linear_2694_8372)"/>
										<path d="M11.5377 10.2852H48.4393C49.0163 10.2852 49.4849 10.7634 49.4849 11.3522V20.7708H10.4922V11.3527C10.4922 10.7639 10.9608 10.2857 11.5377 10.2857V10.2852Z" fill="#21273C"/>
										<path d="M19.125 12.0757C19.125 12.4217 19.3999 12.7023 19.7389 12.7023C20.0779 12.7023 20.3528 12.4217 20.3528 12.0757C20.3528 11.7298 20.0779 11.4492 19.7389 11.4492C19.3999 11.4492 19.125 11.7298 19.125 12.0757Z" fill="#0A0F20"/>
										<mask id="mask1_2694_8372" style="mask-type:luminance" maskUnits="userSpaceOnUse" x="17" y="8" width="6" height="5">
										<path d="M18.5372 10.284L17.3359 10.2834V8H22.1591V12.8873H18.4971L18.5372 10.284Z" fill="white"/>
										</mask>
										<g mask="url(#mask1_2694_8372)">
										<path d="M19.7516 12.0714C20.7191 12.0714 21.5032 11.2711 21.5032 10.2837C21.5032 9.29638 20.7191 8.49609 19.7516 8.49609C18.7842 8.49609 18 9.29638 18 10.2837" stroke="#38405F" stroke-width="0.5" stroke-miterlimit="10" stroke-linecap="round"/>
										</g>
										<path d="M14.125 12.0757C14.125 12.4217 14.3999 12.7023 14.7389 12.7023C15.0779 12.7023 15.3528 12.4217 15.3528 12.0757C15.3528 11.7298 15.0779 11.4492 14.7389 11.4492C14.3999 11.4492 14.125 11.7298 14.125 12.0757Z" fill="#0A0F20"/>
										<mask id="mask2_2694_8372" style="mask-type:luminance" maskUnits="userSpaceOnUse" x="12" y="8" width="6" height="5">
										<path d="M13.5372 10.284L12.3359 10.2834V8H17.1591V12.8873H13.4971L13.5372 10.284Z" fill="white"/>
										</mask>
										<g mask="url(#mask2_2694_8372)">
										<path d="M14.7516 12.0714C15.7191 12.0714 16.5032 11.2711 16.5032 10.2837C16.5032 9.29638 15.7191 8.49609 14.7516 8.49609C13.7842 8.49609 13 9.29638 13 10.2837" stroke="#38405F" stroke-width="0.5" stroke-miterlimit="10" stroke-linecap="round"/>
										</g>
										<path d="M24.125 12.0757C24.125 12.4217 24.3999 12.7023 24.7389 12.7023C25.0779 12.7023 25.3528 12.4217 25.3528 12.0757C25.3528 11.7298 25.0779 11.4492 24.7389 11.4492C24.3999 11.4492 24.125 11.7298 24.125 12.0757Z" fill="#0A0F20"/>
										<mask id="mask3_2694_8372" style="mask-type:luminance" maskUnits="userSpaceOnUse" x="22" y="8" width="6" height="5">
										<path d="M23.5372 10.284L22.3359 10.2834V8H27.1591V12.8873H23.4971L23.5372 10.284Z" fill="white"/>
										</mask>
										<g mask="url(#mask3_2694_8372)">
										<path d="M24.7516 12.0714C25.7191 12.0714 26.5032 11.2711 26.5032 10.2837C26.5032 9.29638 25.7191 8.49609 24.7516 8.49609C23.7842 8.49609 23 9.29638 23 10.2837" stroke="#38405F" stroke-width="0.5" stroke-miterlimit="10" stroke-linecap="round"/>
										</g>
										<path d="M29.125 12.0757C29.125 12.4217 29.3999 12.7023 29.7389 12.7023C30.0779 12.7023 30.3528 12.4217 30.3528 12.0757C30.3528 11.7298 30.0779 11.4492 29.7389 11.4492C29.3999 11.4492 29.125 11.7298 29.125 12.0757Z" fill="#0A0F20"/>
										<mask id="mask4_2694_8372" style="mask-type:luminance" maskUnits="userSpaceOnUse" x="27" y="8" width="6" height="5">
										<path d="M28.5372 10.284L27.3359 10.2834V8H32.1591V12.8873H28.4971L28.5372 10.284Z" fill="white"/>
										</mask>
										<g mask="url(#mask4_2694_8372)">
										<path d="M29.7516 12.0714C30.7191 12.0714 31.5032 11.2711 31.5032 10.2837C31.5032 9.29638 30.7191 8.49609 29.7516 8.49609C28.7842 8.49609 28 9.29638 28 10.2837" stroke="#38405F" stroke-width="0.5" stroke-miterlimit="10" stroke-linecap="round"/>
										</g>
										<path d="M39.125 12.0757C39.125 12.4217 39.3999 12.7023 39.7389 12.7023C40.0779 12.7023 40.3528 12.4217 40.3528 12.0757C40.3528 11.7298 40.0779 11.4492 39.7389 11.4492C39.3999 11.4492 39.125 11.7298 39.125 12.0757Z" fill="#0A0F20"/>
										<mask id="mask5_2694_8372" style="mask-type:luminance" maskUnits="userSpaceOnUse" x="37" y="8" width="6" height="5">
										<path d="M38.5372 10.284L37.3359 10.2834V8H42.1591V12.8873H38.4971L38.5372 10.284Z" fill="white"/>
										</mask>
										<g mask="url(#mask5_2694_8372)">
										<path d="M39.7516 12.0714C40.7191 12.0714 41.5032 11.2711 41.5032 10.2837C41.5032 9.29638 40.7191 8.49609 39.7516 8.49609C38.7842 8.49609 38 9.29638 38 10.2837" stroke="#38405F" stroke-width="0.5" stroke-miterlimit="10" stroke-linecap="round"/>
										</g>
										<path d="M45.125 12.0757C45.125 12.4217 45.3999 12.7023 45.7389 12.7023C46.0779 12.7023 46.3528 12.4217 46.3528 12.0757C46.3528 11.7298 46.0779 11.4492 45.7389 11.4492C45.3999 11.4492 45.125 11.7298 45.125 12.0757Z" fill="#0A0F20"/>
										<mask id="mask6_2694_8372" style="mask-type:luminance" maskUnits="userSpaceOnUse" x="43" y="8" width="6" height="5">
										<path d="M44.5372 10.284L43.3359 10.2834V8H48.1591V12.8873H44.4971L44.5372 10.284Z" fill="white"/>
										</mask>
										<g mask="url(#mask6_2694_8372)">
										<path d="M45.7516 12.0714C46.7191 12.0714 47.5032 11.2711 47.5032 10.2837C47.5032 9.29638 46.7191 8.49609 45.7516 8.49609C44.7842 8.49609 44 9.29638 44 10.2837" stroke="#38405F" stroke-width="0.5" stroke-miterlimit="10" stroke-linecap="round"/>
										</g>
										<path d="M34.125 12.0757C34.125 12.4217 34.3999 12.7023 34.7389 12.7023C35.0779 12.7023 35.3528 12.4217 35.3528 12.0757C35.3528 11.7298 35.0779 11.4492 34.7389 11.4492C34.3999 11.4492 34.125 11.7298 34.125 12.0757Z" fill="#0A0F20"/>
										<mask id="mask7_2694_8372" style="mask-type:luminance" maskUnits="userSpaceOnUse" x="32" y="8" width="6" height="5">
										<path d="M33.5372 10.284L32.3359 10.2834V8H37.1591V12.8873H33.4971L33.5372 10.284Z" fill="white"/>
										</mask>
										<g mask="url(#mask7_2694_8372)">
										<path d="M34.7516 12.0714C35.7191 12.0714 36.5032 11.2711 36.5032 10.2837C36.5032 9.29638 35.7191 8.49609 34.7516 8.49609C33.7842 8.49609 33 9.29638 33 10.2837" stroke="#38405F" stroke-width="0.5" stroke-miterlimit="10" stroke-linecap="round"/>
										</g>
										</g>
										<g filter="url(#filter2_b_2694_8372)">
										<rect x="0.25" y="0.25" width="59.5" height="59.5" rx="11.75" stroke="url(#paint7_linear_2694_8372)" stroke-width="0.5"/>
										</g>
										<defs>
										<filter id="filter0_b_2694_8372" x="-110" y="-110" width="280" height="280" filterUnits="userSpaceOnUse" color-interpolation-filters="sRGB">
										<feFlood flood-opacity="0" result="BackgroundImageFix"/>
										<feGaussianBlur in="BackgroundImageFix" stdDeviation="55"/>
										<feComposite in2="SourceAlpha" operator="in" result="effect1_backgroundBlur_2694_8372"/>
										<feBlend mode="normal" in="SourceGraphic" in2="effect1_backgroundBlur_2694_8372" result="shape"/>
										</filter>
										<filter id="filter1_b_2694_8372" x="-99.5078" y="-99.7148" width="258.992" height="261.719" filterUnits="userSpaceOnUse" color-interpolation-filters="sRGB">
										<feFlood flood-opacity="0" result="BackgroundImageFix"/>
										<feGaussianBlur in="BackgroundImageFix" stdDeviation="55"/>
										<feComposite in2="SourceAlpha" operator="in" result="effect1_backgroundBlur_2694_8372"/>
										<feBlend mode="normal" in="SourceGraphic" in2="effect1_backgroundBlur_2694_8372" result="shape"/>
										</filter>
										<filter id="filter2_b_2694_8372" x="-110" y="-110" width="280" height="280" filterUnits="userSpaceOnUse" color-interpolation-filters="sRGB">
										<feFlood flood-opacity="0" result="BackgroundImageFix"/>
										<feGaussianBlur in="BackgroundImageFix" stdDeviation="55"/>
										<feComposite in2="SourceAlpha" operator="in" result="effect1_backgroundBlur_2694_8372"/>
										<feBlend mode="normal" in="SourceGraphic" in2="effect1_backgroundBlur_2694_8372" result="shape"/>
										</filter>
										<linearGradient id="paint0_linear_2694_8372" x1="30" y1="0" x2="30" y2="60" gradientUnits="userSpaceOnUse">
										<stop stop-color="#212941"/>
										<stop offset="0.469183" stop-color="#2C3A65"/>
										<stop offset="1" stop-color="#272C3D"/>
										</linearGradient>
										<radialGradient id="paint1_radial_2694_8372" cx="0" cy="0" r="1" gradientUnits="userSpaceOnUse" gradientTransform="translate(30 30) rotate(90) scale(30)">
										<stop stop-color="#131827" stop-opacity="0"/>
										<stop offset="1" stop-color="#131827"/>
										</radialGradient>
										<linearGradient id="paint2_linear_2694_8372" x1="32.9133" y1="76.5426" x2="62.4636" y2="46.7371" gradientUnits="userSpaceOnUse">
										<stop stop-color="#131827"/>
										<stop offset="1" stop-color="#303953"/>
										</linearGradient>
										<linearGradient id="paint3_linear_2694_8372" x1="29.9888" y1="10.2852" x2="29.9888" y2="52.0028" gradientUnits="userSpaceOnUse">
										<stop stop-color="#212941"/>
										<stop offset="0.469183" stop-color="#2C3A65"/>
										<stop offset="1" stop-color="#272C3D"/>
										</linearGradient>
										<linearGradient id="paint4_linear_2694_8372" x1="30.3516" y1="30.9304" x2="30.3516" y2="38.9596" gradientUnits="userSpaceOnUse">
										<stop stop-color="#EEEEEE"/>
										<stop offset="0.51" stop-color="#C8DCF5"/>
										<stop offset="1" stop-color="#CBD5E2"/>
										</linearGradient>
										<linearGradient id="paint5_linear_2694_8372" x1="36.6153" y1="44.3828" x2="42.5" y2="58.5" gradientUnits="userSpaceOnUse">
										<stop stop-color="#121624"/>
										<stop offset="1" stop-color="#121624" stop-opacity="0"/>
										</linearGradient>
										<linearGradient id="paint6_linear_2694_8372" x1="36.6153" y1="44.3828" x2="42.5" y2="58.5" gradientUnits="userSpaceOnUse">
										<stop stop-color="#121624"/>
										<stop offset="1" stop-color="#121624" stop-opacity="0"/>
										</linearGradient>
										<linearGradient id="paint7_linear_2694_8372" x1="30" y1="0" x2="30" y2="60" gradientUnits="userSpaceOnUse">
										<stop stop-color="#212941"/>
										<stop offset="0.469183" stop-color="#2C3A65"/>
										<stop offset="1" stop-color="#272C3D"/>
										</linearGradient>
										<clipPath id="clip0_2694_8372">
										<rect width="39" height="44" fill="white" transform="translate(10.5 8)"/>
										</clipPath>
										<clipPath id="clip1_2694_8372">
										<rect width="35" height="14" fill="white" transform="translate(14.5 39)"/>
										</clipPath>
										</defs>
									</svg>