									<svg width="60" height="60" viewBox="0 0 60 60" fill="none" xmlns="http://www.w3.org/2000/svg">
										<g filter="url(#filter0_b_2694_8679)">
										<rect width="60" height="60" rx="12" fill="#131827"/>
										</g>
										<rect x="6.25" y="6.25" width="47.5" height="47.5" rx="3.75" fill="url(#paint0_linear_2694_8679)" stroke="url(#paint1_linear_2694_8679)" stroke-width="0.5"/>
										<path opacity="0.6" d="M6 10C6 7.79086 7.79086 6 10 6H50C52.2091 6 54 7.79086 54 10V16H6V10Z" fill="url(#paint2_linear_2694_8679)"/>
										<path d="M6 10C6 7.79086 7.79086 6 10 6H17L6 17V10Z" fill="url(#paint3_linear_2694_8679)"/>
										<path d="M54 50C54 52.2091 52.2091 54 50 54L43 54L54 43L54 50Z" fill="url(#paint4_linear_2694_8679)"/>
										<path d="M54 10C54 7.79086 52.2091 6 50 6L43 6L54 17L54 10Z" fill="url(#paint5_linear_2694_8679)"/>
										<path d="M6 50C6 52.2091 7.79086 54 10 54L17 54L6 43L6 50Z" fill="url(#paint6_linear_2694_8679)"/>
										<g filter="url(#filter1_b_2694_8679)">
										<path d="M43.8534 12.0812L16.0625 12.1639C13.8534 12.1705 12.0673 13.9666 12.0732 16.1758L12.1486 44.4449C12.1545 46.654 13.9501 48.4396 16.1592 48.433L43.9502 48.3503C46.1593 48.3438 47.9454 46.5476 47.9395 44.3385L47.8641 16.0693C47.8582 13.8602 46.0626 12.0747 43.8534 12.0812Z" fill="url(#paint7_linear_2694_8679)"/>
										<path d="M16.0631 12.4139L43.8541 12.3312C45.9252 12.3251 47.6086 13.999 47.6141 16.0701L47.6895 44.3392C47.695 46.4103 46.0206 48.0942 43.9495 48.1003L16.1586 48.183C14.0875 48.1892 12.4041 46.5152 12.3986 44.4442L12.3232 16.175C12.3176 14.104 13.9921 12.42 16.0631 12.4139Z" stroke="url(#paint8_linear_2694_8679)" stroke-width="0.5"/>
										</g>
										<path fill-rule="evenodd" clip-rule="evenodd" d="M43.6289 16.6953L43.3125 16.6964L43.3654 41.336L43.6818 41.3349L43.6289 16.6953ZM17.0703 16.7746L17.5963 16.7727L17.647 41.4061L17.121 41.408L17.0703 16.7746ZM16.3203 16.7824L16.6367 16.7812L16.6896 41.4146L16.3732 41.4157L16.3203 16.7824ZM18.7344 16.7785L19.2052 16.7768L19.2515 39.2493L18.7807 39.251L18.7344 16.7785ZM21.6598 16.7599L20.8672 16.7628L20.9119 39.2355L21.7045 39.2326L21.6598 16.7599ZM19.5391 16.7746L20.3317 16.7716L20.3764 39.2443L19.5838 39.2473L19.5391 16.7746ZM23.3233 16.7609L22.7969 16.7628L22.8428 39.2354L23.3693 39.2335L23.3233 16.7609ZM24.3984 16.7511L25.3523 16.7476L25.3965 39.2204L24.4427 39.2239L24.3984 16.7511ZM26.2019 16.7498L25.8359 16.7511L25.8832 39.2235L26.2492 39.2222L26.2019 16.7498ZM26.75 16.7472L27.4373 16.7447L27.4824 39.2173L26.7951 39.2199L26.75 16.7472ZM29.0977 16.7412L28.5156 16.7433L28.5613 39.2159L29.1433 39.2138L29.0977 16.7412ZM29.5234 16.7433L29.7295 16.7426L29.7844 41.3758L29.5784 41.3765L29.5234 16.7433ZM30.5346 16.7424L30.2734 16.7433L30.3272 41.3766L30.5884 41.3757L30.5346 16.7424ZM31.0703 16.7277L32.3407 16.7229L32.3843 39.1959L31.1139 39.2007L31.0703 16.7277ZM33.4683 16.7184L33.0469 16.7199L33.0936 39.1923L33.5151 39.1908L33.4683 16.7184ZM33.9609 16.7277L35.1258 16.7233L35.1695 39.1963L34.0047 39.2006L33.9609 16.7277ZM36.3581 16.7147L35.9922 16.716L36.0395 39.1884L36.4054 39.1871L36.3581 16.7147ZM36.8516 16.7199L38.0164 16.7155L38.0602 39.1885L36.8953 39.1928L36.8516 16.7199ZM39.1949 16.7105L38.7734 16.7121L38.8202 39.1845L39.2416 39.183L39.1949 16.7105ZM39.5703 16.7081L40.2019 16.7058L40.2473 39.1785L39.6157 39.1808L39.5703 16.7081ZM42.0222 16.699L41.6562 16.7003L41.7036 39.1728L42.0695 39.1715L42.0222 16.699ZM42.4062 16.7003L42.9878 16.6982L43.0382 41.3317L42.4566 41.3338L42.4062 16.7003ZM27.0418 43.4198L27.8381 43.4181L27.8355 40.8225L27.207 40.8282L27.2061 40.5377C27.5206 40.4812 27.7499 40.3942 27.9377 40.2731L28.28 40.2688L28.2858 43.4203L29.0012 43.4199L29.0032 43.7926L27.0434 43.7988L27.0414 43.4261L27.0418 43.4198ZM31.4476 43.1289L31.1997 43.4169C31.3861 43.6241 31.6685 43.7866 32.0357 43.7839C32.7264 43.782 33.3572 43.2333 33.3569 41.8187C33.3516 40.688 32.8386 40.1261 32.1542 40.1284C31.6003 40.1323 31.1305 40.5898 31.1326 41.2656C31.132 41.9855 31.5202 42.3503 32.1175 42.349C32.41 42.348 32.719 42.1775 32.9355 41.894C32.9226 43.0173 32.5129 43.4089 32.0213 43.4104C31.8036 43.4097 31.5863 43.3016 31.4476 43.1289ZM32.157 40.4885C32.5989 40.484 32.8628 40.8475 32.9265 41.5334C32.7069 41.8673 32.4308 42.0083 32.2007 42.0068C31.7711 42.0121 31.5584 41.7275 31.5556 41.2663C31.5532 40.7988 31.8211 40.4869 32.157 40.4885ZM34.0812 41.932C34.079 40.7509 34.4976 40.1135 35.1944 40.112C35.8851 40.1101 36.3066 40.7422 36.3089 41.9232C36.3111 43.1043 35.891 43.7669 35.2003 43.7688C34.5035 43.7703 34.0835 43.113 34.0812 41.932ZM35.8731 41.9281C35.8744 40.8925 35.595 40.4775 35.1968 40.4784C34.7863 40.4785 34.5175 40.9041 34.5166 41.9334C34.5157 42.9627 34.7931 43.4091 35.1975 43.4086C35.6019 43.4082 35.8718 42.9637 35.8731 41.9281ZM25.4513 41.2599C25.4534 41.8347 24.867 42.4682 23.8252 43.5285L23.819 43.5281L23.821 43.7998L26.0613 43.7918L26.0604 43.4002L25.0524 43.4016C24.8719 43.4032 24.6596 43.4154 24.4717 43.4355C25.2909 42.5573 25.8849 41.899 25.8821 41.2358C25.8769 40.6102 25.4793 40.1943 24.8382 40.1992C24.39 40.2033 24.0782 40.4179 23.7909 40.7413L24.0489 40.9971C24.2503 40.7568 24.5044 40.5703 24.7907 40.5689C25.2323 40.5707 25.4512 40.8557 25.4513 41.2599ZM18.2232 43.452L18.471 43.1641C18.6097 43.3368 18.8271 43.4448 19.0447 43.4456C19.5363 43.4441 19.946 43.0524 19.9589 41.9291C19.7425 42.2127 19.4334 42.3832 19.1409 42.3842C18.5437 42.3855 18.1554 42.0207 18.156 41.3008C18.154 40.6249 18.6237 40.1675 19.1776 40.1635C19.8621 40.1612 20.375 40.7232 20.3803 41.8539C20.3807 43.2685 19.7498 43.8172 19.0592 43.819C18.692 43.8218 18.4095 43.6592 18.2232 43.452ZM19.9499 41.5686C19.8862 40.8827 19.6224 40.5192 19.1804 40.5236C18.8446 40.522 18.5766 40.834 18.579 41.3014C18.5819 41.7626 18.7946 42.0472 19.2241 42.042C19.4542 42.0434 19.7304 41.9025 19.9499 41.5686ZM37.5995 41.8509C37.2777 42.0269 36.9473 42.3414 36.9502 42.8026C36.9534 43.3585 37.4384 43.7671 38.0919 43.763C38.7702 43.7603 39.2124 43.3454 39.2135 42.8213C39.2114 42.3475 38.9154 42.102 38.6032 41.9187L38.6043 41.8998C38.8138 41.7295 39.0818 41.4176 39.0798 41.0449C39.0762 40.4952 38.7019 40.106 38.0984 40.1069C37.5383 40.1105 37.1177 40.4762 37.1155 41.0192C37.1114 41.3915 37.3442 41.6521 37.6007 41.832L37.5995 41.8509ZM37.8986 42.0118C38.3744 42.2072 38.7758 42.372 38.7788 42.8073C38.7813 43.1737 38.5044 43.4283 38.1 43.4288C37.6708 43.4277 37.3519 43.1493 37.3511 42.7577C37.3521 42.4357 37.5547 42.1765 37.8339 41.9852L37.8986 42.0118ZM38.0904 40.4411C38.47 40.4391 38.6893 40.7178 38.6928 41.0653L38.6932 41.0591C38.696 41.3181 38.5632 41.5563 38.3324 41.7695C37.9128 41.6112 37.532 41.43 37.5327 41.0132C37.5287 40.6719 37.7669 40.4402 38.0904 40.4411ZM20.9267 42.8494C20.9239 42.3883 21.2542 42.0738 21.5761 41.8978L21.5772 41.8789C21.3208 41.699 21.0879 41.4384 21.0921 41.0661C21.0943 40.5231 21.5149 40.1573 22.075 40.1538C22.6785 40.1529 23.0527 40.5421 23.0563 41.0917C23.0584 41.4644 22.7904 41.7764 22.5809 41.9467L22.5797 41.9656C22.892 42.1489 23.188 42.3944 23.19 42.8682C23.189 43.3923 22.7467 43.8072 22.0685 43.8098C21.415 43.814 20.93 43.4054 20.9267 42.8494ZM22.7554 42.8542C22.7523 42.4189 22.351 42.2541 21.8752 42.0587L21.8105 42.0321C21.5312 42.2234 21.3287 42.4825 21.3276 42.8045C21.3285 43.1961 21.6473 43.4746 22.0765 43.4756C22.4809 43.4752 22.7578 43.2206 22.7554 42.8542ZM22.6694 41.1122C22.6658 40.7647 22.4465 40.486 22.0669 40.488C21.7435 40.4871 21.5053 40.7188 21.5093 41.0601C21.5086 41.4768 21.8894 41.658 22.3089 41.8164C22.5397 41.6032 22.6725 41.365 22.6698 41.1059L22.6694 41.1122ZM41.3654 41.2169C41.3674 41.7917 40.7811 42.4252 39.7393 43.4855L39.7331 43.4852L39.7351 43.7568L41.9753 43.7489L41.9745 43.3573L40.9665 43.3587C40.786 43.3602 40.5737 43.3725 40.3858 43.3925C41.2049 42.5144 41.799 41.8561 41.7961 41.1928C41.791 40.5672 41.3934 40.1513 40.7523 40.1562C40.3041 40.1604 39.9923 40.3749 39.7049 40.6983L39.963 40.9541C40.1644 40.7139 40.4185 40.5273 40.7047 40.5259C41.1463 40.5277 41.3653 40.8127 41.3654 41.2169Z" fill="url(#paint9_linear_2694_8679)"/>
										<g filter="url(#filter2_b_2694_8679)">
										<rect x="0.25" y="0.25" width="59.5" height="59.5" rx="11.75" stroke="url(#paint10_linear_2694_8679)" stroke-width="0.5"/>
										</g>
										<path d="M48 6H48.3H49C51.7614 6 54 8.23858 54 11V12.6818V13" stroke="#323F5F" stroke-linecap="round"/>
										<path d="M12 54L11.7 54L11 54C8.23858 54 6 51.7614 6 49L6 47.3182L6 47" stroke="#323F5F" stroke-linecap="round"/>
										<path d="M6 12L6 11.7L6 11C6 8.23858 8.23858 6 11 6L12.6818 6L13 6" stroke="#323F5F" stroke-linecap="round"/>
										<path d="M54 48L54 48.3L54 49C54 51.7614 51.7614 54 49 54L47.3182 54L47 54" stroke="#323F5F" stroke-linecap="round"/>
										<defs>
										<filter id="filter0_b_2694_8679" x="-110" y="-110" width="280" height="280" filterUnits="userSpaceOnUse" color-interpolation-filters="sRGB">
										<feFlood flood-opacity="0" result="BackgroundImageFix"/>
										<feGaussianBlur in="BackgroundImageFix" stdDeviation="55"/>
										<feComposite in2="SourceAlpha" operator="in" result="effect1_backgroundBlur_2694_8679"/>
										<feBlend mode="normal" in="SourceGraphic" in2="effect1_backgroundBlur_2694_8679" result="shape"/>
										</filter>
										<filter id="filter1_b_2694_8679" x="-97.9258" y="-97.918" width="255.867" height="256.352" filterUnits="userSpaceOnUse" color-interpolation-filters="sRGB">
										<feFlood flood-opacity="0" result="BackgroundImageFix"/>
										<feGaussianBlur in="BackgroundImageFix" stdDeviation="55"/>
										<feComposite in2="SourceAlpha" operator="in" result="effect1_backgroundBlur_2694_8679"/>
										<feBlend mode="normal" in="SourceGraphic" in2="effect1_backgroundBlur_2694_8679" result="shape"/>
										</filter>
										<filter id="filter2_b_2694_8679" x="-110" y="-110" width="280" height="280" filterUnits="userSpaceOnUse" color-interpolation-filters="sRGB">
										<feFlood flood-opacity="0" result="BackgroundImageFix"/>
										<feGaussianBlur in="BackgroundImageFix" stdDeviation="55"/>
										<feComposite in2="SourceAlpha" operator="in" result="effect1_backgroundBlur_2694_8679"/>
										<feBlend mode="normal" in="SourceGraphic" in2="effect1_backgroundBlur_2694_8679" result="shape"/>
										</filter>
										<linearGradient id="paint0_linear_2694_8679" x1="30" y1="6" x2="30" y2="54" gradientUnits="userSpaceOnUse">
										<stop stop-color="#92BEEF" stop-opacity="0.06"/>
										<stop offset="1" stop-color="white" stop-opacity="0"/>
										</linearGradient>
										<linearGradient id="paint1_linear_2694_8679" x1="30" y1="6" x2="30" y2="54" gradientUnits="userSpaceOnUse">
										<stop stop-color="#D0E3FA" stop-opacity="0.11"/>
										<stop offset="1" stop-color="#697C92" stop-opacity="0.06"/>
										</linearGradient>
										<linearGradient id="paint2_linear_2694_8679" x1="30" y1="6" x2="30" y2="16" gradientUnits="userSpaceOnUse">
										<stop stop-color="#6F93E8" stop-opacity="0.21"/>
										<stop offset="0.965" stop-color="#A6BFF8" stop-opacity="0"/>
										</linearGradient>
										<linearGradient id="paint3_linear_2694_8679" x1="0.5" y1="2" x2="11.5" y2="11.5" gradientUnits="userSpaceOnUse">
										<stop stop-color="#C5DEFB" stop-opacity="0.21"/>
										<stop offset="1" stop-color="#CDDFF4" stop-opacity="0"/>
										</linearGradient>
										<linearGradient id="paint4_linear_2694_8679" x1="59.5" y1="58" x2="48.5" y2="48.5" gradientUnits="userSpaceOnUse">
										<stop stop-color="#C5DEFB" stop-opacity="0.21"/>
										<stop offset="1" stop-color="#CDDFF4" stop-opacity="0"/>
										</linearGradient>
										<linearGradient id="paint5_linear_2694_8679" x1="59.5" y1="2" x2="48.5" y2="11.5" gradientUnits="userSpaceOnUse">
										<stop stop-color="#C5DEFB" stop-opacity="0.21"/>
										<stop offset="1" stop-color="#CDDFF4" stop-opacity="0"/>
										</linearGradient>
										<linearGradient id="paint6_linear_2694_8679" x1="0.5" y1="58" x2="11.5" y2="48.5" gradientUnits="userSpaceOnUse">
										<stop stop-color="#C5DEFB" stop-opacity="0.21"/>
										<stop offset="1" stop-color="#CDDFF4" stop-opacity="0"/>
										</linearGradient>
										<linearGradient id="paint7_linear_2694_8679" x1="22" y1="7" x2="41.0174" y2="63.9942" gradientUnits="userSpaceOnUse">
										<stop stop-color="#26304C"/>
										<stop offset="1" stop-color="#303953"/>
										<stop offset="1" stop-color="#20232C"/>
										</linearGradient>
										<linearGradient id="paint8_linear_2694_8679" x1="29.958" y1="12.1226" x2="30.0658" y2="48.3916" gradientUnits="userSpaceOnUse">
										<stop stop-color="#212941"/>
										<stop offset="0.469183" stop-color="#2C3A65"/>
										<stop offset="1" stop-color="#272C3D"/>
										</linearGradient>
										<linearGradient id="paint9_linear_2694_8679" x1="30.001" y1="26.7053" x2="30.001" y2="36.5538" gradientUnits="userSpaceOnUse">
										<stop stop-color="#EEEEEE"/>
										<stop offset="0.51" stop-color="#C8DCF5"/>
										<stop offset="1" stop-color="#CBD5E2"/>
										</linearGradient>
										<linearGradient id="paint10_linear_2694_8679" x1="30" y1="0" x2="30" y2="60" gradientUnits="userSpaceOnUse">
										<stop stop-color="#212941"/>
										<stop offset="0.469183" stop-color="#2C3A65"/>
										<stop offset="1" stop-color="#272C3D"/>
										</linearGradient>
										</defs>
									</svg>