									<svg width="197" height="109" viewBox="0 0 197 109" fill="none" xmlns="http://www.w3.org/2000/svg">
										<rect x="4" y="11" width="189" height="94" rx="8" fill="#1D2135"/>
										<path d="M67.3577 56.5208H68.1182V57.375H67.3577V56.5208ZM67.3577 58.375H68.1182V64H67.3577V58.375ZM73.7998 56.5H74.5706V64H73.8831V63.2083C73.4387 63.8403 72.7894 64.1562 71.9352 64.1562C71.1158 64.1562 70.4665 63.8542 69.9873 63.25C69.5776 62.7222 69.3727 62.0312 69.3727 61.1771C69.3727 60.3299 69.5776 59.6458 69.9873 59.125C70.4526 58.5208 71.0915 58.2187 71.904 58.2187C72.6817 58.2187 73.3137 58.4896 73.7998 59.0312V56.5ZM73.4248 62.8125C73.7304 62.4306 73.8831 61.8854 73.8831 61.1771C73.8831 60.4826 73.7304 59.941 73.4248 59.5521C73.0984 59.1354 72.6331 58.9271 72.029 58.9271C71.404 58.9271 70.9317 59.1493 70.6123 59.5937C70.3276 59.9757 70.1852 60.5035 70.1852 61.1771C70.1852 61.8715 70.3241 62.4028 70.6019 62.7708C70.9283 63.2222 71.4005 63.4479 72.0186 63.4479C72.6297 63.4479 73.0984 63.2361 73.4248 62.8125ZM79.7087 56.5H80.4795V64H79.7087V57.3542L78.292 58.2083V57.3437L79.7087 56.5ZM87.1357 57.4167L86.5524 57.8958C86.3857 57.6458 86.1705 57.4479 85.9066 57.3021C85.6427 57.1562 85.358 57.0833 85.0524 57.0833C84.4691 57.0833 84.0073 57.309 83.667 57.7604C83.3753 58.1076 83.2295 58.5208 83.2295 59V60.0625C83.7087 59.4653 84.3232 59.1667 85.0732 59.1667C85.726 59.1667 86.2989 59.3958 86.792 59.8542C87.2989 60.3472 87.5455 60.9444 87.5316 61.6458C87.5316 62.3194 87.292 62.9028 86.8128 63.3958C86.3267 63.9097 85.7225 64.1597 85.0003 64.1458C84.2712 64.1597 83.6566 63.8993 83.1566 63.3646C82.6913 62.8785 82.4587 62.2535 82.4587 61.4896V59C82.4587 58.2292 82.7017 57.6007 83.1878 57.1146C83.66 56.6146 84.2816 56.3576 85.0524 56.3437C85.476 56.3437 85.8684 56.441 86.2295 56.6354C86.5975 56.8229 86.8996 57.0833 87.1357 57.4167ZM85.2712 63.3021C85.7642 63.2257 86.1427 62.9826 86.4066 62.5729C86.6427 62.2049 86.7225 61.8056 86.6462 61.375C86.5767 60.9097 86.3475 60.5417 85.9587 60.2708C85.5837 60.0139 85.1705 59.9236 84.7191 60C84.2399 60.0764 83.8684 60.3125 83.6045 60.7083C83.3545 61.0764 83.2677 61.4826 83.3441 61.9271C83.4135 62.3507 83.6253 62.6979 83.9795 62.9687C84.3684 63.2674 84.7989 63.3785 85.2712 63.3021ZM92.9756 61.8125H93.7985V62.5521H92.9756V64H92.2048V62.5521H88.7152V61.8125L91.2256 56.5H92.0381L89.5277 61.8125H92.2048V59.625H92.9756V61.8125ZM99.2744 61.8125H100.097V62.5521H99.2744V64H98.5036V62.5521H95.014V61.8125L97.5244 56.5H98.3369L95.8265 61.8125H98.5036V59.625H99.2744V61.8125ZM105.573 61.8125H106.396V62.5521H105.573V64H104.802V62.5521H101.313V61.8125L103.823 56.5H104.636L102.125 61.8125H104.802V59.625H105.573V61.8125ZM107.717 58.3646C107.731 57.6979 107.964 57.184 108.415 56.8229C108.797 56.5035 109.304 56.3437 109.936 56.3437C110.568 56.3437 111.075 56.5035 111.457 56.8229C111.915 57.1701 112.144 57.684 112.144 58.3646C112.144 58.8785 111.984 59.2986 111.665 59.625C111.54 59.7708 111.408 59.8889 111.269 59.9792C111.512 60.1389 111.7 60.309 111.832 60.4896C112.179 60.8646 112.346 61.3333 112.332 61.8958C112.332 62.6111 112.096 63.1736 111.623 63.5833C111.193 63.9653 110.63 64.1562 109.936 64.1562C109.241 64.1562 108.679 63.9653 108.248 63.5833C107.79 63.1736 107.554 62.6111 107.54 61.8958C107.526 61.3472 107.689 60.8785 108.03 60.4896C108.175 60.309 108.366 60.1389 108.603 59.9792C108.457 59.8958 108.321 59.7778 108.196 59.625C107.877 59.2847 107.717 58.8646 107.717 58.3646ZM108.53 58.3646C108.516 58.7743 108.644 59.0868 108.915 59.3021C109.158 59.5174 109.498 59.625 109.936 59.625C110.373 59.625 110.714 59.5174 110.957 59.3021C111.207 59.0937 111.332 58.7812 111.332 58.3646C111.346 57.9618 111.217 57.6458 110.946 57.4167C110.71 57.2014 110.373 57.0937 109.936 57.0937C109.498 57.1076 109.158 57.2153 108.915 57.4167C108.672 57.6319 108.544 57.9479 108.53 58.3646ZM111.092 63.0104C111.377 62.7535 111.519 62.3819 111.519 61.8958C111.519 61.4097 111.377 61.0347 111.092 60.7708C110.814 60.5 110.429 60.3646 109.936 60.3646C109.45 60.3646 109.061 60.5 108.769 60.7708C108.484 61.0347 108.342 61.4097 108.342 61.8958C108.342 62.3819 108.484 62.7535 108.769 63.0104C109.061 63.2812 109.45 63.4167 109.936 63.4167C110.429 63.4167 110.814 63.2812 111.092 63.0104ZM118.366 57.4167L117.783 57.8958C117.616 57.6458 117.401 57.4479 117.137 57.3021C116.873 57.1562 116.588 57.0833 116.283 57.0833C115.7 57.0833 115.238 57.309 114.897 57.7604C114.606 58.1076 114.46 58.5208 114.46 59V60.0625C114.939 59.4653 115.554 59.1667 116.304 59.1667C116.956 59.1667 117.529 59.3958 118.022 59.8542C118.529 60.3472 118.776 60.9444 118.762 61.6458C118.762 62.3194 118.522 62.9028 118.043 63.3958C117.557 63.9097 116.953 64.1597 116.231 64.1458C115.502 64.1597 114.887 63.8993 114.387 63.3646C113.922 62.8785 113.689 62.2535 113.689 61.4896V59C113.689 58.2292 113.932 57.6007 114.418 57.1146C114.891 56.6146 115.512 56.3576 116.283 56.3437C116.706 56.3437 117.099 56.441 117.46 56.6354C117.828 56.8229 118.13 57.0833 118.366 57.4167ZM116.502 63.3021C116.995 63.2257 117.373 62.9826 117.637 62.5729C117.873 62.2049 117.953 61.8056 117.877 61.375C117.807 60.9097 117.578 60.5417 117.189 60.2708C116.814 60.0139 116.401 59.9236 115.95 60C115.47 60.0764 115.099 60.3125 114.835 60.7083C114.585 61.0764 114.498 61.4826 114.575 61.9271C114.644 62.3507 114.856 62.6979 115.21 62.9687C115.599 63.2674 116.029 63.3785 116.502 63.3021ZM120.394 56.5H124.341V57.2292H121.081L120.935 59.7396C121.359 59.3576 121.866 59.1667 122.456 59.1667C123.088 59.1667 123.64 59.375 124.112 59.7917C124.654 60.2778 124.925 60.8958 124.925 61.6458C124.911 62.3403 124.661 62.9306 124.175 63.4167C123.689 63.9028 123.091 64.1458 122.383 64.1458C121.716 64.1597 121.144 63.9375 120.664 63.4792C120.317 63.1597 120.078 62.7639 119.946 62.2917L120.675 62.0937C120.772 62.4479 120.949 62.7326 121.206 62.9479C121.546 63.2535 121.939 63.4062 122.383 63.4062C122.876 63.4062 123.293 63.2361 123.633 62.8958C123.98 62.5486 124.154 62.1319 124.154 61.6458C124.154 61.1181 123.96 60.6806 123.571 60.3333C123.216 60.0278 122.821 59.875 122.383 59.875C121.953 59.875 121.581 60.0104 121.269 60.2812C121.102 60.4271 120.966 60.5868 120.862 60.7604L120.164 60.3542L120.394 56.5ZM126.419 56.5H130.367V57.2292H127.106L126.961 59.7396C127.384 59.3576 127.891 59.1667 128.481 59.1667C129.113 59.1667 129.665 59.375 130.138 59.7917C130.679 60.2778 130.95 60.8958 130.95 61.6458C130.936 62.3403 130.686 62.9306 130.2 63.4167C129.714 63.9028 129.117 64.1458 128.409 64.1458C127.742 64.1597 127.169 63.9375 126.69 63.4792C126.343 63.1597 126.103 62.7639 125.971 62.2917L126.7 62.0937C126.797 62.4479 126.975 62.7326 127.231 62.9479C127.572 63.2535 127.964 63.4062 128.409 63.4062C128.902 63.4062 129.318 63.2361 129.659 62.8958C130.006 62.5486 130.179 62.1319 130.179 61.6458C130.179 61.1181 129.985 60.6806 129.596 60.3333C129.242 60.0278 128.846 59.875 128.409 59.875C127.978 59.875 127.606 60.0104 127.294 60.2812C127.127 60.4271 126.992 60.5868 126.888 60.7604L126.19 60.3542L126.419 56.5Z" fill="#323F5F"/>
										<circle cx="10" cy="17" r="2" fill="#562944"/>
										<circle cx="18" cy="17" r="2" fill="#47462A"/>
										<circle cx="26" cy="17" r="2" fill="#164641"/>
										<rect x="53.25" y="69.25" width="91.5" height="11.5" rx="1.75" fill="url(#paint0_linear_2694_21785)" stroke="url(#paint1_linear_2694_21785)" stroke-width="0.5"/>
										<rect x="53.25" y="84.25" width="91.5" height="11.5" rx="1.75" fill="url(#paint2_linear_2694_21785)" stroke="url(#paint3_linear_2694_21785)" stroke-width="0.5"/>
										<rect x="0.5" y="7.5" width="196" height="101" rx="7.5" stroke="url(#paint4_linear_2694_21785)"/>
										<rect x="10.75" y="30.25" width="15.5" height="2.5" rx="1.25" transform="rotate(90 10.75 30.25)" fill="url(#paint5_linear_2694_21785)" stroke="url(#paint6_linear_2694_21785)" stroke-width="0.5"/>
										<rect x="10.75" y="61.25" width="15.5" height="2.5" rx="1.25" transform="rotate(90 10.75 61.25)" fill="url(#paint7_linear_2694_21785)" stroke="url(#paint8_linear_2694_21785)" stroke-width="0.5"/>
										<circle cx="9.5" cy="53.5" r="1.75" fill="url(#paint9_linear_2694_21785)" stroke="url(#paint10_linear_2694_21785)" stroke-width="0.5"/>
										<circle cx="9.5" cy="84.5" r="1.75" fill="url(#paint11_linear_2694_21785)" stroke="url(#paint12_linear_2694_21785)" stroke-width="0.5"/>
										<rect x="188.75" y="30.25" width="15.5" height="2.5" rx="1.25" transform="rotate(90 188.75 30.25)" fill="url(#paint13_linear_2694_21785)" stroke="url(#paint14_linear_2694_21785)" stroke-width="0.5"/>
										<rect x="188.75" y="61.25" width="15.5" height="2.5" rx="1.25" transform="rotate(90 188.75 61.25)" fill="url(#paint15_linear_2694_21785)" stroke="url(#paint16_linear_2694_21785)" stroke-width="0.5"/>
										<circle cx="187.5" cy="53.5" r="1.75" fill="url(#paint17_linear_2694_21785)" stroke="url(#paint18_linear_2694_21785)" stroke-width="0.5"/>
										<circle cx="187.5" cy="84.5" r="1.75" fill="url(#paint19_linear_2694_21785)" stroke="url(#paint20_linear_2694_21785)" stroke-width="0.5"/>
										<circle cx="99" cy="35" r="14.75" fill="#2F3558" stroke="url(#paint21_linear_2694_21785)" stroke-width="0.5"/>
										<circle cx="99" cy="35" r="12.25" fill="url(#paint22_radial_2694_21785)" stroke="url(#paint23_linear_2694_21785)" stroke-width="0.5"/>
										<g opacity="0.1" filter="url(#filter0_f_2694_21785)">
										<path d="M91.4453 30.6875H93.3208L95.7823 39.4443L98.322 30.6875H100.569L103.128 39.4443L105.55 30.6875H107.445L104.241 41.0579H101.975L99.4355 32.6553L96.8959 41.0579H94.6492L91.4453 30.6875Z" fill="#232A3C"/>
										</g>
										<path d="M91.4453 30.6875H93.3208L95.7823 39.4443L98.322 30.6875H100.569L103.128 39.4443L105.55 30.6875H107.445L104.241 41.0579H101.975L99.4355 32.6553L96.8959 41.0579H94.6492L91.4453 30.6875Z" fill="#242A3C"/>
										<path d="M91.4453 30.6875H93.3208L95.7823 39.4443L98.322 30.6875H100.569L103.128 39.4443L105.55 30.6875H107.445L104.241 41.0579H101.975L99.4355 32.6553L96.8959 41.0579H94.6492L91.4453 30.6875Z" stroke="#212941"/>
										<mask id="mask0_2694_21785" style="mask-type:alpha" maskUnits="userSpaceOnUse" x="91" y="30" width="17" height="12">
										<path d="M91.4453 30.6875H93.3208L95.7823 39.4443L98.322 30.6875H100.569L103.128 39.4443L105.55 30.6875H107.445L104.241 41.0579H101.975L99.4355 32.6553L96.8959 41.0579H94.6492L91.4453 30.6875Z" fill="#131827"/>
										<path d="M91.4453 30.6875H93.3208L95.7823 39.4443L98.322 30.6875H100.569L103.128 39.4443L105.55 30.6875H107.445L104.241 41.0579H101.975L99.4355 32.6553L96.8959 41.0579H94.6492L91.4453 30.6875Z" stroke="#212941"/>
										</mask>
										<g mask="url(#mask0_2694_21785)">
										<g filter="url(#filter1_f_2694_21785)">
										<circle cx="97.417" cy="41.7959" r="2.51852" fill="url(#paint24_linear_2694_21785)"/>
										</g>
										<g filter="url(#filter2_f_2694_21785)">
										<circle cx="93.2181" cy="30.1946" r="1.67901" fill="url(#paint25_linear_2694_21785)"/>
										</g>
										<g filter="url(#filter3_f_2694_21785)">
										<circle cx="107.546" cy="30.2884" r="1.67901" fill="url(#paint26_linear_2694_21785)"/>
										</g>
										<g filter="url(#filter4_f_2694_21785)">
										<circle cx="99.1478" cy="29.304" r="1.67901" fill="url(#paint27_linear_2694_21785)"/>
										</g>
										</g>
										<defs>
										<filter id="filter0_f_2694_21785" x="61.4453" y="0.6875" width="76" height="70.3711" filterUnits="userSpaceOnUse" color-interpolation-filters="sRGB">
										<feFlood flood-opacity="0" result="BackgroundImageFix"/>
										<feBlend mode="normal" in="SourceGraphic" in2="BackgroundImageFix" result="shape"/>
										<feGaussianBlur stdDeviation="15" result="effect1_foregroundBlur_2694_21785"/>
										</filter>
										<filter id="filter1_f_2694_21785" x="-65.1016" y="-120.723" width="325.035" height="325.035" filterUnits="userSpaceOnUse" color-interpolation-filters="sRGB">
										<feFlood flood-opacity="0" result="BackgroundImageFix"/>
										<feBlend mode="normal" in="SourceGraphic" in2="BackgroundImageFix" result="shape"/>
										<feGaussianBlur stdDeviation="80" result="effect1_foregroundBlur_2694_21785"/>
										</filter>
										<filter id="filter2_f_2694_21785" x="47.5391" y="-15.4844" width="91.3594" height="91.3594" filterUnits="userSpaceOnUse" color-interpolation-filters="sRGB">
										<feFlood flood-opacity="0" result="BackgroundImageFix"/>
										<feBlend mode="normal" in="SourceGraphic" in2="BackgroundImageFix" result="shape"/>
										<feGaussianBlur stdDeviation="22" result="effect1_foregroundBlur_2694_21785"/>
										</filter>
										<filter id="filter3_f_2694_21785" x="61.8672" y="-15.3906" width="91.3594" height="91.3594" filterUnits="userSpaceOnUse" color-interpolation-filters="sRGB">
										<feFlood flood-opacity="0" result="BackgroundImageFix"/>
										<feBlend mode="normal" in="SourceGraphic" in2="BackgroundImageFix" result="shape"/>
										<feGaussianBlur stdDeviation="22" result="effect1_foregroundBlur_2694_21785"/>
										</filter>
										<filter id="filter4_f_2694_21785" x="53.4688" y="-16.375" width="91.3594" height="91.3594" filterUnits="userSpaceOnUse" color-interpolation-filters="sRGB">
										<feFlood flood-opacity="0" result="BackgroundImageFix"/>
										<feBlend mode="normal" in="SourceGraphic" in2="BackgroundImageFix" result="shape"/>
										<feGaussianBlur stdDeviation="22" result="effect1_foregroundBlur_2694_21785"/>
										</filter>
										<linearGradient id="paint0_linear_2694_21785" x1="99" y1="56.0769" x2="99" y2="93.9231" gradientUnits="userSpaceOnUse">
										<stop stop-color="#191D2E"/>
										<stop offset="0.494234" stop-color="#191B2A"/>
										<stop offset="1" stop-color="#191D2E"/>
										</linearGradient>
										<linearGradient id="paint1_linear_2694_21785" x1="99" y1="69" x2="99" y2="81" gradientUnits="userSpaceOnUse">
										<stop stop-color="#202639"/>
										<stop offset="1" stop-color="#242D46"/>
										</linearGradient>
										<linearGradient id="paint2_linear_2694_21785" x1="99" y1="71.0769" x2="99" y2="108.923" gradientUnits="userSpaceOnUse">
										<stop stop-color="#191D2E"/>
										<stop offset="0.494234" stop-color="#191B2A"/>
										<stop offset="1" stop-color="#191D2E"/>
										</linearGradient>
										<linearGradient id="paint3_linear_2694_21785" x1="99" y1="84" x2="99" y2="96" gradientUnits="userSpaceOnUse">
										<stop stop-color="#202639"/>
										<stop offset="1" stop-color="#242D46"/>
										</linearGradient>
										<linearGradient id="paint4_linear_2694_21785" x1="98.5" y1="44.6429" x2="98.5" y2="81.6786" gradientUnits="userSpaceOnUse">
										<stop stop-color="#9CBCED"/>
										<stop offset="0.51" stop-color="#9CC3F2"/>
										<stop offset="1" stop-color="#82B4F0"/>
										</linearGradient>
										<linearGradient id="paint5_linear_2694_21785" x1="19" y1="26.7692" x2="19" y2="36.2308" gradientUnits="userSpaceOnUse">
										<stop stop-color="#191D2E"/>
										<stop offset="0.494234" stop-color="#181B29"/>
										<stop offset="1" stop-color="#191D2E"/>
										</linearGradient>
										<linearGradient id="paint6_linear_2694_21785" x1="19" y1="30" x2="19" y2="33" gradientUnits="userSpaceOnUse">
										<stop stop-color="#202639"/>
										<stop offset="1" stop-color="#242D46"/>
										</linearGradient>
										<linearGradient id="paint7_linear_2694_21785" x1="19" y1="57.7692" x2="19" y2="67.2308" gradientUnits="userSpaceOnUse">
										<stop stop-color="#191D2E"/>
										<stop offset="0.494234" stop-color="#181B29"/>
										<stop offset="1" stop-color="#191D2E"/>
										</linearGradient>
										<linearGradient id="paint8_linear_2694_21785" x1="19" y1="61" x2="19" y2="64" gradientUnits="userSpaceOnUse">
										<stop stop-color="#202639"/>
										<stop offset="1" stop-color="#242D46"/>
										</linearGradient>
										<linearGradient id="paint9_linear_2694_21785" x1="9.5" y1="48.7692" x2="9.5" y2="58.2308" gradientUnits="userSpaceOnUse">
										<stop stop-color="#191D2E"/>
										<stop offset="0.494234" stop-color="#181B29"/>
										<stop offset="1" stop-color="#191D2E"/>
										</linearGradient>
										<linearGradient id="paint10_linear_2694_21785" x1="9.5" y1="52" x2="9.5" y2="55" gradientUnits="userSpaceOnUse">
										<stop stop-color="#202639"/>
										<stop offset="1" stop-color="#242D46"/>
										</linearGradient>
										<linearGradient id="paint11_linear_2694_21785" x1="9.5" y1="79.7692" x2="9.5" y2="89.2308" gradientUnits="userSpaceOnUse">
										<stop stop-color="#191D2E"/>
										<stop offset="0.494234" stop-color="#181B29"/>
										<stop offset="1" stop-color="#191D2E"/>
										</linearGradient>
										<linearGradient id="paint12_linear_2694_21785" x1="9.5" y1="83" x2="9.5" y2="86" gradientUnits="userSpaceOnUse">
										<stop stop-color="#202639"/>
										<stop offset="1" stop-color="#242D46"/>
										</linearGradient>
										<linearGradient id="paint13_linear_2694_21785" x1="197" y1="26.7692" x2="197" y2="36.2308" gradientUnits="userSpaceOnUse">
										<stop stop-color="#191D2E"/>
										<stop offset="0.494234" stop-color="#181B29"/>
										<stop offset="1" stop-color="#191D2E"/>
										</linearGradient>
										<linearGradient id="paint14_linear_2694_21785" x1="197" y1="30" x2="197" y2="33" gradientUnits="userSpaceOnUse">
										<stop stop-color="#202639"/>
										<stop offset="1" stop-color="#242D46"/>
										</linearGradient>
										<linearGradient id="paint15_linear_2694_21785" x1="197" y1="57.7692" x2="197" y2="67.2308" gradientUnits="userSpaceOnUse">
										<stop stop-color="#191D2E"/>
										<stop offset="0.494234" stop-color="#181B29"/>
										<stop offset="1" stop-color="#191D2E"/>
										</linearGradient>
										<linearGradient id="paint16_linear_2694_21785" x1="197" y1="61" x2="197" y2="64" gradientUnits="userSpaceOnUse">
										<stop stop-color="#202639"/>
										<stop offset="1" stop-color="#242D46"/>
										</linearGradient>
										<linearGradient id="paint17_linear_2694_21785" x1="187.5" y1="48.7692" x2="187.5" y2="58.2308" gradientUnits="userSpaceOnUse">
										<stop stop-color="#191D2E"/>
										<stop offset="0.494234" stop-color="#181B29"/>
										<stop offset="1" stop-color="#191D2E"/>
										</linearGradient>
										<linearGradient id="paint18_linear_2694_21785" x1="187.5" y1="52" x2="187.5" y2="55" gradientUnits="userSpaceOnUse">
										<stop stop-color="#202639"/>
										<stop offset="1" stop-color="#242D46"/>
										</linearGradient>
										<linearGradient id="paint19_linear_2694_21785" x1="187.5" y1="79.7692" x2="187.5" y2="89.2308" gradientUnits="userSpaceOnUse">
										<stop stop-color="#191D2E"/>
										<stop offset="0.494234" stop-color="#181B29"/>
										<stop offset="1" stop-color="#191D2E"/>
										</linearGradient>
										<linearGradient id="paint20_linear_2694_21785" x1="187.5" y1="83" x2="187.5" y2="86" gradientUnits="userSpaceOnUse">
										<stop stop-color="#202639"/>
										<stop offset="1" stop-color="#242D46"/>
										</linearGradient>
										<linearGradient id="paint21_linear_2694_21785" x1="99" y1="20" x2="99" y2="50" gradientUnits="userSpaceOnUse">
										<stop stop-color="#212941"/>
										<stop offset="1" stop-color="#3B435C"/>
										</linearGradient>
										<radialGradient id="paint22_radial_2694_21785" cx="0" cy="0" r="1" gradientUnits="userSpaceOnUse" gradientTransform="translate(99 32.7059) rotate(-104.328) scale(75.5865 122.806)">
										<stop stop-color="white"/>
										<stop offset="0.51" stop-color="#318BF8"/>
										<stop offset="1" stop-color="white"/>
										<stop offset="1" stop-color="#318EFE"/>
										</radialGradient>
										<linearGradient id="paint23_linear_2694_21785" x1="100.059" y1="23" x2="100.412" y2="47.3529" gradientUnits="userSpaceOnUse">
										<stop stop-color="#EEEEEE"/>
										<stop offset="0.470342" stop-color="#81B6F6"/>
										<stop offset="1" stop-color="#CBD5E2"/>
										</linearGradient>
										<linearGradient id="paint24_linear_2694_21785" x1="97.417" y1="41.1363" x2="97.417" y2="42.9652" gradientUnits="userSpaceOnUse">
										<stop stop-color="#EEEEEE"/>
										<stop offset="0.51" stop-color="#C8DCF5"/>
										<stop offset="1" stop-color="#CBD5E2"/>
										</linearGradient>
										<linearGradient id="paint25_linear_2694_21785" x1="93.2181" y1="29.7549" x2="93.2181" y2="30.9742" gradientUnits="userSpaceOnUse">
										<stop stop-color="#EEEEEE"/>
										<stop offset="0.51" stop-color="#C8DCF5"/>
										<stop offset="1" stop-color="#CBD5E2"/>
										</linearGradient>
										<linearGradient id="paint26_linear_2694_21785" x1="107.546" y1="29.8486" x2="107.546" y2="31.0679" gradientUnits="userSpaceOnUse">
										<stop stop-color="#EEEEEE"/>
										<stop offset="0.51" stop-color="#C8DCF5"/>
										<stop offset="1" stop-color="#CBD5E2"/>
										</linearGradient>
										<linearGradient id="paint27_linear_2694_21785" x1="99.1478" y1="28.8643" x2="99.1478" y2="30.0836" gradientUnits="userSpaceOnUse">
										<stop stop-color="#EEEEEE"/>
										<stop offset="0.51" stop-color="#C8DCF5"/>
										<stop offset="1" stop-color="#CBD5E2"/>
										</linearGradient>
										</defs>
									</svg>