<svg width="330" height="51" viewBox="0 0 330 51" fill="none" xmlns="http://www.w3.org/2000/svg">
<path fill-rule="evenodd" clip-rule="evenodd" d="M1.5 31.0002C1.5 33.4855 3.51472 35.5002 6 35.5002C8.48528 35.5002 10.5 33.4855 10.5 31.0002C10.5 28.515 8.48528 26.5002 6 26.5002C3.51472 26.5002 1.5 28.515 1.5 31.0002ZM6 36.5002C2.96243 36.5002 0.5 34.0378 0.5 31.0002C0.5 27.9627 2.96243 25.5002 6 25.5002C8.75088 25.5002 11.0301 27.5198 11.4358 30.1572L142.379 30.1572C151.697 30.1571 160.627 26.4915 167.203 19.9907L176.848 10.4556C183.612 3.7688 192.795 0.000285293 202.375 0.00028434L266.398 0.00024097C275.978 0.000240856 285.161 3.76875 291.925 10.4555L291.925 10.4561L321.706 40.0001C322.404 39.6792 323.181 39.5002 324 39.5002C327.038 39.5002 329.5 41.9627 329.5 45.0002C329.5 48.0378 327.038 50.5002 324 50.5002C320.962 50.5002 318.5 48.0378 318.5 45.0002C318.5 43.1521 319.412 41.5169 320.81 40.5196L291.222 11.1667C284.646 4.66589 275.716 1.00024 266.398 1.00024L202.375 1.00028C193.057 1.00029 184.127 4.66593 177.551 11.1667L167.906 20.7019C161.142 27.3886 151.959 31.1571 142.379 31.1572L11.4978 31.1572C11.4147 34.1222 8.98509 36.5002 6 36.5002ZM319.5 45.0002C319.5 42.515 321.515 40.5002 324 40.5002C326.485 40.5002 328.5 42.515 328.5 45.0002C328.5 47.4855 326.485 49.5002 324 49.5002C321.515 49.5002 319.5 47.4855 319.5 45.0002Z" fill="url(#paint0_linear_23_184)"/>
<defs>
<linearGradient id="paint0_linear_23_184" x1="0.5" y1="25.2502" x2="329.5" y2="25.2502" gradientUnits="userSpaceOnUse">
<stop stop-color="white" stop-opacity="0.9"/>
<stop offset="1" stop-color="white" stop-opacity="0.34"/>
</linearGradient>
</defs>
</svg>
