<svg width="329" height="51" viewBox="0 0 329 51" fill="none" xmlns="http://www.w3.org/2000/svg">
<path fill-rule="evenodd" clip-rule="evenodd" d="M328 19.5C328 17.0147 325.985 15 323.5 15C321.015 15 319 17.0147 319 19.5C319 21.9853 321.015 24 323.5 24C325.985 24 328 21.9853 328 19.5ZM323.5 14C326.538 14 329 16.4624 329 19.5C329 22.5376 326.538 25 323.5 25C320.749 25 318.47 22.9804 318.064 20.3431L302.121 20.3431C292.803 20.3431 283.873 24.0087 277.297 30.5095L267.652 40.0447C260.888 46.7314 251.705 50.5 242.125 50.5L63.1023 50.5C53.5224 50.5 44.3393 46.7315 37.5753 40.0447L37.5747 40.0441L7.79419 10.5001C7.09592 10.821 6.31885 11 5.5 11C2.46243 11 5.00397e-07 8.53756 5.3662e-07 5.49999C5.72842e-07 2.46243 2.46243 -7.70862e-06 5.5 -7.6724e-06C8.53757 -7.63617e-06 11 2.46243 11 5.49999C11 7.34813 10.0884 8.98337 8.6904 9.98062L38.2784 39.3336C44.8542 45.8343 53.7843 49.5 63.1023 49.5L242.125 49.5C251.443 49.5 260.373 45.8343 266.949 39.3335L276.594 29.7984C283.358 23.1116 292.541 19.3431 302.121 19.3431L318.002 19.3431C318.085 16.3781 320.515 14 323.5 14ZM10 5.49999C10 7.98528 7.98529 9.99999 5.5 9.99999C3.01471 9.99999 1 7.98528 1 5.49999C1 3.01471 3.01471 0.999992 5.5 0.999992C7.98529 0.999992 10 3.01471 10 5.49999Z" fill="url(#paint0_linear_23_179)"/>
<defs>
<linearGradient id="paint0_linear_23_179" x1="329" y1="25.25" x2="3.01103e-07" y2="25.25" gradientUnits="userSpaceOnUse">
<stop stop-color="white" stop-opacity="0.9"/>
<stop offset="1" stop-color="white" stop-opacity="0.34"/>
</linearGradient>
</defs>
</svg>
