<svg width="840" height="54" viewBox="0 0 840 54" fill="none" xmlns="http://www.w3.org/2000/svg">
<path fill-rule="evenodd" clip-rule="evenodd" d="M839 31.5C839 34.8137 836.314 37.5 833 37.5C829.686 37.5 827 34.8137 827 31.5C827 28.1863 829.686 25.5 833 25.5C836.314 25.5 839 28.1863 839 31.5ZM833 38.5C836.866 38.5 840 35.366 840 31.5C840 27.634 836.866 24.5 833 24.5C829.419 24.5 826.467 27.1884 826.05 30.6569L762.621 30.6569C753.303 30.6569 744.373 26.9912 737.797 20.4904L728.152 10.9553C721.388 4.26855 712.205 0.500035 702.625 0.500034L65.6023 0.499991C56.0224 0.499991 46.8392 4.2685 40.0753 10.9553L40.0747 10.9559L10.4097 40.3852C9.40076 39.8213 8.23791 39.5 7 39.5C3.13403 39.5 -5.02443e-07 42.634 -5.48545e-07 46.5C-5.94646e-07 50.366 3.13403 53.5 7 53.5C10.866 53.5 14 50.366 14 46.5C14 44.2383 12.9273 42.227 11.2629 40.9473L40.7784 11.6664C47.3542 5.16564 56.2843 1.49999 65.6023 1.49999L702.625 1.50003C711.943 1.50003 720.873 5.16568 727.449 11.6665L737.094 21.2016C743.858 27.8884 753.041 31.6569 762.621 31.6569L826.002 31.6569C826.085 35.4504 829.186 38.5 833 38.5ZM13 46.5C13 43.1863 10.3137 40.5 7 40.5C3.68628 40.5 0.999999 43.1863 0.999999 46.5C0.999999 49.8137 3.68628 52.5 7 52.5C10.3137 52.5 13 49.8137 13 46.5Z" fill="url(#paint0_linear_1_155)"/>
<defs>
<linearGradient id="paint0_linear_1_155" x1="840" y1="27" x2="-3.16009e-07" y2="27" gradientUnits="userSpaceOnUse">
<stop stop-color="white" stop-opacity="0.9"/>
<stop offset="1" stop-color="white" stop-opacity="0.34"/>
</linearGradient>
</defs>
</svg>
