<svg width="840" height="54" viewBox="0 0 840 54" fill="none" xmlns="http://www.w3.org/2000/svg">
<path fill-rule="evenodd" clip-rule="evenodd" d="M1.00012 31.5002C1.00012 34.8139 3.68641 37.5002 7.00012 37.5002C10.3138 37.5002 13.0001 34.8139 13.0001 31.5002C13.0001 28.1865 10.3138 25.5002 7.00012 25.5002C3.68641 25.5002 1.00012 28.1865 1.00012 31.5002ZM7.00012 38.5002C3.13413 38.5002 0.000122486 35.3662 0.00012244 31.5002C0.000122394 27.6342 3.13413 24.5002 7.00012 24.5002C10.5808 24.5002 13.5335 27.1886 13.9499 30.6571L137.379 30.657C146.697 30.657 155.627 26.9914 162.203 20.4906L171.848 10.9555C178.612 4.26873 187.795 0.500217 197.375 0.500216L774.398 0.500174C783.978 0.500174 793.161 4.26868 799.925 10.9555L799.925 10.9561L829.59 40.3854C830.599 39.8215 831.762 39.5002 833 39.5002C836.866 39.5002 840 42.6342 840 46.5002C840 50.3662 836.866 53.5002 833 53.5002C829.134 53.5002 826 50.3662 826 46.5002C826 44.2384 827.073 42.2272 828.737 40.9475L799.222 11.6666C792.646 5.16582 783.716 1.50017 774.398 1.50017L197.375 1.50022C188.057 1.50022 179.127 5.16587 172.551 11.6667L162.906 21.2018C156.142 27.8885 146.959 31.657 137.379 31.657L13.9984 31.6571C13.915 35.4506 10.8137 38.5002 7.00012 38.5002ZM827 46.5002C827 43.1865 829.686 40.5002 833 40.5002C836.314 40.5002 839 43.1865 839 46.5002C839 49.8139 836.314 52.5002 833 52.5002C829.686 52.5002 827 49.8139 827 46.5002Z" fill="url(#paint0_linear_1_161)"/>
<defs>
<linearGradient id="paint0_linear_1_161" x1="0.000122386" y1="27.0002" x2="840" y2="27.0002" gradientUnits="userSpaceOnUse">
<stop stop-color="white" stop-opacity="0.9"/>
<stop offset="1" stop-color="white" stop-opacity="0.34"/>
</linearGradient>
</defs>
</svg>
