									<svg width="60" height="60" viewBox="0 0 60 60" fill="none" xmlns="http://www.w3.org/2000/svg">
										<g filter="url(#filter0_b_2694_19603)">
										<rect width="60" height="60" rx="12" fill="#131827"/>
										</g>
										<g clip-path="url(#clip0_2694_19603)">
										<g filter="url(#filter1_b_2694_19603)">
										<path d="M20.3442 20.4494C20.107 20.2996 19.8035 20.2903 19.5569 20.4119L9.45528 25.2603C9.17073 25.3913 9 25.6721 9 25.981V50.1852C9 50.466 9.14228 50.7187 9.3794 50.8685C9.5122 50.9527 9.66396 50.9901 9.81572 50.9901C9.93902 50.9901 10.0623 50.962 10.1762 50.9059L20.2683 46.0482C20.5528 45.9172 20.7236 45.6364 20.7236 45.3275V21.1326C20.7236 20.8519 20.5813 20.5991 20.3442 20.4494Z" fill="url(#paint0_linear_2694_19603)"/>
										</g>
										<g filter="url(#filter2_b_2694_19603)">
										<path d="M40.5222 20.4494C40.2851 20.2996 39.9815 20.2903 39.7349 20.4119L29.6428 25.2696C29.3582 25.4007 29.1875 25.6815 29.1875 25.9903V50.1945C29.1875 50.4753 29.3298 50.7281 29.5669 50.8778C29.6997 50.962 29.8515 50.9995 30.0032 50.9995C30.1265 50.9995 30.2498 50.9714 30.3637 50.9152L40.4558 46.0576C40.7403 45.9265 40.9111 45.6457 40.9111 45.3369V21.1326C40.9111 20.8519 40.7688 20.5991 40.5317 20.4494H40.5222Z" fill="url(#paint1_linear_2694_19603)"/>
										</g>
										<mask id="mask0_2694_19603" style="mask-type:alpha" maskUnits="userSpaceOnUse" x="29" y="20" width="12" height="31">
										<path d="M40.5222 20.4494C40.2851 20.2996 39.9815 20.2903 39.7349 20.4119L29.6428 25.2696C29.3582 25.4007 29.1875 25.6815 29.1875 25.9903V50.1945C29.1875 50.4753 29.3298 50.7281 29.5669 50.8778C29.6997 50.962 29.8515 50.9995 30.0032 50.9995C30.1265 50.9995 30.2498 50.9714 30.3637 50.9152L40.4558 46.0576C40.7403 45.9265 40.9111 45.6457 40.9111 45.3369V21.1326C40.9111 20.8519 40.7688 20.5991 40.5317 20.4494H40.5222Z" fill="url(#paint2_linear_2694_19603)"/>
										</mask>
										<g mask="url(#mask0_2694_19603)">
										<g opacity="0.7" filter="url(#filter3_f_2694_19603)">
										<path d="M29.8109 32.3258L29.09 35.2267C29.09 35.2267 32.4671 34.6796 34.6893 32.9297C36.9114 31.1798 39.4366 27.2962 39.4366 27.2962L36.9288 25.9044L29.8109 32.3258Z" fill="url(#paint3_linear_2694_19603)"/>
										</g>
										</g>
										<g filter="url(#filter4_b_2694_19603)">
										<path d="M50.5385 25.2625L40.4464 20.4048C40.3326 20.3486 40.2092 20.3205 40.0859 20.3299V46.2376L49.8176 50.9268C49.9315 50.983 50.0548 51.011 50.1781 51.011C50.3298 51.011 50.4816 50.9736 50.6144 50.8894C50.8515 50.7396 50.9938 50.4869 50.9938 50.2061V26.0019C50.9938 25.693 50.8136 25.4122 50.5385 25.2812V25.2625Z" fill="url(#paint4_linear_2694_19603)"/>
										</g>
										<g filter="url(#filter5_b_2694_19603)">
										<path d="M29.999 25.0915L20.2673 20.4023C20.2673 20.4023 20.1724 20.3648 20.125 20.3555V46.1789L29.6386 50.9243C29.7524 50.9804 29.8757 51.0085 29.999 51.0085V25.1008V25.0915Z" fill="url(#paint5_linear_2694_19603)"/>
										</g>
										<mask id="mask1_2694_19603" style="mask-type:alpha" maskUnits="userSpaceOnUse" x="20" y="20" width="10" height="32">
										<path d="M29.999 25.0915L20.2673 20.4023C20.2673 20.4023 20.1724 20.3648 20.125 20.3555V46.1789L29.6386 50.9243C29.7524 50.9804 29.8757 51.0085 29.999 51.0085V25.1008V25.0915Z" fill="url(#paint6_linear_2694_19603)"/>
										</mask>
										<g mask="url(#mask1_2694_19603)">
										<g opacity="0.7" filter="url(#filter6_f_2694_19603)">
										<path d="M24.0198 26.5845L21.0541 26.211C21.0541 26.211 21.9961 29.5 23.9961 31.5C25.9961 33.5 30.1507 35.5491 30.1507 35.5491L31.2367 32.8945L24.0198 26.5845Z" fill="url(#paint7_linear_2694_19603)"/>
										</g>
										</g>
										<path d="M39.6855 22.6004C39.206 26.9616 36.773 30.0009 34.4447 31.957C33.2809 32.9346 32.1466 33.6385 31.3037 34.0977C30.8824 34.3272 30.5344 34.4953 30.2926 34.6057C30.1728 34.6604 30.0791 34.7008 30.0156 34.7276C30.0118 34.7258 30.0079 34.724 30.004 34.7222C29.9327 34.6887 29.8274 34.6381 29.6928 34.57C29.4237 34.4338 29.0378 34.2282 28.5741 33.9515C27.6463 33.3979 26.4096 32.5616 25.1738 31.4315C22.7007 29.17 20.25 25.7504 20.25 21.0742C20.25 15.6522 24.6176 11.2556 30.0001 11.25C35.93 11.2439 40.3411 16.6362 39.6855 22.6004Z" fill="url(#paint8_linear_2694_19603)" stroke="url(#paint9_linear_2694_19603)" stroke-width="0.5"/>
										<path d="M33.8425 20.7345C33.8425 22.803 32.1447 24.469 30.058 24.469C27.9713 24.469 26.2734 22.7937 26.2734 20.7345C26.2734 18.6754 27.9713 17 30.058 17C32.1447 17 33.8425 18.6754 33.8425 20.7345Z" fill="#070917"/>
										</g>
										<circle opacity="0.3" cx="34.25" cy="9.25" r="0.25" fill="#8B9FCE"/>
										<circle opacity="0.3" cx="33.25" cy="6.25" r="0.25" fill="#8B9FCE"/>
										<circle opacity="0.9" cx="43.25" cy="17.25" r="0.25" fill="#8B9FCE"/>
										<circle opacity="0.3" cx="45.25" cy="6.25" r="0.25" fill="#8B9FCE"/>
										<circle opacity="0.3" cx="55.25" cy="20.25" r="0.25" fill="#8B9FCE"/>
										<circle opacity="0.3" cx="56.25" cy="10.25" r="0.25" fill="#8B9FCE"/>
										<circle opacity="0.3" cx="39.25" cy="3.25" r="0.25" fill="#8B9FCE"/>
										<circle opacity="0.3" cx="50.25" cy="14.25" r="0.25" fill="#8B9FCE"/>
										<circle opacity="0.3" cx="14.25" cy="11.25" r="0.25" fill="#8B9FCE"/>
										<circle opacity="0.3" cx="14.25" cy="17.25" r="0.25" fill="#8B9FCE"/>
										<circle opacity="0.9" cx="21.25" cy="13.25" r="0.25" fill="#8B9FCE"/>
										<circle opacity="0.3" cx="17.25" cy="5.25" r="0.25" fill="#8B9FCE"/>
										<circle opacity="0.9" cx="6.25" cy="19.25" r="0.25" fill="#8B9FCE"/>
										<circle opacity="0.9" cx="12.25" cy="27.25" r="0.25" fill="#8B9FCE"/>
										<circle opacity="0.3" cx="7.25" cy="13.25" r="0.25" fill="#8B9FCE"/>
										<circle opacity="0.3" cx="28.25" cy="7.25" r="0.25" fill="#8B9FCE"/>
										<circle opacity="0.3" cx="25.25" cy="8.25" r="0.25" fill="#8B9FCE"/>
										<circle opacity="0.9" cx="19.25" cy="9.25" r="0.25" fill="#8B9FCE"/>
										<circle opacity="0.3" cx="24.25" cy="5.25" r="0.25" fill="#8B9FCE"/>
										<circle opacity="0.3" cx="27.25" cy="2.25" r="0.25" fill="#8B9FCE"/>
										<circle opacity="0.3" cx="18.25" cy="2.25" r="0.25" fill="#8B9FCE"/>
										<circle opacity="0.3" cx="15.25" cy="2.25" r="0.25" fill="#8B9FCE"/>
										<circle opacity="0.9" cx="12.25" cy="5.25" r="0.25" fill="#8B9FCE"/>
										<circle opacity="0.9" cx="15.25" cy="8.25" r="0.25" fill="#8B9FCE"/>
										<circle opacity="0.3" cx="37.25" cy="6.25" r="0.25" fill="#8B9FCE"/>
										<circle opacity="0.3" cx="35.25" cy="3.25" r="0.25" fill="#8B9FCE"/>
										<circle opacity="0.9" cx="42.25" cy="6.25" r="0.25" fill="#8B9FCE"/>
										<circle opacity="0.9" cx="45.25" cy="3.25" r="0.25" fill="#8B9FCE"/>
										<circle opacity="0.3" cx="48.25" cy="9.25" r="0.25" fill="#8B9FCE"/>
										<circle opacity="0.3" cx="8.25" cy="3.25" r="0.25" fill="#8B9FCE"/>
										<circle opacity="0.3" cx="3.25" cy="8.25" r="0.25" fill="#8B9FCE"/>
										<circle opacity="0.3" cx="2.25" cy="14.25" r="0.25" fill="#8B9FCE"/>
										<circle opacity="0.3" cx="43.25" cy="9.25" r="0.25" fill="#8B9FCE"/>
										<circle opacity="0.3" cx="51.25" cy="3.25" r="0.25" fill="#8B9FCE"/>
										<circle opacity="0.3" cx="11.25" cy="13.25" r="0.25" fill="#8B9FCE"/>
										<circle opacity="0.9" cx="13.25" cy="22.25" r="0.25" fill="#8B9FCE"/>
										<circle opacity="0.9" cx="30.25" cy="4.25" r="0.25" fill="#8B9FCE"/>
										<circle opacity="0.1" cx="6.25" cy="26.25" r="0.25" fill="#8B9FCE"/>
										<circle opacity="0.1" cx="3.25" cy="23.25" r="0.25" fill="#8B9FCE"/>
										<circle opacity="0.1" cx="2.25" cy="27.25" r="0.25" fill="#8B9FCE"/>
										<circle opacity="0.1" cx="4.25" cy="31.25" r="0.25" fill="#8B9FCE"/>
										<circle opacity="0.3" cx="6.25" cy="34.25" r="0.25" fill="#8B9FCE"/>
										<circle opacity="0.3" cx="4.25" cy="35.25" r="0.25" fill="#8B9FCE"/>
										<circle opacity="0.1" cx="6.25" cy="38.25" r="0.25" fill="#8B9FCE"/>
										<circle opacity="0.1" cx="2.25" cy="40.25" r="0.25" fill="#8B9FCE"/>
										<circle opacity="0.1" cx="4.25" cy="42.25" r="0.25" fill="#8B9FCE"/>
										<circle opacity="0.1" cx="6.25" cy="41.25" r="0.25" fill="#8B9FCE"/>
										<circle opacity="0.1" cx="2.25" cy="45.25" r="0.25" fill="#8B9FCE"/>
										<circle opacity="0.1" cx="6.25" cy="45.25" r="0.25" fill="#8B9FCE"/>
										<circle opacity="0.1" cx="4.25" cy="44.25" r="0.25" fill="#8B9FCE"/>
										<circle opacity="0.1" cx="6.25" cy="29.25" r="0.25" fill="#8B9FCE"/>
										<circle opacity="0.1" cx="5.25" cy="24.25" r="0.25" fill="#8B9FCE"/>
										<circle opacity="0.1" cx="11.25" cy="28.25" r="0.25" fill="#8B9FCE"/>
										<circle opacity="0.1" cx="52.25" cy="26.25" r="0.25" fill="#8B9FCE"/>
										<circle opacity="0.1" cx="55.25" cy="25.25" r="0.25" fill="#8B9FCE"/>
										<circle opacity="0.1" cx="52.25" cy="19.25" r="0.25" fill="#8B9FCE"/>
										<circle opacity="0.1" cx="53.25" cy="17.25" r="0.25" fill="#8B9FCE"/>
										<circle opacity="0.1" cx="56.25" cy="14.25" r="0.25" fill="#8B9FCE"/>
										<circle opacity="0.1" cx="54.25" cy="7.25" r="0.25" fill="#8B9FCE"/>
										<circle opacity="0.1" cx="17.25" cy="29.25" r="0.25" fill="#8B9FCE"/>
										<circle opacity="0.3" cx="19.25" cy="31.25" r="0.25" fill="#8B9FCE"/>
										<circle opacity="0.3" cx="19.25" cy="28.25" r="0.25" fill="#8B9FCE"/>
										<circle opacity="0.1" cx="18.25" cy="26.25" r="0.25" fill="#8B9FCE"/>
										<circle opacity="0.3" cx="17.25" cy="22.25" r="0.25" fill="#8B9FCE"/>
										<circle opacity="0.1" cx="17.25" cy="20.25" r="0.25" fill="#8B9FCE"/>
										<circle opacity="0.3" cx="17.25" cy="16.25" r="0.25" fill="#8B9FCE"/>
										<circle opacity="0.3" cx="13.25" cy="25.25" r="0.25" fill="#8B9FCE"/>
										<circle opacity="0.3" cx="10.25" cy="20.25" r="0.25" fill="#8B9FCE"/>
										<circle opacity="0.3" cx="16.25" cy="26.25" r="0.25" fill="#8B9FCE"/>
										<circle opacity="0.3" cx="9.25" cy="23.25" r="0.25" fill="#8B9FCE"/>
										<circle opacity="0.9" cx="6.25" cy="9.25" r="0.25" fill="#8B9FCE"/>
										<circle opacity="0.3" cx="47.25" cy="25.25" r="0.25" fill="#8B9FCE"/>
										<circle opacity="0.1" cx="43.25" cy="20.25" r="0.25" fill="#8B9FCE"/>
										<circle opacity="0.1" cx="47.25" cy="27.25" r="0.25" fill="#8B9FCE"/>
										<circle opacity="0.1" cx="41.25" cy="30.25" r="0.25" fill="#8B9FCE"/>
										<circle opacity="0.1" cx="44.25" cy="27.25" r="0.25" fill="#8B9FCE"/>
										<circle opacity="0.1" cx="42.25" cy="27.25" r="0.25" fill="#8B9FCE"/>
										<circle opacity="0.1" cx="44.25" cy="24.25" r="0.25" fill="#8B9FCE"/>
										<circle opacity="0.3" cx="48.25" cy="21.25" r="0.25" fill="#8B9FCE"/>
										<circle opacity="0.3" cx="45.25" cy="21.25" r="0.25" fill="#8B9FCE"/>
										<circle opacity="0.3" cx="48.25" cy="18.25" r="0.25" fill="#8B9FCE"/>
										<circle opacity="0.3" cx="51.25" cy="22.25" r="0.25" fill="#8B9FCE"/>
										<circle opacity="0.1" cx="53.25" cy="46.25" r="0.25" fill="#8B9FCE"/>
										<circle opacity="0.1" cx="52.25" cy="52.25" r="0.25" fill="#8B9FCE"/>
										<circle opacity="0.1" cx="52.25" cy="56.25" r="0.25" fill="#8B9FCE"/>
										<circle opacity="0.1" cx="54.25" cy="51.25" r="0.25" fill="#8B9FCE"/>
										<circle opacity="0.1" cx="56.25" cy="46.25" r="0.25" fill="#8B9FCE"/>
										<circle opacity="0.1" cx="54.25" cy="40.25" r="0.25" fill="#8B9FCE"/>
										<circle opacity="0.1" cx="56.25" cy="37.25" r="0.25" fill="#8B9FCE"/>
										<circle opacity="0.1" cx="57.25" cy="42.25" r="0.25" fill="#8B9FCE"/>
										<circle opacity="0.1" cx="53.25" cy="36.25" r="0.25" fill="#8B9FCE"/>
										<circle opacity="0.1" cx="55.25" cy="34.25" r="0.25" fill="#8B9FCE"/>
										<circle opacity="0.1" cx="57.25" cy="31.25" r="0.25" fill="#8B9FCE"/>
										<circle opacity="0.3" cx="55.25" cy="31.25" r="0.25" fill="#8B9FCE"/>
										<circle opacity="0.1" cx="45.25" cy="54.25" r="0.25" fill="#8B9FCE"/>
										<circle opacity="0.1" cx="44.25" cy="50.25" r="0.25" fill="#8B9FCE"/>
										<circle opacity="0.1" cx="44.25" cy="58.25" r="0.25" fill="#8B9FCE"/>
										<circle opacity="0.1" cx="38.25" cy="56.25" r="0.25" fill="#8B9FCE"/>
										<circle opacity="0.1" cx="33.25" cy="57.25" r="0.25" fill="#8B9FCE"/>
										<circle opacity="0.1" cx="40.25" cy="49.25" r="0.25" fill="#8B9FCE"/>
										<circle opacity="0.1" cx="39.25" cy="54.25" r="0.25" fill="#8B9FCE"/>
										<circle opacity="0.1" cx="40.25" cy="51.25" r="0.25" fill="#8B9FCE"/>
										<circle opacity="0.1" cx="36.25" cy="52.25" r="0.25" fill="#8B9FCE"/>
										<circle opacity="0.1" cx="30.25" cy="56.25" r="0.25" fill="#8B9FCE"/>
										<circle opacity="0.1" cx="31.25" cy="54.25" r="0.25" fill="#8B9FCE"/>
										<circle opacity="0.1" cx="34.25" cy="51.25" r="0.25" fill="#8B9FCE"/>
										<circle opacity="0.1" cx="24.25" cy="53.25" r="0.25" fill="#8B9FCE"/>
										<circle opacity="0.1" cx="22.25" cy="50.25" r="0.25" fill="#8B9FCE"/>
										<circle opacity="0.1" cx="22.25" cy="55.25" r="0.25" fill="#8B9FCE"/>
										<circle opacity="0.1" cx="19.25" cy="57.25" r="0.25" fill="#8B9FCE"/>
										<circle opacity="0.1" cx="17.25" cy="52.25" r="0.25" fill="#8B9FCE"/>
										<circle opacity="0.1" cx="20.25" cy="52.25" r="0.25" fill="#8B9FCE"/>
										<circle opacity="0.1" cx="19.25" cy="49.25" r="0.25" fill="#8B9FCE"/>
										<circle opacity="0.1" cx="11.25" cy="54.25" r="0.25" fill="#8B9FCE"/>
										<circle opacity="0.1" cx="13.25" cy="57.25" r="0.25" fill="#8B9FCE"/>
										<circle opacity="0.1" cx="15.25" cy="55.25" r="0.25" fill="#8B9FCE"/>
										<circle opacity="0.1" cx="6.25" cy="52.25" r="0.25" fill="#8B9FCE"/>
										<circle opacity="0.1" cx="3.25" cy="50.25" r="0.25" fill="#8B9FCE"/>
										<circle opacity="0.1" cx="6.25" cy="48.25" r="0.25" fill="#8B9FCE"/>
										<circle opacity="0.3" cx="44.25" cy="14.25" r="0.25" fill="#8B9FCE"/>
										<circle opacity="0.3" cx="39.25" cy="11.25" r="0.25" fill="#8B9FCE"/>
										<circle opacity="0.1" cx="37.25" cy="11.25" r="0.25" fill="#8B9FCE"/>
										<circle opacity="0.3" cx="42.25" cy="13.25" r="0.25" fill="#8B9FCE"/>
										<circle opacity="0.1" cx="40.25" cy="14.25" r="0.25" fill="#8B9FCE"/>
										<circle opacity="0.3" cx="50.25" cy="6.25" r="0.25" fill="#8B9FCE"/>
										<g filter="url(#filter7_b_2694_19603)">
										<rect x="0.25" y="0.25" width="59.5" height="59.5" rx="11.75" stroke="url(#paint10_linear_2694_19603)" stroke-width="0.5"/>
										</g>
										<defs>
										<filter id="filter0_b_2694_19603" x="-110" y="-110" width="280" height="280" filterUnits="userSpaceOnUse" color-interpolation-filters="sRGB">
										<feFlood flood-opacity="0" result="BackgroundImageFix"/>
										<feGaussianBlur in="BackgroundImageFix" stdDeviation="55"/>
										<feComposite in2="SourceAlpha" operator="in" result="effect1_backgroundBlur_2694_19603"/>
										<feBlend mode="normal" in="SourceGraphic" in2="effect1_backgroundBlur_2694_19603" result="shape"/>
										</filter>
										<filter id="filter1_b_2694_19603" x="-101" y="-89.6719" width="231.723" height="250.66" filterUnits="userSpaceOnUse" color-interpolation-filters="sRGB">
										<feFlood flood-opacity="0" result="BackgroundImageFix"/>
										<feGaussianBlur in="BackgroundImageFix" stdDeviation="55"/>
										<feComposite in2="SourceAlpha" operator="in" result="effect1_backgroundBlur_2694_19603"/>
										<feBlend mode="normal" in="SourceGraphic" in2="effect1_backgroundBlur_2694_19603" result="shape"/>
										</filter>
										<filter id="filter2_b_2694_19603" x="-80.8125" y="-89.6719" width="231.723" height="250.672" filterUnits="userSpaceOnUse" color-interpolation-filters="sRGB">
										<feFlood flood-opacity="0" result="BackgroundImageFix"/>
										<feGaussianBlur in="BackgroundImageFix" stdDeviation="55"/>
										<feComposite in2="SourceAlpha" operator="in" result="effect1_backgroundBlur_2694_19603"/>
										<feBlend mode="normal" in="SourceGraphic" in2="effect1_backgroundBlur_2694_19603" result="shape"/>
										</filter>
										<filter id="filter3_f_2694_19603" x="23.0898" y="19.9062" width="22.3477" height="21.3203" filterUnits="userSpaceOnUse" color-interpolation-filters="sRGB">
										<feFlood flood-opacity="0" result="BackgroundImageFix"/>
										<feBlend mode="normal" in="SourceGraphic" in2="BackgroundImageFix" result="shape"/>
										<feGaussianBlur stdDeviation="3" result="effect1_foregroundBlur_2694_19603"/>
										</filter>
										<filter id="filter4_b_2694_19603" x="-69.9141" y="-89.6719" width="230.906" height="250.684" filterUnits="userSpaceOnUse" color-interpolation-filters="sRGB">
										<feFlood flood-opacity="0" result="BackgroundImageFix"/>
										<feGaussianBlur in="BackgroundImageFix" stdDeviation="55"/>
										<feComposite in2="SourceAlpha" operator="in" result="effect1_backgroundBlur_2694_19603"/>
										<feBlend mode="normal" in="SourceGraphic" in2="effect1_backgroundBlur_2694_19603" result="shape"/>
										</filter>
										<filter id="filter5_b_2694_19603" x="-89.875" y="-89.6445" width="229.875" height="250.652" filterUnits="userSpaceOnUse" color-interpolation-filters="sRGB">
										<feFlood flood-opacity="0" result="BackgroundImageFix"/>
										<feGaussianBlur in="BackgroundImageFix" stdDeviation="55"/>
										<feComposite in2="SourceAlpha" operator="in" result="effect1_backgroundBlur_2694_19603"/>
										<feBlend mode="normal" in="SourceGraphic" in2="effect1_backgroundBlur_2694_19603" result="shape"/>
										</filter>
										<filter id="filter6_f_2694_19603" x="15.0547" y="20.2109" width="22.1836" height="21.3398" filterUnits="userSpaceOnUse" color-interpolation-filters="sRGB">
										<feFlood flood-opacity="0" result="BackgroundImageFix"/>
										<feBlend mode="normal" in="SourceGraphic" in2="BackgroundImageFix" result="shape"/>
										<feGaussianBlur stdDeviation="3" result="effect1_foregroundBlur_2694_19603"/>
										</filter>
										<filter id="filter7_b_2694_19603" x="-110" y="-110" width="280" height="280" filterUnits="userSpaceOnUse" color-interpolation-filters="sRGB">
										<feFlood flood-opacity="0" result="BackgroundImageFix"/>
										<feGaussianBlur in="BackgroundImageFix" stdDeviation="55"/>
										<feComposite in2="SourceAlpha" operator="in" result="effect1_backgroundBlur_2694_19603"/>
										<feBlend mode="normal" in="SourceGraphic" in2="effect1_backgroundBlur_2694_19603" result="shape"/>
										</filter>
										<linearGradient id="paint0_linear_2694_19603" x1="14.8618" y1="20.3281" x2="14.8618" y2="50.9901" gradientUnits="userSpaceOnUse">
										<stop stop-color="#111521"/>
										<stop offset="1" stop-color="#252B3D"/>
										</linearGradient>
										<linearGradient id="paint1_linear_2694_19603" x1="35.0493" y1="20.3281" x2="35.0493" y2="50.9995" gradientUnits="userSpaceOnUse">
										<stop stop-color="#111521"/>
										<stop offset="1" stop-color="#252B3D"/>
										</linearGradient>
										<linearGradient id="paint2_linear_2694_19603" x1="35.0493" y1="20.3281" x2="35.0493" y2="50.9995" gradientUnits="userSpaceOnUse">
										<stop stop-color="#111521"/>
										<stop offset="1" stop-color="#252B3D"/>
										</linearGradient>
										<linearGradient id="paint3_linear_2694_19603" x1="38.5" y1="27" x2="29.4994" y2="35.4994" gradientUnits="userSpaceOnUse">
										<stop stop-color="#191E2D"/>
										<stop offset="0.51" stop-color="#38485A"/>
										<stop offset="1" stop-color="white"/>
										</linearGradient>
										<linearGradient id="paint4_linear_2694_19603" x1="45.5399" y1="20.3281" x2="45.5399" y2="51.011" gradientUnits="userSpaceOnUse">
										<stop stop-color="#131827"/>
										<stop offset="1" stop-color="#303953"/>
										</linearGradient>
										<linearGradient id="paint5_linear_2694_19603" x1="25.062" y1="20.3555" x2="25.062" y2="51.0085" gradientUnits="userSpaceOnUse">
										<stop stop-color="#131827"/>
										<stop offset="1" stop-color="#303953"/>
										</linearGradient>
										<linearGradient id="paint6_linear_2694_19603" x1="25.062" y1="20.3555" x2="25.062" y2="51.0085" gradientUnits="userSpaceOnUse">
										<stop stop-color="#131827"/>
										<stop offset="1" stop-color="#303953"/>
										</linearGradient>
										<linearGradient id="paint7_linear_2694_19603" x1="26.0139" y1="30.1619" x2="30.996" y2="34.5001" gradientUnits="userSpaceOnUse">
										<stop stop-color="#5E5C5C"/>
										<stop offset="0.51" stop-color="#5C6165"/>
										<stop offset="1" stop-color="white"/>
										</linearGradient>
										<linearGradient id="paint8_linear_2694_19603" x1="30" y1="19.8571" x2="30" y2="28.5714" gradientUnits="userSpaceOnUse">
										<stop stop-color="#EEEEEE"/>
										<stop offset="0.51" stop-color="#C8DCF5"/>
										<stop offset="1" stop-color="#CBD5E2"/>
										</linearGradient>
										<linearGradient id="paint9_linear_2694_19603" x1="30" y1="34" x2="30.5" y2="11" gradientUnits="userSpaceOnUse">
										<stop stop-color="white"/>
										<stop offset="1" stop-color="#B8D9FF"/>
										</linearGradient>
										<linearGradient id="paint10_linear_2694_19603" x1="30" y1="0" x2="30" y2="60" gradientUnits="userSpaceOnUse">
										<stop stop-color="#212941"/>
										<stop offset="0.469183" stop-color="#2C3A65"/>
										<stop offset="1" stop-color="#272C3D"/>
										</linearGradient>
										<clipPath id="clip0_2694_19603">
										<rect width="42" height="44" fill="white" transform="translate(9 7)"/>
										</clipPath>
										</defs>
									</svg>