<svg xmlns="http://www.w3.org/2000/svg" width="11.79" height="7"><path d="M1.732 0H.442C.074 0 0 .173 0 .365a10.353 10.353 0 002.036 4.276A5.025 5.025 0 005.97 7c.82 0 .921-.184.921-.5V5.342c0-.368.078-.442.337-.442.191 0 .519.1 1.284.833C9.387 6.608 9.531 7 10.023 7h1.29c.368 0 .553-.184.446-.548a5.537 5.537 0 00-1.088-1.511c-.3-.355-.752-.738-.888-.929-.191-.246-.137-.355 0-.574A16.147 16.147 0 0011.518.474c.082-.273 0-.474-.39-.474h-1.29a.557.557 0 00-.561.365A10.784 10.784 0 017.693 3c-.3.3-.437.4-.6.4-.082 0-.2-.1-.2-.369V.474c0-.328-.1-.474-.368-.474H4.496a.311.311 0 00-.328.3c0 .311.465.382.513 1.257v1.9c0 .416-.075.492-.239.492-.437 0-1.5-1.606-2.132-3.443C2.186.144 2.062 0 1.732 0z" fill="#fff" fill-rule="evenodd"/></svg>