									<svg width="60" height="60" viewBox="0 0 60 60" fill="none" xmlns="http://www.w3.org/2000/svg">
										<g filter="url(#filter0_b_2739_9169)">
										<rect x="0.117188" width="59.883" height="60" rx="12" fill="#131827"/>
										</g>
										<mask id="mask0_2739_9169" style="mask-type:alpha" maskUnits="userSpaceOnUse" x="0" y="0" width="60" height="60">
										<rect x="0.25" y="0.25" width="59.383" height="59.5" rx="11.75" fill="#131827" stroke="url(#paint0_linear_2739_9169)" stroke-width="0.5"/>
										</mask>
										<g mask="url(#mask0_2739_9169)">
										<rect x="5.98828" y="3" width="0.998051" height="1" fill="#323F5F"/>
										<rect x="1.99609" y="3" width="0.998051" height="1" fill="#323F5F"/>
										<rect x="9.98047" y="3" width="0.998051" height="1" fill="#323F5F"/>
										<rect x="13.9727" y="3" width="0.998051" height="1" fill="#323F5F"/>
										<rect x="17.9648" y="3" width="0.998051" height="1" fill="#323F5F"/>
										<rect x="21.957" y="3" width="0.998051" height="1" fill="#323F5F"/>
										<rect x="25.9492" y="3" width="0.998051" height="1" fill="#323F5F"/>
										<rect x="29.9414" y="3" width="0.998051" height="1" fill="#323F5F"/>
										<rect x="33.9336" y="3" width="0.998051" height="1" fill="#323F5F"/>
										<rect x="37.9258" y="3" width="0.998051" height="1" fill="#323F5F"/>
										<rect x="41.918" y="3" width="0.998051" height="1" fill="#323F5F"/>
										<rect x="45.9102" y="3" width="0.998051" height="1" fill="#323F5F"/>
										<rect x="49.9023" y="3" width="0.998051" height="1" fill="#323F5F"/>
										<rect x="53.8945" y="3" width="0.998051" height="1" fill="#323F5F"/>
										<rect x="57.8867" y="3" width="0.998051" height="1" fill="#323F5F"/>
										<rect x="5.98828" y="7" width="0.998051" height="1" fill="#323F5F"/>
										<rect x="1.99609" y="7" width="0.998051" height="1" fill="#323F5F"/>
										<rect x="9.98047" y="7" width="0.998051" height="1" fill="#323F5F"/>
										<rect x="13.9727" y="7" width="0.998051" height="1" fill="#323F5F"/>
										<rect x="17.9648" y="7" width="0.998051" height="1" fill="#323F5F"/>
										<rect opacity="0.3" x="21.957" y="7" width="0.998051" height="1" fill="#323F5F"/>
										<rect opacity="0.3" x="25.9492" y="7" width="0.998051" height="1" fill="#323F5F"/>
										<rect opacity="0.3" x="29.9414" y="7" width="0.998051" height="1" fill="#323F5F"/>
										<rect x="33.9336" y="7" width="0.998051" height="1" fill="#323F5F"/>
										<rect opacity="0.6" x="37.9258" y="7" width="0.998051" height="1" fill="#323F5F"/>
										<rect opacity="0.6" x="41.918" y="7" width="0.998051" height="1" fill="#323F5F"/>
										<rect opacity="0.6" x="45.9102" y="7" width="0.998051" height="1" fill="#323F5F"/>
										<rect x="49.9023" y="7" width="0.998051" height="1" fill="#323F5F"/>
										<rect x="53.8945" y="7" width="0.998051" height="1" fill="#323F5F"/>
										<rect x="57.8867" y="7" width="0.998051" height="1" fill="#323F5F"/>
										<rect opacity="0.6" x="5.98828" y="11" width="0.998051" height="1" fill="#323F5F"/>
										<rect x="1.99609" y="11" width="0.998051" height="1" fill="#323F5F"/>
										<rect opacity="0.3" x="9.98047" y="11" width="0.998051" height="1" fill="#323F5F"/>
										<rect opacity="0.3" x="13.9727" y="11" width="0.998051" height="1" fill="#323F5F"/>
										<rect x="17.9648" y="11" width="0.998051" height="1" fill="#323F5F"/>
										<rect x="21.957" y="11" width="0.998051" height="1" fill="#323F5F"/>
										<rect x="25.9492" y="11" width="0.998051" height="1" fill="#323F5F"/>
										<rect opacity="0.3" x="29.9414" y="11" width="0.998051" height="1" fill="#323F5F"/>
										<rect opacity="0.3" x="33.9336" y="11" width="0.998051" height="1" fill="#323F5F"/>
										<rect opacity="0.3" x="37.9258" y="11" width="0.998051" height="1" fill="#323F5F"/>
										<rect opacity="0.6" x="41.918" y="11" width="0.998051" height="1" fill="#323F5F"/>
										<rect opacity="0.3" x="45.9102" y="11" width="0.998051" height="1" fill="#323F5F"/>
										<rect opacity="0.3" x="49.9023" y="11" width="0.998051" height="1" fill="#323F5F"/>
										<rect x="53.8945" y="11" width="0.998051" height="1" fill="#323F5F"/>
										<rect x="57.8867" y="11" width="0.998051" height="1" fill="#323F5F"/>
										<rect opacity="0.6" x="5.98828" y="15" width="0.998051" height="1" fill="#323F5F"/>
										<rect opacity="0.6" x="1.99609" y="15" width="0.998051" height="1" fill="#323F5F"/>
										<rect opacity="0.1" x="9.98047" y="15" width="0.998051" height="1" fill="#323F5F"/>
										<rect opacity="0.1" x="13.9727" y="15" width="0.998051" height="1" fill="#323F5F"/>
										<rect opacity="0.1" x="17.9648" y="15" width="0.998051" height="1" fill="#323F5F"/>
										<rect opacity="0.1" x="21.957" y="15" width="0.998051" height="1" fill="#323F5F"/>
										<rect opacity="0.1" x="25.9492" y="15" width="0.998051" height="1" fill="#323F5F"/>
										<rect opacity="0.3" x="29.9414" y="15" width="0.998051" height="1" fill="#323F5F"/>
										<rect opacity="0.3" x="33.9336" y="15" width="0.998051" height="1" fill="#323F5F"/>
										<rect opacity="0.3" x="37.9258" y="15" width="0.998051" height="1" fill="#323F5F"/>
										<rect opacity="0.3" x="41.918" y="15" width="0.998051" height="1" fill="#323F5F"/>
										<rect opacity="0.3" x="45.9102" y="15" width="0.998051" height="1" fill="#323F5F"/>
										<rect opacity="0.3" x="49.9023" y="15" width="0.998051" height="1" fill="#323F5F"/>
										<rect x="53.8945" y="15" width="0.998051" height="1" fill="#323F5F"/>
										<rect x="57.8867" y="15" width="0.998051" height="1" fill="#323F5F"/>
										<rect x="5.98828" y="19" width="0.998051" height="1" fill="#323F5F"/>
										<rect x="1.99609" y="19" width="0.998051" height="1" fill="#323F5F"/>
										<rect x="9.98047" y="19" width="0.998051" height="1" fill="#323F5F"/>
										<rect x="13.9727" y="19" width="0.998051" height="1" fill="#323F5F"/>
										<rect x="17.9648" y="19" width="0.998051" height="1" fill="#323F5F"/>
										<rect x="21.957" y="19" width="0.998051" height="1" fill="#323F5F"/>
										<rect x="25.9492" y="19" width="0.998051" height="1" fill="#323F5F"/>
										<rect x="29.9414" y="19" width="0.998051" height="1" fill="#323F5F"/>
										<rect x="33.9336" y="19" width="0.998051" height="1" fill="#323F5F"/>
										<rect x="37.9258" y="19" width="0.998051" height="1" fill="#323F5F"/>
										<rect x="41.918" y="19" width="0.998051" height="1" fill="#323F5F"/>
										<rect x="45.9102" y="19" width="0.998051" height="1" fill="#323F5F"/>
										<rect x="49.9023" y="19" width="0.998051" height="1" fill="#323F5F"/>
										<rect opacity="0.6" x="53.8945" y="19" width="0.998051" height="1" fill="#323F5F"/>
										<rect x="57.8867" y="19" width="0.998051" height="1" fill="#323F5F"/>
										<g opacity="0.3">
										<rect x="5.98828" y="23" width="0.998051" height="1" fill="#323F5F"/>
										<rect x="1.99609" y="23" width="0.998051" height="1" fill="#323F5F"/>
										<rect x="9.98047" y="23" width="0.998051" height="1" fill="#323F5F"/>
										<rect x="13.9727" y="23" width="0.998051" height="1" fill="#323F5F"/>
										<rect x="17.9648" y="23" width="0.998051" height="1" fill="#323F5F"/>
										<rect x="21.957" y="23" width="0.998051" height="1" fill="#323F5F"/>
										<rect x="25.9492" y="23" width="0.998051" height="1" fill="#323F5F"/>
										<rect x="29.9414" y="23" width="0.998051" height="1" fill="#323F5F"/>
										<rect x="33.9336" y="23" width="0.998051" height="1" fill="#323F5F"/>
										<rect x="37.9258" y="23" width="0.998051" height="1" fill="#323F5F"/>
										<rect x="41.918" y="23" width="0.998051" height="1" fill="#323F5F"/>
										<rect x="45.9102" y="23" width="0.998051" height="1" fill="#323F5F"/>
										<rect x="49.9023" y="23" width="0.998051" height="1" fill="#323F5F"/>
										<rect opacity="0.6" x="53.8945" y="23" width="0.998051" height="1" fill="#323F5F"/>
										<rect x="57.8867" y="23" width="0.998051" height="1" fill="#323F5F"/>
										</g>
										<g opacity="0.3">
										<rect x="5.98828" y="27" width="0.998051" height="1" fill="#323F5F"/>
										<rect opacity="0.1" x="1.99609" y="27" width="0.998051" height="1" fill="#323F5F"/>
										<rect x="9.98047" y="27" width="0.998051" height="1" fill="#323F5F"/>
										<rect x="13.9727" y="27" width="0.998051" height="1" fill="#323F5F"/>
										<rect x="17.9648" y="27" width="0.998051" height="1" fill="#323F5F"/>
										<rect x="21.957" y="27" width="0.998051" height="1" fill="#323F5F"/>
										<rect x="25.9492" y="27" width="0.998051" height="1" fill="#323F5F"/>
										<rect x="29.9414" y="27" width="0.998051" height="1" fill="#323F5F"/>
										<rect x="33.9336" y="27" width="0.998051" height="1" fill="#323F5F"/>
										<rect x="37.9258" y="27" width="0.998051" height="1" fill="#323F5F"/>
										<rect x="41.918" y="27" width="0.998051" height="1" fill="#323F5F"/>
										<rect x="45.9102" y="27" width="0.998051" height="1" fill="#323F5F"/>
										<rect x="49.9023" y="27" width="0.998051" height="1" fill="#323F5F"/>
										<rect opacity="0.3" x="53.8945" y="27" width="0.998051" height="1" fill="#323F5F"/>
										<rect x="57.8867" y="27" width="0.998051" height="1" fill="#323F5F"/>
										</g>
										<g opacity="0.3">
										<rect x="5.98828" y="31" width="0.998051" height="1" fill="#323F5F"/>
										<rect x="1.99609" y="31" width="0.998051" height="1" fill="#323F5F"/>
										<rect x="9.98047" y="31" width="0.998051" height="1" fill="#323F5F"/>
										<rect x="13.9727" y="31" width="0.998051" height="1" fill="#323F5F"/>
										<rect x="17.9648" y="31" width="0.998051" height="1" fill="#323F5F"/>
										<rect x="21.957" y="31" width="0.998051" height="1" fill="#323F5F"/>
										<rect x="25.9492" y="31" width="0.998051" height="1" fill="#323F5F"/>
										<rect x="29.9414" y="31" width="0.998051" height="1" fill="#323F5F"/>
										<rect x="33.9336" y="31" width="0.998051" height="1" fill="#323F5F"/>
										<rect x="37.9258" y="31" width="0.998051" height="1" fill="#323F5F"/>
										<rect x="41.918" y="31" width="0.998051" height="1" fill="#323F5F"/>
										<rect x="45.9102" y="31" width="0.998051" height="1" fill="#323F5F"/>
										<rect x="49.9023" y="31" width="0.998051" height="1" fill="#323F5F"/>
										<rect opacity="0.3" x="53.8945" y="31" width="0.998051" height="1" fill="#323F5F"/>
										<rect x="57.8867" y="31" width="0.998051" height="1" fill="#323F5F"/>
										</g>
										<rect x="5.98828" y="35" width="0.998051" height="1" fill="#323F5F"/>
										<rect opacity="0.3" x="1.99609" y="35" width="0.998051" height="1" fill="#323F5F"/>
										<rect x="9.98047" y="35" width="0.998051" height="1" fill="#323F5F"/>
										<rect x="13.9727" y="35" width="0.998051" height="1" fill="#323F5F"/>
										<rect x="17.9648" y="35" width="0.998051" height="1" fill="#323F5F"/>
										<rect x="21.957" y="35" width="0.998051" height="1" fill="#323F5F"/>
										<rect x="25.9492" y="35" width="0.998051" height="1" fill="#323F5F"/>
										<rect x="29.9414" y="35" width="0.998051" height="1" fill="#323F5F"/>
										<rect x="33.9336" y="35" width="0.998051" height="1" fill="#323F5F"/>
										<rect x="37.9258" y="35" width="0.998051" height="1" fill="#323F5F"/>
										<rect x="41.918" y="35" width="0.998051" height="1" fill="#323F5F"/>
										<rect x="45.9102" y="35" width="0.998051" height="1" fill="#323F5F"/>
										<rect x="49.9023" y="35" width="0.998051" height="1" fill="#323F5F"/>
										<rect opacity="0.3" x="53.8945" y="35" width="0.998051" height="1" fill="#323F5F"/>
										<rect x="57.8867" y="35" width="0.998051" height="1" fill="#323F5F"/>
										<g opacity="0.1">
										<rect x="5.98828" y="39" width="0.998051" height="1" fill="#323F5F"/>
										<rect opacity="0.6" x="1.99609" y="39" width="0.998051" height="1" fill="#323F5F"/>
										<rect x="9.98047" y="39" width="0.998051" height="1" fill="#323F5F"/>
										<rect x="13.9727" y="39" width="0.998051" height="1" fill="#323F5F"/>
										<rect x="17.9648" y="39" width="0.998051" height="1" fill="#323F5F"/>
										<rect x="21.957" y="39" width="0.998051" height="1" fill="#323F5F"/>
										<rect x="25.9492" y="39" width="0.998051" height="1" fill="#323F5F"/>
										<rect x="29.9414" y="39" width="0.998051" height="1" fill="#323F5F"/>
										<rect x="33.9336" y="39" width="0.998051" height="1" fill="#323F5F"/>
										<rect x="37.9258" y="39" width="0.998051" height="1" fill="#323F5F"/>
										<rect x="41.918" y="39" width="0.998051" height="1" fill="#323F5F"/>
										<rect x="45.9102" y="39" width="0.998051" height="1" fill="#323F5F"/>
										<rect x="49.9023" y="39" width="0.998051" height="1" fill="#323F5F"/>
										<rect opacity="0.3" x="53.8945" y="39" width="0.998051" height="1" fill="#323F5F"/>
										<rect x="57.8867" y="39" width="0.998051" height="1" fill="#323F5F"/>
										</g>
										<rect opacity="0.3" x="5.98828" y="43" width="0.998051" height="1" fill="#323F5F"/>
										<rect opacity="0.3" x="1.99609" y="43" width="0.998051" height="1" fill="#323F5F"/>
										<rect opacity="0.3" x="9.98047" y="43" width="0.998051" height="1" fill="#323F5F"/>
										<rect opacity="0.3" x="13.9727" y="43" width="0.998051" height="1" fill="#323F5F"/>
										<rect opacity="0.1" x="17.9648" y="43" width="0.998051" height="1" fill="#323F5F"/>
										<rect opacity="0.1" x="21.957" y="43" width="0.998051" height="1" fill="#323F5F"/>
										<rect opacity="0.1" x="25.9492" y="43" width="0.998051" height="1" fill="#323F5F"/>
										<rect opacity="0.1" x="29.9414" y="43" width="0.998051" height="1" fill="#323F5F"/>
										<rect opacity="0.1" x="33.9336" y="43" width="0.998051" height="1" fill="#323F5F"/>
										<rect opacity="0.1" x="37.9258" y="43" width="0.998051" height="1" fill="#323F5F"/>
										<rect opacity="0.1" x="41.918" y="43" width="0.998051" height="1" fill="#323F5F"/>
										<rect opacity="0.1" x="45.9102" y="43" width="0.998051" height="1" fill="#323F5F"/>
										<rect opacity="0.1" x="49.9023" y="43" width="0.998051" height="1" fill="#323F5F"/>
										<rect opacity="0.1" x="53.8945" y="43" width="0.998051" height="1" fill="#323F5F"/>
										<rect x="57.8867" y="43" width="0.998051" height="1" fill="#323F5F"/>
										<rect x="5.98828" y="47" width="0.998051" height="1" fill="#323F5F"/>
										<rect x="1.99609" y="47" width="0.998051" height="1" fill="#323F5F"/>
										<rect opacity="0.6" x="9.98047" y="47" width="0.998051" height="1" fill="#323F5F"/>
										<rect x="13.9727" y="47" width="0.998051" height="1" fill="#323F5F"/>
										<rect opacity="0.3" x="17.9648" y="47" width="0.998051" height="1" fill="#323F5F"/>
										<rect opacity="0.3" x="21.957" y="47" width="0.998051" height="1" fill="#323F5F"/>
										<rect opacity="0.3" x="25.9492" y="47" width="0.998051" height="1" fill="#323F5F"/>
										<rect opacity="0.3" x="29.9414" y="47" width="0.998051" height="1" fill="#323F5F"/>
										<rect x="33.9336" y="47" width="0.998051" height="1" fill="#323F5F"/>
										<rect x="37.9258" y="47" width="0.998051" height="1" fill="#323F5F"/>
										<rect opacity="0.6" x="41.918" y="47" width="0.998051" height="1" fill="#323F5F"/>
										<rect x="45.9102" y="47" width="0.998051" height="1" fill="#323F5F"/>
										<rect opacity="0.6" x="49.9023" y="47" width="0.998051" height="1" fill="#323F5F"/>
										<rect x="53.8945" y="47" width="0.998051" height="1" fill="#323F5F"/>
										<rect x="57.8867" y="47" width="0.998051" height="1" fill="#323F5F"/>
										<rect opacity="0.3" x="5.98828" y="51" width="0.998051" height="1" fill="#323F5F"/>
										<rect x="1.99609" y="51" width="0.998051" height="1" fill="#323F5F"/>
										<rect x="9.98047" y="51" width="0.998051" height="1" fill="#323F5F"/>
										<rect x="13.9727" y="51" width="0.998051" height="1" fill="#323F5F"/>
										<rect opacity="0.6" x="17.9648" y="51" width="0.998051" height="1" fill="#323F5F"/>
										<rect opacity="0.3" x="21.957" y="51" width="0.998051" height="1" fill="#323F5F"/>
										<rect x="25.9492" y="51" width="0.998051" height="1" fill="#323F5F"/>
										<rect opacity="0.3" x="29.9414" y="51" width="0.998051" height="1" fill="#323F5F"/>
										<rect x="33.9336" y="51" width="0.998051" height="1" fill="#323F5F"/>
										<rect opacity="0.3" x="37.9258" y="51" width="0.998051" height="1" fill="#323F5F"/>
										<rect x="41.918" y="51" width="0.998051" height="1" fill="#323F5F"/>
										<rect x="45.9102" y="51" width="0.998051" height="1" fill="#323F5F"/>
										<rect opacity="0.6" x="49.9023" y="51" width="0.998051" height="1" fill="#323F5F"/>
										<rect x="53.8945" y="51" width="0.998051" height="1" fill="#323F5F"/>
										<rect x="57.8867" y="51" width="0.998051" height="1" fill="#323F5F"/>
										<rect x="5.98828" y="55" width="0.998051" height="1" fill="#323F5F"/>
										<rect x="1.99609" y="55" width="0.998051" height="1" fill="#323F5F"/>
										<rect x="9.98047" y="55" width="0.998051" height="1" fill="#323F5F"/>
										<rect x="13.9727" y="55" width="0.998051" height="1" fill="#323F5F"/>
										<rect x="17.9648" y="55" width="0.998051" height="1" fill="#323F5F"/>
										<rect x="21.957" y="55" width="0.998051" height="1" fill="#323F5F"/>
										<rect x="25.9492" y="55" width="0.998051" height="1" fill="#323F5F"/>
										<rect x="29.9414" y="55" width="0.998051" height="1" fill="#323F5F"/>
										<rect opacity="0.3" x="33.9336" y="55" width="0.998051" height="1" fill="#323F5F"/>
										<rect x="37.9258" y="55" width="0.998051" height="1" fill="#323F5F"/>
										<rect x="41.918" y="55" width="0.998051" height="1" fill="#323F5F"/>
										<rect x="45.9102" y="55" width="0.998051" height="1" fill="#323F5F"/>
										<rect x="49.9023" y="55" width="0.998051" height="1" fill="#323F5F"/>
										<rect x="53.8945" y="55" width="0.998051" height="1" fill="#323F5F"/>
										<rect x="57.8867" y="55" width="0.998051" height="1" fill="#323F5F"/>
										<rect x="5.98828" y="59" width="0.998051" height="1" fill="#323F5F"/>
										<rect x="1.99609" y="59" width="0.998051" height="1" fill="#323F5F"/>
										<rect x="9.98047" y="59" width="0.998051" height="1" fill="#323F5F"/>
										<rect x="13.9727" y="59" width="0.998051" height="1" fill="#323F5F"/>
										<rect x="17.9648" y="59" width="0.998051" height="1" fill="#323F5F"/>
										<rect x="21.957" y="59" width="0.998051" height="1" fill="#323F5F"/>
										<rect x="25.9492" y="59" width="0.998051" height="1" fill="#323F5F"/>
										<rect x="29.9414" y="59" width="0.998051" height="1" fill="#323F5F"/>
										<rect x="33.9336" y="59" width="0.998051" height="1" fill="#323F5F"/>
										<rect x="37.9258" y="59" width="0.998051" height="1" fill="#323F5F"/>
										<rect x="41.918" y="59" width="0.998051" height="1" fill="#323F5F"/>
										<rect x="45.9102" y="59" width="0.998051" height="1" fill="#323F5F"/>
										<rect x="49.9023" y="59" width="0.998051" height="1" fill="#323F5F"/>
										<rect x="53.8945" y="59" width="0.998051" height="1" fill="#323F5F"/>
										<rect x="57.8867" y="59" width="0.998051" height="1" fill="#323F5F"/>
										</g>
										<rect opacity="0.7" width="59.883" height="60" rx="12" fill="url(#paint1_radial_2739_9169)"/>
										<g filter="url(#filter1_f_2739_9169)">
										<ellipse cx="29.0586" cy="37" rx="7.98441" ry="3" fill="black"/>
										</g>
										<g clip-path="url(#clip0_2739_9169)">
										<g filter="url(#filter2_b_2739_9169)">
										<path d="M46.0391 43.4056H37.0756C36.4819 43.4056 35.9188 43.6694 35.5388 44.1256L31.1954 49.3409C30.4475 50.239 29.0528 50.2157 28.3357 49.2931L24.3597 44.1778C23.9808 43.6904 23.398 43.4052 22.7806 43.4052H13.9609C9.56431 43.4056 6 39.8695 6 35.5077V18.8978C6 14.536 9.56431 11 13.9609 11H46.0391C50.4357 11 54 14.536 54 18.8978V35.5077C54 39.8695 50.4357 43.4056 46.0391 43.4056Z" fill="url(#paint2_linear_2739_9169)"/>
										<path d="M46.0391 43.1556H37.0756C36.4077 43.1556 35.7742 43.4524 35.3467 43.9656L31.0033 49.1809L31.1954 49.3409L31.0032 49.1809C30.3575 49.9564 29.1522 49.9362 28.5331 49.1396L24.5571 44.0244C24.1308 43.476 23.4752 43.1552 22.7806 43.1552H13.9609C9.7005 43.1555 6.25 39.7296 6.25 35.5077V18.8978C6.25 14.676 9.7005 11.25 13.9609 11.25H46.0391C50.2995 11.25 53.75 14.676 53.75 18.8978V35.5077C53.75 39.7296 50.2995 43.1556 46.0391 43.1556Z" stroke="url(#paint3_linear_2739_9169)" stroke-width="0.5"/>
										</g>
										<g opacity="0.5" filter="url(#filter3_f_2739_9169)">
										<circle cx="32" cy="27" r="9" fill="#6173A5"/>
										</g>
										<path d="M37.095 29.3508L31.0491 34.6688C30.5469 35.1104 29.7917 35.1104 29.2898 34.6688L23.2438 29.3508C17.1838 24.0335 24.7301 16.223 30.1693 22.4765C34.8948 15.8319 42.5989 24.0865 37.095 29.3508Z" fill="url(#paint4_linear_2739_9169)"/>
										<mask id="mask1_2739_9169" style="mask-type:alpha" maskUnits="userSpaceOnUse" x="21" y="20" width="18" height="15">
										<path d="M37.095 29.3508L31.0491 34.6688C30.5469 35.1104 29.7917 35.1104 29.2898 34.6688L23.2438 29.3508C17.1838 24.0335 24.7301 16.223 30.1693 22.4765C34.8948 15.8319 42.5989 24.0865 37.095 29.3508Z" fill="url(#paint5_linear_2739_9169)"/>
										</mask>
										<g mask="url(#mask1_2739_9169)">
										<g opacity="0.5" filter="url(#filter4_f_2739_9169)">
										<circle cx="22" cy="32" r="6" fill="white"/>
										</g>
										<g opacity="0.5" filter="url(#filter5_f_2739_9169)">
										<circle cx="33" cy="20" r="4" fill="#69A2E4"/>
										</g>
										<g opacity="0.5" filter="url(#filter6_f_2739_9169)">
										<circle cx="27.5" cy="19.5" r="3.5" fill="#69A2E4"/>
										</g>
										<g opacity="0.5" filter="url(#filter7_f_2739_9169)">
										<circle cx="39.5" cy="21.5" r="3.5" fill="#69A2E4"/>
										</g>
										<g opacity="0.7" filter="url(#filter8_f_2739_9169)">
										<ellipse cx="30" cy="23" rx="1" ry="2" fill="#69A2E4"/>
										</g>
										<g opacity="0.5" filter="url(#filter9_f_2739_9169)">
										<circle cx="23.5" cy="20.5" r="3.5" fill="#69A2E4"/>
										</g>
										</g>
										</g>
										<g filter="url(#filter10_b_2739_9169)">
										<rect x="0.25" y="0.25" width="59.383" height="59.5" rx="11.75" stroke="url(#paint6_linear_2739_9169)" stroke-width="0.5"/>
										</g>
										<defs>
										<filter id="filter0_b_2739_9169" x="-109.883" y="-110" width="279.883" height="280" filterUnits="userSpaceOnUse" color-interpolation-filters="sRGB">
										<feFlood flood-opacity="0" result="BackgroundImageFix"/>
										<feGaussianBlur in="BackgroundImageFix" stdDeviation="55"/>
										<feComposite in2="SourceAlpha" operator="in" result="effect1_backgroundBlur_2739_9169"/>
										<feBlend mode="normal" in="SourceGraphic" in2="effect1_backgroundBlur_2739_9169" result="shape"/>
										</filter>
										<filter id="filter1_f_2739_9169" x="5.07422" y="18" width="47.9688" height="38" filterUnits="userSpaceOnUse" color-interpolation-filters="sRGB">
										<feFlood flood-opacity="0" result="BackgroundImageFix"/>
										<feBlend mode="normal" in="SourceGraphic" in2="BackgroundImageFix" result="shape"/>
										<feGaussianBlur stdDeviation="8" result="effect1_foregroundBlur_2739_9169"/>
										</filter>
										<filter id="filter2_b_2739_9169" x="-104" y="-99" width="268" height="259" filterUnits="userSpaceOnUse" color-interpolation-filters="sRGB">
										<feFlood flood-opacity="0" result="BackgroundImageFix"/>
										<feGaussianBlur in="BackgroundImageFix" stdDeviation="55"/>
										<feComposite in2="SourceAlpha" operator="in" result="effect1_backgroundBlur_2739_9169"/>
										<feBlend mode="normal" in="SourceGraphic" in2="effect1_backgroundBlur_2739_9169" result="shape"/>
										</filter>
										<filter id="filter3_f_2739_9169" x="7" y="2" width="50" height="50" filterUnits="userSpaceOnUse" color-interpolation-filters="sRGB">
										<feFlood flood-opacity="0" result="BackgroundImageFix"/>
										<feBlend mode="normal" in="SourceGraphic" in2="BackgroundImageFix" result="shape"/>
										<feGaussianBlur stdDeviation="8" result="effect1_foregroundBlur_2739_9169"/>
										</filter>
										<filter id="filter4_f_2739_9169" x="8" y="18" width="28" height="28" filterUnits="userSpaceOnUse" color-interpolation-filters="sRGB">
										<feFlood flood-opacity="0" result="BackgroundImageFix"/>
										<feBlend mode="normal" in="SourceGraphic" in2="BackgroundImageFix" result="shape"/>
										<feGaussianBlur stdDeviation="4" result="effect1_foregroundBlur_2739_9169"/>
										</filter>
										<filter id="filter5_f_2739_9169" x="25" y="12" width="16" height="16" filterUnits="userSpaceOnUse" color-interpolation-filters="sRGB">
										<feFlood flood-opacity="0" result="BackgroundImageFix"/>
										<feBlend mode="normal" in="SourceGraphic" in2="BackgroundImageFix" result="shape"/>
										<feGaussianBlur stdDeviation="2" result="effect1_foregroundBlur_2739_9169"/>
										</filter>
										<filter id="filter6_f_2739_9169" x="20" y="12" width="15" height="15" filterUnits="userSpaceOnUse" color-interpolation-filters="sRGB">
										<feFlood flood-opacity="0" result="BackgroundImageFix"/>
										<feBlend mode="normal" in="SourceGraphic" in2="BackgroundImageFix" result="shape"/>
										<feGaussianBlur stdDeviation="2" result="effect1_foregroundBlur_2739_9169"/>
										</filter>
										<filter id="filter7_f_2739_9169" x="32" y="14" width="15" height="15" filterUnits="userSpaceOnUse" color-interpolation-filters="sRGB">
										<feFlood flood-opacity="0" result="BackgroundImageFix"/>
										<feBlend mode="normal" in="SourceGraphic" in2="BackgroundImageFix" result="shape"/>
										<feGaussianBlur stdDeviation="2" result="effect1_foregroundBlur_2739_9169"/>
										</filter>
										<filter id="filter8_f_2739_9169" x="26" y="18" width="8" height="10" filterUnits="userSpaceOnUse" color-interpolation-filters="sRGB">
										<feFlood flood-opacity="0" result="BackgroundImageFix"/>
										<feBlend mode="normal" in="SourceGraphic" in2="BackgroundImageFix" result="shape"/>
										<feGaussianBlur stdDeviation="1.5" result="effect1_foregroundBlur_2739_9169"/>
										</filter>
										<filter id="filter9_f_2739_9169" x="16" y="13" width="15" height="15" filterUnits="userSpaceOnUse" color-interpolation-filters="sRGB">
										<feFlood flood-opacity="0" result="BackgroundImageFix"/>
										<feBlend mode="normal" in="SourceGraphic" in2="BackgroundImageFix" result="shape"/>
										<feGaussianBlur stdDeviation="2" result="effect1_foregroundBlur_2739_9169"/>
										</filter>
										<filter id="filter10_b_2739_9169" x="-110" y="-110" width="279.883" height="280" filterUnits="userSpaceOnUse" color-interpolation-filters="sRGB">
										<feFlood flood-opacity="0" result="BackgroundImageFix"/>
										<feGaussianBlur in="BackgroundImageFix" stdDeviation="55"/>
										<feComposite in2="SourceAlpha" operator="in" result="effect1_backgroundBlur_2739_9169"/>
										<feBlend mode="normal" in="SourceGraphic" in2="effect1_backgroundBlur_2739_9169" result="shape"/>
										</filter>
										<linearGradient id="paint0_linear_2739_9169" x1="29.9415" y1="0" x2="29.9415" y2="60" gradientUnits="userSpaceOnUse">
										<stop stop-color="#212941"/>
										<stop offset="0.469183" stop-color="#2C3A65"/>
										<stop offset="1" stop-color="#272C3D"/>
										</linearGradient>
										<radialGradient id="paint1_radial_2739_9169" cx="0" cy="0" r="1" gradientUnits="userSpaceOnUse" gradientTransform="translate(29.9415 30) rotate(90) scale(30 29.9415)">
										<stop stop-color="#131827" stop-opacity="0"/>
										<stop offset="1" stop-color="#131827"/>
										</radialGradient>
										<linearGradient id="paint2_linear_2739_9169" x1="33.6" y1="72.9412" x2="69.1849" y2="38.5775" gradientUnits="userSpaceOnUse">
										<stop stop-color="#131827"/>
										<stop offset="1" stop-color="#303953"/>
										</linearGradient>
										<linearGradient id="paint3_linear_2739_9169" x1="30" y1="11" x2="30" y2="50" gradientUnits="userSpaceOnUse">
										<stop stop-color="#212941"/>
										<stop offset="0.469183" stop-color="#2C3A65"/>
										<stop offset="1" stop-color="#272C3D"/>
										</linearGradient>
										<linearGradient id="paint4_linear_2739_9169" x1="30" y1="21" x2="30.8853" y2="39.8882" gradientUnits="userSpaceOnUse">
										<stop stop-color="#EEEEEE"/>
										<stop offset="0.51" stop-color="#C8DCF5"/>
										<stop offset="1" stop-color="#CBD5E2"/>
										</linearGradient>
										<linearGradient id="paint5_linear_2739_9169" x1="30" y1="21" x2="30.8853" y2="39.8882" gradientUnits="userSpaceOnUse">
										<stop stop-color="#EEEEEE"/>
										<stop offset="0.51" stop-color="#C8DCF5"/>
										<stop offset="1" stop-color="#CBD5E2"/>
										</linearGradient>
										<linearGradient id="paint6_linear_2739_9169" x1="29.9415" y1="0" x2="29.9415" y2="60" gradientUnits="userSpaceOnUse">
										<stop stop-color="#212941"/>
										<stop offset="0.469183" stop-color="#2C3A65"/>
										<stop offset="1" stop-color="#272C3D"/>
										</linearGradient>
										<clipPath id="clip0_2739_9169">
										<rect width="52" height="43" fill="white" transform="translate(4 9)"/>
										</clipPath>
										</defs>
									</svg>