<svg width="704" height="204" viewBox="0 0 704 204" fill="none" xmlns="http://www.w3.org/2000/svg">
<g clip-path="url(#clip0_2431_1525)">
<path d="M752.222 204V21.1625C713.615 32.3137 729.53 114.24 715.015 117.521C700.499 120.802 694.713 89.7608 690.831 90.6298C686.95 91.4988 691.52 132.607 668.714 116.867C658.82 110.039 662.877 76.0958 681.892 71.1764C700.908 66.257 709.556 41.741 691.56 32.9144C659.775 17.3243 691.56 0.665039 691.56 0.665039C674.29 0.665039 659.032 10.665 668.714 21.1625C678.395 31.66 667.377 72.9161 648.729 62.4186C630.082 51.9211 640.438 19.1337 640.438 19.1337C594.137 53.8949 664.708 83.9077 636.379 97.6865C608.05 111.465 596.905 73.5698 596.905 73.5698C572.722 93.2447 635.551 151.628 596.176 150.308C556.802 148.988 600.322 103.076 570.615 91.9373C540.909 80.7986 558.179 48.6524 558.179 48.6524C509.812 68.9811 578.87 164.645 536.22 164.645C493.57 164.645 545.743 120.802 522.937 112.279C500.131 103.755 522.937 81.0152 522.937 81.0152C522.937 81.0152 495.985 89.9761 500.131 103.755C504.276 117.534 483.664 125.016 480.781 102.447C477.898 79.8782 496.674 63.0975 496.674 63.0975C428.082 80.7986 484.238 133.286 454.518 150.333C424.799 167.381 411.449 118.854 411.449 118.854C411.449 118.854 402.006 129.351 410.296 154.268C418.587 179.186 379.199 180.506 390.258 145.091C392.036 119.507 360.552 119.507 360.552 119.507C360.552 119.507 391.485 149.34 360.552 151.654C329.618 153.967 345.533 119.507 345.533 119.507C302 134.417 336.355 166.74 326.687 171.982C317.019 177.225 305.96 172.636 305.271 162.805C304.582 152.974 281.146 138.408 281.146 138.408C281.146 138.408 305.271 176.583 271.406 176.583C237.541 176.583 266.012 125.29 242.389 122.147C218.765 119.005 235.744 89.7608 235.744 89.7608C235.744 89.7608 214.557 91.6739 212.682 109.299C210.808 126.924 237.945 162.805 200.935 161.497C163.924 160.19 210.603 92.6287 185.042 84.7588C159.481 76.8888 162.236 59.1512 162.236 59.1512C132.529 94.5661 185.042 105.754 162.236 120.186C139.43 134.619 131.139 99.1912 131.139 99.1912C109.021 120.186 158.779 171.341 113.458 169.38C68.1369 167.419 117.975 109.299 86.215 102.472C54.455 95.646 68.446 78.5555 68.446 78.5555C43.5737 96.9229 82.0696 118.879 51.6613 126.749C21.2531 134.619 20.6982 88.089 34.3911 73.6201C48.084 59.1512 51.176 43.2998 34.3911 38.3804C17.6063 33.461 19.7424 12.6902 19.7424 12.6902C-1.99531 38.927 28.2724 38.927 14.3529 55.9064C0.433395 72.8857 -6.12273 41.9333 -6.12273 41.9333C-50.1485 70.9031 6.38588 117.911 -27.3101 117.911C-61.0062 117.911 -71.3359 82.3817 -71.3359 82.3817V204.82L752.222 204Z" fill="#BBFF00"/>
</g>
<defs>
<clipPath id="clip0_2431_1525">
<path d="M0 0H704V180C704 193.255 693.255 204 680 204H24C10.7452 204 0 193.255 0 180V0Z" fill="white"/>
</clipPath>
</defs>
</svg>
