<svg width="461" height="125" viewBox="0 0 461 125" fill="none" xmlns="http://www.w3.org/2000/svg">
<path d="M230.186 55.7651C240.614 55.7651 249.068 47.2928 249.068 36.8415C249.068 26.3903 240.614 17.918 230.186 17.918C219.758 17.918 211.305 26.3903 211.305 36.8415C211.305 47.2928 219.758 55.7651 230.186 55.7651Z" fill="url(#paint0_linear_124_434)"/>
<path d="M230.181 9.46187C232.788 9.46187 234.902 7.34376 234.902 4.73094C234.902 2.11812 232.788 0 230.181 0C227.574 0 225.461 2.11812 225.461 4.73094C225.461 7.34376 227.574 9.46187 230.181 9.46187Z" fill="url(#paint1_linear_124_434)"/>
<path d="M249.498 17.4851C251.342 19.3326 254.33 19.3326 256.174 17.485C258.017 15.6375 258.017 12.642 256.174 10.7945C254.33 8.94695 251.342 8.94695 249.498 10.7945C247.655 12.642 247.655 15.6375 249.498 17.4851Z" fill="url(#paint2_linear_124_434)"/>
<path d="M257.512 36.8413C257.512 39.4541 259.626 41.5722 262.233 41.5722C264.84 41.5722 266.953 39.4541 266.953 36.8413C266.953 34.2285 264.84 32.1104 262.233 32.1104C259.626 32.1104 257.512 34.2285 257.512 36.8413Z" fill="url(#paint3_linear_124_434)"/>
<path d="M249.502 56.2048C247.659 58.0523 247.659 61.0478 249.502 62.8953C251.345 64.7429 254.334 64.7429 256.178 62.8953C258.021 61.0478 258.021 58.0523 256.178 56.2048C254.334 54.3572 251.345 54.3572 249.502 56.2048Z" fill="url(#paint4_linear_124_434)"/>
<path d="M230.186 64.2212C227.579 64.2212 225.465 66.3394 225.465 68.9522C225.465 71.565 227.579 73.6831 230.186 73.6831C232.793 73.6831 234.906 71.565 234.906 68.9522C234.906 66.3394 232.793 64.2212 230.186 64.2212Z" fill="url(#paint5_linear_124_434)"/>
<path d="M210.861 56.2054C209.018 54.3578 206.029 54.3578 204.186 56.2054C202.342 58.0529 202.342 61.0484 204.186 62.8959C206.029 64.7435 209.018 64.7435 210.861 62.8959C212.705 61.0484 212.705 58.0529 210.861 56.2054Z" fill="url(#paint6_linear_124_434)"/>
<path d="M202.871 36.8413C202.871 34.2285 200.757 32.1104 198.15 32.1104C195.543 32.1104 193.43 34.2285 193.43 36.8413C193.43 39.4541 195.543 41.5723 198.15 41.5723C200.757 41.5723 202.871 39.4541 202.871 36.8413Z" fill="url(#paint7_linear_124_434)"/>
<path d="M210.865 17.4835C212.709 15.6359 212.709 12.6405 210.865 10.7929C209.022 8.94537 206.033 8.94537 204.189 10.7929C202.346 12.6405 202.346 15.6359 204.189 17.4835C206.033 19.331 209.022 19.331 210.865 17.4835Z" fill="url(#paint8_linear_124_434)"/>
<path fill-rule="evenodd" clip-rule="evenodd" d="M222.014 104.094C221.911 104.264 221.798 104.395 221.673 104.486C221.56 104.566 221.418 104.606 221.247 104.606C221.054 104.606 220.827 104.509 220.566 104.315C220.305 104.122 219.976 103.912 219.579 103.684C219.193 103.445 218.721 103.229 218.165 103.035C217.62 102.842 216.956 102.745 216.173 102.745C215.435 102.745 214.782 102.848 214.214 103.052C213.658 103.246 213.187 103.513 212.801 103.855C212.426 104.196 212.143 104.6 211.95 105.066C211.757 105.521 211.66 106.016 211.66 106.551C211.66 107.234 211.825 107.803 212.154 108.258C212.495 108.701 212.937 109.083 213.482 109.401C214.039 109.72 214.663 109.999 215.355 110.237C216.059 110.465 216.774 110.704 217.501 110.954C218.239 111.205 218.954 111.489 219.647 111.808C220.351 112.115 220.975 112.507 221.52 112.985C222.076 113.463 222.519 114.049 222.848 114.743C223.189 115.437 223.359 116.29 223.359 117.303C223.359 118.373 223.177 119.379 222.814 120.324C222.451 121.257 221.917 122.07 221.213 122.764C220.521 123.458 219.664 124.004 218.642 124.403C217.632 124.801 216.479 125 215.185 125C213.596 125 212.154 124.716 210.86 124.147C209.566 123.566 208.459 122.787 207.539 121.809L208.493 120.238C208.583 120.113 208.691 120.011 208.816 119.931C208.952 119.84 209.1 119.795 209.259 119.795C209.407 119.795 209.571 119.857 209.753 119.982C209.946 120.096 210.161 120.244 210.4 120.426C210.638 120.608 210.911 120.807 211.217 121.023C211.524 121.24 211.87 121.439 212.256 121.621C212.653 121.803 213.102 121.956 213.601 122.082C214.101 122.195 214.663 122.252 215.287 122.252C216.07 122.252 216.769 122.144 217.382 121.928C217.995 121.712 218.511 121.41 218.931 121.023C219.363 120.625 219.692 120.153 219.919 119.607C220.146 119.061 220.259 118.452 220.259 117.781C220.259 117.041 220.089 116.438 219.749 115.972C219.419 115.494 218.982 115.096 218.437 114.777C217.892 114.459 217.268 114.191 216.564 113.975C215.86 113.747 215.145 113.52 214.419 113.292C213.692 113.053 212.977 112.78 212.273 112.473C211.569 112.166 210.945 111.768 210.4 111.278C209.855 110.789 209.412 110.181 209.071 109.452C208.742 108.713 208.578 107.803 208.578 106.722C208.578 105.857 208.742 105.021 209.071 104.213C209.412 103.405 209.9 102.688 210.536 102.063C211.183 101.437 211.972 100.936 212.903 100.561C213.845 100.185 214.924 99.9976 216.138 99.9976C217.501 99.9976 218.738 100.214 219.85 100.646C220.974 101.078 221.962 101.704 222.813 102.523L222.014 104.094ZM99.6242 111.761C98.8977 111.989 98.0576 112.102 97.104 112.102L93.6301 112.102V102.869H97.2402C99.1474 102.87 100.578 103.239 101.531 103.979C102.485 104.718 102.962 105.816 102.962 107.273C102.962 107.989 102.837 108.643 102.587 109.235C102.337 109.827 101.963 110.339 101.463 110.771C100.975 111.192 100.362 111.522 99.6242 111.761ZM105.448 124.714H108.377L101.259 115.003C100.953 114.548 100.589 114.201 100.169 113.962C101.111 113.745 101.952 113.427 102.689 113.006C103.439 112.585 104.069 112.079 104.58 111.487C105.102 110.884 105.499 110.207 105.772 109.456C106.044 108.705 106.18 107.897 106.18 107.033C106.18 105.997 106.004 105.064 105.652 104.234C105.301 103.392 104.756 102.675 104.018 102.083C103.291 101.492 102.366 101.042 101.242 100.735C100.118 100.417 98.7843 100.257 97.2404 100.257H90.3438V124.714H93.6302V114.509H96.1334C96.5988 114.509 96.9394 114.571 97.1551 114.696C97.3822 114.81 97.5922 115.004 97.7852 115.277L104.12 124.015C104.404 124.481 104.846 124.714 105.448 124.714ZM38.5798 103.05H46.4811V100.268H27.375V103.05H35.2933V124.725H38.5798V103.05ZM15.0364 124.726L15.0534 122.03L3.30366 122.029V113.683H12.8057V111.089H3.30366V102.966H15.0364V100.269H0V124.726H15.0364ZM75.4518 122.03L75.4348 124.726H60.3984V100.269H75.4348V102.966H63.7021V111.089H73.2041V113.683H63.7021V122.029L75.4518 122.03ZM141.762 100.259V124.716H140.111C139.85 124.716 139.628 124.671 139.447 124.579C139.276 124.488 139.106 124.335 138.936 124.119L124.819 105.687C124.842 105.971 124.859 106.25 124.87 106.523C124.881 106.796 124.887 107.052 124.887 107.291V124.716H121.992V100.259H123.695C123.843 100.259 123.968 100.271 124.07 100.293C124.172 100.305 124.263 100.333 124.342 100.379C124.422 100.413 124.501 100.47 124.581 100.549C124.66 100.618 124.745 100.709 124.836 100.822L138.953 119.237C138.93 118.941 138.907 118.657 138.885 118.384C138.873 118.099 138.868 117.832 138.868 117.582V100.259L141.762 100.259ZM167.431 105.69L171.262 115.639L162.152 115.639L165.983 105.707C166.233 105.092 166.477 104.324 166.715 103.403C166.829 103.846 166.948 104.267 167.073 104.666C167.198 105.052 167.317 105.394 167.431 105.69ZM175.587 124.719H178.142L168.384 100.262H165.047L155.289 124.719H157.843C158.127 124.719 158.365 124.639 158.558 124.48C158.751 124.32 158.882 124.138 158.95 123.934L161.232 118.029H172.182L174.463 123.934C174.554 124.161 174.691 124.349 174.872 124.497C175.054 124.645 175.292 124.719 175.587 124.719ZM259.99 117.559C260.569 116.023 260.858 114.339 260.858 112.507C260.858 110.676 260.569 108.997 259.99 107.473C259.411 105.937 258.593 104.617 257.538 103.513C256.482 102.398 255.21 101.534 253.723 100.919C252.247 100.305 250.613 99.9976 248.819 99.9976C247.025 99.9976 245.391 100.305 243.915 100.919C242.439 101.534 241.173 102.398 240.118 103.513C239.062 104.617 238.244 105.937 237.665 107.473C237.086 108.997 236.797 110.676 236.797 112.507C236.797 114.339 237.086 116.023 237.665 117.559C238.244 119.083 239.062 120.398 240.118 121.501C241.173 122.605 242.439 123.464 243.915 124.078C245.391 124.681 247.025 124.983 248.819 124.983C250.613 124.983 252.247 124.681 253.723 124.078C255.21 123.464 256.482 122.605 257.538 121.501C258.593 120.398 259.411 119.084 259.99 117.559ZM256.857 108.462C257.265 109.657 257.47 111.006 257.47 112.507C257.47 114.009 257.265 115.357 256.857 116.552C256.448 117.735 255.869 118.742 255.12 119.573C254.37 120.392 253.462 121.024 252.395 121.467C251.328 121.9 250.136 122.116 248.819 122.116C247.514 122.116 246.327 121.9 245.26 121.467C244.193 121.024 243.279 120.392 242.518 119.573C241.769 118.742 241.19 117.735 240.782 116.552C240.373 115.358 240.168 114.009 240.168 112.507C240.168 111.005 240.373 109.657 240.782 108.462C241.19 107.268 241.769 106.261 242.518 105.442C243.279 104.611 244.193 103.974 245.26 103.53C246.327 103.087 247.514 102.865 248.819 102.865C250.136 102.865 251.328 103.087 252.395 103.53C253.462 103.974 254.37 104.611 255.12 105.442C255.869 106.261 256.448 107.268 256.857 108.462ZM279.155 102.964V111.515H289.185V114.211H279.155V124.724H275.852V100.267H290.888V102.964L279.155 102.964ZM314.049 103.05H321.95V100.268H302.844V103.05H310.762V124.725H314.049V103.05ZM367.476 100.259L359.864 124.716H356.901L350.72 106.062C350.663 105.88 350.606 105.687 350.55 105.482C350.504 105.277 350.453 105.061 350.396 104.834C350.339 105.061 350.283 105.277 350.226 105.482C350.169 105.687 350.112 105.88 350.056 106.062L343.84 124.716H340.877L333.266 100.259H336.007C336.302 100.259 336.547 100.333 336.74 100.481C336.944 100.629 337.074 100.817 337.131 101.044L342.172 118.042C342.251 118.35 342.325 118.68 342.393 119.032C342.473 119.385 342.546 119.76 342.614 120.159C342.694 119.76 342.773 119.385 342.853 119.032C342.944 118.668 343.04 118.338 343.142 118.042L348.881 101.044C348.949 100.851 349.08 100.674 349.273 100.515C349.477 100.344 349.721 100.259 350.005 100.259H350.958C351.254 100.259 351.492 100.333 351.674 100.481C351.855 100.629 351.991 100.817 352.082 101.044L357.804 118.042C357.906 118.338 357.997 118.657 358.076 118.998C358.167 119.339 358.252 119.698 358.332 120.073C358.389 119.698 358.451 119.339 358.519 118.998C358.587 118.657 358.661 118.338 358.74 118.042L363.798 101.044C363.855 100.839 363.98 100.657 364.172 100.498C364.377 100.339 364.621 100.259 364.905 100.259H367.476ZM389.087 105.69L392.918 115.639L383.808 115.639L387.64 105.707C387.889 105.092 388.133 104.324 388.372 103.403C388.485 103.846 388.605 104.267 388.729 104.666C388.854 105.052 388.973 105.394 389.087 105.69ZM397.244 124.719H399.798L390.04 100.262H386.703L376.945 124.719H379.5C379.784 124.719 380.022 124.639 380.215 124.48C380.408 124.32 380.538 124.138 380.607 123.934L382.888 118.029H393.838L396.12 123.934C396.211 124.161 396.347 124.349 396.529 124.497C396.71 124.645 396.949 124.719 397.244 124.719ZM420.073 112.102C421.026 112.102 421.866 111.989 422.593 111.761C423.331 111.522 423.944 111.192 424.432 110.771C424.931 110.339 425.306 109.827 425.556 109.235C425.806 108.643 425.93 107.989 425.93 107.273C425.93 105.816 425.454 104.718 424.5 103.979C423.546 103.239 422.116 102.869 420.209 102.869H416.599V112.102L420.073 112.102ZM431.346 124.714H428.417C427.815 124.714 427.372 124.481 427.089 124.015L420.754 115.277C420.561 115.004 420.351 114.81 420.124 114.696C419.908 114.571 419.568 114.509 419.102 114.509H416.599V124.714H413.312V100.257H420.209C421.753 100.257 423.087 100.417 424.211 100.735C425.335 101.042 426.26 101.492 426.986 102.083C427.724 102.675 428.269 103.392 428.621 104.234C428.973 105.064 429.149 105.997 429.149 107.033C429.149 107.897 429.013 108.705 428.74 109.456C428.468 110.207 428.071 110.884 427.548 111.487C427.038 112.079 426.407 112.585 425.658 113.006C424.92 113.427 424.08 113.745 423.138 113.962C423.558 114.201 423.921 114.548 424.228 115.003L431.346 124.714ZM459.99 124.726L460.007 122.03L448.257 122.029V113.683H457.759V111.089H448.257V102.966H459.99V100.269H444.953V124.726H459.99Z" fill="url(#paint9_linear_124_434)"/>
<defs>
<linearGradient id="paint0_linear_124_434" x1="245.093" y1="17.918" x2="213.028" y2="19.4776" gradientUnits="userSpaceOnUse">
<stop stop-color="#27A2E7"/>
<stop offset="1" stop-color="#27C4E7"/>
</linearGradient>
<linearGradient id="paint1_linear_124_434" x1="233.908" y1="1.46604e-06" x2="225.892" y2="0.389915" gradientUnits="userSpaceOnUse">
<stop stop-color="#27A2E7"/>
<stop offset="1" stop-color="#27C4E7"/>
</linearGradient>
<linearGradient id="paint2_linear_124_434" x1="258.809" y1="13.4355" x2="252.852" y2="8.04462" gradientUnits="userSpaceOnUse">
<stop stop-color="#27A2E7"/>
<stop offset="1" stop-color="#27C4E7"/>
</linearGradient>
<linearGradient id="paint3_linear_124_434" x1="266.953" y1="40.5762" x2="266.561" y2="32.5422" gradientUnits="userSpaceOnUse">
<stop stop-color="#27A2E7"/>
<stop offset="1" stop-color="#27C4E7"/>
</linearGradient>
<linearGradient id="paint4_linear_124_434" x1="253.543" y1="65.5363" x2="258.948" y2="59.5904" gradientUnits="userSpaceOnUse">
<stop stop-color="#27A2E7"/>
<stop offset="1" stop-color="#27C4E7"/>
</linearGradient>
<linearGradient id="paint5_linear_124_434" x1="226.459" y1="73.6831" x2="234.476" y2="73.2932" gradientUnits="userSpaceOnUse">
<stop stop-color="#27A2E7"/>
<stop offset="1" stop-color="#27C4E7"/>
</linearGradient>
<linearGradient id="paint6_linear_124_434" x1="201.55" y1="60.2549" x2="207.507" y2="65.6458" gradientUnits="userSpaceOnUse">
<stop stop-color="#27A2E7"/>
<stop offset="1" stop-color="#27C4E7"/>
</linearGradient>
<linearGradient id="paint7_linear_124_434" x1="193.43" y1="33.1064" x2="193.822" y2="41.1404" gradientUnits="userSpaceOnUse">
<stop stop-color="#27A2E7"/>
<stop offset="1" stop-color="#27C4E7"/>
</linearGradient>
<linearGradient id="paint8_linear_124_434" x1="206.825" y1="8.15191" x2="201.419" y2="14.0979" gradientUnits="userSpaceOnUse">
<stop stop-color="#27A2E7"/>
<stop offset="1" stop-color="#27C4E7"/>
</linearGradient>
<linearGradient id="paint9_linear_124_434" x1="411.585" y1="99.9976" x2="194.602" y2="294.604" gradientUnits="userSpaceOnUse">
<stop stop-color="#27A2E7"/>
<stop offset="1" stop-color="#27C4E7"/>
</linearGradient>
</defs>
</svg>
