<svg width="60" height="60" viewBox="0 0 60 60" fill="none" xmlns="http://www.w3.org/2000/svg">
<path d="M30 0L36.7707 4.73138L45 4.01924L48.4979 11.5021L55.9808 15L55.2686 23.2293L60 30L55.2686 36.7707L55.9808 45L48.4979 48.4979L45 55.9808L36.7707 55.2686L30 60L23.2293 55.2686L15 55.9808L11.5021 48.4979L4.01924 45L4.73138 36.7707L0 30L4.73138 23.2293L4.01924 15L11.5021 11.5021L15 4.01924L23.2293 4.73138L30 0Z" fill="#FDDE00"/>
<path d="M21 35.9208H23.9543V33.5149H21V31.1386H23.9543V20H31.4162C33.8122 20 35.6701 20.5248 36.9898 21.5743C38.3299 22.604 39 24.3069 39 26.6832C39 27.8515 38.797 28.8713 38.3909 29.7426C38.0051 30.5941 37.4569 31.3069 36.7462 31.8812C36.0558 32.4356 35.2233 32.8515 34.2487 33.1287C33.2944 33.3861 32.2487 33.5149 31.1117 33.5149H26.6041V35.9208H33.9442V38.2673H26.6041V41H23.9543V38.2673H21V35.9208ZM31.1421 31.1386C31.8528 31.1386 32.5127 31.0594 33.1218 30.901C33.7513 30.7228 34.2995 30.4653 34.7665 30.1287C35.2335 29.7723 35.599 29.3168 35.8629 28.7624C36.1472 28.2079 36.2995 27.505 36.3198 26.6535C36.3198 25.0891 35.9036 23.9802 35.0711 23.3267C34.2589 22.6733 33.0203 22.3465 31.3553 22.3465H26.6041V31.1386H31.1421Z" fill="#17141A"/>
</svg>
