										<svg width="203" height="147" viewBox="0 0 203 147" fill="none" xmlns="http://www.w3.org/2000/svg">
											<g filter="url(#filter0_b_2694_22725)">
											<rect width="202" height="146.356" rx="8" transform="matrix(-1 0 0 1 203 0.355469)" fill="url(#paint0_linear_2694_22725)" fill-opacity="0.5"/>
											</g>
											<mask id="mask0_2694_22725" style="mask-type:alpha" maskUnits="userSpaceOnUse" x="0" y="0" width="203" height="147">
											<rect width="203" height="146.356" rx="8" transform="matrix(-1 0 0 1 203 0.355469)" fill="url(#paint1_linear_2694_22725)" fill-opacity="0.5"/>
											</mask>
											<g mask="url(#mask0_2694_22725)">
											<g filter="url(#filter1_f_2694_22725)">
											<ellipse cx="60" cy="62.7238" rx="60" ry="62.7238" transform="matrix(-1 0 0 1 162 46.3516)" fill="#070917"/>
											</g>
											<g filter="url(#filter2_f_2694_22725)">
											<rect width="107" height="146.356" transform="matrix(-1 0 0 1 121 0.355469)" fill="#070917"/>
											</g>
											</g>
											<g opacity="0.8">
											<rect width="1.21215" height="1.26718" transform="matrix(-1 0 0 1 198.141 4.53906)" fill="#151929"/>
											<rect width="1.21215" height="1.26718" transform="matrix(-1 0 0 1 190.469 4.53906)" fill="#151929"/>
											<rect width="1.21215" height="1.26718" transform="matrix(-1 0 0 1 182.781 4.53906)" fill="#151929"/>
											<rect width="1.21215" height="1.26718" transform="matrix(-1 0 0 1 175.109 4.53906)" fill="#151929"/>
											<rect width="1.21215" height="1.26718" transform="matrix(-1 0 0 1 167.43 4.53906)" fill="#151929"/>
											<rect width="1.21215" height="1.26718" transform="matrix(-1 0 0 1 159.758 4.53906)" fill="#151929"/>
											<rect width="1.21215" height="1.26718" transform="matrix(-1 0 0 1 152.078 4.53906)" fill="#151929"/>
											<rect width="1.21215" height="1.26718" transform="matrix(-1 0 0 1 144.406 4.53906)" fill="#151929"/>
											<rect width="1.21215" height="1.26718" transform="matrix(-1 0 0 1 136.727 4.53906)" fill="#151929"/>
											<rect width="1.21215" height="1.26718" transform="matrix(-1 0 0 1 129.047 4.53906)" fill="#151929"/>
											<rect width="1.21215" height="1.26718" transform="matrix(-1 0 0 1 121.375 4.53906)" fill="#151929"/>
											<rect width="1.21215" height="1.26718" transform="matrix(-1 0 0 1 113.695 4.53906)" fill="#151929"/>
											<rect width="1.21215" height="1.26718" transform="matrix(-1 0 0 1 106.016 4.53906)" fill="#151929"/>
											<rect width="1.21215" height="1.26718" transform="matrix(-1 0 0 1 98.3438 4.53906)" fill="#151929"/>
											<rect width="1.21215" height="1.26718" transform="matrix(-1 0 0 1 90.6641 4.53906)" fill="#151929"/>
											<rect width="1.21215" height="1.26718" transform="matrix(-1 0 0 1 82.9844 4.53906)" fill="#151929"/>
											<rect width="1.21215" height="1.26718" transform="matrix(-1 0 0 1 75.3125 4.53906)" fill="#151929"/>
											<rect width="1.21215" height="1.26718" transform="matrix(-1 0 0 1 67.625 4.53906)" fill="#151929"/>
											<rect width="1.21215" height="1.26718" transform="matrix(-1 0 0 1 59.9531 4.53906)" fill="#151929"/>
											<rect width="1.21215" height="1.26718" transform="matrix(-1 0 0 1 52.2812 4.53906)" fill="#151929"/>
											<rect width="1.21215" height="1.26718" transform="matrix(-1 0 0 1 44.6016 4.53906)" fill="#151929"/>
											<rect width="1.21215" height="1.26718" transform="matrix(-1 0 0 1 36.9219 4.53906)" fill="#151929"/>
											<rect width="1.21215" height="1.26718" transform="matrix(-1 0 0 1 29.25 4.53906)" fill="#151929"/>
											<rect width="1.21215" height="1.26718" transform="matrix(-1 0 0 1 21.5703 4.53906)" fill="#151929"/>
											<rect width="1.21215" height="1.26718" transform="matrix(-1 0 0 1 13.8984 4.53906)" fill="#151929"/>
											<rect width="1.21215" height="1.26718" transform="matrix(-1 0 0 1 6.21875 4.53906)" fill="#151929"/>
											<rect width="1.21215" height="1.26718" transform="matrix(-1 0 0 1 198.141 12.5625)" fill="#151929"/>
											<rect width="1.21215" height="1.26718" transform="matrix(-1 0 0 1 190.469 12.5625)" fill="#151929"/>
											<rect width="1.21215" height="1.26718" transform="matrix(-1 0 0 1 182.781 12.5625)" fill="#151929"/>
											<rect width="1.21215" height="1.26718" transform="matrix(-1 0 0 1 175.109 12.5625)" fill="#151929"/>
											<rect width="1.21215" height="1.26718" transform="matrix(-1 0 0 1 167.43 12.5625)" fill="#151929"/>
											<rect width="1.21215" height="1.26718" transform="matrix(-1 0 0 1 159.758 12.5625)" fill="#151929"/>
											<rect width="1.21215" height="1.26718" transform="matrix(-1 0 0 1 152.078 12.5625)" fill="#151929"/>
											<rect width="1.21215" height="1.26718" transform="matrix(-1 0 0 1 144.406 12.5625)" fill="#151929"/>
											<rect width="1.21215" height="1.26718" transform="matrix(-1 0 0 1 136.727 12.5625)" fill="#151929"/>
											<rect width="1.21215" height="1.26718" transform="matrix(-1 0 0 1 129.047 12.5625)" fill="#151929"/>
											<rect width="1.21215" height="1.26718" transform="matrix(-1 0 0 1 121.375 12.5625)" fill="#151929"/>
											<rect width="1.21215" height="1.26718" transform="matrix(-1 0 0 1 113.695 12.5625)" fill="#151929"/>
											<rect width="1.21215" height="1.26718" transform="matrix(-1 0 0 1 106.016 12.5625)" fill="#151929"/>
											<rect width="1.21215" height="1.26718" transform="matrix(-1 0 0 1 98.3438 12.5625)" fill="#151929"/>
											<rect width="1.21215" height="1.26718" transform="matrix(-1 0 0 1 90.6641 12.5625)" fill="#151929"/>
											<rect width="1.21215" height="1.26718" transform="matrix(-1 0 0 1 82.9844 12.5625)" fill="#151929"/>
											<rect width="1.21215" height="1.26718" transform="matrix(-1 0 0 1 75.3125 12.5625)" fill="#151929"/>
											<rect width="1.21215" height="1.26718" transform="matrix(-1 0 0 1 67.625 12.5625)" fill="#151929"/>
											<rect width="1.21215" height="1.26718" transform="matrix(-1 0 0 1 59.9531 12.5625)" fill="#151929"/>
											<rect width="1.21215" height="1.26718" transform="matrix(-1 0 0 1 52.2812 12.5625)" fill="#151929"/>
											<rect width="1.21215" height="1.26718" transform="matrix(-1 0 0 1 44.6016 12.5625)" fill="#151929"/>
											<rect width="1.21215" height="1.26718" transform="matrix(-1 0 0 1 36.9219 12.5625)" fill="#151929"/>
											<rect width="1.21215" height="1.26718" transform="matrix(-1 0 0 1 29.25 12.5625)" fill="#151929"/>
											<rect width="1.21215" height="1.26718" transform="matrix(-1 0 0 1 21.5703 12.5625)" fill="#151929"/>
											<rect width="1.21215" height="1.26718" transform="matrix(-1 0 0 1 13.8984 12.5625)" fill="#151929"/>
											<rect width="1.21215" height="1.26718" transform="matrix(-1 0 0 1 6.21875 12.5625)" fill="#151929"/>
											<rect width="1.21215" height="1.26718" transform="matrix(-1 0 0 1 198.141 20.5898)" fill="#151929"/>
											<rect width="1.21215" height="1.26718" transform="matrix(-1 0 0 1 190.469 20.5898)" fill="#151929"/>
											<rect width="1.21215" height="1.26718" transform="matrix(-1 0 0 1 182.781 20.5898)" fill="#151929"/>
											<rect width="1.21215" height="1.26718" transform="matrix(-1 0 0 1 175.109 20.5898)" fill="#151929"/>
											<rect width="1.21215" height="1.26718" transform="matrix(-1 0 0 1 167.43 20.5898)" fill="#151929"/>
											<rect width="1.21215" height="1.26718" transform="matrix(-1 0 0 1 159.758 20.5898)" fill="#151929"/>
											<rect width="1.21215" height="1.26718" transform="matrix(-1 0 0 1 152.078 20.5898)" fill="#151929"/>
											<rect width="1.21215" height="1.26718" transform="matrix(-1 0 0 1 144.406 20.5898)" fill="#151929"/>
											<rect width="1.21215" height="1.26718" transform="matrix(-1 0 0 1 136.727 20.5898)" fill="#151929"/>
											<rect width="1.21215" height="1.26718" transform="matrix(-1 0 0 1 129.047 20.5898)" fill="#151929"/>
											<rect width="1.21215" height="1.26718" transform="matrix(-1 0 0 1 121.375 20.5898)" fill="#151929"/>
											<rect width="1.21215" height="1.26718" transform="matrix(-1 0 0 1 113.695 20.5898)" fill="#151929"/>
											<rect width="1.21215" height="1.26718" transform="matrix(-1 0 0 1 106.016 20.5898)" fill="#151929"/>
											<rect width="1.21215" height="1.26718" transform="matrix(-1 0 0 1 98.3438 20.5898)" fill="#151929"/>
											<rect width="1.21215" height="1.26718" transform="matrix(-1 0 0 1 90.6641 20.5898)" fill="#151929"/>
											<rect width="1.21215" height="1.26718" transform="matrix(-1 0 0 1 82.9844 20.5898)" fill="#151929"/>
											<rect width="1.21215" height="1.26718" transform="matrix(-1 0 0 1 75.3125 20.5898)" fill="#151929"/>
											<rect width="1.21215" height="1.26718" transform="matrix(-1 0 0 1 67.625 20.5898)" fill="#151929"/>
											<rect width="1.21215" height="1.26718" transform="matrix(-1 0 0 1 59.9531 20.5898)" fill="#151929"/>
											<rect width="1.21215" height="1.26718" transform="matrix(-1 0 0 1 52.2812 20.5898)" fill="#151929"/>
											<rect width="1.21215" height="1.26718" transform="matrix(-1 0 0 1 44.6016 20.5898)" fill="#151929"/>
											<rect width="1.21215" height="1.26718" transform="matrix(-1 0 0 1 36.9219 20.5898)" fill="#151929"/>
											<rect width="1.21215" height="1.26718" transform="matrix(-1 0 0 1 29.25 20.5898)" fill="#151929"/>
											<rect width="1.21215" height="1.26718" transform="matrix(-1 0 0 1 21.5703 20.5898)" fill="#151929"/>
											<rect width="1.21215" height="1.26718" transform="matrix(-1 0 0 1 13.8984 20.5898)" fill="#151929"/>
											<rect width="1.21215" height="1.26718" transform="matrix(-1 0 0 1 6.21875 20.5898)" fill="#151929"/>
											<rect width="1.21215" height="1.26718" transform="matrix(-1 0 0 1 198.141 28.6172)" fill="#151929"/>
											<rect width="1.21215" height="1.26718" transform="matrix(-1 0 0 1 190.469 28.6172)" fill="#151929"/>
											<rect width="1.21215" height="1.26718" transform="matrix(-1 0 0 1 182.781 28.6172)" fill="#151929"/>
											<rect width="1.21215" height="1.26718" transform="matrix(-1 0 0 1 175.109 28.6172)" fill="#151929"/>
											<rect width="1.21215" height="1.26718" transform="matrix(-1 0 0 1 167.43 28.6172)" fill="#151929"/>
											<rect width="1.21215" height="1.26718" transform="matrix(-1 0 0 1 159.758 28.6172)" fill="#151929"/>
											<rect width="1.21215" height="1.26718" transform="matrix(-1 0 0 1 152.078 28.6172)" fill="#151929"/>
											<rect width="1.21215" height="1.26718" transform="matrix(-1 0 0 1 144.406 28.6172)" fill="#151929"/>
											<rect width="1.21215" height="1.26718" transform="matrix(-1 0 0 1 136.727 28.6172)" fill="#151929"/>
											<rect width="1.21215" height="1.26718" transform="matrix(-1 0 0 1 129.047 28.6172)" fill="#151929"/>
											<rect width="1.21215" height="1.26718" transform="matrix(-1 0 0 1 121.375 28.6172)" fill="#151929"/>
											<rect width="1.21215" height="1.26718" transform="matrix(-1 0 0 1 113.695 28.6172)" fill="#151929"/>
											<rect width="1.21215" height="1.26718" transform="matrix(-1 0 0 1 106.016 28.6172)" fill="#151929"/>
											<rect width="1.21215" height="1.26718" transform="matrix(-1 0 0 1 98.3438 28.6172)" fill="#151929"/>
											<rect width="1.21215" height="1.26718" transform="matrix(-1 0 0 1 90.6641 28.6172)" fill="#151929"/>
											<rect width="1.21215" height="1.26718" transform="matrix(-1 0 0 1 82.9844 28.6172)" fill="#151929"/>
											<rect width="1.21215" height="1.26718" transform="matrix(-1 0 0 1 75.3125 28.6172)" fill="#151929"/>
											<rect width="1.21215" height="1.26718" transform="matrix(-1 0 0 1 67.625 28.6172)" fill="#151929"/>
											<rect width="1.21215" height="1.26718" transform="matrix(-1 0 0 1 59.9531 28.6172)" fill="#151929"/>
											<rect width="1.21215" height="1.26718" transform="matrix(-1 0 0 1 52.2812 28.6172)" fill="#151929"/>
											<rect width="1.21215" height="1.26718" transform="matrix(-1 0 0 1 44.6016 28.6172)" fill="#151929"/>
											<rect width="1.21215" height="1.26718" transform="matrix(-1 0 0 1 36.9219 28.6172)" fill="#151929"/>
											<rect width="1.21215" height="1.26718" transform="matrix(-1 0 0 1 29.25 28.6172)" fill="#151929"/>
											<rect width="1.21215" height="1.26718" transform="matrix(-1 0 0 1 21.5703 28.6172)" fill="#151929"/>
											<rect width="1.21215" height="1.26718" transform="matrix(-1 0 0 1 13.8984 28.6172)" fill="#151929"/>
											<rect width="1.21215" height="1.26718" transform="matrix(-1 0 0 1 6.21875 28.6172)" fill="#151929"/>
											<rect width="1.21215" height="1.26718" transform="matrix(-1 0 0 1 198.141 36.6445)" fill="#151929"/>
											<rect width="1.21215" height="1.26718" transform="matrix(-1 0 0 1 190.469 36.6445)" fill="#151929"/>
											<rect width="1.21215" height="1.26718" transform="matrix(-1 0 0 1 182.781 36.6445)" fill="#151929"/>
											<rect width="1.21215" height="1.26718" transform="matrix(-1 0 0 1 175.109 36.6445)" fill="#151929"/>
											<rect width="1.21215" height="1.26718" transform="matrix(-1 0 0 1 167.43 36.6445)" fill="#151929"/>
											<rect width="1.21215" height="1.26718" transform="matrix(-1 0 0 1 159.758 36.6445)" fill="#151929"/>
											<rect width="1.21215" height="1.26718" transform="matrix(-1 0 0 1 152.078 36.6445)" fill="#151929"/>
											<rect width="1.21215" height="1.26718" transform="matrix(-1 0 0 1 144.406 36.6445)" fill="#151929"/>
											<rect width="1.21215" height="1.26718" transform="matrix(-1 0 0 1 136.727 36.6445)" fill="#151929"/>
											<rect width="1.21215" height="1.26718" transform="matrix(-1 0 0 1 129.047 36.6445)" fill="#151929"/>
											<rect width="1.21215" height="1.26718" transform="matrix(-1 0 0 1 121.375 36.6445)" fill="#151929"/>
											<rect width="1.21215" height="1.26718" transform="matrix(-1 0 0 1 113.695 36.6445)" fill="#151929"/>
											<rect width="1.21215" height="1.26718" transform="matrix(-1 0 0 1 106.016 36.6445)" fill="#151929"/>
											<rect width="1.21215" height="1.26718" transform="matrix(-1 0 0 1 98.3438 36.6445)" fill="#151929"/>
											<rect width="1.21215" height="1.26718" transform="matrix(-1 0 0 1 90.6641 36.6445)" fill="#151929"/>
											<rect width="1.21215" height="1.26718" transform="matrix(-1 0 0 1 82.9844 36.6445)" fill="#151929"/>
											<rect width="1.21215" height="1.26718" transform="matrix(-1 0 0 1 75.3125 36.6445)" fill="#151929"/>
											<rect width="1.21215" height="1.26718" transform="matrix(-1 0 0 1 67.625 36.6445)" fill="#151929"/>
											<rect width="1.21215" height="1.26718" transform="matrix(-1 0 0 1 59.9531 36.6445)" fill="#151929"/>
											<rect width="1.21215" height="1.26718" transform="matrix(-1 0 0 1 52.2812 36.6445)" fill="#151929"/>
											<rect width="1.21215" height="1.26718" transform="matrix(-1 0 0 1 44.6016 36.6445)" fill="#151929"/>
											<rect width="1.21215" height="1.26718" transform="matrix(-1 0 0 1 36.9219 36.6445)" fill="#151929"/>
											<rect width="1.21215" height="1.26718" transform="matrix(-1 0 0 1 29.25 36.6445)" fill="#151929"/>
											<rect width="1.21215" height="1.26718" transform="matrix(-1 0 0 1 21.5703 36.6445)" fill="#151929"/>
											<rect width="1.21215" height="1.26718" transform="matrix(-1 0 0 1 13.8984 36.6445)" fill="#151929"/>
											<rect width="1.21215" height="1.26718" transform="matrix(-1 0 0 1 6.21875 36.6445)" fill="#151929"/>
											<rect width="1.21215" height="1.26718" transform="matrix(-1 0 0 1 198.141 44.6641)" fill="#151929"/>
											<rect width="1.21215" height="1.26718" transform="matrix(-1 0 0 1 190.469 44.6641)" fill="#151929"/>
											<rect width="1.21215" height="1.26718" transform="matrix(-1 0 0 1 182.781 44.6641)" fill="#151929"/>
											<rect width="1.21215" height="1.26718" transform="matrix(-1 0 0 1 175.109 44.6641)" fill="#151929"/>
											<rect width="1.21215" height="1.26718" transform="matrix(-1 0 0 1 167.43 44.6641)" fill="#151929"/>
											<rect width="1.21215" height="1.26718" transform="matrix(-1 0 0 1 159.758 44.6641)" fill="#151929"/>
											<rect width="1.21215" height="1.26718" transform="matrix(-1 0 0 1 152.078 44.6641)" fill="#151929"/>
											<rect width="1.21215" height="1.26718" transform="matrix(-1 0 0 1 144.406 44.6641)" fill="#151929"/>
											<rect width="1.21215" height="1.26718" transform="matrix(-1 0 0 1 136.727 44.6641)" fill="#151929"/>
											<rect width="1.21215" height="1.26718" transform="matrix(-1 0 0 1 129.047 44.6641)" fill="#151929"/>
											<rect width="1.21215" height="1.26718" transform="matrix(-1 0 0 1 121.375 44.6641)" fill="#151929"/>
											<rect width="1.21215" height="1.26718" transform="matrix(-1 0 0 1 113.695 44.6641)" fill="#151929"/>
											<rect width="1.21215" height="1.26718" transform="matrix(-1 0 0 1 106.016 44.6641)" fill="#151929"/>
											<rect width="1.21215" height="1.26718" transform="matrix(-1 0 0 1 98.3438 44.6641)" fill="#151929"/>
											<rect width="1.21215" height="1.26718" transform="matrix(-1 0 0 1 90.6641 44.6641)" fill="#151929"/>
											<rect width="1.21215" height="1.26718" transform="matrix(-1 0 0 1 82.9844 44.6641)" fill="#151929"/>
											<rect width="1.21215" height="1.26718" transform="matrix(-1 0 0 1 75.3125 44.6641)" fill="#151929"/>
											<rect width="1.21215" height="1.26718" transform="matrix(-1 0 0 1 67.625 44.6641)" fill="#151929"/>
											<rect width="1.21215" height="1.26718" transform="matrix(-1 0 0 1 59.9531 44.6641)" fill="#151929"/>
											<rect width="1.21215" height="1.26718" transform="matrix(-1 0 0 1 52.2812 44.6641)" fill="#151929"/>
											<rect width="1.21215" height="1.26718" transform="matrix(-1 0 0 1 44.6016 44.6641)" fill="#151929"/>
											<rect width="1.21215" height="1.26718" transform="matrix(-1 0 0 1 36.9219 44.6641)" fill="#151929"/>
											<rect width="1.21215" height="1.26718" transform="matrix(-1 0 0 1 29.25 44.6641)" fill="#151929"/>
											<rect width="1.21215" height="1.26718" transform="matrix(-1 0 0 1 21.5703 44.6641)" fill="#151929"/>
											<rect width="1.21215" height="1.26718" transform="matrix(-1 0 0 1 13.8984 44.6641)" fill="#151929"/>
											<rect width="1.21215" height="1.26718" transform="matrix(-1 0 0 1 6.21875 44.6641)" fill="#151929"/>
											<rect width="1.21215" height="1.26718" transform="matrix(-1 0 0 1 198.141 52.6914)" fill="#151929"/>
											<rect width="1.21215" height="1.26718" transform="matrix(-1 0 0 1 190.469 52.6914)" fill="#151929"/>
											<rect width="1.21215" height="1.26718" transform="matrix(-1 0 0 1 182.781 52.6914)" fill="#151929"/>
											<rect width="1.21215" height="1.26718" transform="matrix(-1 0 0 1 175.109 52.6914)" fill="#151929"/>
											<rect width="1.21215" height="1.26718" transform="matrix(-1 0 0 1 167.43 52.6914)" fill="#151929"/>
											<rect width="1.21215" height="1.26718" transform="matrix(-1 0 0 1 159.758 52.6914)" fill="#151929"/>
											<rect width="1.21215" height="1.26718" transform="matrix(-1 0 0 1 152.078 52.6914)" fill="#151929"/>
											<rect width="1.21215" height="1.26718" transform="matrix(-1 0 0 1 144.406 52.6914)" fill="#151929"/>
											<rect width="1.21215" height="1.26718" transform="matrix(-1 0 0 1 136.727 52.6914)" fill="#151929"/>
											<rect width="1.21215" height="1.26718" transform="matrix(-1 0 0 1 129.047 52.6914)" fill="#151929"/>
											<rect width="1.21215" height="1.26718" transform="matrix(-1 0 0 1 121.375 52.6914)" fill="#151929"/>
											<rect width="1.21215" height="1.26718" transform="matrix(-1 0 0 1 113.695 52.6914)" fill="#151929"/>
											<rect width="1.21215" height="1.26718" transform="matrix(-1 0 0 1 106.016 52.6914)" fill="#151929"/>
											<rect width="1.21215" height="1.26718" transform="matrix(-1 0 0 1 98.3438 52.6914)" fill="#151929"/>
											<rect width="1.21215" height="1.26718" transform="matrix(-1 0 0 1 90.6641 52.6914)" fill="#151929"/>
											<rect width="1.21215" height="1.26718" transform="matrix(-1 0 0 1 82.9844 52.6914)" fill="#151929"/>
											<rect width="1.21215" height="1.26718" transform="matrix(-1 0 0 1 75.3125 52.6914)" fill="#151929"/>
											<rect width="1.21215" height="1.26718" transform="matrix(-1 0 0 1 67.625 52.6914)" fill="#151929"/>
											<rect width="1.21215" height="1.26718" transform="matrix(-1 0 0 1 59.9531 52.6914)" fill="#151929"/>
											<rect width="1.21215" height="1.26718" transform="matrix(-1 0 0 1 52.2812 52.6914)" fill="#151929"/>
											<rect width="1.21215" height="1.26718" transform="matrix(-1 0 0 1 44.6016 52.6914)" fill="#151929"/>
											<rect width="1.21215" height="1.26718" transform="matrix(-1 0 0 1 36.9219 52.6914)" fill="#151929"/>
											<rect width="1.21215" height="1.26718" transform="matrix(-1 0 0 1 29.25 52.6914)" fill="#151929"/>
											<rect width="1.21215" height="1.26718" transform="matrix(-1 0 0 1 21.5703 52.6914)" fill="#151929"/>
											<rect width="1.21215" height="1.26718" transform="matrix(-1 0 0 1 13.8984 52.6914)" fill="#151929"/>
											<rect width="1.21215" height="1.26718" transform="matrix(-1 0 0 1 6.21875 52.6914)" fill="#151929"/>
											<rect width="1.21215" height="1.26718" transform="matrix(-1 0 0 1 198.141 60.7188)" fill="#151929"/>
											<rect width="1.21215" height="1.26718" transform="matrix(-1 0 0 1 190.469 60.7188)" fill="#151929"/>
											<rect width="1.21215" height="1.26718" transform="matrix(-1 0 0 1 182.781 60.7188)" fill="#151929"/>
											<rect width="1.21215" height="1.26718" transform="matrix(-1 0 0 1 175.109 60.7188)" fill="#151929"/>
											<rect width="1.21215" height="1.26718" transform="matrix(-1 0 0 1 167.43 60.7188)" fill="#151929"/>
											<rect width="1.21215" height="1.26718" transform="matrix(-1 0 0 1 159.758 60.7188)" fill="#151929"/>
											<rect width="1.21215" height="1.26718" transform="matrix(-1 0 0 1 152.078 60.7188)" fill="#151929"/>
											<rect width="1.21215" height="1.26718" transform="matrix(-1 0 0 1 144.406 60.7188)" fill="#151929"/>
											<rect width="1.21215" height="1.26718" transform="matrix(-1 0 0 1 136.727 60.7188)" fill="#151929"/>
											<rect width="1.21215" height="1.26718" transform="matrix(-1 0 0 1 129.047 60.7188)" fill="#151929"/>
											<rect width="1.21215" height="1.26718" transform="matrix(-1 0 0 1 121.375 60.7188)" fill="#151929"/>
											<rect width="1.21215" height="1.26718" transform="matrix(-1 0 0 1 113.695 60.7188)" fill="#151929"/>
											<rect width="1.21215" height="1.26718" transform="matrix(-1 0 0 1 106.016 60.7188)" fill="#151929"/>
											<rect width="1.21215" height="1.26718" transform="matrix(-1 0 0 1 98.3438 60.7188)" fill="#151929"/>
											<rect width="1.21215" height="1.26718" transform="matrix(-1 0 0 1 90.6641 60.7188)" fill="#151929"/>
											<rect width="1.21215" height="1.26718" transform="matrix(-1 0 0 1 82.9844 60.7188)" fill="#151929"/>
											<rect width="1.21215" height="1.26718" transform="matrix(-1 0 0 1 75.3125 60.7188)" fill="#151929"/>
											<rect width="1.21215" height="1.26718" transform="matrix(-1 0 0 1 67.625 60.7188)" fill="#151929"/>
											<rect width="1.21215" height="1.26718" transform="matrix(-1 0 0 1 59.9531 60.7188)" fill="#151929"/>
											<rect width="1.21215" height="1.26718" transform="matrix(-1 0 0 1 52.2812 60.7188)" fill="#151929"/>
											<rect width="1.21215" height="1.26718" transform="matrix(-1 0 0 1 44.6016 60.7188)" fill="#151929"/>
											<rect width="1.21215" height="1.26718" transform="matrix(-1 0 0 1 36.9219 60.7188)" fill="#151929"/>
											<rect width="1.21215" height="1.26718" transform="matrix(-1 0 0 1 29.25 60.7188)" fill="#151929"/>
											<rect width="1.21215" height="1.26718" transform="matrix(-1 0 0 1 21.5703 60.7188)" fill="#151929"/>
											<rect width="1.21215" height="1.26718" transform="matrix(-1 0 0 1 13.8984 60.7188)" fill="#151929"/>
											<rect width="1.21215" height="1.26718" transform="matrix(-1 0 0 1 6.21875 60.7188)" fill="#151929"/>
											<rect width="1.21215" height="1.26718" transform="matrix(-1 0 0 1 198.141 68.7422)" fill="#151929"/>
											<rect width="1.21215" height="1.26718" transform="matrix(-1 0 0 1 190.469 68.7422)" fill="#151929"/>
											<rect width="1.21215" height="1.26718" transform="matrix(-1 0 0 1 182.781 68.7422)" fill="#151929"/>
											<rect width="1.21215" height="1.26718" transform="matrix(-1 0 0 1 175.109 68.7422)" fill="#151929"/>
											<rect width="1.21215" height="1.26718" transform="matrix(-1 0 0 1 167.43 68.7422)" fill="#151929"/>
											<rect width="1.21215" height="1.26718" transform="matrix(-1 0 0 1 159.758 68.7422)" fill="#151929"/>
											<rect width="1.21215" height="1.26718" transform="matrix(-1 0 0 1 152.078 68.7422)" fill="#151929"/>
											<rect width="1.21215" height="1.26718" transform="matrix(-1 0 0 1 144.406 68.7422)" fill="#151929"/>
											<rect width="1.21215" height="1.26718" transform="matrix(-1 0 0 1 136.727 68.7422)" fill="#151929"/>
											<rect width="1.21215" height="1.26718" transform="matrix(-1 0 0 1 129.047 68.7422)" fill="#151929"/>
											<rect width="1.21215" height="1.26718" transform="matrix(-1 0 0 1 121.375 68.7422)" fill="#151929"/>
											<rect width="1.21215" height="1.26718" transform="matrix(-1 0 0 1 113.695 68.7422)" fill="#151929"/>
											<rect width="1.21215" height="1.26718" transform="matrix(-1 0 0 1 106.016 68.7422)" fill="#151929"/>
											<rect width="1.21215" height="1.26718" transform="matrix(-1 0 0 1 98.3438 68.7422)" fill="#151929"/>
											<rect width="1.21215" height="1.26718" transform="matrix(-1 0 0 1 90.6641 68.7422)" fill="#151929"/>
											<rect width="1.21215" height="1.26718" transform="matrix(-1 0 0 1 82.9844 68.7422)" fill="#151929"/>
											<rect width="1.21215" height="1.26718" transform="matrix(-1 0 0 1 75.3125 68.7422)" fill="#151929"/>
											<rect width="1.21215" height="1.26718" transform="matrix(-1 0 0 1 67.625 68.7422)" fill="#151929"/>
											<rect width="1.21215" height="1.26718" transform="matrix(-1 0 0 1 59.9531 68.7422)" fill="#151929"/>
											<rect width="1.21215" height="1.26718" transform="matrix(-1 0 0 1 52.2812 68.7422)" fill="#151929"/>
											<rect width="1.21215" height="1.26718" transform="matrix(-1 0 0 1 44.6016 68.7422)" fill="#151929"/>
											<rect width="1.21215" height="1.26718" transform="matrix(-1 0 0 1 36.9219 68.7422)" fill="#151929"/>
											<rect width="1.21215" height="1.26718" transform="matrix(-1 0 0 1 29.25 68.7422)" fill="#151929"/>
											<rect width="1.21215" height="1.26718" transform="matrix(-1 0 0 1 21.5703 68.7422)" fill="#151929"/>
											<rect width="1.21215" height="1.26718" transform="matrix(-1 0 0 1 13.8984 68.7422)" fill="#151929"/>
											<rect width="1.21215" height="1.26718" transform="matrix(-1 0 0 1 6.21875 68.7422)" fill="#151929"/>
											<rect width="1.21215" height="1.26718" transform="matrix(-1 0 0 1 198.141 76.7695)" fill="#151929"/>
											<rect width="1.21215" height="1.26718" transform="matrix(-1 0 0 1 190.469 76.7695)" fill="#151929"/>
											<rect width="1.21215" height="1.26718" transform="matrix(-1 0 0 1 182.781 76.7695)" fill="#151929"/>
											<rect width="1.21215" height="1.26718" transform="matrix(-1 0 0 1 175.109 76.7695)" fill="#151929"/>
											<rect width="1.21215" height="1.26718" transform="matrix(-1 0 0 1 167.43 76.7695)" fill="#151929"/>
											<rect width="1.21215" height="1.26718" transform="matrix(-1 0 0 1 159.758 76.7695)" fill="#151929"/>
											<rect width="1.21215" height="1.26718" transform="matrix(-1 0 0 1 152.078 76.7695)" fill="#151929"/>
											<rect width="1.21215" height="1.26718" transform="matrix(-1 0 0 1 144.406 76.7695)" fill="#151929"/>
											<rect width="1.21215" height="1.26718" transform="matrix(-1 0 0 1 136.727 76.7695)" fill="#151929"/>
											<rect width="1.21215" height="1.26718" transform="matrix(-1 0 0 1 129.047 76.7695)" fill="#151929"/>
											<rect width="1.21215" height="1.26718" transform="matrix(-1 0 0 1 121.375 76.7695)" fill="#151929"/>
											<rect width="1.21215" height="1.26718" transform="matrix(-1 0 0 1 113.695 76.7695)" fill="#151929"/>
											<rect width="1.21215" height="1.26718" transform="matrix(-1 0 0 1 106.016 76.7695)" fill="#151929"/>
											<rect width="1.21215" height="1.26718" transform="matrix(-1 0 0 1 98.3438 76.7695)" fill="#151929"/>
											<rect width="1.21215" height="1.26718" transform="matrix(-1 0 0 1 90.6641 76.7695)" fill="#151929"/>
											<rect width="1.21215" height="1.26718" transform="matrix(-1 0 0 1 82.9844 76.7695)" fill="#151929"/>
											<rect width="1.21215" height="1.26718" transform="matrix(-1 0 0 1 75.3125 76.7695)" fill="#151929"/>
											<rect width="1.21215" height="1.26718" transform="matrix(-1 0 0 1 67.625 76.7695)" fill="#151929"/>
											<rect width="1.21215" height="1.26718" transform="matrix(-1 0 0 1 59.9531 76.7695)" fill="#151929"/>
											<rect width="1.21215" height="1.26718" transform="matrix(-1 0 0 1 52.2812 76.7695)" fill="#151929"/>
											<rect width="1.21215" height="1.26718" transform="matrix(-1 0 0 1 44.6016 76.7695)" fill="#151929"/>
											<rect width="1.21215" height="1.26718" transform="matrix(-1 0 0 1 36.9219 76.7695)" fill="#151929"/>
											<rect width="1.21215" height="1.26718" transform="matrix(-1 0 0 1 29.25 76.7695)" fill="#151929"/>
											<rect width="1.21215" height="1.26718" transform="matrix(-1 0 0 1 21.5703 76.7695)" fill="#151929"/>
											<rect width="1.21215" height="1.26718" transform="matrix(-1 0 0 1 13.8984 76.7695)" fill="#151929"/>
											<rect width="1.21215" height="1.26718" transform="matrix(-1 0 0 1 6.21875 76.7695)" fill="#151929"/>
											<rect width="1.21215" height="1.26718" transform="matrix(-1 0 0 1 198.141 84.793)" fill="#151929"/>
											<rect width="1.21215" height="1.26718" transform="matrix(-1 0 0 1 190.469 84.793)" fill="#151929"/>
											<rect width="1.21215" height="1.26718" transform="matrix(-1 0 0 1 182.781 84.793)" fill="#151929"/>
											<rect width="1.21215" height="1.26718" transform="matrix(-1 0 0 1 175.109 84.793)" fill="#151929"/>
											<rect width="1.21215" height="1.26718" transform="matrix(-1 0 0 1 167.43 84.793)" fill="#151929"/>
											<rect width="1.21215" height="1.26718" transform="matrix(-1 0 0 1 159.758 84.793)" fill="#151929"/>
											<rect width="1.21215" height="1.26718" transform="matrix(-1 0 0 1 152.078 84.793)" fill="#151929"/>
											<rect width="1.21215" height="1.26718" transform="matrix(-1 0 0 1 144.406 84.793)" fill="#151929"/>
											<rect width="1.21215" height="1.26718" transform="matrix(-1 0 0 1 136.727 84.793)" fill="#151929"/>
											<rect width="1.21215" height="1.26718" transform="matrix(-1 0 0 1 129.047 84.793)" fill="#151929"/>
											<rect width="1.21215" height="1.26718" transform="matrix(-1 0 0 1 121.375 84.793)" fill="#151929"/>
											<rect width="1.21215" height="1.26718" transform="matrix(-1 0 0 1 113.695 84.793)" fill="#151929"/>
											<rect width="1.21215" height="1.26718" transform="matrix(-1 0 0 1 106.016 84.793)" fill="#151929"/>
											<rect width="1.21215" height="1.26718" transform="matrix(-1 0 0 1 98.3438 84.793)" fill="#151929"/>
											<rect width="1.21215" height="1.26718" transform="matrix(-1 0 0 1 90.6641 84.793)" fill="#151929"/>
											<rect width="1.21215" height="1.26718" transform="matrix(-1 0 0 1 82.9844 84.793)" fill="#151929"/>
											<rect width="1.21215" height="1.26718" transform="matrix(-1 0 0 1 75.3125 84.793)" fill="#151929"/>
											<rect width="1.21215" height="1.26718" transform="matrix(-1 0 0 1 67.625 84.793)" fill="#151929"/>
											<rect width="1.21215" height="1.26718" transform="matrix(-1 0 0 1 59.9531 84.793)" fill="#151929"/>
											<rect width="1.21215" height="1.26718" transform="matrix(-1 0 0 1 52.2812 84.793)" fill="#151929"/>
											<rect width="1.21215" height="1.26718" transform="matrix(-1 0 0 1 44.6016 84.793)" fill="#151929"/>
											<rect width="1.21215" height="1.26718" transform="matrix(-1 0 0 1 36.9219 84.793)" fill="#151929"/>
											<rect width="1.21215" height="1.26718" transform="matrix(-1 0 0 1 29.25 84.793)" fill="#151929"/>
											<rect width="1.21215" height="1.26718" transform="matrix(-1 0 0 1 21.5703 84.793)" fill="#151929"/>
											<rect width="1.21215" height="1.26718" transform="matrix(-1 0 0 1 13.8984 84.793)" fill="#151929"/>
											<rect width="1.21215" height="1.26718" transform="matrix(-1 0 0 1 6.21875 84.793)" fill="#151929"/>
											<rect width="1.21215" height="1.26718" transform="matrix(-1 0 0 1 198.141 92.8164)" fill="#151929"/>
											<rect width="1.21215" height="1.26718" transform="matrix(-1 0 0 1 190.469 92.8164)" fill="#151929"/>
											<rect width="1.21215" height="1.26718" transform="matrix(-1 0 0 1 182.781 92.8164)" fill="#151929"/>
											<rect width="1.21215" height="1.26718" transform="matrix(-1 0 0 1 175.109 92.8164)" fill="#151929"/>
											<rect width="1.21215" height="1.26718" transform="matrix(-1 0 0 1 167.43 92.8164)" fill="#151929"/>
											<rect width="1.21215" height="1.26718" transform="matrix(-1 0 0 1 159.758 92.8164)" fill="#151929"/>
											<rect width="1.21215" height="1.26718" transform="matrix(-1 0 0 1 152.078 92.8164)" fill="#151929"/>
											<rect width="1.21215" height="1.26718" transform="matrix(-1 0 0 1 144.406 92.8164)" fill="#151929"/>
											<rect width="1.21215" height="1.26718" transform="matrix(-1 0 0 1 136.727 92.8164)" fill="#151929"/>
											<rect width="1.21215" height="1.26718" transform="matrix(-1 0 0 1 129.047 92.8164)" fill="#151929"/>
											<rect width="1.21215" height="1.26718" transform="matrix(-1 0 0 1 121.375 92.8164)" fill="#151929"/>
											<rect width="1.21215" height="1.26718" transform="matrix(-1 0 0 1 113.695 92.8164)" fill="#151929"/>
											<rect width="1.21215" height="1.26718" transform="matrix(-1 0 0 1 106.016 92.8164)" fill="#151929"/>
											<rect width="1.21215" height="1.26718" transform="matrix(-1 0 0 1 98.3438 92.8164)" fill="#151929"/>
											<rect width="1.21215" height="1.26718" transform="matrix(-1 0 0 1 90.6641 92.8164)" fill="#151929"/>
											<rect width="1.21215" height="1.26718" transform="matrix(-1 0 0 1 82.9844 92.8164)" fill="#151929"/>
											<rect width="1.21215" height="1.26718" transform="matrix(-1 0 0 1 75.3125 92.8164)" fill="#151929"/>
											<rect width="1.21215" height="1.26718" transform="matrix(-1 0 0 1 67.625 92.8164)" fill="#151929"/>
											<rect width="1.21215" height="1.26718" transform="matrix(-1 0 0 1 59.9531 92.8164)" fill="#151929"/>
											<rect width="1.21215" height="1.26718" transform="matrix(-1 0 0 1 52.2812 92.8164)" fill="#151929"/>
											<rect width="1.21215" height="1.26718" transform="matrix(-1 0 0 1 44.6016 92.8164)" fill="#151929"/>
											<rect width="1.21215" height="1.26718" transform="matrix(-1 0 0 1 36.9219 92.8164)" fill="#151929"/>
											<rect width="1.21215" height="1.26718" transform="matrix(-1 0 0 1 29.25 92.8164)" fill="#151929"/>
											<rect width="1.21215" height="1.26718" transform="matrix(-1 0 0 1 21.5703 92.8164)" fill="#151929"/>
											<rect width="1.21215" height="1.26718" transform="matrix(-1 0 0 1 13.8984 92.8164)" fill="#151929"/>
											<rect width="1.21215" height="1.26718" transform="matrix(-1 0 0 1 6.21875 92.8164)" fill="#151929"/>
											<rect width="1.21215" height="1.26718" transform="matrix(-1 0 0 1 198.141 100.848)" fill="#151929"/>
											<rect width="1.21215" height="1.26718" transform="matrix(-1 0 0 1 190.469 100.848)" fill="#151929"/>
											<rect width="1.21215" height="1.26718" transform="matrix(-1 0 0 1 182.781 100.848)" fill="#151929"/>
											<rect width="1.21215" height="1.26718" transform="matrix(-1 0 0 1 175.109 100.848)" fill="#151929"/>
											<rect width="1.21215" height="1.26718" transform="matrix(-1 0 0 1 167.43 100.848)" fill="#151929"/>
											<rect width="1.21215" height="1.26718" transform="matrix(-1 0 0 1 159.758 100.848)" fill="#151929"/>
											<rect width="1.21215" height="1.26718" transform="matrix(-1 0 0 1 152.078 100.848)" fill="#151929"/>
											<rect width="1.21215" height="1.26718" transform="matrix(-1 0 0 1 144.406 100.848)" fill="#151929"/>
											<rect width="1.21215" height="1.26718" transform="matrix(-1 0 0 1 136.727 100.848)" fill="#151929"/>
											<rect width="1.21215" height="1.26718" transform="matrix(-1 0 0 1 129.047 100.848)" fill="#151929"/>
											<rect width="1.21215" height="1.26718" transform="matrix(-1 0 0 1 121.375 100.848)" fill="#151929"/>
											<rect width="1.21215" height="1.26718" transform="matrix(-1 0 0 1 113.695 100.848)" fill="#151929"/>
											<rect width="1.21215" height="1.26718" transform="matrix(-1 0 0 1 106.016 100.848)" fill="#151929"/>
											<rect width="1.21215" height="1.26718" transform="matrix(-1 0 0 1 98.3438 100.848)" fill="#151929"/>
											<rect width="1.21215" height="1.26718" transform="matrix(-1 0 0 1 90.6641 100.848)" fill="#151929"/>
											<rect width="1.21215" height="1.26718" transform="matrix(-1 0 0 1 82.9844 100.848)" fill="#151929"/>
											<rect width="1.21215" height="1.26718" transform="matrix(-1 0 0 1 75.3125 100.848)" fill="#151929"/>
											<rect width="1.21215" height="1.26718" transform="matrix(-1 0 0 1 67.625 100.848)" fill="#151929"/>
											<rect width="1.21215" height="1.26718" transform="matrix(-1 0 0 1 59.9531 100.848)" fill="#151929"/>
											<rect width="1.21215" height="1.26718" transform="matrix(-1 0 0 1 52.2812 100.848)" fill="#151929"/>
											<rect width="1.21215" height="1.26718" transform="matrix(-1 0 0 1 44.6016 100.848)" fill="#151929"/>
											<rect width="1.21215" height="1.26718" transform="matrix(-1 0 0 1 36.9219 100.848)" fill="#151929"/>
											<rect width="1.21215" height="1.26718" transform="matrix(-1 0 0 1 29.25 100.848)" fill="#151929"/>
											<rect width="1.21215" height="1.26718" transform="matrix(-1 0 0 1 21.5703 100.848)" fill="#151929"/>
											<rect width="1.21215" height="1.26718" transform="matrix(-1 0 0 1 13.8984 100.848)" fill="#151929"/>
											<rect width="1.21215" height="1.26718" transform="matrix(-1 0 0 1 6.21875 100.848)" fill="#151929"/>
											<rect width="1.21215" height="1.26718" transform="matrix(-1 0 0 1 198.141 108.867)" fill="#151929"/>
											<rect width="1.21215" height="1.26718" transform="matrix(-1 0 0 1 190.469 108.867)" fill="#151929"/>
											<rect width="1.21215" height="1.26718" transform="matrix(-1 0 0 1 182.781 108.867)" fill="#151929"/>
											<rect width="1.21215" height="1.26718" transform="matrix(-1 0 0 1 175.109 108.867)" fill="#151929"/>
											<rect width="1.21215" height="1.26718" transform="matrix(-1 0 0 1 167.43 108.867)" fill="#151929"/>
											<rect width="1.21215" height="1.26718" transform="matrix(-1 0 0 1 159.758 108.867)" fill="#151929"/>
											<rect width="1.21215" height="1.26718" transform="matrix(-1 0 0 1 152.078 108.867)" fill="#151929"/>
											<rect width="1.21215" height="1.26718" transform="matrix(-1 0 0 1 144.406 108.867)" fill="#151929"/>
											<rect width="1.21215" height="1.26718" transform="matrix(-1 0 0 1 136.727 108.867)" fill="#151929"/>
											<rect width="1.21215" height="1.26718" transform="matrix(-1 0 0 1 129.047 108.867)" fill="#151929"/>
											<rect width="1.21215" height="1.26718" transform="matrix(-1 0 0 1 121.375 108.867)" fill="#151929"/>
											<rect width="1.21215" height="1.26718" transform="matrix(-1 0 0 1 113.695 108.867)" fill="#151929"/>
											<rect width="1.21215" height="1.26718" transform="matrix(-1 0 0 1 106.016 108.867)" fill="#151929"/>
											<rect width="1.21215" height="1.26718" transform="matrix(-1 0 0 1 98.3438 108.867)" fill="#151929"/>
											<rect width="1.21215" height="1.26718" transform="matrix(-1 0 0 1 90.6641 108.867)" fill="#151929"/>
											<rect width="1.21215" height="1.26718" transform="matrix(-1 0 0 1 82.9844 108.867)" fill="#151929"/>
											<rect width="1.21215" height="1.26718" transform="matrix(-1 0 0 1 75.3125 108.867)" fill="#151929"/>
											<rect width="1.21215" height="1.26718" transform="matrix(-1 0 0 1 67.625 108.867)" fill="#151929"/>
											<rect width="1.21215" height="1.26718" transform="matrix(-1 0 0 1 59.9531 108.867)" fill="#151929"/>
											<rect width="1.21215" height="1.26718" transform="matrix(-1 0 0 1 52.2812 108.867)" fill="#151929"/>
											<rect width="1.21215" height="1.26718" transform="matrix(-1 0 0 1 44.6016 108.867)" fill="#151929"/>
											<rect width="1.21215" height="1.26718" transform="matrix(-1 0 0 1 36.9219 108.867)" fill="#151929"/>
											<rect width="1.21215" height="1.26718" transform="matrix(-1 0 0 1 29.25 108.867)" fill="#151929"/>
											<rect width="1.21215" height="1.26718" transform="matrix(-1 0 0 1 21.5703 108.867)" fill="#151929"/>
											<rect width="1.21215" height="1.26718" transform="matrix(-1 0 0 1 13.8984 108.867)" fill="#151929"/>
											<rect width="1.21215" height="1.26718" transform="matrix(-1 0 0 1 6.21875 108.867)" fill="#151929"/>
											<rect width="1.21215" height="1.26718" transform="matrix(-1 0 0 1 198.141 116.895)" fill="#151929"/>
											<rect width="1.21215" height="1.26718" transform="matrix(-1 0 0 1 190.469 116.895)" fill="#151929"/>
											<rect width="1.21215" height="1.26718" transform="matrix(-1 0 0 1 182.781 116.895)" fill="#151929"/>
											<rect width="1.21215" height="1.26718" transform="matrix(-1 0 0 1 175.109 116.895)" fill="#151929"/>
											<rect width="1.21215" height="1.26718" transform="matrix(-1 0 0 1 167.43 116.895)" fill="#151929"/>
											<rect width="1.21215" height="1.26718" transform="matrix(-1 0 0 1 159.758 116.895)" fill="#151929"/>
											<rect width="1.21215" height="1.26718" transform="matrix(-1 0 0 1 152.078 116.895)" fill="#151929"/>
											<rect width="1.21215" height="1.26718" transform="matrix(-1 0 0 1 144.406 116.895)" fill="#151929"/>
											<rect width="1.21215" height="1.26718" transform="matrix(-1 0 0 1 136.727 116.895)" fill="#151929"/>
											<rect width="1.21215" height="1.26718" transform="matrix(-1 0 0 1 129.047 116.895)" fill="#151929"/>
											<rect width="1.21215" height="1.26718" transform="matrix(-1 0 0 1 121.375 116.895)" fill="#151929"/>
											<rect width="1.21215" height="1.26718" transform="matrix(-1 0 0 1 113.695 116.895)" fill="#151929"/>
											<rect width="1.21215" height="1.26718" transform="matrix(-1 0 0 1 106.016 116.895)" fill="#151929"/>
											<rect width="1.21215" height="1.26718" transform="matrix(-1 0 0 1 98.3438 116.895)" fill="#151929"/>
											<rect width="1.21215" height="1.26718" transform="matrix(-1 0 0 1 90.6641 116.895)" fill="#151929"/>
											<rect width="1.21215" height="1.26718" transform="matrix(-1 0 0 1 82.9844 116.895)" fill="#151929"/>
											<rect width="1.21215" height="1.26718" transform="matrix(-1 0 0 1 75.3125 116.895)" fill="#151929"/>
											<rect width="1.21215" height="1.26718" transform="matrix(-1 0 0 1 67.625 116.895)" fill="#151929"/>
											<rect width="1.21215" height="1.26718" transform="matrix(-1 0 0 1 59.9531 116.895)" fill="#151929"/>
											<rect width="1.21215" height="1.26718" transform="matrix(-1 0 0 1 52.2812 116.895)" fill="#151929"/>
											<rect width="1.21215" height="1.26718" transform="matrix(-1 0 0 1 44.6016 116.895)" fill="#151929"/>
											<rect width="1.21215" height="1.26718" transform="matrix(-1 0 0 1 36.9219 116.895)" fill="#151929"/>
											<rect width="1.21215" height="1.26718" transform="matrix(-1 0 0 1 29.25 116.895)" fill="#151929"/>
											<rect width="1.21215" height="1.26718" transform="matrix(-1 0 0 1 21.5703 116.895)" fill="#151929"/>
											<rect width="1.21215" height="1.26718" transform="matrix(-1 0 0 1 13.8984 116.895)" fill="#151929"/>
											<rect width="1.21215" height="1.26718" transform="matrix(-1 0 0 1 6.21875 116.895)" fill="#151929"/>
											<rect width="1.21215" height="1.26718" transform="matrix(-1 0 0 1 198.141 124.922)" fill="#151929"/>
											<rect width="1.21215" height="1.26718" transform="matrix(-1 0 0 1 190.469 124.922)" fill="#151929"/>
											<rect width="1.21215" height="1.26718" transform="matrix(-1 0 0 1 182.781 124.922)" fill="#151929"/>
											<rect width="1.21215" height="1.26718" transform="matrix(-1 0 0 1 175.109 124.922)" fill="#151929"/>
											<rect width="1.21215" height="1.26718" transform="matrix(-1 0 0 1 167.43 124.922)" fill="#151929"/>
											<rect width="1.21215" height="1.26718" transform="matrix(-1 0 0 1 159.758 124.922)" fill="#151929"/>
											<rect width="1.21215" height="1.26718" transform="matrix(-1 0 0 1 152.078 124.922)" fill="#151929"/>
											<rect width="1.21215" height="1.26718" transform="matrix(-1 0 0 1 144.406 124.922)" fill="#151929"/>
											<rect width="1.21215" height="1.26718" transform="matrix(-1 0 0 1 136.727 124.922)" fill="#151929"/>
											<rect width="1.21215" height="1.26718" transform="matrix(-1 0 0 1 129.047 124.922)" fill="#151929"/>
											<rect width="1.21215" height="1.26718" transform="matrix(-1 0 0 1 121.375 124.922)" fill="#151929"/>
											<rect width="1.21215" height="1.26718" transform="matrix(-1 0 0 1 113.695 124.922)" fill="#151929"/>
											<rect width="1.21215" height="1.26718" transform="matrix(-1 0 0 1 106.016 124.922)" fill="#151929"/>
											<rect width="1.21215" height="1.26718" transform="matrix(-1 0 0 1 98.3438 124.922)" fill="#151929"/>
											<rect width="1.21215" height="1.26718" transform="matrix(-1 0 0 1 90.6641 124.922)" fill="#151929"/>
											<rect width="1.21215" height="1.26718" transform="matrix(-1 0 0 1 82.9844 124.922)" fill="#151929"/>
											<rect width="1.21215" height="1.26718" transform="matrix(-1 0 0 1 75.3125 124.922)" fill="#151929"/>
											<rect width="1.21215" height="1.26718" transform="matrix(-1 0 0 1 67.625 124.922)" fill="#151929"/>
											<rect width="1.21215" height="1.26718" transform="matrix(-1 0 0 1 59.9531 124.922)" fill="#151929"/>
											<rect width="1.21215" height="1.26718" transform="matrix(-1 0 0 1 52.2812 124.922)" fill="#151929"/>
											<rect width="1.21215" height="1.26718" transform="matrix(-1 0 0 1 44.6016 124.922)" fill="#151929"/>
											<rect width="1.21215" height="1.26718" transform="matrix(-1 0 0 1 36.9219 124.922)" fill="#151929"/>
											<rect width="1.21215" height="1.26718" transform="matrix(-1 0 0 1 29.25 124.922)" fill="#151929"/>
											<rect width="1.21215" height="1.26718" transform="matrix(-1 0 0 1 21.5703 124.922)" fill="#151929"/>
											<rect width="1.21215" height="1.26718" transform="matrix(-1 0 0 1 13.8984 124.922)" fill="#151929"/>
											<rect width="1.21215" height="1.26718" transform="matrix(-1 0 0 1 6.21875 124.922)" fill="#151929"/>
											<rect width="1.21215" height="1.26718" transform="matrix(-1 0 0 1 198.141 132.941)" fill="#151929"/>
											<rect width="1.21215" height="1.26718" transform="matrix(-1 0 0 1 190.469 132.941)" fill="#151929"/>
											<rect width="1.21215" height="1.26718" transform="matrix(-1 0 0 1 182.781 132.941)" fill="#151929"/>
											<rect width="1.21215" height="1.26718" transform="matrix(-1 0 0 1 175.109 132.941)" fill="#151929"/>
											<rect width="1.21215" height="1.26718" transform="matrix(-1 0 0 1 167.43 132.941)" fill="#151929"/>
											<rect width="1.21215" height="1.26718" transform="matrix(-1 0 0 1 159.758 132.941)" fill="#151929"/>
											<rect width="1.21215" height="1.26718" transform="matrix(-1 0 0 1 152.078 132.941)" fill="#151929"/>
											<rect width="1.21215" height="1.26718" transform="matrix(-1 0 0 1 144.406 132.941)" fill="#151929"/>
											<rect width="1.21215" height="1.26718" transform="matrix(-1 0 0 1 136.727 132.941)" fill="#151929"/>
											<rect width="1.21215" height="1.26718" transform="matrix(-1 0 0 1 129.047 132.941)" fill="#151929"/>
											<rect width="1.21215" height="1.26718" transform="matrix(-1 0 0 1 121.375 132.941)" fill="#151929"/>
											<rect width="1.21215" height="1.26718" transform="matrix(-1 0 0 1 113.695 132.941)" fill="#151929"/>
											<rect width="1.21215" height="1.26718" transform="matrix(-1 0 0 1 106.016 132.941)" fill="#151929"/>
											<rect width="1.21215" height="1.26718" transform="matrix(-1 0 0 1 98.3438 132.941)" fill="#151929"/>
											<rect width="1.21215" height="1.26718" transform="matrix(-1 0 0 1 90.6641 132.941)" fill="#151929"/>
											<rect width="1.21215" height="1.26718" transform="matrix(-1 0 0 1 82.9844 132.941)" fill="#151929"/>
											<rect width="1.21215" height="1.26718" transform="matrix(-1 0 0 1 75.3125 132.941)" fill="#151929"/>
											<rect width="1.21215" height="1.26718" transform="matrix(-1 0 0 1 67.625 132.941)" fill="#151929"/>
											<rect width="1.21215" height="1.26718" transform="matrix(-1 0 0 1 59.9531 132.941)" fill="#151929"/>
											<rect width="1.21215" height="1.26718" transform="matrix(-1 0 0 1 52.2812 132.941)" fill="#151929"/>
											<rect width="1.21215" height="1.26718" transform="matrix(-1 0 0 1 44.6016 132.941)" fill="#151929"/>
											<rect width="1.21215" height="1.26718" transform="matrix(-1 0 0 1 36.9219 132.941)" fill="#151929"/>
											<rect width="1.21215" height="1.26718" transform="matrix(-1 0 0 1 29.25 132.941)" fill="#151929"/>
											<rect width="1.21215" height="1.26718" transform="matrix(-1 0 0 1 21.5703 132.941)" fill="#151929"/>
											<rect width="1.21215" height="1.26718" transform="matrix(-1 0 0 1 13.8984 132.941)" fill="#151929"/>
											<rect width="1.21215" height="1.26718" transform="matrix(-1 0 0 1 6.21875 132.941)" fill="#151929"/>
											<rect width="1.21215" height="1.26718" transform="matrix(-1 0 0 1 198.141 140.977)" fill="#151929"/>
											<rect width="1.21215" height="1.26718" transform="matrix(-1 0 0 1 190.469 140.977)" fill="#151929"/>
											<rect width="1.21215" height="1.26718" transform="matrix(-1 0 0 1 182.781 140.977)" fill="#151929"/>
											<rect width="1.21215" height="1.26718" transform="matrix(-1 0 0 1 175.109 140.977)" fill="#151929"/>
											<rect width="1.21215" height="1.26718" transform="matrix(-1 0 0 1 167.43 140.977)" fill="#151929"/>
											<rect width="1.21215" height="1.26718" transform="matrix(-1 0 0 1 159.758 140.977)" fill="#151929"/>
											<rect width="1.21215" height="1.26718" transform="matrix(-1 0 0 1 152.078 140.977)" fill="#151929"/>
											<rect width="1.21215" height="1.26718" transform="matrix(-1 0 0 1 144.406 140.977)" fill="#151929"/>
											<rect width="1.21215" height="1.26718" transform="matrix(-1 0 0 1 136.727 140.977)" fill="#151929"/>
											<rect width="1.21215" height="1.26718" transform="matrix(-1 0 0 1 129.047 140.977)" fill="#151929"/>
											<rect width="1.21215" height="1.26718" transform="matrix(-1 0 0 1 121.375 140.977)" fill="#151929"/>
											<rect width="1.21215" height="1.26718" transform="matrix(-1 0 0 1 113.695 140.977)" fill="#151929"/>
											<rect width="1.21215" height="1.26718" transform="matrix(-1 0 0 1 106.016 140.977)" fill="#151929"/>
											<rect width="1.21215" height="1.26718" transform="matrix(-1 0 0 1 98.3438 140.977)" fill="#151929"/>
											<rect width="1.21215" height="1.26718" transform="matrix(-1 0 0 1 90.6641 140.977)" fill="#151929"/>
											<rect width="1.21215" height="1.26718" transform="matrix(-1 0 0 1 82.9844 140.977)" fill="#151929"/>
											<rect width="1.21215" height="1.26718" transform="matrix(-1 0 0 1 75.3125 140.977)" fill="#151929"/>
											<rect width="1.21215" height="1.26718" transform="matrix(-1 0 0 1 67.625 140.977)" fill="#151929"/>
											<rect width="1.21215" height="1.26718" transform="matrix(-1 0 0 1 59.9531 140.977)" fill="#151929"/>
											<rect width="1.21215" height="1.26718" transform="matrix(-1 0 0 1 52.2812 140.977)" fill="#151929"/>
											<rect width="1.21215" height="1.26718" transform="matrix(-1 0 0 1 44.6016 140.977)" fill="#151929"/>
											<rect width="1.21215" height="1.26718" transform="matrix(-1 0 0 1 36.9219 140.977)" fill="#151929"/>
											<rect width="1.21215" height="1.26718" transform="matrix(-1 0 0 1 29.25 140.977)" fill="#151929"/>
											<rect width="1.21215" height="1.26718" transform="matrix(-1 0 0 1 21.5703 140.977)" fill="#151929"/>
											<rect width="1.21215" height="1.26718" transform="matrix(-1 0 0 1 13.8984 140.977)" fill="#151929"/>
											<rect width="1.21215" height="1.26718" transform="matrix(-1 0 0 1 6.21875 140.977)" fill="#151929"/>
											</g>
											<g opacity="0.6">
											<mask id="mask1_2694_22725" style="mask-type:alpha" maskUnits="userSpaceOnUse" x="36" y="29" width="130" height="89">
											<path d="M130.521 104.074L109.937 29.8789H92.0627L71.3201 104.075L71.0727 104.96L70.8377 104.072L51.2044 29.8789H36.3346L62.2186 117.463H80.2565L100.839 46.2738L101.079 45.4431L101.32 46.2738L121.902 117.463H139.781L165.665 29.8789H150.954L131.003 104.072L130.766 104.956L130.521 104.074Z" fill="#131827" stroke="#323F5F" stroke-width="0.5"/>
											</mask>
											<g mask="url(#mask1_2694_22725)">
											<g filter="url(#filter3_f_2694_22725)">
											<ellipse cx="13.642" cy="14.2613" rx="13.642" ry="14.2613" transform="matrix(-1 0 0 1 124.273 95.0625)" fill="#323F5F"/>
											</g>
											<g filter="url(#filter4_f_2694_22725)">
											<ellipse cx="13.642" cy="14.2613" rx="13.642" ry="14.2613" transform="matrix(-1 0 0 1 147.547 33.8242)" fill="#323F5F"/>
											</g>
											<g filter="url(#filter5_f_2694_22725)">
											<ellipse cx="13.642" cy="14.2613" rx="13.642" ry="14.2613" transform="matrix(-1 0 0 1 172.422 32.1445)" fill="#070917"/>
											</g>
											</g>
											</g>
											<path d="M166 29.6289H150.762L130.762 104.008L110.127 29.6289H91.873L71.0794 104.008L51.3968 29.6289H36L62.0317 117.713H80.4444L101.079 46.3432L121.714 117.713H139.968L166 29.6289Z" fill="#0C0F1D"/>
											<path opacity="0.6" d="M130.521 104.074L109.937 29.8789H92.0627L71.3201 104.075L71.0727 104.96L70.8377 104.072L51.2044 29.8789H36.3346L62.2185 117.463H80.2565L100.839 46.2738L101.079 45.4431L101.32 46.2738L121.902 117.463H139.781L165.665 29.8789H150.954L131.003 104.072L130.766 104.956L130.521 104.074Z" fill="#13192C" stroke="url(#paint2_linear_2694_22725)" stroke-width="0.5"/>
											<defs>
											<filter id="filter0_b_2694_22725" x="-19" y="-19.6445" width="242" height="186.355" filterUnits="userSpaceOnUse" color-interpolation-filters="sRGB">
											<feFlood flood-opacity="0" result="BackgroundImageFix"/>
											<feGaussianBlur in="BackgroundImageFix" stdDeviation="10"/>
											<feComposite in2="SourceAlpha" operator="in" result="effect1_backgroundBlur_2694_22725"/>
											<feBlend mode="normal" in="SourceGraphic" in2="effect1_backgroundBlur_2694_22725" result="shape"/>
											</filter>
											<filter id="filter1_f_2694_22725" x="-118" y="-113.648" width="440" height="445.449" filterUnits="userSpaceOnUse" color-interpolation-filters="sRGB">
											<feFlood flood-opacity="0" result="BackgroundImageFix"/>
											<feBlend mode="normal" in="SourceGraphic" in2="BackgroundImageFix" result="shape"/>
											<feGaussianBlur stdDeviation="80" result="effect1_foregroundBlur_2694_22725"/>
											</filter>
											<filter id="filter2_f_2694_22725" x="-56" y="-69.6445" width="247" height="286.355" filterUnits="userSpaceOnUse" color-interpolation-filters="sRGB">
											<feFlood flood-opacity="0" result="BackgroundImageFix"/>
											<feBlend mode="normal" in="SourceGraphic" in2="BackgroundImageFix" result="shape"/>
											<feGaussianBlur stdDeviation="35" result="effect1_foregroundBlur_2694_22725"/>
											</filter>
											<filter id="filter3_f_2694_22725" x="52.9883" y="51.0625" width="115.285" height="116.523" filterUnits="userSpaceOnUse" color-interpolation-filters="sRGB">
											<feFlood flood-opacity="0" result="BackgroundImageFix"/>
											<feBlend mode="normal" in="SourceGraphic" in2="BackgroundImageFix" result="shape"/>
											<feGaussianBlur stdDeviation="22" result="effect1_foregroundBlur_2694_22725"/>
											</filter>
											<filter id="filter4_f_2694_22725" x="76.2617" y="-10.1758" width="115.285" height="116.523" filterUnits="userSpaceOnUse" color-interpolation-filters="sRGB">
											<feFlood flood-opacity="0" result="BackgroundImageFix"/>
											<feBlend mode="normal" in="SourceGraphic" in2="BackgroundImageFix" result="shape"/>
											<feGaussianBlur stdDeviation="22" result="effect1_foregroundBlur_2694_22725"/>
											</filter>
											<filter id="filter5_f_2694_22725" x="101.137" y="-11.8555" width="115.285" height="116.523" filterUnits="userSpaceOnUse" color-interpolation-filters="sRGB">
											<feFlood flood-opacity="0" result="BackgroundImageFix"/>
											<feBlend mode="normal" in="SourceGraphic" in2="BackgroundImageFix" result="shape"/>
											<feGaussianBlur stdDeviation="22" result="effect1_foregroundBlur_2694_22725"/>
											</filter>
											<linearGradient id="paint0_linear_2694_22725" x1="101" y1="-2.58339e-07" x2="94.7135" y2="146.494" gradientUnits="userSpaceOnUse">
											<stop stop-color="#151726"/>
											<stop offset="1" stop-color="#0E101A"/>
											</linearGradient>
											<linearGradient id="paint1_linear_2694_22725" x1="101.5" y1="2.51419e-06" x2="34.5014" y2="134.796" gradientUnits="userSpaceOnUse">
											<stop stop-color="#0E121D"/>
											<stop offset="1" stop-color="#0E1121"/>
											</linearGradient>
											<linearGradient id="paint2_linear_2694_22725" x1="101" y1="29.6289" x2="101" y2="117.713" gradientUnits="userSpaceOnUse">
											<stop stop-color="#212941"/>
											<stop offset="1" stop-color="#181C29"/>
											</linearGradient>
											</defs>
										</svg>