										<svg width="252" height="189" viewBox="0 0 252 189" fill="none" xmlns="http://www.w3.org/2000/svg">
											<rect y="0.726562" width="252" height="188.171" rx="12" fill="#121524"/>
											<mask id="mask0_6427_142" style="mask-type:alpha" maskUnits="userSpaceOnUse" x="0" y="0" width="252" height="189">
											<rect y="0.726562" width="252" height="188.171" rx="12" fill="url(#paint0_linear_6427_142)"/>
											</mask>
											<g mask="url(#mask0_6427_142)">
											<g filter="url(#filter0_f_6427_142)">
											<ellipse cx="126" cy="228.625" rx="106" ry="110.812" fill="#070917"/>
											</g>
											</g>
											<rect x="6" y="9.08984" width="1.5" height="1.5681" fill="#151929"/>
											<rect x="15.5" y="9.08984" width="1.5" height="1.5681" fill="#151929"/>
											<rect x="25" y="9.08984" width="1.5" height="1.5681" fill="#151929"/>
											<rect x="34.5" y="9.08984" width="1.5" height="1.5681" fill="#151929"/>
											<rect x="44" y="9.08984" width="1.5" height="1.5681" fill="#151929"/>
											<rect x="53.5" y="9.08984" width="1.5" height="1.5681" fill="#151929"/>
											<rect x="63" y="9.08984" width="1.5" height="1.5681" fill="#151929"/>
											<rect x="72.5" y="9.08984" width="1.5" height="1.5681" fill="#151929"/>
											<rect x="82" y="9.08984" width="1.5" height="1.5681" fill="#151929"/>
											<rect x="91.5" y="9.08984" width="1.5" height="1.5681" fill="#151929"/>
											<rect x="101" y="9.08984" width="1.5" height="1.5681" fill="#151929"/>
											<rect x="110.5" y="9.08984" width="1.5" height="1.5681" fill="#151929"/>
											<rect x="120" y="9.08984" width="1.5" height="1.5681" fill="#151929"/>
											<rect x="129.5" y="9.08984" width="1.5" height="1.5681" fill="#151929"/>
											<rect x="139" y="9.08984" width="1.5" height="1.5681" fill="#151929"/>
											<rect x="148.5" y="9.08984" width="1.5" height="1.5681" fill="#151929"/>
											<rect x="158" y="9.08984" width="1.5" height="1.5681" fill="#151929"/>
											<rect x="167.5" y="9.08984" width="1.5" height="1.5681" fill="#151929"/>
											<rect x="177" y="9.08984" width="1.5" height="1.5681" fill="#151929"/>
											<rect x="186.5" y="9.08984" width="1.5" height="1.5681" fill="#151929"/>
											<rect x="196" y="9.08984" width="1.5" height="1.5681" fill="#151929"/>
											<rect x="205.5" y="9.08984" width="1.5" height="1.5681" fill="#151929"/>
											<rect x="215" y="9.08984" width="1.5" height="1.5681" fill="#151929"/>
											<rect x="224.5" y="9.08984" width="1.5" height="1.5681" fill="#151929"/>
											<rect x="234" y="9.08984" width="1.5" height="1.5681" fill="#151929"/>
											<rect x="243.5" y="9.08984" width="1.5" height="1.5681" fill="#151929"/>
											<rect x="6" y="19.0195" width="1.5" height="1.5681" fill="#151929"/>
											<rect x="15.5" y="19.0195" width="1.5" height="1.5681" fill="#151929"/>
											<rect x="25" y="19.0195" width="1.5" height="1.5681" fill="#151929"/>
											<rect x="34.5" y="19.0195" width="1.5" height="1.5681" fill="#151929"/>
											<rect x="44" y="19.0195" width="1.5" height="1.5681" fill="#151929"/>
											<rect x="53.5" y="19.0195" width="1.5" height="1.5681" fill="#151929"/>
											<rect x="63" y="19.0195" width="1.5" height="1.5681" fill="#151929"/>
											<rect x="72.5" y="19.0195" width="1.5" height="1.5681" fill="#151929"/>
											<rect x="82" y="19.0195" width="1.5" height="1.5681" fill="#151929"/>
											<rect x="91.5" y="19.0195" width="1.5" height="1.5681" fill="#151929"/>
											<rect x="101" y="19.0195" width="1.5" height="1.5681" fill="#151929"/>
											<rect x="110.5" y="19.0195" width="1.5" height="1.5681" fill="#151929"/>
											<rect x="120" y="19.0195" width="1.5" height="1.5681" fill="#151929"/>
											<rect x="129.5" y="19.0195" width="1.5" height="1.5681" fill="#151929"/>
											<rect x="139" y="19.0195" width="1.5" height="1.5681" fill="#151929"/>
											<rect x="148.5" y="19.0195" width="1.5" height="1.5681" fill="#151929"/>
											<rect x="158" y="19.0195" width="1.5" height="1.5681" fill="#151929"/>
											<rect x="167.5" y="19.0195" width="1.5" height="1.5681" fill="#151929"/>
											<rect x="177" y="19.0195" width="1.5" height="1.5681" fill="#151929"/>
											<rect x="186.5" y="19.0195" width="1.5" height="1.5681" fill="#151929"/>
											<rect x="196" y="19.0195" width="1.5" height="1.5681" fill="#151929"/>
											<rect x="205.5" y="19.0195" width="1.5" height="1.5681" fill="#151929"/>
											<rect x="215" y="19.0195" width="1.5" height="1.5681" fill="#151929"/>
											<rect x="224.5" y="19.0195" width="1.5" height="1.5681" fill="#151929"/>
											<rect x="234" y="19.0195" width="1.5" height="1.5681" fill="#151929"/>
											<rect x="243.5" y="19.0195" width="1.5" height="1.5681" fill="#151929"/>
											<rect x="6" y="28.9531" width="1.5" height="1.5681" fill="#151929"/>
											<rect x="15.5" y="28.9531" width="1.5" height="1.5681" fill="#151929"/>
											<rect x="25" y="28.9531" width="1.5" height="1.5681" fill="#151929"/>
											<rect x="34.5" y="28.9531" width="1.5" height="1.5681" fill="#151929"/>
											<rect x="44" y="28.9531" width="1.5" height="1.5681" fill="#151929"/>
											<rect x="53.5" y="28.9531" width="1.5" height="1.5681" fill="#151929"/>
											<rect x="63" y="28.9531" width="1.5" height="1.5681" fill="#151929"/>
											<rect x="72.5" y="28.9531" width="1.5" height="1.5681" fill="#151929"/>
											<rect x="82" y="28.9531" width="1.5" height="1.5681" fill="#151929"/>
											<rect x="91.5" y="28.9531" width="1.5" height="1.5681" fill="#151929"/>
											<rect x="101" y="28.9531" width="1.5" height="1.5681" fill="#151929"/>
											<rect x="110.5" y="28.9531" width="1.5" height="1.5681" fill="#151929"/>
											<rect x="120" y="28.9531" width="1.5" height="1.5681" fill="#151929"/>
											<rect x="129.5" y="28.9531" width="1.5" height="1.5681" fill="#151929"/>
											<rect x="139" y="28.9531" width="1.5" height="1.5681" fill="#151929"/>
											<rect x="148.5" y="28.9531" width="1.5" height="1.5681" fill="#151929"/>
											<rect x="158" y="28.9531" width="1.5" height="1.5681" fill="#151929"/>
											<rect x="167.5" y="28.9531" width="1.5" height="1.5681" fill="#151929"/>
											<rect x="177" y="28.9531" width="1.5" height="1.5681" fill="#151929"/>
											<rect x="186.5" y="28.9531" width="1.5" height="1.5681" fill="#151929"/>
											<rect x="196" y="28.9531" width="1.5" height="1.5681" fill="#151929"/>
											<rect x="205.5" y="28.9531" width="1.5" height="1.5681" fill="#151929"/>
											<rect x="215" y="28.9531" width="1.5" height="1.5681" fill="#151929"/>
											<rect x="224.5" y="28.9531" width="1.5" height="1.5681" fill="#151929"/>
											<rect x="234" y="28.9531" width="1.5" height="1.5681" fill="#151929"/>
											<rect x="243.5" y="28.9531" width="1.5" height="1.5681" fill="#151929"/>
											<rect x="6" y="38.8828" width="1.5" height="1.5681" fill="#151929"/>
											<rect x="15.5" y="38.8828" width="1.5" height="1.5681" fill="#151929"/>
											<rect x="25" y="38.8828" width="1.5" height="1.5681" fill="#151929"/>
											<rect x="34.5" y="38.8828" width="1.5" height="1.5681" fill="#151929"/>
											<rect x="44" y="38.8828" width="1.5" height="1.5681" fill="#151929"/>
											<rect x="53.5" y="38.8828" width="1.5" height="1.5681" fill="#151929"/>
											<rect x="63" y="38.8828" width="1.5" height="1.5681" fill="#151929"/>
											<rect x="72.5" y="38.8828" width="1.5" height="1.5681" fill="#151929"/>
											<rect x="82" y="38.8828" width="1.5" height="1.5681" fill="#151929"/>
											<rect x="91.5" y="38.8828" width="1.5" height="1.5681" fill="#151929"/>
											<rect x="101" y="38.8828" width="1.5" height="1.5681" fill="#151929"/>
											<rect x="110.5" y="38.8828" width="1.5" height="1.5681" fill="#151929"/>
											<rect x="120" y="38.8828" width="1.5" height="1.5681" fill="#151929"/>
											<rect x="129.5" y="38.8828" width="1.5" height="1.5681" fill="#151929"/>
											<rect x="139" y="38.8828" width="1.5" height="1.5681" fill="#151929"/>
											<rect x="148.5" y="38.8828" width="1.5" height="1.5681" fill="#151929"/>
											<rect x="158" y="38.8828" width="1.5" height="1.5681" fill="#151929"/>
											<rect x="167.5" y="38.8828" width="1.5" height="1.5681" fill="#151929"/>
											<rect x="177" y="38.8828" width="1.5" height="1.5681" fill="#151929"/>
											<rect x="186.5" y="38.8828" width="1.5" height="1.5681" fill="#151929"/>
											<rect x="196" y="38.8828" width="1.5" height="1.5681" fill="#151929"/>
											<rect x="205.5" y="38.8828" width="1.5" height="1.5681" fill="#151929"/>
											<rect x="215" y="38.8828" width="1.5" height="1.5681" fill="#151929"/>
											<rect x="224.5" y="38.8828" width="1.5" height="1.5681" fill="#151929"/>
											<rect x="234" y="38.8828" width="1.5" height="1.5681" fill="#151929"/>
											<rect x="243.5" y="38.8828" width="1.5" height="1.5681" fill="#151929"/>
											<rect x="6" y="48.8164" width="1.5" height="1.5681" fill="#151929"/>
											<rect x="15.5" y="48.8164" width="1.5" height="1.5681" fill="#151929"/>
											<rect x="25" y="48.8164" width="1.5" height="1.5681" fill="#151929"/>
											<rect x="34.5" y="48.8164" width="1.5" height="1.5681" fill="#151929"/>
											<rect x="44" y="48.8164" width="1.5" height="1.5681" fill="#151929"/>
											<rect x="53.5" y="48.8164" width="1.5" height="1.5681" fill="#151929"/>
											<rect x="63" y="48.8164" width="1.5" height="1.5681" fill="#151929"/>
											<rect x="72.5" y="48.8164" width="1.5" height="1.5681" fill="#151929"/>
											<rect x="82" y="48.8164" width="1.5" height="1.5681" fill="#151929"/>
											<rect x="91.5" y="48.8164" width="1.5" height="1.5681" fill="#151929"/>
											<rect x="101" y="48.8164" width="1.5" height="1.5681" fill="#151929"/>
											<rect x="110.5" y="48.8164" width="1.5" height="1.5681" fill="#151929"/>
											<rect x="120" y="48.8164" width="1.5" height="1.5681" fill="#151929"/>
											<rect x="129.5" y="48.8164" width="1.5" height="1.5681" fill="#151929"/>
											<rect x="139" y="48.8164" width="1.5" height="1.5681" fill="#151929"/>
											<rect x="148.5" y="48.8164" width="1.5" height="1.5681" fill="#151929"/>
											<rect x="158" y="48.8164" width="1.5" height="1.5681" fill="#151929"/>
											<rect x="167.5" y="48.8164" width="1.5" height="1.5681" fill="#151929"/>
											<rect x="177" y="48.8164" width="1.5" height="1.5681" fill="#151929"/>
											<rect x="186.5" y="48.8164" width="1.5" height="1.5681" fill="#151929"/>
											<rect x="196" y="48.8164" width="1.5" height="1.5681" fill="#151929"/>
											<rect x="205.5" y="48.8164" width="1.5" height="1.5681" fill="#151929"/>
											<rect x="215" y="48.8164" width="1.5" height="1.5681" fill="#151929"/>
											<rect x="224.5" y="48.8164" width="1.5" height="1.5681" fill="#151929"/>
											<rect x="234" y="48.8164" width="1.5" height="1.5681" fill="#151929"/>
											<rect x="243.5" y="48.8164" width="1.5" height="1.5681" fill="#151929"/>
											<rect x="6" y="58.7461" width="1.5" height="1.5681" fill="#151929"/>
											<rect x="15.5" y="58.7461" width="1.5" height="1.5681" fill="#151929"/>
											<rect x="25" y="58.7461" width="1.5" height="1.5681" fill="#151929"/>
											<rect x="34.5" y="58.7461" width="1.5" height="1.5681" fill="#151929"/>
											<rect x="44" y="58.7461" width="1.5" height="1.5681" fill="#151929"/>
											<rect x="53.5" y="58.7461" width="1.5" height="1.5681" fill="#151929"/>
											<rect x="63" y="58.7461" width="1.5" height="1.5681" fill="#151929"/>
											<rect x="72.5" y="58.7461" width="1.5" height="1.5681" fill="#151929"/>
											<rect x="82" y="58.7461" width="1.5" height="1.5681" fill="#151929"/>
											<rect x="91.5" y="58.7461" width="1.5" height="1.5681" fill="#151929"/>
											<rect x="101" y="58.7461" width="1.5" height="1.5681" fill="#151929"/>
											<rect x="110.5" y="58.7461" width="1.5" height="1.5681" fill="#151929"/>
											<rect x="120" y="58.7461" width="1.5" height="1.5681" fill="#151929"/>
											<rect x="129.5" y="58.7461" width="1.5" height="1.5681" fill="#151929"/>
											<rect x="139" y="58.7461" width="1.5" height="1.5681" fill="#151929"/>
											<rect x="148.5" y="58.7461" width="1.5" height="1.5681" fill="#151929"/>
											<rect x="158" y="58.7461" width="1.5" height="1.5681" fill="#151929"/>
											<rect x="167.5" y="58.7461" width="1.5" height="1.5681" fill="#151929"/>
											<rect x="177" y="58.7461" width="1.5" height="1.5681" fill="#151929"/>
											<rect x="186.5" y="58.7461" width="1.5" height="1.5681" fill="#151929"/>
											<rect x="196" y="58.7461" width="1.5" height="1.5681" fill="#151929"/>
											<rect x="205.5" y="58.7461" width="1.5" height="1.5681" fill="#151929"/>
											<rect x="215" y="58.7461" width="1.5" height="1.5681" fill="#151929"/>
											<rect x="224.5" y="58.7461" width="1.5" height="1.5681" fill="#151929"/>
											<rect x="234" y="58.7461" width="1.5" height="1.5681" fill="#151929"/>
											<rect x="243.5" y="58.7461" width="1.5" height="1.5681" fill="#151929"/>
											<rect x="6" y="68.6758" width="1.5" height="1.5681" fill="#151929"/>
											<rect x="15.5" y="68.6758" width="1.5" height="1.5681" fill="#151929"/>
											<rect x="25" y="68.6758" width="1.5" height="1.5681" fill="#151929"/>
											<rect x="34.5" y="68.6758" width="1.5" height="1.5681" fill="#151929"/>
											<rect x="44" y="68.6758" width="1.5" height="1.5681" fill="#151929"/>
											<rect x="53.5" y="68.6758" width="1.5" height="1.5681" fill="#151929"/>
											<rect x="63" y="68.6758" width="1.5" height="1.5681" fill="#151929"/>
											<rect x="72.5" y="68.6758" width="1.5" height="1.5681" fill="#151929"/>
											<rect x="82" y="68.6758" width="1.5" height="1.5681" fill="#151929"/>
											<rect x="91.5" y="68.6758" width="1.5" height="1.5681" fill="#151929"/>
											<rect x="101" y="68.6758" width="1.5" height="1.5681" fill="#151929"/>
											<rect x="110.5" y="68.6758" width="1.5" height="1.5681" fill="#151929"/>
											<rect x="120" y="68.6758" width="1.5" height="1.5681" fill="#151929"/>
											<rect x="129.5" y="68.6758" width="1.5" height="1.5681" fill="#151929"/>
											<rect x="139" y="68.6758" width="1.5" height="1.5681" fill="#151929"/>
											<rect x="148.5" y="68.6758" width="1.5" height="1.5681" fill="#151929"/>
											<rect x="158" y="68.6758" width="1.5" height="1.5681" fill="#151929"/>
											<rect x="167.5" y="68.6758" width="1.5" height="1.5681" fill="#151929"/>
											<rect x="177" y="68.6758" width="1.5" height="1.5681" fill="#151929"/>
											<rect x="186.5" y="68.6758" width="1.5" height="1.5681" fill="#151929"/>
											<rect x="196" y="68.6758" width="1.5" height="1.5681" fill="#151929"/>
											<rect x="205.5" y="68.6758" width="1.5" height="1.5681" fill="#151929"/>
											<rect x="215" y="68.6758" width="1.5" height="1.5681" fill="#151929"/>
											<rect x="224.5" y="68.6758" width="1.5" height="1.5681" fill="#151929"/>
											<rect x="234" y="68.6758" width="1.5" height="1.5681" fill="#151929"/>
											<rect x="243.5" y="68.6758" width="1.5" height="1.5681" fill="#151929"/>
											<rect x="6" y="78.6094" width="1.5" height="1.5681" fill="#151929"/>
											<rect x="15.5" y="78.6094" width="1.5" height="1.5681" fill="#151929"/>
											<rect x="25" y="78.6094" width="1.5" height="1.5681" fill="#151929"/>
											<rect x="34.5" y="78.6094" width="1.5" height="1.5681" fill="#151929"/>
											<rect x="44" y="78.6094" width="1.5" height="1.5681" fill="#151929"/>
											<rect x="53.5" y="78.6094" width="1.5" height="1.5681" fill="#151929"/>
											<rect x="63" y="78.6094" width="1.5" height="1.5681" fill="#151929"/>
											<rect x="72.5" y="78.6094" width="1.5" height="1.5681" fill="#151929"/>
											<rect x="82" y="78.6094" width="1.5" height="1.5681" fill="#151929"/>
											<rect x="91.5" y="78.6094" width="1.5" height="1.5681" fill="#151929"/>
											<rect x="101" y="78.6094" width="1.5" height="1.5681" fill="#151929"/>
											<rect x="110.5" y="78.6094" width="1.5" height="1.5681" fill="#151929"/>
											<rect x="120" y="78.6094" width="1.5" height="1.5681" fill="#151929"/>
											<rect x="129.5" y="78.6094" width="1.5" height="1.5681" fill="#151929"/>
											<rect x="139" y="78.6094" width="1.5" height="1.5681" fill="#151929"/>
											<rect x="148.5" y="78.6094" width="1.5" height="1.5681" fill="#151929"/>
											<rect x="158" y="78.6094" width="1.5" height="1.5681" fill="#151929"/>
											<rect x="167.5" y="78.6094" width="1.5" height="1.5681" fill="#151929"/>
											<rect x="177" y="78.6094" width="1.5" height="1.5681" fill="#151929"/>
											<rect x="186.5" y="78.6094" width="1.5" height="1.5681" fill="#151929"/>
											<rect x="196" y="78.6094" width="1.5" height="1.5681" fill="#151929"/>
											<rect x="205.5" y="78.6094" width="1.5" height="1.5681" fill="#151929"/>
											<rect x="215" y="78.6094" width="1.5" height="1.5681" fill="#151929"/>
											<rect x="224.5" y="78.6094" width="1.5" height="1.5681" fill="#151929"/>
											<rect x="234" y="78.6094" width="1.5" height="1.5681" fill="#151929"/>
											<rect x="243.5" y="78.6094" width="1.5" height="1.5681" fill="#151929"/>
											<rect x="6" y="88.5391" width="1.5" height="1.5681" fill="#151929"/>
											<rect x="15.5" y="88.5391" width="1.5" height="1.5681" fill="#151929"/>
											<rect x="25" y="88.5391" width="1.5" height="1.5681" fill="#151929"/>
											<rect x="34.5" y="88.5391" width="1.5" height="1.5681" fill="#151929"/>
											<rect x="44" y="88.5391" width="1.5" height="1.5681" fill="#151929"/>
											<rect x="53.5" y="88.5391" width="1.5" height="1.5681" fill="#151929"/>
											<rect x="63" y="88.5391" width="1.5" height="1.5681" fill="#151929"/>
											<rect x="72.5" y="88.5391" width="1.5" height="1.5681" fill="#151929"/>
											<rect x="82" y="88.5391" width="1.5" height="1.5681" fill="#151929"/>
											<rect x="91.5" y="88.5391" width="1.5" height="1.5681" fill="#151929"/>
											<rect x="101" y="88.5391" width="1.5" height="1.5681" fill="#151929"/>
											<rect x="110.5" y="88.5391" width="1.5" height="1.5681" fill="#151929"/>
											<rect x="120" y="88.5391" width="1.5" height="1.5681" fill="#151929"/>
											<rect x="129.5" y="88.5391" width="1.5" height="1.5681" fill="#151929"/>
											<rect x="139" y="88.5391" width="1.5" height="1.5681" fill="#151929"/>
											<rect x="148.5" y="88.5391" width="1.5" height="1.5681" fill="#151929"/>
											<rect x="158" y="88.5391" width="1.5" height="1.5681" fill="#151929"/>
											<rect x="167.5" y="88.5391" width="1.5" height="1.5681" fill="#151929"/>
											<rect x="177" y="88.5391" width="1.5" height="1.5681" fill="#151929"/>
											<rect x="186.5" y="88.5391" width="1.5" height="1.5681" fill="#151929"/>
											<rect x="196" y="88.5391" width="1.5" height="1.5681" fill="#151929"/>
											<rect x="205.5" y="88.5391" width="1.5" height="1.5681" fill="#151929"/>
											<rect x="215" y="88.5391" width="1.5" height="1.5681" fill="#151929"/>
											<rect x="224.5" y="88.5391" width="1.5" height="1.5681" fill="#151929"/>
											<rect x="234" y="88.5391" width="1.5" height="1.5681" fill="#151929"/>
											<rect x="243.5" y="88.5391" width="1.5" height="1.5681" fill="#151929"/>
											<rect x="6" y="98.4727" width="1.5" height="1.5681" fill="#151929"/>
											<rect x="15.5" y="98.4727" width="1.5" height="1.5681" fill="#151929"/>
											<rect x="25" y="98.4727" width="1.5" height="1.5681" fill="#151929"/>
											<rect x="34.5" y="98.4727" width="1.5" height="1.5681" fill="#151929"/>
											<rect x="44" y="98.4727" width="1.5" height="1.5681" fill="#151929"/>
											<rect x="53.5" y="98.4727" width="1.5" height="1.5681" fill="#151929"/>
											<rect x="63" y="98.4727" width="1.5" height="1.5681" fill="#151929"/>
											<rect x="72.5" y="98.4727" width="1.5" height="1.5681" fill="#151929"/>
											<rect x="82" y="98.4727" width="1.5" height="1.5681" fill="#151929"/>
											<rect x="91.5" y="98.4727" width="1.5" height="1.5681" fill="#151929"/>
											<rect x="101" y="98.4727" width="1.5" height="1.5681" fill="#151929"/>
											<rect x="110.5" y="98.4727" width="1.5" height="1.5681" fill="#151929"/>
											<rect x="120" y="98.4727" width="1.5" height="1.5681" fill="#151929"/>
											<rect x="129.5" y="98.4727" width="1.5" height="1.5681" fill="#151929"/>
											<rect x="139" y="98.4727" width="1.5" height="1.5681" fill="#151929"/>
											<rect x="148.5" y="98.4727" width="1.5" height="1.5681" fill="#151929"/>
											<rect x="158" y="98.4727" width="1.5" height="1.5681" fill="#151929"/>
											<rect x="167.5" y="98.4727" width="1.5" height="1.5681" fill="#151929"/>
											<rect x="177" y="98.4727" width="1.5" height="1.5681" fill="#151929"/>
											<rect x="186.5" y="98.4727" width="1.5" height="1.5681" fill="#151929"/>
											<rect x="196" y="98.4727" width="1.5" height="1.5681" fill="#151929"/>
											<rect x="205.5" y="98.4727" width="1.5" height="1.5681" fill="#151929"/>
											<rect x="215" y="98.4727" width="1.5" height="1.5681" fill="#151929"/>
											<rect x="224.5" y="98.4727" width="1.5" height="1.5681" fill="#151929"/>
											<rect x="234" y="98.4727" width="1.5" height="1.5681" fill="#151929"/>
											<rect x="243.5" y="98.4727" width="1.5" height="1.5681" fill="#151929"/>
											<rect x="6" y="108.402" width="1.5" height="1.5681" fill="#151929"/>
											<rect x="15.5" y="108.402" width="1.5" height="1.5681" fill="#151929"/>
											<rect x="25" y="108.402" width="1.5" height="1.5681" fill="#151929"/>
											<rect x="34.5" y="108.402" width="1.5" height="1.5681" fill="#151929"/>
											<rect x="44" y="108.402" width="1.5" height="1.5681" fill="#151929"/>
											<rect x="53.5" y="108.402" width="1.5" height="1.5681" fill="#151929"/>
											<rect x="63" y="108.402" width="1.5" height="1.5681" fill="#151929"/>
											<rect x="72.5" y="108.402" width="1.5" height="1.5681" fill="#151929"/>
											<rect x="82" y="108.402" width="1.5" height="1.5681" fill="#151929"/>
											<rect x="91.5" y="108.402" width="1.5" height="1.5681" fill="#151929"/>
											<rect x="101" y="108.402" width="1.5" height="1.5681" fill="#151929"/>
											<rect x="110.5" y="108.402" width="1.5" height="1.5681" fill="#151929"/>
											<rect x="120" y="108.402" width="1.5" height="1.5681" fill="#151929"/>
											<rect x="129.5" y="108.402" width="1.5" height="1.5681" fill="#151929"/>
											<rect x="139" y="108.402" width="1.5" height="1.5681" fill="#151929"/>
											<rect x="148.5" y="108.402" width="1.5" height="1.5681" fill="#151929"/>
											<rect x="158" y="108.402" width="1.5" height="1.5681" fill="#151929"/>
											<rect x="167.5" y="108.402" width="1.5" height="1.5681" fill="#151929"/>
											<rect x="177" y="108.402" width="1.5" height="1.5681" fill="#151929"/>
											<rect x="186.5" y="108.402" width="1.5" height="1.5681" fill="#151929"/>
											<rect x="196" y="108.402" width="1.5" height="1.5681" fill="#151929"/>
											<rect x="205.5" y="108.402" width="1.5" height="1.5681" fill="#151929"/>
											<rect x="215" y="108.402" width="1.5" height="1.5681" fill="#151929"/>
											<rect x="224.5" y="108.402" width="1.5" height="1.5681" fill="#151929"/>
											<rect x="234" y="108.402" width="1.5" height="1.5681" fill="#151929"/>
											<rect x="243.5" y="108.402" width="1.5" height="1.5681" fill="#151929"/>
											<rect x="6" y="118.332" width="1.5" height="1.5681" fill="#151929"/>
											<rect x="15.5" y="118.332" width="1.5" height="1.5681" fill="#151929"/>
											<rect x="25" y="118.332" width="1.5" height="1.5681" fill="#151929"/>
											<rect x="34.5" y="118.332" width="1.5" height="1.5681" fill="#151929"/>
											<rect x="44" y="118.332" width="1.5" height="1.5681" fill="#151929"/>
											<rect x="53.5" y="118.332" width="1.5" height="1.5681" fill="#151929"/>
											<rect x="63" y="118.332" width="1.5" height="1.5681" fill="#151929"/>
											<rect x="72.5" y="118.332" width="1.5" height="1.5681" fill="#151929"/>
											<rect x="82" y="118.332" width="1.5" height="1.5681" fill="#151929"/>
											<rect x="91.5" y="118.332" width="1.5" height="1.5681" fill="#151929"/>
											<rect x="101" y="118.332" width="1.5" height="1.5681" fill="#151929"/>
											<rect x="110.5" y="118.332" width="1.5" height="1.5681" fill="#151929"/>
											<rect x="120" y="118.332" width="1.5" height="1.5681" fill="#151929"/>
											<rect x="129.5" y="118.332" width="1.5" height="1.5681" fill="#151929"/>
											<rect x="139" y="118.332" width="1.5" height="1.5681" fill="#151929"/>
											<rect x="148.5" y="118.332" width="1.5" height="1.5681" fill="#151929"/>
											<rect x="158" y="118.332" width="1.5" height="1.5681" fill="#151929"/>
											<rect x="167.5" y="118.332" width="1.5" height="1.5681" fill="#151929"/>
											<rect x="177" y="118.332" width="1.5" height="1.5681" fill="#151929"/>
											<rect x="186.5" y="118.332" width="1.5" height="1.5681" fill="#151929"/>
											<rect x="196" y="118.332" width="1.5" height="1.5681" fill="#151929"/>
											<rect x="205.5" y="118.332" width="1.5" height="1.5681" fill="#151929"/>
											<rect x="215" y="118.332" width="1.5" height="1.5681" fill="#151929"/>
											<rect x="224.5" y="118.332" width="1.5" height="1.5681" fill="#151929"/>
											<rect x="234" y="118.332" width="1.5" height="1.5681" fill="#151929"/>
											<rect x="243.5" y="118.332" width="1.5" height="1.5681" fill="#151929"/>
											<rect x="6" y="128.266" width="1.5" height="1.5681" fill="#151929"/>
											<rect x="15.5" y="128.266" width="1.5" height="1.5681" fill="#151929"/>
											<rect x="25" y="128.266" width="1.5" height="1.5681" fill="#151929"/>
											<rect x="34.5" y="128.266" width="1.5" height="1.5681" fill="#151929"/>
											<rect x="44" y="128.266" width="1.5" height="1.5681" fill="#151929"/>
											<rect x="53.5" y="128.266" width="1.5" height="1.5681" fill="#151929"/>
											<rect x="63" y="128.266" width="1.5" height="1.5681" fill="#151929"/>
											<rect x="72.5" y="128.266" width="1.5" height="1.5681" fill="#151929"/>
											<rect x="82" y="128.266" width="1.5" height="1.5681" fill="#151929"/>
											<rect x="91.5" y="128.266" width="1.5" height="1.5681" fill="#151929"/>
											<rect x="101" y="128.266" width="1.5" height="1.5681" fill="#151929"/>
											<rect x="110.5" y="128.266" width="1.5" height="1.5681" fill="#151929"/>
											<rect x="120" y="128.266" width="1.5" height="1.5681" fill="#151929"/>
											<rect x="129.5" y="128.266" width="1.5" height="1.5681" fill="#151929"/>
											<rect x="139" y="128.266" width="1.5" height="1.5681" fill="#151929"/>
											<rect x="148.5" y="128.266" width="1.5" height="1.5681" fill="#151929"/>
											<rect x="158" y="128.266" width="1.5" height="1.5681" fill="#151929"/>
											<rect x="167.5" y="128.266" width="1.5" height="1.5681" fill="#151929"/>
											<rect x="177" y="128.266" width="1.5" height="1.5681" fill="#151929"/>
											<rect x="186.5" y="128.266" width="1.5" height="1.5681" fill="#151929"/>
											<rect x="196" y="128.266" width="1.5" height="1.5681" fill="#151929"/>
											<rect x="205.5" y="128.266" width="1.5" height="1.5681" fill="#151929"/>
											<rect x="215" y="128.266" width="1.5" height="1.5681" fill="#151929"/>
											<rect x="224.5" y="128.266" width="1.5" height="1.5681" fill="#151929"/>
											<rect x="234" y="128.266" width="1.5" height="1.5681" fill="#151929"/>
											<rect x="243.5" y="128.266" width="1.5" height="1.5681" fill="#151929"/>
											<rect x="6" y="138.195" width="1.5" height="1.5681" fill="#151929"/>
											<rect x="15.5" y="138.195" width="1.5" height="1.5681" fill="#151929"/>
											<rect x="25" y="138.195" width="1.5" height="1.5681" fill="#151929"/>
											<rect x="34.5" y="138.195" width="1.5" height="1.5681" fill="#151929"/>
											<rect x="44" y="138.195" width="1.5" height="1.5681" fill="#151929"/>
											<rect x="53.5" y="138.195" width="1.5" height="1.5681" fill="#151929"/>
											<rect x="63" y="138.195" width="1.5" height="1.5681" fill="#151929"/>
											<rect x="72.5" y="138.195" width="1.5" height="1.5681" fill="#151929"/>
											<rect x="82" y="138.195" width="1.5" height="1.5681" fill="#151929"/>
											<rect x="91.5" y="138.195" width="1.5" height="1.5681" fill="#151929"/>
											<rect x="101" y="138.195" width="1.5" height="1.5681" fill="#151929"/>
											<rect x="110.5" y="138.195" width="1.5" height="1.5681" fill="#151929"/>
											<rect x="120" y="138.195" width="1.5" height="1.5681" fill="#151929"/>
											<rect x="129.5" y="138.195" width="1.5" height="1.5681" fill="#151929"/>
											<rect x="139" y="138.195" width="1.5" height="1.5681" fill="#151929"/>
											<rect x="148.5" y="138.195" width="1.5" height="1.5681" fill="#151929"/>
											<rect x="158" y="138.195" width="1.5" height="1.5681" fill="#151929"/>
											<rect x="167.5" y="138.195" width="1.5" height="1.5681" fill="#151929"/>
											<rect x="177" y="138.195" width="1.5" height="1.5681" fill="#151929"/>
											<rect x="186.5" y="138.195" width="1.5" height="1.5681" fill="#151929"/>
											<rect x="196" y="138.195" width="1.5" height="1.5681" fill="#151929"/>
											<rect x="205.5" y="138.195" width="1.5" height="1.5681" fill="#151929"/>
											<rect x="215" y="138.195" width="1.5" height="1.5681" fill="#151929"/>
											<rect x="224.5" y="138.195" width="1.5" height="1.5681" fill="#151929"/>
											<rect x="234" y="138.195" width="1.5" height="1.5681" fill="#151929"/>
											<rect x="243.5" y="138.195" width="1.5" height="1.5681" fill="#151929"/>
											<rect x="6" y="148.129" width="1.5" height="1.5681" fill="#151929"/>
											<rect x="15.5" y="148.129" width="1.5" height="1.5681" fill="#151929"/>
											<rect x="25" y="148.129" width="1.5" height="1.5681" fill="#151929"/>
											<rect x="34.5" y="148.129" width="1.5" height="1.5681" fill="#151929"/>
											<rect x="44" y="148.129" width="1.5" height="1.5681" fill="#151929"/>
											<rect x="53.5" y="148.129" width="1.5" height="1.5681" fill="#151929"/>
											<rect x="63" y="148.129" width="1.5" height="1.5681" fill="#151929"/>
											<rect x="72.5" y="148.129" width="1.5" height="1.5681" fill="#151929"/>
											<rect x="82" y="148.129" width="1.5" height="1.5681" fill="#151929"/>
											<rect x="91.5" y="148.129" width="1.5" height="1.5681" fill="#151929"/>
											<rect x="101" y="148.129" width="1.5" height="1.5681" fill="#151929"/>
											<rect x="110.5" y="148.129" width="1.5" height="1.5681" fill="#151929"/>
											<rect x="120" y="148.129" width="1.5" height="1.5681" fill="#151929"/>
											<rect x="129.5" y="148.129" width="1.5" height="1.5681" fill="#151929"/>
											<rect x="139" y="148.129" width="1.5" height="1.5681" fill="#151929"/>
											<rect x="148.5" y="148.129" width="1.5" height="1.5681" fill="#151929"/>
											<rect x="158" y="148.129" width="1.5" height="1.5681" fill="#151929"/>
											<rect x="167.5" y="148.129" width="1.5" height="1.5681" fill="#151929"/>
											<rect x="177" y="148.129" width="1.5" height="1.5681" fill="#151929"/>
											<rect x="186.5" y="148.129" width="1.5" height="1.5681" fill="#151929"/>
											<rect x="196" y="148.129" width="1.5" height="1.5681" fill="#151929"/>
											<rect x="205.5" y="148.129" width="1.5" height="1.5681" fill="#151929"/>
											<rect x="215" y="148.129" width="1.5" height="1.5681" fill="#151929"/>
											<rect x="224.5" y="148.129" width="1.5" height="1.5681" fill="#151929"/>
											<rect x="234" y="148.129" width="1.5" height="1.5681" fill="#151929"/>
											<rect x="243.5" y="148.129" width="1.5" height="1.5681" fill="#151929"/>
											<rect x="6" y="158.059" width="1.5" height="1.5681" fill="#151929"/>
											<rect x="15.5" y="158.059" width="1.5" height="1.5681" fill="#151929"/>
											<rect x="25" y="158.059" width="1.5" height="1.5681" fill="#151929"/>
											<rect x="34.5" y="158.059" width="1.5" height="1.5681" fill="#151929"/>
											<rect x="44" y="158.059" width="1.5" height="1.5681" fill="#151929"/>
											<rect x="53.5" y="158.059" width="1.5" height="1.5681" fill="#151929"/>
											<rect x="63" y="158.059" width="1.5" height="1.5681" fill="#151929"/>
											<rect x="72.5" y="158.059" width="1.5" height="1.5681" fill="#151929"/>
											<rect x="82" y="158.059" width="1.5" height="1.5681" fill="#151929"/>
											<rect x="91.5" y="158.059" width="1.5" height="1.5681" fill="#151929"/>
											<rect x="101" y="158.059" width="1.5" height="1.5681" fill="#151929"/>
											<rect x="110.5" y="158.059" width="1.5" height="1.5681" fill="#151929"/>
											<rect x="120" y="158.059" width="1.5" height="1.5681" fill="#151929"/>
											<rect x="129.5" y="158.059" width="1.5" height="1.5681" fill="#151929"/>
											<rect x="139" y="158.059" width="1.5" height="1.5681" fill="#151929"/>
											<rect x="148.5" y="158.059" width="1.5" height="1.5681" fill="#151929"/>
											<rect x="158" y="158.059" width="1.5" height="1.5681" fill="#151929"/>
											<rect x="167.5" y="158.059" width="1.5" height="1.5681" fill="#151929"/>
											<rect x="177" y="158.059" width="1.5" height="1.5681" fill="#151929"/>
											<rect x="186.5" y="158.059" width="1.5" height="1.5681" fill="#151929"/>
											<rect x="196" y="158.059" width="1.5" height="1.5681" fill="#151929"/>
											<rect x="205.5" y="158.059" width="1.5" height="1.5681" fill="#151929"/>
											<rect x="215" y="158.059" width="1.5" height="1.5681" fill="#151929"/>
											<rect x="224.5" y="158.059" width="1.5" height="1.5681" fill="#151929"/>
											<rect x="234" y="158.059" width="1.5" height="1.5681" fill="#151929"/>
											<rect x="243.5" y="158.059" width="1.5" height="1.5681" fill="#151929"/>
											<rect x="6" y="167.992" width="1.5" height="1.5681" fill="#151929"/>
											<rect x="15.5" y="167.992" width="1.5" height="1.5681" fill="#151929"/>
											<rect x="25" y="167.992" width="1.5" height="1.5681" fill="#151929"/>
											<rect x="34.5" y="167.992" width="1.5" height="1.5681" fill="#151929"/>
											<rect x="44" y="167.992" width="1.5" height="1.5681" fill="#151929"/>
											<rect x="53.5" y="167.992" width="1.5" height="1.5681" fill="#151929"/>
											<rect x="63" y="167.992" width="1.5" height="1.5681" fill="#151929"/>
											<rect x="72.5" y="167.992" width="1.5" height="1.5681" fill="#151929"/>
											<rect x="82" y="167.992" width="1.5" height="1.5681" fill="#151929"/>
											<rect x="91.5" y="167.992" width="1.5" height="1.5681" fill="#151929"/>
											<rect x="101" y="167.992" width="1.5" height="1.5681" fill="#151929"/>
											<rect x="110.5" y="167.992" width="1.5" height="1.5681" fill="#151929"/>
											<rect x="120" y="167.992" width="1.5" height="1.5681" fill="#151929"/>
											<rect x="129.5" y="167.992" width="1.5" height="1.5681" fill="#151929"/>
											<rect x="139" y="167.992" width="1.5" height="1.5681" fill="#151929"/>
											<rect x="148.5" y="167.992" width="1.5" height="1.5681" fill="#151929"/>
											<rect x="158" y="167.992" width="1.5" height="1.5681" fill="#151929"/>
											<rect x="167.5" y="167.992" width="1.5" height="1.5681" fill="#151929"/>
											<rect x="177" y="167.992" width="1.5" height="1.5681" fill="#151929"/>
											<rect x="186.5" y="167.992" width="1.5" height="1.5681" fill="#151929"/>
											<rect x="196" y="167.992" width="1.5" height="1.5681" fill="#151929"/>
											<rect x="205.5" y="167.992" width="1.5" height="1.5681" fill="#151929"/>
											<rect x="215" y="167.992" width="1.5" height="1.5681" fill="#151929"/>
											<rect x="224.5" y="167.992" width="1.5" height="1.5681" fill="#151929"/>
											<rect x="234" y="167.992" width="1.5" height="1.5681" fill="#151929"/>
											<rect x="243.5" y="167.992" width="1.5" height="1.5681" fill="#151929"/>
											<rect x="6" y="177.922" width="1.5" height="1.5681" fill="#151929"/>
											<rect x="15.5" y="177.922" width="1.5" height="1.5681" fill="#151929"/>
											<rect x="25" y="177.922" width="1.5" height="1.5681" fill="#151929"/>
											<rect x="34.5" y="177.922" width="1.5" height="1.5681" fill="#151929"/>
											<rect x="44" y="177.922" width="1.5" height="1.5681" fill="#151929"/>
											<rect x="53.5" y="177.922" width="1.5" height="1.5681" fill="#151929"/>
											<rect x="63" y="177.922" width="1.5" height="1.5681" fill="#151929"/>
											<rect x="72.5" y="177.922" width="1.5" height="1.5681" fill="#151929"/>
											<rect x="82" y="177.922" width="1.5" height="1.5681" fill="#151929"/>
											<rect x="91.5" y="177.922" width="1.5" height="1.5681" fill="#151929"/>
											<rect x="101" y="177.922" width="1.5" height="1.5681" fill="#151929"/>
											<rect x="110.5" y="177.922" width="1.5" height="1.5681" fill="#151929"/>
											<rect x="120" y="177.922" width="1.5" height="1.5681" fill="#151929"/>
											<rect x="129.5" y="177.922" width="1.5" height="1.5681" fill="#151929"/>
											<rect x="139" y="177.922" width="1.5" height="1.5681" fill="#151929"/>
											<rect x="148.5" y="177.922" width="1.5" height="1.5681" fill="#151929"/>
											<rect x="158" y="177.922" width="1.5" height="1.5681" fill="#151929"/>
											<rect x="167.5" y="177.922" width="1.5" height="1.5681" fill="#151929"/>
											<rect x="177" y="177.922" width="1.5" height="1.5681" fill="#151929"/>
											<rect x="186.5" y="177.922" width="1.5" height="1.5681" fill="#151929"/>
											<rect x="196" y="177.922" width="1.5" height="1.5681" fill="#151929"/>
											<rect x="205.5" y="177.922" width="1.5" height="1.5681" fill="#151929"/>
											<rect x="215" y="177.922" width="1.5" height="1.5681" fill="#151929"/>
											<rect x="224.5" y="177.922" width="1.5" height="1.5681" fill="#151929"/>
											<rect x="234" y="177.922" width="1.5" height="1.5681" fill="#151929"/>
											<rect x="243.5" y="177.922" width="1.5" height="1.5681" fill="#151929"/>
											<g opacity="0.1" filter="url(#filter1_f_6427_142)">
											<path d="M45 38.3555H63.989L88.9121 131.043L114.626 38.3555H137.374L163.286 131.043L187.813 38.3555H207L174.56 148.122H151.615L125.901 59.1841L100.187 148.122H77.4396L45 38.3555Z" fill="#232A3C"/>
											</g>
											<path d="M89.153 131.11L114.816 38.6055H137.184L163.045 131.11L163.292 131.995L163.527 131.107L188.006 38.6055H206.665L174.374 147.872H151.803L126.141 59.1146L125.901 58.284L125.661 59.1146L99.9989 147.872H77.6264L45.3346 38.6055H63.7974L88.6707 131.108L88.9083 131.991L89.153 131.11Z" fill="#13192C" stroke="url(#paint1_linear_6427_142)" stroke-width="0.5"/>
											<mask id="mask1_6427_142" style="mask-type:alpha" maskUnits="userSpaceOnUse" x="45" y="38" width="162" height="111">
											<path d="M89.153 131.11L114.816 38.6055H137.184L163.045 131.11L163.292 131.995L163.527 131.107L188.006 38.6055H206.665L174.374 147.872H151.803L126.141 59.1146L125.901 58.284L125.661 59.1146L99.9989 147.872H77.6264L45.3346 38.6055H63.7974L88.6707 131.108L88.9083 131.991L89.153 131.11Z" fill="#131827" stroke="#212941" stroke-width="0.5"/>
											</mask>
											<g mask="url(#mask1_6427_142)">
											<g filter="url(#filter2_f_6427_142)">
											<ellipse cx="105.5" cy="155.962" rx="25.5" ry="26.6576" fill="#323F5F"/>
											</g>
											<g filter="url(#filter3_f_6427_142)">
											<ellipse cx="63" cy="33.1272" rx="17" ry="17.7718" fill="#323F5F"/>
											</g>
											<g filter="url(#filter4_f_6427_142)">
											<ellipse cx="208" cy="34.1741" rx="17" ry="17.7718" fill="#323F5F"/>
											</g>
											<g filter="url(#filter5_f_6427_142)">
											<ellipse cx="126" cy="23.721" rx="17" ry="17.7718" fill="#323F5F"/>
											</g>
											</g>
											<defs>
											<filter id="filter0_f_6427_142" x="-140" y="-42.1875" width="532" height="541.625" filterUnits="userSpaceOnUse" color-interpolation-filters="sRGB">
											<feFlood flood-opacity="0" result="BackgroundImageFix"/>
											<feBlend mode="normal" in="SourceGraphic" in2="BackgroundImageFix" result="shape"/>
											<feGaussianBlur stdDeviation="80" result="effect1_foregroundBlur_6427_142"/>
											</filter>
											<filter id="filter1_f_6427_142" x="15" y="8.35547" width="222" height="169.766" filterUnits="userSpaceOnUse" color-interpolation-filters="sRGB">
											<feFlood flood-opacity="0" result="BackgroundImageFix"/>
											<feBlend mode="normal" in="SourceGraphic" in2="BackgroundImageFix" result="shape"/>
											<feGaussianBlur stdDeviation="15" result="effect1_foregroundBlur_6427_142"/>
											</filter>
											<filter id="filter2_f_6427_142" x="-80" y="-30.6953" width="371" height="373.316" filterUnits="userSpaceOnUse" color-interpolation-filters="sRGB">
											<feFlood flood-opacity="0" result="BackgroundImageFix"/>
											<feBlend mode="normal" in="SourceGraphic" in2="BackgroundImageFix" result="shape"/>
											<feGaussianBlur stdDeviation="80" result="effect1_foregroundBlur_6427_142"/>
											</filter>
											<filter id="filter3_f_6427_142" x="2" y="-28.6445" width="122" height="123.543" filterUnits="userSpaceOnUse" color-interpolation-filters="sRGB">
											<feFlood flood-opacity="0" result="BackgroundImageFix"/>
											<feBlend mode="normal" in="SourceGraphic" in2="BackgroundImageFix" result="shape"/>
											<feGaussianBlur stdDeviation="22" result="effect1_foregroundBlur_6427_142"/>
											</filter>
											<filter id="filter4_f_6427_142" x="147" y="-27.5977" width="122" height="123.543" filterUnits="userSpaceOnUse" color-interpolation-filters="sRGB">
											<feFlood flood-opacity="0" result="BackgroundImageFix"/>
											<feBlend mode="normal" in="SourceGraphic" in2="BackgroundImageFix" result="shape"/>
											<feGaussianBlur stdDeviation="22" result="effect1_foregroundBlur_6427_142"/>
											</filter>
											<filter id="filter5_f_6427_142" x="65" y="-38.0508" width="122" height="123.543" filterUnits="userSpaceOnUse" color-interpolation-filters="sRGB">
											<feFlood flood-opacity="0" result="BackgroundImageFix"/>
											<feBlend mode="normal" in="SourceGraphic" in2="BackgroundImageFix" result="shape"/>
											<feGaussianBlur stdDeviation="22" result="effect1_foregroundBlur_6427_142"/>
											</filter>
											<linearGradient id="paint0_linear_6427_142" x1="126" y1="0.726562" x2="126" y2="188.898" gradientUnits="userSpaceOnUse">
											<stop stop-color="#0E121D"/>
											<stop offset="1" stop-color="#0B0C18"/>
											</linearGradient>
											<linearGradient id="paint1_linear_6427_142" x1="126" y1="38.3555" x2="126" y2="148.122" gradientUnits="userSpaceOnUse">
											<stop stop-color="#212941"/>
											<stop offset="1" stop-color="#181C29"/>
											</linearGradient>
											</defs>
										</svg>