<svg xmlns="http://www.w3.org/2000/svg" width="408.594" height="162"><g data-name="404"><g data-name="Group 1115" style="isolation:isolate" fill="#fff"><path data-name="Path 9220" d="M120.375 113.625v4.951H95.849v41.174h-5.174v-41.174H0v-4.951L87.524 2.25h8.325v111.375zm-114.075 0h84.375V7.201H90z"/><path data-name="Path 9221" d="M204.298 0q28.35 0 43.762 20.7T263.472 81q0 39.6-15.412 60.3T204.298 162q-28.128 0-43.651-20.474T145.123 81q0-40.045 15.524-60.525T204.298 0zm-38.925 138.938q14.849 18.114 38.925 18.112t38.924-18.112Q258.074 120.83 258.073 81t-14.851-57.937Q228.374 4.955 204.298 4.951t-38.925 18.112Q150.521 41.177 150.522 81t14.851 57.938z"/><path data-name="Path 9222" d="M408.594 113.625v4.951h-24.528v41.174h-5.176v-41.174h-90.671v-4.951L375.744 2.25h8.322v111.375zm-114.076 0h84.375V7.201h-.674z"/></g><path data-name="Rectangle 39" fill="#fff" d="M150.297 68.999h109v24h-109z"/><text transform="translate(172.297 86.499)" fill="#090955" font-size="16" font-family="Stolzl-Medium, Stolzl" font-weight="500"><tspan x="0" y="0">ошибка</tspan></text></g></svg>