<svg xmlns="http://www.w3.org/2000/svg" width="133.92" height="72.824"><g data-name="Group 1128"><g data-name="Group 1126"><g data-name="Group 1117"><path data-name="Path 9223" d="M12.567 10.216a4.849 4.849 0 00-.661-2.263 5.974 5.974 0 01.53 2.115 3.557 3.557 0 01-1.26 2.99l-.015.011.2.514 1-.041c.143.031.356.076.622.139a4.01 4.01 0 01-.433-.711c-.53-1.132.053-1.632.017-2.754z" fill="none"/></g><g data-name="Group 1118"><path data-name="Path 9224" d="M5.598 11.171a1.48 1.48 0 00.076.721.732.732 0 00.194.306 3.633 3.633 0 00.384.211c.5.336.31 1.061.389 1.556a2.765 2.765 0 00.1.41l.445-.623 1.9-.077v-.015a4.766 4.766 0 01-3.488-2.489z" fill="none"/></g><g data-name="Group 1119"><path data-name="Path 9225" d="M32.856 7.639l.822-.7 1.065.34.611.89-.279.76-.865.5.328.088-.06.268-1.359.619c-.327-.34-1.428-.6-1.6-.784l.909-.781z" fill="#cc937a"/></g><g data-name="Group 1120"><path data-name="Path 9226" d="M6.102 70.141l-.032.31-.106 1.03 2.056 1.252 1.184-.919-.973-1.141-.091-.055-.048.119z" fill="#1d2b56"/></g><path data-name="Path 9227" d="M14.645 47.954c-2.325.153-4.483.216-6.179.238l.06 7.951L5.99 70.108l.111.033 1.987.6.048-.118L14.8 54.159l.233-3.357z" fill="#2f3d7e"/><g data-name="Group 1121"><path data-name="Path 9228" d="M14.32 47.953l.714 2.844.6 4.365.679 15.753h.012l.009-.228 2.028.062 3.2-16.724.172-6.833c-2.2.351-4.5.583-6.68.734z" fill="#2f3d7e"/></g><path data-name="Path 9229" d="M18.492 70.754h-.14l-2.028-.062-.009.228-.03.807 2.129 1.1 1.123-1z" fill="#1d2b56"/><g data-name="Group 1122"><path data-name="Path 9230" d="M11.362 13.583l-.2-.514.015-.011a3.557 3.557 0 001.26-2.99 5.974 5.974 0 00-.53-2.115 4.681 4.681 0 00-.82-1.043 3.129 3.129 0 00-2.126-.957c-.311.011-.181.253-.557.062a.674.674 0 01-.171-.145l-.1.114a5.6 5.6 0 01-1.193.827 2.08 2.08 0 00-.854 2.12 2.473 2.473 0 01.127 1.024 2.994 2.994 0 01-.448.733 1.327 1.327 0 00-.163.483 4.766 4.766 0 003.49 2.488v.015c.019.083.038.166.061.247.1.36.348.741.723.768a1.139 1.139 0 00.5-.118l.965-.39a.262.262 0 00.163-.126.257.257 0 00-.024-.18z" fill="#eacfc1"/></g><g data-name="Group 1123"><path data-name="Path 9231" d="M12.624 3.37c-.812-.318-1.614-1.02-2.42-.791-.726.206-1.179 1.088-1.63 1.872l-.036-.038a3.645 3.645 0 00-1.174-.893c-1.448-.6-1.282 1.209-2.394 1.113a2.639 2.639 0 01-.749-.347 1.581 1.581 0 00-1.439.216 6.244 6.244 0 00-2.658 3.45c-.566 2.227.96 6.739 1.308 7.491a12.682 12.682 0 002.677 2.617 2.1 2.1 0 001.9-.007 2.505 2.505 0 001.071-2.61 7.924 7.924 0 00-.334-1.068 2.77 2.77 0 01-.1-.41c-.078-.5.115-1.22-.389-1.556a3.63 3.63 0 01-.384-.211.731.731 0 01-.194-.306 1.48 1.48 0 01-.076-.721 1.327 1.327 0 01.163-.483 2.994 2.994 0 00.448-.733 2.474 2.474 0 00-.127-1.024 2.08 2.08 0 01.854-2.12 5.6 5.6 0 001.193-.827l.1-.114a.673.673 0 00.171.145c.376.192.247-.051.557-.062a3.129 3.129 0 012.126.957 4.681 4.681 0 01.82 1.043 4.847 4.847 0 01.661 2.263c.035 1.125-.548 1.62-.012 2.753a4.019 4.019 0 00.433.711 3.672 3.672 0 001.774 1.293c.079 0 .157 0 .234-.01a2.988 2.988 0 001.113-.317 3.332 3.332 0 001.749-2.285 1.932 1.932 0 01.317-.933c.174-.192.441-.266.619-.454.738-.781-5.496-7.339-6.172-7.604z" fill="#1d2b56"/></g><g data-name="Group 1125"><g data-name="Group 1124"><path data-name="Path 9232" d="M34.261 9.983c-.249-.045-2.834-.778-2.835-.779.152.024-6.235 4.712-6.839 5.077-1.857 1.12-5.369-.247-7.549-.341a3.29 3.29 0 01-.928.7 2.988 2.988 0 01-1.113.317c-.078.006-.156.01-.234.01a3.672 3.672 0 01-1.774-1.293c-.266-.062-.479-.107-.622-.139l-1 .041.116.292a.257.257 0 01.024.18.262.262 0 01-.163.126l-.965.39a1.139 1.139 0 01-.5.118c-.375-.027-.62-.408-.723-.768a4.946 4.946 0 01-.061-.247l-1.9.077-.445.623a7.922 7.922 0 01.334 1.068 2.505 2.505 0 01-1.071 2.61 2.1 2.1 0 01-1.9.007l-.4 22.352 1.869 8.438s1.344.037 3.422.009a113.5 113.5 0 005.844-.225l.381-.026c2.058-.143 4.239-.363 6.318-.694.8-.128 1.588-.272 2.347-.436 0 0 1.951-5.3-.852-18.608-.44-2.09-1.05-4.44-1.642-6.52 1.869-1.6 6.877-4.375 8.513-6.216 1.792-2.017 4.363-6.144 4.419-6.134z" fill="#cccecf"/></g></g></g><g data-name="Group 1127"><path data-name="Path 9233" d="M24.805 28.443l-.038 1.173 2.07.754 1.193-.9v-1.365l-1.152-.064-.036-.3-.377-.243z" fill="#eacfc1"/><path data-name="Path 9234" d="M18.744 25.851l6.388 1.263s-.368 3.9-.364 3.572-8.388-.7-8.388-.7z" fill="#cccecf"/></g></g><g data-name="Group 1133"><g data-name="Group 1131"><path data-name="Path 9235" d="M119.734 11.649l-4.37.77-7.749 6-10.346-2.7-1.2 2.486 9.619 4.629 4.191 1.057 5.445-1.777z" fill="#4ab7fd"/><path data-name="Path 9236" d="M96.988 17.346l-1.619.81-1.156-.131-.007-.395.678-.27-2.2-.476-.2-1.059 2.63-.625 2.384.694z" fill="#eacfc1"/><g data-name="Group 1130"><path data-name="Path 9237" d="M114.892 68.683l-2.041 1.445-.68 1.105a7.93 7.93 0 001.19.425 35.406 35.406 0 003.741-.425v-1.956z" fill="#1d2b56"/><path data-name="Path 9238" d="M130.746 69.299l-.753 1.37s-.471 1.731-.063 1.612 2.684-.514 2.776-.806 1.08-1.465 1.2-1.675a5.74 5.74 0 00-.375-1.621z" fill="#1d2b56"/><path data-name="Path 9239" d="M116.791 37.064l6.59 19.668 7.367 12.567 2.858-.83-4.885-14.333s-.59-14.4-1.555-18.633z" fill="#2f3d7e"/><path data-name="Path 9240" d="M111.575 40.031l2.551 29.247h3.061l.935-14.963 1.757-13.248-6.688-7.837z" fill="#2f3d7e"/><path data-name="Path 9241" d="M111.478 21.317a16.671 16.671 0 011.188-4.535c.747-1.406 2.157-2.47 3.245-3.665a4.206 4.206 0 011.639-1.274 4.879 4.879 0 011.495-.193l4.606-.116a4.218 4.218 0 011.652.178 3.436 3.436 0 011.575 1.664 11.609 11.609 0 011.229 5.436c0 .018 1.2 23.822.245 23.375a14.39 14.39 0 00-3.873-1.059 42.786 42.786 0 00-5.7-.539l-3.366.227h-2.031c-1.219.118-1.119.485-2.372.408-.805-.047.104-18.179.468-19.907z" fill="#4ab7fd"/><g data-name="Group 1129"><path data-name="Path 9242" d="M120.296 12.419l2.286-.1a11.406 11.406 0 00-.023-1.822c.644-.187 1.392-.48 1.539-1.134a1.893 1.893 0 000-.63l-.3-2.6a2.306 2.306 0 00-.22-.872 1.937 1.937 0 00-1.315-.808 4.715 4.715 0 00-3.863.717 2.068 2.068 0 00-.691.813 2.8 2.8 0 000 1.638l.307 1.506c.118.577.3 1.236.834 1.48.285.129.63.115.884.3.449.316.348 1.004.562 1.512z" fill="#eacfc1"/><path data-name="Path 9243" d="M116.076 1.397a2.241 2.241 0 00.517-.142c.552-.24.939-.722 1.525-.947a5.368 5.368 0 013.837.1c1.114.469 2.635.649 3.633 1.279a3.041 3.041 0 01.983 1.084 4.582 4.582 0 01-.256 4.838 6.556 6.556 0 01-.762.858 4.909 4.909 0 01-2 1.409c.019-.661.736-2.709.259-3.278-.632-.755-1.874-.735-2.763-.652-1.06.1-1.932-.241-2.989-.188-.538.027-1.147.135-1.56-.211a9.371 9.371 0 01-1.726-2.232 1.411 1.411 0 01.294-1.479 1.563 1.563 0 011.008-.439z" fill="#1d2b56"/></g></g><path data-name="Path 9244" d="M120.502 12.4a11.762 11.762 0 01-.251 1.191s-4.245 12.229-4.649 13.206a1.8 1.8 0 00-.135.688l.975 2.862 1.934-2.392 2.624-13.7.638-.547.224-1.389z" fill="#fff"/></g><g data-name="Group 1132"><path data-name="Path 9245" d="M121.236 17.205l.257 8.49-12.117 2.621.543 2.751 13.4-.834 2.483-2.315 1.665-8.154z" fill="#4ab7fd"/><path data-name="Path 9246" d="M109.87 30.822l-1.794 1.03-1.965-.953 1.952-3.111 1.312.53z" fill="#eacfc1"/></g></g><g data-name="Group 1134"><path data-name="Path 9247" d="M100.011 60.107v-9.463c-.018-.042-.038-.084-.053-.128V38.147H87.441a1.972 1.972 0 01-.865-2.841c1.7-2.727 2.088-6.1-1.063-7.953a5.508 5.508 0 00-7.481 2.069c-1.165 2.144-.211 4.032.884 5.95a1.972 1.972 0 01-.906 2.776H65.65v12.239a1.969 1.969 0 002.949 1.189c2.728-1.7 6.1-2.086 7.953 1.067a5.487 5.487 0 01-2.217 7.421c-2.144 1.164-3.864.226-5.8-.827a1.846 1.846 0 00-2.879 1.2V72.46h8.675v.028l21.15-.025a4.5 4.5 0 004.5-4.486c.002-3.526.02-7.846.03-7.87z" fill="#1d2b56"/><path data-name="Path 9248" d="M65.649 26.371a1.846 1.846 0 00-2.879-1.2c-1.941 1.054-3.661 1.991-5.8.827a5.487 5.487 0 01-2.217-7.421c1.853-3.153 5.225-2.766 7.953-1.067a1.969 1.969 0 002.949-1.189V4.082H35.971a4.62 4.62 0 00-4.62 4.619v7.749c-.015.044-.035.086-.053.128v9.463c.018.04.037.08.052.122v12.224h.17v.094h12.2a1.969 1.969 0 011.017 2.9c-1.7 2.728-2.086 6.1 1.067 7.953a5.508 5.508 0 007.48-2.073c1.164-2.144.208-4.032-.887-5.95a1.969 1.969 0 011.037-2.826h12.215v-5.024z" fill="#4ab7fd"/><path data-name="Path 9249" d="M76.56 52.621c-1.854-3.151-5.225-2.763-7.952-1.064a1.969 1.969 0 01-3.012-1.669V38.48h-12.17a1.969 1.969 0 00-1.037 2.826c1.1 1.917 2.051 3.805.887 5.95a5.508 5.508 0 01-7.48 2.073c-3.153-1.853-2.766-5.225-1.067-7.953a1.969 1.969 0 00-1.017-2.9h-12.2v-.094h-.17v-.208h-.051v29.74a4.568 4.568 0 004.568 4.568h29.739V60.928a1.968 1.968 0 012.943-1.711c1.919 1.1 3.808 2.051 5.953.885a5.507 5.507 0 002.066-7.481z" fill="#090955"/><path data-name="Path 9250" d="M100.012 37.782V8.775a4.6 4.6 0 00-4.6-4.6H65.705v11.71a1.969 1.969 0 01-3.013 1.669c-2.727-1.7-6.1-2.087-7.952 1.064a5.507 5.507 0 002.069 7.481c2.144 1.166 4.034.21 5.953-.885a1.968 1.968 0 012.943 1.711v11.557h12.023a1.97 1.97 0 001.2-2.879c-1.1-1.917-2.051-3.805-.887-5.95a5.507 5.507 0 017.48-2.073c3.153 1.853 2.766 5.225 1.067 7.953a1.968 1.968 0 001.19 2.948h12.239v-.7z" fill="#2f3d7e"/></g></svg>