<svg width="365" height="204" viewBox="0 0 365 204" fill="none" xmlns="http://www.w3.org/2000/svg">
<g opacity="0.4">
<path d="M0.5 15.999C0.5 7.43861 7.43959 0.499023 16 0.499023H349C357.56 0.499023 364.5 7.43861 364.5 15.999V187.999C364.5 196.559 357.56 203.499 349 203.499H16C7.43959 203.499 0.5 196.559 0.5 187.999V15.999Z" fill="url(#paint0_linear_1_338)"/>
<path d="M0.5 15.999C0.5 7.43861 7.43959 0.499023 16 0.499023H349C357.56 0.499023 364.5 7.43861 364.5 15.999V187.999C364.5 196.559 357.56 203.499 349 203.499H16C7.43959 203.499 0.5 196.559 0.5 187.999V15.999Z" fill="url(#paint1_radial_1_338)" fill-opacity="0.5"/>
<path d="M0.5 15.999C0.5 7.43861 7.43959 0.499023 16 0.499023H349C357.56 0.499023 364.5 7.43861 364.5 15.999V187.999C364.5 196.559 357.56 203.499 349 203.499H16C7.43959 203.499 0.5 196.559 0.5 187.999V15.999Z" fill="url(#paint2_radial_1_338)" fill-opacity="0.9"/>
<path d="M0.5 15.999C0.5 7.43861 7.43959 0.499023 16 0.499023H349C357.56 0.499023 364.5 7.43861 364.5 15.999V187.999C364.5 196.559 357.56 203.499 349 203.499H16C7.43959 203.499 0.5 196.559 0.5 187.999V15.999Z" stroke="url(#paint3_linear_1_338)"/>
</g>
<defs>
<linearGradient id="paint0_linear_1_338" x1="182.5" y1="-0.000976563" x2="182.5" y2="203.999" gradientUnits="userSpaceOnUse">
<stop stop-color="white" stop-opacity="0.9"/>
<stop offset="1" stop-color="white" stop-opacity="0"/>
</linearGradient>
<radialGradient id="paint1_radial_1_338" cx="0" cy="0" r="1" gradientUnits="userSpaceOnUse" gradientTransform="translate(352.899 -23.6085) rotate(126.82) scale(284.325 580.509)">
<stop stop-color="#55C3E6"/>
<stop offset="0.0001" stop-color="#2B92DC"/>
<stop offset="1" stop-color="white" stop-opacity="0"/>
</radialGradient>
<radialGradient id="paint2_radial_1_338" cx="0" cy="0" r="1" gradientUnits="userSpaceOnUse" gradientTransform="translate(19.2966 11.6745) rotate(31.5381) scale(381.489 624.105)">
<stop stop-color="#66C195"/>
<stop offset="1" stop-color="white" stop-opacity="0"/>
</radialGradient>
<linearGradient id="paint3_linear_1_338" x1="171" y1="203.999" x2="178.5" y2="-0.000977722" gradientUnits="userSpaceOnUse">
<stop stop-color="white" stop-opacity="0.9"/>
<stop offset="1" stop-color="white" stop-opacity="0"/>
</linearGradient>
</defs>
</svg>
