<svg width="312" height="116" viewBox="0 0 312 116" fill="none" xmlns="http://www.w3.org/2000/svg">
<g opacity="0.1">
<path d="M312 92.0004C312 105.255 301.255 116 288 116L24 116C10.7452 116 9.39372e-07 105.255 2.09815e-06 92.0003L8.04289e-06 24.0004C9.20167e-06 10.7455 10.7452 0.000370392 24 0.000371551L288 0.00039463C301.255 0.000395789 312 10.7456 312 24.0004L312 92.0004Z" fill="url(#paint0_linear_1_1587)"/>
<path d="M312 92.0004C312 105.255 301.255 116 288 116L24 116C10.7452 116 9.39372e-07 105.255 2.09815e-06 92.0003L8.04289e-06 24.0004C9.20167e-06 10.7455 10.7452 0.000370392 24 0.000371551L288 0.00039463C301.255 0.000395789 312 10.7456 312 24.0004L312 92.0004Z" fill="url(#paint1_radial_1_1587)" fill-opacity="0.5"/>
<path d="M312 92.0004C312 105.255 301.255 116 288 116L24 116C10.7452 116 9.39372e-07 105.255 2.09815e-06 92.0003L8.04289e-06 24.0004C9.20167e-06 10.7455 10.7452 0.000370392 24 0.000371551L288 0.00039463C301.255 0.000395789 312 10.7456 312 24.0004L312 92.0004Z" fill="url(#paint2_radial_1_1587)" fill-opacity="0.9"/>
</g>
<defs>
<linearGradient id="paint0_linear_1_1587" x1="159.864" y1="116" x2="159.864" y2="0.000382752" gradientUnits="userSpaceOnUse">
<stop stop-color="white" stop-opacity="0.9"/>
<stop offset="1" stop-color="white" stop-opacity="0"/>
</linearGradient>
<radialGradient id="paint1_radial_1_1587" cx="0" cy="0" r="1" gradientUnits="userSpaceOnUse" gradientTransform="translate(10.6003 129.424) rotate(-40.928) scale(197.56 416.14)">
<stop stop-color="#55C3E6"/>
<stop offset="0.0001" stop-color="#2B92DC"/>
<stop offset="1" stop-color="white" stop-opacity="0"/>
</radialGradient>
<radialGradient id="paint2_radial_1_1587" cx="0" cy="0" r="1" gradientUnits="userSpaceOnUse" gradientTransform="translate(302.824 109.361) rotate(-168.64) scale(227.054 148.928)">
<stop stop-color="#658597"/>
<stop offset="1" stop-color="white" stop-opacity="0"/>
</radialGradient>
</defs>
</svg>
