<svg width="1366" height="839" viewBox="0 0 1366 839" fill="none" xmlns="http://www.w3.org/2000/svg">
<path fill-rule="evenodd" clip-rule="evenodd" d="M476.5 80.0022L476.5 74.0021C476.5 49.9777 495.976 30.5021 520 30.5021L571.413 30.5021C582.832 30.5021 593.814 26.1125 602.086 18.2415L604.849 15.6134L607.611 12.9853C615.698 5.2912 626.433 1.00024 637.595 1.00024L723.774 1.00025C733.828 1.00026 743.571 4.4825 751.346 10.8548L763.02 20.421C770.974 26.9398 780.941 30.5022 791.226 30.5022L803 30.5022L847 30.5022C871.024 30.5022 890.5 49.9778 890.5 74.0022V476.5V785.977V794.002C890.5 818.579 910.423 838.502 935 838.502H984.99C996.663 838.502 1007.87 833.915 1016.19 825.731L1020.51 821.485C1028.65 813.484 1039.6 809 1051.01 809H1146.99C1158.4 809 1169.35 813.484 1177.49 821.485L1181.81 825.731C1190.13 833.915 1201.34 838.502 1213.01 838.502H1262C1286.58 838.502 1306.5 818.579 1306.5 794.002L1306.5 786L1306.5 679L1306.5 665.87C1306.5 653.962 1311.38 642.575 1320.01 634.365L1322.09 632.376L1324.18 630.388C1333.01 621.988 1338 610.339 1338 598.157V512.123C1338 499.268 1332.13 487.115 1322.06 479.123C1312.23 471.321 1306.5 459.457 1306.5 446.907V74.0002C1306.5 49.9758 1325.98 30.5002 1350 30.5002L1906 30.5002V29.5002L1350 29.5002C1325.42 29.5002 1305.5 49.4236 1305.5 74.0002V446.907C1305.5 459.763 1311.37 471.915 1321.44 479.907C1331.27 487.709 1337 499.573 1337 512.123V598.157C1337 610.065 1332.12 621.453 1323.49 629.663L1321.41 631.652L1319.32 633.64C1310.49 642.04 1305.5 653.689 1305.5 665.87L1305.5 679L1305.5 786L1305.5 794.002C1305.5 818.026 1286.02 837.502 1262 837.502H1213.01C1201.6 837.502 1190.65 833.018 1182.51 825.018L1178.19 820.772C1169.87 812.587 1158.66 808 1146.99 808H1051.01C1039.34 808 1028.13 812.587 1019.81 820.772L1015.49 825.018C1007.35 833.018 996.401 837.502 984.99 837.502H935C910.976 837.502 891.5 818.026 891.5 794.002V785.977V476.5V74.0022C891.5 49.4255 871.577 29.5022 847 29.5022L803 29.5022L791.226 29.5022C781.172 29.5022 771.429 26.0199 763.654 19.6476L751.98 10.0814C744.026 3.56257 734.059 0.000255553 723.774 0.000254337L637.595 0.000244141C626.176 0.00024279 615.194 4.38983 606.922 12.2608L604.159 14.8889L601.397 17.517C593.31 25.2111 582.575 29.5021 571.413 29.5021L520 29.5021C495.423 29.5021 475.5 49.4255 475.5 74.0021L475.5 80.0022L475.5 787.002L475.5 793.002C475.5 817.027 456.025 836.502 432 836.502H382.01C370.599 836.502 359.646 832.019 351.51 824.018L347.192 819.772C338.869 811.587 327.663 807.001 315.99 807.001H220.447C208.513 807.001 197.078 811.794 188.712 820.305L185.575 823.496C177.397 831.816 166.22 836.502 154.553 836.502H105C80.9757 836.502 61.5001 817.027 61.5001 793.002L61.5001 786L61.5001 475.5L61.5001 409.862C61.5001 397.68 56.5063 386.031 47.6835 377.632L43.5061 373.655C34.8816 365.444 30.0001 354.057 30.0001 342.149V256.115C30.0001 243.564 35.7303 231.7 45.5609 223.898C55.6305 215.906 61.5001 203.754 61.5001 190.898V74.0002C61.5001 49.4236 41.5768 29.5002 17.0001 29.5002L-539 29.5002L-539 30.5002L17.0001 30.5002C41.0245 30.5002 60.5001 49.9758 60.5001 74.0002V190.898C60.5001 203.449 54.7698 215.313 44.9392 223.115C34.8696 231.107 29.0001 243.259 29.0001 256.115V342.149C29.0001 354.331 33.9938 365.98 42.8166 374.379L46.994 378.356C55.6185 386.567 60.5001 397.954 60.5001 409.862L60.5001 475.5L60.5001 786L60.5001 793.002C60.5001 817.579 80.4235 837.502 105 837.502H154.553C166.488 837.502 177.922 832.708 186.288 824.198L189.425 821.006C197.603 812.687 208.781 808.001 220.447 808.001H315.99C327.401 808.001 338.355 812.484 346.491 820.485L350.808 824.731C359.131 832.916 370.337 837.502 382.01 837.502H432C456.577 837.502 476.5 817.579 476.5 793.002L476.5 80.0022Z" fill="url(#paint0_linear_1_1015)"/>
<defs>
<linearGradient id="paint0_linear_1_1015" x1="683.5" y1="0.000244141" x2="683.5" y2="838.502" gradientUnits="userSpaceOnUse">
<stop stop-color="white" stop-opacity="0.9"/>
<stop offset="1" stop-color="white" stop-opacity="0.34"/>
</linearGradient>
</defs>
</svg>
