<svg width="768" height="839" viewBox="0 0 768 839" fill="none" xmlns="http://www.w3.org/2000/svg">
<path fill-rule="evenodd" clip-rule="evenodd" d="M44.4999 787.002L44.5 271.184L44.5 80.002L44.5 74.0019C44.5 49.4252 64.4233 29.5019 89 29.5019L272.413 29.5019C283.575 29.5019 294.31 25.2109 302.397 17.5167L305.159 14.8887L307.922 12.2606C316.194 4.38958 327.176 -1.351e-06 338.595 0L424.774 1.01961e-05C435.059 1.14128e-05 445.026 3.56233 452.98 10.0811L464.654 19.6474C472.43 26.0197 482.173 29.5019 492.226 29.5019H504L679 29.5019C703.577 29.5019 723.5 49.4253 723.5 74.0019L723.5 476.5V785.977V794.002C723.5 818.026 742.976 837.502 767 837.502H835V838.502H767C742.423 838.502 722.5 818.578 722.5 794.002V785.977V476.5L722.5 74.0019C722.5 49.9775 703.024 30.5019 679 30.5019L504 30.5019H492.226C481.941 30.5019 471.974 26.9396 464.02 20.4208L452.346 10.8546C444.571 4.48225 434.827 1.00001 424.774 1.00001L338.595 1C327.433 0.999999 316.698 5.29095 308.611 12.985L305.849 15.6132L303.086 18.2412C294.814 26.1122 283.832 30.5019 272.413 30.5019L89 30.5019C64.9756 30.5019 45.5 49.9774 45.5 74.0019L45.5 80.002L45.5 271.184L45.5 793.002C45.5 817.579 25.5767 837.502 1 837.502H-67V836.502H1C25.0244 836.502 44.5 817.026 44.5 793.002L44.4999 787.002Z" fill="url(#paint0_linear_1_851)"/>
<defs>
<linearGradient id="paint0_linear_1_851" x1="384" y1="0" x2="384" y2="838.502" gradientUnits="userSpaceOnUse">
<stop stop-color="white" stop-opacity="0.9"/>
<stop offset="1" stop-color="white" stop-opacity="0.34"/>
</linearGradient>
</defs>
</svg>
