<svg width="677" height="1187" viewBox="0 0 677 1187" fill="none" xmlns="http://www.w3.org/2000/svg">
<path d="M677 1142.5C677 1166.8 657.301 1186.5 633 1186.5L542.015 1186.5C529.984 1186.5 518.593 1181.08 511 1171.75C503.407 1162.42 492.016 1157 479.985 1157L386.015 1157C373.984 1157 362.593 1162.42 355 1171.75C347.407 1181.08 336.016 1186.5 323.985 1186.5L43.9999 1186.5C19.6993 1186.5 -0.000120348 1166.8 -0.000118224 1142.5L-9.99488e-05 933.459C-9.88874e-05 921.318 5.51901 909.835 14.9999 902.25C24.4808 894.665 29.9999 883.182 29.9999 871.041L29.9999 777.209C29.9999 765.068 24.4808 753.585 14.9999 746C5.51902 738.415 -8.18936e-05 726.932 -8.08322e-05 714.791L-2.48562e-05 74.5002C-2.27318e-05 50.1996 19.6994 30.5002 44 30.5002L297.595 30.5002C309.848 30.5002 321.423 24.8792 329 15.2501C336.577 5.62094 348.153 -2.87488e-05 360.405 -2.76776e-05L453.595 -1.95307e-05C465.848 -1.84595e-05 477.423 5.62095 485 15.2501C492.577 24.8793 504.153 30.5002 516.405 30.5002L633 30.5002C657.301 30.5002 677 50.1997 677 74.5002L677 1142.5Z" fill="url(#paint0_linear_1_721)"/>
<path d="M677 1142.5C677 1166.8 657.301 1186.5 633 1186.5L542.015 1186.5C529.984 1186.5 518.593 1181.08 511 1171.75C503.407 1162.42 492.016 1157 479.985 1157L386.015 1157C373.984 1157 362.593 1162.42 355 1171.75C347.407 1181.08 336.016 1186.5 323.985 1186.5L43.9999 1186.5C19.6993 1186.5 -0.000120348 1166.8 -0.000118224 1142.5L-9.99488e-05 933.459C-9.88874e-05 921.318 5.51901 909.835 14.9999 902.25C24.4808 894.665 29.9999 883.182 29.9999 871.041L29.9999 777.209C29.9999 765.068 24.4808 753.585 14.9999 746C5.51902 738.415 -8.18936e-05 726.932 -8.08322e-05 714.791L-2.48562e-05 74.5002C-2.27318e-05 50.1996 19.6994 30.5002 44 30.5002L297.595 30.5002C309.848 30.5002 321.423 24.8792 329 15.2501C336.577 5.62094 348.153 -2.87488e-05 360.405 -2.76776e-05L453.595 -1.95307e-05C465.848 -1.84595e-05 477.423 5.62095 485 15.2501C492.577 24.8793 504.153 30.5002 516.405 30.5002L633 30.5002C657.301 30.5002 677 50.1997 677 74.5002L677 1142.5Z" fill="url(#paint1_linear_1_721)" fill-opacity="0.2"/>
<path d="M677 1142.5C677 1166.8 657.301 1186.5 633 1186.5L542.015 1186.5C529.984 1186.5 518.593 1181.08 511 1171.75C503.407 1162.42 492.016 1157 479.985 1157L386.015 1157C373.984 1157 362.593 1162.42 355 1171.75C347.407 1181.08 336.016 1186.5 323.985 1186.5L43.9999 1186.5C19.6993 1186.5 -0.000120348 1166.8 -0.000118224 1142.5L-9.99488e-05 933.459C-9.88874e-05 921.318 5.51901 909.835 14.9999 902.25C24.4808 894.665 29.9999 883.182 29.9999 871.041L29.9999 777.209C29.9999 765.068 24.4808 753.585 14.9999 746C5.51902 738.415 -8.18936e-05 726.932 -8.08322e-05 714.791L-2.48562e-05 74.5002C-2.27318e-05 50.1996 19.6994 30.5002 44 30.5002L297.595 30.5002C309.848 30.5002 321.423 24.8792 329 15.2501C336.577 5.62094 348.153 -2.87488e-05 360.405 -2.76776e-05L453.595 -1.95307e-05C465.848 -1.84595e-05 477.423 5.62095 485 15.2501C492.577 24.8793 504.153 30.5002 516.405 30.5002L633 30.5002C657.301 30.5002 677 50.1997 677 74.5002L677 1142.5Z" fill="url(#paint2_radial_1_721)" fill-opacity="0.4"/>
<defs>
<linearGradient id="paint0_linear_1_721" x1="338.5" y1="1186.5" x2="338.5" y2="-2.95926e-05" gradientUnits="userSpaceOnUse">
<stop stop-color="#018197"/>
<stop offset="1" stop-color="#22CF48"/>
</linearGradient>
<linearGradient id="paint1_linear_1_721" x1="372.35" y1="457.803" x2="-25.0897" y2="657.69" gradientUnits="userSpaceOnUse">
<stop stop-color="#0265A5"/>
<stop offset="1" stop-color="#00FF66"/>
</linearGradient>
<radialGradient id="paint2_radial_1_721" cx="0" cy="0" r="1" gradientUnits="userSpaceOnUse" gradientTransform="translate(41.6072 33.2363) rotate(99.7753) scale(524.384 317.015)">
<stop stop-color="#44D1F0"/>
<stop offset="1" stop-color="#4B84DA" stop-opacity="0.34"/>
</radialGradient>
</defs>
</svg>
