<svg width="1246" height="1085" viewBox="0 0 1246 1085" fill="none" xmlns="http://www.w3.org/2000/svg">
<path d="M1246 1040.5C1246 1064.8 1226.3 1084.5 1202 1084.5L745.015 1084.5C732.984 1084.5 721.593 1079.08 714 1069.75C706.407 1060.42 695.016 1055 682.985 1055L589.015 1055C576.984 1055 565.592 1060.42 558 1069.75C550.407 1079.08 539.016 1084.5 526.985 1084.5L43.9999 1084.5C19.6993 1084.5 -0.000120348 1064.8 -0.000118224 1040.5L-0.000107992 923.459C-0.00010693 911.318 5.51894 899.835 14.9999 892.25C24.4809 884.665 29.9999 873.182 29.9999 861.041L29.9999 767.209C29.9999 755.068 24.4809 743.585 14.9999 736C5.51895 728.415 -8.99365e-05 716.932 -8.88751e-05 704.791L-3.37733e-05 74.5003C-3.16489e-05 50.1997 19.6994 30.5003 44 30.5003L500.595 30.5003C512.848 30.5003 524.423 24.8793 532 15.2502C539.577 5.62103 551.153 6.13248e-05 563.405 6.2396e-05L656.595 7.05429e-05C668.848 7.1614e-05 680.423 5.62104 688 15.2502C695.577 24.8793 707.153 30.5003 719.405 30.5003L1202 30.5004C1226.3 30.5004 1246 50.1998 1246 74.5004L1246 1040.5Z" fill="url(#paint0_linear_1_1255)"/>
<path d="M1246 1040.5C1246 1064.8 1226.3 1084.5 1202 1084.5L745.015 1084.5C732.984 1084.5 721.593 1079.08 714 1069.75C706.407 1060.42 695.016 1055 682.985 1055L589.015 1055C576.984 1055 565.592 1060.42 558 1069.75C550.407 1079.08 539.016 1084.5 526.985 1084.5L43.9999 1084.5C19.6993 1084.5 -0.000120348 1064.8 -0.000118224 1040.5L-0.000107992 923.459C-0.00010693 911.318 5.51894 899.835 14.9999 892.25C24.4809 884.665 29.9999 873.182 29.9999 861.041L29.9999 767.209C29.9999 755.068 24.4809 743.585 14.9999 736C5.51895 728.415 -8.99365e-05 716.932 -8.88751e-05 704.791L-3.37733e-05 74.5003C-3.16489e-05 50.1997 19.6994 30.5003 44 30.5003L500.595 30.5003C512.848 30.5003 524.423 24.8793 532 15.2502C539.577 5.62103 551.153 6.13248e-05 563.405 6.2396e-05L656.595 7.05429e-05C668.848 7.1614e-05 680.423 5.62104 688 15.2502C695.577 24.8793 707.153 30.5003 719.405 30.5003L1202 30.5004C1226.3 30.5004 1246 50.1998 1246 74.5004L1246 1040.5Z" fill="url(#paint1_linear_1_1255)" fill-opacity="0.2"/>
<path d="M1246 1040.5C1246 1064.8 1226.3 1084.5 1202 1084.5L745.015 1084.5C732.984 1084.5 721.593 1079.08 714 1069.75C706.407 1060.42 695.016 1055 682.985 1055L589.015 1055C576.984 1055 565.592 1060.42 558 1069.75C550.407 1079.08 539.016 1084.5 526.985 1084.5L43.9999 1084.5C19.6993 1084.5 -0.000120348 1064.8 -0.000118224 1040.5L-0.000107992 923.459C-0.00010693 911.318 5.51894 899.835 14.9999 892.25C24.4809 884.665 29.9999 873.182 29.9999 861.041L29.9999 767.209C29.9999 755.068 24.4809 743.585 14.9999 736C5.51895 728.415 -8.99365e-05 716.932 -8.88751e-05 704.791L-3.37733e-05 74.5003C-3.16489e-05 50.1997 19.6994 30.5003 44 30.5003L500.595 30.5003C512.848 30.5003 524.423 24.8793 532 15.2502C539.577 5.62103 551.153 6.13248e-05 563.405 6.2396e-05L656.595 7.05429e-05C668.848 7.1614e-05 680.423 5.62104 688 15.2502C695.577 24.8793 707.153 30.5003 719.405 30.5003L1202 30.5004C1226.3 30.5004 1246 50.1998 1246 74.5004L1246 1040.5Z" fill="url(#paint2_radial_1_1255)" fill-opacity="0.4"/>
<defs>
<linearGradient id="paint0_linear_1_1255" x1="623" y1="1084.5" x2="623" y2="6.76059e-05" gradientUnits="userSpaceOnUse">
<stop stop-color="#018197"/>
<stop offset="1" stop-color="#22CF48"/>
</linearGradient>
<linearGradient id="paint1_linear_1_1255" x1="685.3" y1="418.447" x2="232.832" y2="876.661" gradientUnits="userSpaceOnUse">
<stop stop-color="#0265A5"/>
<stop offset="1" stop-color="#00FF66"/>
</linearGradient>
<radialGradient id="paint2_radial_1_1255" cx="0" cy="0" r="1" gradientUnits="userSpaceOnUse" gradientTransform="translate(76.577 30.3791) rotate(109.132) scale(499.961 559.352)">
<stop stop-color="#44D1F0"/>
<stop offset="1" stop-color="#4B84DA" stop-opacity="0.34"/>
</radialGradient>
</defs>
</svg>
