<svg width="1840" height="872" viewBox="0 0 1840 872" fill="none" xmlns="http://www.w3.org/2000/svg">
<path d="M1840 828C1840 852.301 1820.3 872 1796 872L1339.01 872C1326.98 872 1315.59 866.583 1308 857.25V857.25C1300.41 847.918 1289.02 842.5 1276.99 842.5L1183.01 842.5C1170.98 842.5 1159.59 847.918 1152 857.25V857.25C1144.41 866.583 1133.02 872 1120.99 872L43.9999 872C19.6994 872 -0.000120348 852.301 -0.000118224 828L-0.000107992 710.959C-0.00010693 698.818 5.519 687.335 14.9999 679.75V679.75C24.4808 672.165 29.9999 660.682 29.9999 648.541L29.9999 554.71C29.9999 542.568 24.4808 531.085 14.9999 523.5V523.5C5.51901 515.915 -8.99365e-05 504.432 -8.88751e-05 492.291L-5.23944e-05 75.0003C-5.027e-05 50.6997 19.6994 31.0003 44 31.0003L500.595 31.0003C512.848 31.0003 524.423 25.3793 532 15.7502V15.7502C539.577 6.12115 551.153 0.500189 563.405 0.500185L656.595 0.50015C668.848 0.500145 680.423 6.12112 688 15.7502V15.7502C695.577 25.3794 707.153 31.0003 719.405 31.0003L1796 31.0004C1820.3 31.0004 1840 50.6999 1840 75.0004L1840 828Z" fill="url(#paint0_linear_1_138)"/>
<path d="M1840 828C1840 852.301 1820.3 872 1796 872L1339.01 872C1326.98 872 1315.59 866.583 1308 857.25V857.25C1300.41 847.918 1289.02 842.5 1276.99 842.5L1183.01 842.5C1170.98 842.5 1159.59 847.918 1152 857.25V857.25C1144.41 866.583 1133.02 872 1120.99 872L43.9999 872C19.6994 872 -0.000120348 852.301 -0.000118224 828L-0.000107992 710.959C-0.00010693 698.818 5.519 687.335 14.9999 679.75V679.75C24.4808 672.165 29.9999 660.682 29.9999 648.541L29.9999 554.71C29.9999 542.568 24.4808 531.085 14.9999 523.5V523.5C5.51901 515.915 -8.99365e-05 504.432 -8.88751e-05 492.291L-5.23944e-05 75.0003C-5.027e-05 50.6997 19.6994 31.0003 44 31.0003L500.595 31.0003C512.848 31.0003 524.423 25.3793 532 15.7502V15.7502C539.577 6.12115 551.153 0.500189 563.405 0.500185L656.595 0.50015C668.848 0.500145 680.423 6.12112 688 15.7502V15.7502C695.577 25.3794 707.153 31.0003 719.405 31.0003L1796 31.0004C1820.3 31.0004 1840 50.6999 1840 75.0004L1840 828Z" fill="url(#paint1_linear_1_138)" fill-opacity="0.2"/>
<path d="M1840 828C1840 852.301 1820.3 872 1796 872L1339.01 872C1326.98 872 1315.59 866.583 1308 857.25V857.25C1300.41 847.918 1289.02 842.5 1276.99 842.5L1183.01 842.5C1170.98 842.5 1159.59 847.918 1152 857.25V857.25C1144.41 866.583 1133.02 872 1120.99 872L43.9999 872C19.6994 872 -0.000120348 852.301 -0.000118224 828L-0.000107992 710.959C-0.00010693 698.818 5.519 687.335 14.9999 679.75V679.75C24.4808 672.165 29.9999 660.682 29.9999 648.541L29.9999 554.71C29.9999 542.568 24.4808 531.085 14.9999 523.5V523.5C5.51901 515.915 -8.99365e-05 504.432 -8.88751e-05 492.291L-5.23944e-05 75.0003C-5.027e-05 50.6997 19.6994 31.0003 44 31.0003L500.595 31.0003C512.848 31.0003 524.423 25.3793 532 15.7502V15.7502C539.577 6.12115 551.153 0.500189 563.405 0.500185L656.595 0.50015C668.848 0.500145 680.423 6.12112 688 15.7502V15.7502C695.577 25.3794 707.153 31.0003 719.405 31.0003L1796 31.0004C1820.3 31.0004 1840 50.6999 1840 75.0004L1840 828Z" fill="url(#paint2_radial_1_138)" fill-opacity="0.4"/>
<defs>
<linearGradient id="paint0_linear_1_138" x1="920" y1="872" x2="920" y2="0.500164" gradientUnits="userSpaceOnUse">
<stop stop-color="#018197"/>
<stop offset="1" stop-color="#22CF48"/>
</linearGradient>
<linearGradient id="paint1_linear_1_138" x1="1012" y1="336.763" x2="708.764" y2="901.079" gradientUnits="userSpaceOnUse">
<stop stop-color="#0265A5"/>
<stop offset="1" stop-color="#00FF66"/>
</linearGradient>
<radialGradient id="paint2_radial_1_138" cx="0" cy="0" r="1" gradientUnits="userSpaceOnUse" gradientTransform="translate(113.083 24.9126) rotate(122.518) scale(450.146 737.235)">
<stop stop-color="#44D1F0"/>
<stop offset="1" stop-color="#4B84DA" stop-opacity="0.34"/>
</radialGradient>
</defs>
</svg>
