<svg width="360" height="443" viewBox="0 0 360 443" fill="none" xmlns="http://www.w3.org/2000/svg">
<path fill-rule="evenodd" clip-rule="evenodd" d="M16.5 70.0193L16.5 383.019L16.5 418.019C16.5 431.55 5.53098 442.519 -8 442.519H-96V441.519H-8C4.97869 441.519 15.5 430.998 15.5 418.019L15.5 383.019L15.5 70.0193L15.4999 44.0202C15.4999 30.4892 26.469 19.5202 39.9999 19.5202L104.08 19.5202C108.507 19.5202 112.844 18.2698 116.591 15.9129L135.884 3.77911C139.791 1.32196 144.312 0.01831 148.928 0.0183105L210.385 0.0183178C215.125 0.0183184 219.764 1.39347 223.738 3.97703L241.807 15.7231C245.619 18.2012 250.068 19.5202 254.615 19.5202L275 19.5202L320 19.5202C333.531 19.5202 344.5 30.4893 344.5 44.0202L344.5 321.017L344.5 341.995L344.5 417.519C344.5 430.498 355.021 441.019 368 441.019H456V442.019H368C354.469 442.019 343.5 431.05 343.5 417.519L343.5 341.995L343.5 321.017L343.5 44.0202C343.5 31.0416 332.979 20.5202 320 20.5202L275 20.5202L254.615 20.5202C249.875 20.5202 245.236 19.1451 241.262 16.5615L223.193 4.81547C219.381 2.33732 214.932 1.01832 210.385 1.01832L148.928 1.01831C144.501 1.01831 140.164 2.26874 136.416 4.62561L117.124 16.7594C113.217 19.2165 108.695 20.5202 104.08 20.5202L39.9999 20.5202C27.0213 20.5202 16.4999 31.0415 16.4999 44.0202L16.5 70.0193Z" fill="url(#paint0_linear_1_1652)"/>
<defs>
<linearGradient id="paint0_linear_1_1652" x1="180" y1="0.0183105" x2="180" y2="442.519" gradientUnits="userSpaceOnUse">
<stop stop-color="white" stop-opacity="0.9"/>
<stop offset="1" stop-color="white" stop-opacity="0.34"/>
</linearGradient>
</defs>
</svg>
