<svg width="313" height="434" viewBox="0 0 313 434" fill="none" xmlns="http://www.w3.org/2000/svg">
<g opacity="0.4">
<path fill-rule="evenodd" clip-rule="evenodd" d="M289 434C302.255 434 313 423.255 313 410L313 42.468C313 29.2132 302.255 18.468 289 18.468L223.165 18.468C217.871 18.468 212.725 16.7173 208.529 13.4885L197.471 4.9795C193.275 1.75071 188.129 5.23633e-06 182.835 4.774e-06L128.165 0C122.871 -4.62334e-07 117.725 1.75071 113.529 4.9795L102.471 13.4885C98.2752 16.7173 93.1293 18.468 87.8349 18.468L24 18.468C10.7452 18.468 3.33269e-05 29.2131 3.21669e-05 42.468L0 410C-2.10051e-06 423.255 10.7452 434 24 434L96.0001 434C96.0065 434 96.0129 434 96.0193 434C97.0133 433.995 97.9749 433.645 98.7394 433.009L109.565 424.003C117.335 417.539 127.124 414 137.232 414H175.223C185.332 414 195.123 417.54 202.895 424.005L214.07 433.301C214.608 433.749 215.286 433.996 215.987 434C215.991 434 215.996 434 216 434L289 434Z" fill="url(#paint0_linear_1_1642)"/>
<path fill-rule="evenodd" clip-rule="evenodd" d="M289 434C302.255 434 313 423.255 313 410L313 42.468C313 29.2132 302.255 18.468 289 18.468L223.165 18.468C217.871 18.468 212.725 16.7173 208.529 13.4885L197.471 4.9795C193.275 1.75071 188.129 5.23633e-06 182.835 4.774e-06L128.165 0C122.871 -4.62334e-07 117.725 1.75071 113.529 4.9795L102.471 13.4885C98.2752 16.7173 93.1293 18.468 87.8349 18.468L24 18.468C10.7452 18.468 3.33269e-05 29.2131 3.21669e-05 42.468L0 410C-2.10051e-06 423.255 10.7452 434 24 434L96.0001 434C96.0065 434 96.0129 434 96.0193 434C97.0133 433.995 97.9749 433.645 98.7394 433.009L109.565 424.003C117.335 417.539 127.124 414 137.232 414H175.223C185.332 414 195.123 417.54 202.895 424.005L214.07 433.301C214.608 433.749 215.286 433.996 215.987 434C215.991 434 215.996 434 216 434L289 434Z" fill="url(#paint1_radial_1_1642)" fill-opacity="0.5"/>
<path fill-rule="evenodd" clip-rule="evenodd" d="M289 434C302.255 434 313 423.255 313 410L313 42.468C313 29.2132 302.255 18.468 289 18.468L223.165 18.468C217.871 18.468 212.725 16.7173 208.529 13.4885L197.471 4.9795C193.275 1.75071 188.129 5.23633e-06 182.835 4.774e-06L128.165 0C122.871 -4.62334e-07 117.725 1.75071 113.529 4.9795L102.471 13.4885C98.2752 16.7173 93.1293 18.468 87.8349 18.468L24 18.468C10.7452 18.468 3.33269e-05 29.2131 3.21669e-05 42.468L0 410C-2.10051e-06 423.255 10.7452 434 24 434L96.0001 434C96.0065 434 96.0129 434 96.0193 434C97.0133 433.995 97.9749 433.645 98.7394 433.009L109.565 424.003C117.335 417.539 127.124 414 137.232 414H175.223C185.332 414 195.123 417.54 202.895 424.005L214.07 433.301C214.608 433.749 215.286 433.996 215.987 434C215.991 434 215.996 434 216 434L289 434Z" fill="url(#paint2_radial_1_1642)" fill-opacity="0.9"/>
</g>
<defs>
<linearGradient id="paint0_linear_1_1642" x1="156.5" y1="0" x2="156.5" y2="434" gradientUnits="userSpaceOnUse">
<stop stop-color="white" stop-opacity="0.9"/>
<stop offset="1" stop-color="white" stop-opacity="0"/>
</linearGradient>
<radialGradient id="paint1_radial_1_1642" cx="0" cy="0" r="1" gradientUnits="userSpaceOnUse" gradientTransform="translate(302.623 -50.2239) rotate(106.792) scale(505.791 595.339)">
<stop stop-color="#55C3E6"/>
<stop offset="0.0001" stop-color="#2B92DC"/>
<stop offset="1" stop-color="white" stop-opacity="0"/>
</radialGradient>
<radialGradient id="paint2_radial_1_1642" cx="0" cy="0" r="1" gradientUnits="userSpaceOnUse" gradientTransform="translate(16.5475 24.839) rotate(56.7036) scale(507.894 855.219)">
<stop stop-color="#66C195"/>
<stop offset="1" stop-color="white" stop-opacity="0"/>
</radialGradient>
</defs>
</svg>
