<svg width="360" height="884" viewBox="0 0 360 884" fill="none" xmlns="http://www.w3.org/2000/svg">
<path d="M360 859.5C360 872.755 349.255 883.5 336 883.5L308.021 883.5C302.509 883.5 297.165 881.603 292.887 878.127L282.113 869.374C277.835 865.898 272.491 864.001 266.979 864.001L215.819 864.001C211.048 864.001 206.386 865.422 202.427 868.084L185.573 879.417C181.614 882.079 176.952 883.5 172.181 883.5L24 883.5C10.7451 883.5 -2.95782e-05 872.755 -2.84194e-05 859.5L4.28301e-05 44.5007C4.39889e-05 31.2459 10.7452 20.5007 24 20.5007L52.6452 20.5007C58.3601 20.5007 63.8875 18.4614 68.233 14.7496L78.7671 5.75158C83.1125 2.03979 88.6399 0.000464558 94.3548 0.000465058L148.645 0.000469804C154.36 0.000470304 159.887 2.0398 164.233 5.75159L174.767 14.7496C179.113 18.4614 184.64 20.5007 190.355 20.5007L336 20.5007C349.255 20.5007 360 31.2459 360 44.5007L360 859.5Z" fill="url(#paint0_linear_23_178)"/>
<path d="M360 859.5C360 872.755 349.255 883.5 336 883.5L308.021 883.5C302.509 883.5 297.165 881.603 292.887 878.127L282.113 869.374C277.835 865.898 272.491 864.001 266.979 864.001L215.819 864.001C211.048 864.001 206.386 865.422 202.427 868.084L185.573 879.417C181.614 882.079 176.952 883.5 172.181 883.5L24 883.5C10.7451 883.5 -2.95782e-05 872.755 -2.84194e-05 859.5L4.28301e-05 44.5007C4.39889e-05 31.2459 10.7452 20.5007 24 20.5007L52.6452 20.5007C58.3601 20.5007 63.8875 18.4614 68.233 14.7496L78.7671 5.75158C83.1125 2.03979 88.6399 0.000464558 94.3548 0.000465058L148.645 0.000469804C154.36 0.000470304 159.887 2.0398 164.233 5.75159L174.767 14.7496C179.113 18.4614 184.64 20.5007 190.355 20.5007L336 20.5007C349.255 20.5007 360 31.2459 360 44.5007L360 859.5Z" fill="url(#paint1_linear_23_178)" fill-opacity="0.2"/>
<path d="M360 859.5C360 872.755 349.255 883.5 336 883.5L308.021 883.5C302.509 883.5 297.165 881.603 292.887 878.127L282.113 869.374C277.835 865.898 272.491 864.001 266.979 864.001L215.819 864.001C211.048 864.001 206.386 865.422 202.427 868.084L185.573 879.417C181.614 882.079 176.952 883.5 172.181 883.5L24 883.5C10.7451 883.5 -2.95782e-05 872.755 -2.84194e-05 859.5L4.28301e-05 44.5007C4.39889e-05 31.2459 10.7452 20.5007 24 20.5007L52.6452 20.5007C58.3601 20.5007 63.8875 18.4614 68.233 14.7496L78.7671 5.75158C83.1125 2.03979 88.6399 0.000464558 94.3548 0.000465058L148.645 0.000469804C154.36 0.000470304 159.887 2.0398 164.233 5.75159L174.767 14.7496C179.113 18.4614 184.64 20.5007 190.355 20.5007L336 20.5007C349.255 20.5007 360 31.2459 360 44.5007L360 859.5Z" fill="url(#paint2_radial_23_178)" fill-opacity="0.4"/>
<defs>
<linearGradient id="paint0_linear_23_178" x1="180" y1="883.5" x2="180" y2="0.000472545" gradientUnits="userSpaceOnUse">
<stop stop-color="#018197"/>
<stop offset="1" stop-color="#22CF48"/>
</linearGradient>
<linearGradient id="paint1_linear_23_178" x1="198" y1="340.893" x2="-36.5441" y2="425.132" gradientUnits="userSpaceOnUse">
<stop stop-color="#0265A5"/>
<stop offset="1" stop-color="#00FF66"/>
</linearGradient>
<radialGradient id="paint2_radial_23_178" cx="0" cy="0" r="1" gradientUnits="userSpaceOnUse" gradientTransform="translate(22.125 24.7491) rotate(97.0141) scale(387.703 169.779)">
<stop stop-color="#44D1F0"/>
<stop offset="1" stop-color="#4B84DA" stop-opacity="0.34"/>
</radialGradient>
</defs>
</svg>
