<svg width="1920" height="839" viewBox="0 0 1920 839" fill="none" xmlns="http://www.w3.org/2000/svg">
<path fill-rule="evenodd" clip-rule="evenodd" d="M660.492 74.0017V80.0018H660.5L660.5 793.002C660.5 817.578 640.577 837.502 616 837.502H474.01C462.337 837.502 451.131 832.915 442.808 824.731L438.491 820.485C430.355 812.484 419.401 808 407.99 808H312.01C300.599 808 289.646 812.484 281.51 820.485L277.192 824.731C268.869 832.915 257.663 837.502 245.99 837.502H104C79.4235 837.502 59.5001 817.578 59.5001 793.002L59.5001 785.974L59.5001 475.5L59.5001 409.85C59.5001 397.941 54.6183 386.554 45.9935 378.343L41.8171 374.367C32.994 365.968 28.0001 354.319 28.0001 342.137V256.107C28.0001 243.251 33.8697 231.099 43.9392 223.108C53.7698 215.306 59.5001 203.442 59.5001 190.892V73.9995C59.5001 49.9751 40.0245 30.4995 16.0001 30.4995L-540 30.4994L-540 29.4994L16.0001 29.4995C40.5768 29.4995 60.5001 49.4228 60.5001 73.9995V190.892C60.5001 203.747 54.6304 215.899 44.5609 223.891C34.7303 231.693 29.0001 243.557 29.0001 256.107V342.137C29.0001 354.045 33.8818 365.432 42.5066 373.643L46.683 377.619C55.5061 386.018 60.5001 397.668 60.5001 409.85L60.5001 475.5L60.5001 785.974L60.5001 793.002C60.5001 817.026 79.9757 836.502 104 836.502H245.99C257.401 836.502 268.355 832.018 276.491 824.018L280.808 819.772C289.131 811.587 300.337 807 312.01 807H407.99C419.663 807 430.869 811.587 439.192 819.772L443.51 824.018C451.646 832.018 462.599 836.502 474.01 836.502H616C640.025 836.502 659.5 817.026 659.5 793.002V787.002H659.492V74.0017C659.492 49.4251 679.416 29.5017 703.992 29.5017L848.405 29.5018C859.567 29.5018 870.302 25.2107 878.389 17.5166L881.151 14.8885L883.914 12.2604C892.186 4.38946 903.168 -0.000123421 914.587 -0.00012207L1000.77 -0.000111874C1011.05 -0.000110657 1021.02 3.56221 1028.97 10.081L1040.65 19.6472C1048.42 26.0195 1058.16 29.5018 1068.22 29.5018L1109.99 29.5018L1215.99 29.5018C1240.57 29.5018 1260.49 49.4252 1260.49 74.0018V476.5H1260.5V794.002C1260.5 818.026 1279.98 837.502 1304 837.502H1445.99C1457.4 837.502 1468.35 833.018 1476.49 825.017L1480.81 820.771C1489.13 812.587 1500.34 808 1512.01 808H1607.99C1619.66 808 1630.87 812.587 1639.19 820.771L1643.51 825.017C1651.65 833.018 1662.6 837.502 1674.01 837.502H1816C1840.02 837.502 1859.5 818.026 1859.5 794.002V785.974V679V665.85C1859.5 653.668 1864.49 642.018 1873.32 633.619L1875.41 631.631L1877.49 629.643C1886.12 621.433 1891 610.045 1891 598.137V512.107C1891 499.557 1885.27 487.693 1875.44 479.891C1865.37 471.899 1859.5 459.747 1859.5 446.892V73.9995C1859.5 49.4228 1879.42 29.4995 1904 29.4995L2460 29.4994V30.4994L1904 30.4995C1879.98 30.4995 1860.5 49.9751 1860.5 73.9995V446.892C1860.5 459.442 1866.23 471.306 1876.06 479.108C1886.13 487.1 1892 499.252 1892 512.107V598.137C1892 610.319 1887.01 621.968 1878.18 630.367L1876.09 632.355L1874.01 634.343C1865.38 642.554 1860.5 653.941 1860.5 665.85V679V785.974V794.002C1860.5 818.578 1840.58 838.502 1816 838.502H1674.01C1662.34 838.502 1651.13 833.915 1642.81 825.73L1638.49 821.484C1630.35 813.484 1619.4 809 1607.99 809H1512.01C1500.6 809 1489.65 813.484 1481.51 821.484L1477.19 825.73C1468.87 833.915 1457.66 838.502 1445.99 838.502H1304C1279.42 838.502 1259.5 818.578 1259.5 794.002V785.977H1259.49V74.0018C1259.49 49.9774 1240.02 30.5018 1215.99 30.5018L1109.99 30.5018L1068.22 30.5018C1057.93 30.5018 1047.97 26.9395 1040.01 20.4207L1028.34 10.8544C1020.56 4.48213 1010.82 0.999889 1000.77 0.999888L914.587 0.999878C903.425 0.999877 892.69 5.29083 884.603 12.9849L881.841 15.613L879.078 18.2411C870.806 26.1121 859.824 30.5018 848.405 30.5018L703.992 30.5017C679.968 30.5017 660.492 49.9773 660.492 74.0017Z" fill="url(#paint0_linear_1_295)"/>
<defs>
<linearGradient id="paint0_linear_1_295" x1="960" y1="-0.00012207" x2="960" y2="838.502" gradientUnits="userSpaceOnUse">
<stop stop-color="white" stop-opacity="0.9"/>
<stop offset="1" stop-color="white" stop-opacity="0.34"/>
</linearGradient>
</defs>
</svg>
