<svg width="724" height="818" viewBox="0 0 724 818" fill="none" xmlns="http://www.w3.org/2000/svg">
<path opacity="0.4" fill-rule="evenodd" clip-rule="evenodd" d="M-1 0.998052C-1 0.721899 -0.776142 0.498052 -0.5 0.498052L679 0.498047C703.577 0.498044 723.5 20.4214 723.5 44.998V228.998C723.5 253.575 703.577 273.498 679 273.498L507.025 273.498C507.02 273.498 507.016 273.498 507.012 273.498H89C64.9756 273.498 45.5 292.974 45.5 316.998L45.5 500.998C45.5 525.022 64.9756 544.498 89 544.498L133 544.498L604.5 544.498C604.503 544.498 604.505 544.498 604.508 544.498H679C703.577 544.498 723.5 564.421 723.5 588.998L723.5 772.998C723.5 797.575 703.577 817.498 679 817.498L-2.28286e-05 817.5C-0.276164 817.5 -0.500022 817.276 -0.500023 817C-0.500023 816.724 -0.276166 816.5 -2.28286e-05 816.5L679 816.498C703.024 816.498 722.5 797.023 722.5 772.998L722.5 588.998C722.5 564.974 703.024 545.498 679 545.498L604.5 545.498L133 545.498C132.997 545.498 132.995 545.498 132.992 545.498H89C64.4233 545.498 44.5 525.575 44.5 500.998L44.5 316.998C44.5 292.421 64.4234 272.498 89 272.498H635C635.004 272.498 635.009 272.498 635.013 272.498H679C703.024 272.498 722.5 253.022 722.5 228.998V44.998C722.5 20.9737 703.024 1.49804 679 1.49805L-0.5 1.49805C-0.776142 1.49805 -1 1.27421 -1 0.998052Z" fill="url(#paint0_linear_1_803)"/>
<defs>
<linearGradient id="paint0_linear_1_803" x1="361.25" y1="0.498047" x2="361.25" y2="817.5" gradientUnits="userSpaceOnUse">
<stop stop-color="white" stop-opacity="0.9"/>
<stop offset="1" stop-color="white" stop-opacity="0.34"/>
</linearGradient>
</defs>
</svg>
