<svg width="701" height="53" viewBox="0 0 701 53" fill="none" xmlns="http://www.w3.org/2000/svg">
<path opacity="0.4" fill-rule="evenodd" clip-rule="evenodd" d="M700 22.0138C700 18.6976 697.313 16.0098 694 16.0098C690.687 16.0098 688 18.6976 688 22.0138C688 25.33 690.687 28.0178 694 28.0178C697.313 28.0178 700 25.33 700 22.0138ZM694 15.0098C697.866 15.0098 701 18.1459 701 22.0138C701 25.8817 697.866 29.0178 694 29.0178C690.134 29.0178 687 25.8817 687 22.0138L687 22.6002L563.192 22.6002C553.881 22.6002 544.956 26.2948 538.384 32.8482L528.744 42.4601C521.984 49.2005 512.806 53 503.23 53L66.5709 53C56.995 53 47.8165 49.2005 41.0568 42.4601L41.0562 42.4595L11.214 12.5989C10.0417 13.4846 8.58222 14.0098 7 14.0098C3.13373 14.0098 1.8414e-06 10.8737 2.01047e-06 7.00575C2.17954e-06 3.13783 3.13373 0.0017357 7 0.00173587C10.8663 0.00173604 14 3.13783 14 7.00575C14 8.93014 13.2243 10.6734 11.9686 11.9394L41.7628 41.752C48.3351 48.3054 57.2596 52 66.5709 52L503.23 52C512.541 52 521.466 48.3054 528.038 41.752L537.678 32.1401C544.438 25.3997 553.616 21.6002 563.192 21.6002L687 21.6002L687 22.0138C687 18.1459 690.134 15.0098 694 15.0098ZM13 7.00575C13 10.322 10.3134 13.0098 7 13.0098C3.68659 13.0098 1 10.322 1 7.00575C1 3.68953 3.68659 1.00174 7 1.00174C10.3134 1.00174 13 3.68953 13 7.00575Z" fill="url(#paint0_linear_1_251)"/>
<path d="M544 51.9998L561.625 35.9999" stroke="url(#paint1_linear_1_251)" stroke-miterlimit="10" stroke-linecap="round"/>
<path d="M544 51.9998L561.625 35.9999" stroke="url(#paint2_linear_1_251)" stroke-opacity="0.2" stroke-miterlimit="10" stroke-linecap="round"/>
<path d="M544 51.9998L561.625 35.9999" stroke="url(#paint3_radial_1_251)" stroke-opacity="0.4" stroke-miterlimit="10" stroke-linecap="round"/>
<path d="M563.477 51.9998L581.101 35.9999" stroke="url(#paint4_linear_1_251)" stroke-miterlimit="10" stroke-linecap="round"/>
<path d="M563.477 51.9998L581.101 35.9999" stroke="url(#paint5_linear_1_251)" stroke-opacity="0.2" stroke-miterlimit="10" stroke-linecap="round"/>
<path d="M563.477 51.9998L581.101 35.9999" stroke="url(#paint6_radial_1_251)" stroke-opacity="0.4" stroke-miterlimit="10" stroke-linecap="round"/>
<path d="M582.969 51.9998L600.593 35.9999" stroke="url(#paint7_linear_1_251)" stroke-miterlimit="10" stroke-linecap="round"/>
<path d="M582.969 51.9998L600.593 35.9999" stroke="url(#paint8_linear_1_251)" stroke-opacity="0.2" stroke-miterlimit="10" stroke-linecap="round"/>
<path d="M582.969 51.9998L600.593 35.9999" stroke="url(#paint9_radial_1_251)" stroke-opacity="0.4" stroke-miterlimit="10" stroke-linecap="round"/>
<path d="M602.445 51.9998L620.07 35.9999" stroke="url(#paint10_linear_1_251)" stroke-miterlimit="10" stroke-linecap="round"/>
<path d="M602.445 51.9998L620.07 35.9999" stroke="url(#paint11_linear_1_251)" stroke-opacity="0.2" stroke-miterlimit="10" stroke-linecap="round"/>
<path d="M602.445 51.9998L620.07 35.9999" stroke="url(#paint12_radial_1_251)" stroke-opacity="0.4" stroke-miterlimit="10" stroke-linecap="round"/>
<path d="M621.93 51.9998L639.554 35.9999" stroke="url(#paint13_linear_1_251)" stroke-miterlimit="10" stroke-linecap="round"/>
<path d="M621.93 51.9998L639.554 35.9999" stroke="url(#paint14_linear_1_251)" stroke-opacity="0.2" stroke-miterlimit="10" stroke-linecap="round"/>
<path d="M621.93 51.9998L639.554 35.9999" stroke="url(#paint15_radial_1_251)" stroke-opacity="0.4" stroke-miterlimit="10" stroke-linecap="round"/>
<path d="M641.406 51.9998L659.031 35.9999" stroke="url(#paint16_linear_1_251)" stroke-miterlimit="10" stroke-linecap="round"/>
<path d="M641.406 51.9998L659.031 35.9999" stroke="url(#paint17_linear_1_251)" stroke-opacity="0.2" stroke-miterlimit="10" stroke-linecap="round"/>
<path d="M641.406 51.9998L659.031 35.9999" stroke="url(#paint18_radial_1_251)" stroke-opacity="0.4" stroke-miterlimit="10" stroke-linecap="round"/>
<path d="M660.891 51.9997L678.515 35.9998" stroke="url(#paint19_linear_1_251)" stroke-miterlimit="10" stroke-linecap="round"/>
<path d="M660.891 51.9997L678.515 35.9998" stroke="url(#paint20_linear_1_251)" stroke-opacity="0.2" stroke-miterlimit="10" stroke-linecap="round"/>
<path d="M660.891 51.9997L678.515 35.9998" stroke="url(#paint21_radial_1_251)" stroke-opacity="0.4" stroke-miterlimit="10" stroke-linecap="round"/>
<path d="M680.375 51.9997L698 35.9998" stroke="url(#paint22_linear_1_251)" stroke-miterlimit="10" stroke-linecap="round"/>
<path d="M680.375 51.9997L698 35.9998" stroke="url(#paint23_linear_1_251)" stroke-opacity="0.2" stroke-miterlimit="10" stroke-linecap="round"/>
<path d="M680.375 51.9997L698 35.9998" stroke="url(#paint24_radial_1_251)" stroke-opacity="0.4" stroke-miterlimit="10" stroke-linecap="round"/>
<defs>
<linearGradient id="paint0_linear_1_251" x1="701" y1="26.5009" x2="1.15831e-06" y2="26.5009" gradientUnits="userSpaceOnUse">
<stop stop-color="white" stop-opacity="0.9"/>
<stop offset="1" stop-color="white" stop-opacity="0.34"/>
</linearGradient>
<linearGradient id="paint1_linear_1_251" x1="544" y1="43.9998" x2="561.625" y2="43.9998" gradientUnits="userSpaceOnUse">
<stop stop-color="#018197"/>
<stop offset="1" stop-color="#22CF48"/>
</linearGradient>
<linearGradient id="paint2_linear_1_251" x1="554.824" y1="44.7998" x2="549.083" y2="37.625" gradientUnits="userSpaceOnUse">
<stop stop-color="#0265A5"/>
<stop offset="1" stop-color="#00FF66"/>
</linearGradient>
<radialGradient id="paint3_radial_1_251" cx="0" cy="0" r="1" gradientUnits="userSpaceOnUse" gradientTransform="translate(561.131 36.9832) rotate(-164.671) scale(7.95945 7.3321)">
<stop stop-color="#44D1F0"/>
<stop offset="1" stop-color="#4B84DA" stop-opacity="0.34"/>
</radialGradient>
<linearGradient id="paint4_linear_1_251" x1="563.477" y1="43.9998" x2="581.101" y2="43.9998" gradientUnits="userSpaceOnUse">
<stop stop-color="#018197"/>
<stop offset="1" stop-color="#22CF48"/>
</linearGradient>
<linearGradient id="paint5_linear_1_251" x1="574.301" y1="44.7998" x2="568.56" y2="37.625" gradientUnits="userSpaceOnUse">
<stop stop-color="#0265A5"/>
<stop offset="1" stop-color="#00FF66"/>
</linearGradient>
<radialGradient id="paint6_radial_1_251" cx="0" cy="0" r="1" gradientUnits="userSpaceOnUse" gradientTransform="translate(580.607 36.9832) rotate(-164.671) scale(7.95943 7.3321)">
<stop stop-color="#44D1F0"/>
<stop offset="1" stop-color="#4B84DA" stop-opacity="0.34"/>
</radialGradient>
<linearGradient id="paint7_linear_1_251" x1="582.969" y1="43.9998" x2="600.593" y2="43.9998" gradientUnits="userSpaceOnUse">
<stop stop-color="#018197"/>
<stop offset="1" stop-color="#22CF48"/>
</linearGradient>
<linearGradient id="paint8_linear_1_251" x1="593.793" y1="44.7998" x2="588.052" y2="37.625" gradientUnits="userSpaceOnUse">
<stop stop-color="#0265A5"/>
<stop offset="1" stop-color="#00FF66"/>
</linearGradient>
<radialGradient id="paint9_radial_1_251" cx="0" cy="0" r="1" gradientUnits="userSpaceOnUse" gradientTransform="translate(600.1 36.9832) rotate(-164.671) scale(7.95943 7.3321)">
<stop stop-color="#44D1F0"/>
<stop offset="1" stop-color="#4B84DA" stop-opacity="0.34"/>
</radialGradient>
<linearGradient id="paint10_linear_1_251" x1="602.445" y1="43.9998" x2="620.07" y2="43.9998" gradientUnits="userSpaceOnUse">
<stop stop-color="#018197"/>
<stop offset="1" stop-color="#22CF48"/>
</linearGradient>
<linearGradient id="paint11_linear_1_251" x1="613.27" y1="44.7998" x2="607.528" y2="37.625" gradientUnits="userSpaceOnUse">
<stop stop-color="#0265A5"/>
<stop offset="1" stop-color="#00FF66"/>
</linearGradient>
<radialGradient id="paint12_radial_1_251" cx="0" cy="0" r="1" gradientUnits="userSpaceOnUse" gradientTransform="translate(619.576 36.9832) rotate(-164.671) scale(7.95943 7.3321)">
<stop stop-color="#44D1F0"/>
<stop offset="1" stop-color="#4B84DA" stop-opacity="0.34"/>
</radialGradient>
<linearGradient id="paint13_linear_1_251" x1="621.93" y1="43.9998" x2="639.554" y2="43.9998" gradientUnits="userSpaceOnUse">
<stop stop-color="#018197"/>
<stop offset="1" stop-color="#22CF48"/>
</linearGradient>
<linearGradient id="paint14_linear_1_251" x1="632.754" y1="44.7998" x2="627.013" y2="37.625" gradientUnits="userSpaceOnUse">
<stop stop-color="#0265A5"/>
<stop offset="1" stop-color="#00FF66"/>
</linearGradient>
<radialGradient id="paint15_radial_1_251" cx="0" cy="0" r="1" gradientUnits="userSpaceOnUse" gradientTransform="translate(639.061 36.9832) rotate(-164.671) scale(7.95943 7.3321)">
<stop stop-color="#44D1F0"/>
<stop offset="1" stop-color="#4B84DA" stop-opacity="0.34"/>
</radialGradient>
<linearGradient id="paint16_linear_1_251" x1="641.406" y1="43.9998" x2="659.031" y2="43.9998" gradientUnits="userSpaceOnUse">
<stop stop-color="#018197"/>
<stop offset="1" stop-color="#22CF48"/>
</linearGradient>
<linearGradient id="paint17_linear_1_251" x1="652.231" y1="44.7998" x2="646.489" y2="37.625" gradientUnits="userSpaceOnUse">
<stop stop-color="#0265A5"/>
<stop offset="1" stop-color="#00FF66"/>
</linearGradient>
<radialGradient id="paint18_radial_1_251" cx="0" cy="0" r="1" gradientUnits="userSpaceOnUse" gradientTransform="translate(658.537 36.9832) rotate(-164.671) scale(7.95945 7.3321)">
<stop stop-color="#44D1F0"/>
<stop offset="1" stop-color="#4B84DA" stop-opacity="0.34"/>
</radialGradient>
<linearGradient id="paint19_linear_1_251" x1="660.891" y1="43.9997" x2="678.515" y2="43.9997" gradientUnits="userSpaceOnUse">
<stop stop-color="#018197"/>
<stop offset="1" stop-color="#22CF48"/>
</linearGradient>
<linearGradient id="paint20_linear_1_251" x1="671.715" y1="44.7997" x2="665.974" y2="37.6249" gradientUnits="userSpaceOnUse">
<stop stop-color="#0265A5"/>
<stop offset="1" stop-color="#00FF66"/>
</linearGradient>
<radialGradient id="paint21_radial_1_251" cx="0" cy="0" r="1" gradientUnits="userSpaceOnUse" gradientTransform="translate(678.022 36.9831) rotate(-164.671) scale(7.95945 7.3321)">
<stop stop-color="#44D1F0"/>
<stop offset="1" stop-color="#4B84DA" stop-opacity="0.34"/>
</radialGradient>
<linearGradient id="paint22_linear_1_251" x1="680.375" y1="43.9997" x2="698" y2="43.9997" gradientUnits="userSpaceOnUse">
<stop stop-color="#018197"/>
<stop offset="1" stop-color="#22CF48"/>
</linearGradient>
<linearGradient id="paint23_linear_1_251" x1="691.199" y1="44.7997" x2="685.458" y2="37.6249" gradientUnits="userSpaceOnUse">
<stop stop-color="#0265A5"/>
<stop offset="1" stop-color="#00FF66"/>
</linearGradient>
<radialGradient id="paint24_radial_1_251" cx="0" cy="0" r="1" gradientUnits="userSpaceOnUse" gradientTransform="translate(697.506 36.9831) rotate(-164.671) scale(7.95942 7.3321)">
<stop stop-color="#44D1F0"/>
<stop offset="1" stop-color="#4B84DA" stop-opacity="0.34"/>
</radialGradient>
</defs>
</svg>
