<svg width="569" height="820" viewBox="0 0 569 820" fill="none" xmlns="http://www.w3.org/2000/svg">
<g opacity="0.4">
<path fill-rule="evenodd" clip-rule="evenodd" d="M524.996 820C549.297 820 568.996 800.301 568.996 776L568.996 73.0002C568.996 48.6997 549.297 29.0002 524.996 29.0002L387.626 29.0002C375.814 29.0002 364.605 23.7852 356.996 14.7502C349.388 5.71511 338.179 0.50013 326.367 0.500129L242.626 0.500122C230.814 0.500121 219.605 5.7151 211.996 14.7501C204.388 23.7852 193.179 29.0002 181.367 29.0002L44.9964 29.0002C20.6959 29.0002 0.996401 48.6996 0.996399 73.0002L0.996338 776C0.996334 800.301 20.6958 820 44.9964 820L208.496 820C208.502 820 208.507 820 208.513 820C209.511 819.996 210.477 819.645 211.246 819.008L222.103 810.004C229.899 803.538 239.709 800 249.837 800H328.112C338.241 800 348.053 803.539 355.85 810.005L367.059 819.3C367.601 819.75 368.283 819.998 368.987 820C368.99 820 368.993 820 368.996 820H524.996Z" fill="url(#paint0_linear_1_385)"/>
<path fill-rule="evenodd" clip-rule="evenodd" d="M524.996 820C549.297 820 568.996 800.301 568.996 776L568.996 73.0002C568.996 48.6997 549.297 29.0002 524.996 29.0002L387.626 29.0002C375.814 29.0002 364.605 23.7852 356.996 14.7502C349.388 5.71511 338.179 0.50013 326.367 0.500129L242.626 0.500122C230.814 0.500121 219.605 5.7151 211.996 14.7501C204.388 23.7852 193.179 29.0002 181.367 29.0002L44.9964 29.0002C20.6959 29.0002 0.996401 48.6996 0.996399 73.0002L0.996338 776C0.996334 800.301 20.6958 820 44.9964 820L208.496 820C208.502 820 208.507 820 208.513 820C209.511 819.996 210.477 819.645 211.246 819.008L222.103 810.004C229.899 803.538 239.709 800 249.837 800H328.112C338.241 800 348.053 803.539 355.85 810.005L367.059 819.3C367.601 819.75 368.283 819.998 368.987 820C368.99 820 368.993 820 368.996 820H524.996Z" fill="url(#paint1_radial_1_385)" fill-opacity="0.5"/>
<path fill-rule="evenodd" clip-rule="evenodd" d="M524.996 820C549.297 820 568.996 800.301 568.996 776L568.996 73.0002C568.996 48.6997 549.297 29.0002 524.996 29.0002L387.626 29.0002C375.814 29.0002 364.605 23.7852 356.996 14.7502C349.388 5.71511 338.179 0.50013 326.367 0.500129L242.626 0.500122C230.814 0.500121 219.605 5.7151 211.996 14.7501C204.388 23.7852 193.179 29.0002 181.367 29.0002L44.9964 29.0002C20.6959 29.0002 0.996401 48.6996 0.996399 73.0002L0.996338 776C0.996334 800.301 20.6958 820 44.9964 820L208.496 820C208.502 820 208.507 820 208.513 820C209.511 819.996 210.477 819.645 211.246 819.008L222.103 810.004C229.899 803.538 239.709 800 249.837 800H328.112C338.241 800 348.053 803.539 355.85 810.005L367.059 819.3C367.601 819.75 368.283 819.998 368.987 820C368.99 820 368.993 820 368.996 820H524.996Z" fill="url(#paint2_radial_1_385)" fill-opacity="0.9"/>
</g>
<defs>
<linearGradient id="paint0_linear_1_385" x1="284.996" y1="0.500122" x2="284.996" y2="820" gradientUnits="userSpaceOnUse">
<stop stop-color="white" stop-opacity="0.9"/>
<stop offset="1" stop-color="white" stop-opacity="0"/>
</linearGradient>
<radialGradient id="paint1_radial_1_385" cx="0" cy="0" r="1" gradientUnits="userSpaceOnUse" gradientTransform="translate(550.165 -94.3352) rotate(106.173) scale(952.01 1083.82)">
<stop stop-color="#55C3E6"/>
<stop offset="0.0001" stop-color="#2B92DC"/>
<stop offset="1" stop-color="white" stop-opacity="0"/>
</radialGradient>
<radialGradient id="paint2_radial_1_385" cx="0" cy="0" r="1" gradientUnits="userSpaceOnUse" gradientTransform="translate(31.025 47.4023) rotate(57.7397) scale(947.927 1570.14)">
<stop stop-color="#66C195"/>
<stop offset="1" stop-color="white" stop-opacity="0"/>
</radialGradient>
</defs>
</svg>
