<svg width="646" height="820" viewBox="0 0 646 820" fill="none" xmlns="http://www.w3.org/2000/svg">
<g opacity="0.4">
<path fill-rule="evenodd" clip-rule="evenodd" d="M602 819.5C626.301 819.5 646 799.801 646 775.5L646 72.5001C646 48.1996 626.301 28.5001 602 28.5001L425.63 28.5001C413.818 28.5001 402.609 23.2851 395 14.25C387.392 5.21499 376.182 8.35348e-06 364.37 7.32085e-06L280.63 0C268.818 -1.03263e-06 257.609 5.21498 250 14.25C242.392 23.2851 231.182 28.5001 219.37 28.5001L44.0001 28.5C19.6995 28.5 6.35826e-05 48.1995 6.14582e-05 72.5L0 775.5C-3.8466e-06 799.801 19.6995 819.5 44 819.5L246.5 819.5C246.506 819.5 246.511 819.5 246.516 819.5C247.515 819.496 248.481 819.145 249.249 818.508L260.107 809.503C267.903 803.038 277.713 799.5 287.841 799.5H366.116C376.245 799.5 386.056 803.039 393.854 809.505L405.062 818.8C405.605 819.25 406.286 819.497 406.991 819.5C406.994 819.5 406.997 819.5 407 819.5H602Z" fill="url(#paint0_linear_1_882)"/>
<path fill-rule="evenodd" clip-rule="evenodd" d="M602 819.5C626.301 819.5 646 799.801 646 775.5L646 72.5001C646 48.1996 626.301 28.5001 602 28.5001L425.63 28.5001C413.818 28.5001 402.609 23.2851 395 14.25C387.392 5.21499 376.182 8.35348e-06 364.37 7.32085e-06L280.63 0C268.818 -1.03263e-06 257.609 5.21498 250 14.25C242.392 23.2851 231.182 28.5001 219.37 28.5001L44.0001 28.5C19.6995 28.5 6.35826e-05 48.1995 6.14582e-05 72.5L0 775.5C-3.8466e-06 799.801 19.6995 819.5 44 819.5L246.5 819.5C246.506 819.5 246.511 819.5 246.516 819.5C247.515 819.496 248.481 819.145 249.249 818.508L260.107 809.503C267.903 803.038 277.713 799.5 287.841 799.5H366.116C376.245 799.5 386.056 803.039 393.854 809.505L405.062 818.8C405.605 819.25 406.286 819.497 406.991 819.5C406.994 819.5 406.997 819.5 407 819.5H602Z" fill="url(#paint1_radial_1_882)" fill-opacity="0.5"/>
<path fill-rule="evenodd" clip-rule="evenodd" d="M602 819.5C626.301 819.5 646 799.801 646 775.5L646 72.5001C646 48.1996 626.301 28.5001 602 28.5001L425.63 28.5001C413.818 28.5001 402.609 23.2851 395 14.25C387.392 5.21499 376.182 8.35348e-06 364.37 7.32085e-06L280.63 0C268.818 -1.03263e-06 257.609 5.21498 250 14.25C242.392 23.2851 231.182 28.5001 219.37 28.5001L44.0001 28.5C19.6995 28.5 6.35826e-05 48.1995 6.14582e-05 72.5L0 775.5C-3.8466e-06 799.801 19.6995 819.5 44 819.5L246.5 819.5C246.506 819.5 246.511 819.5 246.516 819.5C247.515 819.496 248.481 819.145 249.249 818.508L260.107 809.503C267.903 803.038 277.713 799.5 287.841 799.5H366.116C376.245 799.5 386.056 803.039 393.854 809.505L405.062 818.8C405.605 819.25 406.286 819.497 406.991 819.5C406.994 819.5 406.997 819.5 407 819.5H602Z" fill="url(#paint2_radial_1_882)" fill-opacity="0.9"/>
</g>
<defs>
<linearGradient id="paint0_linear_1_882" x1="323" y1="0" x2="323" y2="819.5" gradientUnits="userSpaceOnUse">
<stop stop-color="white" stop-opacity="0.9"/>
<stop offset="1" stop-color="white" stop-opacity="0"/>
</linearGradient>
<radialGradient id="paint1_radial_1_882" cx="0" cy="0" r="1" gradientUnits="userSpaceOnUse" gradientTransform="translate(624.582 -94.8353) rotate(108.255) scale(962.788 1218.86)">
<stop stop-color="#55C3E6"/>
<stop offset="0.0001" stop-color="#2B92DC"/>
<stop offset="1" stop-color="white" stop-opacity="0"/>
</radialGradient>
<radialGradient id="paint2_radial_1_882" cx="0" cy="0" r="1" gradientUnits="userSpaceOnUse" gradientTransform="translate(34.1523 46.9022) rotate(54.3261) scale(986.765 1715.47)">
<stop stop-color="#66C195"/>
<stop offset="1" stop-color="white" stop-opacity="0"/>
</radialGradient>
</defs>
</svg>
