<svg width="347" height="50" viewBox="0 0 347 50" fill="none" xmlns="http://www.w3.org/2000/svg">
<path opacity="0.4" fill-rule="evenodd" clip-rule="evenodd" d="M9 5.00037C9 7.20951 7.20914 9.00037 5 9.00037C2.79086 9.00037 0.999998 7.20951 0.999998 5.00037C0.999998 2.79123 2.79086 1.00037 5 1.00037C7.20914 1.00037 9 2.79123 9 5.00037ZM9.08859 7.87918C9.66275 7.06523 10 6.07218 10 5.00037C10 2.23894 7.76142 0.000365873 5 0.000365993C2.23857 0.000366113 -2.17083e-06 2.23894 -1.92844e-06 5.00037C-1.68604e-06 7.76179 2.23857 10.0004 5 10.0004C6.32881 10.0004 7.53655 9.48201 8.43204 8.63646L38.5576 38.5269L38.5578 38.5271C45.3178 45.2265 54.4959 49.0023 64.0708 49.0023L179.73 49.0023C189.305 49.0023 198.483 45.2265 205.243 38.5271L214.883 28.9739C221.455 22.4608 230.38 18.7884 239.692 18.7884L336.508 18.7884C336.657 21.4158 338.835 23.5004 341.5 23.5004C344.261 23.5004 346.5 21.2618 346.5 18.5004C346.5 15.7389 344.261 13.5004 341.5 13.5004C338.98 13.5004 336.896 15.3642 336.55 17.7884L239.692 17.7884C230.117 17.7884 220.939 21.5643 214.179 28.2637L204.539 37.8168C197.967 44.3299 189.042 48.0023 179.73 48.0023L64.0708 48.0023C54.7586 48.0023 45.8338 44.3299 39.2617 37.8168L9.08859 7.87918ZM337.5 18.5004C337.5 20.7095 339.291 22.5004 341.5 22.5004C343.709 22.5004 345.5 20.7095 345.5 18.5004C345.5 16.2912 343.709 14.5004 341.5 14.5004C339.291 14.5004 337.5 16.2912 337.5 18.5004Z" fill="url(#paint0_linear_1_1613)"/>
<path d="M218.5 40.0511L231.776 28.0512" stroke="url(#paint1_linear_1_1613)" stroke-miterlimit="10" stroke-linecap="round"/>
<path d="M218.5 40.0511L231.776 28.0512" stroke="url(#paint2_linear_1_1613)" stroke-opacity="0.2" stroke-miterlimit="10" stroke-linecap="round"/>
<path d="M218.5 40.0511L231.776 28.0512" stroke="url(#paint3_radial_1_1613)" stroke-opacity="0.4" stroke-miterlimit="10" stroke-linecap="round"/>
<path d="M233.168 40.0511L246.444 28.0512" stroke="url(#paint4_linear_1_1613)" stroke-miterlimit="10" stroke-linecap="round"/>
<path d="M233.168 40.0511L246.444 28.0512" stroke="url(#paint5_linear_1_1613)" stroke-opacity="0.2" stroke-miterlimit="10" stroke-linecap="round"/>
<path d="M233.168 40.0511L246.444 28.0512" stroke="url(#paint6_radial_1_1613)" stroke-opacity="0.4" stroke-miterlimit="10" stroke-linecap="round"/>
<path d="M247.855 40.0511L261.131 28.0512" stroke="url(#paint7_linear_1_1613)" stroke-miterlimit="10" stroke-linecap="round"/>
<path d="M247.855 40.0511L261.131 28.0512" stroke="url(#paint8_linear_1_1613)" stroke-opacity="0.2" stroke-miterlimit="10" stroke-linecap="round"/>
<path d="M247.855 40.0511L261.131 28.0512" stroke="url(#paint9_radial_1_1613)" stroke-opacity="0.4" stroke-miterlimit="10" stroke-linecap="round"/>
<path d="M262.523 40.0511L275.799 28.0512" stroke="url(#paint10_linear_1_1613)" stroke-miterlimit="10" stroke-linecap="round"/>
<path d="M262.523 40.0511L275.799 28.0512" stroke="url(#paint11_linear_1_1613)" stroke-opacity="0.2" stroke-miterlimit="10" stroke-linecap="round"/>
<path d="M262.523 40.0511L275.799 28.0512" stroke="url(#paint12_radial_1_1613)" stroke-opacity="0.4" stroke-miterlimit="10" stroke-linecap="round"/>
<path d="M277.203 40.0511L290.479 28.0512" stroke="url(#paint13_linear_1_1613)" stroke-miterlimit="10" stroke-linecap="round"/>
<path d="M277.203 40.0511L290.479 28.0512" stroke="url(#paint14_linear_1_1613)" stroke-opacity="0.2" stroke-miterlimit="10" stroke-linecap="round"/>
<path d="M277.203 40.0511L290.479 28.0512" stroke="url(#paint15_radial_1_1613)" stroke-opacity="0.4" stroke-miterlimit="10" stroke-linecap="round"/>
<path d="M291.871 40.0511L305.147 28.0512" stroke="url(#paint16_linear_1_1613)" stroke-miterlimit="10" stroke-linecap="round"/>
<path d="M291.871 40.0511L305.147 28.0512" stroke="url(#paint17_linear_1_1613)" stroke-opacity="0.2" stroke-miterlimit="10" stroke-linecap="round"/>
<path d="M291.871 40.0511L305.147 28.0512" stroke="url(#paint18_radial_1_1613)" stroke-opacity="0.4" stroke-miterlimit="10" stroke-linecap="round"/>
<path d="M306.547 40.0511L319.823 28.0512" stroke="url(#paint19_linear_1_1613)" stroke-miterlimit="10" stroke-linecap="round"/>
<path d="M306.547 40.0511L319.823 28.0512" stroke="url(#paint20_linear_1_1613)" stroke-opacity="0.2" stroke-miterlimit="10" stroke-linecap="round"/>
<path d="M306.547 40.0511L319.823 28.0512" stroke="url(#paint21_radial_1_1613)" stroke-opacity="0.4" stroke-miterlimit="10" stroke-linecap="round"/>
<path d="M321.227 40.0511L334.502 28.0512" stroke="url(#paint22_linear_1_1613)" stroke-miterlimit="10" stroke-linecap="round"/>
<path d="M321.227 40.0511L334.502 28.0512" stroke="url(#paint23_linear_1_1613)" stroke-opacity="0.2" stroke-miterlimit="10" stroke-linecap="round"/>
<path d="M321.227 40.0511L334.502 28.0512" stroke="url(#paint24_radial_1_1613)" stroke-opacity="0.4" stroke-miterlimit="10" stroke-linecap="round"/>
<defs>
<linearGradient id="paint0_linear_1_1613" x1="-1.07378e-06" y1="24.5013" x2="346.5" y2="24.5013" gradientUnits="userSpaceOnUse">
<stop stop-color="white" stop-opacity="0.9"/>
<stop offset="1" stop-color="white" stop-opacity="0.34"/>
</linearGradient>
<linearGradient id="paint1_linear_1_1613" x1="218.5" y1="34.0511" x2="231.776" y2="34.0511" gradientUnits="userSpaceOnUse">
<stop stop-color="#018197"/>
<stop offset="1" stop-color="#22CF48"/>
</linearGradient>
<linearGradient id="paint2_linear_1_1613" x1="226.653" y1="34.6511" x2="222.352" y2="29.2519" gradientUnits="userSpaceOnUse">
<stop stop-color="#0265A5"/>
<stop offset="1" stop-color="#00FF66"/>
</linearGradient>
<radialGradient id="paint3_radial_1_1613" cx="0" cy="0" r="1" gradientUnits="userSpaceOnUse" gradientTransform="translate(231.404 28.7887) rotate(-164.734) scale(5.99365 5.50077)">
<stop stop-color="#44D1F0"/>
<stop offset="1" stop-color="#4B84DA" stop-opacity="0.34"/>
</radialGradient>
<linearGradient id="paint4_linear_1_1613" x1="233.168" y1="34.0511" x2="246.444" y2="34.0511" gradientUnits="userSpaceOnUse">
<stop stop-color="#018197"/>
<stop offset="1" stop-color="#22CF48"/>
</linearGradient>
<linearGradient id="paint5_linear_1_1613" x1="241.321" y1="34.6511" x2="237.02" y2="29.2519" gradientUnits="userSpaceOnUse">
<stop stop-color="#0265A5"/>
<stop offset="1" stop-color="#00FF66"/>
</linearGradient>
<radialGradient id="paint6_radial_1_1613" cx="0" cy="0" r="1" gradientUnits="userSpaceOnUse" gradientTransform="translate(246.072 28.7887) rotate(-164.734) scale(5.99363 5.50076)">
<stop stop-color="#44D1F0"/>
<stop offset="1" stop-color="#4B84DA" stop-opacity="0.34"/>
</radialGradient>
<linearGradient id="paint7_linear_1_1613" x1="247.855" y1="34.0511" x2="261.131" y2="34.0511" gradientUnits="userSpaceOnUse">
<stop stop-color="#018197"/>
<stop offset="1" stop-color="#22CF48"/>
</linearGradient>
<linearGradient id="paint8_linear_1_1613" x1="256.009" y1="34.6511" x2="251.707" y2="29.2519" gradientUnits="userSpaceOnUse">
<stop stop-color="#0265A5"/>
<stop offset="1" stop-color="#00FF66"/>
</linearGradient>
<radialGradient id="paint9_radial_1_1613" cx="0" cy="0" r="1" gradientUnits="userSpaceOnUse" gradientTransform="translate(260.759 28.7887) rotate(-164.734) scale(5.99363 5.50076)">
<stop stop-color="#44D1F0"/>
<stop offset="1" stop-color="#4B84DA" stop-opacity="0.34"/>
</radialGradient>
<linearGradient id="paint10_linear_1_1613" x1="262.523" y1="34.0511" x2="275.799" y2="34.0511" gradientUnits="userSpaceOnUse">
<stop stop-color="#018197"/>
<stop offset="1" stop-color="#22CF48"/>
</linearGradient>
<linearGradient id="paint11_linear_1_1613" x1="270.677" y1="34.6511" x2="266.375" y2="29.2519" gradientUnits="userSpaceOnUse">
<stop stop-color="#0265A5"/>
<stop offset="1" stop-color="#00FF66"/>
</linearGradient>
<radialGradient id="paint12_radial_1_1613" cx="0" cy="0" r="1" gradientUnits="userSpaceOnUse" gradientTransform="translate(275.427 28.7887) rotate(-164.734) scale(5.99363 5.50076)">
<stop stop-color="#44D1F0"/>
<stop offset="1" stop-color="#4B84DA" stop-opacity="0.34"/>
</radialGradient>
<linearGradient id="paint13_linear_1_1613" x1="277.203" y1="34.0511" x2="290.479" y2="34.0511" gradientUnits="userSpaceOnUse">
<stop stop-color="#018197"/>
<stop offset="1" stop-color="#22CF48"/>
</linearGradient>
<linearGradient id="paint14_linear_1_1613" x1="285.357" y1="34.6511" x2="281.055" y2="29.2519" gradientUnits="userSpaceOnUse">
<stop stop-color="#0265A5"/>
<stop offset="1" stop-color="#00FF66"/>
</linearGradient>
<radialGradient id="paint15_radial_1_1613" cx="0" cy="0" r="1" gradientUnits="userSpaceOnUse" gradientTransform="translate(290.107 28.7887) rotate(-164.734) scale(5.99363 5.50076)">
<stop stop-color="#44D1F0"/>
<stop offset="1" stop-color="#4B84DA" stop-opacity="0.34"/>
</radialGradient>
<linearGradient id="paint16_linear_1_1613" x1="291.871" y1="34.0511" x2="305.147" y2="34.0511" gradientUnits="userSpaceOnUse">
<stop stop-color="#018197"/>
<stop offset="1" stop-color="#22CF48"/>
</linearGradient>
<linearGradient id="paint17_linear_1_1613" x1="300.024" y1="34.6511" x2="295.723" y2="29.2519" gradientUnits="userSpaceOnUse">
<stop stop-color="#0265A5"/>
<stop offset="1" stop-color="#00FF66"/>
</linearGradient>
<radialGradient id="paint18_radial_1_1613" cx="0" cy="0" r="1" gradientUnits="userSpaceOnUse" gradientTransform="translate(304.775 28.7887) rotate(-164.734) scale(5.99365 5.50077)">
<stop stop-color="#44D1F0"/>
<stop offset="1" stop-color="#4B84DA" stop-opacity="0.34"/>
</radialGradient>
<linearGradient id="paint19_linear_1_1613" x1="306.547" y1="34.0511" x2="319.823" y2="34.0511" gradientUnits="userSpaceOnUse">
<stop stop-color="#018197"/>
<stop offset="1" stop-color="#22CF48"/>
</linearGradient>
<linearGradient id="paint20_linear_1_1613" x1="314.7" y1="34.6511" x2="310.398" y2="29.2519" gradientUnits="userSpaceOnUse">
<stop stop-color="#0265A5"/>
<stop offset="1" stop-color="#00FF66"/>
</linearGradient>
<radialGradient id="paint21_radial_1_1613" cx="0" cy="0" r="1" gradientUnits="userSpaceOnUse" gradientTransform="translate(319.451 28.7887) rotate(-164.734) scale(5.99365 5.50077)">
<stop stop-color="#44D1F0"/>
<stop offset="1" stop-color="#4B84DA" stop-opacity="0.34"/>
</radialGradient>
<linearGradient id="paint22_linear_1_1613" x1="321.227" y1="34.0511" x2="334.502" y2="34.0511" gradientUnits="userSpaceOnUse">
<stop stop-color="#018197"/>
<stop offset="1" stop-color="#22CF48"/>
</linearGradient>
<linearGradient id="paint23_linear_1_1613" x1="329.38" y1="34.6511" x2="325.078" y2="29.2519" gradientUnits="userSpaceOnUse">
<stop stop-color="#0265A5"/>
<stop offset="1" stop-color="#00FF66"/>
</linearGradient>
<radialGradient id="paint24_radial_1_1613" cx="0" cy="0" r="1" gradientUnits="userSpaceOnUse" gradientTransform="translate(334.13 28.7887) rotate(-164.734) scale(5.99362 5.50076)">
<stop stop-color="#44D1F0"/>
<stop offset="1" stop-color="#4B84DA" stop-opacity="0.34"/>
</radialGradient>
</defs>
</svg>
