<svg width="1366" height="326" viewBox="0 0 1366 326" fill="none" xmlns="http://www.w3.org/2000/svg">
<path opacity="0.4" fill-rule="evenodd" clip-rule="evenodd" d="M1306.5 45L1306.5 48.002V218V281.002C1306.5 305.579 1286.58 325.502 1262 325.502H935C910.423 325.502 890.5 305.579 890.5 281.002V216.975V49.027V45.0001C890.5 20.9757 871.024 1.50005 847 1.50004L520 1.5C495.976 1.5 476.5 20.9756 476.5 45L476.5 48L476.5 218L476.5 280C476.5 304.577 456.577 324.5 432 324.5H104C79.4233 324.5 59.5001 304.577 59.5001 280V217L59.5 49.0251L59.5001 45.0001C59.5001 20.9757 40.0245 1.50009 16.0001 1.50009L-539 1.50004L-539 0.500042L16.0001 0.500091C40.5767 0.500093 60.5001 20.4234 60.5001 45.0001L60.5 49.0251L60.5001 217V280C60.5001 304.024 79.9756 323.5 104 323.5H432C456.024 323.5 475.5 304.024 475.5 280L475.5 218L475.5 48L475.5 45C475.5 20.4233 495.423 0.500002 520 0.500005L847 0.500043C871.577 0.500046 891.5 20.4234 891.5 45.0001V49.027V216.975V281.002C891.5 305.026 910.976 324.502 935 324.502H1262C1286.02 324.502 1305.5 305.026 1305.5 281.002V218V48.002L1305.5 45C1305.5 20.4233 1325.42 0.499998 1350 0.5L1906 0.500049V1.50005L1350 1.5C1325.98 1.5 1306.5 20.9756 1306.5 45Z" fill="url(#paint0_linear_1_1183)"/>
<defs>
<linearGradient id="paint0_linear_1_1183" x1="683.5" y1="0.5" x2="683.5" y2="325.502" gradientUnits="userSpaceOnUse">
<stop stop-color="white" stop-opacity="0.9"/>
<stop offset="1" stop-color="white" stop-opacity="0.34"/>
</linearGradient>
</defs>
</svg>
