<svg width="384" height="820" viewBox="0 0 384 820" fill="none" xmlns="http://www.w3.org/2000/svg">
<g opacity="0.4">
<path fill-rule="evenodd" clip-rule="evenodd" d="M340 820C364.301 820 384 800.3 384 776L384 73C384 48.6994 364.301 29 340 29L293.63 29C281.818 29 270.609 23.785 263 14.7499C255.392 5.71487 244.182 0.499886 232.37 0.499885L148.63 0.499878C136.818 0.499877 125.609 5.71485 118 14.7499C110.392 23.785 99.1823 28.9999 87.3704 28.9999L44.0001 28.9999C19.6995 28.9999 6.35826e-05 48.6994 6.14582e-05 72.9999L0 776C-3.8466e-06 800.3 19.6995 820 44 820L114.5 820C114.506 820 114.512 820 114.518 820C115.516 819.995 116.481 819.645 117.249 819.007L128.107 810.003C135.903 803.538 145.713 800 155.841 800H234.116C244.245 800 254.056 803.539 261.854 810.005L273.062 819.3C273.605 819.75 274.288 819.998 274.993 820C274.995 820 274.998 820 275 820H340Z" fill="url(#paint0_linear_1_1080)"/>
<path fill-rule="evenodd" clip-rule="evenodd" d="M340 820C364.301 820 384 800.3 384 776L384 73C384 48.6994 364.301 29 340 29L293.63 29C281.818 29 270.609 23.785 263 14.7499C255.392 5.71487 244.182 0.499886 232.37 0.499885L148.63 0.499878C136.818 0.499877 125.609 5.71485 118 14.7499C110.392 23.785 99.1823 28.9999 87.3704 28.9999L44.0001 28.9999C19.6995 28.9999 6.35826e-05 48.6994 6.14582e-05 72.9999L0 776C-3.8466e-06 800.3 19.6995 820 44 820L114.5 820C114.506 820 114.512 820 114.518 820C115.516 819.995 116.481 819.645 117.249 819.007L128.107 810.003C135.903 803.538 145.713 800 155.841 800H234.116C244.245 800 254.056 803.539 261.854 810.005L273.062 819.3C273.605 819.75 274.288 819.998 274.993 820C274.995 820 274.998 820 275 820H340Z" fill="url(#paint1_radial_1_1080)" fill-opacity="0.5"/>
<path fill-rule="evenodd" clip-rule="evenodd" d="M340 820C364.301 820 384 800.3 384 776L384 73C384 48.6994 364.301 29 340 29L293.63 29C281.818 29 270.609 23.785 263 14.7499C255.392 5.71487 244.182 0.499886 232.37 0.499885L148.63 0.499878C136.818 0.499877 125.609 5.71485 118 14.7499C110.392 23.785 99.1823 28.9999 87.3704 28.9999L44.0001 28.9999C19.6995 28.9999 6.35826e-05 48.6994 6.14582e-05 72.9999L0 776C-3.8466e-06 800.3 19.6995 820 44 820L114.5 820C114.506 820 114.512 820 114.518 820C115.516 819.995 116.481 819.645 117.249 819.007L128.107 810.003C135.903 803.538 145.713 800 155.841 800H234.116C244.245 800 254.056 803.539 261.854 810.005L273.062 819.3C273.605 819.75 274.288 819.998 274.993 820C274.995 820 274.998 820 275 820H340Z" fill="url(#paint2_radial_1_1080)" fill-opacity="0.9"/>
</g>
<defs>
<linearGradient id="paint0_linear_1_1080" x1="192" y1="0.499878" x2="192" y2="820" gradientUnits="userSpaceOnUse">
<stop stop-color="white" stop-opacity="0.9"/>
<stop offset="1" stop-color="white" stop-opacity="0"/>
</linearGradient>
<radialGradient id="paint1_radial_1_1080" cx="0" cy="0" r="1" gradientUnits="userSpaceOnUse" gradientTransform="translate(371.269 -94.3354) rotate(101.093) scale(931.744 748.661)">
<stop stop-color="#55C3E6"/>
<stop offset="0.0001" stop-color="#2B92DC"/>
<stop offset="1" stop-color="white" stop-opacity="0"/>
</radialGradient>
<radialGradient id="paint2_radial_1_1080" cx="0" cy="0" r="1" gradientUnits="userSpaceOnUse" gradientTransform="translate(20.3011 47.402) rotate(66.8906) scale(871.532 1154.55)">
<stop stop-color="#66C195"/>
<stop offset="1" stop-color="white" stop-opacity="0"/>
</radialGradient>
</defs>
</svg>
