<svg width="345" height="399" viewBox="0 0 345 399" fill="none" xmlns="http://www.w3.org/2000/svg">
<path opacity="0.4" fill-rule="evenodd" clip-rule="evenodd" d="M-0.499976 0.000366211H2.34842e-05H319.5C333.031 0.000364283 344 10.9694 344 24.5004V108.5C344 122.031 333.031 133 319.5 133L127.525 133H127.025V133L40.0019 133C27.0232 133 16.5019 143.522 16.5019 156.5L16.5019 240.5C16.5019 253.479 27.0232 264 40.0019 264H180.004H180.504L320 264C333.531 264 344.5 274.969 344.5 288.5V374.496C344.5 388.027 333.531 398.996 320 398.996L3.57628e-07 398.996H-0.5V397.996H3.57628e-07L320 397.996C332.979 397.996 343.5 387.475 343.5 374.496V288.5C343.5 275.522 332.979 265 320 265L180.504 265H180.004L80.5 265H80L40.0019 265C26.4709 265 15.5019 254.031 15.5019 240.5L15.5019 156.5C15.5019 142.969 26.4709 132 40.0019 132L180 132H180.5V132L319.5 132C332.479 132 343 121.479 343 108.5V24.5004C343 11.5217 332.479 1.00036 319.5 1.00037L2.34842e-05 1.00037H-0.499977L-0.499976 0.000366211Z" fill="url(#paint0_linear_1_1570)"/>
<defs>
<linearGradient id="paint0_linear_1_1570" x1="172" y1="0.000366211" x2="172" y2="398.996" gradientUnits="userSpaceOnUse">
<stop stop-color="white" stop-opacity="0.9"/>
<stop offset="1" stop-color="white" stop-opacity="0.34"/>
</linearGradient>
</defs>
</svg>
