<svg width="1920" height="276" viewBox="0 0 1920 276" fill="none" xmlns="http://www.w3.org/2000/svg">
<path opacity="0.4" fill-rule="evenodd" clip-rule="evenodd" d="M59.5001 44.9996V49.027V216.975V230.002C59.5001 254.579 79.4234 274.502 104 274.502H616C640.577 274.502 660.5 254.579 660.5 230.002L660.5 218.002L660.5 48.002L660.5 45.0019C660.5 20.9775 679.976 1.50188 704 1.50188L1216 1.50194C1240.02 1.50194 1259.5 20.9776 1259.5 45.002V49.027V216.977V231.002C1259.5 255.579 1279.42 275.502 1304 275.502H1816C1840.58 275.502 1860.5 255.579 1860.5 231.002V218.023V48.002V45.0001C1860.5 20.9757 1879.98 1.50015 1904 1.50016L2460 1.50021V0.500205L1904 0.500156C1879.42 0.500154 1859.5 20.4234 1859.5 45.0001V48.002V218.023V231.002C1859.5 255.026 1840.02 274.502 1816 274.502H1304C1279.98 274.502 1260.5 255.026 1260.5 231.002V216.977V49.027V45.002C1260.5 20.4253 1240.58 0.501942 1216 0.501939L704 0.501879C679.423 0.501876 659.5 20.4252 659.5 45.0019L659.5 48.002L659.5 218.002L659.5 230.002C659.5 254.026 640.025 273.502 616 273.502H104C79.9757 273.502 60.5001 254.026 60.5001 230.002V216.975V49.027V44.9996C60.5001 20.423 40.5767 0.499624 16.0001 0.499621L-540 0.499573L-540 1.49957L16.0001 1.49962C40.0245 1.49962 59.5001 20.9752 59.5001 44.9996Z" fill="url(#paint0_linear_1_197)"/>
<defs>
<linearGradient id="paint0_linear_1_197" x1="960" y1="0.499573" x2="960" y2="275.502" gradientUnits="userSpaceOnUse">
<stop stop-color="white" stop-opacity="0.9"/>
<stop offset="1" stop-color="white" stop-opacity="0.34"/>
</linearGradient>
</defs>
</svg>
