<svg width="16" height="18" viewBox="0 0 16 18" fill="none" xmlns="http://www.w3.org/2000/svg">
  <path d="M12 15.7753C13.1046 15.7753 14 14.8393 14 13.6845C14 12.5298 13.1046 11.5938 12 11.5938C10.8954 11.5938 10 12.5298 10 13.6845C10 14.8393 10.8954 15.7753 12 15.7753Z" stroke="#323F5F" stroke-width="0.5" stroke-linecap="round" stroke-linejoin="round"/>
  <path d="M4 10.8964C5.10457 10.8964 6 9.96035 6 8.80564C6 7.65092 5.10457 6.71484 4 6.71484C2.89543 6.71484 2 7.65092 2 8.80564C2 9.96035 2.89543 10.8964 4 10.8964Z" stroke="#323F5F" stroke-width="0.5" stroke-linecap="round" stroke-linejoin="round"/>
  <path d="M5.72656 9.85547L10.2799 12.6293" stroke="#323F5F" stroke-width="0.5" stroke-linecap="round" stroke-linejoin="round"/>
  <path d="M12 6.01753C13.1046 6.01753 14 5.08145 14 3.92673C14 2.77202 13.1046 1.83594 12 1.83594C10.8954 1.83594 10 2.77202 10 3.92673C10 5.08145 10.8954 6.01753 12 6.01753Z" stroke="#323F5F" stroke-width="0.5" stroke-linecap="round" stroke-linejoin="round"/>
  <path d="M10.2732 4.97656L5.72656 7.75035" stroke="#323F5F" stroke-width="0.5" stroke-linecap="round" stroke-linejoin="round"/>
</svg>