<svg width="16" height="18" viewBox="0 0 16 18" fill="none" xmlns="http://www.w3.org/2000/svg">
  <path d="M13.8921 3.65458C13.5516 3.29845 13.1473 3.01595 12.7023 2.8232C12.2574 2.63046 11.7804 2.53125 11.2988 2.53125C10.8171 2.53125 10.3402 2.63046 9.89521 2.8232C9.45023 3.01595 9.04595 3.29845 8.70544 3.65458L7.99878 4.39333L7.29211 3.65458C6.60432 2.93556 5.67147 2.53162 4.69878 2.53162C3.72609 2.53162 2.79324 2.93556 2.10544 3.65458C1.41765 4.3736 1.03125 5.3488 1.03125 6.36565C1.03125 7.38249 1.41765 8.35769 2.10544 9.07671L2.81211 9.81546L7.99878 15.2376L13.1854 9.81546L13.8921 9.07671C14.2328 8.72075 14.503 8.29811 14.6874 7.83293C14.8718 7.36776 14.9667 6.86917 14.9667 6.36565C14.9667 5.86212 14.8718 5.36353 14.6874 4.89836C14.503 4.43318 14.2328 4.01054 13.8921 3.65458V3.65458Z" stroke="#323F5F" stroke-width="0.5" stroke-linecap="round" stroke-linejoin="round"/>
</svg>