								<svg width="60" height="60" viewBox="0 0 60 60" fill="none" xmlns="http://www.w3.org/2000/svg">
									<g clip-path="url(#clip0_4332_146)">
									<g filter="url(#filter0_f_4332_146)">
									<path d="M10.9314 22.6522C8.80554 22.957 7.95966 25.5561 9.4956 27.0524L17.1196 34.4509C17.7318 35.0439 18.01 35.8973 17.8654 36.7342L16.0679 47.1807C15.7785 48.8488 17.1085 50.201 18.6166 50.201C19.0173 50.201 19.4236 50.1068 19.8242 49.9017L29.2458 44.9694C29.6242 44.7699 30.036 44.6757 30.4478 44.6757C30.8596 44.6757 31.277 44.7755 31.6498 44.9694L41.0714 49.9017C41.4665 50.1068 41.8783 50.201 42.279 50.201C43.7871 50.201 45.1171 48.8488 44.8278 47.1807L43.0303 36.7342C42.8856 35.8973 43.1638 35.0439 43.776 34.4509L51.4 27.0524C52.9359 25.5617 52.0901 22.9625 49.9642 22.6522C35.9835 20.6296 24.8126 20.644 10.9314 22.6522Z" fill="#070917"/>
									</g>
									<path d="M30.4478 4.77344C29.524 4.77344 28.6002 5.25004 28.1272 6.20879L23.4137 15.7132C23.0352 16.4724 22.3062 16.9989 21.4659 17.1264L10.9314 18.6504C8.80554 18.9552 7.95966 21.5543 9.4956 23.0507L17.1196 30.4491C17.7318 31.0421 18.01 31.8955 17.8654 32.7324L16.0679 43.1789C15.7785 44.847 17.1085 46.1992 18.6166 46.1992C19.0173 46.1992 19.4236 46.105 19.8242 45.9L29.2458 40.9677C29.6242 40.7682 30.036 40.6739 30.4478 40.6739C30.8596 40.6739 31.277 40.7737 31.6498 40.9677L41.0714 45.9C41.4665 46.105 41.8783 46.1992 42.279 46.1992C43.7871 46.1992 45.1171 44.847 44.8278 43.1789L43.0303 32.7324C42.8856 31.8955 43.1638 31.0421 43.776 30.4491L51.4 23.0507C52.9359 21.5599 52.0901 18.9607 49.9642 18.6504L39.4297 17.1264C38.5838 17.0044 37.8548 16.478 37.482 15.7132L32.7684 6.20879C32.2954 5.25004 31.3716 4.77344 30.4478 4.77344Z" fill="#EFF6FF"/>
									<mask id="mask0_4332_146" style="mask-type:alpha" maskUnits="userSpaceOnUse" x="8" y="4" width="45" height="43">
									<path d="M30.4478 4.77344C29.524 4.77344 28.6002 5.25004 28.1272 6.20879L23.4137 15.7132C23.0352 16.4724 22.3062 16.9989 21.4659 17.1264L10.9314 18.6504C8.80554 18.9552 7.95966 21.5543 9.4956 23.0507L17.1196 30.4491C17.7318 31.0421 18.01 31.8955 17.8654 32.7324L16.0679 43.1789C15.7785 44.847 17.1085 46.1992 18.6166 46.1992C19.0173 46.1992 19.4236 46.105 19.8242 45.9L29.2458 40.9677C29.6242 40.7682 30.036 40.6739 30.4478 40.6739C30.8596 40.6739 31.277 40.7737 31.6498 40.9677L41.0714 45.9C41.4665 46.105 41.8783 46.1992 42.279 46.1992C43.7871 46.1992 45.1171 44.847 44.8278 43.1789L43.0303 32.7324C42.8856 31.8955 43.1638 31.0421 43.776 30.4491L51.4 23.0507C52.9359 21.5599 52.0901 18.9607 49.9642 18.6504L39.4297 17.1264C38.5838 17.0044 37.8548 16.478 37.482 15.7132L32.7684 6.20879C32.2954 5.25004 31.3716 4.77344 30.4478 4.77344Z" fill="#F1F7FF"/>
									</mask>
									<g mask="url(#mask0_4332_146)">
									<g filter="url(#filter1_f_4332_146)">
									<path d="M41.0331 18.3394C34.0282 18.3394 30.024 6 30.024 6C30.024 6 25.0206 21 19.0148 18.3394C19.0148 6.00169 18.0478 -4 30.024 -4C42.0001 -4 41.0331 6.00169 41.0331 18.3394Z" fill="#8EB0E8"/>
									</g>
									<g filter="url(#filter2_f_4332_146)">
									<path d="M13.0087 33.9992C20.2764 24.0248 19.0151 44.5008 19.0151 44.5008C19.0151 44.5008 36.2915 34.5264 29.0238 44.5008C21.7562 54.4752 21.5983 59.3537 11.9162 52.3108C2.23412 45.2679 5.74105 43.9736 13.0087 33.9992Z" fill="#8EB0E8"/>
									</g>
									<g filter="url(#filter3_f_4332_146)">
									<path d="M45.5823 27.7771C38.5332 25 42.5365 44 42.5365 44C42.5365 44 25.5223 35.5 27.7816 40.7257C35.0493 50.7 40.1591 59.3545 49.8412 52.3116C59.5233 45.2687 52.8499 37.7515 45.5823 27.7771Z" fill="#8EB0E8"/>
									</g>
									<g filter="url(#filter4_f_4332_146)">
									<path d="M17.5147 15C30.1859 23.4796 8.0068 21.0001 8.0068 21.0001C8.0068 21.0001 28.3615 32.5 16.0135 32.5C3.66547 32.5 -4.84375 35.9867 -4.84375 24.0205C-4.84375 12.0543 5.16672 15 17.5147 15Z" fill="#86ACEC"/>
									</g>
									<g filter="url(#filter5_f_4332_146)">
									<path d="M42.0341 34C38.8709 28.4813 53.0433 20.5 53.0433 20.5C53.0433 20.5 30.0241 20 39.6927 13.0187C52.0407 13.0187 62.0508 12.0525 62.0508 24.0187C62.0508 35.9848 54.3821 34 42.0341 34Z" fill="#85AAE7"/>
									</g>
									</g>
									</g>
									<defs>
									<filter id="filter0_f_4332_146" x="-3.28906" y="9.14062" width="67.4727" height="53.0586" filterUnits="userSpaceOnUse" color-interpolation-filters="sRGB">
									<feFlood flood-opacity="0" result="BackgroundImageFix"/>
									<feBlend mode="normal" in="SourceGraphic" in2="BackgroundImageFix" result="shape"/>
									<feGaussianBlur stdDeviation="6" result="effect1_foregroundBlur_4332_146"/>
									</filter>
									<filter id="filter1_f_4332_146" x="9.99609" y="-13" width="40.0547" height="40.6562" filterUnits="userSpaceOnUse" color-interpolation-filters="sRGB">
									<feFlood flood-opacity="0" result="BackgroundImageFix"/>
									<feBlend mode="normal" in="SourceGraphic" in2="BackgroundImageFix" result="shape"/>
									<feGaussianBlur stdDeviation="4.5" result="effect1_foregroundBlur_4332_146"/>
									</filter>
									<filter id="filter2_f_4332_146" x="-3.00781" y="22.2617" width="42.8164" height="42.3711" filterUnits="userSpaceOnUse" color-interpolation-filters="sRGB">
									<feFlood flood-opacity="0" result="BackgroundImageFix"/>
									<feBlend mode="normal" in="SourceGraphic" in2="BackgroundImageFix" result="shape"/>
									<feGaussianBlur stdDeviation="4.5" result="effect1_foregroundBlur_4332_146"/>
									</filter>
									<filter id="filter3_f_4332_146" x="18.5742" y="18.5" width="45.1016" height="45.375" filterUnits="userSpaceOnUse" color-interpolation-filters="sRGB">
									<feFlood flood-opacity="0" result="BackgroundImageFix"/>
									<feBlend mode="normal" in="SourceGraphic" in2="BackgroundImageFix" result="shape"/>
									<feGaussianBlur stdDeviation="4.5" result="effect1_foregroundBlur_4332_146"/>
									</filter>
									<filter id="filter4_f_4332_146" x="-13.8438" y="5.67969" width="44.2695" height="36.293" filterUnits="userSpaceOnUse" color-interpolation-filters="sRGB">
									<feFlood flood-opacity="0" result="BackgroundImageFix"/>
									<feBlend mode="normal" in="SourceGraphic" in2="BackgroundImageFix" result="shape"/>
									<feGaussianBlur stdDeviation="4.5" result="effect1_foregroundBlur_4332_146"/>
									</filter>
									<filter id="filter5_f_4332_146" x="28.3203" y="4" width="42.7305" height="39.125" filterUnits="userSpaceOnUse" color-interpolation-filters="sRGB">
									<feFlood flood-opacity="0" result="BackgroundImageFix"/>
									<feBlend mode="normal" in="SourceGraphic" in2="BackgroundImageFix" result="shape"/>
									<feGaussianBlur stdDeviation="4.5" result="effect1_foregroundBlur_4332_146"/>
									</filter>
									<linearGradient id="paint0_linear_4332_146" x1="30.4478" y1="4.77344" x2="16.73" y2="46.6383" gradientUnits="userSpaceOnUse">
									<stop stop-color="#C0CEF0"/>
									<stop offset="0.345" stop-color="#F2F4F9"/>
									<stop offset="0.695" stop-color="#CFDCFD"/>
									<stop offset="1" stop-color="#A2B7F2"/>
									</linearGradient>
									<clipPath id="clip0_4332_146">
									<rect width="60" height="60" fill="white"/>
									</clipPath>
									</defs>
								</svg>