												<svg width="18" height="20" viewBox="0 0 18 20" fill="none" xmlns="http://www.w3.org/2000/svg">
													<path d="M9 5.66797V9.84956" stroke="#323F5F" stroke-width="0.5" stroke-miterlimit="10"/>
													<path d="M2 5.12179V11.5914C2 12.2784 2.26767 12.9373 2.74413 13.4231C3.22059 13.909 3.8668 14.1819 4.54062 14.1819H5.81093V16.1214L9.64846 14.1819H13.4594C14.1332 14.1819 14.7794 13.909 15.2559 13.4231C15.7323 12.9373 16 12.2784 16 11.5914V5.12179C16 4.43474 15.7323 3.77582 15.2559 3.29C14.7794 2.80418 14.1332 2.53125 13.4594 2.53125H4.54062C3.8668 2.53125 3.22059 2.80418 2.74413 3.29C2.26767 3.77582 2 4.43474 2 5.12179Z" stroke="#323F5F" stroke-width="0.5" stroke-miterlimit="10"/>
													<path d="M8.5 10.8945H9.5" stroke="#323F5F" stroke-width="0.5" stroke-miterlimit="10"/>
												</svg>