<svg width="73" height="32" viewBox="0 0 73 32" fill="none" xmlns="http://www.w3.org/2000/svg">
<path fill-rule="evenodd" clip-rule="evenodd" d="M45.0889 5.70482C45.0301 5.73442 44.9735 5.76851 44.9196 5.80681C43.255 7.17298 41.8572 8.864 40.8029 10.787C40.5664 11.2333 40.3598 11.6674 40.1788 12.0907C39.9985 12.5255 39.8445 12.9542 39.7131 13.3691C39.6724 13.4928 39.6367 13.6148 39.601 13.737L39.6008 13.7375C39.577 13.8189 39.5531 13.9005 39.5277 13.9826C39.4635 14.1912 39.4037 14.3957 39.3482 14.5961C39.2365 14.9995 39.1424 15.3829 39.0621 15.7664C39.02 16.1059 38.9153 16.4336 38.754 16.7312C38.6988 16.8065 38.6272 16.867 38.5453 16.9075C38.4521 16.9456 38.3533 16.9666 38.2533 16.9696C38.1396 16.979 38.0258 16.9505 37.9284 16.8881C37.8309 16.8258 37.7546 16.7327 37.7103 16.6222C37.4785 15.8959 37.3075 15.1497 37.1994 14.3921L37.0694 13.6322L36.8351 15.2035C36.7694 15.6468 36.7096 16.0011 36.6424 16.2649C36.5965 16.4954 36.5141 16.7163 36.3987 16.9182C36.3235 17.0632 36.1976 17.1715 36.0476 17.2204C35.9714 17.2428 35.8918 17.249 35.8133 17.2386C35.7348 17.2282 35.6591 17.2014 35.5906 17.1598C35.384 17.0465 35.1974 16.8968 35.0388 16.7173C34.668 16.3144 34.3472 15.8637 34.0841 15.376L34.1484 16.2687C34.204 16.7306 34.1917 17.1988 34.1119 17.6568C34.0778 17.8185 34.0202 17.9736 33.9411 18.1169C33.8677 18.2373 33.7703 18.3397 33.6557 18.4168C33.5892 18.4611 33.5146 18.4901 33.4367 18.5019C33.3962 18.5086 33.3551 18.5114 33.3141 18.5103C33.2669 18.5135 33.2196 18.5135 33.1725 18.5103C32.9396 18.4796 32.7148 18.4015 32.5104 18.2802C31.9098 17.9219 31.3815 17.4439 30.955 16.873L30.7536 16.6107C30.8725 17.1046 30.9798 17.6015 31.0915 18.1245C31.2041 18.5615 31.2598 19.0124 31.2572 19.4651C31.2554 19.5966 31.2275 19.7263 31.1752 19.8458C31.1229 19.9654 31.0474 20.0721 30.9536 20.1591C30.8188 20.2696 30.6599 20.3431 30.4913 20.3728C30.3226 20.4026 30.1496 20.3876 29.9879 20.3293C29.4973 20.1711 29.047 19.8988 28.6704 19.5326C28.5376 19.4134 28.4354 19.3188 28.3639 19.2488C28.2923 19.1788 28.2347 19.1182 28.1909 19.0671C28.3033 19.3171 28.4069 19.5579 28.4989 19.7879C28.5964 20.033 28.6461 20.2961 28.6449 20.5617C28.6819 21.0889 28.6432 21.6188 28.5303 22.1339C28.332 23.0925 27.8252 23.95 27.0953 24.5618C26.594 25.0094 25.9554 25.2511 25.2975 25.242C25.05 25.2393 24.8062 25.179 24.5835 25.0653C24.3609 24.9517 24.165 24.7876 24.01 24.5848C23.8642 24.9718 23.6864 25.3447 23.4786 25.6991C23.2757 26.0242 23.0443 26.3287 22.7874 26.6086C22.5807 26.8309 22.3579 27.036 22.121 27.2221C21.9998 27.3167 21.8755 27.4082 21.748 27.4967C21.602 27.5849 21.456 27.6708 21.3101 27.7521C21.0088 27.9202 20.6966 28.0657 20.3758 28.1876C20.0404 28.3065 19.6993 28.4068 19.3539 28.4883C19.0049 28.5617 18.6516 28.6104 18.2963 28.634C17.9867 28.6593 17.6755 28.6529 17.3671 28.6148C17.1016 28.5862 16.8386 28.5349 16.581 28.4614C16.3601 28.3894 16.1471 28.2933 15.9453 28.1746C15.7212 28.0433 15.5197 27.8735 15.3489 27.6723C15.1951 27.4805 15.0776 27.2595 15.003 27.0212C14.7352 27.2228 14.4542 27.4042 14.1621 27.5642C13.9139 27.6932 13.6549 27.7979 13.3884 27.8771C13.1869 27.938 12.9812 27.9826 12.7731 28.0105C12.5614 28.0326 12.3486 28.0405 12.1359 28.0343C11.9157 28.0304 11.696 28.0087 11.479 27.9691C11.2571 27.9241 11.0378 27.8663 10.8221 27.7958C10.004 27.5729 9.27812 27.0742 8.75572 26.3763C8.58107 26.1487 8.47375 25.8723 8.44703 25.5813C8.42031 25.2903 8.47535 24.9974 8.60536 24.7389C8.93488 24.1384 9.35717 23.5996 9.85495 23.1446C10.0928 22.9024 10.3551 22.6549 10.6358 22.39C11.0262 22.0216 11.4525 21.6195 11.8987 21.1507C11.8539 21.1187 11.8088 21.0878 11.7639 21.0571L11.7638 21.057L11.7638 21.057C11.6782 20.9985 11.5932 20.9402 11.5118 20.8754L11.1469 20.577C11.0162 20.7044 10.8848 20.8225 10.7571 20.9344C10.6294 21.0464 10.5038 21.1461 10.3798 21.2412C10.1472 21.4193 9.90596 21.5846 9.65715 21.7366C9.54109 21.8072 9.42796 21.8708 9.31629 21.9322C9.27258 21.9505 9.22793 21.9707 9.18338 21.9909L9.18335 21.9909L9.18332 21.9909L9.18329 21.9909L9.18326 21.9909L9.18323 21.9909L9.18321 21.991L9.18318 21.991L9.18315 21.991L9.18312 21.991L9.18309 21.991L9.18306 21.991L9.18289 21.9911C9.12345 22.018 9.06419 22.0448 9.00753 22.0671C8.82572 22.1426 8.63885 22.2039 8.44843 22.2504C8.19713 22.315 7.93822 22.3409 7.67984 22.3271L7.66159 22.3325C7.44474 22.3968 7.22337 22.4429 6.99957 22.4705C6.87695 22.4866 6.74411 22.4989 6.61272 22.5058C6.48134 22.5127 6.34557 22.5119 6.19959 22.5058C5.89941 22.4978 5.60013 22.4676 5.304 22.4153C5.00677 22.3532 4.71408 22.2691 4.42811 22.1638C4.28505 22.1116 4.1325 22.048 3.99747 21.9897C3.86244 21.9314 3.73178 21.867 3.6004 21.801C3.52684 21.7641 3.4558 21.7233 3.38394 21.6821L3.38373 21.6819L3.38346 21.6818L3.38337 21.6817C3.32708 21.6494 3.27028 21.6168 3.21137 21.5855C3.15528 21.5346 3.09321 21.4889 3.03036 21.4427C2.97299 21.4005 2.91497 21.3578 2.86028 21.3102C2.36375 20.904 1.92823 20.4216 1.56835 19.8792C1.36429 19.5673 1.17738 19.2434 1.00851 18.9091C0.905759 18.7269 0.811963 18.5393 0.727499 18.347C0.710148 18.3075 0.693141 18.2669 0.676161 18.2264L0.676129 18.2263C0.650261 18.1646 0.624453 18.103 0.597581 18.0456L0.467657 17.761C0.18116 17.1102 0.0228712 16.4051 0.00230035 15.6883C-0.0182705 14.9715 0.0993005 14.2578 0.347951 13.59C0.513133 13.2302 0.774877 12.9291 1.10093 12.7238C1.42699 12.5184 1.80311 12.4178 2.18294 12.4343C2.65392 12.4388 3.12152 12.5184 3.56975 12.6705C4.03542 12.8396 4.48017 13.0667 4.89453 13.3469L4.89554 13.3475L4.89555 13.3475L4.89556 13.3475C5.36016 13.6448 5.82113 13.9399 6.29594 14.1812C6.74029 14.4052 7.19566 14.6041 7.66014 14.7771C7.86253 14.8545 8.05519 14.9575 8.23384 15.0839C8.42494 15.2312 8.59824 15.4024 8.74988 15.5938C8.87344 15.7411 8.97687 15.9058 9.05717 16.0831C9.14317 16.2827 9.20638 16.4922 9.24549 16.7074C9.33063 16.8247 9.3929 16.9585 9.42872 17.1012C9.46454 17.2438 9.47321 17.3925 9.45423 17.5387C9.41271 17.8764 9.27126 18.1918 9.04987 18.4405C8.61609 18.955 8.02536 19.2948 7.37912 19.4014C7.10352 19.4944 6.8085 19.5035 6.5282 19.4276C6.2479 19.3517 5.99377 19.194 5.79522 18.9727C5.63612 18.752 5.54267 18.4868 5.52662 18.2104C5.50768 18.1095 5.51393 18.0051 5.54475 17.9074C5.57558 17.8097 5.62993 17.722 5.70253 17.6529C6.07403 17.4492 6.47547 17.3126 6.89008 17.2488C7.32643 17.1537 7.75175 17.0094 8.15866 16.8185L8.09004 16.7158C7.98572 16.5951 7.85738 16.5 7.71414 16.4374C7.53877 16.3566 7.35354 16.3019 7.16379 16.2748C6.65505 16.1782 6.14631 16.0732 5.61494 15.9405L4.8084 15.7219C4.53907 15.6444 4.26826 15.5631 3.99382 15.4788C3.87454 15.4417 3.75908 15.4053 3.64725 15.3701L3.6469 15.37L3.64689 15.37C2.72694 15.0799 2.05287 14.8675 1.52383 14.9987C1.35665 15.0307 1.20071 15.1093 1.07231 15.2263C0.943913 15.3432 0.847778 15.4943 0.793928 15.6636C0.727072 15.8744 0.708317 16.0987 0.739182 16.3185C0.762065 16.6154 0.822948 16.9077 0.920194 17.1874C1.01255 17.4478 1.12535 17.6997 1.25741 17.9405C1.37871 18.1932 1.51983 18.4348 1.6793 18.6629C1.94372 19.0959 2.26653 19.4862 2.63766 19.8217C3.00503 20.1506 3.41371 20.4249 3.85222 20.6369L4.02448 20.7136C4.03412 20.7195 4.04544 20.7238 4.05669 20.728C4.0761 20.7353 4.09533 20.7425 4.10549 20.7581L4.20112 20.7895C4.32447 20.8348 4.45002 20.8769 4.57994 20.9168C4.70986 20.9567 4.83978 20.9935 4.97919 21.028C5.11861 21.0625 5.27116 21.0993 5.41714 21.13C5.68207 21.1858 5.95032 21.2224 6.22003 21.2396C6.49115 21.251 6.76271 21.241 7.03242 21.2097L7.19737 21.1699C8.4841 20.8273 9.66054 20.1303 10.6053 19.1507C10.5196 19.0093 10.4572 18.8537 10.4206 18.6905C10.412 18.6344 10.414 18.5771 10.4266 18.5218C10.4391 18.4666 10.4619 18.4144 10.4936 18.3684C10.7162 18.1018 11.0203 17.9251 11.3534 17.8684C11.536 17.8124 11.7253 17.784 11.9155 17.7841C11.9981 17.7862 12.0803 17.7973 12.1607 17.817C12.2416 17.8288 12.3209 17.8502 12.3972 17.8807C12.5412 17.938 12.6599 18.0492 12.7308 18.1928C12.7654 18.2641 12.7859 18.3421 12.7911 18.422C12.7962 18.5018 12.7859 18.582 12.7607 18.6575C12.7253 18.7618 12.6819 18.8629 12.6308 18.9597C12.5594 19.098 12.4804 19.232 12.3943 19.3608C12.4401 19.3924 12.4856 19.426 12.5315 19.4599L12.5316 19.4599C12.6181 19.5238 12.7056 19.5884 12.7972 19.6415L13.222 19.8983C13.3103 19.7981 13.406 19.7053 13.5081 19.6207C13.6315 19.5193 13.7602 19.4251 13.8935 19.3385C13.9361 19.3316 13.9761 19.3224 14.0135 19.3138L14.0135 19.3138L14.0136 19.3138C14.046 19.3064 14.0763 19.2994 14.1045 19.2948C14.1511 19.2855 14.1986 19.2816 14.2461 19.2833C14.3498 19.2919 14.4511 19.3211 14.5446 19.3692C14.6534 19.4149 14.7552 19.4772 14.8468 19.554C14.9349 19.6114 15.0099 19.6885 15.0664 19.7799C15.1229 19.8712 15.1596 19.9745 15.1738 20.0824C15.1773 20.2387 15.1299 20.3916 15.0395 20.5157C14.8967 20.6991 14.726 20.8564 14.5344 20.9812C14.3577 21.2389 14.1782 21.4743 13.9986 21.7044C13.9588 21.7554 13.9189 21.8069 13.8789 21.8585L13.8789 21.8585L13.8789 21.8585L13.8788 21.8586L13.8788 21.8586L13.8788 21.8586L13.8788 21.8586L13.8788 21.8586L13.8788 21.8586L13.8788 21.8587L13.8787 21.8587L13.8787 21.8587L13.8787 21.8587C13.7384 22.0397 13.5975 22.2214 13.4607 22.3831L13.4582 22.3861L13.4582 22.3862C13.1065 22.8115 12.7643 23.2253 12.4563 23.6185C11.8983 24.2429 11.4674 24.9803 11.19 25.7857C11.1591 25.8854 11.1474 25.9906 11.1554 26.0951C11.1634 26.1996 11.191 26.3014 11.2367 26.3946C11.281 26.4849 11.3429 26.5644 11.4183 26.628C11.4938 26.6915 11.5811 26.7377 11.6746 26.7635C11.9576 26.8393 12.2526 26.8513 12.5403 26.7988C12.7067 26.7734 12.871 26.7342 13.0315 26.6815C13.4811 26.5153 13.9033 26.2762 14.2826 25.9729C14.5322 25.767 14.7662 25.5411 14.9825 25.2973C15.1762 24.4589 15.4254 23.6358 15.7285 22.834C16.177 21.5971 16.561 20.3355 16.8788 19.0548C16.9219 18.8631 16.9679 18.6882 17.0175 18.5349C17.0671 18.3815 17.1219 18.2472 17.1766 18.1146C17.2565 17.9002 17.3997 17.7185 17.5854 17.5962C17.678 17.5439 17.7798 17.5117 17.8846 17.5018C18.0274 17.4944 18.1704 17.4996 18.3124 17.5172C18.3803 17.5017 18.4582 17.4779 18.5482 17.4504L18.5483 17.4504C18.6148 17.4301 18.6879 17.4078 18.7685 17.3853C19.0009 17.2938 19.256 17.288 19.4919 17.3688C19.7278 17.4497 19.9306 17.6123 20.067 17.8301C20.4809 18.3507 20.7898 18.9542 20.9753 19.6039C21.1607 20.2536 21.2187 20.9361 21.1458 21.6101C21.0749 22.2581 20.842 22.8749 20.4707 23.3977C20.1177 23.8638 19.6381 24.2062 19.0955 24.3793C18.8627 24.4474 18.6209 24.4757 18.3795 24.4629C18.1332 24.4486 17.8913 24.3886 17.6649 24.2857C17.6221 24.559 17.6004 24.8355 17.6 25.1124C17.6008 25.4005 17.6297 25.6879 17.6861 25.9698C17.7455 26.4531 17.9849 26.8918 18.3518 27.1899C18.5297 27.3152 18.7328 27.3956 18.9452 27.4246C19.1936 27.4465 19.4438 27.4229 19.6846 27.3548C20.2329 27.2027 20.747 26.9376 21.1969 26.5749C21.6966 26.1651 22.1219 25.664 22.4524 25.0956C22.534 24.9636 22.6069 24.8234 22.6769 24.6888L22.6769 24.6888C22.6952 24.6537 22.7132 24.6189 22.7312 24.5848L22.7742 24.4842C22.838 24.3356 22.8995 24.1924 22.9502 24.0426C23.0751 23.683 23.1684 23.312 23.229 22.9345C23.1465 22.6661 23.0735 22.3854 23.0005 22.087C22.7953 21.2159 22.6496 20.2562 22.4908 19.2102L22.4908 19.2101L22.4908 19.21L22.4908 19.2099L22.4502 18.9428C22.2486 17.9496 22.1207 16.9415 22.0677 15.9274C21.9708 15.2352 22.1273 14.53 22.5056 13.9542C22.6947 13.7069 22.9484 13.523 23.2356 13.4251C23.582 13.3196 23.9462 13.2948 24.3027 13.3522C24.3832 13.1771 24.4752 13.008 24.5778 12.8461C24.6515 12.7335 24.7345 12.628 24.826 12.5309C25.0613 12.2602 25.3742 12.0774 25.7172 12.0102C25.8434 11.9802 25.9749 11.9856 26.0984 12.026C26.222 12.0664 26.3332 12.1403 26.4209 12.2403C26.624 12.6229 26.7779 13.0321 26.8785 13.4573C27.0427 14.0202 27.1931 14.4642 27.323 14.8032C27.6483 15.6738 28.0421 16.5144 28.5004 17.3162C28.7658 17.8122 29.0855 18.274 29.4529 18.692C29.5355 18.7844 29.6347 18.8587 29.7448 18.9106C29.7787 18.9237 29.8154 18.9264 29.8507 18.9183C29.886 18.9103 29.9184 18.892 29.9441 18.8654C30.0361 18.7825 30.0412 18.544 29.9777 18.1345C29.9479 17.9426 29.8909 17.6697 29.8154 17.3081L29.8154 17.308L29.8153 17.3078C29.7297 16.8977 29.6202 16.3736 29.4996 15.7242C29.4587 15.501 29.4062 15.2319 29.3354 14.9006C29.2646 14.5693 29.2595 14.3729 29.3076 14.3085C29.0974 13.9205 28.8784 13.501 28.6595 13.0455C27.6222 10.9129 26.8293 8.65863 26.2975 6.32984C26.0899 6.49942 25.9008 6.66784 25.717 6.83151C25.6423 6.89803 25.5684 6.96377 25.4946 7.02848C25.2391 7.25241 25.0173 7.45792 24.81 7.65195L23.891 8.52083C23.5911 8.84769 23.2263 9.10095 22.8224 9.26244C22.694 9.31912 22.5525 9.33416 22.4159 9.30559C22.2793 9.27703 22.154 9.20614 22.056 9.10212C21.8809 8.90427 21.967 8.5055 22.348 7.90733C22.6826 7.406 23.0606 6.93828 23.4772 6.51009C24.2612 5.67525 25.1029 4.90241 25.9953 4.19792C25.7782 3.2987 25.7206 2.36517 25.8253 1.44403C25.8821 1.20613 25.9874 0.984027 26.1338 0.792987C26.2802 0.601947 26.4643 0.446516 26.6734 0.337414C26.9835 0.140898 27.3339 0.025424 27.6953 0.000731408C28.0055 -0.00923811 28.1982 0.0827733 28.2792 0.272961C28.1731 1.06669 28.1662 1.87159 28.2588 2.66719C28.8788 2.27236 29.5192 1.91396 30.1769 1.59357C30.7535 1.31372 31.3444 1.06768 31.947 0.856598C32.886 0.480747 33.8836 0.292445 34.8885 0.301373C35.4797 0.356589 35.7972 0.605022 35.8541 1.02988C35.8746 1.17942 35.8023 1.29526 35.6425 1.39188C35.2883 1.54326 34.9195 1.65332 34.5425 1.72009C33.4693 1.99837 32.426 2.39102 31.4287 2.89191C30.3808 3.40821 29.3656 3.99479 28.3894 4.64806C28.4853 6.00122 28.685 7.34407 28.9865 8.66349C29.1281 9.28314 29.285 9.87514 29.4573 10.4442C29.6344 11.0168 29.8203 11.5662 30.0149 12.0922C30.5565 13.6151 31.2714 15.0635 32.144 16.406C32.2891 16.6297 32.4681 16.8268 32.6739 16.9896C32.8389 17.1077 32.963 17.1322 33.0579 17.0762C33.2068 16.988 33.2644 16.7058 33.2688 16.2541C33.2703 16.0264 33.2542 15.7503 33.2301 15.4435C33.2061 15.1368 33.1703 14.7878 33.1258 14.3921C33.0564 13.8177 32.9717 13.1843 32.8659 12.4542C32.7462 12.0669 32.6331 11.6582 32.5345 11.2318C32.2487 10.2349 32.1495 9.18926 32.2426 8.15273C32.2913 7.85759 32.432 7.58783 32.6426 7.38585C32.8907 7.13764 33.1907 6.9538 33.5185 6.84902C33.6828 6.78311 33.8642 6.78174 34.0294 6.84518C34.1033 6.88188 34.1682 6.93611 34.2188 7.00358C34.2695 7.07104 34.3046 7.1499 34.3213 7.23401C34.3363 7.50655 34.3307 7.77988 34.3046 8.05149C34.2921 8.36745 34.2856 8.62898 34.2819 8.83757L34.2892 9.55386C34.2962 10.7546 34.3938 11.9529 34.5812 13.1375C34.6716 13.7698 34.8197 14.3916 35.0235 14.9941C35.0914 15.1963 35.1943 15.3835 35.3272 15.5463C35.3644 15.5935 35.4138 15.6285 35.4694 15.6473C35.525 15.666 35.5845 15.6677 35.641 15.6521C35.7198 15.6276 35.7906 15.5256 35.86 15.3407C35.9506 15.0869 36.0238 14.8265 36.079 14.5616C36.2115 13.997 36.3414 13.3005 36.4961 12.471C36.5264 12.3089 36.5576 12.1417 36.5899 11.9695C36.6118 11.8238 36.6439 11.6145 36.6913 11.3438C36.7052 11.2602 36.7198 11.1873 36.7344 11.1198C36.6425 10.193 36.6259 9.25967 36.6848 8.3299C36.811 6.61207 37.2103 5.69181 37.7263 5.65193C38.0786 5.64509 38.4227 5.76406 38.7022 5.98936C39.065 6.23477 39.2358 6.49167 39.2358 6.70256C39.2285 6.8514 39.1834 6.99548 39.1051 7.11975C38.9867 7.3151 38.8563 7.50209 38.7146 7.67956C38.4339 8.67126 38.2788 9.69748 38.2533 10.7318C38.2034 12.1253 38.2278 13.5206 38.3263 14.9113C38.6432 12.8987 39.2265 10.9426 40.0591 9.09983C40.2306 8.72559 40.408 8.36672 40.5839 8.04999C40.7598 7.73327 40.9365 7.43646 41.108 7.17419C41.2795 6.91191 41.4474 6.66113 41.608 6.45177C41.7686 6.24241 41.9189 6.05759 42.0605 5.89654C43.2028 4.59974 44.2568 4.13733 44.9196 4.34363C45.2043 4.42173 45.4718 4.55744 45.7071 4.74317C45.7727 4.79724 45.8193 4.87274 45.8395 4.95774C45.8598 5.04273 45.8525 5.13236 45.8188 5.21251C45.6081 5.42464 45.3602 5.59182 45.0889 5.70482ZM18.3656 19.7511C18.2646 20.0838 18.1854 20.4232 18.1284 20.7672C17.9408 21.391 17.8863 22.0506 17.9686 22.699C18.0232 22.9432 18.1634 23.1568 18.3613 23.2972C18.4565 23.3589 18.5639 23.3969 18.6753 23.408C18.7866 23.4192 18.899 23.4033 19.0036 23.3616C19.2351 23.2661 19.4245 23.0835 19.5349 22.8493C19.6822 22.5239 19.757 22.1675 19.7539 21.8071C19.7775 21.005 19.5879 20.2118 19.2065 19.5164C19.149 19.408 19.0585 19.323 18.9496 19.2749C18.9045 19.2501 18.8544 19.2372 18.8036 19.2372C18.7527 19.2372 18.7026 19.2501 18.6576 19.2749C18.5086 19.3913 18.4049 19.5605 18.3656 19.7511ZM26.5318 23.2435C26.8397 22.8918 27.0303 22.4445 27.0749 21.969C27.1926 21.2499 27.1906 20.5147 27.069 19.7964C27.0233 19.4865 26.9646 19.1834 26.8931 18.8868C26.8581 18.7396 26.8223 18.5908 26.7792 18.4497L26.6165 18.0663C26.397 17.5514 26.1656 17.0402 25.9223 16.5325C25.6614 15.8922 25.3347 15.2838 24.9479 14.7181C24.8531 14.6157 24.724 14.5563 24.5881 14.5524C24.5222 14.5543 24.4575 14.5713 24.3985 14.6021C24.3395 14.633 24.2876 14.677 24.2465 14.7311C24.1105 14.9524 24.0192 15.2006 23.9781 15.4605C23.9371 15.7203 23.9472 15.9863 24.0078 16.2419C24.1283 17.1204 24.3078 17.9889 24.545 18.8408C24.5847 18.9913 24.6237 19.1398 24.6622 19.2864C24.8755 20.0989 25.0727 20.8504 25.2873 21.5326C25.43 22.1299 25.6759 22.6945 26.0128 23.1983C26.0861 23.2876 26.1854 23.3488 26.2953 23.3724C26.3409 23.3686 26.3854 23.3553 26.426 23.3331C26.4666 23.311 26.5026 23.2805 26.5318 23.2435ZM33.605 2.95012C33.882 2.84117 34.1882 2.84801 34.4604 2.96926C34.5691 3.03405 34.6621 3.12442 34.732 3.23325C34.8019 3.34208 34.8468 3.46647 34.8634 3.59661C34.8988 3.83419 34.8855 4.07696 34.8243 4.30869C34.7631 4.54042 34.6555 4.75571 34.5086 4.94016C34.2373 5.37354 33.8344 5.69785 33.3656 5.86044C33.0605 5.97669 32.7281 5.98771 32.4167 5.89189C32.2769 5.8421 32.1499 5.75903 32.0457 5.64915C31.9415 5.53926 31.8629 5.40554 31.816 5.25845C31.7442 5.02172 31.7387 4.76825 31.8003 4.52835C31.8619 4.28846 31.988 4.07226 32.1634 3.90563C32.5453 3.44663 33.0463 3.11459 33.605 2.95012ZM68.6553 20.5662C68.3004 20.4061 67.9248 20.3028 67.5408 20.2594C66.9461 20.1779 66.3462 20.1453 65.7467 20.162C65.3956 20.162 64.9839 20.1965 64.5606 20.2334C64.1372 20.2702 63.6847 20.3215 63.2037 20.3867C61.1307 20.6819 59.4848 21.0202 58.2141 21.307C58.349 20.8917 58.4228 20.4573 58.433 20.0186C58.4494 19.7037 58.3781 19.3906 58.2279 19.1175C58.0993 18.9134 57.9137 18.7561 57.6966 18.6673C57.3868 18.5398 57.0623 18.4557 56.7316 18.4173C55.2016 18.286 53.6628 18.508 52.223 19.0677C51.53 19.3245 50.8608 19.6475 50.2238 20.0324C49.4406 20.2625 48.8954 20.4105 48.545 20.4856C48.1472 20.5685 47.9071 20.5623 47.8151 20.4573C47.7611 20.3959 47.7648 20.3039 47.8304 20.175C47.9303 20.0006 48.0546 19.8429 48.1991 19.7072C49.5385 18.4673 51.0156 17.4018 52.5982 16.5339C55.029 15.1254 57.626 14.0597 60.322 13.3643C60.7855 13.2432 61.3957 13.1044 62.1577 12.9663C62.8212 12.9024 63.4724 12.7381 64.0912 12.4786C64.1979 12.3875 64.2779 12.2666 64.3221 12.1299C64.3663 11.9931 64.3728 11.8461 64.3409 11.7056C64.28 11.2864 64.1114 10.8927 63.8533 10.5667C63.6672 10.3029 63.0446 10.2554 62.0212 10.4624C60.5659 10.8013 59.1474 11.2957 57.7878 11.9379C56.8251 12.3751 55.9689 12.7915 55.2091 13.1749C54.4492 13.5583 53.7777 13.9203 53.2033 14.2348C53.2283 13.7964 53.1885 13.3566 53.085 12.931C53.0195 12.6225 52.8693 12.3409 52.6529 12.1212C52.4757 11.9605 52.2553 11.8616 52.0223 11.8382C51.691 11.8025 51.3567 11.8133 51.0281 11.8704C50.2876 12.0178 49.5669 12.2588 48.8815 12.5882C48.5393 12.7524 48.206 12.9362 47.883 13.1389C47.5559 13.3488 47.2392 13.5761 46.9341 13.8199L46.8071 13.9241L46.7057 14.0009C45.7196 14.7389 44.6986 15.4241 43.6466 16.0538C43.3051 16.2678 42.9489 16.4549 42.581 16.6136C42.4643 16.6631 42.3413 16.6941 42.216 16.7057C42.126 16.7217 42.0336 16.7113 41.9489 16.6757C41.9069 16.653 41.8704 16.6205 41.8423 16.5806C41.8142 16.5407 41.7953 16.4945 41.7868 16.4457C41.7571 16.2943 41.7519 16.1388 41.7715 15.9856C41.8427 15.4281 41.9715 14.8804 42.1554 14.3521C42.2737 13.9863 42.397 13.6466 42.527 13.3337C42.6575 13.0213 42.8037 12.7164 42.9649 12.4203C43.005 12.6034 43.0709 12.7792 43.1605 12.9418C43.2269 13.0694 43.3309 13.1708 43.4569 13.2309C44.0101 13.487 44.805 13.1442 46.0159 12.3106C46.3181 12.1005 46.6152 11.8766 46.9027 11.6373C47.1907 11.401 47.467 11.1494 47.7305 10.8835C48.2771 10.3337 48.7591 9.71705 49.1662 9.04676C49.3424 8.78344 49.4246 8.46328 49.3983 8.14259C49.3506 7.80805 49.1928 7.50169 48.9523 7.2768L48.4698 6.77063C48.3694 6.57866 48.2495 6.39871 48.1122 6.23384C48.0014 6.1033 47.8679 5.99629 47.7188 5.91864C47.4056 5.77802 47.0595 5.7398 46.7254 5.80898C46.3099 5.90042 45.9176 6.08339 45.5743 6.34581C44.9572 6.80924 44.3938 7.34689 43.8955 7.94782C43.3752 8.58422 42.916 9.27318 42.5248 10.0046C41.842 11.2782 41.3441 12.6517 41.0475 14.0798C40.8534 14.9266 40.768 15.7968 40.7934 16.6673C40.8025 16.9213 40.8575 17.1712 40.9555 17.4035C40.9976 17.4913 41.0523 17.5717 41.1175 17.642C41.1831 17.708 41.2602 17.7601 41.3445 17.7954C41.5271 17.8755 41.7277 17.899 41.9226 17.8629C42.0436 17.8443 42.1625 17.8127 42.2773 17.7685C42.4167 17.7253 42.5529 17.6712 42.6846 17.6067C42.9036 17.4963 43.1569 17.3629 43.4466 17.1942L44.4357 16.5929C44.3576 16.7141 44.2824 16.8353 44.2108 16.9564C43.7936 17.6409 43.4757 18.3868 43.2678 19.1697C43.1029 19.8468 43.1175 20.2433 43.3408 20.4465C43.486 20.5358 43.659 20.5609 43.8218 20.5163C44.1153 20.4525 44.4019 20.3577 44.6773 20.2334C45.0276 20.0884 45.421 19.8913 45.8517 19.6635C46.2823 19.4358 46.7546 19.1666 47.2713 18.8545C46.8536 19.3316 46.5178 19.8811 46.2787 20.4787C46.2052 20.6692 46.1708 20.8738 46.1779 21.0792C46.1842 21.2436 46.2452 21.4004 46.3502 21.5225C46.5085 21.6499 46.6942 21.7346 46.891 21.769C47.0878 21.8033 47.2896 21.7864 47.4786 21.7196C47.7721 21.6631 48.0619 21.5875 48.3465 21.4933C47.8667 21.9514 47.4583 22.4857 47.1363 23.0769C46.8137 23.695 46.7517 24.123 46.9531 24.406C47.0838 24.5483 47.2596 24.6353 47.4473 24.6506C47.7624 24.6892 48.0806 24.6907 48.3961 24.6552C49.3817 24.5457 50.3578 24.3567 51.3157 24.09C50.7929 24.4305 50.3326 24.8669 49.9567 25.3784C49.8403 25.5418 49.76 25.7304 49.7216 25.9305C49.6897 26.0908 49.7141 26.2578 49.7902 26.4006C49.8752 26.5504 50.0029 26.6682 50.1552 26.7373C50.3666 26.8282 50.5907 26.8821 50.8187 26.8968C50.9525 26.9096 51.105 26.9168 51.2763 26.9183C51.4493 26.9183 51.6325 26.9183 51.8602 26.8991C52.3113 26.8669 52.8186 26.8224 53.4084 26.7649L54.2251 26.6882C54.2821 26.6829 54.3368 26.6779 54.3898 26.6731L54.3899 26.673L54.3901 26.673C54.5644 26.6572 54.7196 26.643 54.8718 26.623C55.0448 26.6085 55.2178 26.5801 55.3514 26.554C55.4536 26.5379 55.5542 26.5122 55.6521 26.4773C55.6868 26.4652 55.7186 26.4452 55.7451 26.4187C55.7716 26.3922 55.7922 26.3598 55.8054 26.3239C55.8208 26.2902 55.8289 26.2532 55.8289 26.2158C55.8289 26.1784 55.8208 26.1414 55.8054 26.1077C55.7587 26.0049 55.5171 25.9627 55.0974 25.9896C54.7726 26.0141 54.5032 26.0287 54.2894 26.0302C53.2215 26.0555 52.558 26.054 52.1508 26.0256C51.7435 25.9973 51.5194 25.9252 51.4588 25.8002C51.4245 25.7235 51.4508 25.6383 51.5457 25.5325C51.6855 25.3926 51.8447 25.2757 52.0179 25.1859C52.6448 24.8448 53.2947 24.5526 53.9624 24.3116C54.9733 23.9376 56.0027 23.6214 57.0462 23.3645C57.6623 23.2111 58.2914 23.0739 58.9389 22.9573C59.5863 22.8408 60.2585 22.7418 60.9352 22.672C61.6118 22.6023 62.2935 22.5647 62.9913 22.5547C63.3394 22.5509 63.6935 22.5547 64.0431 22.5654L64.5715 22.5923C64.7321 22.6099 64.8876 22.6329 65.043 22.6567C65.5313 22.7305 66.0124 22.849 66.481 23.011L66.5625 23.0391L66.5625 23.0391C66.9145 23.1607 67.1908 23.2561 67.4072 23.3124C67.4656 23.3277 67.5194 23.34 67.5685 23.3492H67.5868H67.5955H67.5992L67.5517 23.3668H67.5576H67.6006H67.6795C67.7554 23.3708 67.8315 23.3623 67.905 23.3415C67.9554 23.3241 68.0022 23.2968 68.0429 23.261C68.0636 23.2427 68.0827 23.2224 68.0999 23.2004L68.1254 23.1652L68.1313 23.1559L68.1831 23.1375L68.1882 23.1322L68.2072 23.1099C68.3288 22.9559 68.4322 22.787 68.5152 22.6068C68.7418 22.1262 68.8934 21.6104 68.9641 21.0792C68.9786 20.9827 68.9672 20.884 68.9312 20.7939C68.8589 20.6949 68.764 20.6166 68.6553 20.5662ZM43.9846 10.8359C44.2996 10.1199 44.7755 9.49512 45.3714 9.0153C46.1217 8.36575 46.6903 8.11349 46.9662 8.2707C47.0186 8.30172 47.0627 8.34605 47.0944 8.39965C47.1262 8.45325 47.1446 8.51438 47.148 8.57742C47.1685 8.7251 47.1429 8.87578 47.075 9.00688C46.6365 9.84225 46.0779 10.6015 45.4188 11.2577C44.7429 11.9579 44.3043 12.2692 44.0444 12.1404C43.8984 12.0783 43.8255 11.931 43.816 11.6956C43.8159 11.4 43.8733 11.1074 43.9846 10.8359ZM46.8933 18.0676C45.4517 18.9112 44.6897 19.31 44.459 19.1144C44.386 19.0577 44.378 18.9366 44.4225 18.7494C44.4743 18.5444 44.5627 18.3515 44.6831 18.1811C45.1977 17.45 45.7958 16.7881 46.4641 16.2102C47.256 15.5037 48.1383 14.9172 49.0851 14.4679C49.763 14.1313 50.4775 13.8833 51.2128 13.7294C51.3866 13.6723 51.5703 13.6568 51.7506 13.684C51.9308 13.7112 52.1029 13.7804 52.2544 13.8866C52.3398 13.9752 52.3961 14.0902 52.415 14.2148C52.437 14.3901 52.4266 14.5682 52.3843 14.7394L49.3421 16.596C48.4253 17.1596 47.6159 17.6443 46.8933 18.0676ZM57.4579 21.0646C57.4349 21.2397 57.3799 21.4085 57.2958 21.5616L53.8857 22.4964C52.8522 22.7779 51.9369 23.0156 51.1179 23.2112C49.4829 23.6038 48.6049 23.7411 48.4093 23.4642C48.3487 23.3822 48.3633 23.2564 48.4516 23.0846C48.5514 22.8979 48.6877 22.7356 48.8516 22.6084C49.5562 22.0584 50.3237 21.6034 51.1362 21.2541C52.1037 20.8169 53.122 20.516 54.1646 20.3591C54.9099 20.2321 55.667 20.1981 56.42 20.2579C56.9309 20.3177 57.2586 20.4718 57.3849 20.7034C57.4453 20.8125 57.4709 20.9391 57.4579 21.0646ZM56.2827 24.3494C56.3308 24.2417 56.4072 24.1507 56.503 24.0872C57.1518 23.5626 58.3613 24.0411 58.7825 24.6853C58.8944 24.8379 58.967 25.0181 58.9935 25.2087C59.02 25.3992 58.9993 25.5938 58.9335 25.7735C58.7919 26.1117 58.5576 26.1846 58.2401 26.2521C58.0723 26.2881 57.9431 26.0297 58.1168 25.9453C58.2686 25.8717 58.1379 25.6148 58.0708 25.5381C57.9664 25.4373 57.8416 25.3629 57.7058 25.3203C57.3536 25.2622 56.9986 25.2251 56.6424 25.2091C56.5343 25.1735 56.4383 25.1062 56.3655 25.0151C56.2927 24.924 56.2462 24.8129 56.2316 24.6949C56.2169 24.577 56.2347 24.4571 56.2827 24.3494ZM1.98884 11.529C2.0242 10.9262 2.00857 10.3213 1.94213 9.72141C1.98392 9.12555 2.10151 8.53828 2.29175 7.97523C2.29935 7.944 2.29806 7.9111 2.28806 7.88063C2.27805 7.85016 2.25975 7.82344 2.23544 7.80378C2.21113 7.78411 2.18187 7.77236 2.15128 7.76998C2.12068 7.7676 2.09009 7.77469 2.06329 7.79039C0.885956 8.43841 -0.0891952 10.4047 0.542172 11.7269C0.623806 11.8635 0.741017 11.9727 0.879915 12.0414C1.01881 12.1102 1.17357 12.1357 1.32584 12.1149C1.4781 12.0941 1.62149 12.0278 1.739 11.924C1.85651 11.8201 1.94322 11.683 1.98884 11.529ZM4.07234 12.206C3.91635 12.0422 3.82804 11.8203 3.82651 11.5885C4.04686 10.4777 3.92809 9.32214 3.48711 8.28633C3.47151 8.2561 3.46562 8.22136 3.47033 8.18733C3.47503 8.15331 3.49008 8.12183 3.51322 8.09751C3.53636 8.0732 3.56635 8.05738 3.59874 8.05244C3.63113 8.04749 3.66417 8.05369 3.69294 8.07008C4.26694 8.43171 4.73728 8.94955 5.05424 9.56889C5.3712 10.1882 5.52301 10.886 5.49361 11.5885C5.48842 11.8191 5.39893 12.0387 5.24372 12.2018C5.08851 12.3649 4.8795 12.4589 4.66006 12.4643C4.43946 12.4627 4.22833 12.3699 4.07234 12.206ZM7.61044 26.2352C6.31754 26.6317 5.13556 27.3519 4.16602 28.3342C4.07512 28.4344 4.01016 28.5575 3.97738 28.6916C3.94459 28.8258 3.94506 28.9665 3.97872 29.1003C4.01239 29.2342 4.07815 29.3569 4.16971 29.4565C4.26127 29.5561 4.37559 29.6293 4.50177 29.6693C5.05386 29.9051 5.45422 30.4033 5.85416 30.9009C6.17492 31.3 6.4954 31.6988 6.89367 31.9616C6.94233 31.9899 6.99782 32.0027 7.05331 31.9984C7.1088 31.9941 7.16187 31.9728 7.206 31.9372C7.25013 31.9016 7.2834 31.8532 7.30169 31.798C7.31999 31.7428 7.32253 31.6831 7.30899 31.6264C7.13181 30.9372 6.70281 30.4057 6.27273 29.8728C6.10751 29.6681 5.94212 29.4632 5.79079 29.2491C6.63699 28.8401 7.48295 28.4311 8.32867 28.0221C9.30455 27.5558 8.60967 25.9484 7.61044 26.2352ZM12.4924 29.0268C12.6222 28.9869 12.7597 28.9835 12.8911 29.0168C13.0252 29.0604 13.1455 29.1414 13.2393 29.2512C13.3331 29.3609 13.3968 29.4953 13.4237 29.64C13.4506 29.7848 13.4396 29.9345 13.392 30.0732C13.3443 30.2119 13.2618 30.3345 13.1531 30.4279C13.0138 30.9644 12.7297 31.4471 12.3349 31.8175L12.3057 31.8589C12.2803 31.9015 12.2425 31.9344 12.1979 31.9527C12.1533 31.971 12.1044 31.9738 12.0582 31.9606C12.012 31.9475 11.971 31.9191 11.9413 31.8797C11.9117 31.8402 11.8948 31.7918 11.8933 31.7416C11.8894 31.6775 11.8742 31.6192 11.8587 31.5597C11.8398 31.4868 11.8203 31.412 11.8203 31.3221C11.8203 31.1588 11.8313 30.9954 11.8459 30.8328C11.8699 30.5667 11.9167 30.296 11.9656 30.0299C11.9285 29.8933 11.9262 29.7488 11.9588 29.611C11.9914 29.4731 12.0578 29.3466 12.1515 29.2441C12.2451 29.1416 12.3627 29.0667 12.4924 29.0268ZM30.2741 25.0757L30.2741 25.0757C30.208 25.0147 30.142 24.9539 30.0802 24.888C30.0595 24.8662 30.0401 24.846 30.0221 24.8272C29.7956 24.5912 29.7777 24.5725 29.8744 24.2124C29.937 23.9793 30.0401 23.765 30.1401 23.5571C30.3747 23.0693 30.5924 22.6168 30.2306 22.0398C30.1584 21.9141 30.0495 21.8163 29.92 21.761C29.7906 21.7057 29.6476 21.6959 29.5124 21.7331C28.8905 21.98 28.7496 22.3681 28.6219 23.0138C28.4485 23.5365 28.4019 24.0963 28.4861 24.6427C28.6125 25.006 28.8863 25.1742 29.175 25.3516L29.175 25.3516C29.2598 25.4037 29.3459 25.4565 29.4299 25.5154C29.7099 25.7099 30.0059 25.8691 30.3009 26.0277L30.3009 26.0277C30.628 26.2036 30.9537 26.3787 31.2546 26.6005C31.3634 26.6772 31.497 26.4993 31.4006 26.4065C31.0878 26.0612 30.7932 25.6982 30.5182 25.319C30.4422 25.2307 30.3581 25.1531 30.2741 25.0758L30.2741 25.0757L30.2741 25.0757L30.2741 25.0757L30.2741 25.0757ZM34.2996 19.8097C34.5551 19.9561 34.8077 20.1095 35.0595 20.2629C35.5047 20.4603 35.9045 20.7558 36.2317 21.1294C36.3359 21.29 36.3904 21.4806 36.3877 21.675C36.3849 21.8693 36.3251 22.0581 36.2164 22.2153C36.0194 22.5009 35.855 22.8098 35.7266 23.1356C35.663 23.4904 35.5804 23.8412 35.4792 24.1862C35.4156 24.3534 35.1646 24.3442 35.1646 24.1418C35.166 23.9651 35.2114 23.7417 35.2595 23.5055C35.358 23.0212 35.4675 22.4829 35.231 22.1824C35.0931 22.0068 34.6506 21.8709 34.2902 21.7603C34.128 21.7105 33.9825 21.6658 33.8887 21.6248C33.7696 21.5729 33.6493 21.5242 33.5301 21.4759C32.7903 21.1763 32.0912 20.8933 31.9844 19.9561C31.9853 19.7054 32.0805 19.4653 32.2492 19.2881C32.418 19.1108 32.6465 19.0108 32.8851 19.0098H32.9544C33.1008 19.0175 33.2434 19.0617 33.3703 19.1388C33.4972 19.2158 33.6049 19.3236 33.6843 19.453L33.7887 19.5182L34.2996 19.8097ZM44.7334 25.6225C44.2641 26.4162 43.667 27.5182 43.9904 28.4791C44.2034 28.9167 44.4656 29.3258 44.7714 29.6977C45.1283 30.259 45.4882 30.812 45.8662 31.3572C46.0203 31.5796 46.4159 31.46 46.3217 31.1555C46.1966 30.7518 46.0513 30.3517 45.9058 29.9513L45.9058 29.9512L45.9058 29.9511L45.9058 29.951C45.7313 29.4708 45.5567 28.9901 45.4166 28.5021C45.6734 28.1977 45.878 27.8397 46.0817 27.4833C46.2289 27.2257 46.3757 26.9689 46.5414 26.7337C47.3363 25.6155 45.4568 24.3985 44.7334 25.6225ZM50.9882 28.17C51.1174 28.179 51.243 28.2188 51.3554 28.2864C51.4662 28.3558 51.5605 28.4508 51.6313 28.5641C51.7021 28.6774 51.7474 28.8061 51.7639 28.9405C51.7804 29.0749 51.7677 29.2115 51.7266 29.34C51.6856 29.4685 51.6173 29.5855 51.5269 29.6822C51.3512 29.8287 51.1702 29.9679 50.9893 30.1068C50.7729 30.2732 50.5567 30.4394 50.3503 30.6178C50.2627 30.6928 50.1817 30.7801 50.1006 30.8674C49.8965 31.0872 49.6925 31.3069 49.3853 31.3294C49.3579 31.3292 49.3317 31.3177 49.3123 31.2973C49.2929 31.2769 49.2819 31.2494 49.2817 31.2206C49.2722 30.9448 49.4152 30.7254 49.5586 30.5054C49.6345 30.3889 49.7106 30.2722 49.7642 30.1469C49.9256 29.7189 50.0416 29.2734 50.1101 28.8187C50.1457 28.6878 50.2092 28.5672 50.2957 28.4659C50.3822 28.3647 50.4895 28.2854 50.6095 28.2341C50.7294 28.1828 50.8589 28.1609 50.9882 28.17ZM67.8162 11.8655C68.0028 11.8105 68.1753 11.712 68.3207 11.5774C68.4661 11.4427 68.5808 11.2754 68.6562 11.0878C68.7316 10.9002 68.7657 10.6971 68.7562 10.4938C68.7466 10.2904 68.6935 10.0918 68.6009 9.91297C68.4874 9.71941 68.3158 9.57109 68.1132 9.49138C67.9106 9.41167 67.6885 9.40513 67.4819 9.4728C67.3179 9.40239 67.1377 9.38424 66.9639 9.42066C66.7901 9.45707 66.6304 9.5464 66.5046 9.67753C66.3755 9.81798 66.2797 9.98832 66.2248 10.1748C66.1699 10.3613 66.1575 10.5587 66.1885 10.7512C66.214 10.9428 66.2782 11.1265 66.3769 11.2898C66.4757 11.453 66.6066 11.5922 66.7608 11.6978C66.9151 11.8034 67.0892 11.873 67.2712 11.9019C67.4533 11.9309 67.6391 11.9184 67.8162 11.8655ZM71.2923 21.8347C71.3815 21.7422 71.4911 21.6745 71.6114 21.6375C71.7832 21.6043 71.9598 21.6119 72.1285 21.6595C72.2971 21.7072 72.4535 21.7939 72.5862 21.9131C72.719 22.0324 72.8247 22.1813 72.8957 22.3489C72.9667 22.5166 73.0013 22.6987 72.9967 22.8821C72.9907 23.0482 72.951 23.211 72.8805 23.3598C72.81 23.5085 72.7101 23.6397 72.5876 23.7448C72.465 23.8499 72.3226 23.9264 72.1698 23.9693C72.017 24.0121 71.8572 24.0203 71.7012 23.9933C71.5493 23.9786 71.4026 23.9286 71.2714 23.847C71.1402 23.7654 71.0278 23.6543 70.9424 23.5216C70.857 23.3889 70.8008 23.238 70.7776 23.0797C70.7544 22.9213 70.765 22.7596 70.8085 22.6061C70.8669 22.4351 70.9677 22.2837 71.1004 22.1674C71.1372 22.0415 71.2031 21.9272 71.2923 21.8347Z" fill="url(#paint0_linear_1_104)"/>
<path fill-rule="evenodd" clip-rule="evenodd" d="M45.0889 5.70482C45.0301 5.73442 44.9735 5.76851 44.9196 5.80681C43.255 7.17298 41.8572 8.864 40.8029 10.787C40.5664 11.2333 40.3598 11.6674 40.1788 12.0907C39.9985 12.5255 39.8445 12.9542 39.7131 13.3691C39.6724 13.4928 39.6367 13.6148 39.601 13.737L39.6008 13.7375C39.577 13.8189 39.5531 13.9005 39.5277 13.9826C39.4635 14.1912 39.4037 14.3957 39.3482 14.5961C39.2365 14.9995 39.1424 15.3829 39.0621 15.7664C39.02 16.1059 38.9153 16.4336 38.754 16.7312C38.6988 16.8065 38.6272 16.867 38.5453 16.9075C38.4521 16.9456 38.3533 16.9666 38.2533 16.9696C38.1396 16.979 38.0258 16.9505 37.9284 16.8881C37.8309 16.8258 37.7546 16.7327 37.7103 16.6222C37.4785 15.8959 37.3075 15.1497 37.1994 14.3921L37.0694 13.6322L36.8351 15.2035C36.7694 15.6468 36.7096 16.0011 36.6424 16.2649C36.5965 16.4954 36.5141 16.7163 36.3987 16.9182C36.3235 17.0632 36.1976 17.1715 36.0476 17.2204C35.9714 17.2428 35.8918 17.249 35.8133 17.2386C35.7348 17.2282 35.6591 17.2014 35.5906 17.1598C35.384 17.0465 35.1974 16.8968 35.0388 16.7173C34.668 16.3144 34.3472 15.8637 34.0841 15.376L34.1484 16.2687C34.204 16.7306 34.1917 17.1988 34.1119 17.6568C34.0778 17.8185 34.0202 17.9736 33.9411 18.1169C33.8677 18.2373 33.7703 18.3397 33.6557 18.4168C33.5892 18.4611 33.5146 18.4901 33.4367 18.5019C33.3962 18.5086 33.3551 18.5114 33.3141 18.5103C33.2669 18.5135 33.2196 18.5135 33.1725 18.5103C32.9396 18.4796 32.7148 18.4015 32.5104 18.2802C31.9098 17.9219 31.3815 17.4439 30.955 16.873L30.7536 16.6107C30.8725 17.1046 30.9798 17.6015 31.0915 18.1245C31.2041 18.5615 31.2598 19.0124 31.2572 19.4651C31.2554 19.5966 31.2275 19.7263 31.1752 19.8458C31.1229 19.9654 31.0474 20.0721 30.9536 20.1591C30.8188 20.2696 30.6599 20.3431 30.4913 20.3728C30.3226 20.4026 30.1496 20.3876 29.9879 20.3293C29.4973 20.1711 29.047 19.8988 28.6704 19.5326C28.5376 19.4134 28.4354 19.3188 28.3639 19.2488C28.2923 19.1788 28.2347 19.1182 28.1909 19.0671C28.3033 19.3171 28.4069 19.5579 28.4989 19.7879C28.5964 20.033 28.6461 20.2961 28.6449 20.5617C28.6819 21.0889 28.6432 21.6188 28.5303 22.1339C28.332 23.0925 27.8252 23.95 27.0953 24.5618C26.594 25.0094 25.9554 25.2511 25.2975 25.242C25.05 25.2393 24.8062 25.179 24.5835 25.0653C24.3609 24.9517 24.165 24.7876 24.01 24.5848C23.8642 24.9718 23.6864 25.3447 23.4786 25.6991C23.2757 26.0242 23.0443 26.3287 22.7874 26.6086C22.5807 26.8309 22.3579 27.036 22.121 27.2221C21.9998 27.3167 21.8755 27.4082 21.748 27.4967C21.602 27.5849 21.456 27.6708 21.3101 27.7521C21.0088 27.9202 20.6966 28.0657 20.3758 28.1876C20.0404 28.3065 19.6993 28.4068 19.3539 28.4883C19.0049 28.5617 18.6516 28.6104 18.2963 28.634C17.9867 28.6593 17.6755 28.6529 17.3671 28.6148C17.1016 28.5862 16.8386 28.5349 16.581 28.4614C16.3601 28.3894 16.1471 28.2933 15.9453 28.1746C15.7212 28.0433 15.5197 27.8735 15.3489 27.6723C15.1951 27.4805 15.0776 27.2595 15.003 27.0212C14.7352 27.2228 14.4542 27.4042 14.1621 27.5642C13.9139 27.6932 13.6549 27.7979 13.3884 27.8771C13.1869 27.938 12.9812 27.9826 12.7731 28.0105C12.5614 28.0326 12.3486 28.0405 12.1359 28.0343C11.9157 28.0304 11.696 28.0087 11.479 27.9691C11.2571 27.9241 11.0378 27.8663 10.8221 27.7958C10.004 27.5729 9.27812 27.0742 8.75572 26.3763C8.58107 26.1487 8.47375 25.8723 8.44703 25.5813C8.42031 25.2903 8.47535 24.9974 8.60536 24.7389C8.93488 24.1384 9.35717 23.5996 9.85495 23.1446C10.0928 22.9024 10.3551 22.6549 10.6358 22.39C11.0262 22.0216 11.4525 21.6195 11.8987 21.1507C11.8539 21.1187 11.8088 21.0878 11.7639 21.0571L11.7638 21.057L11.7638 21.057C11.6782 20.9985 11.5932 20.9402 11.5118 20.8754L11.1469 20.577C11.0162 20.7044 10.8848 20.8225 10.7571 20.9344C10.6294 21.0464 10.5038 21.1461 10.3798 21.2412C10.1472 21.4193 9.90596 21.5846 9.65715 21.7366C9.54109 21.8072 9.42796 21.8708 9.31629 21.9322C9.27258 21.9505 9.22793 21.9707 9.18338 21.9909L9.18335 21.9909L9.18332 21.9909L9.18329 21.9909L9.18326 21.9909L9.18323 21.9909L9.18321 21.991L9.18318 21.991L9.18315 21.991L9.18312 21.991L9.18309 21.991L9.18306 21.991L9.18289 21.9911C9.12345 22.018 9.06419 22.0448 9.00753 22.0671C8.82572 22.1426 8.63885 22.2039 8.44843 22.2504C8.19713 22.315 7.93822 22.3409 7.67984 22.3271L7.66159 22.3325C7.44474 22.3968 7.22337 22.4429 6.99957 22.4705C6.87695 22.4866 6.74411 22.4989 6.61272 22.5058C6.48134 22.5127 6.34557 22.5119 6.19959 22.5058C5.89941 22.4978 5.60013 22.4676 5.304 22.4153C5.00677 22.3532 4.71408 22.2691 4.42811 22.1638C4.28505 22.1116 4.1325 22.048 3.99747 21.9897C3.86244 21.9314 3.73178 21.867 3.6004 21.801C3.52684 21.7641 3.4558 21.7233 3.38394 21.6821L3.38373 21.6819L3.38346 21.6818L3.38337 21.6817C3.32708 21.6494 3.27028 21.6168 3.21137 21.5855C3.15528 21.5346 3.09321 21.4889 3.03036 21.4427C2.97299 21.4005 2.91497 21.3578 2.86028 21.3102C2.36375 20.904 1.92823 20.4216 1.56835 19.8792C1.36429 19.5673 1.17738 19.2434 1.00851 18.9091C0.905759 18.7269 0.811963 18.5393 0.727499 18.347C0.710148 18.3075 0.693141 18.2669 0.676161 18.2264L0.676129 18.2263C0.650261 18.1646 0.624453 18.103 0.597581 18.0456L0.467657 17.761C0.18116 17.1102 0.0228712 16.4051 0.00230035 15.6883C-0.0182705 14.9715 0.0993005 14.2578 0.347951 13.59C0.513133 13.2302 0.774877 12.9291 1.10093 12.7238C1.42699 12.5184 1.80311 12.4178 2.18294 12.4343C2.65392 12.4388 3.12152 12.5184 3.56975 12.6705C4.03542 12.8396 4.48017 13.0667 4.89453 13.3469L4.89554 13.3475L4.89555 13.3475L4.89556 13.3475C5.36016 13.6448 5.82113 13.9399 6.29594 14.1812C6.74029 14.4052 7.19566 14.6041 7.66014 14.7771C7.86253 14.8545 8.05519 14.9575 8.23384 15.0839C8.42494 15.2312 8.59824 15.4024 8.74988 15.5938C8.87344 15.7411 8.97687 15.9058 9.05717 16.0831C9.14317 16.2827 9.20638 16.4922 9.24549 16.7074C9.33063 16.8247 9.3929 16.9585 9.42872 17.1012C9.46454 17.2438 9.47321 17.3925 9.45423 17.5387C9.41271 17.8764 9.27126 18.1918 9.04987 18.4405C8.61609 18.955 8.02536 19.2948 7.37912 19.4014C7.10352 19.4944 6.8085 19.5035 6.5282 19.4276C6.2479 19.3517 5.99377 19.194 5.79522 18.9727C5.63612 18.752 5.54267 18.4868 5.52662 18.2104C5.50768 18.1095 5.51393 18.0051 5.54475 17.9074C5.57558 17.8097 5.62993 17.722 5.70253 17.6529C6.07403 17.4492 6.47547 17.3126 6.89008 17.2488C7.32643 17.1537 7.75175 17.0094 8.15866 16.8185L8.09004 16.7158C7.98572 16.5951 7.85738 16.5 7.71414 16.4374C7.53877 16.3566 7.35354 16.3019 7.16379 16.2748C6.65505 16.1782 6.14631 16.0732 5.61494 15.9405L4.8084 15.7219C4.53907 15.6444 4.26826 15.5631 3.99382 15.4788C3.87454 15.4417 3.75908 15.4053 3.64725 15.3701L3.6469 15.37L3.64689 15.37C2.72694 15.0799 2.05287 14.8675 1.52383 14.9987C1.35665 15.0307 1.20071 15.1093 1.07231 15.2263C0.943913 15.3432 0.847778 15.4943 0.793928 15.6636C0.727072 15.8744 0.708317 16.0987 0.739182 16.3185C0.762065 16.6154 0.822948 16.9077 0.920194 17.1874C1.01255 17.4478 1.12535 17.6997 1.25741 17.9405C1.37871 18.1932 1.51983 18.4348 1.6793 18.6629C1.94372 19.0959 2.26653 19.4862 2.63766 19.8217C3.00503 20.1506 3.41371 20.4249 3.85222 20.6369L4.02448 20.7136C4.03412 20.7195 4.04544 20.7238 4.05669 20.728C4.0761 20.7353 4.09533 20.7425 4.10549 20.7581L4.20112 20.7895C4.32447 20.8348 4.45002 20.8769 4.57994 20.9168C4.70986 20.9567 4.83978 20.9935 4.97919 21.028C5.11861 21.0625 5.27116 21.0993 5.41714 21.13C5.68207 21.1858 5.95032 21.2224 6.22003 21.2396C6.49115 21.251 6.76271 21.241 7.03242 21.2097L7.19737 21.1699C8.4841 20.8273 9.66054 20.1303 10.6053 19.1507C10.5196 19.0093 10.4572 18.8537 10.4206 18.6905C10.412 18.6344 10.414 18.5771 10.4266 18.5218C10.4391 18.4666 10.4619 18.4144 10.4936 18.3684C10.7162 18.1018 11.0203 17.9251 11.3534 17.8684C11.536 17.8124 11.7253 17.784 11.9155 17.7841C11.9981 17.7862 12.0803 17.7973 12.1607 17.817C12.2416 17.8288 12.3209 17.8502 12.3972 17.8807C12.5412 17.938 12.6599 18.0492 12.7308 18.1928C12.7654 18.2641 12.7859 18.3421 12.7911 18.422C12.7962 18.5018 12.7859 18.582 12.7607 18.6575C12.7253 18.7618 12.6819 18.8629 12.6308 18.9597C12.5594 19.098 12.4804 19.232 12.3943 19.3608C12.4401 19.3924 12.4856 19.426 12.5315 19.4599L12.5316 19.4599C12.6181 19.5238 12.7056 19.5884 12.7972 19.6415L13.222 19.8983C13.3103 19.7981 13.406 19.7053 13.5081 19.6207C13.6315 19.5193 13.7602 19.4251 13.8935 19.3385C13.9361 19.3316 13.9761 19.3224 14.0135 19.3138L14.0135 19.3138L14.0136 19.3138C14.046 19.3064 14.0763 19.2994 14.1045 19.2948C14.1511 19.2855 14.1986 19.2816 14.2461 19.2833C14.3498 19.2919 14.4511 19.3211 14.5446 19.3692C14.6534 19.4149 14.7552 19.4772 14.8468 19.554C14.9349 19.6114 15.0099 19.6885 15.0664 19.7799C15.1229 19.8712 15.1596 19.9745 15.1738 20.0824C15.1773 20.2387 15.1299 20.3916 15.0395 20.5157C14.8967 20.6991 14.726 20.8564 14.5344 20.9812C14.3577 21.2389 14.1782 21.4743 13.9986 21.7044C13.9588 21.7554 13.9189 21.8069 13.8789 21.8585L13.8789 21.8585L13.8789 21.8585L13.8788 21.8586L13.8788 21.8586L13.8788 21.8586L13.8788 21.8586L13.8788 21.8586L13.8788 21.8586L13.8788 21.8587L13.8787 21.8587L13.8787 21.8587L13.8787 21.8587C13.7384 22.0397 13.5975 22.2214 13.4607 22.3831L13.4582 22.3861L13.4582 22.3862C13.1065 22.8115 12.7643 23.2253 12.4563 23.6185C11.8983 24.2429 11.4674 24.9803 11.19 25.7857C11.1591 25.8854 11.1474 25.9906 11.1554 26.0951C11.1634 26.1996 11.191 26.3014 11.2367 26.3946C11.281 26.4849 11.3429 26.5644 11.4183 26.628C11.4938 26.6915 11.5811 26.7377 11.6746 26.7635C11.9576 26.8393 12.2526 26.8513 12.5403 26.7988C12.7067 26.7734 12.871 26.7342 13.0315 26.6815C13.4811 26.5153 13.9033 26.2762 14.2826 25.9729C14.5322 25.767 14.7662 25.5411 14.9825 25.2973C15.1762 24.4589 15.4254 23.6358 15.7285 22.834C16.177 21.5971 16.561 20.3355 16.8788 19.0548C16.9219 18.8631 16.9679 18.6882 17.0175 18.5349C17.0671 18.3815 17.1219 18.2472 17.1766 18.1146C17.2565 17.9002 17.3997 17.7185 17.5854 17.5962C17.678 17.5439 17.7798 17.5117 17.8846 17.5018C18.0274 17.4944 18.1704 17.4996 18.3124 17.5172C18.3803 17.5017 18.4582 17.4779 18.5482 17.4504L18.5483 17.4504C18.6148 17.4301 18.6879 17.4078 18.7685 17.3853C19.0009 17.2938 19.256 17.288 19.4919 17.3688C19.7278 17.4497 19.9306 17.6123 20.067 17.8301C20.4809 18.3507 20.7898 18.9542 20.9753 19.6039C21.1607 20.2536 21.2187 20.9361 21.1458 21.6101C21.0749 22.2581 20.842 22.8749 20.4707 23.3977C20.1177 23.8638 19.6381 24.2062 19.0955 24.3793C18.8627 24.4474 18.6209 24.4757 18.3795 24.4629C18.1332 24.4486 17.8913 24.3886 17.6649 24.2857C17.6221 24.559 17.6004 24.8355 17.6 25.1124C17.6008 25.4005 17.6297 25.6879 17.6861 25.9698C17.7455 26.4531 17.9849 26.8918 18.3518 27.1899C18.5297 27.3152 18.7328 27.3956 18.9452 27.4246C19.1936 27.4465 19.4438 27.4229 19.6846 27.3548C20.2329 27.2027 20.747 26.9376 21.1969 26.5749C21.6966 26.1651 22.1219 25.664 22.4524 25.0956C22.534 24.9636 22.6069 24.8234 22.6769 24.6888L22.6769 24.6888C22.6952 24.6537 22.7132 24.6189 22.7312 24.5848L22.7742 24.4842C22.838 24.3356 22.8995 24.1924 22.9502 24.0426C23.0751 23.683 23.1684 23.312 23.229 22.9345C23.1465 22.6661 23.0735 22.3854 23.0005 22.087C22.7953 21.2159 22.6496 20.2562 22.4908 19.2102L22.4908 19.2101L22.4908 19.21L22.4908 19.2099L22.4502 18.9428C22.2486 17.9496 22.1207 16.9415 22.0677 15.9274C21.9708 15.2352 22.1273 14.53 22.5056 13.9542C22.6947 13.7069 22.9484 13.523 23.2356 13.4251C23.582 13.3196 23.9462 13.2948 24.3027 13.3522C24.3832 13.1771 24.4752 13.008 24.5778 12.8461C24.6515 12.7335 24.7345 12.628 24.826 12.5309C25.0613 12.2602 25.3742 12.0774 25.7172 12.0102C25.8434 11.9802 25.9749 11.9856 26.0984 12.026C26.222 12.0664 26.3332 12.1403 26.4209 12.2403C26.624 12.6229 26.7779 13.0321 26.8785 13.4573C27.0427 14.0202 27.1931 14.4642 27.323 14.8032C27.6483 15.6738 28.0421 16.5144 28.5004 17.3162C28.7658 17.8122 29.0855 18.274 29.4529 18.692C29.5355 18.7844 29.6347 18.8587 29.7448 18.9106C29.7787 18.9237 29.8154 18.9264 29.8507 18.9183C29.886 18.9103 29.9184 18.892 29.9441 18.8654C30.0361 18.7825 30.0412 18.544 29.9777 18.1345C29.9479 17.9426 29.8909 17.6697 29.8154 17.3081L29.8154 17.308L29.8153 17.3078C29.7297 16.8977 29.6202 16.3736 29.4996 15.7242C29.4587 15.501 29.4062 15.2319 29.3354 14.9006C29.2646 14.5693 29.2595 14.3729 29.3076 14.3085C29.0974 13.9205 28.8784 13.501 28.6595 13.0455C27.6222 10.9129 26.8293 8.65863 26.2975 6.32984C26.0899 6.49942 25.9008 6.66784 25.717 6.83151C25.6423 6.89803 25.5684 6.96377 25.4946 7.02848C25.2391 7.25241 25.0173 7.45792 24.81 7.65195L23.891 8.52083C23.5911 8.84769 23.2263 9.10095 22.8224 9.26244C22.694 9.31912 22.5525 9.33416 22.4159 9.30559C22.2793 9.27703 22.154 9.20614 22.056 9.10212C21.8809 8.90427 21.967 8.5055 22.348 7.90733C22.6826 7.406 23.0606 6.93828 23.4772 6.51009C24.2612 5.67525 25.1029 4.90241 25.9953 4.19792C25.7782 3.2987 25.7206 2.36517 25.8253 1.44403C25.8821 1.20613 25.9874 0.984027 26.1338 0.792987C26.2802 0.601947 26.4643 0.446516 26.6734 0.337414C26.9835 0.140898 27.3339 0.025424 27.6953 0.000731408C28.0055 -0.00923811 28.1982 0.0827733 28.2792 0.272961C28.1731 1.06669 28.1662 1.87159 28.2588 2.66719C28.8788 2.27236 29.5192 1.91396 30.1769 1.59357C30.7535 1.31372 31.3444 1.06768 31.947 0.856598C32.886 0.480747 33.8836 0.292445 34.8885 0.301373C35.4797 0.356589 35.7972 0.605022 35.8541 1.02988C35.8746 1.17942 35.8023 1.29526 35.6425 1.39188C35.2883 1.54326 34.9195 1.65332 34.5425 1.72009C33.4693 1.99837 32.426 2.39102 31.4287 2.89191C30.3808 3.40821 29.3656 3.99479 28.3894 4.64806C28.4853 6.00122 28.685 7.34407 28.9865 8.66349C29.1281 9.28314 29.285 9.87514 29.4573 10.4442C29.6344 11.0168 29.8203 11.5662 30.0149 12.0922C30.5565 13.6151 31.2714 15.0635 32.144 16.406C32.2891 16.6297 32.4681 16.8268 32.6739 16.9896C32.8389 17.1077 32.963 17.1322 33.0579 17.0762C33.2068 16.988 33.2644 16.7058 33.2688 16.2541C33.2703 16.0264 33.2542 15.7503 33.2301 15.4435C33.2061 15.1368 33.1703 14.7878 33.1258 14.3921C33.0564 13.8177 32.9717 13.1843 32.8659 12.4542C32.7462 12.0669 32.6331 11.6582 32.5345 11.2318C32.2487 10.2349 32.1495 9.18926 32.2426 8.15273C32.2913 7.85759 32.432 7.58783 32.6426 7.38585C32.8907 7.13764 33.1907 6.9538 33.5185 6.84902C33.6828 6.78311 33.8642 6.78174 34.0294 6.84518C34.1033 6.88188 34.1682 6.93611 34.2188 7.00358C34.2695 7.07104 34.3046 7.1499 34.3213 7.23401C34.3363 7.50655 34.3307 7.77988 34.3046 8.05149C34.2921 8.36745 34.2856 8.62898 34.2819 8.83757L34.2892 9.55386C34.2962 10.7546 34.3938 11.9529 34.5812 13.1375C34.6716 13.7698 34.8197 14.3916 35.0235 14.9941C35.0914 15.1963 35.1943 15.3835 35.3272 15.5463C35.3644 15.5935 35.4138 15.6285 35.4694 15.6473C35.525 15.666 35.5845 15.6677 35.641 15.6521C35.7198 15.6276 35.7906 15.5256 35.86 15.3407C35.9506 15.0869 36.0238 14.8265 36.079 14.5616C36.2115 13.997 36.3414 13.3005 36.4961 12.471C36.5264 12.3089 36.5576 12.1417 36.5899 11.9695C36.6118 11.8238 36.6439 11.6145 36.6913 11.3438C36.7052 11.2602 36.7198 11.1873 36.7344 11.1198C36.6425 10.193 36.6259 9.25967 36.6848 8.3299C36.811 6.61207 37.2103 5.69181 37.7263 5.65193C38.0786 5.64509 38.4227 5.76406 38.7022 5.98936C39.065 6.23477 39.2358 6.49167 39.2358 6.70256C39.2285 6.8514 39.1834 6.99548 39.1051 7.11975C38.9867 7.3151 38.8563 7.50209 38.7146 7.67956C38.4339 8.67126 38.2788 9.69748 38.2533 10.7318C38.2034 12.1253 38.2278 13.5206 38.3263 14.9113C38.6432 12.8987 39.2265 10.9426 40.0591 9.09983C40.2306 8.72559 40.408 8.36672 40.5839 8.04999C40.7598 7.73327 40.9365 7.43646 41.108 7.17419C41.2795 6.91191 41.4474 6.66113 41.608 6.45177C41.7686 6.24241 41.9189 6.05759 42.0605 5.89654C43.2028 4.59974 44.2568 4.13733 44.9196 4.34363C45.2043 4.42173 45.4718 4.55744 45.7071 4.74317C45.7727 4.79724 45.8193 4.87274 45.8395 4.95774C45.8598 5.04273 45.8525 5.13236 45.8188 5.21251C45.6081 5.42464 45.3602 5.59182 45.0889 5.70482ZM18.3656 19.7511C18.2646 20.0838 18.1854 20.4232 18.1284 20.7672C17.9408 21.391 17.8863 22.0506 17.9686 22.699C18.0232 22.9432 18.1634 23.1568 18.3613 23.2972C18.4565 23.3589 18.5639 23.3969 18.6753 23.408C18.7866 23.4192 18.899 23.4033 19.0036 23.3616C19.2351 23.2661 19.4245 23.0835 19.5349 22.8493C19.6822 22.5239 19.757 22.1675 19.7539 21.8071C19.7775 21.005 19.5879 20.2118 19.2065 19.5164C19.149 19.408 19.0585 19.323 18.9496 19.2749C18.9045 19.2501 18.8544 19.2372 18.8036 19.2372C18.7527 19.2372 18.7026 19.2501 18.6576 19.2749C18.5086 19.3913 18.4049 19.5605 18.3656 19.7511ZM26.5318 23.2435C26.8397 22.8918 27.0303 22.4445 27.0749 21.969C27.1926 21.2499 27.1906 20.5147 27.069 19.7964C27.0233 19.4865 26.9646 19.1834 26.8931 18.8868C26.8581 18.7396 26.8223 18.5908 26.7792 18.4497L26.6165 18.0663C26.397 17.5514 26.1656 17.0402 25.9223 16.5325C25.6614 15.8922 25.3347 15.2838 24.9479 14.7181C24.8531 14.6157 24.724 14.5563 24.5881 14.5524C24.5222 14.5543 24.4575 14.5713 24.3985 14.6021C24.3395 14.633 24.2876 14.677 24.2465 14.7311C24.1105 14.9524 24.0192 15.2006 23.9781 15.4605C23.9371 15.7203 23.9472 15.9863 24.0078 16.2419C24.1283 17.1204 24.3078 17.9889 24.545 18.8408C24.5847 18.9913 24.6237 19.1398 24.6622 19.2864C24.8755 20.0989 25.0727 20.8504 25.2873 21.5326C25.43 22.1299 25.6759 22.6945 26.0128 23.1983C26.0861 23.2876 26.1854 23.3488 26.2953 23.3724C26.3409 23.3686 26.3854 23.3553 26.426 23.3331C26.4666 23.311 26.5026 23.2805 26.5318 23.2435ZM33.605 2.95012C33.882 2.84117 34.1882 2.84801 34.4604 2.96926C34.5691 3.03405 34.6621 3.12442 34.732 3.23325C34.8019 3.34208 34.8468 3.46647 34.8634 3.59661C34.8988 3.83419 34.8855 4.07696 34.8243 4.30869C34.7631 4.54042 34.6555 4.75571 34.5086 4.94016C34.2373 5.37354 33.8344 5.69785 33.3656 5.86044C33.0605 5.97669 32.7281 5.98771 32.4167 5.89189C32.2769 5.8421 32.1499 5.75903 32.0457 5.64915C31.9415 5.53926 31.8629 5.40554 31.816 5.25845C31.7442 5.02172 31.7387 4.76825 31.8003 4.52835C31.8619 4.28846 31.988 4.07226 32.1634 3.90563C32.5453 3.44663 33.0463 3.11459 33.605 2.95012ZM68.6553 20.5662C68.3004 20.4061 67.9248 20.3028 67.5408 20.2594C66.9461 20.1779 66.3462 20.1453 65.7467 20.162C65.3956 20.162 64.9839 20.1965 64.5606 20.2334C64.1372 20.2702 63.6847 20.3215 63.2037 20.3867C61.1307 20.6819 59.4848 21.0202 58.2141 21.307C58.349 20.8917 58.4228 20.4573 58.433 20.0186C58.4494 19.7037 58.3781 19.3906 58.2279 19.1175C58.0993 18.9134 57.9137 18.7561 57.6966 18.6673C57.3868 18.5398 57.0623 18.4557 56.7316 18.4173C55.2016 18.286 53.6628 18.508 52.223 19.0677C51.53 19.3245 50.8608 19.6475 50.2238 20.0324C49.4406 20.2625 48.8954 20.4105 48.545 20.4856C48.1472 20.5685 47.9071 20.5623 47.8151 20.4573C47.7611 20.3959 47.7648 20.3039 47.8304 20.175C47.9303 20.0006 48.0546 19.8429 48.1991 19.7072C49.5385 18.4673 51.0156 17.4018 52.5982 16.5339C55.029 15.1254 57.626 14.0597 60.322 13.3643C60.7855 13.2432 61.3957 13.1044 62.1577 12.9663C62.8212 12.9024 63.4724 12.7381 64.0912 12.4786C64.1979 12.3875 64.2779 12.2666 64.3221 12.1299C64.3663 11.9931 64.3728 11.8461 64.3409 11.7056C64.28 11.2864 64.1114 10.8927 63.8533 10.5667C63.6672 10.3029 63.0446 10.2554 62.0212 10.4624C60.5659 10.8013 59.1474 11.2957 57.7878 11.9379C56.8251 12.3751 55.9689 12.7915 55.2091 13.1749C54.4492 13.5583 53.7777 13.9203 53.2033 14.2348C53.2283 13.7964 53.1885 13.3566 53.085 12.931C53.0195 12.6225 52.8693 12.3409 52.6529 12.1212C52.4757 11.9605 52.2553 11.8616 52.0223 11.8382C51.691 11.8025 51.3567 11.8133 51.0281 11.8704C50.2876 12.0178 49.5669 12.2588 48.8815 12.5882C48.5393 12.7524 48.206 12.9362 47.883 13.1389C47.5559 13.3488 47.2392 13.5761 46.9341 13.8199L46.8071 13.9241L46.7057 14.0009C45.7196 14.7389 44.6986 15.4241 43.6466 16.0538C43.3051 16.2678 42.9489 16.4549 42.581 16.6136C42.4643 16.6631 42.3413 16.6941 42.216 16.7057C42.126 16.7217 42.0336 16.7113 41.9489 16.6757C41.9069 16.653 41.8704 16.6205 41.8423 16.5806C41.8142 16.5407 41.7953 16.4945 41.7868 16.4457C41.7571 16.2943 41.7519 16.1388 41.7715 15.9856C41.8427 15.4281 41.9715 14.8804 42.1554 14.3521C42.2737 13.9863 42.397 13.6466 42.527 13.3337C42.6575 13.0213 42.8037 12.7164 42.9649 12.4203C43.005 12.6034 43.0709 12.7792 43.1605 12.9418C43.2269 13.0694 43.3309 13.1708 43.4569 13.2309C44.0101 13.487 44.805 13.1442 46.0159 12.3106C46.3181 12.1005 46.6152 11.8766 46.9027 11.6373C47.1907 11.401 47.467 11.1494 47.7305 10.8835C48.2771 10.3337 48.7591 9.71705 49.1662 9.04676C49.3424 8.78344 49.4246 8.46328 49.3983 8.14259C49.3506 7.80805 49.1928 7.50169 48.9523 7.2768L48.4698 6.77063C48.3694 6.57866 48.2495 6.39871 48.1122 6.23384C48.0014 6.1033 47.8679 5.99629 47.7188 5.91864C47.4056 5.77802 47.0595 5.7398 46.7254 5.80898C46.3099 5.90042 45.9176 6.08339 45.5743 6.34581C44.9572 6.80924 44.3938 7.34689 43.8955 7.94782C43.3752 8.58422 42.916 9.27318 42.5248 10.0046C41.842 11.2782 41.3441 12.6517 41.0475 14.0798C40.8534 14.9266 40.768 15.7968 40.7934 16.6673C40.8025 16.9213 40.8575 17.1712 40.9555 17.4035C40.9976 17.4913 41.0523 17.5717 41.1175 17.642C41.1831 17.708 41.2602 17.7601 41.3445 17.7954C41.5271 17.8755 41.7277 17.899 41.9226 17.8629C42.0436 17.8443 42.1625 17.8127 42.2773 17.7685C42.4167 17.7253 42.5529 17.6712 42.6846 17.6067C42.9036 17.4963 43.1569 17.3629 43.4466 17.1942L44.4357 16.5929C44.3576 16.7141 44.2824 16.8353 44.2108 16.9564C43.7936 17.6409 43.4757 18.3868 43.2678 19.1697C43.1029 19.8468 43.1175 20.2433 43.3408 20.4465C43.486 20.5358 43.659 20.5609 43.8218 20.5163C44.1153 20.4525 44.4019 20.3577 44.6773 20.2334C45.0276 20.0884 45.421 19.8913 45.8517 19.6635C46.2823 19.4358 46.7546 19.1666 47.2713 18.8545C46.8536 19.3316 46.5178 19.8811 46.2787 20.4787C46.2052 20.6692 46.1708 20.8738 46.1779 21.0792C46.1842 21.2436 46.2452 21.4004 46.3502 21.5225C46.5085 21.6499 46.6942 21.7346 46.891 21.769C47.0878 21.8033 47.2896 21.7864 47.4786 21.7196C47.7721 21.6631 48.0619 21.5875 48.3465 21.4933C47.8667 21.9514 47.4583 22.4857 47.1363 23.0769C46.8137 23.695 46.7517 24.123 46.9531 24.406C47.0838 24.5483 47.2596 24.6353 47.4473 24.6506C47.7624 24.6892 48.0806 24.6907 48.3961 24.6552C49.3817 24.5457 50.3578 24.3567 51.3157 24.09C50.7929 24.4305 50.3326 24.8669 49.9567 25.3784C49.8403 25.5418 49.76 25.7304 49.7216 25.9305C49.6897 26.0908 49.7141 26.2578 49.7902 26.4006C49.8752 26.5504 50.0029 26.6682 50.1552 26.7373C50.3666 26.8282 50.5907 26.8821 50.8187 26.8968C50.9525 26.9096 51.105 26.9168 51.2763 26.9183C51.4493 26.9183 51.6325 26.9183 51.8602 26.8991C52.3113 26.8669 52.8186 26.8224 53.4084 26.7649L54.2251 26.6882C54.2821 26.6829 54.3368 26.6779 54.3898 26.6731L54.3899 26.673L54.3901 26.673C54.5644 26.6572 54.7196 26.643 54.8718 26.623C55.0448 26.6085 55.2178 26.5801 55.3514 26.554C55.4536 26.5379 55.5542 26.5122 55.6521 26.4773C55.6868 26.4652 55.7186 26.4452 55.7451 26.4187C55.7716 26.3922 55.7922 26.3598 55.8054 26.3239C55.8208 26.2902 55.8289 26.2532 55.8289 26.2158C55.8289 26.1784 55.8208 26.1414 55.8054 26.1077C55.7587 26.0049 55.5171 25.9627 55.0974 25.9896C54.7726 26.0141 54.5032 26.0287 54.2894 26.0302C53.2215 26.0555 52.558 26.054 52.1508 26.0256C51.7435 25.9973 51.5194 25.9252 51.4588 25.8002C51.4245 25.7235 51.4508 25.6383 51.5457 25.5325C51.6855 25.3926 51.8447 25.2757 52.0179 25.1859C52.6448 24.8448 53.2947 24.5526 53.9624 24.3116C54.9733 23.9376 56.0027 23.6214 57.0462 23.3645C57.6623 23.2111 58.2914 23.0739 58.9389 22.9573C59.5863 22.8408 60.2585 22.7418 60.9352 22.672C61.6118 22.6023 62.2935 22.5647 62.9913 22.5547C63.3394 22.5509 63.6935 22.5547 64.0431 22.5654L64.5715 22.5923C64.7321 22.6099 64.8876 22.6329 65.043 22.6567C65.5313 22.7305 66.0124 22.849 66.481 23.011L66.5625 23.0391L66.5625 23.0391C66.9145 23.1607 67.1908 23.2561 67.4072 23.3124C67.4656 23.3277 67.5194 23.34 67.5685 23.3492H67.5868H67.5955H67.5992L67.5517 23.3668H67.5576H67.6006H67.6795C67.7554 23.3708 67.8315 23.3623 67.905 23.3415C67.9554 23.3241 68.0022 23.2968 68.0429 23.261C68.0636 23.2427 68.0827 23.2224 68.0999 23.2004L68.1254 23.1652L68.1313 23.1559L68.1831 23.1375L68.1882 23.1322L68.2072 23.1099C68.3288 22.9559 68.4322 22.787 68.5152 22.6068C68.7418 22.1262 68.8934 21.6104 68.9641 21.0792C68.9786 20.9827 68.9672 20.884 68.9312 20.7939C68.8589 20.6949 68.764 20.6166 68.6553 20.5662ZM43.9846 10.8359C44.2996 10.1199 44.7755 9.49512 45.3714 9.0153C46.1217 8.36575 46.6903 8.11349 46.9662 8.2707C47.0186 8.30172 47.0627 8.34605 47.0944 8.39965C47.1262 8.45325 47.1446 8.51438 47.148 8.57742C47.1685 8.7251 47.1429 8.87578 47.075 9.00688C46.6365 9.84225 46.0779 10.6015 45.4188 11.2577C44.7429 11.9579 44.3043 12.2692 44.0444 12.1404C43.8984 12.0783 43.8255 11.931 43.816 11.6956C43.8159 11.4 43.8733 11.1074 43.9846 10.8359ZM46.8933 18.0676C45.4517 18.9112 44.6897 19.31 44.459 19.1144C44.386 19.0577 44.378 18.9366 44.4225 18.7494C44.4743 18.5444 44.5627 18.3515 44.6831 18.1811C45.1977 17.45 45.7958 16.7881 46.4641 16.2102C47.256 15.5037 48.1383 14.9172 49.0851 14.4679C49.763 14.1313 50.4775 13.8833 51.2128 13.7294C51.3866 13.6723 51.5703 13.6568 51.7506 13.684C51.9308 13.7112 52.1029 13.7804 52.2544 13.8866C52.3398 13.9752 52.3961 14.0902 52.415 14.2148C52.437 14.3901 52.4266 14.5682 52.3843 14.7394L49.3421 16.596C48.4253 17.1596 47.6159 17.6443 46.8933 18.0676ZM57.4579 21.0646C57.4349 21.2397 57.3799 21.4085 57.2958 21.5616L53.8857 22.4964C52.8522 22.7779 51.9369 23.0156 51.1179 23.2112C49.4829 23.6038 48.6049 23.7411 48.4093 23.4642C48.3487 23.3822 48.3633 23.2564 48.4516 23.0846C48.5514 22.8979 48.6877 22.7356 48.8516 22.6084C49.5562 22.0584 50.3237 21.6034 51.1362 21.2541C52.1037 20.8169 53.122 20.516 54.1646 20.3591C54.9099 20.2321 55.667 20.1981 56.42 20.2579C56.9309 20.3177 57.2586 20.4718 57.3849 20.7034C57.4453 20.8125 57.4709 20.9391 57.4579 21.0646ZM56.2827 24.3494C56.3308 24.2417 56.4072 24.1507 56.503 24.0872C57.1518 23.5626 58.3613 24.0411 58.7825 24.6853C58.8944 24.8379 58.967 25.0181 58.9935 25.2087C59.02 25.3992 58.9993 25.5938 58.9335 25.7735C58.7919 26.1117 58.5576 26.1846 58.2401 26.2521C58.0723 26.2881 57.9431 26.0297 58.1168 25.9453C58.2686 25.8717 58.1379 25.6148 58.0708 25.5381C57.9664 25.4373 57.8416 25.3629 57.7058 25.3203C57.3536 25.2622 56.9986 25.2251 56.6424 25.2091C56.5343 25.1735 56.4383 25.1062 56.3655 25.0151C56.2927 24.924 56.2462 24.8129 56.2316 24.6949C56.2169 24.577 56.2347 24.4571 56.2827 24.3494ZM1.98884 11.529C2.0242 10.9262 2.00857 10.3213 1.94213 9.72141C1.98392 9.12555 2.10151 8.53828 2.29175 7.97523C2.29935 7.944 2.29806 7.9111 2.28806 7.88063C2.27805 7.85016 2.25975 7.82344 2.23544 7.80378C2.21113 7.78411 2.18187 7.77236 2.15128 7.76998C2.12068 7.7676 2.09009 7.77469 2.06329 7.79039C0.885956 8.43841 -0.0891952 10.4047 0.542172 11.7269C0.623806 11.8635 0.741017 11.9727 0.879915 12.0414C1.01881 12.1102 1.17357 12.1357 1.32584 12.1149C1.4781 12.0941 1.62149 12.0278 1.739 11.924C1.85651 11.8201 1.94322 11.683 1.98884 11.529ZM4.07234 12.206C3.91635 12.0422 3.82804 11.8203 3.82651 11.5885C4.04686 10.4777 3.92809 9.32214 3.48711 8.28633C3.47151 8.2561 3.46562 8.22136 3.47033 8.18733C3.47503 8.15331 3.49008 8.12183 3.51322 8.09751C3.53636 8.0732 3.56635 8.05738 3.59874 8.05244C3.63113 8.04749 3.66417 8.05369 3.69294 8.07008C4.26694 8.43171 4.73728 8.94955 5.05424 9.56889C5.3712 10.1882 5.52301 10.886 5.49361 11.5885C5.48842 11.8191 5.39893 12.0387 5.24372 12.2018C5.08851 12.3649 4.8795 12.4589 4.66006 12.4643C4.43946 12.4627 4.22833 12.3699 4.07234 12.206ZM7.61044 26.2352C6.31754 26.6317 5.13556 27.3519 4.16602 28.3342C4.07512 28.4344 4.01016 28.5575 3.97738 28.6916C3.94459 28.8258 3.94506 28.9665 3.97872 29.1003C4.01239 29.2342 4.07815 29.3569 4.16971 29.4565C4.26127 29.5561 4.37559 29.6293 4.50177 29.6693C5.05386 29.9051 5.45422 30.4033 5.85416 30.9009C6.17492 31.3 6.4954 31.6988 6.89367 31.9616C6.94233 31.9899 6.99782 32.0027 7.05331 31.9984C7.1088 31.9941 7.16187 31.9728 7.206 31.9372C7.25013 31.9016 7.2834 31.8532 7.30169 31.798C7.31999 31.7428 7.32253 31.6831 7.30899 31.6264C7.13181 30.9372 6.70281 30.4057 6.27273 29.8728C6.10751 29.6681 5.94212 29.4632 5.79079 29.2491C6.63699 28.8401 7.48295 28.4311 8.32867 28.0221C9.30455 27.5558 8.60967 25.9484 7.61044 26.2352ZM12.4924 29.0268C12.6222 28.9869 12.7597 28.9835 12.8911 29.0168C13.0252 29.0604 13.1455 29.1414 13.2393 29.2512C13.3331 29.3609 13.3968 29.4953 13.4237 29.64C13.4506 29.7848 13.4396 29.9345 13.392 30.0732C13.3443 30.2119 13.2618 30.3345 13.1531 30.4279C13.0138 30.9644 12.7297 31.4471 12.3349 31.8175L12.3057 31.8589C12.2803 31.9015 12.2425 31.9344 12.1979 31.9527C12.1533 31.971 12.1044 31.9738 12.0582 31.9606C12.012 31.9475 11.971 31.9191 11.9413 31.8797C11.9117 31.8402 11.8948 31.7918 11.8933 31.7416C11.8894 31.6775 11.8742 31.6192 11.8587 31.5597C11.8398 31.4868 11.8203 31.412 11.8203 31.3221C11.8203 31.1588 11.8313 30.9954 11.8459 30.8328C11.8699 30.5667 11.9167 30.296 11.9656 30.0299C11.9285 29.8933 11.9262 29.7488 11.9588 29.611C11.9914 29.4731 12.0578 29.3466 12.1515 29.2441C12.2451 29.1416 12.3627 29.0667 12.4924 29.0268ZM30.2741 25.0757L30.2741 25.0757C30.208 25.0147 30.142 24.9539 30.0802 24.888C30.0595 24.8662 30.0401 24.846 30.0221 24.8272C29.7956 24.5912 29.7777 24.5725 29.8744 24.2124C29.937 23.9793 30.0401 23.765 30.1401 23.5571C30.3747 23.0693 30.5924 22.6168 30.2306 22.0398C30.1584 21.9141 30.0495 21.8163 29.92 21.761C29.7906 21.7057 29.6476 21.6959 29.5124 21.7331C28.8905 21.98 28.7496 22.3681 28.6219 23.0138C28.4485 23.5365 28.4019 24.0963 28.4861 24.6427C28.6125 25.006 28.8863 25.1742 29.175 25.3516L29.175 25.3516C29.2598 25.4037 29.3459 25.4565 29.4299 25.5154C29.7099 25.7099 30.0059 25.8691 30.3009 26.0277L30.3009 26.0277C30.628 26.2036 30.9537 26.3787 31.2546 26.6005C31.3634 26.6772 31.497 26.4993 31.4006 26.4065C31.0878 26.0612 30.7932 25.6982 30.5182 25.319C30.4422 25.2307 30.3581 25.1531 30.2741 25.0758L30.2741 25.0757L30.2741 25.0757L30.2741 25.0757L30.2741 25.0757ZM34.2996 19.8097C34.5551 19.9561 34.8077 20.1095 35.0595 20.2629C35.5047 20.4603 35.9045 20.7558 36.2317 21.1294C36.3359 21.29 36.3904 21.4806 36.3877 21.675C36.3849 21.8693 36.3251 22.0581 36.2164 22.2153C36.0194 22.5009 35.855 22.8098 35.7266 23.1356C35.663 23.4904 35.5804 23.8412 35.4792 24.1862C35.4156 24.3534 35.1646 24.3442 35.1646 24.1418C35.166 23.9651 35.2114 23.7417 35.2595 23.5055C35.358 23.0212 35.4675 22.4829 35.231 22.1824C35.0931 22.0068 34.6506 21.8709 34.2902 21.7603C34.128 21.7105 33.9825 21.6658 33.8887 21.6248C33.7696 21.5729 33.6493 21.5242 33.5301 21.4759C32.7903 21.1763 32.0912 20.8933 31.9844 19.9561C31.9853 19.7054 32.0805 19.4653 32.2492 19.2881C32.418 19.1108 32.6465 19.0108 32.8851 19.0098H32.9544C33.1008 19.0175 33.2434 19.0617 33.3703 19.1388C33.4972 19.2158 33.6049 19.3236 33.6843 19.453L33.7887 19.5182L34.2996 19.8097ZM44.7334 25.6225C44.2641 26.4162 43.667 27.5182 43.9904 28.4791C44.2034 28.9167 44.4656 29.3258 44.7714 29.6977C45.1283 30.259 45.4882 30.812 45.8662 31.3572C46.0203 31.5796 46.4159 31.46 46.3217 31.1555C46.1966 30.7518 46.0513 30.3517 45.9058 29.9513L45.9058 29.9512L45.9058 29.9511L45.9058 29.951C45.7313 29.4708 45.5567 28.9901 45.4166 28.5021C45.6734 28.1977 45.878 27.8397 46.0817 27.4833C46.2289 27.2257 46.3757 26.9689 46.5414 26.7337C47.3363 25.6155 45.4568 24.3985 44.7334 25.6225ZM50.9882 28.17C51.1174 28.179 51.243 28.2188 51.3554 28.2864C51.4662 28.3558 51.5605 28.4508 51.6313 28.5641C51.7021 28.6774 51.7474 28.8061 51.7639 28.9405C51.7804 29.0749 51.7677 29.2115 51.7266 29.34C51.6856 29.4685 51.6173 29.5855 51.5269 29.6822C51.3512 29.8287 51.1702 29.9679 50.9893 30.1068C50.7729 30.2732 50.5567 30.4394 50.3503 30.6178C50.2627 30.6928 50.1817 30.7801 50.1006 30.8674C49.8965 31.0872 49.6925 31.3069 49.3853 31.3294C49.3579 31.3292 49.3317 31.3177 49.3123 31.2973C49.2929 31.2769 49.2819 31.2494 49.2817 31.2206C49.2722 30.9448 49.4152 30.7254 49.5586 30.5054C49.6345 30.3889 49.7106 30.2722 49.7642 30.1469C49.9256 29.7189 50.0416 29.2734 50.1101 28.8187C50.1457 28.6878 50.2092 28.5672 50.2957 28.4659C50.3822 28.3647 50.4895 28.2854 50.6095 28.2341C50.7294 28.1828 50.8589 28.1609 50.9882 28.17ZM67.8162 11.8655C68.0028 11.8105 68.1753 11.712 68.3207 11.5774C68.4661 11.4427 68.5808 11.2754 68.6562 11.0878C68.7316 10.9002 68.7657 10.6971 68.7562 10.4938C68.7466 10.2904 68.6935 10.0918 68.6009 9.91297C68.4874 9.71941 68.3158 9.57109 68.1132 9.49138C67.9106 9.41167 67.6885 9.40513 67.4819 9.4728C67.3179 9.40239 67.1377 9.38424 66.9639 9.42066C66.7901 9.45707 66.6304 9.5464 66.5046 9.67753C66.3755 9.81798 66.2797 9.98832 66.2248 10.1748C66.1699 10.3613 66.1575 10.5587 66.1885 10.7512C66.214 10.9428 66.2782 11.1265 66.3769 11.2898C66.4757 11.453 66.6066 11.5922 66.7608 11.6978C66.9151 11.8034 67.0892 11.873 67.2712 11.9019C67.4533 11.9309 67.6391 11.9184 67.8162 11.8655ZM71.2923 21.8347C71.3815 21.7422 71.4911 21.6745 71.6114 21.6375C71.7832 21.6043 71.9598 21.6119 72.1285 21.6595C72.2971 21.7072 72.4535 21.7939 72.5862 21.9131C72.719 22.0324 72.8247 22.1813 72.8957 22.3489C72.9667 22.5166 73.0013 22.6987 72.9967 22.8821C72.9907 23.0482 72.951 23.211 72.8805 23.3598C72.81 23.5085 72.7101 23.6397 72.5876 23.7448C72.465 23.8499 72.3226 23.9264 72.1698 23.9693C72.017 24.0121 71.8572 24.0203 71.7012 23.9933C71.5493 23.9786 71.4026 23.9286 71.2714 23.847C71.1402 23.7654 71.0278 23.6543 70.9424 23.5216C70.857 23.3889 70.8008 23.238 70.7776 23.0797C70.7544 22.9213 70.765 22.7596 70.8085 22.6061C70.8669 22.4351 70.9677 22.2837 71.1004 22.1674C71.1372 22.0415 71.2031 21.9272 71.2923 21.8347Z" fill="url(#paint1_linear_1_104)" fill-opacity="0.2"/>
<path fill-rule="evenodd" clip-rule="evenodd" d="M45.0889 5.70482C45.0301 5.73442 44.9735 5.76851 44.9196 5.80681C43.255 7.17298 41.8572 8.864 40.8029 10.787C40.5664 11.2333 40.3598 11.6674 40.1788 12.0907C39.9985 12.5255 39.8445 12.9542 39.7131 13.3691C39.6724 13.4928 39.6367 13.6148 39.601 13.737L39.6008 13.7375C39.577 13.8189 39.5531 13.9005 39.5277 13.9826C39.4635 14.1912 39.4037 14.3957 39.3482 14.5961C39.2365 14.9995 39.1424 15.3829 39.0621 15.7664C39.02 16.1059 38.9153 16.4336 38.754 16.7312C38.6988 16.8065 38.6272 16.867 38.5453 16.9075C38.4521 16.9456 38.3533 16.9666 38.2533 16.9696C38.1396 16.979 38.0258 16.9505 37.9284 16.8881C37.8309 16.8258 37.7546 16.7327 37.7103 16.6222C37.4785 15.8959 37.3075 15.1497 37.1994 14.3921L37.0694 13.6322L36.8351 15.2035C36.7694 15.6468 36.7096 16.0011 36.6424 16.2649C36.5965 16.4954 36.5141 16.7163 36.3987 16.9182C36.3235 17.0632 36.1976 17.1715 36.0476 17.2204C35.9714 17.2428 35.8918 17.249 35.8133 17.2386C35.7348 17.2282 35.6591 17.2014 35.5906 17.1598C35.384 17.0465 35.1974 16.8968 35.0388 16.7173C34.668 16.3144 34.3472 15.8637 34.0841 15.376L34.1484 16.2687C34.204 16.7306 34.1917 17.1988 34.1119 17.6568C34.0778 17.8185 34.0202 17.9736 33.9411 18.1169C33.8677 18.2373 33.7703 18.3397 33.6557 18.4168C33.5892 18.4611 33.5146 18.4901 33.4367 18.5019C33.3962 18.5086 33.3551 18.5114 33.3141 18.5103C33.2669 18.5135 33.2196 18.5135 33.1725 18.5103C32.9396 18.4796 32.7148 18.4015 32.5104 18.2802C31.9098 17.9219 31.3815 17.4439 30.955 16.873L30.7536 16.6107C30.8725 17.1046 30.9798 17.6015 31.0915 18.1245C31.2041 18.5615 31.2598 19.0124 31.2572 19.4651C31.2554 19.5966 31.2275 19.7263 31.1752 19.8458C31.1229 19.9654 31.0474 20.0721 30.9536 20.1591C30.8188 20.2696 30.6599 20.3431 30.4913 20.3728C30.3226 20.4026 30.1496 20.3876 29.9879 20.3293C29.4973 20.1711 29.047 19.8988 28.6704 19.5326C28.5376 19.4134 28.4354 19.3188 28.3639 19.2488C28.2923 19.1788 28.2347 19.1182 28.1909 19.0671C28.3033 19.3171 28.4069 19.5579 28.4989 19.7879C28.5964 20.033 28.6461 20.2961 28.6449 20.5617C28.6819 21.0889 28.6432 21.6188 28.5303 22.1339C28.332 23.0925 27.8252 23.95 27.0953 24.5618C26.594 25.0094 25.9554 25.2511 25.2975 25.242C25.05 25.2393 24.8062 25.179 24.5835 25.0653C24.3609 24.9517 24.165 24.7876 24.01 24.5848C23.8642 24.9718 23.6864 25.3447 23.4786 25.6991C23.2757 26.0242 23.0443 26.3287 22.7874 26.6086C22.5807 26.8309 22.3579 27.036 22.121 27.2221C21.9998 27.3167 21.8755 27.4082 21.748 27.4967C21.602 27.5849 21.456 27.6708 21.3101 27.7521C21.0088 27.9202 20.6966 28.0657 20.3758 28.1876C20.0404 28.3065 19.6993 28.4068 19.3539 28.4883C19.0049 28.5617 18.6516 28.6104 18.2963 28.634C17.9867 28.6593 17.6755 28.6529 17.3671 28.6148C17.1016 28.5862 16.8386 28.5349 16.581 28.4614C16.3601 28.3894 16.1471 28.2933 15.9453 28.1746C15.7212 28.0433 15.5197 27.8735 15.3489 27.6723C15.1951 27.4805 15.0776 27.2595 15.003 27.0212C14.7352 27.2228 14.4542 27.4042 14.1621 27.5642C13.9139 27.6932 13.6549 27.7979 13.3884 27.8771C13.1869 27.938 12.9812 27.9826 12.7731 28.0105C12.5614 28.0326 12.3486 28.0405 12.1359 28.0343C11.9157 28.0304 11.696 28.0087 11.479 27.9691C11.2571 27.9241 11.0378 27.8663 10.8221 27.7958C10.004 27.5729 9.27812 27.0742 8.75572 26.3763C8.58107 26.1487 8.47375 25.8723 8.44703 25.5813C8.42031 25.2903 8.47535 24.9974 8.60536 24.7389C8.93488 24.1384 9.35717 23.5996 9.85495 23.1446C10.0928 22.9024 10.3551 22.6549 10.6358 22.39C11.0262 22.0216 11.4525 21.6195 11.8987 21.1507C11.8539 21.1187 11.8088 21.0878 11.7639 21.0571L11.7638 21.057L11.7638 21.057C11.6782 20.9985 11.5932 20.9402 11.5118 20.8754L11.1469 20.577C11.0162 20.7044 10.8848 20.8225 10.7571 20.9344C10.6294 21.0464 10.5038 21.1461 10.3798 21.2412C10.1472 21.4193 9.90596 21.5846 9.65715 21.7366C9.54109 21.8072 9.42796 21.8708 9.31629 21.9322C9.27258 21.9505 9.22793 21.9707 9.18338 21.9909L9.18335 21.9909L9.18332 21.9909L9.18329 21.9909L9.18326 21.9909L9.18323 21.9909L9.18321 21.991L9.18318 21.991L9.18315 21.991L9.18312 21.991L9.18309 21.991L9.18306 21.991L9.18289 21.9911C9.12345 22.018 9.06419 22.0448 9.00753 22.0671C8.82572 22.1426 8.63885 22.2039 8.44843 22.2504C8.19713 22.315 7.93822 22.3409 7.67984 22.3271L7.66159 22.3325C7.44474 22.3968 7.22337 22.4429 6.99957 22.4705C6.87695 22.4866 6.74411 22.4989 6.61272 22.5058C6.48134 22.5127 6.34557 22.5119 6.19959 22.5058C5.89941 22.4978 5.60013 22.4676 5.304 22.4153C5.00677 22.3532 4.71408 22.2691 4.42811 22.1638C4.28505 22.1116 4.1325 22.048 3.99747 21.9897C3.86244 21.9314 3.73178 21.867 3.6004 21.801C3.52684 21.7641 3.4558 21.7233 3.38394 21.6821L3.38373 21.6819L3.38346 21.6818L3.38337 21.6817C3.32708 21.6494 3.27028 21.6168 3.21137 21.5855C3.15528 21.5346 3.09321 21.4889 3.03036 21.4427C2.97299 21.4005 2.91497 21.3578 2.86028 21.3102C2.36375 20.904 1.92823 20.4216 1.56835 19.8792C1.36429 19.5673 1.17738 19.2434 1.00851 18.9091C0.905759 18.7269 0.811963 18.5393 0.727499 18.347C0.710148 18.3075 0.693141 18.2669 0.676161 18.2264L0.676129 18.2263C0.650261 18.1646 0.624453 18.103 0.597581 18.0456L0.467657 17.761C0.18116 17.1102 0.0228712 16.4051 0.00230035 15.6883C-0.0182705 14.9715 0.0993005 14.2578 0.347951 13.59C0.513133 13.2302 0.774877 12.9291 1.10093 12.7238C1.42699 12.5184 1.80311 12.4178 2.18294 12.4343C2.65392 12.4388 3.12152 12.5184 3.56975 12.6705C4.03542 12.8396 4.48017 13.0667 4.89453 13.3469L4.89554 13.3475L4.89555 13.3475L4.89556 13.3475C5.36016 13.6448 5.82113 13.9399 6.29594 14.1812C6.74029 14.4052 7.19566 14.6041 7.66014 14.7771C7.86253 14.8545 8.05519 14.9575 8.23384 15.0839C8.42494 15.2312 8.59824 15.4024 8.74988 15.5938C8.87344 15.7411 8.97687 15.9058 9.05717 16.0831C9.14317 16.2827 9.20638 16.4922 9.24549 16.7074C9.33063 16.8247 9.3929 16.9585 9.42872 17.1012C9.46454 17.2438 9.47321 17.3925 9.45423 17.5387C9.41271 17.8764 9.27126 18.1918 9.04987 18.4405C8.61609 18.955 8.02536 19.2948 7.37912 19.4014C7.10352 19.4944 6.8085 19.5035 6.5282 19.4276C6.2479 19.3517 5.99377 19.194 5.79522 18.9727C5.63612 18.752 5.54267 18.4868 5.52662 18.2104C5.50768 18.1095 5.51393 18.0051 5.54475 17.9074C5.57558 17.8097 5.62993 17.722 5.70253 17.6529C6.07403 17.4492 6.47547 17.3126 6.89008 17.2488C7.32643 17.1537 7.75175 17.0094 8.15866 16.8185L8.09004 16.7158C7.98572 16.5951 7.85738 16.5 7.71414 16.4374C7.53877 16.3566 7.35354 16.3019 7.16379 16.2748C6.65505 16.1782 6.14631 16.0732 5.61494 15.9405L4.8084 15.7219C4.53907 15.6444 4.26826 15.5631 3.99382 15.4788C3.87454 15.4417 3.75908 15.4053 3.64725 15.3701L3.6469 15.37L3.64689 15.37C2.72694 15.0799 2.05287 14.8675 1.52383 14.9987C1.35665 15.0307 1.20071 15.1093 1.07231 15.2263C0.943913 15.3432 0.847778 15.4943 0.793928 15.6636C0.727072 15.8744 0.708317 16.0987 0.739182 16.3185C0.762065 16.6154 0.822948 16.9077 0.920194 17.1874C1.01255 17.4478 1.12535 17.6997 1.25741 17.9405C1.37871 18.1932 1.51983 18.4348 1.6793 18.6629C1.94372 19.0959 2.26653 19.4862 2.63766 19.8217C3.00503 20.1506 3.41371 20.4249 3.85222 20.6369L4.02448 20.7136C4.03412 20.7195 4.04544 20.7238 4.05669 20.728C4.0761 20.7353 4.09533 20.7425 4.10549 20.7581L4.20112 20.7895C4.32447 20.8348 4.45002 20.8769 4.57994 20.9168C4.70986 20.9567 4.83978 20.9935 4.97919 21.028C5.11861 21.0625 5.27116 21.0993 5.41714 21.13C5.68207 21.1858 5.95032 21.2224 6.22003 21.2396C6.49115 21.251 6.76271 21.241 7.03242 21.2097L7.19737 21.1699C8.4841 20.8273 9.66054 20.1303 10.6053 19.1507C10.5196 19.0093 10.4572 18.8537 10.4206 18.6905C10.412 18.6344 10.414 18.5771 10.4266 18.5218C10.4391 18.4666 10.4619 18.4144 10.4936 18.3684C10.7162 18.1018 11.0203 17.9251 11.3534 17.8684C11.536 17.8124 11.7253 17.784 11.9155 17.7841C11.9981 17.7862 12.0803 17.7973 12.1607 17.817C12.2416 17.8288 12.3209 17.8502 12.3972 17.8807C12.5412 17.938 12.6599 18.0492 12.7308 18.1928C12.7654 18.2641 12.7859 18.3421 12.7911 18.422C12.7962 18.5018 12.7859 18.582 12.7607 18.6575C12.7253 18.7618 12.6819 18.8629 12.6308 18.9597C12.5594 19.098 12.4804 19.232 12.3943 19.3608C12.4401 19.3924 12.4856 19.426 12.5315 19.4599L12.5316 19.4599C12.6181 19.5238 12.7056 19.5884 12.7972 19.6415L13.222 19.8983C13.3103 19.7981 13.406 19.7053 13.5081 19.6207C13.6315 19.5193 13.7602 19.4251 13.8935 19.3385C13.9361 19.3316 13.9761 19.3224 14.0135 19.3138L14.0135 19.3138L14.0136 19.3138C14.046 19.3064 14.0763 19.2994 14.1045 19.2948C14.1511 19.2855 14.1986 19.2816 14.2461 19.2833C14.3498 19.2919 14.4511 19.3211 14.5446 19.3692C14.6534 19.4149 14.7552 19.4772 14.8468 19.554C14.9349 19.6114 15.0099 19.6885 15.0664 19.7799C15.1229 19.8712 15.1596 19.9745 15.1738 20.0824C15.1773 20.2387 15.1299 20.3916 15.0395 20.5157C14.8967 20.6991 14.726 20.8564 14.5344 20.9812C14.3577 21.2389 14.1782 21.4743 13.9986 21.7044C13.9588 21.7554 13.9189 21.8069 13.8789 21.8585L13.8789 21.8585L13.8789 21.8585L13.8788 21.8586L13.8788 21.8586L13.8788 21.8586L13.8788 21.8586L13.8788 21.8586L13.8788 21.8586L13.8788 21.8587L13.8787 21.8587L13.8787 21.8587L13.8787 21.8587C13.7384 22.0397 13.5975 22.2214 13.4607 22.3831L13.4582 22.3861L13.4582 22.3862C13.1065 22.8115 12.7643 23.2253 12.4563 23.6185C11.8983 24.2429 11.4674 24.9803 11.19 25.7857C11.1591 25.8854 11.1474 25.9906 11.1554 26.0951C11.1634 26.1996 11.191 26.3014 11.2367 26.3946C11.281 26.4849 11.3429 26.5644 11.4183 26.628C11.4938 26.6915 11.5811 26.7377 11.6746 26.7635C11.9576 26.8393 12.2526 26.8513 12.5403 26.7988C12.7067 26.7734 12.871 26.7342 13.0315 26.6815C13.4811 26.5153 13.9033 26.2762 14.2826 25.9729C14.5322 25.767 14.7662 25.5411 14.9825 25.2973C15.1762 24.4589 15.4254 23.6358 15.7285 22.834C16.177 21.5971 16.561 20.3355 16.8788 19.0548C16.9219 18.8631 16.9679 18.6882 17.0175 18.5349C17.0671 18.3815 17.1219 18.2472 17.1766 18.1146C17.2565 17.9002 17.3997 17.7185 17.5854 17.5962C17.678 17.5439 17.7798 17.5117 17.8846 17.5018C18.0274 17.4944 18.1704 17.4996 18.3124 17.5172C18.3803 17.5017 18.4582 17.4779 18.5482 17.4504L18.5483 17.4504C18.6148 17.4301 18.6879 17.4078 18.7685 17.3853C19.0009 17.2938 19.256 17.288 19.4919 17.3688C19.7278 17.4497 19.9306 17.6123 20.067 17.8301C20.4809 18.3507 20.7898 18.9542 20.9753 19.6039C21.1607 20.2536 21.2187 20.9361 21.1458 21.6101C21.0749 22.2581 20.842 22.8749 20.4707 23.3977C20.1177 23.8638 19.6381 24.2062 19.0955 24.3793C18.8627 24.4474 18.6209 24.4757 18.3795 24.4629C18.1332 24.4486 17.8913 24.3886 17.6649 24.2857C17.6221 24.559 17.6004 24.8355 17.6 25.1124C17.6008 25.4005 17.6297 25.6879 17.6861 25.9698C17.7455 26.4531 17.9849 26.8918 18.3518 27.1899C18.5297 27.3152 18.7328 27.3956 18.9452 27.4246C19.1936 27.4465 19.4438 27.4229 19.6846 27.3548C20.2329 27.2027 20.747 26.9376 21.1969 26.5749C21.6966 26.1651 22.1219 25.664 22.4524 25.0956C22.534 24.9636 22.6069 24.8234 22.6769 24.6888L22.6769 24.6888C22.6952 24.6537 22.7132 24.6189 22.7312 24.5848L22.7742 24.4842C22.838 24.3356 22.8995 24.1924 22.9502 24.0426C23.0751 23.683 23.1684 23.312 23.229 22.9345C23.1465 22.6661 23.0735 22.3854 23.0005 22.087C22.7953 21.2159 22.6496 20.2562 22.4908 19.2102L22.4908 19.2101L22.4908 19.21L22.4908 19.2099L22.4502 18.9428C22.2486 17.9496 22.1207 16.9415 22.0677 15.9274C21.9708 15.2352 22.1273 14.53 22.5056 13.9542C22.6947 13.7069 22.9484 13.523 23.2356 13.4251C23.582 13.3196 23.9462 13.2948 24.3027 13.3522C24.3832 13.1771 24.4752 13.008 24.5778 12.8461C24.6515 12.7335 24.7345 12.628 24.826 12.5309C25.0613 12.2602 25.3742 12.0774 25.7172 12.0102C25.8434 11.9802 25.9749 11.9856 26.0984 12.026C26.222 12.0664 26.3332 12.1403 26.4209 12.2403C26.624 12.6229 26.7779 13.0321 26.8785 13.4573C27.0427 14.0202 27.1931 14.4642 27.323 14.8032C27.6483 15.6738 28.0421 16.5144 28.5004 17.3162C28.7658 17.8122 29.0855 18.274 29.4529 18.692C29.5355 18.7844 29.6347 18.8587 29.7448 18.9106C29.7787 18.9237 29.8154 18.9264 29.8507 18.9183C29.886 18.9103 29.9184 18.892 29.9441 18.8654C30.0361 18.7825 30.0412 18.544 29.9777 18.1345C29.9479 17.9426 29.8909 17.6697 29.8154 17.3081L29.8154 17.308L29.8153 17.3078C29.7297 16.8977 29.6202 16.3736 29.4996 15.7242C29.4587 15.501 29.4062 15.2319 29.3354 14.9006C29.2646 14.5693 29.2595 14.3729 29.3076 14.3085C29.0974 13.9205 28.8784 13.501 28.6595 13.0455C27.6222 10.9129 26.8293 8.65863 26.2975 6.32984C26.0899 6.49942 25.9008 6.66784 25.717 6.83151C25.6423 6.89803 25.5684 6.96377 25.4946 7.02848C25.2391 7.25241 25.0173 7.45792 24.81 7.65195L23.891 8.52083C23.5911 8.84769 23.2263 9.10095 22.8224 9.26244C22.694 9.31912 22.5525 9.33416 22.4159 9.30559C22.2793 9.27703 22.154 9.20614 22.056 9.10212C21.8809 8.90427 21.967 8.5055 22.348 7.90733C22.6826 7.406 23.0606 6.93828 23.4772 6.51009C24.2612 5.67525 25.1029 4.90241 25.9953 4.19792C25.7782 3.2987 25.7206 2.36517 25.8253 1.44403C25.8821 1.20613 25.9874 0.984027 26.1338 0.792987C26.2802 0.601947 26.4643 0.446516 26.6734 0.337414C26.9835 0.140898 27.3339 0.025424 27.6953 0.000731408C28.0055 -0.00923811 28.1982 0.0827733 28.2792 0.272961C28.1731 1.06669 28.1662 1.87159 28.2588 2.66719C28.8788 2.27236 29.5192 1.91396 30.1769 1.59357C30.7535 1.31372 31.3444 1.06768 31.947 0.856598C32.886 0.480747 33.8836 0.292445 34.8885 0.301373C35.4797 0.356589 35.7972 0.605022 35.8541 1.02988C35.8746 1.17942 35.8023 1.29526 35.6425 1.39188C35.2883 1.54326 34.9195 1.65332 34.5425 1.72009C33.4693 1.99837 32.426 2.39102 31.4287 2.89191C30.3808 3.40821 29.3656 3.99479 28.3894 4.64806C28.4853 6.00122 28.685 7.34407 28.9865 8.66349C29.1281 9.28314 29.285 9.87514 29.4573 10.4442C29.6344 11.0168 29.8203 11.5662 30.0149 12.0922C30.5565 13.6151 31.2714 15.0635 32.144 16.406C32.2891 16.6297 32.4681 16.8268 32.6739 16.9896C32.8389 17.1077 32.963 17.1322 33.0579 17.0762C33.2068 16.988 33.2644 16.7058 33.2688 16.2541C33.2703 16.0264 33.2542 15.7503 33.2301 15.4435C33.2061 15.1368 33.1703 14.7878 33.1258 14.3921C33.0564 13.8177 32.9717 13.1843 32.8659 12.4542C32.7462 12.0669 32.6331 11.6582 32.5345 11.2318C32.2487 10.2349 32.1495 9.18926 32.2426 8.15273C32.2913 7.85759 32.432 7.58783 32.6426 7.38585C32.8907 7.13764 33.1907 6.9538 33.5185 6.84902C33.6828 6.78311 33.8642 6.78174 34.0294 6.84518C34.1033 6.88188 34.1682 6.93611 34.2188 7.00358C34.2695 7.07104 34.3046 7.1499 34.3213 7.23401C34.3363 7.50655 34.3307 7.77988 34.3046 8.05149C34.2921 8.36745 34.2856 8.62898 34.2819 8.83757L34.2892 9.55386C34.2962 10.7546 34.3938 11.9529 34.5812 13.1375C34.6716 13.7698 34.8197 14.3916 35.0235 14.9941C35.0914 15.1963 35.1943 15.3835 35.3272 15.5463C35.3644 15.5935 35.4138 15.6285 35.4694 15.6473C35.525 15.666 35.5845 15.6677 35.641 15.6521C35.7198 15.6276 35.7906 15.5256 35.86 15.3407C35.9506 15.0869 36.0238 14.8265 36.079 14.5616C36.2115 13.997 36.3414 13.3005 36.4961 12.471C36.5264 12.3089 36.5576 12.1417 36.5899 11.9695C36.6118 11.8238 36.6439 11.6145 36.6913 11.3438C36.7052 11.2602 36.7198 11.1873 36.7344 11.1198C36.6425 10.193 36.6259 9.25967 36.6848 8.3299C36.811 6.61207 37.2103 5.69181 37.7263 5.65193C38.0786 5.64509 38.4227 5.76406 38.7022 5.98936C39.065 6.23477 39.2358 6.49167 39.2358 6.70256C39.2285 6.8514 39.1834 6.99548 39.1051 7.11975C38.9867 7.3151 38.8563 7.50209 38.7146 7.67956C38.4339 8.67126 38.2788 9.69748 38.2533 10.7318C38.2034 12.1253 38.2278 13.5206 38.3263 14.9113C38.6432 12.8987 39.2265 10.9426 40.0591 9.09983C40.2306 8.72559 40.408 8.36672 40.5839 8.04999C40.7598 7.73327 40.9365 7.43646 41.108 7.17419C41.2795 6.91191 41.4474 6.66113 41.608 6.45177C41.7686 6.24241 41.9189 6.05759 42.0605 5.89654C43.2028 4.59974 44.2568 4.13733 44.9196 4.34363C45.2043 4.42173 45.4718 4.55744 45.7071 4.74317C45.7727 4.79724 45.8193 4.87274 45.8395 4.95774C45.8598 5.04273 45.8525 5.13236 45.8188 5.21251C45.6081 5.42464 45.3602 5.59182 45.0889 5.70482ZM18.3656 19.7511C18.2646 20.0838 18.1854 20.4232 18.1284 20.7672C17.9408 21.391 17.8863 22.0506 17.9686 22.699C18.0232 22.9432 18.1634 23.1568 18.3613 23.2972C18.4565 23.3589 18.5639 23.3969 18.6753 23.408C18.7866 23.4192 18.899 23.4033 19.0036 23.3616C19.2351 23.2661 19.4245 23.0835 19.5349 22.8493C19.6822 22.5239 19.757 22.1675 19.7539 21.8071C19.7775 21.005 19.5879 20.2118 19.2065 19.5164C19.149 19.408 19.0585 19.323 18.9496 19.2749C18.9045 19.2501 18.8544 19.2372 18.8036 19.2372C18.7527 19.2372 18.7026 19.2501 18.6576 19.2749C18.5086 19.3913 18.4049 19.5605 18.3656 19.7511ZM26.5318 23.2435C26.8397 22.8918 27.0303 22.4445 27.0749 21.969C27.1926 21.2499 27.1906 20.5147 27.069 19.7964C27.0233 19.4865 26.9646 19.1834 26.8931 18.8868C26.8581 18.7396 26.8223 18.5908 26.7792 18.4497L26.6165 18.0663C26.397 17.5514 26.1656 17.0402 25.9223 16.5325C25.6614 15.8922 25.3347 15.2838 24.9479 14.7181C24.8531 14.6157 24.724 14.5563 24.5881 14.5524C24.5222 14.5543 24.4575 14.5713 24.3985 14.6021C24.3395 14.633 24.2876 14.677 24.2465 14.7311C24.1105 14.9524 24.0192 15.2006 23.9781 15.4605C23.9371 15.7203 23.9472 15.9863 24.0078 16.2419C24.1283 17.1204 24.3078 17.9889 24.545 18.8408C24.5847 18.9913 24.6237 19.1398 24.6622 19.2864C24.8755 20.0989 25.0727 20.8504 25.2873 21.5326C25.43 22.1299 25.6759 22.6945 26.0128 23.1983C26.0861 23.2876 26.1854 23.3488 26.2953 23.3724C26.3409 23.3686 26.3854 23.3553 26.426 23.3331C26.4666 23.311 26.5026 23.2805 26.5318 23.2435ZM33.605 2.95012C33.882 2.84117 34.1882 2.84801 34.4604 2.96926C34.5691 3.03405 34.6621 3.12442 34.732 3.23325C34.8019 3.34208 34.8468 3.46647 34.8634 3.59661C34.8988 3.83419 34.8855 4.07696 34.8243 4.30869C34.7631 4.54042 34.6555 4.75571 34.5086 4.94016C34.2373 5.37354 33.8344 5.69785 33.3656 5.86044C33.0605 5.97669 32.7281 5.98771 32.4167 5.89189C32.2769 5.8421 32.1499 5.75903 32.0457 5.64915C31.9415 5.53926 31.8629 5.40554 31.816 5.25845C31.7442 5.02172 31.7387 4.76825 31.8003 4.52835C31.8619 4.28846 31.988 4.07226 32.1634 3.90563C32.5453 3.44663 33.0463 3.11459 33.605 2.95012ZM68.6553 20.5662C68.3004 20.4061 67.9248 20.3028 67.5408 20.2594C66.9461 20.1779 66.3462 20.1453 65.7467 20.162C65.3956 20.162 64.9839 20.1965 64.5606 20.2334C64.1372 20.2702 63.6847 20.3215 63.2037 20.3867C61.1307 20.6819 59.4848 21.0202 58.2141 21.307C58.349 20.8917 58.4228 20.4573 58.433 20.0186C58.4494 19.7037 58.3781 19.3906 58.2279 19.1175C58.0993 18.9134 57.9137 18.7561 57.6966 18.6673C57.3868 18.5398 57.0623 18.4557 56.7316 18.4173C55.2016 18.286 53.6628 18.508 52.223 19.0677C51.53 19.3245 50.8608 19.6475 50.2238 20.0324C49.4406 20.2625 48.8954 20.4105 48.545 20.4856C48.1472 20.5685 47.9071 20.5623 47.8151 20.4573C47.7611 20.3959 47.7648 20.3039 47.8304 20.175C47.9303 20.0006 48.0546 19.8429 48.1991 19.7072C49.5385 18.4673 51.0156 17.4018 52.5982 16.5339C55.029 15.1254 57.626 14.0597 60.322 13.3643C60.7855 13.2432 61.3957 13.1044 62.1577 12.9663C62.8212 12.9024 63.4724 12.7381 64.0912 12.4786C64.1979 12.3875 64.2779 12.2666 64.3221 12.1299C64.3663 11.9931 64.3728 11.8461 64.3409 11.7056C64.28 11.2864 64.1114 10.8927 63.8533 10.5667C63.6672 10.3029 63.0446 10.2554 62.0212 10.4624C60.5659 10.8013 59.1474 11.2957 57.7878 11.9379C56.8251 12.3751 55.9689 12.7915 55.2091 13.1749C54.4492 13.5583 53.7777 13.9203 53.2033 14.2348C53.2283 13.7964 53.1885 13.3566 53.085 12.931C53.0195 12.6225 52.8693 12.3409 52.6529 12.1212C52.4757 11.9605 52.2553 11.8616 52.0223 11.8382C51.691 11.8025 51.3567 11.8133 51.0281 11.8704C50.2876 12.0178 49.5669 12.2588 48.8815 12.5882C48.5393 12.7524 48.206 12.9362 47.883 13.1389C47.5559 13.3488 47.2392 13.5761 46.9341 13.8199L46.8071 13.9241L46.7057 14.0009C45.7196 14.7389 44.6986 15.4241 43.6466 16.0538C43.3051 16.2678 42.9489 16.4549 42.581 16.6136C42.4643 16.6631 42.3413 16.6941 42.216 16.7057C42.126 16.7217 42.0336 16.7113 41.9489 16.6757C41.9069 16.653 41.8704 16.6205 41.8423 16.5806C41.8142 16.5407 41.7953 16.4945 41.7868 16.4457C41.7571 16.2943 41.7519 16.1388 41.7715 15.9856C41.8427 15.4281 41.9715 14.8804 42.1554 14.3521C42.2737 13.9863 42.397 13.6466 42.527 13.3337C42.6575 13.0213 42.8037 12.7164 42.9649 12.4203C43.005 12.6034 43.0709 12.7792 43.1605 12.9418C43.2269 13.0694 43.3309 13.1708 43.4569 13.2309C44.0101 13.487 44.805 13.1442 46.0159 12.3106C46.3181 12.1005 46.6152 11.8766 46.9027 11.6373C47.1907 11.401 47.467 11.1494 47.7305 10.8835C48.2771 10.3337 48.7591 9.71705 49.1662 9.04676C49.3424 8.78344 49.4246 8.46328 49.3983 8.14259C49.3506 7.80805 49.1928 7.50169 48.9523 7.2768L48.4698 6.77063C48.3694 6.57866 48.2495 6.39871 48.1122 6.23384C48.0014 6.1033 47.8679 5.99629 47.7188 5.91864C47.4056 5.77802 47.0595 5.7398 46.7254 5.80898C46.3099 5.90042 45.9176 6.08339 45.5743 6.34581C44.9572 6.80924 44.3938 7.34689 43.8955 7.94782C43.3752 8.58422 42.916 9.27318 42.5248 10.0046C41.842 11.2782 41.3441 12.6517 41.0475 14.0798C40.8534 14.9266 40.768 15.7968 40.7934 16.6673C40.8025 16.9213 40.8575 17.1712 40.9555 17.4035C40.9976 17.4913 41.0523 17.5717 41.1175 17.642C41.1831 17.708 41.2602 17.7601 41.3445 17.7954C41.5271 17.8755 41.7277 17.899 41.9226 17.8629C42.0436 17.8443 42.1625 17.8127 42.2773 17.7685C42.4167 17.7253 42.5529 17.6712 42.6846 17.6067C42.9036 17.4963 43.1569 17.3629 43.4466 17.1942L44.4357 16.5929C44.3576 16.7141 44.2824 16.8353 44.2108 16.9564C43.7936 17.6409 43.4757 18.3868 43.2678 19.1697C43.1029 19.8468 43.1175 20.2433 43.3408 20.4465C43.486 20.5358 43.659 20.5609 43.8218 20.5163C44.1153 20.4525 44.4019 20.3577 44.6773 20.2334C45.0276 20.0884 45.421 19.8913 45.8517 19.6635C46.2823 19.4358 46.7546 19.1666 47.2713 18.8545C46.8536 19.3316 46.5178 19.8811 46.2787 20.4787C46.2052 20.6692 46.1708 20.8738 46.1779 21.0792C46.1842 21.2436 46.2452 21.4004 46.3502 21.5225C46.5085 21.6499 46.6942 21.7346 46.891 21.769C47.0878 21.8033 47.2896 21.7864 47.4786 21.7196C47.7721 21.6631 48.0619 21.5875 48.3465 21.4933C47.8667 21.9514 47.4583 22.4857 47.1363 23.0769C46.8137 23.695 46.7517 24.123 46.9531 24.406C47.0838 24.5483 47.2596 24.6353 47.4473 24.6506C47.7624 24.6892 48.0806 24.6907 48.3961 24.6552C49.3817 24.5457 50.3578 24.3567 51.3157 24.09C50.7929 24.4305 50.3326 24.8669 49.9567 25.3784C49.8403 25.5418 49.76 25.7304 49.7216 25.9305C49.6897 26.0908 49.7141 26.2578 49.7902 26.4006C49.8752 26.5504 50.0029 26.6682 50.1552 26.7373C50.3666 26.8282 50.5907 26.8821 50.8187 26.8968C50.9525 26.9096 51.105 26.9168 51.2763 26.9183C51.4493 26.9183 51.6325 26.9183 51.8602 26.8991C52.3113 26.8669 52.8186 26.8224 53.4084 26.7649L54.2251 26.6882C54.2821 26.6829 54.3368 26.6779 54.3898 26.6731L54.3899 26.673L54.3901 26.673C54.5644 26.6572 54.7196 26.643 54.8718 26.623C55.0448 26.6085 55.2178 26.5801 55.3514 26.554C55.4536 26.5379 55.5542 26.5122 55.6521 26.4773C55.6868 26.4652 55.7186 26.4452 55.7451 26.4187C55.7716 26.3922 55.7922 26.3598 55.8054 26.3239C55.8208 26.2902 55.8289 26.2532 55.8289 26.2158C55.8289 26.1784 55.8208 26.1414 55.8054 26.1077C55.7587 26.0049 55.5171 25.9627 55.0974 25.9896C54.7726 26.0141 54.5032 26.0287 54.2894 26.0302C53.2215 26.0555 52.558 26.054 52.1508 26.0256C51.7435 25.9973 51.5194 25.9252 51.4588 25.8002C51.4245 25.7235 51.4508 25.6383 51.5457 25.5325C51.6855 25.3926 51.8447 25.2757 52.0179 25.1859C52.6448 24.8448 53.2947 24.5526 53.9624 24.3116C54.9733 23.9376 56.0027 23.6214 57.0462 23.3645C57.6623 23.2111 58.2914 23.0739 58.9389 22.9573C59.5863 22.8408 60.2585 22.7418 60.9352 22.672C61.6118 22.6023 62.2935 22.5647 62.9913 22.5547C63.3394 22.5509 63.6935 22.5547 64.0431 22.5654L64.5715 22.5923C64.7321 22.6099 64.8876 22.6329 65.043 22.6567C65.5313 22.7305 66.0124 22.849 66.481 23.011L66.5625 23.0391L66.5625 23.0391C66.9145 23.1607 67.1908 23.2561 67.4072 23.3124C67.4656 23.3277 67.5194 23.34 67.5685 23.3492H67.5868H67.5955H67.5992L67.5517 23.3668H67.5576H67.6006H67.6795C67.7554 23.3708 67.8315 23.3623 67.905 23.3415C67.9554 23.3241 68.0022 23.2968 68.0429 23.261C68.0636 23.2427 68.0827 23.2224 68.0999 23.2004L68.1254 23.1652L68.1313 23.1559L68.1831 23.1375L68.1882 23.1322L68.2072 23.1099C68.3288 22.9559 68.4322 22.787 68.5152 22.6068C68.7418 22.1262 68.8934 21.6104 68.9641 21.0792C68.9786 20.9827 68.9672 20.884 68.9312 20.7939C68.8589 20.6949 68.764 20.6166 68.6553 20.5662ZM43.9846 10.8359C44.2996 10.1199 44.7755 9.49512 45.3714 9.0153C46.1217 8.36575 46.6903 8.11349 46.9662 8.2707C47.0186 8.30172 47.0627 8.34605 47.0944 8.39965C47.1262 8.45325 47.1446 8.51438 47.148 8.57742C47.1685 8.7251 47.1429 8.87578 47.075 9.00688C46.6365 9.84225 46.0779 10.6015 45.4188 11.2577C44.7429 11.9579 44.3043 12.2692 44.0444 12.1404C43.8984 12.0783 43.8255 11.931 43.816 11.6956C43.8159 11.4 43.8733 11.1074 43.9846 10.8359ZM46.8933 18.0676C45.4517 18.9112 44.6897 19.31 44.459 19.1144C44.386 19.0577 44.378 18.9366 44.4225 18.7494C44.4743 18.5444 44.5627 18.3515 44.6831 18.1811C45.1977 17.45 45.7958 16.7881 46.4641 16.2102C47.256 15.5037 48.1383 14.9172 49.0851 14.4679C49.763 14.1313 50.4775 13.8833 51.2128 13.7294C51.3866 13.6723 51.5703 13.6568 51.7506 13.684C51.9308 13.7112 52.1029 13.7804 52.2544 13.8866C52.3398 13.9752 52.3961 14.0902 52.415 14.2148C52.437 14.3901 52.4266 14.5682 52.3843 14.7394L49.3421 16.596C48.4253 17.1596 47.6159 17.6443 46.8933 18.0676ZM57.4579 21.0646C57.4349 21.2397 57.3799 21.4085 57.2958 21.5616L53.8857 22.4964C52.8522 22.7779 51.9369 23.0156 51.1179 23.2112C49.4829 23.6038 48.6049 23.7411 48.4093 23.4642C48.3487 23.3822 48.3633 23.2564 48.4516 23.0846C48.5514 22.8979 48.6877 22.7356 48.8516 22.6084C49.5562 22.0584 50.3237 21.6034 51.1362 21.2541C52.1037 20.8169 53.122 20.516 54.1646 20.3591C54.9099 20.2321 55.667 20.1981 56.42 20.2579C56.9309 20.3177 57.2586 20.4718 57.3849 20.7034C57.4453 20.8125 57.4709 20.9391 57.4579 21.0646ZM56.2827 24.3494C56.3308 24.2417 56.4072 24.1507 56.503 24.0872C57.1518 23.5626 58.3613 24.0411 58.7825 24.6853C58.8944 24.8379 58.967 25.0181 58.9935 25.2087C59.02 25.3992 58.9993 25.5938 58.9335 25.7735C58.7919 26.1117 58.5576 26.1846 58.2401 26.2521C58.0723 26.2881 57.9431 26.0297 58.1168 25.9453C58.2686 25.8717 58.1379 25.6148 58.0708 25.5381C57.9664 25.4373 57.8416 25.3629 57.7058 25.3203C57.3536 25.2622 56.9986 25.2251 56.6424 25.2091C56.5343 25.1735 56.4383 25.1062 56.3655 25.0151C56.2927 24.924 56.2462 24.8129 56.2316 24.6949C56.2169 24.577 56.2347 24.4571 56.2827 24.3494ZM1.98884 11.529C2.0242 10.9262 2.00857 10.3213 1.94213 9.72141C1.98392 9.12555 2.10151 8.53828 2.29175 7.97523C2.29935 7.944 2.29806 7.9111 2.28806 7.88063C2.27805 7.85016 2.25975 7.82344 2.23544 7.80378C2.21113 7.78411 2.18187 7.77236 2.15128 7.76998C2.12068 7.7676 2.09009 7.77469 2.06329 7.79039C0.885956 8.43841 -0.0891952 10.4047 0.542172 11.7269C0.623806 11.8635 0.741017 11.9727 0.879915 12.0414C1.01881 12.1102 1.17357 12.1357 1.32584 12.1149C1.4781 12.0941 1.62149 12.0278 1.739 11.924C1.85651 11.8201 1.94322 11.683 1.98884 11.529ZM4.07234 12.206C3.91635 12.0422 3.82804 11.8203 3.82651 11.5885C4.04686 10.4777 3.92809 9.32214 3.48711 8.28633C3.47151 8.2561 3.46562 8.22136 3.47033 8.18733C3.47503 8.15331 3.49008 8.12183 3.51322 8.09751C3.53636 8.0732 3.56635 8.05738 3.59874 8.05244C3.63113 8.04749 3.66417 8.05369 3.69294 8.07008C4.26694 8.43171 4.73728 8.94955 5.05424 9.56889C5.3712 10.1882 5.52301 10.886 5.49361 11.5885C5.48842 11.8191 5.39893 12.0387 5.24372 12.2018C5.08851 12.3649 4.8795 12.4589 4.66006 12.4643C4.43946 12.4627 4.22833 12.3699 4.07234 12.206ZM7.61044 26.2352C6.31754 26.6317 5.13556 27.3519 4.16602 28.3342C4.07512 28.4344 4.01016 28.5575 3.97738 28.6916C3.94459 28.8258 3.94506 28.9665 3.97872 29.1003C4.01239 29.2342 4.07815 29.3569 4.16971 29.4565C4.26127 29.5561 4.37559 29.6293 4.50177 29.6693C5.05386 29.9051 5.45422 30.4033 5.85416 30.9009C6.17492 31.3 6.4954 31.6988 6.89367 31.9616C6.94233 31.9899 6.99782 32.0027 7.05331 31.9984C7.1088 31.9941 7.16187 31.9728 7.206 31.9372C7.25013 31.9016 7.2834 31.8532 7.30169 31.798C7.31999 31.7428 7.32253 31.6831 7.30899 31.6264C7.13181 30.9372 6.70281 30.4057 6.27273 29.8728C6.10751 29.6681 5.94212 29.4632 5.79079 29.2491C6.63699 28.8401 7.48295 28.4311 8.32867 28.0221C9.30455 27.5558 8.60967 25.9484 7.61044 26.2352ZM12.4924 29.0268C12.6222 28.9869 12.7597 28.9835 12.8911 29.0168C13.0252 29.0604 13.1455 29.1414 13.2393 29.2512C13.3331 29.3609 13.3968 29.4953 13.4237 29.64C13.4506 29.7848 13.4396 29.9345 13.392 30.0732C13.3443 30.2119 13.2618 30.3345 13.1531 30.4279C13.0138 30.9644 12.7297 31.4471 12.3349 31.8175L12.3057 31.8589C12.2803 31.9015 12.2425 31.9344 12.1979 31.9527C12.1533 31.971 12.1044 31.9738 12.0582 31.9606C12.012 31.9475 11.971 31.9191 11.9413 31.8797C11.9117 31.8402 11.8948 31.7918 11.8933 31.7416C11.8894 31.6775 11.8742 31.6192 11.8587 31.5597C11.8398 31.4868 11.8203 31.412 11.8203 31.3221C11.8203 31.1588 11.8313 30.9954 11.8459 30.8328C11.8699 30.5667 11.9167 30.296 11.9656 30.0299C11.9285 29.8933 11.9262 29.7488 11.9588 29.611C11.9914 29.4731 12.0578 29.3466 12.1515 29.2441C12.2451 29.1416 12.3627 29.0667 12.4924 29.0268ZM30.2741 25.0757L30.2741 25.0757C30.208 25.0147 30.142 24.9539 30.0802 24.888C30.0595 24.8662 30.0401 24.846 30.0221 24.8272C29.7956 24.5912 29.7777 24.5725 29.8744 24.2124C29.937 23.9793 30.0401 23.765 30.1401 23.5571C30.3747 23.0693 30.5924 22.6168 30.2306 22.0398C30.1584 21.9141 30.0495 21.8163 29.92 21.761C29.7906 21.7057 29.6476 21.6959 29.5124 21.7331C28.8905 21.98 28.7496 22.3681 28.6219 23.0138C28.4485 23.5365 28.4019 24.0963 28.4861 24.6427C28.6125 25.006 28.8863 25.1742 29.175 25.3516L29.175 25.3516C29.2598 25.4037 29.3459 25.4565 29.4299 25.5154C29.7099 25.7099 30.0059 25.8691 30.3009 26.0277L30.3009 26.0277C30.628 26.2036 30.9537 26.3787 31.2546 26.6005C31.3634 26.6772 31.497 26.4993 31.4006 26.4065C31.0878 26.0612 30.7932 25.6982 30.5182 25.319C30.4422 25.2307 30.3581 25.1531 30.2741 25.0758L30.2741 25.0757L30.2741 25.0757L30.2741 25.0757L30.2741 25.0757ZM34.2996 19.8097C34.5551 19.9561 34.8077 20.1095 35.0595 20.2629C35.5047 20.4603 35.9045 20.7558 36.2317 21.1294C36.3359 21.29 36.3904 21.4806 36.3877 21.675C36.3849 21.8693 36.3251 22.0581 36.2164 22.2153C36.0194 22.5009 35.855 22.8098 35.7266 23.1356C35.663 23.4904 35.5804 23.8412 35.4792 24.1862C35.4156 24.3534 35.1646 24.3442 35.1646 24.1418C35.166 23.9651 35.2114 23.7417 35.2595 23.5055C35.358 23.0212 35.4675 22.4829 35.231 22.1824C35.0931 22.0068 34.6506 21.8709 34.2902 21.7603C34.128 21.7105 33.9825 21.6658 33.8887 21.6248C33.7696 21.5729 33.6493 21.5242 33.5301 21.4759C32.7903 21.1763 32.0912 20.8933 31.9844 19.9561C31.9853 19.7054 32.0805 19.4653 32.2492 19.2881C32.418 19.1108 32.6465 19.0108 32.8851 19.0098H32.9544C33.1008 19.0175 33.2434 19.0617 33.3703 19.1388C33.4972 19.2158 33.6049 19.3236 33.6843 19.453L33.7887 19.5182L34.2996 19.8097ZM44.7334 25.6225C44.2641 26.4162 43.667 27.5182 43.9904 28.4791C44.2034 28.9167 44.4656 29.3258 44.7714 29.6977C45.1283 30.259 45.4882 30.812 45.8662 31.3572C46.0203 31.5796 46.4159 31.46 46.3217 31.1555C46.1966 30.7518 46.0513 30.3517 45.9058 29.9513L45.9058 29.9512L45.9058 29.9511L45.9058 29.951C45.7313 29.4708 45.5567 28.9901 45.4166 28.5021C45.6734 28.1977 45.878 27.8397 46.0817 27.4833C46.2289 27.2257 46.3757 26.9689 46.5414 26.7337C47.3363 25.6155 45.4568 24.3985 44.7334 25.6225ZM50.9882 28.17C51.1174 28.179 51.243 28.2188 51.3554 28.2864C51.4662 28.3558 51.5605 28.4508 51.6313 28.5641C51.7021 28.6774 51.7474 28.8061 51.7639 28.9405C51.7804 29.0749 51.7677 29.2115 51.7266 29.34C51.6856 29.4685 51.6173 29.5855 51.5269 29.6822C51.3512 29.8287 51.1702 29.9679 50.9893 30.1068C50.7729 30.2732 50.5567 30.4394 50.3503 30.6178C50.2627 30.6928 50.1817 30.7801 50.1006 30.8674C49.8965 31.0872 49.6925 31.3069 49.3853 31.3294C49.3579 31.3292 49.3317 31.3177 49.3123 31.2973C49.2929 31.2769 49.2819 31.2494 49.2817 31.2206C49.2722 30.9448 49.4152 30.7254 49.5586 30.5054C49.6345 30.3889 49.7106 30.2722 49.7642 30.1469C49.9256 29.7189 50.0416 29.2734 50.1101 28.8187C50.1457 28.6878 50.2092 28.5672 50.2957 28.4659C50.3822 28.3647 50.4895 28.2854 50.6095 28.2341C50.7294 28.1828 50.8589 28.1609 50.9882 28.17ZM67.8162 11.8655C68.0028 11.8105 68.1753 11.712 68.3207 11.5774C68.4661 11.4427 68.5808 11.2754 68.6562 11.0878C68.7316 10.9002 68.7657 10.6971 68.7562 10.4938C68.7466 10.2904 68.6935 10.0918 68.6009 9.91297C68.4874 9.71941 68.3158 9.57109 68.1132 9.49138C67.9106 9.41167 67.6885 9.40513 67.4819 9.4728C67.3179 9.40239 67.1377 9.38424 66.9639 9.42066C66.7901 9.45707 66.6304 9.5464 66.5046 9.67753C66.3755 9.81798 66.2797 9.98832 66.2248 10.1748C66.1699 10.3613 66.1575 10.5587 66.1885 10.7512C66.214 10.9428 66.2782 11.1265 66.3769 11.2898C66.4757 11.453 66.6066 11.5922 66.7608 11.6978C66.9151 11.8034 67.0892 11.873 67.2712 11.9019C67.4533 11.9309 67.6391 11.9184 67.8162 11.8655ZM71.2923 21.8347C71.3815 21.7422 71.4911 21.6745 71.6114 21.6375C71.7832 21.6043 71.9598 21.6119 72.1285 21.6595C72.2971 21.7072 72.4535 21.7939 72.5862 21.9131C72.719 22.0324 72.8247 22.1813 72.8957 22.3489C72.9667 22.5166 73.0013 22.6987 72.9967 22.8821C72.9907 23.0482 72.951 23.211 72.8805 23.3598C72.81 23.5085 72.7101 23.6397 72.5876 23.7448C72.465 23.8499 72.3226 23.9264 72.1698 23.9693C72.017 24.0121 71.8572 24.0203 71.7012 23.9933C71.5493 23.9786 71.4026 23.9286 71.2714 23.847C71.1402 23.7654 71.0278 23.6543 70.9424 23.5216C70.857 23.3889 70.8008 23.238 70.7776 23.0797C70.7544 22.9213 70.765 22.7596 70.8085 22.6061C70.8669 22.4351 70.9677 22.2837 71.1004 22.1674C71.1372 22.0415 71.2031 21.9272 71.2923 21.8347Z" fill="url(#paint2_radial_1_104)" fill-opacity="0.4"/>
<defs>
<linearGradient id="paint0_linear_1_104" x1="36.4986" y1="0" x2="36.4986" y2="31.9992" gradientUnits="userSpaceOnUse">
<stop stop-color="#018197"/>
<stop offset="1" stop-color="#22CF48"/>
</linearGradient>
<linearGradient id="paint1_linear_1_104" x1="32.8487" y1="19.6525" x2="43.4956" y2="-1.75562" gradientUnits="userSpaceOnUse">
<stop stop-color="#0265A5"/>
<stop offset="1" stop-color="#00FF66"/>
</linearGradient>
<radialGradient id="paint2_radial_1_104" cx="0" cy="0" r="1" gradientUnits="userSpaceOnUse" gradientTransform="translate(68.5109 31.1029) rotate(-55.4408) scale(16.9233 28.565)">
<stop stop-color="#44D1F0"/>
<stop offset="1" stop-color="#4B84DA" stop-opacity="0.34"/>
</radialGradient>
</defs>
</svg>
