<svg xmlns="http://www.w3.org/2000/svg" width="64.55" height="16.382"><path data-name="Path 2814" d="M33.305 4.468a1.04 1.04 0 00-.566.893.79.79 0 00.276.639 1.089 1.089 0 00.726.232 1.53 1.53 0 001.053-.428 1.268 1.268 0 00.472-.951.733.733 0 00-.2-.552.82.82 0 00-.588-.189 2.181 2.181 0 00-1.173.356z" fill="#4ab7fd"/><path data-name="Path 2815" d="M43.425 6.076q.407-.432.407-.532a.305.305 0 00-.2-.3 1.737 1.737 0 00-.646-.086q-.77 0-1.874 1.655a71.43 71.43 0 00-3.689 7.008 27.049 27.049 0 01.3-3.18 10.369 10.369 0 01.6-2.3 2.945 2.945 0 00.363-.417.58.58 0 00.116-.317q0-.245-.45-.547a1.489 1.489 0 00-.8-.3q-.639 0-1.169 1.936a14.14 14.14 0 00-.4 2.116c-.029.05-.059.1-.091.165l-.247.461a10.091 10.091 0 01-1.409 1.871q-.712.72-1.089.72a.457.457 0 01-.385-.158.793.793 0 01-.123-.489 17.863 17.863 0 011.235-4.2l.189-.533.218-.576a3.211 3.211 0 00.2-.6.426.426 0 00-.153-.352.644.644 0 00-.414-.122 2.161 2.161 0 00-.842.158 1.162 1.162 0 00-.552.432 7.764 7.764 0 00-.871 2.3 15.75 15.75 0 00-.222.983 13.024 13.024 0 01-.722 1.463 6.878 6.878 0 01-1 1.353 1.32 1.32 0 01-.842.475.417.417 0 01-.37-.23 1.229 1.229 0 01-.138-.633 17.211 17.211 0 01.69-3.842 56.619 56.619 0 011.866-5.728q.828-.057 2.418-.194t2.259-.137a2.518 2.518 0 00.77-.072.25.25 0 00.174-.245.714.714 0 00-.552-.691 6.279 6.279 0 00-1.917-.2q-.552 0-1.227.029t-1.416.086a10.94 10.94 0 01.624-1.669.466.466 0 00-.254-.4 1.176 1.176 0 00-.632-.158.892.892 0 00-.755.4 8.322 8.322 0 00-.77 1.914 31.56 31.56 0 00-3.558.389q-.726.173-.726.5a.624.624 0 00.341.561 1.913 1.913 0 00.966.2q.3 0 .944-.029t1.438-.086q-1.031 3.137-1.583 5.476-.142.6-.247 1.133c-.078.015-.193.142-.348.386s-.29.441-.407.6q-.959 1.338-1.358 1.777t-.617.439a.227.227 0 01-.2-.086.572.572 0 01-.058-.3 5.436 5.436 0 01.319-1.4 20.4 20.4 0 01.871-2.2q.189-.417.523-1.065a3.465 3.465 0 00.392-.993.644.644 0 00-.334-.54 1.514 1.514 0 00-.857-.223 2.066 2.066 0 00-.334.029 4.08 4.08 0 00-.465.115 2.472 2.472 0 00-.668-.648 1.381 1.381 0 00-.726-.2 2.526 2.526 0 00-1.6.763 7.889 7.889 0 00-1.6 2.087 12.275 12.275 0 00-1.162 2.475c-.083.252-.151.5-.207.737a8.516 8.516 0 01-1.151 1.292 3.138 3.138 0 01-1.924 1.007.713.713 0 01-.661-.425 2.723 2.723 0 01-.225-1.245 6.114 6.114 0 01.051-.813 5.768 5.768 0 01.152-.756 1.576 1.576 0 00.429.309 1.049 1.049 0 00.457.108q1.1 0 2.135-1.511a5.772 5.772 0 001.031-3.324 1.012 1.012 0 00-.871-1.036q-.32-.086-.523-.144a2.477 2.477 0 00-.436-.23 1.056 1.056 0 00-.378-.072 1.327 1.327 0 00-.733.245 2.617 2.617 0 00-.69.705 13.645 13.645 0 00-1.648 3.339 12.2 12.2 0 00-.586 2.382 7.949 7.949 0 01-.837 1.245q-.588.691-1.038.691-.174 0-.29-.223a1.224 1.224 0 01-.116-.568 7.6 7.6 0 01.472-2.446 15.072 15.072 0 011.4-2.893 2.437 2.437 0 00.479-.46.705.705 0 00.145-.417.667.667 0 00-.349-.518 1.209 1.209 0 00-.7-.245.824.824 0 00-.16.021 2.248 2.248 0 00-.232.065 3.257 3.257 0 00-.37.338 1.685 1.685 0 00-.24.324l-.987-.288q.072-.259.109-.461a1.957 1.957 0 00.036-.331.557.557 0 00-.211-.439.788.788 0 00-.53-.18 1.73 1.73 0 00-1.148.446 1.233 1.233 0 00-.523.907.511.511 0 00.116.331 1.6 1.6 0 00.392.317 22.743 22.743 0 01-1.38 3.972l-.073.157a9.664 9.664 0 01-.842 1.239 9.4 9.4 0 01-1.823 1.806 2.825 2.825 0 01-1.6.583.8.8 0 01-.712-.338 1.8 1.8 0 01-.232-1.015 8.463 8.463 0 01.69-2.9 11.924 11.924 0 011.721-3.087 1.664 1.664 0 01.428-.417.8.8 0 01.428-.144l.116.014a13.348 13.348 0 01-.436 1.461 5 5 0 00-.334 1.417.708.708 0 00.254.525.818.818 0 00.574.237q.566 0 1.089-1.065a4.663 4.663 0 00.523-2.058 1.8 1.8 0 00-.276-1.036 1.124 1.124 0 00-.755-.489 2.731 2.731 0 00-.6-.317 1.788 1.788 0 00-.6-.1 2.283 2.283 0 00-.784.122 1.877 1.877 0 00-.639.41A9.9 9.9 0 00.901 9.552a9.689 9.689 0 00-.893 3.713 2.515 2.515 0 00.719 1.892 2.665 2.665 0 001.939.7 4.083 4.083 0 002.229-.705 6.956 6.956 0 001.982-2.029 8.577 8.577 0 00.7-1.187l.008-.017a3.361 3.361 0 00.413-.58 19.876 19.876 0 001.278-2.964l.8.245a20.66 20.66 0 00-.922 2.7 8.519 8.519 0 00-.3 2.065 2.007 2.007 0 00.465 1.4 1.659 1.659 0 001.293.511 2.047 2.047 0 001.343-.518 5.653 5.653 0 00.861-.983 2.274 2.274 0 00.489 1.1 2.108 2.108 0 001.678.64 3.653 3.653 0 002-.6 6.683 6.683 0 001.217-1.04 1.867 1.867 0 00.409 1.14 1.342 1.342 0 001.082.5 2.659 2.659 0 001.685-.712 7.022 7.022 0 001.583-2.022 1.968 1.968 0 00-.022.216q-.008.13-.007.36a2.076 2.076 0 00.348 1.288 1.173 1.173 0 00.988.453 1.607 1.607 0 00.893-.281 4.238 4.238 0 00.951-.957c.307-.4.578-.777.82-1.148 0 .094-.006.184-.006.27a2.912 2.912 0 00.436 1.691 1.35 1.35 0 001.162.626 2.432 2.432 0 001.22-.331 3.4 3.4 0 001.046-.964c.167-.22.325-.441.475-.661a2.662 2.662 0 00.432 1.28 1.43 1.43 0 001.227.648 2.229 2.229 0 001.467-.6 8.048 8.048 0 001.489-1.938c0 .195-.007.392-.007.593a4.338 4.338 0 00.2 1.749q.2.295.908.295a2.1 2.1 0 00.973-.18 1.542 1.542 0 00.6-.741q.857-1.755 2.084-3.878t2.709-4.4a1.1 1.1 0 01.08-.115zM15.7 8.299q.61-1.029 1.017-1.029a.319.319 0 01.254.137.483.483 0 01.109.309 5.029 5.029 0 01-.472 2.072q-.472 1.051-.951 1.051a.47.47 0 01-.414-.237 1.174 1.174 0 01-.152-.64 3.554 3.554 0 01.609-1.665zm7.6 1.6a17.087 17.087 0 01-1.452 2.6 7.938 7.938 0 01-1.082 1.324 1.477 1.477 0 01-.821.5.171.171 0 01-.167-.05.574.574 0 01-.065-.281 5.059 5.059 0 01.363-1.533 15.944 15.944 0 01.973-2.151 8.462 8.462 0 011.278-1.842 1.74 1.74 0 011.133-.662.42.42 0 01.32.122.451.451 0 01.116.324 6.386 6.386 0 01-.6 1.644z" fill="#4ab7fd"/><path data-name="Path 2816" d="M64.237.192a1.475 1.475 0 00-.792-.194q-.639 0-2.077 4.218-.77 2.275-1.278 3.7a4.287 4.287 0 00-.85-.612 1.606 1.606 0 00-.733-.209 1.142 1.142 0 00-.566.166 3.521 3.521 0 00-.654.511 11.006 11.006 0 00-2.106 3.045 9.421 9.421 0 00-.6 1.626 10.577 10.577 0 01-.889 1.181q-.371.4-.617.4a.247.247 0 01-.225-.151.961.961 0 01-.08-.439 16.548 16.548 0 01.835-4.031 52.157 52.157 0 012.229-6.017q.218-.5.6-1.3a5.017 5.017 0 00.537-1.411.564.564 0 00-.312-.482 1.476 1.476 0 00-.792-.194q-.639 0-2.077 4.218-.77 2.275-1.278 3.7a4.289 4.289 0 00-.85-.612 1.606 1.606 0 00-.734-.209 1.142 1.142 0 00-.566.166 3.521 3.521 0 00-.653.511 11.005 11.005 0 00-2.106 3.045c-.019.04-.035.079-.053.119l-.049.089a9.413 9.413 0 01-1.939 2.548 3.137 3.137 0 01-1.924 1.008.713.713 0 01-.661-.425 2.727 2.727 0 01-.225-1.245 6.138 6.138 0 01.051-.814 5.829 5.829 0 01.153-.756 1.579 1.579 0 00.429.31 1.048 1.048 0 00.457.108q1.1 0 2.135-1.512a5.775 5.775 0 001.031-3.325 1.012 1.012 0 00-.871-1.036q-.32-.086-.523-.144a2.472 2.472 0 00-.436-.23 1.054 1.054 0 00-.378-.072 1.326 1.326 0 00-.733.245 2.613 2.613 0 00-.69.705 13.653 13.653 0 00-1.648 3.34 10.275 10.275 0 00-.646 3.239 2.853 2.853 0 00.559 1.922 2.108 2.108 0 001.677.641 3.653 3.653 0 002-.6 7.348 7.348 0 001.5-1.35 4.959 4.959 0 00-.011.32 3.023 3.023 0 00.494 1.763 1.429 1.429 0 001.191.713 2.118 2.118 0 001.394-.785 7.952 7.952 0 001.409-2.095 2.491 2.491 0 00.428 1.375 1.19 1.19 0 00.995.482 1.679 1.679 0 001.176-.533 4.318 4.318 0 00.507-.609 2.88 2.88 0 00.481 1.451 1.429 1.429 0 001.191.713 2.117 2.117 0 001.394-.785 7.952 7.952 0 001.409-2.095 2.492 2.492 0 00.428 1.375 1.19 1.19 0 00.995.482 1.679 1.679 0 001.176-.533 7.207 7.207 0 001.205-1.771q.334-.633.508-1.044a1.782 1.782 0 00.174-.583.238.238 0 00-.087-.18.293.293 0 00-.2-.079q-.174 0-.407.446a5.372 5.372 0 01-.32.561 12.332 12.332 0 01-1.067 1.447q-.37.4-.617.4a.247.247 0 01-.225-.151.962.962 0 01-.08-.439 16.543 16.543 0 01.835-4.031 52.157 52.157 0 012.229-6.017q.218-.5.6-1.3A5.021 5.021 0 0064.561.67a.564.564 0 00-.324-.478zm-20.195 8.1q.61-1.029 1.017-1.029a.32.32 0 01.254.137.484.484 0 01.109.31 5.032 5.032 0 01-.472 2.073q-.472 1.051-.951 1.051a.47.47 0 01-.414-.238 1.175 1.175 0 01-.152-.641 3.556 3.556 0 01.61-1.656zm6.31 4.988q-1.024 1.8-1.648 1.8a.415.415 0 01-.334-.194.736.736 0 01-.145-.453 6.127 6.127 0 01.414-1.987 10.711 10.711 0 011.126-2.26 10.261 10.261 0 011.118-1.483 1.231 1.231 0 01.8-.461.588.588 0 01.3.086 1.192 1.192 0 01.3.288 24.87 24.87 0 01-1.93 4.676zm7.581 0q-1.024 1.8-1.648 1.8a.415.415 0 01-.334-.194.736.736 0 01-.145-.453 6.129 6.129 0 01.414-1.987 10.7 10.7 0 011.126-2.26 10.256 10.256 0 011.118-1.483 1.231 1.231 0 01.8-.461.588.588 0 01.3.086 1.193 1.193 0 01.305.288 24.878 24.878 0 01-1.932 4.676z" fill="#4ab7fd"/></svg>