<svg width="900" height="54" viewBox="0 0 900 54" fill="none" xmlns="http://www.w3.org/2000/svg">
<path fill-rule="evenodd" clip-rule="evenodd" d="M1 22.5001C1 19.1864 3.68629 16.5001 7 16.5001C10.3137 16.5001 13 19.1864 13 22.5001C13 25.8138 10.3137 28.5001 7 28.5001C3.68629 28.5001 1 25.8138 1 22.5001ZM7 15.5001C3.13401 15.5001 4.15773e-07 18.6341 3.69671e-07 22.5001C3.2357e-07 26.3661 3.13401 29.5001 7 29.5001C10.5806 29.5001 13.5334 26.8117 13.9497 23.3432L137.379 23.3433C146.697 23.3433 155.627 27.0089 162.203 33.5097L171.848 43.0448C178.612 49.7316 187.795 53.5001 197.375 53.5001L834.398 53.5001C843.978 53.5001 853.161 49.7316 859.925 43.0449L859.925 43.0442L889.59 13.615C890.599 14.1788 891.762 14.5001 893 14.5001C896.866 14.5001 900 11.3661 900 7.50012C900 3.63413 896.866 0.500121 893 0.500121C889.134 0.500121 886 3.63413 886 7.50012C886 9.76187 887.073 11.7731 888.737 13.0528L859.222 42.3337C852.646 48.8345 843.716 52.5001 834.398 52.5001L197.375 52.5001C188.057 52.5001 179.127 48.8344 172.551 42.3337L162.906 32.7985C156.142 26.1118 146.959 22.3433 137.379 22.3433L13.9983 22.3432C13.9149 18.5497 10.8136 15.5001 7 15.5001ZM887 7.50012C887 10.8138 889.686 13.5001 893 13.5001C896.314 13.5001 899 10.8138 899 7.50012C899 4.18641 896.314 1.50012 893 1.50012C889.686 1.50012 887 4.18641 887 7.50012Z" fill="url(#paint0_linear_1_406)"/>
<defs>
<linearGradient id="paint0_linear_1_406" x1="3.16009e-07" y1="27.0001" x2="900" y2="27.0001" gradientUnits="userSpaceOnUse">
<stop stop-color="white" stop-opacity="0.9"/>
<stop offset="1" stop-color="white" stop-opacity="0.34"/>
</linearGradient>
</defs>
</svg>
