								<svg width="104" height="104" viewBox="0 0 104 104" fill="none" xmlns="http://www.w3.org/2000/svg">
									<circle cx="51.998" cy="51.998" r="51.748" stroke="#273250" stroke-width="0.5"/>
									<circle cx="51.9977" cy="51.9977" r="40.0485" fill="url(#paint0_linear_2782_11012)" stroke="url(#paint1_linear_2782_11012)" stroke-width="0.5"/>
									<mask id="path-3-inside-1_2782_11012" fill="white">
									<path d="M66.8164 33.5365C60.6146 36.0239 34.0183 46.6849 26.6708 49.5903C21.7434 51.4508 24.6284 53.1948 24.6284 53.1948C24.6284 53.1948 28.8335 54.5933 32.4409 55.6381C36.0482 56.6869 37.9702 55.5215 37.9702 55.5215L54.9151 44.4667C60.9259 40.5125 59.4813 43.7675 58.0409 45.1659C54.9151 48.1918 49.7469 52.9618 45.4214 56.7994C43.4995 58.4269 44.4584 59.8253 45.3011 60.5205C48.4269 63.0803 56.9616 68.3163 57.439 68.6659C59.9795 70.4059 64.9733 72.9094 65.7329 67.6171L68.7384 49.3491C69.7014 43.1848 70.6603 37.4826 70.7807 35.8551C71.1419 31.8969 66.8164 33.5284 66.8164 33.5284V33.5365Z"/>
									</mask>
									<path d="M66.8164 33.5365C60.6146 36.0239 34.0183 46.6849 26.6708 49.5903C21.7434 51.4508 24.6284 53.1948 24.6284 53.1948C24.6284 53.1948 28.8335 54.5933 32.4409 55.6381C36.0482 56.6869 37.9702 55.5215 37.9702 55.5215L54.9151 44.4667C60.9259 40.5125 59.4813 43.7675 58.0409 45.1659C54.9151 48.1918 49.7469 52.9618 45.4214 56.7994C43.4995 58.4269 44.4584 59.8253 45.3011 60.5205C48.4269 63.0803 56.9616 68.3163 57.439 68.6659C59.9795 70.4059 64.9733 72.9094 65.7329 67.6171L68.7384 49.3491C69.7014 43.1848 70.6603 37.4826 70.7807 35.8551C71.1419 31.8969 66.8164 33.5284 66.8164 33.5284V33.5365Z" fill="url(#paint2_linear_2782_11012)"/>
									<path d="M66.8164 33.5365L67.0025 34.0005L67.3164 33.8746V33.5365H66.8164ZM26.6708 49.5903L26.8474 50.0581L26.8546 50.0552L26.6708 49.5903ZM24.6284 53.1948L24.3698 53.6227L24.4176 53.6516L24.4706 53.6693L24.6284 53.1948ZM32.4409 55.6381L32.5805 55.1579L32.58 55.1578L32.4409 55.6381ZM37.9702 55.5215L38.2294 55.9491L38.2365 55.9448L38.2434 55.9403L37.9702 55.5215ZM54.9151 44.4667L55.1883 44.8855L55.1899 44.8844L54.9151 44.4667ZM58.0409 45.1659L58.3887 45.5252L58.3892 45.5247L58.0409 45.1659ZM45.4214 56.7994L45.7446 57.1811L45.7533 57.1734L45.4214 56.7994ZM45.3011 60.5205L44.9829 60.9062L44.9843 60.9073L45.3011 60.5205ZM57.439 68.6659L57.1436 69.0693L57.1499 69.074L57.1564 69.0785L57.439 68.6659ZM65.7329 67.6171L65.2395 67.5359L65.238 67.5461L65.7329 67.6171ZM68.7384 49.3491L69.2317 49.4303L69.2324 49.4263L68.7384 49.3491ZM70.7807 35.8551L70.2827 35.8097L70.2821 35.8182L70.7807 35.8551ZM66.8164 33.5284L66.6399 33.0606L66.3164 33.1826V33.5284H66.8164ZM66.6303 33.0724C60.4278 35.5601 33.833 46.2205 26.4869 49.1253L26.8546 50.0552C34.2036 47.1493 60.8014 36.4877 67.0025 34.0005L66.6303 33.0724ZM26.4942 49.1225C25.2334 49.5986 24.4135 50.0876 23.9182 50.586C23.4065 51.101 23.2258 51.6467 23.3079 52.1681C23.3845 52.6539 23.6757 53.0224 23.9019 53.2476C24.0196 53.3648 24.1325 53.4558 24.2164 53.518C24.2587 53.5493 24.2944 53.5739 24.3207 53.5914C24.3339 53.6001 24.3448 53.6071 24.3531 53.6124C24.3572 53.615 24.3607 53.6172 24.3635 53.6189C24.3649 53.6198 24.3661 53.6205 24.3672 53.6211C24.3677 53.6215 24.3682 53.6218 24.3686 53.622C24.3688 53.6221 24.3691 53.6223 24.3692 53.6224C24.3695 53.6226 24.3698 53.6227 24.6284 53.1948C24.8871 52.7669 24.8873 52.7671 24.8876 52.7672C24.8876 52.7673 24.8879 52.7674 24.888 52.7675C24.8883 52.7676 24.8885 52.7678 24.8886 52.7679C24.889 52.7681 24.8892 52.7682 24.8892 52.7682C24.8893 52.7683 24.8887 52.7679 24.8875 52.7672C24.8852 52.7657 24.8805 52.7627 24.8738 52.7582C24.8602 52.7492 24.8388 52.7345 24.8118 52.7145C24.7572 52.6741 24.6831 52.6143 24.6074 52.5389C24.4466 52.3789 24.3245 52.1951 24.2957 52.0124C24.2726 51.8653 24.2944 51.6261 24.6276 51.2908C24.9772 50.9389 25.6445 50.5122 26.8474 50.058L26.4942 49.1225ZM24.6284 53.1948C24.4706 53.6693 24.4707 53.6693 24.4707 53.6693C24.4707 53.6693 24.4708 53.6693 24.4709 53.6694C24.471 53.6694 24.4712 53.6695 24.4715 53.6696C24.472 53.6697 24.4728 53.67 24.4738 53.6703C24.4759 53.671 24.479 53.6721 24.4831 53.6734C24.4912 53.6761 24.5033 53.6801 24.5193 53.6854C24.5511 53.696 24.5982 53.7116 24.6594 53.7318C24.7818 53.7722 24.9606 53.831 25.1864 53.9049C25.6378 54.0526 26.2773 54.2604 27.0296 54.5009C28.5337 54.9817 30.4917 55.5941 32.3018 56.1183L32.58 55.1578C30.7826 54.6372 28.8345 54.028 27.3341 53.5484C26.5843 53.3087 25.947 53.1016 25.4973 52.9544C25.2725 52.8809 25.0945 52.8223 24.9729 52.7822C24.9121 52.7621 24.8653 52.7466 24.8338 52.7362C24.8181 52.7309 24.8061 52.727 24.7981 52.7243C24.7941 52.723 24.7911 52.722 24.7891 52.7213C24.7882 52.721 24.7874 52.7208 24.7869 52.7206C24.7867 52.7205 24.7865 52.7205 24.7864 52.7204C24.7863 52.7204 24.7863 52.7204 24.7862 52.7204C24.7862 52.7204 24.7862 52.7204 24.6284 53.1948ZM32.3013 56.1182C34.1783 56.6639 35.6373 56.6389 36.643 56.4659C37.1446 56.3796 37.5304 56.257 37.7962 56.1526C37.9291 56.1005 38.0319 56.0529 38.1042 56.0167C38.1404 55.9986 38.169 55.9834 38.1898 55.9718C38.2003 55.966 38.2088 55.9612 38.2154 55.9574C38.2187 55.9554 38.2215 55.9538 38.2238 55.9524C38.225 55.9517 38.2261 55.9511 38.227 55.9505C38.2274 55.9502 38.2279 55.95 38.2283 55.9497C38.2285 55.9496 38.2288 55.9495 38.2289 55.9494C38.2291 55.9492 38.2294 55.9491 37.9702 55.5215C37.7109 55.094 37.7112 55.0938 37.7114 55.0937C37.7115 55.0936 37.7117 55.0935 37.7119 55.0934C37.7122 55.0932 37.7124 55.0931 37.7126 55.0929C37.7131 55.0927 37.7134 55.0925 37.7137 55.0923C37.7141 55.0921 37.7141 55.0921 37.7137 55.0923C37.7128 55.0928 37.7101 55.0944 37.7056 55.0969C37.6965 55.1019 37.6803 55.1107 37.6568 55.1224C37.61 55.1458 37.5345 55.1811 37.4308 55.2218C37.2235 55.3032 36.9033 55.4064 36.4735 55.4803C35.6164 55.6278 34.3108 55.661 32.5805 55.1579L32.3013 56.1182ZM38.2434 55.9403L55.1883 44.8855L54.6419 44.0479L37.697 55.1028L38.2434 55.9403ZM55.1899 44.8844C56.6835 43.9019 57.6762 43.3934 58.3 43.1855C58.6163 43.0801 58.7897 43.0688 58.8653 43.0779C58.9114 43.0835 58.844 43.0798 58.8121 43.0047C58.8007 42.9779 58.8246 43.0128 58.7859 43.1616C58.7507 43.2968 58.6781 43.4701 58.5682 43.6681C58.3488 44.0636 58.0189 44.4904 57.6926 44.8072L58.3892 45.5247C58.7831 45.1422 59.1739 44.6377 59.4427 44.1532C59.5769 43.9112 59.6902 43.6573 59.7536 43.4135C59.8135 43.1833 59.8489 42.8874 59.7324 42.6135C59.5954 42.2913 59.3065 42.124 58.9855 42.0852C58.694 42.0499 58.3548 42.1132 57.9838 42.2368C57.2329 42.487 56.1521 43.0545 54.6403 44.049L55.1899 44.8844ZM57.6931 44.8067C54.5737 47.8265 49.411 52.5914 45.0896 56.4254L45.7533 57.1734C50.0829 53.3321 55.2565 48.5572 58.3887 45.5252L57.6931 44.8067ZM45.0983 56.4178C44.0472 57.3079 43.6897 58.227 43.8311 59.0904C43.9646 59.9054 44.5234 60.5272 44.9829 60.9062L45.6193 60.1348C45.236 59.8186 44.8941 59.3936 44.8179 58.9287C44.7497 58.5122 44.8737 57.9184 45.7446 57.181L45.0983 56.4178ZM44.9843 60.9073C46.5726 62.208 49.5119 64.172 52.0915 65.8418C53.3857 66.6795 54.5967 67.4479 55.5131 68.0281C56.4453 68.6184 57.0424 68.9952 57.1436 69.0693L57.7344 68.2625C57.5969 68.1618 56.9481 67.7531 56.0481 67.1832C55.1323 66.6034 53.9247 65.8372 52.6349 65.0023C50.0463 63.3267 47.1553 61.3927 45.6179 60.1337L44.9843 60.9073ZM57.1564 69.0785C58.4363 69.955 60.4072 71.0795 62.1994 71.2757C63.1098 71.3753 64.0312 71.2412 64.7824 70.6517C65.5326 70.0631 66.027 69.0878 66.2279 67.6882L65.238 67.5461C65.0591 68.7926 64.6443 69.489 64.1651 69.865C63.687 70.2402 63.0587 70.3638 62.3082 70.2816C60.7784 70.1141 58.9822 69.1168 57.7215 68.2534L57.1564 69.0785ZM66.2263 67.6983L69.2317 49.4303L68.245 49.268L65.2396 67.5359L66.2263 67.6983ZM69.2324 49.4263C70.1912 43.2889 71.157 37.5465 71.2794 35.892L70.2821 35.8182C70.1637 37.4187 69.2116 43.0808 68.2444 49.272L69.2324 49.4263ZM71.2786 35.9006C71.3764 34.8286 71.1651 34.0332 70.6892 33.4917C70.2173 32.9546 69.5648 32.7586 68.9758 32.7092C68.3857 32.6597 67.8001 32.7511 67.3755 32.8479C67.1603 32.8969 66.9797 32.9489 66.8519 32.989C66.7878 33.0091 66.7367 33.0263 66.7007 33.0388C66.6827 33.0451 66.6684 33.0502 66.6582 33.0539C66.6531 33.0557 66.649 33.0572 66.6459 33.0584C66.6444 33.0589 66.6431 33.0594 66.6421 33.0598C66.6416 33.06 66.6412 33.0601 66.6408 33.0603C66.6407 33.0603 66.6404 33.0604 66.6403 33.0605C66.6401 33.0605 66.6399 33.0606 66.8164 33.5284C66.9928 33.9963 66.9927 33.9963 66.9925 33.9964C66.9925 33.9964 66.9924 33.9964 66.9923 33.9965C66.9922 33.9965 66.9922 33.9965 66.9922 33.9965C66.9922 33.9965 66.9925 33.9964 66.9931 33.9962C66.9942 33.9958 66.9963 33.995 66.9994 33.9939C67.0055 33.9917 67.0155 33.9881 67.0291 33.9834C67.0562 33.9739 67.0977 33.9599 67.1512 33.9431C67.2585 33.9095 67.413 33.8649 67.5977 33.8229C67.9728 33.7374 68.446 33.6683 68.8922 33.7057C69.3393 33.7432 69.7005 33.8815 69.9381 34.1518C70.1716 34.4176 70.3656 34.9025 70.2828 35.8097L71.2786 35.9006ZM66.3164 33.5284V33.5365H67.3164V33.5284H66.3164Z" fill="url(#paint3_linear_2782_11012)" mask="url(#path-3-inside-1_2782_11012)"/>
									<mask id="mask0_2782_11012" style="mask-type:alpha" maskUnits="userSpaceOnUse" x="11" y="11" width="82" height="82">
									<mask id="path-5-inside-2_2782_11012" fill="white">
									<path fill-rule="evenodd" clip-rule="evenodd" d="M51.9922 92.2931C74.2476 92.2931 92.2891 74.2515 92.2891 51.9961C92.2891 29.7408 74.2476 11.6992 51.9922 11.6992C29.7369 11.6992 11.6953 29.7408 11.6953 51.9961C11.6953 74.2515 29.7369 92.2931 51.9922 92.2931ZM26.6669 49.5903C34.0144 46.6849 60.6107 36.0239 66.8125 33.5365V33.5284C66.8125 33.5284 71.138 31.8969 70.7768 35.8551C70.6887 37.0464 70.1513 40.4206 69.4919 44.5612C69.2505 46.0776 68.9926 47.6968 68.7345 49.3492L65.729 67.6171C64.9694 72.9094 59.9756 70.4059 57.4351 68.6659C57.329 68.5882 56.8251 68.2693 56.071 67.792C53.4317 66.1214 47.7284 62.5114 45.2972 60.5205C44.4545 59.8253 43.4956 58.4269 45.4175 56.7994C49.743 52.9618 54.9112 48.1918 58.037 45.1659C59.4774 43.7675 60.922 40.5125 54.9112 44.4667L37.9663 55.5215C37.9663 55.5215 36.0443 56.6869 32.437 55.6381C28.8296 54.5933 24.6245 53.1948 24.6245 53.1948C24.6245 53.1948 21.7395 51.4508 26.6669 49.5903Z"/>
									</mask>
									<path fill-rule="evenodd" clip-rule="evenodd" d="M51.9922 92.2931C74.2476 92.2931 92.2891 74.2515 92.2891 51.9961C92.2891 29.7408 74.2476 11.6992 51.9922 11.6992C29.7369 11.6992 11.6953 29.7408 11.6953 51.9961C11.6953 74.2515 29.7369 92.2931 51.9922 92.2931ZM26.6669 49.5903C34.0144 46.6849 60.6107 36.0239 66.8125 33.5365V33.5284C66.8125 33.5284 71.138 31.8969 70.7768 35.8551C70.6887 37.0464 70.1513 40.4206 69.4919 44.5612C69.2505 46.0776 68.9926 47.6968 68.7345 49.3492L65.729 67.6171C64.9694 72.9094 59.9756 70.4059 57.4351 68.6659C57.329 68.5882 56.8251 68.2693 56.071 67.792C53.4317 66.1214 47.7284 62.5114 45.2972 60.5205C44.4545 59.8253 43.4956 58.4269 45.4175 56.7994C49.743 52.9618 54.9112 48.1918 58.037 45.1659C59.4774 43.7675 60.922 40.5125 54.9112 44.4667L37.9663 55.5215C37.9663 55.5215 36.0443 56.6869 32.437 55.6381C28.8296 54.5933 24.6245 53.1948 24.6245 53.1948C24.6245 53.1948 21.7395 51.4508 26.6669 49.5903Z" fill="url(#paint4_linear_2782_11012)"/>
									<path d="M66.8125 33.5365L66.9986 34.0005L67.3125 33.8746V33.5365H66.8125ZM26.6669 49.5903L26.8435 50.0581L26.8507 50.0552L26.6669 49.5903ZM66.8125 33.5284L66.636 33.0606L66.3125 33.1826V33.5284H66.8125ZM70.7768 35.8551L70.2788 35.8097L70.2782 35.8182L70.7768 35.8551ZM69.4919 44.5612L69.9857 44.6399V44.6399L69.4919 44.5612ZM68.7345 49.3492L69.2278 49.4303L69.2285 49.4263L68.7345 49.3492ZM65.729 67.6171L65.2356 67.5359L65.2341 67.5461L65.729 67.6171ZM57.4351 68.6659L57.1396 69.0693L57.146 69.074L57.1525 69.0785L57.4351 68.6659ZM56.071 67.792L55.8036 68.2145L56.071 67.792ZM45.2972 60.5205L44.979 60.9062L44.9804 60.9073L45.2972 60.5205ZM45.4175 56.7994L45.7407 57.1811L45.7494 57.1734L45.4175 56.7994ZM58.037 45.1659L58.3848 45.5252L58.3853 45.5247L58.037 45.1659ZM54.9112 44.4667L55.1844 44.8855L55.186 44.8844L54.9112 44.4667ZM37.9663 55.5215L38.2255 55.9491L38.2326 55.9448L38.2395 55.9403L37.9663 55.5215ZM32.437 55.6381L32.5765 55.1579L32.5761 55.1578L32.437 55.6381ZM24.6245 53.1948L24.3659 53.6227L24.4137 53.6516L24.4667 53.6693L24.6245 53.1948ZM91.7891 51.9961C91.7891 73.9754 73.9715 91.7931 51.9922 91.7931V92.7931C74.5237 92.7931 92.7891 74.5276 92.7891 51.9961H91.7891ZM51.9922 12.1992C73.9715 12.1992 91.7891 30.0169 91.7891 51.9961H92.7891C92.7891 29.4646 74.5237 11.1992 51.9922 11.1992V12.1992ZM12.1953 51.9961C12.1953 30.0169 30.013 12.1992 51.9922 12.1992V11.1992C29.4607 11.1992 11.1953 29.4646 11.1953 51.9961H12.1953ZM51.9922 91.7931C30.013 91.7931 12.1953 73.9754 12.1953 51.9961H11.1953C11.1953 74.5276 29.4607 92.7931 51.9922 92.7931V91.7931ZM66.6264 33.0724C60.4239 35.5601 33.8291 46.2205 26.483 49.1253L26.8507 50.0552C34.1997 47.1493 60.7975 36.4877 66.9986 34.0005L66.6264 33.0724ZM66.3125 33.5284V33.5365H67.3125V33.5284H66.3125ZM71.2747 35.9006C71.3725 34.8286 71.1612 34.0332 70.6853 33.4917C70.2134 32.9546 69.5609 32.7586 68.9719 32.7092C68.3818 32.6597 67.7962 32.7511 67.3716 32.8479C67.1564 32.8969 66.9758 32.9489 66.848 32.989C66.7839 33.0091 66.7328 33.0263 66.6968 33.0388C66.6788 33.0451 66.6645 33.0502 66.6543 33.0539C66.6492 33.0557 66.6451 33.0572 66.642 33.0584C66.6405 33.0589 66.6392 33.0594 66.6382 33.0598C66.6377 33.06 66.6373 33.0601 66.6369 33.0603C66.6367 33.0603 66.6365 33.0604 66.6364 33.0605C66.6362 33.0605 66.636 33.0606 66.8125 33.5284C66.9889 33.9963 66.9888 33.9963 66.9886 33.9964C66.9886 33.9964 66.9885 33.9964 66.9884 33.9965C66.9883 33.9965 66.9883 33.9965 66.9883 33.9965C66.9883 33.9965 66.9886 33.9964 66.9892 33.9962C66.9903 33.9958 66.9924 33.995 66.9954 33.9939C67.0016 33.9917 67.0116 33.9881 67.0252 33.9834C67.0523 33.9739 67.0938 33.9599 67.1473 33.9431C67.2546 33.9095 67.4091 33.8649 67.5938 33.8229C67.9689 33.7374 68.4421 33.6683 68.8883 33.7057C69.3354 33.7432 69.6966 33.8815 69.9342 34.1518C70.1677 34.4176 70.3616 34.9025 70.2789 35.8097L71.2747 35.9006ZM69.9857 44.6399C70.6423 40.5167 71.1853 37.1107 71.2754 35.892L70.2782 35.8182C70.1921 36.982 69.6603 40.3246 68.9982 44.4826L69.9857 44.6399ZM69.2285 49.4263C69.4865 47.7748 69.7442 46.1564 69.9857 44.6399L68.9982 44.4826C68.7567 45.9989 68.4987 47.6188 68.2404 49.272L69.2285 49.4263ZM66.2224 67.6983L69.2278 49.4303L68.2411 49.268L65.2357 67.5359L66.2224 67.6983ZM57.1525 69.0785C58.4324 69.955 60.4033 71.0795 62.1954 71.2757C63.1059 71.3753 64.0273 71.2412 64.7785 70.6517C65.5287 70.0631 66.0231 69.0878 66.224 67.6882L65.2341 67.5461C65.0552 68.7926 64.6404 69.489 64.1612 69.865C63.6831 70.2402 63.0548 70.3638 62.3043 70.2816C60.7745 70.1141 58.9783 69.1168 57.7176 68.2534L57.1525 69.0785ZM55.8036 68.2145C56.5723 68.7011 57.0517 69.0049 57.1396 69.0693L57.7305 68.2625C57.6063 68.1716 57.0778 67.8375 56.3384 67.3695L55.8036 68.2145ZM44.9804 60.9073C47.4415 62.9228 53.1786 66.553 55.8036 68.2145L56.3384 67.3695C53.6848 65.6899 48.0153 62.1001 45.6139 60.1337L44.9804 60.9073ZM45.0944 56.4178C44.0433 57.3079 43.6858 58.227 43.8272 59.0904C43.9607 59.9054 44.5195 60.5272 44.979 60.9062L45.6153 60.1348C45.2321 59.8186 44.8902 59.3936 44.814 58.9287C44.7458 58.5122 44.8698 57.9184 45.7407 57.181L45.0944 56.4178ZM57.6892 44.8067C54.5698 47.8265 49.4071 52.5914 45.0857 56.4254L45.7494 57.1734C50.079 53.3321 55.2526 48.5572 58.3848 45.5252L57.6892 44.8067ZM55.186 44.8844C56.6796 43.9019 57.6723 43.3934 58.2961 43.1855C58.6124 43.0801 58.7858 43.0688 58.8614 43.0779C58.9075 43.0835 58.8401 43.0798 58.8082 43.0047C58.7968 42.9779 58.8207 43.0128 58.782 43.1616C58.7468 43.2968 58.6741 43.4701 58.5643 43.6681C58.3449 44.0636 58.015 44.4904 57.6887 44.8072L58.3853 45.5247C58.7792 45.1422 59.17 44.6377 59.4388 44.1532C59.573 43.9112 59.6863 43.6573 59.7497 43.4135C59.8096 43.1833 59.8449 42.8874 59.7285 42.6135C59.5915 42.2913 59.3026 42.124 58.9816 42.0852C58.6901 42.0499 58.3509 42.1132 57.9799 42.2368C57.229 42.487 56.1482 43.0545 54.6364 44.049L55.186 44.8844ZM38.2395 55.9403L55.1844 44.8855L54.638 44.0479L37.6931 55.1028L38.2395 55.9403ZM32.2974 56.1182C34.1744 56.6639 35.6334 56.6389 36.6391 56.4659C37.1407 56.3796 37.5265 56.257 37.7923 56.1526C37.9252 56.1005 38.028 56.0529 38.1003 56.0167C38.1365 55.9986 38.1651 55.9834 38.1859 55.9718C38.1964 55.966 38.2049 55.9612 38.2115 55.9574C38.2148 55.9554 38.2176 55.9538 38.2199 55.9524C38.2211 55.9517 38.2222 55.9511 38.2231 55.9505C38.2235 55.9502 38.224 55.95 38.2244 55.9497C38.2246 55.9496 38.2249 55.9495 38.225 55.9494C38.2252 55.9492 38.2255 55.9491 37.9663 55.5215C37.707 55.094 37.7073 55.0938 37.7075 55.0937C37.7076 55.0936 37.7078 55.0935 37.708 55.0934C37.7083 55.0932 37.7085 55.0931 37.7087 55.0929C37.7092 55.0927 37.7095 55.0925 37.7098 55.0923C37.7102 55.0921 37.7102 55.0921 37.7098 55.0923C37.7089 55.0928 37.7062 55.0944 37.7017 55.0969C37.6926 55.1019 37.6764 55.1107 37.6529 55.1224C37.6061 55.1458 37.5306 55.1811 37.4269 55.2218C37.2196 55.3032 36.8994 55.4064 36.4696 55.4803C35.6125 55.6278 34.3069 55.661 32.5765 55.1579L32.2974 56.1182ZM24.6245 53.1948C24.4667 53.6693 24.4668 53.6693 24.4668 53.6693C24.4668 53.6693 24.4669 53.6693 24.467 53.6693C24.4671 53.6694 24.4673 53.6695 24.4676 53.6696C24.4681 53.6697 24.4689 53.67 24.4699 53.6703C24.472 53.671 24.4751 53.6721 24.4792 53.6734C24.4873 53.6761 24.4994 53.6801 24.5154 53.6854C24.5472 53.696 24.5943 53.7116 24.6555 53.7318C24.7779 53.7722 24.9567 53.831 25.1825 53.9049C25.6339 54.0526 26.2734 54.2604 27.0257 54.5009C28.5298 54.9817 30.4878 55.5941 32.2979 56.1183L32.5761 55.1578C30.7787 54.6372 28.8306 54.028 27.3302 53.5484C26.5804 53.3087 25.9431 53.1016 25.4934 52.9544C25.2686 52.8809 25.0906 52.8223 24.969 52.7822C24.9082 52.7621 24.8614 52.7466 24.8299 52.7362C24.8141 52.7309 24.8022 52.727 24.7942 52.7243C24.7902 52.723 24.7872 52.722 24.7852 52.7213C24.7842 52.721 24.7835 52.7208 24.783 52.7206C24.7828 52.7205 24.7826 52.7205 24.7825 52.7204C24.7824 52.7204 24.7824 52.7204 24.7823 52.7204C24.7823 52.7204 24.7823 52.7204 24.6245 53.1948ZM26.4903 49.1225C25.2295 49.5986 24.4096 50.0876 23.9143 50.586C23.4026 51.101 23.2219 51.6467 23.304 52.1681C23.3806 52.6539 23.6718 53.0224 23.898 53.2476C24.0157 53.3648 24.1286 53.4558 24.2125 53.518C24.2548 53.5493 24.2905 53.5739 24.3168 53.5914C24.33 53.6001 24.3409 53.6071 24.3492 53.6124C24.3533 53.615 24.3568 53.6172 24.3596 53.6189C24.361 53.6197 24.3622 53.6205 24.3633 53.6211C24.3638 53.6215 24.3643 53.6217 24.3647 53.622C24.3649 53.6221 24.3652 53.6223 24.3653 53.6224C24.3656 53.6226 24.3659 53.6227 24.6245 53.1948C24.8832 52.7669 24.8834 52.7671 24.8837 52.7672C24.8837 52.7673 24.884 52.7674 24.8841 52.7675C24.8843 52.7676 24.8846 52.7678 24.8847 52.7679C24.8851 52.7681 24.8853 52.7682 24.8853 52.7682C24.8854 52.7683 24.8848 52.7679 24.8836 52.7672C24.8813 52.7657 24.8766 52.7627 24.8698 52.7582C24.8563 52.7492 24.8349 52.7345 24.8079 52.7145C24.7533 52.6741 24.6792 52.6143 24.6034 52.5389C24.4427 52.3789 24.3206 52.1951 24.2918 52.0124C24.2686 51.8653 24.2905 51.6261 24.6237 51.2908C24.9733 50.9389 25.6406 50.5122 26.8435 50.058L26.4903 49.1225Z" fill="url(#paint5_linear_2782_11012)" mask="url(#path-5-inside-2_2782_11012)"/>
									</mask>
									<g mask="url(#mask0_2782_11012)">
									<g filter="url(#filter0_f_2782_11012)">
									<ellipse cx="45.2735" cy="9.00915" rx="60.4454" ry="26.8646" fill="#5B6085"/>
									</g>
									<g filter="url(#filter1_f_2782_11012)">
									<ellipse cx="46.9606" cy="105.732" rx="61.4528" ry="26.8646" fill="#17192F"/>
									</g>
									</g>
									<mask id="mask1_2782_11012" style="mask-type:alpha" maskUnits="userSpaceOnUse" x="11" y="11" width="82" height="82">
									<circle cx="51.9922" cy="51.9961" r="40.0469" fill="url(#paint6_linear_2782_11012)" stroke="url(#paint7_linear_2782_11012)" stroke-width="0.5"/>
									</mask>
									<g mask="url(#mask1_2782_11012)">
									<g opacity="0.3" filter="url(#filter2_f_2782_11012)">
									<circle cx="51.9922" cy="51.9961" r="39.7969" stroke="url(#paint8_linear_2782_11012)"/>
									</g>
									</g>
									<defs>
									<filter id="filter0_f_2782_11012" x="-135.172" y="-137.855" width="360.891" height="293.73" filterUnits="userSpaceOnUse" color-interpolation-filters="sRGB">
									<feFlood flood-opacity="0" result="BackgroundImageFix"/>
									<feBlend mode="normal" in="SourceGraphic" in2="BackgroundImageFix" result="shape"/>
									<feGaussianBlur stdDeviation="60" result="effect1_foregroundBlur_2782_11012"/>
									</filter>
									<filter id="filter1_f_2782_11012" x="-84.4922" y="8.86719" width="262.906" height="193.73" filterUnits="userSpaceOnUse" color-interpolation-filters="sRGB">
									<feFlood flood-opacity="0" result="BackgroundImageFix"/>
									<feBlend mode="normal" in="SourceGraphic" in2="BackgroundImageFix" result="shape"/>
									<feGaussianBlur stdDeviation="35" result="effect1_foregroundBlur_2782_11012"/>
									</filter>
									<filter id="filter2_f_2782_11012" x="-4.30469" y="-4.30078" width="112.594" height="112.594" filterUnits="userSpaceOnUse" color-interpolation-filters="sRGB">
									<feFlood flood-opacity="0" result="BackgroundImageFix"/>
									<feBlend mode="normal" in="SourceGraphic" in2="BackgroundImageFix" result="shape"/>
									<feGaussianBlur stdDeviation="8" result="effect1_foregroundBlur_2782_11012"/>
									</filter>
									<linearGradient id="paint0_linear_2782_11012" x1="91.0562" y1="6.86339" x2="-2.00495" y2="20.3273" gradientUnits="userSpaceOnUse">
									<stop stop-color="#1F2338"/>
									<stop offset="0.446428" stop-color="#181C2E"/>
									<stop offset="1" stop-color="#1C2138"/>
									</linearGradient>
									<linearGradient id="paint1_linear_2782_11012" x1="51.9977" y1="11.6992" x2="51.9977" y2="92.2962" gradientUnits="userSpaceOnUse">
									<stop stop-color="#2B3553"/>
									<stop offset="1" stop-color="#434857"/>
									</linearGradient>
									<linearGradient id="paint2_linear_2782_11012" x1="96.3235" y1="-36.6527" x2="-9.7522" y2="26.9926" gradientUnits="userSpaceOnUse">
									<stop stop-color="#1D223D"/>
									<stop offset="0.446428" stop-color="#0F1220"/>
									<stop offset="1" stop-color="#171B31"/>
									</linearGradient>
									<linearGradient id="paint3_linear_2782_11012" x1="47.2956" y1="33.1953" x2="47.2956" y2="70.8058" gradientUnits="userSpaceOnUse">
									<stop stop-color="#2B3553"/>
									<stop offset="1" stop-color="#575E75"/>
									</linearGradient>
									<linearGradient id="paint4_linear_2782_11012" x1="91.0492" y1="6.86358" x2="-2.00832" y2="20.327" gradientUnits="userSpaceOnUse">
									<stop stop-color="#1F2338"/>
									<stop offset="0.446428" stop-color="#181C2E"/>
									<stop offset="1" stop-color="#1C2138"/>
									</linearGradient>
									<linearGradient id="paint5_linear_2782_11012" x1="51.9922" y1="11.6992" x2="51.9922" y2="92.2931" gradientUnits="userSpaceOnUse">
									<stop stop-color="#2B3553"/>
									<stop offset="1" stop-color="#434857"/>
									</linearGradient>
									<linearGradient id="paint6_linear_2782_11012" x1="91.0492" y1="6.86358" x2="-2.00832" y2="20.327" gradientUnits="userSpaceOnUse">
									<stop stop-color="#1F2338"/>
									<stop offset="0.446428" stop-color="#181C2E"/>
									<stop offset="1" stop-color="#1C2138"/>
									</linearGradient>
									<linearGradient id="paint7_linear_2782_11012" x1="51.9922" y1="11.6992" x2="51.9922" y2="92.2931" gradientUnits="userSpaceOnUse">
									<stop stop-color="#2B3553"/>
									<stop offset="1" stop-color="#434857"/>
									</linearGradient>
									<linearGradient id="paint8_linear_2782_11012" x1="51.9922" y1="41.4422" x2="51.9922" y2="70.7054" gradientUnits="userSpaceOnUse">
									<stop stop-color="#EEEEEE"/>
									<stop offset="0.51" stop-color="#C8DCF5"/>
									<stop offset="1" stop-color="#CBD5E2"/>
									</linearGradient>
									</defs>
								</svg>			