								<svg width="328" height="208" viewBox="0 0 328 208" fill="none" xmlns="http://www.w3.org/2000/svg">
									<line x1="164.25" y1="0.5" x2="164.25" y2="48.5" stroke="#273250" stroke-width="0.5"/>
									<path d="M156.249 0.5L156.249 12.7788C156.249 13.8776 156.701 14.928 157.499 15.6834L164.219 22.0459" stroke="#273250" stroke-width="0.5"/>
									<path d="M171.752 0.5L171.752 32.8204C171.752 33.8947 171.319 34.9238 170.553 35.6761L164.195 41.9113" stroke="#273250" stroke-width="0.5"/>
									<path d="M0.5 69H24.5775C25.7926 69 26.9419 69.5524 27.701 70.5013L38.5 84" stroke="#273250" stroke-width="0.5"/>
									<path d="M327.5 69H303.422C302.207 69 301.058 69.5524 300.299 70.5013L289.5 84" stroke="#273250" stroke-width="0.5"/>
									<path d="M0.5 105L64.5775 105C65.7926 105 66.9419 105.552 67.701 106.501L78.5 120" stroke="#273250" stroke-width="0.5"/>
									<path d="M0.5 207H64.5775C65.7926 207 66.9419 206.448 67.701 205.499L78.5 192" stroke="#273250" stroke-width="0.5"/>
									<path d="M327.5 207H263.922C262.707 207 261.558 206.448 260.799 205.499L250 192" stroke="#273250" stroke-width="0.5"/>
									<path d="M327.5 105L263.422 105C262.207 105 261.058 105.552 260.299 106.501L249.5 120" stroke="#273250" stroke-width="0.5"/>
									<path d="M0.5 173H44.5775C45.7926 173 46.9419 172.448 47.701 171.499L58.5 158" stroke="#273250" stroke-width="0.5"/>
									<path d="M0.5 192L106.078 192C107.293 192 108.442 191.448 109.201 190.499L120 177" stroke="#273250" stroke-width="0.5"/>
									<path d="M327.5 192L221.922 192C220.707 192 219.558 191.448 218.799 190.499L208 177" stroke="#273250" stroke-width="0.5"/>
									<path d="M327.5 173H283.422C282.207 173 281.058 172.448 280.299 171.499L269.5 158" stroke="#273250" stroke-width="0.5"/>
									<path d="M0.5 135H64.6775C65.8352 135 66.9362 135.502 67.6959 136.375L86.5 158" stroke="#273250" stroke-width="0.5"/>
									<path d="M327.5 135H263.323C262.165 135 261.064 135.502 260.304 136.375L241.5 158" stroke="#273250" stroke-width="0.5"/>
									<path d="M327.5 84L225 84" stroke="#273250" stroke-width="0.5"/>
									<path d="M102 84L0.5 84" stroke="#273250" stroke-width="0.5"/>
									<path d="M327.5 158L225 158" stroke="#273250" stroke-width="0.5"/>
									<path d="M103 158L0.5 158" stroke="#273250" stroke-width="0.5"/>
									<path d="M327.5 120L236 120" stroke="#273250" stroke-width="0.5"/>
									<path d="M92 120L0.5 120" stroke="#273250" stroke-width="0.5"/>
									<circle cx="164" cy="120" r="59.75" fill="url(#paint0_linear_2739_12436)" stroke="url(#paint1_linear_2739_12436)" stroke-width="0.5"/>
									<circle cx="164" cy="120" r="71.75" stroke="#273250" stroke-width="0.5"/>
									<mask id="path-24-inside-1_2739_12436" fill="white">
									<path d="M186.065 92.508C176.831 96.2116 137.231 112.085 126.291 116.411C118.954 119.181 123.25 121.778 123.25 121.778C123.25 121.778 129.511 123.86 134.882 125.416C140.253 126.978 143.115 125.243 143.115 125.243L168.345 108.783C177.295 102.895 175.144 107.741 172.999 109.824C168.345 114.329 160.65 121.431 154.209 127.145C151.348 129.568 152.776 131.651 154.03 132.686C158.684 136.497 171.392 144.293 172.103 144.814C175.886 147.405 183.321 151.132 184.452 143.252L188.927 116.052C190.361 106.874 191.789 98.3836 191.968 95.9603C192.506 90.0668 186.065 92.496 186.065 92.496V92.508Z"/>
									</mask>
									<path d="M186.065 92.508C176.831 96.2116 137.231 112.085 126.291 116.411C118.954 119.181 123.25 121.778 123.25 121.778C123.25 121.778 129.511 123.86 134.882 125.416C140.253 126.978 143.115 125.243 143.115 125.243L168.345 108.783C177.295 102.895 175.144 107.741 172.999 109.824C168.345 114.329 160.65 121.431 154.209 127.145C151.348 129.568 152.776 131.651 154.03 132.686C158.684 136.497 171.392 144.293 172.103 144.814C175.886 147.405 183.321 151.132 184.452 143.252L188.927 116.052C190.361 106.874 191.789 98.3836 191.968 95.9603C192.506 90.0668 186.065 92.496 186.065 92.496V92.508Z" fill="url(#paint2_linear_2739_12436)"/>
									<path d="M186.065 92.508L186.252 92.972L186.565 92.8461V92.508H186.065ZM126.291 116.411L126.467 116.879L126.475 116.876L126.291 116.411ZM123.25 121.778L122.991 122.206L123.039 122.235L123.092 122.253L123.25 121.778ZM134.882 125.416L135.022 124.936L135.021 124.936L134.882 125.416ZM143.115 125.243L143.374 125.67L143.381 125.666L143.388 125.661L143.115 125.243ZM168.345 108.783L168.618 109.201L168.62 109.2L168.345 108.783ZM172.999 109.824L173.347 110.183L173.347 110.182L172.999 109.824ZM154.209 127.145L154.533 127.527L154.541 127.519L154.209 127.145ZM154.03 132.686L153.712 133.071L153.713 133.073L154.03 132.686ZM172.103 144.814L171.808 145.217L171.814 145.222L171.82 145.226L172.103 144.814ZM184.452 143.252L183.959 143.171L183.957 143.181L184.452 143.252ZM188.927 116.052L189.421 116.133L189.421 116.129L188.927 116.052ZM191.968 95.9603L191.47 95.9149L191.469 95.9234L191.968 95.9603ZM186.065 92.496L185.889 92.0282L185.565 92.1502V92.496H186.065ZM185.879 92.0439C176.644 95.7478 137.045 111.621 126.107 115.946L126.475 116.876C137.416 112.55 177.018 96.6754 186.252 92.972L185.879 92.0439ZM126.114 115.943C124.251 116.647 123.068 117.36 122.366 118.066C121.647 118.789 121.417 119.527 121.525 120.211C121.627 120.861 122.02 121.364 122.34 121.684C122.505 121.848 122.664 121.976 122.782 122.063C122.841 122.107 122.891 122.141 122.927 122.165C122.945 122.177 122.96 122.186 122.97 122.193C122.976 122.197 122.98 122.2 122.984 122.202C122.986 122.203 122.987 122.204 122.988 122.204C122.989 122.205 122.989 122.205 122.99 122.205C122.99 122.206 122.99 122.206 122.991 122.206C122.991 122.206 122.991 122.206 123.25 121.778C123.508 121.35 123.509 121.35 123.509 121.351C123.509 121.351 123.509 121.351 123.509 121.351C123.509 121.351 123.51 121.351 123.51 121.351C123.51 121.351 123.51 121.351 123.51 121.351C123.509 121.351 123.507 121.35 123.505 121.348C123.5 121.345 123.491 121.34 123.48 121.332C123.457 121.316 123.421 121.292 123.377 121.26C123.289 121.194 123.169 121.097 123.046 120.975C122.791 120.721 122.567 120.402 122.513 120.056C122.464 119.745 122.535 119.314 123.075 118.771C123.631 118.211 124.662 117.561 126.467 116.879L126.114 115.943ZM123.25 121.778C123.092 122.253 123.092 122.253 123.092 122.253C123.092 122.253 123.092 122.253 123.092 122.253C123.093 122.253 123.093 122.253 123.093 122.253C123.094 122.253 123.095 122.254 123.097 122.254C123.1 122.255 123.104 122.257 123.11 122.259C123.122 122.263 123.14 122.269 123.164 122.277C123.211 122.292 123.282 122.315 123.373 122.346C123.555 122.406 123.821 122.493 124.157 122.603C124.828 122.823 125.78 123.132 126.9 123.49C129.138 124.206 132.051 125.117 134.743 125.896L135.021 124.936C132.342 124.16 129.439 123.252 127.204 122.538C126.087 122.18 125.138 121.872 124.467 121.653C124.132 121.543 123.867 121.456 123.686 121.396C123.595 121.366 123.526 121.343 123.479 121.327C123.455 121.32 123.437 121.314 123.425 121.31C123.419 121.308 123.415 121.306 123.412 121.305C123.41 121.305 123.409 121.304 123.409 121.304C123.408 121.304 123.408 121.304 123.408 121.304C123.408 121.304 123.408 121.304 123.408 121.304C123.408 121.304 123.408 121.304 123.25 121.778ZM134.742 125.896C137.501 126.698 139.636 126.659 141.097 126.408C141.827 126.282 142.385 126.104 142.767 125.955C142.957 125.88 143.104 125.812 143.205 125.761C143.256 125.736 143.295 125.715 143.324 125.699C143.338 125.691 143.349 125.685 143.357 125.68C143.362 125.678 143.365 125.675 143.368 125.674C143.369 125.673 143.371 125.672 143.372 125.672C143.372 125.671 143.373 125.671 143.373 125.671C143.373 125.671 143.374 125.67 143.374 125.67C143.374 125.67 143.374 125.67 143.115 125.243C142.856 124.815 142.856 124.815 142.856 124.815C142.856 124.815 142.856 124.815 142.857 124.814C142.857 124.814 142.857 124.814 142.857 124.814C142.858 124.814 142.858 124.814 142.858 124.814C142.858 124.814 142.857 124.814 142.856 124.815C142.853 124.817 142.848 124.82 142.839 124.824C142.823 124.833 142.796 124.848 142.758 124.867C142.682 124.905 142.563 124.96 142.401 125.024C142.078 125.151 141.585 125.309 140.928 125.422C139.615 125.648 137.634 125.695 135.022 124.936L134.742 125.896ZM143.388 125.661L168.618 109.201L168.072 108.364L142.842 124.824L143.388 125.661ZM168.62 109.2C170.848 107.734 172.348 106.963 173.308 106.643C173.792 106.482 174.091 106.452 174.256 106.472C174.333 106.481 174.362 106.499 174.368 106.503C174.369 106.504 174.369 106.502 174.372 106.51C174.387 106.544 174.408 106.659 174.345 106.901C174.286 107.129 174.168 107.406 173.998 107.712C173.659 108.323 173.153 108.977 172.651 109.465L173.347 110.182C173.917 109.629 174.484 108.897 174.873 108.197C175.066 107.848 175.225 107.489 175.313 107.153C175.397 106.83 175.435 106.453 175.293 106.119C175.13 105.736 174.787 105.529 174.376 105.479C173.995 105.433 173.53 105.515 172.991 105.694C171.904 106.056 170.317 106.887 168.07 108.365L168.62 109.2ZM172.651 109.464C168.004 113.964 160.314 121.061 153.878 126.771L154.541 127.519C160.986 121.802 168.686 114.694 173.347 110.183L172.651 109.464ZM153.886 126.764C152.365 128.052 151.89 129.341 152.083 130.517C152.268 131.645 153.047 132.522 153.712 133.071L154.348 132.3C153.759 131.814 153.197 131.133 153.07 130.355C152.95 129.626 153.192 128.662 154.533 127.527L153.886 126.764ZM153.713 133.073C156.066 134.999 160.431 137.916 164.274 140.404C166.2 141.65 168.002 142.794 169.366 143.658C170.746 144.532 171.648 145.1 171.808 145.217L172.398 144.411C172.203 144.267 171.249 143.666 169.901 142.813C168.537 141.949 166.739 140.808 164.817 139.564C160.965 137.071 156.649 134.184 154.347 132.299L153.713 133.073ZM171.82 145.226C173.721 146.528 176.613 148.172 179.218 148.457C180.534 148.601 181.834 148.404 182.886 147.578C183.937 146.754 184.653 145.37 184.947 143.323L183.957 143.181C183.686 145.075 183.048 146.18 182.269 146.792C181.49 147.403 180.483 147.589 179.326 147.463C176.984 147.206 174.267 145.69 172.385 144.401L171.82 145.226ZM184.946 143.333L189.421 116.133L188.434 115.971L183.959 143.171L184.946 143.333ZM189.421 116.129C190.851 106.978 192.286 98.4474 192.467 95.9972L191.469 95.9234C191.292 98.3197 189.871 106.77 188.433 115.975L189.421 116.129ZM192.466 96.0058C192.608 94.45 192.298 93.3416 191.648 92.6026C191.003 91.8682 190.103 91.5905 189.26 91.5198C188.417 91.4491 187.572 91.5797 186.952 91.721C186.639 91.7923 186.377 91.8679 186.191 91.9261C186.099 91.9552 186.025 91.98 185.973 91.9979C185.948 92.0068 185.928 92.014 185.913 92.0192C185.906 92.0218 185.901 92.0238 185.897 92.0254C185.894 92.0261 185.893 92.0267 185.892 92.0272C185.891 92.0274 185.89 92.0276 185.89 92.0278C185.89 92.0279 185.89 92.028 185.889 92.028C185.889 92.0281 185.889 92.0282 186.065 92.496C186.242 92.9638 186.242 92.9639 186.242 92.9639C186.242 92.9639 186.241 92.964 186.241 92.964C186.241 92.964 186.241 92.964 186.242 92.9639C186.242 92.9638 186.243 92.9636 186.244 92.9632C186.246 92.9624 186.249 92.9611 186.254 92.9592C186.265 92.9555 186.281 92.9498 186.302 92.9424C186.344 92.9276 186.409 92.906 186.491 92.8802C186.656 92.8285 186.892 92.7604 187.174 92.696C187.745 92.566 188.477 92.4577 189.177 92.5163C189.877 92.5751 190.486 92.7951 190.897 93.2627C191.304 93.7259 191.597 94.5239 191.47 95.9149L192.466 96.0058ZM185.565 92.496V92.508H186.565V92.496H185.565Z" fill="url(#paint3_linear_2739_12436)" mask="url(#path-24-inside-1_2739_12436)"/>
									<mask id="mask0_2739_12436" style="mask-type:alpha" maskUnits="userSpaceOnUse" x="104" y="60" width="120" height="120">
									<mask id="path-26-inside-2_2739_12436" fill="white">
									<path fill-rule="evenodd" clip-rule="evenodd" d="M164 180C197.137 180 224 153.137 224 120C224 86.8629 197.137 60 164 60C130.863 60 104 86.8629 104 120C104 153.137 130.863 180 164 180ZM126.291 116.411C137.231 112.085 176.831 96.2116 186.065 92.508V92.496C186.065 92.496 192.506 90.0668 191.968 95.9603C191.837 97.734 191.037 102.758 190.055 108.924C189.695 111.181 189.312 113.592 188.927 116.052L184.452 143.252C183.321 151.132 175.886 147.405 172.103 144.814C171.945 144.698 171.195 144.223 170.072 143.513C166.142 141.025 157.65 135.65 154.03 132.686C152.776 131.651 151.348 129.568 154.209 127.145C160.65 121.431 168.345 114.329 172.999 109.824C175.144 107.741 177.295 102.895 168.345 108.783L143.115 125.243C143.115 125.243 140.253 126.978 134.882 125.416C129.511 123.86 123.25 121.778 123.25 121.778C123.25 121.778 118.954 119.181 126.291 116.411Z"/>
									</mask>
									<path fill-rule="evenodd" clip-rule="evenodd" d="M164 180C197.137 180 224 153.137 224 120C224 86.8629 197.137 60 164 60C130.863 60 104 86.8629 104 120C104 153.137 130.863 180 164 180ZM126.291 116.411C137.231 112.085 176.831 96.2116 186.065 92.508V92.496C186.065 92.496 192.506 90.0668 191.968 95.9603C191.837 97.734 191.037 102.758 190.055 108.924C189.695 111.181 189.312 113.592 188.927 116.052L184.452 143.252C183.321 151.132 175.886 147.405 172.103 144.814C171.945 144.698 171.195 144.223 170.072 143.513C166.142 141.025 157.65 135.65 154.03 132.686C152.776 131.651 151.348 129.568 154.209 127.145C160.65 121.431 168.345 114.329 172.999 109.824C175.144 107.741 177.295 102.895 168.345 108.783L143.115 125.243C143.115 125.243 140.253 126.978 134.882 125.416C129.511 123.86 123.25 121.778 123.25 121.778C123.25 121.778 118.954 119.181 126.291 116.411Z" fill="url(#paint4_linear_2739_12436)"/>
									<path d="M186.065 92.508L186.252 92.972L186.565 92.8461V92.508H186.065ZM126.291 116.411L126.467 116.879L126.475 116.876L126.291 116.411ZM186.065 92.496L185.889 92.0282L185.565 92.1502V92.496H186.065ZM191.968 95.9603L191.47 95.9149L191.469 95.9234L191.968 95.9603ZM190.055 108.924L189.561 108.845L190.055 108.924ZM188.927 116.052L189.421 116.133L189.421 116.129L188.927 116.052ZM184.452 143.252L183.959 143.171L183.957 143.181L184.452 143.252ZM172.103 144.814L171.808 145.217L171.814 145.222L171.82 145.226L172.103 144.814ZM170.072 143.513L170.339 143.09L170.072 143.513ZM154.03 132.686L153.712 133.071L153.713 133.073L154.03 132.686ZM154.209 127.145L154.533 127.527L154.541 127.519L154.209 127.145ZM172.999 109.824L173.347 110.183L173.347 110.182L172.999 109.824ZM168.345 108.783L168.618 109.201L168.62 109.2L168.345 108.783ZM143.115 125.243L143.374 125.67L143.381 125.666L143.388 125.661L143.115 125.243ZM134.882 125.416L135.022 124.936L135.021 124.936L134.882 125.416ZM123.25 121.778L122.991 122.206L123.039 122.235L123.092 122.253L123.25 121.778ZM223.5 120C223.5 152.861 196.861 179.5 164 179.5V180.5C197.413 180.5 224.5 153.413 224.5 120H223.5ZM164 60.5C196.861 60.5 223.5 87.1391 223.5 120H224.5C224.5 86.5868 197.413 59.5 164 59.5V60.5ZM104.5 120C104.5 87.1391 131.139 60.5 164 60.5V59.5C130.587 59.5 103.5 86.5868 103.5 120H104.5ZM164 179.5C131.139 179.5 104.5 152.861 104.5 120H103.5C103.5 153.413 130.587 180.5 164 180.5V179.5ZM185.879 92.0439C176.644 95.7478 137.045 111.621 126.107 115.946L126.475 116.876C137.416 112.55 177.018 96.6754 186.252 92.972L185.879 92.0439ZM185.565 92.496V92.508H186.565V92.496H185.565ZM192.466 96.0058C192.608 94.45 192.298 93.3416 191.648 92.6026C191.003 91.8682 190.103 91.5905 189.26 91.5198C188.417 91.4491 187.572 91.5797 186.952 91.721C186.639 91.7923 186.377 91.8679 186.191 91.9261C186.099 91.9552 186.025 91.98 185.973 91.9979C185.948 92.0068 185.928 92.014 185.913 92.0192C185.906 92.0218 185.901 92.0238 185.897 92.0254C185.894 92.0261 185.893 92.0267 185.892 92.0272C185.891 92.0274 185.89 92.0276 185.89 92.0278C185.89 92.0279 185.89 92.028 185.889 92.028C185.889 92.0281 185.889 92.0282 186.065 92.496C186.242 92.9638 186.242 92.9639 186.242 92.9639C186.242 92.9639 186.241 92.964 186.241 92.964C186.241 92.964 186.241 92.964 186.242 92.9639C186.242 92.9638 186.243 92.9636 186.244 92.9632C186.246 92.9624 186.249 92.9611 186.254 92.9592C186.265 92.9555 186.281 92.9498 186.302 92.9424C186.344 92.9276 186.409 92.906 186.491 92.8802C186.656 92.8285 186.892 92.7604 187.174 92.696C187.745 92.566 188.477 92.4577 189.177 92.5163C189.877 92.5751 190.486 92.7951 190.897 93.2627C191.304 93.7259 191.597 94.5239 191.47 95.9149L192.466 96.0058ZM190.549 109.002C191.528 102.854 192.334 97.7984 192.467 95.9972L191.469 95.9234C191.34 97.6697 190.546 102.662 189.561 108.845L190.549 109.002ZM189.421 116.129C189.805 113.67 190.189 111.26 190.549 109.002L189.561 108.845C189.202 111.103 188.818 113.514 188.433 115.975L189.421 116.129ZM184.946 143.333L189.421 116.133L188.434 115.971L183.959 143.171L184.946 143.333ZM171.82 145.226C173.721 146.528 176.613 148.172 179.218 148.457C180.534 148.601 181.834 148.404 182.886 147.578C183.937 146.754 184.653 145.37 184.947 143.323L183.957 143.181C183.686 145.075 183.048 146.18 182.269 146.792C181.49 147.403 180.483 147.589 179.326 147.463C176.984 147.206 174.267 145.69 172.385 144.401L171.82 145.226ZM169.805 143.935C170.942 144.655 171.668 145.115 171.808 145.217L172.398 144.41C172.222 144.282 171.447 143.792 170.339 143.09L169.805 143.935ZM153.713 133.073C157.363 136.061 165.889 141.457 169.805 143.935L170.339 143.09C166.395 140.594 157.937 135.239 154.347 132.299L153.713 133.073ZM153.886 126.764C152.365 128.052 151.89 129.341 152.083 130.517C152.268 131.645 153.047 132.522 153.712 133.071L154.348 132.3C153.759 131.814 153.197 131.133 153.07 130.355C152.95 129.626 153.192 128.662 154.533 127.527L153.886 126.764ZM172.651 109.464C168.004 113.964 160.314 121.061 153.878 126.771L154.541 127.519C160.986 121.802 168.686 114.694 173.347 110.183L172.651 109.464ZM168.62 109.2C170.848 107.734 172.348 106.963 173.308 106.643C173.792 106.482 174.091 106.452 174.256 106.472C174.333 106.481 174.362 106.499 174.368 106.503C174.369 106.504 174.369 106.502 174.372 106.51C174.387 106.544 174.408 106.659 174.345 106.901C174.286 107.129 174.168 107.406 173.998 107.712C173.659 108.323 173.153 108.977 172.651 109.465L173.347 110.182C173.917 109.629 174.484 108.897 174.873 108.197C175.066 107.848 175.225 107.489 175.313 107.153C175.397 106.83 175.435 106.453 175.293 106.119C175.13 105.736 174.787 105.529 174.376 105.479C173.995 105.433 173.53 105.515 172.991 105.694C171.904 106.056 170.317 106.887 168.07 108.365L168.62 109.2ZM143.388 125.661L168.618 109.201L168.072 108.364L142.842 124.824L143.388 125.661ZM134.742 125.896C137.501 126.698 139.636 126.659 141.097 126.408C141.827 126.282 142.385 126.104 142.767 125.955C142.957 125.88 143.104 125.812 143.205 125.761C143.256 125.736 143.295 125.715 143.324 125.699C143.338 125.691 143.349 125.685 143.357 125.68C143.362 125.678 143.365 125.675 143.368 125.674C143.369 125.673 143.371 125.672 143.372 125.672C143.372 125.671 143.373 125.671 143.373 125.671C143.373 125.671 143.374 125.67 143.374 125.67C143.374 125.67 143.374 125.67 143.115 125.243C142.856 124.815 142.856 124.815 142.856 124.815C142.856 124.815 142.856 124.815 142.857 124.814C142.857 124.814 142.857 124.814 142.857 124.814C142.858 124.814 142.858 124.814 142.858 124.814C142.858 124.814 142.857 124.814 142.856 124.815C142.853 124.817 142.848 124.82 142.839 124.824C142.823 124.833 142.796 124.848 142.758 124.867C142.682 124.905 142.563 124.96 142.401 125.024C142.078 125.151 141.585 125.309 140.928 125.422C139.615 125.648 137.634 125.695 135.022 124.936L134.742 125.896ZM123.25 121.778C123.092 122.253 123.092 122.253 123.092 122.253C123.092 122.253 123.092 122.253 123.092 122.253C123.093 122.253 123.093 122.253 123.093 122.253C123.094 122.253 123.095 122.254 123.097 122.254C123.1 122.255 123.104 122.257 123.11 122.259C123.122 122.263 123.14 122.269 123.164 122.277C123.211 122.292 123.282 122.315 123.373 122.346C123.555 122.406 123.821 122.493 124.157 122.603C124.828 122.823 125.78 123.132 126.9 123.49C129.138 124.206 132.051 125.117 134.743 125.896L135.021 124.936C132.342 124.16 129.439 123.252 127.204 122.538C126.087 122.18 125.138 121.872 124.467 121.653C124.132 121.543 123.867 121.456 123.686 121.396C123.595 121.366 123.526 121.343 123.479 121.327C123.455 121.32 123.437 121.314 123.425 121.31C123.419 121.308 123.415 121.306 123.412 121.305C123.41 121.305 123.409 121.304 123.409 121.304C123.408 121.304 123.408 121.304 123.408 121.304C123.408 121.304 123.408 121.304 123.408 121.304C123.408 121.304 123.408 121.304 123.25 121.778ZM126.114 115.943C124.251 116.647 123.068 117.36 122.366 118.066C121.647 118.789 121.417 119.527 121.525 120.211C121.627 120.861 122.02 121.364 122.34 121.684C122.505 121.848 122.664 121.976 122.782 122.063C122.841 122.107 122.891 122.141 122.927 122.165C122.945 122.177 122.96 122.186 122.97 122.193C122.976 122.197 122.98 122.2 122.984 122.202C122.986 122.203 122.987 122.204 122.988 122.204C122.989 122.205 122.989 122.205 122.99 122.205C122.99 122.206 122.99 122.206 122.991 122.206C122.991 122.206 122.991 122.206 123.25 121.778C123.508 121.35 123.509 121.35 123.509 121.351C123.509 121.351 123.509 121.351 123.509 121.351C123.509 121.351 123.51 121.351 123.51 121.351C123.51 121.351 123.51 121.351 123.51 121.351C123.509 121.351 123.507 121.35 123.505 121.348C123.5 121.345 123.491 121.34 123.48 121.332C123.457 121.316 123.421 121.292 123.377 121.26C123.289 121.194 123.169 121.097 123.046 120.975C122.791 120.721 122.567 120.402 122.513 120.056C122.464 119.745 122.535 119.314 123.075 118.771C123.631 118.211 124.662 117.561 126.467 116.879L126.114 115.943Z" fill="url(#paint5_linear_2739_12436)" mask="url(#path-26-inside-2_2739_12436)"/>
									</mask>
									<g mask="url(#mask0_2739_12436)">
									<g filter="url(#filter0_f_2739_12436)">
									<ellipse cx="154" cy="56" rx="90" ry="40" fill="#5B6085"/>
									</g>
									<g filter="url(#filter1_f_2739_12436)">
									<ellipse cx="156.5" cy="200" rx="91.5" ry="40" fill="#17192F"/>
									</g>
									</g>
									<mask id="mask1_2739_12436" style="mask-type:alpha" maskUnits="userSpaceOnUse" x="104" y="60" width="120" height="120">
									<circle cx="164" cy="120" r="59.75" fill="url(#paint6_linear_2739_12436)" stroke="url(#paint7_linear_2739_12436)" stroke-width="0.5"/>
									</mask>
									<g mask="url(#mask1_2739_12436)">
									<g opacity="0.3" filter="url(#filter2_f_2739_12436)">
									<circle cx="164" cy="120" r="59.5" stroke="url(#paint8_linear_2739_12436)"/>
									</g>
									</g>
									<defs>
									<filter id="filter0_f_2739_12436" x="-56" y="-104" width="420" height="320" filterUnits="userSpaceOnUse" color-interpolation-filters="sRGB">
									<feFlood flood-opacity="0" result="BackgroundImageFix"/>
									<feBlend mode="normal" in="SourceGraphic" in2="BackgroundImageFix" result="shape"/>
									<feGaussianBlur stdDeviation="60" result="effect1_foregroundBlur_2739_12436"/>
									</filter>
									<filter id="filter1_f_2739_12436" x="-5" y="90" width="323" height="220" filterUnits="userSpaceOnUse" color-interpolation-filters="sRGB">
									<feFlood flood-opacity="0" result="BackgroundImageFix"/>
									<feBlend mode="normal" in="SourceGraphic" in2="BackgroundImageFix" result="shape"/>
									<feGaussianBlur stdDeviation="35" result="effect1_foregroundBlur_2739_12436"/>
									</filter>
									<filter id="filter2_f_2739_12436" x="88" y="44" width="152" height="152" filterUnits="userSpaceOnUse" color-interpolation-filters="sRGB">
									<feFlood flood-opacity="0" result="BackgroundImageFix"/>
									<feBlend mode="normal" in="SourceGraphic" in2="BackgroundImageFix" result="shape"/>
									<feGaussianBlur stdDeviation="8" result="effect1_foregroundBlur_2739_12436"/>
									</filter>
									<linearGradient id="paint0_linear_2739_12436" x1="222.154" y1="52.8" x2="83.596" y2="72.8463" gradientUnits="userSpaceOnUse">
									<stop stop-color="#1F2338"/>
									<stop offset="0.446428" stop-color="#181C2E"/>
									<stop offset="1" stop-color="#1C2138"/>
									</linearGradient>
									<linearGradient id="paint1_linear_2739_12436" x1="164" y1="60" x2="164" y2="180" gradientUnits="userSpaceOnUse">
									<stop stop-color="#2B3553"/>
									<stop offset="1" stop-color="#434857"/>
									</linearGradient>
									<linearGradient id="paint2_linear_2739_12436" x1="230" y1="-12" x2="72.0588" y2="82.7646" gradientUnits="userSpaceOnUse">
									<stop stop-color="#1D223D"/>
									<stop offset="0.446428" stop-color="#0F1220"/>
									<stop offset="1" stop-color="#171B31"/>
									</linearGradient>
									<linearGradient id="paint3_linear_2739_12436" x1="157" y1="92" x2="157" y2="148" gradientUnits="userSpaceOnUse">
									<stop stop-color="#2B3553"/>
									<stop offset="1" stop-color="#575E75"/>
									</linearGradient>
									<linearGradient id="paint4_linear_2739_12436" x1="222.154" y1="52.8" x2="83.596" y2="72.8463" gradientUnits="userSpaceOnUse">
									<stop stop-color="#1F2338"/>
									<stop offset="0.446428" stop-color="#181C2E"/>
									<stop offset="1" stop-color="#1C2138"/>
									</linearGradient>
									<linearGradient id="paint5_linear_2739_12436" x1="164" y1="60" x2="164" y2="180" gradientUnits="userSpaceOnUse">
									<stop stop-color="#2B3553"/>
									<stop offset="1" stop-color="#434857"/>
									</linearGradient>
									<linearGradient id="paint6_linear_2739_12436" x1="222.154" y1="52.8" x2="83.596" y2="72.8463" gradientUnits="userSpaceOnUse">
									<stop stop-color="#1F2338"/>
									<stop offset="0.446428" stop-color="#181C2E"/>
									<stop offset="1" stop-color="#1C2138"/>
									</linearGradient>
									<linearGradient id="paint7_linear_2739_12436" x1="164" y1="60" x2="164" y2="180" gradientUnits="userSpaceOnUse">
									<stop stop-color="#2B3553"/>
									<stop offset="1" stop-color="#434857"/>
									</linearGradient>
									<linearGradient id="paint8_linear_2739_12436" x1="164" y1="104.286" x2="164" y2="147.857" gradientUnits="userSpaceOnUse">
									<stop stop-color="#EEEEEE"/>
									<stop offset="0.51" stop-color="#C8DCF5"/>
									<stop offset="1" stop-color="#CBD5E2"/>
									</linearGradient>
									</defs>
								</svg>									