								<svg width="187" height="81" viewBox="0 0 187 81" fill="none" xmlns="http://www.w3.org/2000/svg">
									<rect x="0.25" y="0.25" width="186.5" height="80.5" rx="11.75" stroke="#273250" stroke-width="0.5"/>
									<mask id="path-2-inside-1_2782_10950" fill="white">
									<path fill-rule="evenodd" clip-rule="evenodd" d="M179 65C179 69.4183 175.418 73 171 73L16 73C11.5817 73 8 69.4183 8 65V62.95C8.16156 62.9828 8.32877 63 8.5 63C9.88071 63 11 61.8807 11 60.5C11 59.1193 9.88071 58 8.5 58C8.32877 58 8.16156 58.0172 8 58.05L8 23.95C8.16156 23.9828 8.32877 24 8.5 24C9.88071 24 11 22.8807 11 21.5C11 20.1193 9.88071 19 8.5 19C8.32877 19 8.16156 19.0172 8 19.05L8 16C8.00001 11.5817 11.5817 8 16 8L171 8.00001C175.418 8.00001 179 11.5817 179 16V19.05C178.838 19.0172 178.671 19 178.5 19C177.119 19 176 20.1193 176 21.5C176 22.8807 177.119 24 178.5 24C178.671 24 178.838 23.9828 179 23.95V58.05C178.838 58.0172 178.671 58 178.5 58C177.119 58 176 59.1193 176 60.5C176 61.8807 177.119 63 178.5 63C178.671 63 178.838 62.9828 179 62.95V65Z"/>
									</mask>
									<path fill-rule="evenodd" clip-rule="evenodd" d="M179 65C179 69.4183 175.418 73 171 73L16 73C11.5817 73 8 69.4183 8 65V62.95C8.16156 62.9828 8.32877 63 8.5 63C9.88071 63 11 61.8807 11 60.5C11 59.1193 9.88071 58 8.5 58C8.32877 58 8.16156 58.0172 8 58.05L8 23.95C8.16156 23.9828 8.32877 24 8.5 24C9.88071 24 11 22.8807 11 21.5C11 20.1193 9.88071 19 8.5 19C8.32877 19 8.16156 19.0172 8 19.05L8 16C8.00001 11.5817 11.5817 8 16 8L171 8.00001C175.418 8.00001 179 11.5817 179 16V19.05C178.838 19.0172 178.671 19 178.5 19C177.119 19 176 20.1193 176 21.5C176 22.8807 177.119 24 178.5 24C178.671 24 178.838 23.9828 179 23.95V58.05C178.838 58.0172 178.671 58 178.5 58C177.119 58 176 59.1193 176 60.5C176 61.8807 177.119 63 178.5 63C178.671 63 178.838 62.9828 179 62.95V65Z" fill="url(#paint0_linear_2782_10950)"/>
									<path d="M171 73V73.5V73ZM16 73V72.5V73ZM8 62.95L8.09947 62.46L7.5 62.3383V62.95H8ZM8 58.05H7.5L7.5 58.6617L8.09947 58.54L8 58.05ZM8 23.95L8.09947 23.46L7.5 23.3383L7.5 23.95H8ZM8 19.05H7.5L7.5 19.6617L8.09947 19.54L8 19.05ZM8 16H8.50001H8ZM16 8V8.5V8ZM171 8.00001V7.50001V8.00001ZM179 19.05L178.901 19.54L179.5 19.6617V19.05H179ZM179 23.95H179.5V23.3383L178.901 23.46L179 23.95ZM179 58.05L178.901 58.54L179.5 58.6617V58.05H179ZM179 62.95H179.5V62.3383L178.901 62.46L179 62.95ZM171 73.5C175.694 73.5 179.5 69.6944 179.5 65H178.5C178.5 69.1422 175.142 72.5 171 72.5V73.5ZM16 73.5L171 73.5V72.5L16 72.5V73.5ZM7.5 65C7.5 69.6944 11.3056 73.5 16 73.5V72.5C11.8579 72.5 8.5 69.1421 8.5 65H7.5ZM7.5 62.95V65H8.5V62.95H7.5ZM8.5 62.5C8.36236 62.5 8.22847 62.4862 8.09947 62.46L7.90053 63.44C8.09464 63.4794 8.29517 63.5 8.5 63.5V62.5ZM10.5 60.5C10.5 61.6046 9.60457 62.5 8.5 62.5V63.5C10.1569 63.5 11.5 62.1569 11.5 60.5H10.5ZM8.5 58.5C9.60457 58.5 10.5 59.3955 10.5 60.5H11.5C11.5 58.8432 10.1569 57.5 8.5 57.5V58.5ZM8.09947 58.54C8.22847 58.5139 8.36236 58.5 8.5 58.5V57.5C8.29517 57.5 8.09464 57.5206 7.90053 57.56L8.09947 58.54ZM7.5 23.95L7.5 58.05H8.5L8.5 23.95H7.5ZM8.5 23.5C8.36236 23.5 8.22847 23.4862 8.09947 23.46L7.90054 24.44C8.09465 24.4794 8.29518 24.5 8.5 24.5V23.5ZM10.5 21.5C10.5 22.6046 9.60457 23.5 8.5 23.5V24.5C10.1569 24.5 11.5 23.1569 11.5 21.5H10.5ZM8.5 19.5C9.60457 19.5 10.5 20.3955 10.5 21.5H11.5C11.5 19.8432 10.1569 18.5 8.5 18.5V19.5ZM8.09947 19.54C8.22847 19.5139 8.36236 19.5 8.5 19.5V18.5C8.29518 18.5 8.09465 18.5206 7.90054 18.56L8.09947 19.54ZM7.5 16L7.5 19.05H8.5L8.50001 16H7.5ZM16 7.5C11.3056 7.5 7.50001 11.3056 7.5 16H8.50001C8.50001 11.8579 11.8579 8.5 16 8.5V7.5ZM171 7.50001L16 7.5V8.5L171 8.50001V7.50001ZM179.5 16C179.5 11.3056 175.694 7.50001 171 7.50001V8.50001C175.142 8.50001 178.5 11.8579 178.5 16H179.5ZM179.5 19.05V16H178.5V19.05H179.5ZM178.5 19.5C178.638 19.5 178.772 19.5139 178.901 19.54L179.099 18.56C178.905 18.5206 178.705 18.5 178.5 18.5V19.5ZM176.5 21.5C176.5 20.3955 177.395 19.5 178.5 19.5V18.5C176.843 18.5 175.5 19.8432 175.5 21.5H176.5ZM178.5 23.5C177.395 23.5 176.5 22.6046 176.5 21.5H175.5C175.5 23.1569 176.843 24.5 178.5 24.5V23.5ZM178.901 23.46C178.772 23.4862 178.638 23.5 178.5 23.5V24.5C178.705 24.5 178.905 24.4794 179.099 24.44L178.901 23.46ZM179.5 58.05V23.95H178.5V58.05H179.5ZM178.5 58.5C178.638 58.5 178.772 58.5139 178.901 58.54L179.099 57.56C178.905 57.5206 178.705 57.5 178.5 57.5V58.5ZM176.5 60.5C176.5 59.3955 177.395 58.5 178.5 58.5V57.5C176.843 57.5 175.5 58.8432 175.5 60.5H176.5ZM178.5 62.5C177.395 62.5 176.5 61.6046 176.5 60.5H175.5C175.5 62.1569 176.843 63.5 178.5 63.5V62.5ZM178.901 62.46C178.772 62.4862 178.638 62.5 178.5 62.5V63.5C178.705 63.5 178.905 63.4794 179.099 63.44L178.901 62.46ZM179.5 65V62.95H178.5V65H179.5Z" fill="url(#paint1_linear_2782_10950)" mask="url(#path-2-inside-1_2782_10950)"/>
									<mask id="path-4-inside-2_2782_10950" fill="white">
									<path fill-rule="evenodd" clip-rule="evenodd" d="M76.2547 49.01C76.3254 46.4285 75.6005 44.1476 74.0799 42.1672C73.3019 41.1063 72.4178 40.2399 71.4276 39.568C71.852 39.0729 72.1526 38.7016 72.3294 38.4541C73.8854 36.5444 74.6103 34.458 74.5042 32.1947C74.3981 29.79 73.6378 27.7213 72.2233 25.9885C70.9148 24.2557 69.1467 23.071 66.9188 22.4344C66.0701 22.1162 64.7086 21.957 62.8343 21.957H48.7773V60.1495H63.63C65.2213 60.1495 66.7243 59.9727 68.1388 59.6191C70.5082 58.8764 72.4355 57.5857 73.9207 55.7468C75.406 53.7664 76.184 51.5208 76.2547 49.01ZM54.4001 27.1555H63.7361C65.2567 27.1555 66.4944 27.7213 67.4492 28.8529C68.298 29.7723 68.7577 30.8863 68.8284 32.1947C68.8284 33.4325 68.4571 34.511 67.7145 35.4305C67.2901 36.067 66.6889 36.5798 65.9109 36.9688C65.1329 37.3578 64.408 37.5523 63.7361 37.5523H54.4001V27.1555ZM69.1997 44.9256C70.2253 46.0926 70.7027 47.4541 70.6319 49.01C70.5612 50.6721 69.9777 52.0336 68.8814 53.0945C67.7145 54.2969 65.9463 54.8981 63.5769 54.8981H54.4001V42.7507H64.6378C66.4767 42.7507 67.9974 43.4757 69.1997 44.9256ZM107.24 42.1672C108.761 44.1476 109.486 46.4285 109.415 49.01C109.344 51.5208 108.566 53.7664 107.081 55.7468C105.596 57.5857 103.668 58.8764 101.299 59.6191C99.8844 59.9727 98.3815 60.1495 96.7901 60.1495H81.9375V21.957H95.9945C97.8687 21.957 99.2302 22.1162 100.079 22.4344C102.307 23.071 104.075 24.2557 105.383 25.9885C106.798 27.7213 107.558 29.79 107.664 32.1947C107.77 34.458 107.046 36.5444 105.49 38.4541C105.313 38.7016 105.012 39.0729 104.588 39.568C105.578 40.2399 106.462 41.1063 107.24 42.1672ZM96.8962 27.1555H87.5603V37.5523H96.8962C97.5681 37.5523 98.2931 37.3578 99.0711 36.9688C99.8491 36.5798 100.45 36.067 100.875 35.4305C101.617 34.511 101.989 33.4325 101.989 32.1947C101.918 30.8863 101.458 29.7723 100.609 28.8529C99.6546 27.7213 98.4169 27.1555 96.8962 27.1555ZM103.792 49.01C103.863 47.4541 103.385 46.0926 102.36 44.9256C101.158 43.4757 99.6369 42.7507 97.798 42.7507H87.5603V54.8981H96.7371C99.1064 54.8981 100.875 54.2969 102.042 53.0945C103.138 52.0336 103.721 50.6721 103.792 49.01ZM121.694 54.898H142.169V60.1495H114.586V54.898L135.114 27.2085H114.586V21.957H142.169V27.2085L121.694 54.898Z"/>
									</mask>
									<path fill-rule="evenodd" clip-rule="evenodd" d="M76.2547 49.01C76.3254 46.4285 75.6005 44.1476 74.0799 42.1672C73.3019 41.1063 72.4178 40.2399 71.4276 39.568C71.852 39.0729 72.1526 38.7016 72.3294 38.4541C73.8854 36.5444 74.6103 34.458 74.5042 32.1947C74.3981 29.79 73.6378 27.7213 72.2233 25.9885C70.9148 24.2557 69.1467 23.071 66.9188 22.4344C66.0701 22.1162 64.7086 21.957 62.8343 21.957H48.7773V60.1495H63.63C65.2213 60.1495 66.7243 59.9727 68.1388 59.6191C70.5082 58.8764 72.4355 57.5857 73.9207 55.7468C75.406 53.7664 76.184 51.5208 76.2547 49.01ZM54.4001 27.1555H63.7361C65.2567 27.1555 66.4944 27.7213 67.4492 28.8529C68.298 29.7723 68.7577 30.8863 68.8284 32.1947C68.8284 33.4325 68.4571 34.511 67.7145 35.4305C67.2901 36.067 66.6889 36.5798 65.9109 36.9688C65.1329 37.3578 64.408 37.5523 63.7361 37.5523H54.4001V27.1555ZM69.1997 44.9256C70.2253 46.0926 70.7027 47.4541 70.6319 49.01C70.5612 50.6721 69.9777 52.0336 68.8814 53.0945C67.7145 54.2969 65.9463 54.8981 63.5769 54.8981H54.4001V42.7507H64.6378C66.4767 42.7507 67.9974 43.4757 69.1997 44.9256ZM107.24 42.1672C108.761 44.1476 109.486 46.4285 109.415 49.01C109.344 51.5208 108.566 53.7664 107.081 55.7468C105.596 57.5857 103.668 58.8764 101.299 59.6191C99.8844 59.9727 98.3815 60.1495 96.7901 60.1495H81.9375V21.957H95.9945C97.8687 21.957 99.2302 22.1162 100.079 22.4344C102.307 23.071 104.075 24.2557 105.383 25.9885C106.798 27.7213 107.558 29.79 107.664 32.1947C107.77 34.458 107.046 36.5444 105.49 38.4541C105.313 38.7016 105.012 39.0729 104.588 39.568C105.578 40.2399 106.462 41.1063 107.24 42.1672ZM96.8962 27.1555H87.5603V37.5523H96.8962C97.5681 37.5523 98.2931 37.3578 99.0711 36.9688C99.8491 36.5798 100.45 36.067 100.875 35.4305C101.617 34.511 101.989 33.4325 101.989 32.1947C101.918 30.8863 101.458 29.7723 100.609 28.8529C99.6546 27.7213 98.4169 27.1555 96.8962 27.1555ZM103.792 49.01C103.863 47.4541 103.385 46.0926 102.36 44.9256C101.158 43.4757 99.6369 42.7507 97.798 42.7507H87.5603V54.8981H96.7371C99.1064 54.8981 100.875 54.2969 102.042 53.0945C103.138 52.0336 103.721 50.6721 103.792 49.01ZM121.694 54.898H142.169V60.1495H114.586V54.898L135.114 27.2085H114.586V21.957H142.169V27.2085L121.694 54.898Z" fill="#10121F"/>
									<path d="M74.0799 42.1672L73.6766 42.463L73.6833 42.4717L74.0799 42.1672ZM76.2547 49.01L76.7545 49.0241L76.7545 49.0237L76.2547 49.01ZM71.4276 39.568L71.048 39.2426L70.6838 39.6675L71.1469 39.9817L71.4276 39.568ZM72.3294 38.4541L71.9418 38.1382L71.9317 38.1505L71.9225 38.1634L72.3294 38.4541ZM74.5042 32.1947L74.0047 32.2168L74.0048 32.2182L74.5042 32.1947ZM72.2233 25.9885L71.8243 26.2898L71.83 26.2973L71.836 26.3047L72.2233 25.9885ZM66.9188 22.4344L66.7432 22.9026L66.7621 22.9097L66.7814 22.9152L66.9188 22.4344ZM48.7773 21.957V21.457H48.2773V21.957H48.7773ZM48.7773 60.1495H48.2773V60.6495H48.7773V60.1495ZM68.1388 59.6191L68.2601 60.1041L68.2743 60.1006L68.2884 60.0962L68.1388 59.6191ZM73.9207 55.7468L74.3097 56.0609L74.3153 56.054L74.3207 56.0468L73.9207 55.7468ZM54.4001 27.1555V26.6555H53.9001V27.1555H54.4001ZM67.4492 28.8529L67.0671 29.1753L67.0743 29.1839L67.0818 29.192L67.4492 28.8529ZM68.8284 32.1947H69.3284V32.1812L69.3277 32.1678L68.8284 32.1947ZM67.7145 35.4305L67.3255 35.1163L67.3111 35.1341L67.2984 35.1531L67.7145 35.4305ZM54.4001 37.5523H53.9001V38.0523H54.4001V37.5523ZM70.6319 49.01L70.1325 48.9873L70.1324 48.9888L70.6319 49.01ZM69.1997 44.9256L68.8148 45.2447L68.8194 45.2502L68.8241 45.2556L69.1997 44.9256ZM68.8814 53.0945L68.5337 52.7352L68.5281 52.7407L68.5226 52.7463L68.8814 53.0945ZM54.4001 54.8981H53.9001V55.3981H54.4001V54.8981ZM54.4001 42.7507V42.2507H53.9001V42.7507H54.4001ZM109.415 49.01L109.915 49.0241L109.915 49.0237L109.415 49.01ZM107.24 42.1672L106.837 42.463L106.843 42.4717L107.24 42.1672ZM107.081 55.7468L107.47 56.0609L107.475 56.054L107.481 56.0468L107.081 55.7468ZM101.299 59.6191L101.42 60.1041L101.434 60.1006L101.449 60.0962L101.299 59.6191ZM81.9375 60.1495H81.4375V60.6495H81.9375V60.1495ZM81.9375 21.957V21.457H81.4375V21.957H81.9375ZM100.079 22.4344L99.9034 22.9026L99.9222 22.9097L99.9416 22.9152L100.079 22.4344ZM105.383 25.9885L104.984 26.2898L104.99 26.2973L104.996 26.3047L105.383 25.9885ZM107.664 32.1947L107.165 32.2168L107.165 32.2182L107.664 32.1947ZM105.49 38.4541L105.102 38.1382L105.092 38.1505L105.083 38.1634L105.49 38.4541ZM104.588 39.568L104.208 39.2426L103.844 39.6675L104.307 39.9817L104.588 39.568ZM87.5603 27.1555V26.6555H87.0603V27.1555H87.5603ZM87.5603 37.5523H87.0603V38.0523H87.5603V37.5523ZM99.0711 36.9688L99.2947 37.416V37.416L99.0711 36.9688ZM100.875 35.4305L100.486 35.1163L100.471 35.1341L100.459 35.1531L100.875 35.4305ZM101.989 32.1947H102.489V32.1812L102.488 32.1678L101.989 32.1947ZM100.609 28.8529L100.227 29.1753L100.234 29.1839L100.242 29.192L100.609 28.8529ZM102.36 44.9256L101.975 45.2447L101.98 45.2502L101.984 45.2556L102.36 44.9256ZM103.792 49.01L103.293 48.9873L103.293 48.9888L103.792 49.01ZM87.5603 42.7507V42.2507H87.0603V42.7507H87.5603ZM87.5603 54.8981H87.0603V55.3981H87.5603V54.8981ZM102.042 53.0945L101.694 52.7352L101.688 52.7407L101.683 52.7463L102.042 53.0945ZM142.169 54.898H142.669V54.398H142.169V54.898ZM121.694 54.898L121.292 54.6008L120.702 55.398H121.694V54.898ZM142.169 60.1495V60.6495H142.669V60.1495H142.169ZM114.586 60.1495H114.086V60.6495H114.586V60.1495ZM114.586 54.898L114.184 54.6003L114.086 54.7329V54.898H114.586ZM135.114 27.2085L135.516 27.5063L136.108 26.7085H135.114V27.2085ZM114.586 27.2085H114.086V27.7085H114.586V27.2085ZM114.586 21.957V21.457H114.086V21.957H114.586ZM142.169 21.957H142.669V21.457H142.169V21.957ZM142.169 27.2085L142.571 27.5058L142.669 27.3733V27.2085H142.169ZM73.6833 42.4717C75.1314 44.3577 75.8226 46.5253 75.7549 48.9964L76.7545 49.0237C76.8283 46.3317 76.0696 43.9375 74.4764 41.8627L73.6833 42.4717ZM71.1469 39.9817C72.0853 40.6186 72.9291 41.4435 73.6767 42.4629L74.4831 41.8715C73.6746 40.7691 72.7503 39.8613 71.7084 39.1543L71.1469 39.9817ZM71.9225 38.1634C71.7594 38.3919 71.471 38.7491 71.048 39.2426L71.8072 39.8934C72.2329 39.3968 72.5458 39.0114 72.7362 38.7447L71.9225 38.1634ZM74.0048 32.2182C74.1046 34.3473 73.4273 36.315 71.9418 38.1382L72.717 38.7699C74.3434 36.7738 75.1161 34.5687 75.0037 32.1713L74.0048 32.2182ZM71.836 26.3047C73.1771 27.9476 73.903 29.911 74.0047 32.2168L75.0037 32.1727C74.8933 29.6691 74.0985 27.495 72.6106 25.6723L71.836 26.3047ZM66.7814 22.9152C68.9124 23.524 70.5858 24.6496 71.8243 26.2898L72.6223 25.6872C71.2439 23.8617 69.381 22.6179 67.0561 21.9537L66.7814 22.9152ZM62.8343 22.457C64.6987 22.457 65.9836 22.6178 66.7432 22.9026L67.0943 21.9663C66.1565 21.6146 64.7184 21.457 62.8343 21.457V22.457ZM48.7773 22.457H62.8343V21.457H48.7773V22.457ZM49.2773 60.1495V21.957H48.2773V60.1495H49.2773ZM63.63 59.6495H48.7773V60.6495H63.63V59.6495ZM68.0175 59.134C66.6461 59.4769 65.1841 59.6495 63.63 59.6495V60.6495C65.2585 60.6495 66.8025 60.4685 68.2601 60.1041L68.0175 59.134ZM73.5318 55.4326C72.1117 57.1908 70.2695 58.4273 67.9893 59.142L68.2884 60.0962C70.7468 59.3256 72.7592 57.9806 74.3097 56.0609L73.5318 55.4326ZM75.7549 48.996C75.6871 51.4051 74.943 53.5504 73.5207 55.4468L74.3207 56.0468C75.869 53.9824 76.6809 51.6366 76.7545 49.0241L75.7549 48.996ZM63.7361 26.6555H54.4001V27.6555H63.7361V26.6555ZM67.8314 28.5305C66.7786 27.2828 65.3994 26.6555 63.7361 26.6555V27.6555C65.114 27.6555 66.2102 28.1598 67.0671 29.1753L67.8314 28.5305ZM69.3277 32.1678C69.251 30.749 68.7482 29.523 67.8166 28.5138L67.0818 29.192C67.8477 30.0217 68.2644 31.0236 68.3291 32.2217L69.3277 32.1678ZM68.1034 35.7447C68.9215 34.7318 69.3284 33.541 69.3284 32.1947H68.3284C68.3284 33.324 67.9927 34.2903 67.3255 35.1163L68.1034 35.7447ZM66.1345 37.416C66.9795 36.9935 67.6515 36.4262 68.1305 35.7078L67.2984 35.1531C66.9286 35.7078 66.3983 36.1661 65.6873 36.5216L66.1345 37.416ZM63.7361 38.0523C64.505 38.0523 65.3069 37.8299 66.1345 37.416L65.6873 36.5216C64.959 36.8857 64.3109 37.0523 63.7361 37.0523V38.0523ZM54.4001 38.0523H63.7361V37.0523H54.4001V38.0523ZM53.9001 27.1555V37.5523H54.9001V27.1555H53.9001ZM71.1314 49.0327C71.208 47.3479 70.6864 45.8599 69.5753 44.5955L68.8241 45.2556C69.7641 46.3252 70.1973 47.5602 70.1325 48.9873L71.1314 49.0327ZM69.2292 53.4538C70.4262 52.2954 71.0558 50.8087 71.1315 49.0313L70.1324 48.9888C70.0666 50.5355 69.5292 51.7718 68.5337 52.7352L69.2292 53.4538ZM63.5769 55.3981C66.0246 55.3981 67.9457 54.7765 69.2402 53.4428L68.5226 52.7463C67.4832 53.8173 65.868 54.3981 63.5769 54.3981V55.3981ZM54.4001 55.3981H63.5769V54.3981H54.4001V55.3981ZM53.9001 42.7507V54.8981H54.9001V42.7507H53.9001ZM64.6378 42.2507H54.4001V43.2507H64.6378V42.2507ZM69.5846 44.6064C68.2899 43.0452 66.6297 42.2507 64.6378 42.2507V43.2507C66.3238 43.2507 67.7048 43.9062 68.8148 45.2447L69.5846 44.6064ZM109.915 49.0237C109.988 46.3317 109.23 43.9375 107.637 41.8627L106.843 42.4717C108.292 44.3577 108.983 46.5253 108.915 48.9964L109.915 49.0237ZM107.481 56.0468C109.029 53.9824 109.841 51.6366 109.915 49.0241L108.915 48.996C108.847 51.4051 108.103 53.5504 106.681 55.4468L107.481 56.0468ZM101.449 60.0962C103.907 59.3256 105.919 57.9806 107.47 56.0609L106.692 55.4326C105.272 57.1908 103.43 58.4273 101.149 59.142L101.449 60.0962ZM96.7901 60.6495C98.4187 60.6495 99.9626 60.4685 101.42 60.1041L101.178 59.134C99.8063 59.4769 98.3443 59.6495 96.7901 59.6495V60.6495ZM81.9375 60.6495H96.7901V59.6495H81.9375V60.6495ZM81.4375 21.957V60.1495H82.4375V21.957H81.4375ZM95.9945 21.457H81.9375V22.457H95.9945V21.457ZM100.254 21.9663C99.3166 21.6146 97.8786 21.457 95.9945 21.457V22.457C97.8589 22.457 99.1438 22.6178 99.9034 22.9026L100.254 21.9663ZM105.782 25.6872C104.404 23.8617 102.541 22.6179 100.216 21.9537L99.9416 22.9152C102.073 23.524 103.746 24.6496 104.984 26.2898L105.782 25.6872ZM108.164 32.1727C108.053 29.6691 107.259 27.495 105.771 25.6723L104.996 26.3047C106.337 27.9476 107.063 29.911 107.165 32.2168L108.164 32.1727ZM105.877 38.7699C107.504 36.7738 108.276 34.5687 108.164 32.1713L107.165 32.2182C107.265 34.3473 106.587 36.315 105.102 38.1382L105.877 38.7699ZM104.967 39.8934C105.393 39.3968 105.706 39.0114 105.896 38.7447L105.083 38.1634C104.92 38.3919 104.631 38.7491 104.208 39.2426L104.967 39.8934ZM107.643 41.8715C106.835 40.7691 105.91 39.8613 104.869 39.1543L104.307 39.9817C105.245 40.6186 106.089 41.4435 106.837 42.4629L107.643 41.8715ZM87.5603 27.6555H96.8962V26.6555H87.5603V27.6555ZM88.0603 37.5523V27.1555H87.0603V37.5523H88.0603ZM96.8962 37.0523H87.5603V38.0523H96.8962V37.0523ZM98.8475 36.5216C98.1192 36.8857 97.4711 37.0523 96.8962 37.0523V38.0523C97.6652 38.0523 98.467 37.8299 99.2947 37.416L98.8475 36.5216ZM100.459 35.1531C100.089 35.7078 99.5585 36.1661 98.8475 36.5216L99.2947 37.416C100.14 36.9935 100.812 36.4262 101.291 35.7078L100.459 35.1531ZM101.489 32.1947C101.489 33.324 101.153 34.2903 100.486 35.1163L101.264 35.7447C102.082 34.7318 102.489 33.541 102.489 32.1947H101.489ZM100.242 29.192C101.008 30.0217 101.425 31.0236 101.489 32.2217L102.488 32.1678C102.411 30.749 101.908 29.523 100.977 28.5138L100.242 29.192ZM96.8962 27.6555C98.2741 27.6555 99.3703 28.1598 100.227 29.1753L100.992 28.5305C99.9388 27.2828 98.5596 26.6555 96.8962 26.6555V27.6555ZM101.984 45.2556C102.924 46.3252 103.357 47.5602 103.293 48.9873L104.292 49.0327C104.368 47.3479 103.847 45.8599 102.735 44.5955L101.984 45.2556ZM97.798 43.2507C99.4839 43.2507 100.865 43.9062 101.975 45.2447L102.745 44.6064C101.45 43.0452 99.7898 42.2507 97.798 42.2507V43.2507ZM87.5603 43.2507H97.798V42.2507H87.5603V43.2507ZM88.0603 54.8981V42.7507H87.0603V54.8981H88.0603ZM96.7371 54.3981H87.5603V55.3981H96.7371V54.3981ZM101.683 52.7463C100.643 53.8173 99.0281 54.3981 96.7371 54.3981V55.3981C99.1848 55.3981 101.106 54.7765 102.4 53.4428L101.683 52.7463ZM103.293 48.9888C103.227 50.5355 102.689 51.7718 101.694 52.7352L102.389 53.4538C103.586 52.2954 104.216 50.8087 104.292 49.0313L103.293 48.9888ZM142.169 54.398H121.694V55.398H142.169V54.398ZM142.669 60.1495V54.898H141.669V60.1495H142.669ZM114.586 60.6495H142.169V59.6495H114.586V60.6495ZM114.086 54.898V60.1495H115.086V54.898H114.086ZM134.713 26.9107L114.184 54.6003L114.988 55.1958L135.516 27.5063L134.713 26.9107ZM114.586 27.7085H135.114V26.7085H114.586V27.7085ZM114.086 21.957V27.2085H115.086V21.957H114.086ZM142.169 21.457H114.586V22.457H142.169V21.457ZM142.669 27.2085V21.957H141.669V27.2085H142.669ZM122.096 55.1953L142.571 27.5058L141.767 26.9112L121.292 54.6008L122.096 55.1953Z" fill="url(#paint2_linear_2782_10950)" mask="url(#path-4-inside-2_2782_10950)"/>
									<g opacity="0.1" filter="url(#filter0_f_2782_10950)">
									<mask id="path-6-inside-3_2782_10950" fill="white">
									<path fill-rule="evenodd" clip-rule="evenodd" d="M76.2547 49.01C76.3254 46.4285 75.6005 44.1476 74.0799 42.1672C73.3019 41.1063 72.4178 40.2399 71.4276 39.568C71.852 39.0729 72.1526 38.7016 72.3294 38.4541C73.8854 36.5444 74.6103 34.458 74.5042 32.1947C74.3981 29.79 73.6378 27.7213 72.2233 25.9885C70.9148 24.2557 69.1467 23.071 66.9188 22.4344C66.0701 22.1162 64.7086 21.957 62.8343 21.957H48.7773V60.1495H63.63C65.2213 60.1495 66.7243 59.9727 68.1388 59.6191C70.5082 58.8764 72.4355 57.5857 73.9207 55.7468C75.406 53.7664 76.184 51.5208 76.2547 49.01ZM54.4001 27.1555H63.7361C65.2567 27.1555 66.4944 27.7213 67.4492 28.8529C68.298 29.7723 68.7577 30.8863 68.8284 32.1947C68.8284 33.4325 68.4571 34.511 67.7145 35.4305C67.2901 36.067 66.6889 36.5798 65.9109 36.9688C65.1329 37.3578 64.408 37.5523 63.7361 37.5523H54.4001V27.1555ZM69.1997 44.9256C70.2253 46.0926 70.7027 47.4541 70.6319 49.01C70.5612 50.6721 69.9777 52.0336 68.8814 53.0945C67.7144 54.2969 65.9463 54.898 63.5769 54.898H54.4001V42.7507H64.6378C66.4767 42.7507 67.9974 43.4757 69.1997 44.9256ZM107.24 42.1672C108.761 44.1476 109.486 46.4285 109.415 49.01C109.344 51.5208 108.566 53.7664 107.081 55.7468C105.596 57.5857 103.668 58.8764 101.299 59.6191C99.8844 59.9727 98.3815 60.1495 96.7901 60.1495H81.9375V21.957H95.9945C97.8687 21.957 99.2302 22.1162 100.079 22.4344C102.307 23.071 104.075 24.2557 105.383 25.9885C106.798 27.7213 107.558 29.79 107.664 32.1947C107.77 34.458 107.046 36.5444 105.49 38.4541C105.313 38.7016 105.012 39.0729 104.588 39.568C105.578 40.2399 106.462 41.1063 107.24 42.1672ZM96.8962 27.1555H87.5603V37.5523H96.8962C97.5681 37.5523 98.2931 37.3578 99.0711 36.9688C99.8491 36.5798 100.45 36.067 100.875 35.4305C101.617 34.511 101.989 33.4325 101.989 32.1947C101.918 30.8863 101.458 29.7723 100.609 28.8529C99.6546 27.7213 98.4169 27.1555 96.8962 27.1555ZM103.792 49.01C103.863 47.4541 103.385 46.0926 102.36 44.9256C101.158 43.4757 99.6369 42.7507 97.798 42.7507H87.5603V54.898H96.7371C99.1064 54.898 100.875 54.2969 102.042 53.0945C103.138 52.0336 103.721 50.6721 103.792 49.01ZM121.694 54.898H142.169V60.1495H114.586V54.898L135.114 27.2085H114.586V21.957H142.169V27.2085L121.694 54.898Z"/>
									</mask>
									<path d="M74.0799 42.1672L73.6766 42.463L73.6833 42.4717L74.0799 42.1672ZM76.2547 49.01L76.7545 49.0241L76.7545 49.0237L76.2547 49.01ZM71.4276 39.568L71.048 39.2426L70.6838 39.6675L71.1469 39.9817L71.4276 39.568ZM72.3294 38.4541L71.9418 38.1382L71.9317 38.1505L71.9225 38.1634L72.3294 38.4541ZM74.5042 32.1947L74.0047 32.2168L74.0048 32.2182L74.5042 32.1947ZM72.2233 25.9885L71.8243 26.2898L71.83 26.2973L71.836 26.3047L72.2233 25.9885ZM66.9188 22.4344L66.7432 22.9026L66.7621 22.9097L66.7814 22.9152L66.9188 22.4344ZM48.7773 21.957V21.457H48.2773V21.957H48.7773ZM48.7773 60.1495H48.2773V60.6495H48.7773V60.1495ZM68.1388 59.6191L68.2601 60.1041L68.2743 60.1006L68.2884 60.0962L68.1388 59.6191ZM73.9207 55.7468L74.3097 56.0609L74.3153 56.054L74.3207 56.0468L73.9207 55.7468ZM54.4001 27.1555V26.6555H53.9001V27.1555H54.4001ZM67.4492 28.8529L67.0671 29.1753L67.0743 29.1838L67.0818 29.192L67.4492 28.8529ZM68.8284 32.1947H69.3284V32.1812L69.3277 32.1678L68.8284 32.1947ZM67.7145 35.4305L67.3255 35.1163L67.3111 35.1341L67.2984 35.1531L67.7145 35.4305ZM65.9109 36.9688L66.1345 37.416L66.1345 37.416L65.9109 36.9688ZM54.4001 37.5523H53.9001V38.0523H54.4001V37.5523ZM70.6319 49.01L70.1324 48.9873L70.1324 48.9888L70.6319 49.01ZM69.1997 44.9256L68.8148 45.2447L68.8194 45.2502L68.8241 45.2556L69.1997 44.9256ZM68.8814 53.0945L68.5337 52.7352L68.5281 52.7407L68.5227 52.7463L68.8814 53.0945ZM54.4001 54.898H53.9001V55.398H54.4001V54.898ZM54.4001 42.7507V42.2507H53.9001V42.7507H54.4001ZM109.415 49.01L109.915 49.0241L109.915 49.0237L109.415 49.01ZM107.24 42.1672L106.837 42.463L106.843 42.4717L107.24 42.1672ZM107.081 55.7468L107.47 56.0609L107.475 56.054L107.481 56.0468L107.081 55.7468ZM101.299 59.6191L101.42 60.1041L101.434 60.1006L101.449 60.0962L101.299 59.6191ZM81.9375 60.1495H81.4375V60.6495H81.9375V60.1495ZM81.9375 21.957V21.457H81.4375V21.957H81.9375ZM100.079 22.4344L99.9034 22.9026L99.9222 22.9097L99.9416 22.9152L100.079 22.4344ZM105.383 25.9885L104.984 26.2898L104.99 26.2973L104.996 26.3047L105.383 25.9885ZM107.664 32.1947L107.165 32.2168L107.165 32.2182L107.664 32.1947ZM105.49 38.4541L105.102 38.1382L105.092 38.1505L105.083 38.1634L105.49 38.4541ZM104.588 39.568L104.208 39.2426L103.844 39.6675L104.307 39.9817L104.588 39.568ZM87.5603 27.1555V26.6555H87.0603V27.1555H87.5603ZM87.5603 37.5523H87.0603V38.0523H87.5603V37.5523ZM99.0711 36.9688L99.2947 37.416V37.416L99.0711 36.9688ZM100.875 35.4305L100.486 35.1163L100.471 35.1341L100.459 35.1531L100.875 35.4305ZM101.989 32.1947H102.489V32.1812L102.488 32.1678L101.989 32.1947ZM100.609 28.8529L100.227 29.1753L100.234 29.1838L100.242 29.192L100.609 28.8529ZM102.36 44.9256L101.975 45.2447L101.98 45.2502L101.984 45.2556L102.36 44.9256ZM103.792 49.01L103.293 48.9873L103.293 48.9888L103.792 49.01ZM87.5603 42.7507V42.2507H87.0603V42.7507H87.5603ZM87.5603 54.898H87.0603V55.398H87.5603V54.898ZM102.042 53.0945L101.694 52.7352L101.688 52.7407L101.683 52.7463L102.042 53.0945ZM142.169 54.898H142.669V54.398H142.169V54.898ZM121.694 54.898L121.292 54.6008L120.702 55.398H121.694V54.898ZM142.169 60.1495V60.6495H142.669V60.1495H142.169ZM114.586 60.1495H114.086V60.6495H114.586V60.1495ZM114.586 54.898L114.184 54.6003L114.086 54.7329V54.898H114.586ZM135.114 27.2085L135.516 27.5063L136.108 26.7085H135.114V27.2085ZM114.586 27.2085H114.086V27.7085H114.586V27.2085ZM114.586 21.957V21.457H114.086V21.957H114.586ZM142.169 21.957H142.669V21.457H142.169V21.957ZM142.169 27.2085L142.571 27.5058L142.669 27.3733V27.2085H142.169ZM73.6833 42.4717C75.1314 44.3577 75.8226 46.5253 75.7549 48.9963L76.7545 49.0237C76.8283 46.3317 76.0696 43.9375 74.4764 41.8627L73.6833 42.4717ZM71.1469 39.9817C72.0853 40.6186 72.9291 41.4435 73.6767 42.4629L74.4831 41.8715C73.6746 40.7691 72.7503 39.8613 71.7084 39.1543L71.1469 39.9817ZM71.9225 38.1634C71.7594 38.3919 71.471 38.7491 71.048 39.2426L71.8072 39.8934C72.2329 39.3968 72.5458 39.0114 72.7362 38.7447L71.9225 38.1634ZM74.0048 32.2182C74.1046 34.3473 73.4273 36.315 71.9418 38.1382L72.717 38.7699C74.3434 36.7738 75.1161 34.5687 75.0037 32.1713L74.0048 32.2182ZM71.836 26.3047C73.1771 27.9476 73.903 29.911 74.0047 32.2168L75.0037 32.1727C74.8933 29.6691 74.0985 27.495 72.6106 25.6723L71.836 26.3047ZM66.7814 22.9152C68.9124 23.524 70.5858 24.6496 71.8243 26.2898L72.6223 25.6872C71.2439 23.8617 69.381 22.6179 67.0561 21.9537L66.7814 22.9152ZM62.8343 22.457C64.6987 22.457 65.9836 22.6178 66.7432 22.9026L67.0943 21.9663C66.1565 21.6146 64.7184 21.457 62.8343 21.457V22.457ZM48.7773 22.457H62.8343V21.457H48.7773V22.457ZM49.2773 60.1495V21.957H48.2773V60.1495H49.2773ZM63.63 59.6495H48.7773V60.6495H63.63V59.6495ZM68.0175 59.134C66.6461 59.4769 65.1841 59.6495 63.63 59.6495V60.6495C65.2585 60.6495 66.8025 60.4685 68.2601 60.1041L68.0175 59.134ZM73.5318 55.4326C72.1117 57.1908 70.2695 58.4273 67.9893 59.142L68.2884 60.0962C70.7468 59.3256 72.7592 57.9806 74.3097 56.0609L73.5318 55.4326ZM75.7549 48.996C75.6871 51.4051 74.943 53.5504 73.5207 55.4468L74.3207 56.0468C75.869 53.9824 76.6809 51.6366 76.7545 49.0241L75.7549 48.996ZM63.7361 26.6555H54.4001V27.6555H63.7361V26.6555ZM67.8314 28.5305C66.7786 27.2828 65.3994 26.6555 63.7361 26.6555V27.6555C65.114 27.6555 66.2102 28.1598 67.0671 29.1753L67.8314 28.5305ZM69.3277 32.1678C69.251 30.749 68.7482 29.523 67.8166 28.5138L67.0818 29.192C67.8477 30.0217 68.2644 31.0236 68.3291 32.2217L69.3277 32.1678ZM68.1034 35.7447C68.9215 34.7318 69.3284 33.541 69.3284 32.1947H68.3284C68.3284 33.324 67.9927 34.2903 67.3255 35.1163L68.1034 35.7447ZM66.1345 37.416C66.9795 36.9935 67.6515 36.4262 68.1305 35.7078L67.2984 35.1531C66.9286 35.7078 66.3983 36.1661 65.6873 36.5216L66.1345 37.416ZM63.7361 38.0523C64.505 38.0523 65.3069 37.8299 66.1345 37.416L65.6873 36.5216C64.959 36.8857 64.3109 37.0523 63.7361 37.0523V38.0523ZM54.4001 38.0523H63.7361V37.0523H54.4001V38.0523ZM53.9001 27.1555V37.5523H54.9001V27.1555H53.9001ZM71.1314 49.0327C71.208 47.3479 70.6864 45.8599 69.5753 44.5955L68.8241 45.2556C69.7641 46.3252 70.1973 47.5602 70.1325 48.9873L71.1314 49.0327ZM69.2292 53.4538C70.4262 52.2954 71.0558 50.8087 71.1315 49.0313L70.1324 48.9888C70.0666 50.5355 69.5292 51.7718 68.5337 52.7352L69.2292 53.4538ZM63.5769 55.398C66.0246 55.398 67.9457 54.7765 69.2402 53.4428L68.5227 52.7463C67.4832 53.8173 65.8679 54.398 63.5769 54.398V55.398ZM54.4001 55.398H63.5769V54.398H54.4001V55.398ZM53.9001 42.7507V54.898H54.9001V42.7507H53.9001ZM64.6378 42.2507H54.4001V43.2507H64.6378V42.2507ZM69.5846 44.6064C68.2899 43.0452 66.6297 42.2507 64.6378 42.2507V43.2507C66.3238 43.2507 67.7048 43.9062 68.8148 45.2447L69.5846 44.6064ZM109.915 49.0237C109.988 46.3317 109.23 43.9375 107.637 41.8627L106.843 42.4717C108.292 44.3577 108.983 46.5253 108.915 48.9963L109.915 49.0237ZM107.481 56.0468C109.029 53.9824 109.841 51.6366 109.915 49.0241L108.915 48.996C108.847 51.4051 108.103 53.5504 106.681 55.4468L107.481 56.0468ZM101.449 60.0962C103.907 59.3256 105.919 57.9806 107.47 56.0609L106.692 55.4326C105.272 57.1908 103.43 58.4273 101.149 59.142L101.449 60.0962ZM96.7901 60.6495C98.4187 60.6495 99.9626 60.4685 101.42 60.1041L101.178 59.134C99.8063 59.4769 98.3443 59.6495 96.7901 59.6495V60.6495ZM81.9375 60.6495H96.7901V59.6495H81.9375V60.6495ZM81.4375 21.957V60.1495H82.4375V21.957H81.4375ZM95.9945 21.457H81.9375V22.457H95.9945V21.457ZM100.254 21.9663C99.3166 21.6146 97.8786 21.457 95.9945 21.457V22.457C97.8589 22.457 99.1438 22.6178 99.9034 22.9026L100.254 21.9663ZM105.782 25.6872C104.404 23.8617 102.541 22.6179 100.216 21.9537L99.9416 22.9152C102.073 23.524 103.746 24.6496 104.984 26.2898L105.782 25.6872ZM108.164 32.1727C108.053 29.6691 107.259 27.495 105.771 25.6723L104.996 26.3047C106.337 27.9476 107.063 29.911 107.165 32.2168L108.164 32.1727ZM105.877 38.7699C107.504 36.7738 108.276 34.5687 108.164 32.1713L107.165 32.2182C107.265 34.3473 106.587 36.315 105.102 38.1382L105.877 38.7699ZM104.967 39.8934C105.393 39.3968 105.706 39.0114 105.896 38.7447L105.083 38.1634C104.92 38.3919 104.631 38.7491 104.208 39.2426L104.967 39.8934ZM107.643 41.8715C106.835 40.7691 105.91 39.8613 104.869 39.1543L104.307 39.9817C105.245 40.6186 106.089 41.4435 106.837 42.4629L107.643 41.8715ZM87.5603 27.6555H96.8962V26.6555H87.5603V27.6555ZM88.0603 37.5523V27.1555H87.0603V37.5523H88.0603ZM96.8962 37.0523H87.5603V38.0523H96.8962V37.0523ZM98.8475 36.5216C98.1191 36.8857 97.4711 37.0523 96.8962 37.0523V38.0523C97.6652 38.0523 98.467 37.8299 99.2947 37.416L98.8475 36.5216ZM100.459 35.1531C100.089 35.7078 99.5585 36.1661 98.8475 36.5216L99.2947 37.416C100.14 36.9935 100.812 36.4262 101.291 35.7078L100.459 35.1531ZM101.489 32.1947C101.489 33.324 101.153 34.2903 100.486 35.1163L101.264 35.7447C102.082 34.7318 102.489 33.541 102.489 32.1947H101.489ZM100.242 29.192C101.008 30.0217 101.425 31.0236 101.489 32.2217L102.488 32.1678C102.411 30.749 101.908 29.523 100.977 28.5138L100.242 29.192ZM96.8962 27.6555C98.2741 27.6555 99.3703 28.1598 100.227 29.1753L100.992 28.5305C99.9388 27.2828 98.5596 26.6555 96.8962 26.6555V27.6555ZM101.984 45.2556C102.924 46.3252 103.357 47.5602 103.293 48.9873L104.292 49.0327C104.368 47.3479 103.847 45.8599 102.735 44.5955L101.984 45.2556ZM97.798 43.2507C99.4839 43.2507 100.865 43.9062 101.975 45.2447L102.745 44.6064C101.45 43.0452 99.7898 42.2507 97.798 42.2507V43.2507ZM87.5603 43.2507H97.798V42.2507H87.5603V43.2507ZM88.0603 54.898V42.7507H87.0603V54.898H88.0603ZM96.7371 54.398H87.5603V55.398H96.7371V54.398ZM101.683 52.7463C100.643 53.8173 99.0281 54.398 96.7371 54.398V55.398C99.1848 55.398 101.106 54.7765 102.4 53.4428L101.683 52.7463ZM103.293 48.9888C103.227 50.5355 102.689 51.7718 101.694 52.7352L102.389 53.4538C103.586 52.2954 104.216 50.8087 104.292 49.0313L103.293 48.9888ZM142.169 54.398H121.694V55.398H142.169V54.398ZM142.669 60.1495V54.898H141.669V60.1495H142.669ZM114.586 60.6495H142.169V59.6495H114.586V60.6495ZM114.086 54.898V60.1495H115.086V54.898H114.086ZM134.713 26.9107L114.184 54.6003L114.988 55.1958L135.516 27.5063L134.713 26.9107ZM114.586 27.7085H135.114V26.7085H114.586V27.7085ZM114.086 21.957V27.2085H115.086V21.957H114.086ZM142.169 21.457H114.586V22.457H142.169V21.457ZM142.669 27.2085V21.957H141.669V27.2085H142.669ZM122.096 55.1953L142.571 27.5058L141.767 26.9112L121.292 54.6008L122.096 55.1953Z" fill="url(#paint3_linear_2782_10950)" mask="url(#path-6-inside-3_2782_10950)"/>
									</g>
									<mask id="mask0_2782_10950" style="mask-type:alpha" maskUnits="userSpaceOnUse" x="114" y="21" width="29" height="40">
									<path d="M121.698 54.8981H142.173V60.1495H114.59V54.8981L135.118 27.2085H114.59V21.957H142.173V27.2085L121.698 54.8981Z" fill="url(#paint4_linear_2782_10950)"/>
									</mask>
									<g mask="url(#mask0_2782_10950)">
									</g>
									<circle cx="2.5" cy="2.5" r="2.75" transform="matrix(-1 0 0 1 175 38)" fill="#141728" stroke="url(#paint5_linear_2782_10950)" stroke-width="0.5"/>
									<circle cx="2.5" cy="2.5" r="2.75" transform="matrix(-1 0 0 1 17 38)" fill="#141728" stroke="url(#paint6_linear_2782_10950)" stroke-width="0.5"/>
									<defs>
									<filter id="filter0_f_2782_10950" x="47.7773" y="20.957" width="95.3906" height="40.1914" filterUnits="userSpaceOnUse" color-interpolation-filters="sRGB">
									<feFlood flood-opacity="0" result="BackgroundImageFix"/>
									<feBlend mode="normal" in="SourceGraphic" in2="BackgroundImageFix" result="shape"/>
									<feGaussianBlur stdDeviation="0.5" result="effect1_foregroundBlur_2782_10950"/>
									</filter>
									<linearGradient id="paint0_linear_2782_10950" x1="10.6308" y1="77.8326" x2="0.436527" y2="-93.4963" gradientUnits="userSpaceOnUse">
									<stop stop-color="#1F2338"/>
									<stop offset="0.446428" stop-color="#333953"/>
									<stop offset="1" stop-color="#253475"/>
									</linearGradient>
									<linearGradient id="paint1_linear_2782_10950" x1="93.5" y1="73.8864" x2="93.5" y2="8.1172" gradientUnits="userSpaceOnUse">
									<stop stop-color="#2B3553"/>
									<stop offset="1" stop-color="#434857"/>
									</linearGradient>
									<linearGradient id="paint2_linear_2782_10950" x1="95.4734" y1="21.957" x2="95.4734" y2="68.2208" gradientUnits="userSpaceOnUse">
									<stop stop-color="#303D65"/>
									<stop offset="1" stop-color="#3B4668"/>
									</linearGradient>
									<linearGradient id="paint3_linear_2782_10950" x1="90.5409" y1="60.0724" x2="90.5409" y2="31.4627" gradientUnits="userSpaceOnUse">
									<stop stop-color="#AFCAF2"/>
									<stop offset="1" stop-color="white" stop-opacity="0"/>
									</linearGradient>
									<linearGradient id="paint4_linear_2782_10950" x1="95.2201" y1="21.7612" x2="71.71" y2="75.4776" gradientUnits="userSpaceOnUse">
									<stop stop-color="#A1C6FB"/>
									<stop offset="1" stop-color="white"/>
									</linearGradient>
									<linearGradient id="paint5_linear_2782_10950" x1="2.5" y1="0" x2="2.5" y2="4.16667" gradientUnits="userSpaceOnUse">
									<stop stop-color="#1D202F" stop-opacity="0"/>
									<stop offset="1" stop-color="#242C45"/>
									</linearGradient>
									<linearGradient id="paint6_linear_2782_10950" x1="2.5" y1="0" x2="2.5" y2="4.16667" gradientUnits="userSpaceOnUse">
									<stop stop-color="#1D202F" stop-opacity="0"/>
									<stop offset="1" stop-color="#242C45"/>
									</linearGradient>
									</defs>
								</svg>									