								<svg width="388" height="222" viewBox="0 0 388 222" fill="none" xmlns="http://www.w3.org/2000/svg">
									<mask id="path-1-inside-1_2694_6323" fill="white">
									<path fill-rule="evenodd" clip-rule="evenodd" d="M324 152C324 156.418 320.418 160 316 160L72 160C67.5817 160 64 156.418 64 152V144C66.2091 144 68 142.209 68 140C68 137.791 66.2091 136 64 136V84C66.2091 84 68 82.2091 68 80C68 77.7909 66.2091 76 64 76L64 68C64 63.5817 67.5817 60 72 60L316 60C320.418 60 324 63.5817 324 68V76C321.791 76 320 77.7909 320 80C320 82.2091 321.791 84 324 84V136C321.791 136 320 137.791 320 140C320 142.209 321.791 144 324 144V152Z"/>
									</mask>
									<path fill-rule="evenodd" clip-rule="evenodd" d="M324 152C324 156.418 320.418 160 316 160L72 160C67.5817 160 64 156.418 64 152V144C66.2091 144 68 142.209 68 140C68 137.791 66.2091 136 64 136V84C66.2091 84 68 82.2091 68 80C68 77.7909 66.2091 76 64 76L64 68C64 63.5817 67.5817 60 72 60L316 60C320.418 60 324 63.5817 324 68V76C321.791 76 320 77.7909 320 80C320 82.2091 321.791 84 324 84V136C321.791 136 320 137.791 320 140C320 142.209 321.791 144 324 144V152Z" fill="url(#paint0_linear_2694_6323)"/>
									<path d="M316 160V160.5V160ZM72 160V159.5V160ZM64 144V143.5H63.5V144H64ZM64 136H63.5V136.5H64V136ZM64 84V83.5H63.5V84H64ZM64 76L63.5 76L63.5 76.5H64V76ZM64 68L64.5 68V68H64ZM72 60V59.5V60ZM316 60V60.5V60ZM324 76V76.5H324.5V76H324ZM324 84H324.5V83.5H324V84ZM324 136V136.5H324.5V136H324ZM324 144H324.5V143.5H324V144ZM316 160.5C320.694 160.5 324.5 156.694 324.5 152H323.5C323.5 156.142 320.142 159.5 316 159.5V160.5ZM72 160.5L316 160.5V159.5L72 159.5V160.5ZM63.5 152C63.5 156.694 67.3056 160.5 72 160.5V159.5C67.8579 159.5 64.5 156.142 64.5 152H63.5ZM63.5 144V152H64.5V144H63.5ZM67.5 140C67.5 141.933 65.933 143.5 64 143.5V144.5C66.4853 144.5 68.5 142.485 68.5 140H67.5ZM64 136.5C65.933 136.5 67.5 138.067 67.5 140H68.5C68.5 137.515 66.4853 135.5 64 135.5V136.5ZM63.5 84V136H64.5V84H63.5ZM67.5 80C67.5 81.933 65.933 83.5 64 83.5V84.5C66.4853 84.5 68.5 82.4853 68.5 80H67.5ZM64 76.5C65.933 76.5 67.5 78.067 67.5 80H68.5C68.5 77.5147 66.4853 75.5 64 75.5V76.5ZM63.5 68L63.5 76L64.5 76L64.5 68L63.5 68ZM72 59.5C67.3056 59.5 63.5 63.3056 63.5 68H64.5C64.5 63.8579 67.8579 60.5 72 60.5V59.5ZM316 59.5L72 59.5V60.5L316 60.5V59.5ZM324.5 68C324.5 63.3056 320.694 59.5 316 59.5V60.5C320.142 60.5 323.5 63.8579 323.5 68H324.5ZM324.5 76V68H323.5V76H324.5ZM320.5 80C320.5 78.067 322.067 76.5 324 76.5V75.5C321.515 75.5 319.5 77.5147 319.5 80H320.5ZM324 83.5C322.067 83.5 320.5 81.933 320.5 80H319.5C319.5 82.4853 321.515 84.5 324 84.5V83.5ZM324.5 136V84H323.5V136H324.5ZM320.5 140C320.5 138.067 322.067 136.5 324 136.5V135.5C321.515 135.5 319.5 137.515 319.5 140H320.5ZM324 143.5C322.067 143.5 320.5 141.933 320.5 140H319.5C319.5 142.485 321.515 144.5 324 144.5V143.5ZM324.5 152V144H323.5V152H324.5Z" fill="url(#paint1_linear_2694_6323)" mask="url(#path-1-inside-1_2694_6323)"/>
									<rect x="52.25" y="48.25" width="283.5" height="123.5" rx="11.75" stroke="#273250" stroke-width="0.5"/>
									<line x1="82.25" y1="0.5" x2="82.25" y2="48.5" stroke="#273250" stroke-width="0.5"/>
									<path d="M82.25 171.5L82.25 208.5L70.25 221L0.500002 221" stroke="#273250" stroke-width="0.5"/>
									<path d="M306 171.5L306 208.5L318 221L387.5 221" stroke="#273250" stroke-width="0.5"/>
									<line x1="306.25" y1="0.5" x2="306.25" y2="48.5" stroke="#273250" stroke-width="0.5"/>
									<path d="M387.5 79.25H335.5" stroke="#273250" stroke-width="0.5"/>
									<path d="M52.5 79.25H0.5" stroke="#273250" stroke-width="0.5"/>
									<path d="M387.5 139.25H335.5" stroke="#273250" stroke-width="0.5"/>
									<path d="M52.5 139.25H0.5" stroke="#273250" stroke-width="0.5"/>
									<mask id="path-12-inside-2_2694_6323" fill="white">
									<path fill-rule="evenodd" clip-rule="evenodd" d="M167.778 122.18C167.886 118.255 166.784 114.787 164.472 111.776C163.289 110.163 161.945 108.845 160.439 107.824C161.084 107.071 161.541 106.506 161.81 106.13C164.176 103.227 165.278 100.054 165.117 96.613C164.956 92.9567 163.8 89.8112 161.649 87.1765C159.659 84.5419 156.971 82.7406 153.583 81.7728C152.293 81.2888 150.223 81.0469 147.373 81.0469H126V139.117H148.583C151.003 139.117 153.288 138.848 155.438 138.311C159.041 137.182 161.971 135.219 164.23 132.423C166.488 129.412 167.671 125.998 167.778 122.18ZM134.549 88.9509H148.744C151.056 88.9509 152.938 89.8112 154.39 91.5318C155.68 92.9298 156.379 94.6235 156.487 96.613C156.487 98.4949 155.922 100.135 154.793 101.533C154.148 102.501 153.234 103.28 152.051 103.872C150.868 104.463 149.766 104.759 148.744 104.759H134.549V88.9509ZM157.052 115.97C158.611 117.744 159.337 119.814 159.229 122.18C159.122 124.707 158.234 126.777 156.568 128.39C154.793 130.219 152.105 131.133 148.502 131.133H134.549V112.663H150.115C152.911 112.663 155.223 113.765 157.052 115.97ZM214.894 111.776C217.206 114.787 218.308 118.255 218.2 122.18C218.093 125.998 216.91 129.412 214.652 132.423C212.393 135.219 209.463 137.182 205.86 138.311C203.71 138.848 201.424 139.117 199.005 139.117H176.422V81.0469H197.795C200.645 81.0469 202.715 81.2888 204.005 81.7728C207.393 82.7406 210.081 84.5419 212.071 87.1765C214.221 89.8112 215.377 92.9567 215.539 96.613C215.7 100.054 214.598 103.227 212.232 106.13C211.963 106.506 211.506 107.071 210.861 107.824C212.366 108.845 213.711 110.163 214.894 111.776ZM199.166 88.9509H184.971V104.759H199.166C200.188 104.759 201.29 104.463 202.473 103.872C203.656 103.28 204.57 102.501 205.215 101.533C206.344 100.135 206.909 98.4949 206.909 96.613C206.801 94.6235 206.102 92.9298 204.812 91.5318C203.36 89.8112 201.478 88.9509 199.166 88.9509ZM209.651 122.18C209.759 119.814 209.033 117.744 207.473 115.97C205.645 113.765 203.333 112.663 200.537 112.663H184.971V131.133H198.924C202.527 131.133 205.215 130.219 206.99 128.39C208.656 126.777 209.544 124.707 209.651 122.18ZM236.87 131.133H268.002V139.117H226.062V131.133L257.275 89.0316H226.062V81.0469H268.002V89.0316L236.87 131.133Z"/>
									</mask>
									<path fill-rule="evenodd" clip-rule="evenodd" d="M167.778 122.18C167.886 118.255 166.784 114.787 164.472 111.776C163.289 110.163 161.945 108.845 160.439 107.824C161.084 107.071 161.541 106.506 161.81 106.13C164.176 103.227 165.278 100.054 165.117 96.613C164.956 92.9567 163.8 89.8112 161.649 87.1765C159.659 84.5419 156.971 82.7406 153.583 81.7728C152.293 81.2888 150.223 81.0469 147.373 81.0469H126V139.117H148.583C151.003 139.117 153.288 138.848 155.438 138.311C159.041 137.182 161.971 135.219 164.23 132.423C166.488 129.412 167.671 125.998 167.778 122.18ZM134.549 88.9509H148.744C151.056 88.9509 152.938 89.8112 154.39 91.5318C155.68 92.9298 156.379 94.6235 156.487 96.613C156.487 98.4949 155.922 100.135 154.793 101.533C154.148 102.501 153.234 103.28 152.051 103.872C150.868 104.463 149.766 104.759 148.744 104.759H134.549V88.9509ZM157.052 115.97C158.611 117.744 159.337 119.814 159.229 122.18C159.122 124.707 158.234 126.777 156.568 128.39C154.793 130.219 152.105 131.133 148.502 131.133H134.549V112.663H150.115C152.911 112.663 155.223 113.765 157.052 115.97ZM214.894 111.776C217.206 114.787 218.308 118.255 218.2 122.18C218.093 125.998 216.91 129.412 214.652 132.423C212.393 135.219 209.463 137.182 205.86 138.311C203.71 138.848 201.424 139.117 199.005 139.117H176.422V81.0469H197.795C200.645 81.0469 202.715 81.2888 204.005 81.7728C207.393 82.7406 210.081 84.5419 212.071 87.1765C214.221 89.8112 215.377 92.9567 215.539 96.613C215.7 100.054 214.598 103.227 212.232 106.13C211.963 106.506 211.506 107.071 210.861 107.824C212.366 108.845 213.711 110.163 214.894 111.776ZM199.166 88.9509H184.971V104.759H199.166C200.188 104.759 201.29 104.463 202.473 103.872C203.656 103.28 204.57 102.501 205.215 101.533C206.344 100.135 206.909 98.4949 206.909 96.613C206.801 94.6235 206.102 92.9298 204.812 91.5318C203.36 89.8112 201.478 88.9509 199.166 88.9509ZM209.651 122.18C209.759 119.814 209.033 117.744 207.473 115.97C205.645 113.765 203.333 112.663 200.537 112.663H184.971V131.133H198.924C202.527 131.133 205.215 130.219 206.99 128.39C208.656 126.777 209.544 124.707 209.651 122.18ZM236.87 131.133H268.002V139.117H226.062V131.133L257.275 89.0316H226.062V81.0469H268.002V89.0316L236.87 131.133Z" fill="#10121F"/>
									<path d="M164.472 111.776L164.068 112.072L164.075 112.08L164.472 111.776ZM167.778 122.18L168.278 122.194L168.278 122.194L167.778 122.18ZM160.439 107.824L160.059 107.498L159.695 107.923L160.158 108.238L160.439 107.824ZM161.81 106.13L161.422 105.814L161.412 105.827L161.403 105.839L161.81 106.13ZM165.117 96.613L164.617 96.635L164.617 96.6364L165.117 96.613ZM161.649 87.1765L161.25 87.4778L161.255 87.4854L161.261 87.4927L161.649 87.1765ZM153.583 81.7728L153.408 82.2409L153.427 82.248L153.446 82.2535L153.583 81.7728ZM126 81.0469V80.5469H125.5V81.0469H126ZM126 139.117H125.5V139.617H126V139.117ZM155.438 138.311L155.56 138.796L155.574 138.792L155.588 138.788L155.438 138.311ZM164.23 132.423L164.619 132.737L164.624 132.73L164.63 132.723L164.23 132.423ZM134.549 88.9509V88.4509H134.049V88.9509H134.549ZM154.39 91.5318L154.008 91.8543L154.015 91.8628L154.023 91.871L154.39 91.5318ZM156.487 96.613H156.987V96.5995L156.986 96.586L156.487 96.613ZM154.793 101.533L154.404 101.219L154.39 101.236L154.377 101.255L154.793 101.533ZM152.051 103.872L151.827 103.425L152.051 103.872ZM134.549 104.759H134.049V105.259H134.549V104.759ZM159.229 122.18L158.73 122.157L158.73 122.159L159.229 122.18ZM157.052 115.97L156.667 116.289L156.671 116.294L156.676 116.3L157.052 115.97ZM156.568 128.39L156.22 128.031L156.214 128.037L156.209 128.042L156.568 128.39ZM134.549 131.133H134.049V131.633H134.549V131.133ZM134.549 112.663V112.163H134.049V112.663H134.549ZM218.2 122.18L218.7 122.194L218.7 122.194L218.2 122.18ZM214.894 111.776L214.49 112.072L214.497 112.08L214.894 111.776ZM214.652 132.423L215.041 132.737L215.046 132.73L215.052 132.723L214.652 132.423ZM205.86 138.311L205.982 138.796L205.996 138.792L206.01 138.788L205.86 138.311ZM176.422 139.117H175.922V139.617H176.422V139.117ZM176.422 81.0469V80.5469H175.922V81.0469H176.422ZM204.005 81.7728L203.83 82.2409L203.849 82.248L203.868 82.2535L204.005 81.7728ZM212.071 87.1765L211.672 87.4778L211.677 87.4854L211.683 87.4927L212.071 87.1765ZM215.539 96.613L215.039 96.635L215.039 96.6364L215.539 96.613ZM212.232 106.13L211.844 105.814L211.834 105.827L211.825 105.839L212.232 106.13ZM210.861 107.824L210.481 107.498L210.117 107.923L210.58 108.238L210.861 107.824ZM184.971 88.9509V88.4509H184.471V88.9509H184.971ZM184.971 104.759H184.471V105.259H184.971V104.759ZM205.215 101.533L204.826 101.219L204.812 101.236L204.799 101.255L205.215 101.533ZM206.909 96.613H207.409V96.5995L207.408 96.586L206.909 96.613ZM204.812 91.5318L204.43 91.8543L204.437 91.8628L204.444 91.871L204.812 91.5318ZM207.473 115.97L207.089 116.289L207.093 116.294L207.098 116.3L207.473 115.97ZM209.651 122.18L209.152 122.157L209.152 122.159L209.651 122.18ZM184.971 112.663V112.163H184.471V112.663H184.971ZM184.971 131.133H184.471V131.633H184.971V131.133ZM206.99 128.39L206.642 128.031L206.636 128.037L206.631 128.042L206.99 128.39ZM268.002 131.133H268.502V130.633H268.002V131.133ZM236.87 131.133L236.468 130.835L235.878 131.633H236.87V131.133ZM268.002 139.117V139.617H268.502V139.117H268.002ZM226.062 139.117H225.562V139.617H226.062V139.117ZM226.062 131.133L225.661 130.835L225.562 130.968V131.133H226.062ZM257.275 89.0316L257.677 89.3293L258.268 88.5316H257.275V89.0316ZM226.062 89.0316H225.562V89.5316H226.062V89.0316ZM226.062 81.0469V80.5469H225.562V81.0469H226.062ZM268.002 81.0469H268.502V80.5469H268.002V81.0469ZM268.002 89.0316L268.404 89.3288L268.502 89.1964V89.0316H268.002ZM164.075 112.08C166.315 114.997 167.383 118.352 167.279 122.166L168.278 122.194C168.389 118.158 167.253 114.577 164.868 111.471L164.075 112.08ZM160.158 108.238C161.612 109.224 162.916 110.5 164.068 112.072L164.875 111.48C163.662 109.826 162.277 108.467 160.72 107.41L160.158 108.238ZM161.403 105.839C161.148 106.197 160.703 106.747 160.059 107.498L160.819 108.149C161.465 107.395 161.934 106.816 162.217 106.421L161.403 105.839ZM164.617 96.6364C164.772 99.9435 163.718 102.997 161.422 105.814L162.198 106.446C164.634 103.456 165.784 100.165 165.616 96.5896L164.617 96.6364ZM161.261 87.4927C163.339 90.0375 164.46 93.0776 164.617 96.635L165.616 96.5909C165.451 92.8358 164.26 89.5849 162.036 86.8603L161.261 87.4927ZM153.446 82.2535C156.737 83.1937 159.33 84.9358 161.25 87.4778L162.048 86.8752C159.988 84.1479 157.205 82.2875 153.721 81.292L153.446 82.2535ZM147.373 81.5469C150.213 81.5469 152.207 81.7904 153.408 82.2409L153.759 81.3046C152.379 80.7872 150.233 80.5469 147.373 80.5469V81.5469ZM126 81.5469H147.373V80.5469H126V81.5469ZM126.5 139.117V81.0469H125.5V139.117H126.5ZM148.583 138.617H126V139.617H148.583V138.617ZM155.317 137.826C153.21 138.353 150.965 138.617 148.583 138.617V139.617C151.04 139.617 153.366 139.344 155.56 138.796L155.317 137.826ZM163.841 132.109C161.648 134.824 158.802 136.732 155.289 137.834L155.588 138.788C159.28 137.631 162.295 135.614 164.619 132.737L163.841 132.109ZM167.279 122.166C167.174 125.882 166.025 129.196 163.83 132.123L164.63 132.723C166.951 129.628 168.168 126.113 168.278 122.194L167.279 122.166ZM148.744 88.4509H134.549V89.4509H148.744V88.4509ZM154.772 91.2094C153.222 89.3727 151.199 88.4509 148.744 88.4509V89.4509C150.914 89.4509 152.654 90.2497 154.008 91.8543L154.772 91.2094ZM156.986 96.586C156.873 94.4863 156.131 92.6805 154.757 91.1927L154.023 91.871C155.23 93.1791 155.886 94.7608 155.988 96.64L156.986 96.586ZM155.182 101.847C156.387 100.356 156.987 98.6034 156.987 96.613H155.987C155.987 98.3864 155.458 99.9141 154.404 101.219L155.182 101.847ZM152.275 104.319C153.525 103.694 154.509 102.86 155.209 101.81L154.377 101.255C153.787 102.141 152.943 102.867 151.827 103.425L152.275 104.319ZM148.744 105.259C149.863 105.259 151.042 104.935 152.275 104.319L151.827 103.425C150.694 103.991 149.669 104.259 148.744 104.259V105.259ZM134.549 105.259H148.744V104.259H134.549V105.259ZM134.049 88.9509V104.759H135.049V88.9509H134.049ZM159.729 122.203C159.842 119.708 159.072 117.512 157.427 115.64L156.676 116.3C158.15 117.977 158.831 119.92 158.73 122.157L159.729 122.203ZM156.915 128.75C158.683 127.039 159.616 124.844 159.729 122.201L158.73 122.159C158.627 124.571 157.786 126.516 156.22 128.031L156.915 128.75ZM148.502 131.633C152.183 131.633 155.025 130.698 156.926 128.739L156.209 128.042C154.562 129.739 152.026 130.633 148.502 130.633V131.633ZM134.549 131.633H148.502V130.633H134.549V131.633ZM134.049 112.663V131.133H135.049V112.663H134.049ZM150.115 112.163H134.549V113.163H150.115V112.163ZM157.436 115.651C155.516 113.335 153.064 112.163 150.115 112.163V113.163C152.758 113.163 154.931 114.196 156.667 116.289L157.436 115.651ZM218.7 122.194C218.811 118.158 217.675 114.577 215.29 111.471L214.497 112.08C216.737 114.997 217.805 118.352 217.701 122.166L218.7 122.194ZM215.052 132.723C217.373 129.628 218.59 126.113 218.7 122.194L217.701 122.166C217.596 125.882 216.447 129.196 214.252 132.123L215.052 132.723ZM206.01 138.788C209.702 137.631 212.717 135.614 215.041 132.737L214.263 132.109C212.07 134.824 209.224 136.732 205.711 137.834L206.01 138.788ZM199.005 139.617C201.462 139.617 203.788 139.344 205.982 138.796L205.739 137.826C203.631 138.353 201.387 138.617 199.005 138.617V139.617ZM176.422 139.617H199.005V138.617H176.422V139.617ZM175.922 81.0469V139.117H176.922V81.0469H175.922ZM197.795 80.5469H176.422V81.5469H197.795V80.5469ZM204.181 81.3046C202.801 80.7872 200.655 80.5469 197.795 80.5469V81.5469C200.635 81.5469 202.628 81.7904 203.83 82.2409L204.181 81.3046ZM212.47 86.8752C210.41 84.1479 207.627 82.2875 204.143 81.292L203.868 82.2535C207.158 83.1937 209.752 84.9358 211.672 87.4778L212.47 86.8752ZM216.038 96.5909C215.873 92.8358 214.682 89.5849 212.458 86.8603L211.683 87.4927C213.761 90.0375 214.882 93.0776 215.039 96.635L216.038 96.5909ZM212.62 106.446C215.056 103.456 216.206 100.165 216.038 96.5896L215.039 96.6364C215.194 99.9435 214.14 102.997 211.844 105.814L212.62 106.446ZM211.241 108.149C211.887 107.395 212.356 106.816 212.639 106.421L211.825 105.839C211.57 106.197 211.125 106.747 210.481 107.498L211.241 108.149ZM215.297 111.48C214.083 109.826 212.699 108.467 211.142 107.41L210.58 108.238C212.034 109.224 213.338 110.5 214.49 112.072L215.297 111.48ZM184.971 89.4509H199.166V88.4509H184.971V89.4509ZM185.471 104.759V88.9509H184.471V104.759H185.471ZM199.166 104.259H184.971V105.259H199.166V104.259ZM202.249 103.425C201.116 103.991 200.091 104.259 199.166 104.259V105.259C200.285 105.259 201.464 104.935 202.697 104.319L202.249 103.425ZM204.799 101.255C204.208 102.141 203.365 102.867 202.249 103.425L202.697 104.319C203.946 103.694 204.931 102.86 205.631 101.81L204.799 101.255ZM206.409 96.613C206.409 98.3864 205.88 99.9141 204.826 101.219L205.604 101.847C206.809 100.356 207.409 98.6034 207.409 96.613H206.409ZM204.444 91.871C205.652 93.1791 206.308 94.7608 206.41 96.64L207.408 96.586C207.295 94.4863 206.553 92.6805 205.179 91.1927L204.444 91.871ZM199.166 89.4509C201.335 89.4509 203.076 90.2497 204.43 91.8543L205.194 91.2094C203.644 89.3727 201.621 88.4509 199.166 88.4509V89.4509ZM207.098 116.3C208.572 117.977 209.253 119.92 209.152 122.157L210.151 122.203C210.264 119.708 209.494 117.512 207.849 115.64L207.098 116.3ZM200.537 113.163C203.18 113.163 205.353 114.196 207.089 116.289L207.858 115.651C205.938 113.335 203.486 112.163 200.537 112.163V113.163ZM184.971 113.163H200.537V112.163H184.971V113.163ZM185.471 131.133V112.663H184.471V131.133H185.471ZM198.924 130.633H184.971V131.633H198.924V130.633ZM206.631 128.042C204.984 129.739 202.448 130.633 198.924 130.633V131.633C202.605 131.633 205.446 130.698 207.348 128.739L206.631 128.042ZM209.152 122.159C209.049 124.571 208.208 126.516 206.642 128.031L207.337 128.75C209.105 127.039 210.038 124.844 210.151 122.201L209.152 122.159ZM268.002 130.633H236.87V131.633H268.002V130.633ZM268.502 139.117V131.133H267.502V139.117H268.502ZM226.062 139.617H268.002V138.617H226.062V139.617ZM225.562 131.133V139.117H226.562V131.133H225.562ZM256.874 88.7338L225.661 130.835L226.464 131.43L257.677 89.3293L256.874 88.7338ZM226.062 89.5316H257.275V88.5316H226.062V89.5316ZM225.562 81.0469V89.0316H226.562V81.0469H225.562ZM268.002 80.5469H226.062V81.5469H268.002V80.5469ZM268.502 89.0316V81.0469H267.502V89.0316H268.502ZM237.272 131.43L268.404 89.3288L267.6 88.7343L236.468 130.835L237.272 131.43Z" fill="url(#paint2_linear_2694_6323)" mask="url(#path-12-inside-2_2694_6323)"/>
									<g opacity="0.1" filter="url(#filter0_f_2694_6323)">
									<mask id="path-14-inside-3_2694_6323" fill="white">
									<path fill-rule="evenodd" clip-rule="evenodd" d="M167.778 122.18C167.886 118.255 166.784 114.787 164.472 111.776C163.289 110.163 161.945 108.845 160.439 107.824C161.084 107.071 161.541 106.506 161.81 106.13C164.176 103.227 165.278 100.054 165.117 96.613C164.956 92.9567 163.8 89.8112 161.649 87.1765C159.659 84.5419 156.971 82.7406 153.583 81.7728C152.293 81.2888 150.223 81.0469 147.373 81.0469H126V139.117H148.583C151.003 139.117 153.288 138.848 155.438 138.311C159.041 137.182 161.971 135.219 164.23 132.423C166.488 129.412 167.671 125.998 167.778 122.18ZM134.549 88.9509H148.744C151.056 88.9509 152.938 89.8112 154.39 91.5318C155.68 92.9298 156.379 94.6235 156.487 96.613C156.487 98.4949 155.922 100.135 154.793 101.533C154.148 102.501 153.234 103.28 152.051 103.872C150.868 104.463 149.766 104.759 148.744 104.759H134.549V88.9509ZM157.052 115.97C158.611 117.744 159.337 119.814 159.229 122.18C159.122 124.707 158.234 126.777 156.568 128.39C154.793 130.219 152.105 131.133 148.502 131.133H134.549V112.663H150.115C152.911 112.663 155.223 113.765 157.052 115.97ZM214.894 111.776C217.206 114.787 218.308 118.255 218.2 122.18C218.093 125.998 216.91 129.412 214.652 132.423C212.393 135.219 209.463 137.182 205.86 138.311C203.71 138.848 201.424 139.117 199.005 139.117H176.422V81.0469H197.795C200.645 81.0469 202.715 81.2888 204.005 81.7728C207.393 82.7406 210.081 84.5419 212.071 87.1765C214.221 89.8112 215.377 92.9567 215.539 96.613C215.7 100.054 214.598 103.227 212.232 106.13C211.963 106.506 211.506 107.071 210.861 107.824C212.366 108.845 213.711 110.163 214.894 111.776ZM199.166 88.9509H184.971V104.759H199.166C200.188 104.759 201.29 104.463 202.473 103.872C203.656 103.28 204.57 102.501 205.215 101.533C206.344 100.135 206.909 98.4949 206.909 96.613C206.801 94.6235 206.102 92.9298 204.812 91.5318C203.36 89.8112 201.478 88.9509 199.166 88.9509ZM209.651 122.18C209.759 119.814 209.033 117.744 207.473 115.97C205.645 113.765 203.333 112.663 200.537 112.663H184.971V131.133H198.924C202.527 131.133 205.215 130.219 206.99 128.39C208.656 126.777 209.544 124.707 209.651 122.18ZM236.87 131.133H268.002V139.117H226.062V131.133L257.275 89.0316H226.062V81.0469H268.002V89.0316L236.87 131.133Z"/>
									</mask>
									<path d="M164.472 111.776L164.068 112.072L164.075 112.08L164.472 111.776ZM167.778 122.18L168.278 122.194L168.278 122.194L167.778 122.18ZM160.439 107.824L160.059 107.498L159.695 107.923L160.158 108.238L160.439 107.824ZM161.81 106.13L161.422 105.814L161.412 105.827L161.403 105.839L161.81 106.13ZM165.117 96.613L164.617 96.635L164.617 96.6364L165.117 96.613ZM161.649 87.1765L161.25 87.4778L161.255 87.4854L161.261 87.4927L161.649 87.1765ZM153.583 81.7728L153.408 82.2409L153.427 82.248L153.446 82.2535L153.583 81.7728ZM126 81.0469V80.5469H125.5V81.0469H126ZM126 139.117H125.5V139.617H126V139.117ZM155.438 138.311L155.56 138.796L155.574 138.792L155.588 138.788L155.438 138.311ZM164.23 132.423L164.619 132.737L164.624 132.73L164.63 132.723L164.23 132.423ZM134.549 88.9509V88.4509H134.049V88.9509H134.549ZM154.39 91.5318L154.008 91.8543L154.015 91.8628L154.023 91.871L154.39 91.5318ZM156.487 96.613H156.987V96.5995L156.986 96.586L156.487 96.613ZM154.793 101.533L154.404 101.219L154.39 101.236L154.377 101.255L154.793 101.533ZM152.051 103.872L151.827 103.425H151.827L152.051 103.872ZM134.549 104.759H134.049V105.259H134.549V104.759ZM159.229 122.18L158.73 122.157L158.73 122.159L159.229 122.18ZM157.052 115.97L156.667 116.289L156.671 116.294L156.676 116.3L157.052 115.97ZM156.568 128.39L156.22 128.031L156.214 128.037L156.209 128.042L156.568 128.39ZM134.549 131.133H134.049V131.633H134.549V131.133ZM134.549 112.663V112.163H134.049V112.663H134.549ZM218.2 122.18L218.7 122.194L218.7 122.194L218.2 122.18ZM214.894 111.776L214.49 112.072L214.497 112.08L214.894 111.776ZM214.652 132.423L215.041 132.737L215.046 132.73L215.052 132.723L214.652 132.423ZM205.86 138.311L205.982 138.796L205.996 138.792L206.01 138.788L205.86 138.311ZM176.422 139.117H175.922V139.617H176.422V139.117ZM176.422 81.0469V80.5469H175.922V81.0469H176.422ZM204.005 81.7728L203.83 82.2409L203.849 82.248L203.868 82.2535L204.005 81.7728ZM212.071 87.1765L211.672 87.4778L211.677 87.4854L211.683 87.4927L212.071 87.1765ZM215.539 96.613L215.039 96.635L215.039 96.6364L215.539 96.613ZM212.232 106.13L211.844 105.814L211.834 105.827L211.825 105.839L212.232 106.13ZM210.861 107.824L210.481 107.498L210.117 107.923L210.58 108.238L210.861 107.824ZM184.971 88.9509V88.4509H184.471V88.9509H184.971ZM184.971 104.759H184.471V105.259H184.971V104.759ZM202.473 103.872L202.249 103.425L202.473 103.872ZM205.215 101.533L204.826 101.219L204.812 101.236L204.799 101.255L205.215 101.533ZM206.909 96.613H207.409V96.5995L207.408 96.586L206.909 96.613ZM204.812 91.5318L204.43 91.8543L204.437 91.8628L204.444 91.871L204.812 91.5318ZM207.473 115.97L207.089 116.289L207.093 116.294L207.098 116.3L207.473 115.97ZM209.651 122.18L209.152 122.157L209.152 122.159L209.651 122.18ZM184.971 112.663V112.163H184.471V112.663H184.971ZM184.971 131.133H184.471V131.633H184.971V131.133ZM206.99 128.39L206.642 128.031L206.636 128.037L206.631 128.042L206.99 128.39ZM268.002 131.133H268.502V130.633H268.002V131.133ZM236.87 131.133L236.468 130.835L235.878 131.633H236.87V131.133ZM268.002 139.117V139.617H268.502V139.117H268.002ZM226.062 139.117H225.562V139.617H226.062V139.117ZM226.062 131.133L225.661 130.835L225.562 130.968V131.133H226.062ZM257.275 89.0316L257.677 89.3293L258.268 88.5316H257.275V89.0316ZM226.062 89.0316H225.562V89.5316H226.062V89.0316ZM226.062 81.0469V80.5469H225.562V81.0469H226.062ZM268.002 81.0469H268.502V80.5469H268.002V81.0469ZM268.002 89.0316L268.404 89.3288L268.502 89.1964V89.0316H268.002ZM164.075 112.08C166.315 114.997 167.383 118.352 167.279 122.166L168.278 122.194C168.389 118.158 167.253 114.577 164.868 111.471L164.075 112.08ZM160.158 108.238C161.612 109.224 162.916 110.5 164.068 112.072L164.875 111.48C163.662 109.826 162.277 108.467 160.72 107.41L160.158 108.238ZM161.403 105.839C161.148 106.197 160.703 106.747 160.059 107.498L160.819 108.149C161.465 107.395 161.934 106.816 162.217 106.421L161.403 105.839ZM164.617 96.6364C164.772 99.9435 163.718 102.997 161.422 105.814L162.198 106.446C164.634 103.456 165.784 100.165 165.616 96.5896L164.617 96.6364ZM161.261 87.4927C163.339 90.0375 164.46 93.0776 164.617 96.635L165.616 96.5909C165.451 92.8358 164.26 89.5849 162.036 86.8603L161.261 87.4927ZM153.446 82.2535C156.737 83.1937 159.33 84.9358 161.25 87.4778L162.048 86.8752C159.988 84.1479 157.205 82.2875 153.721 81.292L153.446 82.2535ZM147.373 81.5469C150.213 81.5469 152.207 81.7904 153.408 82.2409L153.759 81.3046C152.379 80.7872 150.233 80.5469 147.373 80.5469V81.5469ZM126 81.5469H147.373V80.5469H126V81.5469ZM126.5 139.117V81.0469H125.5V139.117H126.5ZM148.583 138.617H126V139.617H148.583V138.617ZM155.317 137.826C153.21 138.353 150.965 138.617 148.583 138.617V139.617C151.04 139.617 153.366 139.344 155.56 138.796L155.317 137.826ZM163.841 132.109C161.648 134.824 158.802 136.732 155.289 137.834L155.588 138.788C159.28 137.631 162.295 135.614 164.619 132.737L163.841 132.109ZM167.279 122.166C167.174 125.882 166.025 129.196 163.83 132.123L164.63 132.723C166.951 129.628 168.168 126.113 168.278 122.194L167.279 122.166ZM148.744 88.4509H134.549V89.4509H148.744V88.4509ZM154.772 91.2094C153.222 89.3727 151.199 88.4509 148.744 88.4509V89.4509C150.914 89.4509 152.654 90.2497 154.008 91.8543L154.772 91.2094ZM156.986 96.586C156.873 94.4863 156.131 92.6805 154.757 91.1927L154.023 91.871C155.23 93.1791 155.886 94.7608 155.988 96.64L156.986 96.586ZM155.182 101.847C156.387 100.356 156.987 98.6034 156.987 96.613H155.987C155.987 98.3864 155.458 99.9141 154.404 101.219L155.182 101.847ZM152.275 104.319C153.525 103.694 154.509 102.86 155.209 101.81L154.377 101.255C153.787 102.141 152.943 102.867 151.827 103.425L152.275 104.319ZM148.744 105.259C149.863 105.259 151.042 104.935 152.275 104.319L151.827 103.425C150.694 103.991 149.669 104.259 148.744 104.259V105.259ZM134.549 105.259H148.744V104.259H134.549V105.259ZM134.049 88.9509V104.759H135.049V88.9509H134.049ZM159.729 122.203C159.842 119.708 159.072 117.512 157.427 115.64L156.676 116.3C158.15 117.977 158.831 119.92 158.73 122.157L159.729 122.203ZM156.915 128.75C158.683 127.039 159.616 124.844 159.729 122.201L158.73 122.159C158.627 124.571 157.786 126.516 156.22 128.031L156.915 128.75ZM148.502 131.633C152.183 131.633 155.025 130.698 156.926 128.739L156.209 128.042C154.562 129.739 152.026 130.633 148.502 130.633V131.633ZM134.549 131.633H148.502V130.633H134.549V131.633ZM134.049 112.663V131.133H135.049V112.663H134.049ZM150.115 112.163H134.549V113.163H150.115V112.163ZM157.436 115.651C155.516 113.335 153.064 112.163 150.115 112.163V113.163C152.758 113.163 154.931 114.196 156.667 116.289L157.436 115.651ZM218.7 122.194C218.811 118.158 217.675 114.577 215.29 111.471L214.497 112.08C216.737 114.997 217.805 118.352 217.701 122.166L218.7 122.194ZM215.052 132.723C217.373 129.628 218.59 126.113 218.7 122.194L217.701 122.166C217.596 125.882 216.447 129.196 214.252 132.123L215.052 132.723ZM206.01 138.788C209.702 137.631 212.717 135.614 215.041 132.737L214.263 132.109C212.07 134.824 209.224 136.732 205.711 137.834L206.01 138.788ZM199.005 139.617C201.462 139.617 203.788 139.344 205.982 138.796L205.739 137.826C203.631 138.353 201.387 138.617 199.005 138.617V139.617ZM176.422 139.617H199.005V138.617H176.422V139.617ZM175.922 81.0469V139.117H176.922V81.0469H175.922ZM197.795 80.5469H176.422V81.5469H197.795V80.5469ZM204.181 81.3046C202.801 80.7872 200.655 80.5469 197.795 80.5469V81.5469C200.635 81.5469 202.628 81.7904 203.83 82.2409L204.181 81.3046ZM212.47 86.8752C210.41 84.1479 207.627 82.2875 204.143 81.292L203.868 82.2535C207.158 83.1937 209.752 84.9358 211.672 87.4778L212.47 86.8752ZM216.038 96.5909C215.873 92.8358 214.682 89.5849 212.458 86.8603L211.683 87.4927C213.761 90.0375 214.882 93.0776 215.039 96.635L216.038 96.5909ZM212.62 106.446C215.056 103.456 216.206 100.165 216.038 96.5896L215.039 96.6364C215.194 99.9435 214.14 102.997 211.844 105.814L212.62 106.446ZM211.241 108.149C211.887 107.395 212.356 106.816 212.639 106.421L211.825 105.839C211.57 106.197 211.125 106.747 210.481 107.498L211.241 108.149ZM215.297 111.48C214.083 109.826 212.699 108.467 211.142 107.41L210.58 108.238C212.034 109.224 213.338 110.5 214.49 112.072L215.297 111.48ZM184.971 89.4509H199.166V88.4509H184.971V89.4509ZM185.471 104.759V88.9509H184.471V104.759H185.471ZM199.166 104.259H184.971V105.259H199.166V104.259ZM202.249 103.425C201.116 103.991 200.091 104.259 199.166 104.259V105.259C200.285 105.259 201.464 104.935 202.697 104.319L202.249 103.425ZM204.799 101.255C204.208 102.141 203.365 102.867 202.249 103.425L202.697 104.319C203.946 103.694 204.931 102.86 205.631 101.81L204.799 101.255ZM206.409 96.613C206.409 98.3864 205.88 99.9141 204.826 101.219L205.604 101.847C206.809 100.356 207.409 98.6034 207.409 96.613H206.409ZM204.444 91.871C205.652 93.1791 206.308 94.7608 206.41 96.64L207.408 96.586C207.295 94.4863 206.553 92.6805 205.179 91.1927L204.444 91.871ZM199.166 89.4509C201.335 89.4509 203.076 90.2497 204.43 91.8543L205.194 91.2094C203.644 89.3727 201.621 88.4509 199.166 88.4509V89.4509ZM207.098 116.3C208.572 117.977 209.253 119.92 209.152 122.157L210.151 122.203C210.264 119.708 209.494 117.512 207.849 115.64L207.098 116.3ZM200.537 113.163C203.18 113.163 205.353 114.196 207.089 116.289L207.858 115.651C205.938 113.335 203.486 112.163 200.537 112.163V113.163ZM184.971 113.163H200.537V112.163H184.971V113.163ZM185.471 131.133V112.663H184.471V131.133H185.471ZM198.924 130.633H184.971V131.633H198.924V130.633ZM206.631 128.042C204.984 129.739 202.448 130.633 198.924 130.633V131.633C202.605 131.633 205.446 130.698 207.348 128.739L206.631 128.042ZM209.152 122.159C209.049 124.571 208.208 126.516 206.642 128.031L207.337 128.75C209.105 127.039 210.038 124.844 210.151 122.201L209.152 122.159ZM268.002 130.633H236.87V131.633H268.002V130.633ZM268.502 139.117V131.133H267.502V139.117H268.502ZM226.062 139.617H268.002V138.617H226.062V139.617ZM225.562 131.133V139.117H226.562V131.133H225.562ZM256.874 88.7338L225.661 130.835L226.464 131.43L257.677 89.3293L256.874 88.7338ZM226.062 89.5316H257.275V88.5316H226.062V89.5316ZM225.562 81.0469V89.0316H226.562V81.0469H225.562ZM268.002 80.5469H226.062V81.5469H268.002V80.5469ZM268.502 89.0316V81.0469H267.502V89.0316H268.502ZM237.272 131.43L268.404 89.3288L267.6 88.7343L236.468 130.835L237.272 131.43Z" fill="url(#paint3_linear_2694_6323)" mask="url(#path-14-inside-3_2694_6323)"/>
									</g>
									<mask id="mask0_2694_6323" style="mask-type:alpha" maskUnits="userSpaceOnUse" x="226" y="81" width="43" height="59">
									<path d="M236.87 131.133H268.002V139.117H226.062V131.133L257.275 89.0316H226.062V81.0469H268.002V89.0316L236.87 131.133Z" fill="url(#paint4_linear_2694_6323)"/>
									</mask>
									<g mask="url(#mask0_2694_6323)">
									</g>
									<circle cx="3" cy="3" r="3.25" transform="matrix(-1 0 0 1 74 107)" fill="#141728" stroke="url(#paint5_linear_2694_6323)" stroke-width="0.5"/>
									<circle cx="3" cy="3" r="3.25" transform="matrix(-1 0 0 1 320 107)" fill="#141728" stroke="url(#paint6_linear_2694_6323)" stroke-width="0.5"/>
									<defs>
									<filter id="filter0_f_2694_6323" x="125" y="80.0469" width="144.004" height="60.0703" filterUnits="userSpaceOnUse" color-interpolation-filters="sRGB">
									<feFlood flood-opacity="0" result="BackgroundImageFix"/>
									<feBlend mode="normal" in="SourceGraphic" in2="BackgroundImageFix" result="shape"/>
									<feGaussianBlur stdDeviation="0.5" result="effect1_foregroundBlur_2694_6323"/>
									</filter>
									<linearGradient id="paint0_linear_2694_6323" x1="68" y1="166" x2="52.5" y2="-94.5" gradientUnits="userSpaceOnUse">
									<stop stop-color="#1F2338"/>
									<stop offset="0.446428" stop-color="#333953"/>
									<stop offset="1" stop-color="#253475"/>
									</linearGradient>
									<linearGradient id="paint1_linear_2694_6323" x1="194" y1="160" x2="194" y2="60" gradientUnits="userSpaceOnUse">
									<stop stop-color="#2B3553"/>
									<stop offset="1" stop-color="#434857"/>
									</linearGradient>
									<linearGradient id="paint2_linear_2694_6323" x1="197.001" y1="81.0469" x2="197.001" y2="151.389" gradientUnits="userSpaceOnUse">
									<stop stop-color="#303D65"/>
									<stop offset="1" stop-color="#3B4668"/>
									</linearGradient>
									<linearGradient id="paint3_linear_2694_6323" x1="189.501" y1="139" x2="189.501" y2="95.5" gradientUnits="userSpaceOnUse">
									<stop stop-color="#AFCAF2"/>
									<stop offset="1" stop-color="white" stop-opacity="0"/>
									</linearGradient>
									<linearGradient id="paint4_linear_2694_6323" x1="196.611" y1="80.7491" x2="160.865" y2="162.423" gradientUnits="userSpaceOnUse">
									<stop stop-color="#A1C6FB"/>
									<stop offset="1" stop-color="white"/>
									</linearGradient>
									<linearGradient id="paint5_linear_2694_6323" x1="3" y1="0" x2="3" y2="5" gradientUnits="userSpaceOnUse">
									<stop stop-color="#1D202F" stop-opacity="0"/>
									<stop offset="1" stop-color="#242C45"/>
									</linearGradient>
									<linearGradient id="paint6_linear_2694_6323" x1="3" y1="0" x2="3" y2="5" gradientUnits="userSpaceOnUse">
									<stop stop-color="#1D202F" stop-opacity="0"/>
									<stop offset="1" stop-color="#242C45"/>
									</linearGradient>
									</defs>
								</svg>