								<svg width="328" height="207" viewBox="0 0 328 207" fill="none" xmlns="http://www.w3.org/2000/svg">
									<g filter="url(#filter0_b_2782_10953)">
									<rect width="328" height="207" rx="12" fill="#131827" fill-opacity="0.3"/>
									</g>
									<g filter="url(#filter1_b_2782_10953)">
									<rect x="327.75" y="206.75" width="327.5" height="206.5" rx="11.75" transform="rotate(-180 327.75 206.75)" stroke="url(#paint0_linear_2782_10953)" stroke-width="0.5"/>
									</g>
									<mask id="mask0_2782_10953" style="mask-type:alpha" maskUnits="userSpaceOnUse" x="0" y="0" width="328" height="207">
									<rect x="0.25" y="0.25" width="327.5" height="206.5" rx="11.75" fill="#131827" fill-opacity="0.3" stroke="#212941" stroke-width="0.5"/>
									</mask>
									<g mask="url(#mask0_2782_10953)">
									<g filter="url(#filter2_f_2782_10953)">
									<ellipse cx="163.5" cy="348" rx="77.5" ry="38" fill="#BAD0EC"/>
									</g>
									<g opacity="0.1" filter="url(#filter3_f_2782_10953)">
									<ellipse cx="-65" cy="143.5" rx="81" ry="59.5" fill="#66A3EC"/>
									</g>
									<g opacity="0.1" filter="url(#filter4_f_2782_10953)">
									<ellipse cx="405" cy="136.5" rx="81" ry="59.5" fill="#66A3EC"/>
									</g>
									<g filter="url(#filter5_f_2782_10953)">
									<ellipse cx="160.5" cy="-41" rx="77.5" ry="38" fill="#BAD0EC"/>
									</g>
									<g filter="url(#filter6_f_2782_10953)">
									<rect x="1" y="1" width="326" height="205" rx="11" stroke="url(#paint1_linear_2782_10953)" stroke-width="2"/>
									</g>
									<path d="M0 163L328 163V195C328 201.627 322.627 207 316 207L12 207C5.37259 207 0 201.627 0 195L0 163Z" fill="url(#paint2_linear_2782_10953)"/>
									</g>
									<circle cx="8.75" cy="8.75" r="0.75" fill="white"/>
									<circle cx="8.75" cy="197.75" r="0.75" fill="white"/>
									<circle cx="317.75" cy="8.75" r="0.75" fill="white"/>
									<circle cx="318.75" cy="197.75" r="0.75" fill="white"/>
									<line x1="164.25" y1="1.09278e-08" x2="164.25" y2="13" stroke="#273250" stroke-width="0.5"/>
									<path d="M0.5 18L24.5775 18C25.7926 18 26.9419 18.5524 27.701 19.5013L38.5 33" stroke="#273250" stroke-width="0.5"/>
									<path d="M327.5 19L303.422 19C302.207 19 301.058 19.5524 300.299 20.5013L289.5 34" stroke="#273250" stroke-width="0.5"/>
									<path d="M0.5 45L64.5775 45C65.7926 45 66.9419 45.5524 67.701 46.5013L78.5 60" stroke="#273250" stroke-width="0.5"/>
									<path d="M327.5 46L263.422 46C262.207 46 261.058 46.5524 260.299 47.5013L249.5 61" stroke="#273250" stroke-width="0.5"/>
									<path d="M0.5 110H44.5775C45.7926 110 46.9419 109.448 47.701 108.499L58.5 95" stroke="#273250" stroke-width="0.5"/>
									<path d="M327.5 111H283.422C282.207 111 281.058 110.448 280.299 109.499L269.5 96" stroke="#273250" stroke-width="0.5"/>
									<path d="M0.5 72L64.6775 72C65.8352 72 66.9362 72.5017 67.6959 73.3753L86.5 95" stroke="#273250" stroke-width="0.5"/>
									<path d="M327.5 73L263.323 73C262.165 73 261.064 73.5017 260.304 74.3753L241.5 96" stroke="#273250" stroke-width="0.5"/>
									<path d="M327.5 34L205.5 34" stroke="#273250" stroke-width="0.5"/>
									<path d="M123.5 33L0.5 33" stroke="#273250" stroke-width="0.5"/>
									<path d="M327.5 96L205.5 96" stroke="#273250" stroke-width="0.5"/>
									<path d="M122 95L0.5 95" stroke="#273250" stroke-width="0.5"/>
									<path d="M327.5 61L215.5 61" stroke="#273250" stroke-width="0.5"/>
									<path d="M112.5 60L1 60" stroke="#273250" stroke-width="0.5"/>
									<defs>
									<filter id="filter0_b_2782_10953" x="-110" y="-110" width="548" height="427" filterUnits="userSpaceOnUse" color-interpolation-filters="sRGB">
									<feFlood flood-opacity="0" result="BackgroundImageFix"/>
									<feGaussianBlur in="BackgroundImageFix" stdDeviation="55"/>
									<feComposite in2="SourceAlpha" operator="in" result="effect1_backgroundBlur_2782_10953"/>
									<feBlend mode="normal" in="SourceGraphic" in2="effect1_backgroundBlur_2782_10953" result="shape"/>
									</filter>
									<filter id="filter1_b_2782_10953" x="-110" y="-110" width="548" height="427" filterUnits="userSpaceOnUse" color-interpolation-filters="sRGB">
									<feFlood flood-opacity="0" result="BackgroundImageFix"/>
									<feGaussianBlur in="BackgroundImageFix" stdDeviation="55"/>
									<feComposite in2="SourceAlpha" operator="in" result="effect1_backgroundBlur_2782_10953"/>
									<feBlend mode="normal" in="SourceGraphic" in2="effect1_backgroundBlur_2782_10953" result="shape"/>
									</filter>
									<filter id="filter2_f_2782_10953" x="-74" y="150" width="475" height="396" filterUnits="userSpaceOnUse" color-interpolation-filters="sRGB">
									<feFlood flood-opacity="0" result="BackgroundImageFix"/>
									<feBlend mode="normal" in="SourceGraphic" in2="BackgroundImageFix" result="shape"/>
									<feGaussianBlur stdDeviation="80" result="effect1_foregroundBlur_2782_10953"/>
									</filter>
									<filter id="filter3_f_2782_10953" x="-546" y="-316" width="962" height="919" filterUnits="userSpaceOnUse" color-interpolation-filters="sRGB">
									<feFlood flood-opacity="0" result="BackgroundImageFix"/>
									<feBlend mode="normal" in="SourceGraphic" in2="BackgroundImageFix" result="shape"/>
									<feGaussianBlur stdDeviation="200" result="effect1_foregroundBlur_2782_10953"/>
									</filter>
									<filter id="filter4_f_2782_10953" x="-76" y="-323" width="962" height="919" filterUnits="userSpaceOnUse" color-interpolation-filters="sRGB">
									<feFlood flood-opacity="0" result="BackgroundImageFix"/>
									<feBlend mode="normal" in="SourceGraphic" in2="BackgroundImageFix" result="shape"/>
									<feGaussianBlur stdDeviation="200" result="effect1_foregroundBlur_2782_10953"/>
									</filter>
									<filter id="filter5_f_2782_10953" x="-417" y="-579" width="1155" height="1076" filterUnits="userSpaceOnUse" color-interpolation-filters="sRGB">
									<feFlood flood-opacity="0" result="BackgroundImageFix"/>
									<feBlend mode="normal" in="SourceGraphic" in2="BackgroundImageFix" result="shape"/>
									<feGaussianBlur stdDeviation="250" result="effect1_foregroundBlur_2782_10953"/>
									</filter>
									<filter id="filter6_f_2782_10953" x="-54" y="-54" width="436" height="315" filterUnits="userSpaceOnUse" color-interpolation-filters="sRGB">
									<feFlood flood-opacity="0" result="BackgroundImageFix"/>
									<feBlend mode="normal" in="SourceGraphic" in2="BackgroundImageFix" result="shape"/>
									<feGaussianBlur stdDeviation="27" result="effect1_foregroundBlur_2782_10953"/>
									</filter>
									<linearGradient id="paint0_linear_2782_10953" x1="492" y1="207" x2="492" y2="414" gradientUnits="userSpaceOnUse">
									<stop stop-color="#212941"/>
									<stop offset="0.469183" stop-color="#2C3A65"/>
									<stop offset="1" stop-color="#272C3D"/>
									</linearGradient>
									<linearGradient id="paint1_linear_2782_10953" x1="164" y1="76.3929" x2="164" y2="151.554" gradientUnits="userSpaceOnUse">
									<stop stop-color="#9CBCED"/>
									<stop offset="0.51" stop-color="#9CC3F2"/>
									<stop offset="1" stop-color="#82B4F0"/>
									</linearGradient>
									<linearGradient id="paint2_linear_2782_10953" x1="164" y1="163" x2="164" y2="207" gradientUnits="userSpaceOnUse">
									<stop stop-color="#141826" stop-opacity="0"/>
									<stop offset="1" stop-color="#070917" stop-opacity="0.58"/>
									</linearGradient>
									</defs>
								</svg>									