								<svg width="388" height="223" viewBox="0 0 388 223" fill="none" xmlns="http://www.w3.org/2000/svg">
									<circle cx="194" cy="120" r="59.75" fill="url(#paint0_linear_2694_6266)" stroke="url(#paint1_linear_2694_6266)" stroke-width="0.5"/>
									<circle cx="194" cy="120" r="71.75" stroke="#273250" stroke-width="0.5"/>
									<line x1="194.25" y1="0.5" x2="194.25" y2="48.5" stroke="#273250" stroke-width="0.5"/>
									<path d="M186.251 0.5L186.251 12.8023C186.251 13.8873 186.692 14.9257 187.472 15.6794L194.227 22.203" stroke="#273250" stroke-width="0.5"/>
									<path d="M201.751 0.5L201.751 32.8192C201.751 33.8942 201.318 34.924 200.55 35.6763L194.203 41.8952" stroke="#273250" stroke-width="0.5"/>
									<path d="M0.5 69H24.5775C25.7926 69 26.9419 69.5524 27.701 70.5013L38.5 84" stroke="#273250" stroke-width="0.5"/>
									<path d="M0.5 222H14.5775C15.7926 222 16.9419 221.448 17.701 220.499L28.5 207" stroke="#273250" stroke-width="0.5"/>
									<path d="M387.5 222H373.922C372.707 222 371.558 221.448 370.799 220.499L360 207" stroke="#273250" stroke-width="0.5"/>
									<path d="M387.5 69H363.422C362.207 69 361.058 69.5524 360.299 70.5013L349.5 84" stroke="#273250" stroke-width="0.5"/>
									<path d="M0.5 105L64.5775 105C65.7926 105 66.9419 105.552 67.701 106.501L78.5 120" stroke="#273250" stroke-width="0.5"/>
									<path d="M0.5 207H64.5775C65.7926 207 66.9419 206.448 67.701 205.499L78.5 192" stroke="#273250" stroke-width="0.5"/>
									<path d="M387.5 207H323.922C322.707 207 321.558 206.448 320.799 205.499L310 192" stroke="#273250" stroke-width="0.5"/>
									<path d="M387.5 105L323.422 105C322.207 105 321.058 105.552 320.299 106.501L309.5 120" stroke="#273250" stroke-width="0.5"/>
									<path d="M0.5 173H44.5775C45.7926 173 46.9419 172.448 47.701 171.499L58.5 158" stroke="#273250" stroke-width="0.5"/>
									<path d="M0.5 192L136.077 192C137.293 192 138.442 191.448 139.201 190.499L150 177" stroke="#273250" stroke-width="0.5"/>
									<path d="M387.5 192L251.923 192C250.707 192 249.558 191.448 248.799 190.499L238 177" stroke="#273250" stroke-width="0.5"/>
									<path d="M387.5 173H343.422C342.207 173 341.058 172.448 340.299 171.499L329.5 158" stroke="#273250" stroke-width="0.5"/>
									<path d="M0.5 135H64.6775C65.8352 135 66.9362 135.502 67.6959 136.375L86.5 158" stroke="#273250" stroke-width="0.5"/>
									<path d="M387.5 135H323.323C322.165 135 321.064 135.502 320.304 136.375L301.5 158" stroke="#273250" stroke-width="0.5"/>
									<path d="M387.5 84L255 84" stroke="#273250" stroke-width="0.5"/>
									<path d="M133 84L0.5 84" stroke="#273250" stroke-width="0.5"/>
									<path d="M387.5 158L255 158" stroke="#273250" stroke-width="0.5"/>
									<path d="M133 158L0.5 158" stroke="#273250" stroke-width="0.5"/>
									<path d="M387.5 120L266 120" stroke="#273250" stroke-width="0.5"/>
									<path d="M122 120L0.5 120" stroke="#273250" stroke-width="0.5"/>
									<mask id="path-26-inside-1_2694_6266" fill="white">
									<path d="M216.065 92.508C206.831 96.2116 167.231 112.085 156.291 116.411C148.954 119.181 153.25 121.778 153.25 121.778C153.25 121.778 159.511 123.86 164.882 125.416C170.253 126.978 173.115 125.243 173.115 125.243L198.345 108.783C207.295 102.895 205.144 107.741 202.999 109.824C198.345 114.329 190.65 121.431 184.209 127.145C181.348 129.568 182.776 131.651 184.03 132.686C188.684 136.497 201.392 144.293 202.103 144.814C205.886 147.405 213.321 151.132 214.452 143.252L218.927 116.052C220.361 106.874 221.789 98.3836 221.968 95.9603C222.506 90.0668 216.065 92.496 216.065 92.496V92.508Z"/>
									</mask>
									<path d="M216.065 92.508C206.831 96.2116 167.231 112.085 156.291 116.411C148.954 119.181 153.25 121.778 153.25 121.778C153.25 121.778 159.511 123.86 164.882 125.416C170.253 126.978 173.115 125.243 173.115 125.243L198.345 108.783C207.295 102.895 205.144 107.741 202.999 109.824C198.345 114.329 190.65 121.431 184.209 127.145C181.348 129.568 182.776 131.651 184.03 132.686C188.684 136.497 201.392 144.293 202.103 144.814C205.886 147.405 213.321 151.132 214.452 143.252L218.927 116.052C220.361 106.874 221.789 98.3836 221.968 95.9603C222.506 90.0668 216.065 92.496 216.065 92.496V92.508Z" fill="url(#paint2_linear_2694_6266)"/>
									<path d="M216.065 92.508L216.252 92.972L216.565 92.8461V92.508H216.065ZM156.291 116.411L156.467 116.879L156.475 116.876L156.291 116.411ZM153.25 121.778L152.991 122.206L153.039 122.235L153.092 122.253L153.25 121.778ZM164.882 125.416L165.022 124.936L165.021 124.936L164.882 125.416ZM173.115 125.243L173.374 125.67L173.381 125.666L173.388 125.661L173.115 125.243ZM198.345 108.783L198.618 109.201L198.62 109.2L198.345 108.783ZM202.999 109.824L203.347 110.183L203.347 110.182L202.999 109.824ZM184.209 127.145L184.533 127.527L184.541 127.519L184.209 127.145ZM184.03 132.686L183.712 133.071L183.713 133.073L184.03 132.686ZM202.103 144.814L201.808 145.217L201.814 145.222L201.82 145.226L202.103 144.814ZM214.452 143.252L213.959 143.171L213.957 143.181L214.452 143.252ZM218.927 116.052L219.421 116.133L219.421 116.129L218.927 116.052ZM221.968 95.9603L221.47 95.9149L221.469 95.9234L221.968 95.9603ZM216.065 92.496L215.889 92.0282L215.565 92.1502V92.496H216.065ZM215.879 92.0439C206.644 95.7478 167.045 111.621 156.107 115.946L156.475 116.876C167.416 112.55 207.018 96.6754 216.252 92.972L215.879 92.0439ZM156.114 115.943C154.251 116.647 153.068 117.36 152.366 118.066C151.647 118.789 151.417 119.527 151.525 120.211C151.627 120.861 152.02 121.364 152.34 121.684C152.505 121.848 152.664 121.976 152.782 122.063C152.841 122.107 152.891 122.141 152.927 122.165C152.945 122.177 152.96 122.186 152.97 122.193C152.976 122.197 152.98 122.2 152.984 122.202C152.986 122.203 152.987 122.204 152.988 122.204C152.989 122.205 152.989 122.205 152.99 122.205C152.99 122.206 152.99 122.206 152.991 122.206C152.991 122.206 152.991 122.206 153.25 121.778C153.508 121.35 153.509 121.35 153.509 121.351C153.509 121.351 153.509 121.351 153.509 121.351C153.509 121.351 153.51 121.351 153.51 121.351C153.51 121.351 153.51 121.351 153.51 121.351C153.509 121.351 153.507 121.35 153.505 121.348C153.5 121.345 153.491 121.34 153.48 121.332C153.457 121.316 153.421 121.292 153.377 121.26C153.289 121.194 153.169 121.097 153.046 120.975C152.791 120.721 152.567 120.402 152.513 120.056C152.464 119.745 152.535 119.314 153.075 118.771C153.631 118.211 154.662 117.561 156.467 116.879L156.114 115.943ZM153.25 121.778C153.092 122.253 153.092 122.253 153.092 122.253C153.092 122.253 153.092 122.253 153.092 122.253C153.093 122.253 153.093 122.253 153.093 122.253C153.094 122.253 153.095 122.254 153.097 122.254C153.1 122.255 153.104 122.257 153.11 122.259C153.122 122.263 153.14 122.269 153.164 122.277C153.211 122.292 153.282 122.315 153.373 122.346C153.555 122.406 153.821 122.493 154.157 122.603C154.828 122.823 155.78 123.132 156.9 123.49C159.138 124.206 162.051 125.117 164.743 125.896L165.021 124.936C162.342 124.16 159.439 123.252 157.204 122.538C156.087 122.18 155.138 121.872 154.467 121.653C154.132 121.543 153.867 121.456 153.686 121.396C153.595 121.366 153.526 121.343 153.479 121.327C153.455 121.32 153.437 121.314 153.425 121.31C153.419 121.308 153.415 121.306 153.412 121.305C153.41 121.305 153.409 121.304 153.409 121.304C153.408 121.304 153.408 121.304 153.408 121.304C153.408 121.304 153.408 121.304 153.408 121.304C153.408 121.304 153.408 121.304 153.25 121.778ZM164.742 125.896C167.501 126.698 169.636 126.659 171.097 126.408C171.827 126.282 172.385 126.104 172.767 125.955C172.957 125.88 173.104 125.812 173.205 125.761C173.256 125.736 173.295 125.715 173.324 125.699C173.338 125.691 173.349 125.685 173.357 125.68C173.362 125.678 173.365 125.675 173.368 125.674C173.369 125.673 173.371 125.672 173.372 125.672C173.372 125.671 173.373 125.671 173.373 125.671C173.373 125.671 173.374 125.67 173.374 125.67C173.374 125.67 173.374 125.67 173.115 125.243C172.856 124.815 172.856 124.815 172.856 124.815C172.856 124.815 172.856 124.815 172.857 124.814C172.857 124.814 172.857 124.814 172.857 124.814C172.858 124.814 172.858 124.814 172.858 124.814C172.858 124.814 172.857 124.814 172.856 124.815C172.853 124.817 172.848 124.82 172.839 124.824C172.823 124.833 172.796 124.848 172.758 124.867C172.682 124.905 172.563 124.96 172.401 125.024C172.078 125.151 171.585 125.309 170.928 125.422C169.615 125.648 167.634 125.695 165.022 124.936L164.742 125.896ZM173.388 125.661L198.618 109.201L198.072 108.364L172.842 124.824L173.388 125.661ZM198.62 109.2C200.848 107.734 202.348 106.963 203.308 106.643C203.792 106.482 204.091 106.452 204.256 106.472C204.333 106.481 204.362 106.499 204.368 106.503C204.369 106.504 204.369 106.502 204.372 106.51C204.387 106.544 204.408 106.659 204.345 106.901C204.286 107.129 204.168 107.406 203.998 107.712C203.659 108.323 203.153 108.977 202.651 109.465L203.347 110.182C203.917 109.629 204.484 108.897 204.873 108.197C205.066 107.848 205.225 107.489 205.313 107.153C205.397 106.83 205.435 106.453 205.293 106.119C205.13 105.736 204.787 105.529 204.376 105.479C203.995 105.433 203.53 105.515 202.991 105.694C201.904 106.056 200.317 106.887 198.07 108.365L198.62 109.2ZM202.651 109.464C198.004 113.964 190.314 121.061 183.878 126.771L184.541 127.519C190.986 121.802 198.686 114.694 203.347 110.183L202.651 109.464ZM183.886 126.764C182.365 128.052 181.89 129.341 182.083 130.517C182.268 131.645 183.047 132.522 183.712 133.071L184.348 132.3C183.759 131.814 183.197 131.133 183.07 130.355C182.95 129.626 183.192 128.662 184.533 127.527L183.886 126.764ZM183.713 133.073C186.066 134.999 190.431 137.916 194.274 140.404C196.2 141.65 198.002 142.794 199.366 143.658C200.746 144.532 201.648 145.1 201.808 145.217L202.398 144.411C202.203 144.267 201.249 143.666 199.901 142.813C198.537 141.949 196.739 140.808 194.817 139.564C190.965 137.071 186.649 134.184 184.347 132.299L183.713 133.073ZM201.82 145.226C203.721 146.528 206.613 148.172 209.218 148.457C210.534 148.601 211.834 148.404 212.886 147.578C213.937 146.754 214.653 145.37 214.947 143.323L213.957 143.181C213.686 145.075 213.048 146.18 212.269 146.792C211.49 147.403 210.483 147.589 209.326 147.463C206.984 147.206 204.267 145.69 202.385 144.401L201.82 145.226ZM214.946 143.333L219.421 116.133L218.434 115.971L213.959 143.171L214.946 143.333ZM219.421 116.129C220.851 106.978 222.286 98.4474 222.467 95.9972L221.469 95.9234C221.292 98.3197 219.871 106.77 218.433 115.975L219.421 116.129ZM222.466 96.0058C222.608 94.45 222.298 93.3416 221.648 92.6026C221.003 91.8682 220.103 91.5905 219.26 91.5198C218.417 91.4491 217.572 91.5797 216.952 91.721C216.639 91.7923 216.377 91.8679 216.191 91.9261C216.099 91.9552 216.025 91.98 215.973 91.9979C215.948 92.0068 215.928 92.014 215.913 92.0192C215.906 92.0218 215.901 92.0238 215.897 92.0254C215.894 92.0261 215.893 92.0267 215.892 92.0272C215.891 92.0274 215.89 92.0276 215.89 92.0278C215.89 92.0279 215.89 92.028 215.889 92.028C215.889 92.0281 215.889 92.0282 216.065 92.496C216.242 92.9638 216.242 92.9639 216.242 92.9639C216.242 92.9639 216.241 92.964 216.241 92.964C216.241 92.964 216.241 92.964 216.242 92.9639C216.242 92.9638 216.243 92.9636 216.244 92.9632C216.246 92.9624 216.249 92.9611 216.254 92.9592C216.265 92.9555 216.281 92.9498 216.302 92.9424C216.344 92.9276 216.409 92.906 216.491 92.8802C216.656 92.8285 216.892 92.7604 217.174 92.696C217.745 92.566 218.477 92.4577 219.177 92.5163C219.877 92.5751 220.486 92.7951 220.897 93.2627C221.304 93.7259 221.597 94.5239 221.47 95.9149L222.466 96.0058ZM215.565 92.496V92.508H216.565V92.496H215.565Z" fill="url(#paint3_linear_2694_6266)" mask="url(#path-26-inside-1_2694_6266)"/>
									<mask id="mask0_2694_6266" style="mask-type:alpha" maskUnits="userSpaceOnUse" x="134" y="60" width="120" height="120">
									<mask id="path-28-inside-2_2694_6266" fill="white">
									<path fill-rule="evenodd" clip-rule="evenodd" d="M194 180C227.137 180 254 153.137 254 120C254 86.8629 227.137 60 194 60C160.863 60 134 86.8629 134 120C134 153.137 160.863 180 194 180ZM156.291 116.411C167.231 112.085 206.831 96.2116 216.065 92.508V92.496C216.065 92.496 222.506 90.0668 221.968 95.9603C221.837 97.734 221.037 102.758 220.055 108.924C219.695 111.181 219.312 113.592 218.927 116.052L214.452 143.252C213.321 151.132 205.886 147.405 202.103 144.814C201.945 144.698 201.195 144.223 200.072 143.513C196.142 141.025 187.65 135.65 184.03 132.686C182.776 131.651 181.348 129.568 184.209 127.145C190.65 121.431 198.345 114.329 202.999 109.824C205.144 107.741 207.295 102.895 198.345 108.783L173.115 125.243C173.115 125.243 170.253 126.978 164.882 125.416C159.511 123.86 153.25 121.778 153.25 121.778C153.25 121.778 148.954 119.181 156.291 116.411Z"/>
									</mask>
									<path fill-rule="evenodd" clip-rule="evenodd" d="M194 180C227.137 180 254 153.137 254 120C254 86.8629 227.137 60 194 60C160.863 60 134 86.8629 134 120C134 153.137 160.863 180 194 180ZM156.291 116.411C167.231 112.085 206.831 96.2116 216.065 92.508V92.496C216.065 92.496 222.506 90.0668 221.968 95.9603C221.837 97.734 221.037 102.758 220.055 108.924C219.695 111.181 219.312 113.592 218.927 116.052L214.452 143.252C213.321 151.132 205.886 147.405 202.103 144.814C201.945 144.698 201.195 144.223 200.072 143.513C196.142 141.025 187.65 135.65 184.03 132.686C182.776 131.651 181.348 129.568 184.209 127.145C190.65 121.431 198.345 114.329 202.999 109.824C205.144 107.741 207.295 102.895 198.345 108.783L173.115 125.243C173.115 125.243 170.253 126.978 164.882 125.416C159.511 123.86 153.25 121.778 153.25 121.778C153.25 121.778 148.954 119.181 156.291 116.411Z" fill="url(#paint4_linear_2694_6266)"/>
									<path d="M216.065 92.508L216.252 92.972L216.565 92.8461V92.508H216.065ZM156.291 116.411L156.467 116.879L156.475 116.876L156.291 116.411ZM216.065 92.496L215.889 92.0282L215.565 92.1502V92.496H216.065ZM221.968 95.9603L221.47 95.9149L221.469 95.9234L221.968 95.9603ZM220.055 108.924L219.561 108.845L220.055 108.924ZM218.927 116.052L219.421 116.133L219.421 116.129L218.927 116.052ZM214.452 143.252L213.959 143.171L213.957 143.181L214.452 143.252ZM202.103 144.814L201.808 145.217L201.814 145.222L201.82 145.226L202.103 144.814ZM200.072 143.513L200.339 143.09L200.072 143.513ZM184.03 132.686L183.712 133.071L183.713 133.073L184.03 132.686ZM184.209 127.145L184.533 127.527L184.541 127.519L184.209 127.145ZM202.999 109.824L203.347 110.183L203.347 110.182L202.999 109.824ZM198.345 108.783L198.618 109.201L198.62 109.2L198.345 108.783ZM173.115 125.243L173.374 125.67L173.381 125.666L173.388 125.661L173.115 125.243ZM164.882 125.416L165.022 124.936L165.021 124.936L164.882 125.416ZM153.25 121.778L152.991 122.206L153.039 122.235L153.092 122.253L153.25 121.778ZM253.5 120C253.5 152.861 226.861 179.5 194 179.5V180.5C227.413 180.5 254.5 153.413 254.5 120H253.5ZM194 60.5C226.861 60.5 253.5 87.1391 253.5 120H254.5C254.5 86.5868 227.413 59.5 194 59.5V60.5ZM134.5 120C134.5 87.1391 161.139 60.5 194 60.5V59.5C160.587 59.5 133.5 86.5868 133.5 120H134.5ZM194 179.5C161.139 179.5 134.5 152.861 134.5 120H133.5C133.5 153.413 160.587 180.5 194 180.5V179.5ZM215.879 92.0439C206.644 95.7478 167.045 111.621 156.107 115.946L156.475 116.876C167.416 112.55 207.018 96.6754 216.252 92.972L215.879 92.0439ZM215.565 92.496V92.508H216.565V92.496H215.565ZM222.466 96.0058C222.608 94.45 222.298 93.3416 221.648 92.6026C221.003 91.8682 220.103 91.5905 219.26 91.5198C218.417 91.4491 217.572 91.5797 216.952 91.721C216.639 91.7923 216.377 91.8679 216.191 91.9261C216.099 91.9552 216.025 91.98 215.973 91.9979C215.948 92.0068 215.928 92.014 215.913 92.0192C215.906 92.0218 215.901 92.0238 215.897 92.0254C215.894 92.0261 215.893 92.0267 215.892 92.0272C215.891 92.0274 215.89 92.0276 215.89 92.0278C215.89 92.0279 215.89 92.028 215.889 92.028C215.889 92.0281 215.889 92.0282 216.065 92.496C216.242 92.9638 216.242 92.9639 216.242 92.9639C216.242 92.9639 216.241 92.964 216.241 92.964C216.241 92.964 216.241 92.964 216.242 92.9639C216.242 92.9638 216.243 92.9636 216.244 92.9632C216.246 92.9624 216.249 92.9611 216.254 92.9592C216.265 92.9555 216.281 92.9498 216.302 92.9424C216.344 92.9276 216.409 92.906 216.491 92.8802C216.656 92.8285 216.892 92.7604 217.174 92.696C217.745 92.566 218.477 92.4577 219.177 92.5163C219.877 92.5751 220.486 92.7951 220.897 93.2627C221.304 93.7259 221.597 94.5239 221.47 95.9149L222.466 96.0058ZM220.549 109.002C221.528 102.854 222.334 97.7984 222.467 95.9972L221.469 95.9234C221.34 97.6697 220.546 102.662 219.561 108.845L220.549 109.002ZM219.421 116.129C219.805 113.67 220.189 111.26 220.549 109.002L219.561 108.845C219.202 111.103 218.818 113.514 218.433 115.975L219.421 116.129ZM214.946 143.333L219.421 116.133L218.434 115.971L213.959 143.171L214.946 143.333ZM201.82 145.226C203.721 146.528 206.613 148.172 209.218 148.457C210.534 148.601 211.834 148.404 212.886 147.578C213.937 146.754 214.653 145.37 214.947 143.323L213.957 143.181C213.686 145.075 213.048 146.18 212.269 146.792C211.49 147.403 210.483 147.589 209.326 147.463C206.984 147.206 204.267 145.69 202.385 144.401L201.82 145.226ZM199.805 143.935C200.942 144.655 201.668 145.115 201.808 145.217L202.398 144.41C202.222 144.282 201.447 143.792 200.339 143.09L199.805 143.935ZM183.713 133.073C187.363 136.061 195.889 141.457 199.805 143.935L200.339 143.09C196.395 140.594 187.937 135.239 184.347 132.299L183.713 133.073ZM183.886 126.764C182.365 128.052 181.89 129.341 182.083 130.517C182.268 131.645 183.047 132.522 183.712 133.071L184.348 132.3C183.759 131.814 183.197 131.133 183.07 130.355C182.95 129.626 183.192 128.662 184.533 127.527L183.886 126.764ZM202.651 109.464C198.004 113.964 190.314 121.061 183.878 126.771L184.541 127.519C190.986 121.802 198.686 114.694 203.347 110.183L202.651 109.464ZM198.62 109.2C200.848 107.734 202.348 106.963 203.308 106.643C203.792 106.482 204.091 106.452 204.256 106.472C204.333 106.481 204.362 106.499 204.368 106.503C204.369 106.504 204.369 106.502 204.372 106.51C204.387 106.544 204.408 106.659 204.345 106.901C204.286 107.129 204.168 107.406 203.998 107.712C203.659 108.323 203.153 108.977 202.651 109.465L203.347 110.182C203.917 109.629 204.484 108.897 204.873 108.197C205.066 107.848 205.225 107.489 205.313 107.153C205.397 106.83 205.435 106.453 205.293 106.119C205.13 105.736 204.787 105.529 204.376 105.479C203.995 105.433 203.53 105.515 202.991 105.694C201.904 106.056 200.317 106.887 198.07 108.365L198.62 109.2ZM173.388 125.661L198.618 109.201L198.072 108.364L172.842 124.824L173.388 125.661ZM164.742 125.896C167.501 126.698 169.636 126.659 171.097 126.408C171.827 126.282 172.385 126.104 172.767 125.955C172.957 125.88 173.104 125.812 173.205 125.761C173.256 125.736 173.295 125.715 173.324 125.699C173.338 125.691 173.349 125.685 173.357 125.68C173.362 125.678 173.365 125.675 173.368 125.674C173.369 125.673 173.371 125.672 173.372 125.672C173.372 125.671 173.373 125.671 173.373 125.671C173.373 125.671 173.374 125.67 173.374 125.67C173.374 125.67 173.374 125.67 173.115 125.243C172.856 124.815 172.856 124.815 172.856 124.815C172.856 124.815 172.856 124.815 172.857 124.814C172.857 124.814 172.857 124.814 172.857 124.814C172.858 124.814 172.858 124.814 172.858 124.814C172.858 124.814 172.857 124.814 172.856 124.815C172.853 124.817 172.848 124.82 172.839 124.824C172.823 124.833 172.796 124.848 172.758 124.867C172.682 124.905 172.563 124.96 172.401 125.024C172.078 125.151 171.585 125.309 170.928 125.422C169.615 125.648 167.634 125.695 165.022 124.936L164.742 125.896ZM153.25 121.778C153.092 122.253 153.092 122.253 153.092 122.253C153.092 122.253 153.092 122.253 153.092 122.253C153.093 122.253 153.093 122.253 153.093 122.253C153.094 122.253 153.095 122.254 153.097 122.254C153.1 122.255 153.104 122.257 153.11 122.259C153.122 122.263 153.14 122.269 153.164 122.277C153.211 122.292 153.282 122.315 153.373 122.346C153.555 122.406 153.821 122.493 154.157 122.603C154.828 122.823 155.78 123.132 156.9 123.49C159.138 124.206 162.051 125.117 164.743 125.896L165.021 124.936C162.342 124.16 159.439 123.252 157.204 122.538C156.087 122.18 155.138 121.872 154.467 121.653C154.132 121.543 153.867 121.456 153.686 121.396C153.595 121.366 153.526 121.343 153.479 121.327C153.455 121.32 153.437 121.314 153.425 121.31C153.419 121.308 153.415 121.306 153.412 121.305C153.41 121.305 153.409 121.304 153.409 121.304C153.408 121.304 153.408 121.304 153.408 121.304C153.408 121.304 153.408 121.304 153.408 121.304C153.408 121.304 153.408 121.304 153.25 121.778ZM156.114 115.943C154.251 116.647 153.068 117.36 152.366 118.066C151.647 118.789 151.417 119.527 151.525 120.211C151.627 120.861 152.02 121.364 152.34 121.684C152.505 121.848 152.664 121.976 152.782 122.063C152.841 122.107 152.891 122.141 152.927 122.165C152.945 122.177 152.96 122.186 152.97 122.193C152.976 122.197 152.98 122.2 152.984 122.202C152.986 122.203 152.987 122.204 152.988 122.204C152.989 122.205 152.989 122.205 152.99 122.205C152.99 122.206 152.99 122.206 152.991 122.206C152.991 122.206 152.991 122.206 153.25 121.778C153.508 121.35 153.509 121.35 153.509 121.351C153.509 121.351 153.509 121.351 153.509 121.351C153.509 121.351 153.51 121.351 153.51 121.351C153.51 121.351 153.51 121.351 153.51 121.351C153.509 121.351 153.507 121.35 153.505 121.348C153.5 121.345 153.491 121.34 153.48 121.332C153.457 121.316 153.421 121.292 153.377 121.26C153.289 121.194 153.169 121.097 153.046 120.975C152.791 120.721 152.567 120.402 152.513 120.056C152.464 119.745 152.535 119.314 153.075 118.771C153.631 118.211 154.662 117.561 156.467 116.879L156.114 115.943Z" fill="url(#paint5_linear_2694_6266)" mask="url(#path-28-inside-2_2694_6266)"/>
									</mask>
									<g mask="url(#mask0_2694_6266)">
									<g filter="url(#filter0_f_2694_6266)">
									<ellipse cx="184" cy="56" rx="90" ry="40" fill="#5B6085"/>
									</g>
									<g filter="url(#filter1_f_2694_6266)">
									<ellipse cx="186.5" cy="200" rx="91.5" ry="40" fill="#17192F"/>
									</g>
									</g>
									<mask id="mask1_2694_6266" style="mask-type:alpha" maskUnits="userSpaceOnUse" x="134" y="60" width="120" height="120">
									<circle cx="194" cy="120" r="59.75" fill="url(#paint6_linear_2694_6266)" stroke="url(#paint7_linear_2694_6266)" stroke-width="0.5"/>
									</mask>
									<g mask="url(#mask1_2694_6266)">
									<g opacity="0.3" filter="url(#filter2_f_2694_6266)">
									<circle cx="194" cy="120" r="59.5" stroke="url(#paint8_linear_2694_6266)"/>
									</g>
									</g>
									<defs>
									<filter id="filter0_f_2694_6266" x="-26" y="-104" width="420" height="320" filterUnits="userSpaceOnUse" color-interpolation-filters="sRGB">
									<feFlood flood-opacity="0" result="BackgroundImageFix"/>
									<feBlend mode="normal" in="SourceGraphic" in2="BackgroundImageFix" result="shape"/>
									<feGaussianBlur stdDeviation="60" result="effect1_foregroundBlur_2694_6266"/>
									</filter>
									<filter id="filter1_f_2694_6266" x="25" y="90" width="323" height="220" filterUnits="userSpaceOnUse" color-interpolation-filters="sRGB">
									<feFlood flood-opacity="0" result="BackgroundImageFix"/>
									<feBlend mode="normal" in="SourceGraphic" in2="BackgroundImageFix" result="shape"/>
									<feGaussianBlur stdDeviation="35" result="effect1_foregroundBlur_2694_6266"/>
									</filter>
									<filter id="filter2_f_2694_6266" x="118" y="44" width="152" height="152" filterUnits="userSpaceOnUse" color-interpolation-filters="sRGB">
									<feFlood flood-opacity="0" result="BackgroundImageFix"/>
									<feBlend mode="normal" in="SourceGraphic" in2="BackgroundImageFix" result="shape"/>
									<feGaussianBlur stdDeviation="8" result="effect1_foregroundBlur_2694_6266"/>
									</filter>
									<linearGradient id="paint0_linear_2694_6266" x1="252.154" y1="52.8" x2="113.596" y2="72.8463" gradientUnits="userSpaceOnUse">
									<stop stop-color="#1F2338"/>
									<stop offset="0.446428" stop-color="#181C2E"/>
									<stop offset="1" stop-color="#1C2138"/>
									</linearGradient>
									<linearGradient id="paint1_linear_2694_6266" x1="194" y1="60" x2="194" y2="180" gradientUnits="userSpaceOnUse">
									<stop stop-color="#2B3553"/>
									<stop offset="1" stop-color="#434857"/>
									</linearGradient>
									<linearGradient id="paint2_linear_2694_6266" x1="260" y1="-12" x2="102.059" y2="82.7646" gradientUnits="userSpaceOnUse">
									<stop stop-color="#1D223D"/>
									<stop offset="0.446428" stop-color="#0F1220"/>
									<stop offset="1" stop-color="#171B31"/>
									</linearGradient>
									<linearGradient id="paint3_linear_2694_6266" x1="187" y1="92" x2="187" y2="148" gradientUnits="userSpaceOnUse">
									<stop stop-color="#2B3553"/>
									<stop offset="1" stop-color="#575E75"/>
									</linearGradient>
									<linearGradient id="paint4_linear_2694_6266" x1="252.154" y1="52.8" x2="113.596" y2="72.8463" gradientUnits="userSpaceOnUse">
									<stop stop-color="#1F2338"/>
									<stop offset="0.446428" stop-color="#181C2E"/>
									<stop offset="1" stop-color="#1C2138"/>
									</linearGradient>
									<linearGradient id="paint5_linear_2694_6266" x1="194" y1="60" x2="194" y2="180" gradientUnits="userSpaceOnUse">
									<stop stop-color="#2B3553"/>
									<stop offset="1" stop-color="#434857"/>
									</linearGradient>
									<linearGradient id="paint6_linear_2694_6266" x1="252.154" y1="52.8" x2="113.596" y2="72.8463" gradientUnits="userSpaceOnUse">
									<stop stop-color="#1F2338"/>
									<stop offset="0.446428" stop-color="#181C2E"/>
									<stop offset="1" stop-color="#1C2138"/>
									</linearGradient>
									<linearGradient id="paint7_linear_2694_6266" x1="194" y1="60" x2="194" y2="180" gradientUnits="userSpaceOnUse">
									<stop stop-color="#2B3553"/>
									<stop offset="1" stop-color="#434857"/>
									</linearGradient>
									<linearGradient id="paint8_linear_2694_6266" x1="194" y1="104.286" x2="194" y2="147.857" gradientUnits="userSpaceOnUse">
									<stop stop-color="#EEEEEE"/>
									<stop offset="0.51" stop-color="#C8DCF5"/>
									<stop offset="1" stop-color="#CBD5E2"/>
									</linearGradient>
									</defs>
								</svg>