								<svg width="327" height="222" viewBox="0 0 327 222" fill="none" xmlns="http://www.w3.org/2000/svg">
									<mask id="path-1-inside-1_2739_12493" fill="white">
									<path fill-rule="evenodd" clip-rule="evenodd" d="M293.5 152C293.5 156.418 289.918 160 285.5 160L41.5 160C37.0817 160 33.5 156.418 33.5 152V144C35.7091 144 37.5 142.209 37.5 140C37.5 137.791 35.7091 136 33.5 136V84C35.7091 84 37.5 82.2091 37.5 80C37.5 77.7909 35.7091 76 33.5 76L33.5 68C33.5 63.5817 37.0817 60 41.5 60L285.5 60C289.918 60 293.5 63.5817 293.5 68V76C291.291 76 289.5 77.7909 289.5 80C289.5 82.2091 291.291 84 293.5 84V136C291.291 136 289.5 137.791 289.5 140C289.5 142.209 291.291 144 293.5 144V152Z"/>
									</mask>
									<path fill-rule="evenodd" clip-rule="evenodd" d="M293.5 152C293.5 156.418 289.918 160 285.5 160L41.5 160C37.0817 160 33.5 156.418 33.5 152V144C35.7091 144 37.5 142.209 37.5 140C37.5 137.791 35.7091 136 33.5 136V84C35.7091 84 37.5 82.2091 37.5 80C37.5 77.7909 35.7091 76 33.5 76L33.5 68C33.5 63.5817 37.0817 60 41.5 60L285.5 60C289.918 60 293.5 63.5817 293.5 68V76C291.291 76 289.5 77.7909 289.5 80C289.5 82.2091 291.291 84 293.5 84V136C291.291 136 289.5 137.791 289.5 140C289.5 142.209 291.291 144 293.5 144V152Z" fill="url(#paint0_linear_2739_12493)"/>
									<path d="M285.5 160V160.5V160ZM41.5 160V159.5V160ZM33.5 144V143.5H33V144H33.5ZM33.5 136H33V136.5H33.5V136ZM33.5 84V83.5H33V84H33.5ZM33.5 76L33 76L33 76.5H33.5V76ZM33.5 68L34 68V68H33.5ZM41.5 60V59.5V60ZM285.5 60V60.5V60ZM293.5 76V76.5H294V76H293.5ZM293.5 84H294V83.5H293.5V84ZM293.5 136V136.5H294V136H293.5ZM293.5 144H294V143.5H293.5V144ZM285.5 160.5C290.194 160.5 294 156.694 294 152H293C293 156.142 289.642 159.5 285.5 159.5V160.5ZM41.5 160.5L285.5 160.5V159.5L41.5 159.5V160.5ZM33 152C33 156.694 36.8056 160.5 41.5 160.5V159.5C37.3579 159.5 34 156.142 34 152H33ZM33 144V152H34V144H33ZM37 140C37 141.933 35.433 143.5 33.5 143.5V144.5C35.9853 144.5 38 142.485 38 140H37ZM33.5 136.5C35.433 136.5 37 138.067 37 140H38C38 137.515 35.9853 135.5 33.5 135.5V136.5ZM33 84V136H34V84H33ZM37 80C37 81.933 35.433 83.5 33.5 83.5V84.5C35.9853 84.5 38 82.4853 38 80H37ZM33.5 76.5C35.433 76.5 37 78.067 37 80H38C38 77.5147 35.9853 75.5 33.5 75.5V76.5ZM33 68L33 76L34 76L34 68L33 68ZM41.5 59.5C36.8056 59.5 33 63.3056 33 68H34C34 63.8579 37.3579 60.5 41.5 60.5V59.5ZM285.5 59.5L41.5 59.5V60.5L285.5 60.5V59.5ZM294 68C294 63.3056 290.194 59.5 285.5 59.5V60.5C289.642 60.5 293 63.8579 293 68H294ZM294 76V68H293V76H294ZM290 80C290 78.067 291.567 76.5 293.5 76.5V75.5C291.015 75.5 289 77.5147 289 80H290ZM293.5 83.5C291.567 83.5 290 81.933 290 80H289C289 82.4853 291.015 84.5 293.5 84.5V83.5ZM294 136V84H293V136H294ZM290 140C290 138.067 291.567 136.5 293.5 136.5V135.5C291.015 135.5 289 137.515 289 140H290ZM293.5 143.5C291.567 143.5 290 141.933 290 140H289C289 142.485 291.015 144.5 293.5 144.5V143.5ZM294 152V144H293V152H294Z" fill="url(#paint1_linear_2739_12493)" mask="url(#path-1-inside-1_2739_12493)"/>
									<rect x="21.75" y="48.25" width="283.5" height="123.5" rx="11.75" stroke="#273250" stroke-width="0.5"/>
									<line x1="51.75" y1="0.5" x2="51.75" y2="48.5" stroke="#273250" stroke-width="0.5"/>
									<path d="M51.75 171.5L51.75 208.5L39.75 221L-1.65098e-06 221" stroke="#273250" stroke-width="0.5"/>
									<path d="M275.5 171.5L275.5 208.5L287.5 221L327 221" stroke="#273250" stroke-width="0.5"/>
									<line x1="275.75" y1="0.5" x2="275.75" y2="48.5" stroke="#273250" stroke-width="0.5"/>
									<path d="M327 79.25H305" stroke="#273250" stroke-width="0.5"/>
									<path d="M22 79.25H0" stroke="#273250" stroke-width="0.5"/>
									<path d="M327 139.25H305" stroke="#273250" stroke-width="0.5"/>
									<path d="M22 139.25H0" stroke="#273250" stroke-width="0.5"/>
									<mask id="path-12-inside-2_2739_12493" fill="white">
									<path fill-rule="evenodd" clip-rule="evenodd" d="M137.278 122.18C137.386 118.255 136.284 114.787 133.972 111.776C132.789 110.163 131.445 108.845 129.939 107.824C130.584 107.071 131.041 106.506 131.31 106.13C133.676 103.227 134.778 100.054 134.617 96.613C134.456 92.9567 133.3 89.8112 131.149 87.1765C129.159 84.5419 126.471 82.7406 123.083 81.7728C121.793 81.2888 119.723 81.0469 116.873 81.0469H95.5V139.117H118.083C120.503 139.117 122.788 138.848 124.938 138.311C128.541 137.182 131.471 135.219 133.73 132.423C135.988 129.412 137.171 125.998 137.278 122.18ZM104.049 88.9509H118.244C120.556 88.9509 122.438 89.8112 123.89 91.5318C125.18 92.9298 125.879 94.6235 125.987 96.613C125.987 98.4949 125.422 100.135 124.293 101.533C123.648 102.501 122.734 103.28 121.551 103.872C120.368 104.463 119.266 104.759 118.244 104.759H104.049V88.9509ZM126.552 115.97C128.111 117.744 128.837 119.814 128.729 122.18C128.622 124.707 127.734 126.777 126.068 128.39C124.293 130.219 121.605 131.133 118.002 131.133H104.049V112.663H119.615C122.411 112.663 124.723 113.765 126.552 115.97ZM184.394 111.776C186.706 114.787 187.808 118.255 187.7 122.18C187.593 125.998 186.41 129.412 184.152 132.423C181.893 135.219 178.963 137.182 175.36 138.311C173.21 138.848 170.924 139.117 168.505 139.117H145.922V81.0469H167.295C170.145 81.0469 172.215 81.2888 173.505 81.7728C176.893 82.7406 179.581 84.5419 181.571 87.1765C183.721 89.8112 184.877 92.9567 185.039 96.613C185.2 100.054 184.098 103.227 181.732 106.13C181.463 106.506 181.006 107.071 180.361 107.824C181.866 108.845 183.211 110.163 184.394 111.776ZM168.666 88.9509H154.471V104.759H168.666C169.688 104.759 170.79 104.463 171.973 103.872C173.156 103.28 174.07 102.501 174.715 101.533C175.844 100.135 176.409 98.4949 176.409 96.613C176.301 94.6235 175.602 92.9298 174.312 91.5318C172.86 89.8112 170.978 88.9509 168.666 88.9509ZM179.151 122.18C179.259 119.814 178.533 117.744 176.973 115.97C175.145 113.765 172.833 112.663 170.037 112.663H154.471V131.133H168.424C172.027 131.133 174.715 130.219 176.49 128.39C178.156 126.777 179.044 124.707 179.151 122.18ZM206.37 131.133H237.502V139.117H195.562V131.133L226.775 89.0316H195.562V81.0469H237.502V89.0316L206.37 131.133Z"/>
									</mask>
									<path fill-rule="evenodd" clip-rule="evenodd" d="M137.278 122.18C137.386 118.255 136.284 114.787 133.972 111.776C132.789 110.163 131.445 108.845 129.939 107.824C130.584 107.071 131.041 106.506 131.31 106.13C133.676 103.227 134.778 100.054 134.617 96.613C134.456 92.9567 133.3 89.8112 131.149 87.1765C129.159 84.5419 126.471 82.7406 123.083 81.7728C121.793 81.2888 119.723 81.0469 116.873 81.0469H95.5V139.117H118.083C120.503 139.117 122.788 138.848 124.938 138.311C128.541 137.182 131.471 135.219 133.73 132.423C135.988 129.412 137.171 125.998 137.278 122.18ZM104.049 88.9509H118.244C120.556 88.9509 122.438 89.8112 123.89 91.5318C125.18 92.9298 125.879 94.6235 125.987 96.613C125.987 98.4949 125.422 100.135 124.293 101.533C123.648 102.501 122.734 103.28 121.551 103.872C120.368 104.463 119.266 104.759 118.244 104.759H104.049V88.9509ZM126.552 115.97C128.111 117.744 128.837 119.814 128.729 122.18C128.622 124.707 127.734 126.777 126.068 128.39C124.293 130.219 121.605 131.133 118.002 131.133H104.049V112.663H119.615C122.411 112.663 124.723 113.765 126.552 115.97ZM184.394 111.776C186.706 114.787 187.808 118.255 187.7 122.18C187.593 125.998 186.41 129.412 184.152 132.423C181.893 135.219 178.963 137.182 175.36 138.311C173.21 138.848 170.924 139.117 168.505 139.117H145.922V81.0469H167.295C170.145 81.0469 172.215 81.2888 173.505 81.7728C176.893 82.7406 179.581 84.5419 181.571 87.1765C183.721 89.8112 184.877 92.9567 185.039 96.613C185.2 100.054 184.098 103.227 181.732 106.13C181.463 106.506 181.006 107.071 180.361 107.824C181.866 108.845 183.211 110.163 184.394 111.776ZM168.666 88.9509H154.471V104.759H168.666C169.688 104.759 170.79 104.463 171.973 103.872C173.156 103.28 174.07 102.501 174.715 101.533C175.844 100.135 176.409 98.4949 176.409 96.613C176.301 94.6235 175.602 92.9298 174.312 91.5318C172.86 89.8112 170.978 88.9509 168.666 88.9509ZM179.151 122.18C179.259 119.814 178.533 117.744 176.973 115.97C175.145 113.765 172.833 112.663 170.037 112.663H154.471V131.133H168.424C172.027 131.133 174.715 130.219 176.49 128.39C178.156 126.777 179.044 124.707 179.151 122.18ZM206.37 131.133H237.502V139.117H195.562V131.133L226.775 89.0316H195.562V81.0469H237.502V89.0316L206.37 131.133Z" fill="#10121F"/>
									<path d="M133.972 111.776L133.568 112.072L133.575 112.08L133.972 111.776ZM137.278 122.18L137.778 122.194L137.778 122.194L137.278 122.18ZM129.939 107.824L129.559 107.498L129.195 107.923L129.658 108.238L129.939 107.824ZM131.31 106.13L130.922 105.814L130.912 105.827L130.903 105.839L131.31 106.13ZM134.617 96.613L134.117 96.635L134.117 96.6364L134.617 96.613ZM131.149 87.1765L130.75 87.4778L130.755 87.4854L130.761 87.4927L131.149 87.1765ZM123.083 81.7728L122.908 82.2409L122.927 82.248L122.946 82.2535L123.083 81.7728ZM95.5 81.0469V80.5469H95V81.0469H95.5ZM95.5 139.117H95V139.617H95.5V139.117ZM124.938 138.311L125.06 138.796L125.074 138.792L125.088 138.788L124.938 138.311ZM133.73 132.423L134.119 132.737L134.124 132.73L134.13 132.723L133.73 132.423ZM104.049 88.9509V88.4509H103.549V88.9509H104.049ZM123.89 91.5318L123.508 91.8543L123.515 91.8628L123.523 91.871L123.89 91.5318ZM125.987 96.613H126.487V96.5995L126.486 96.586L125.987 96.613ZM124.293 101.533L123.904 101.219L123.89 101.236L123.877 101.255L124.293 101.533ZM121.551 103.872L121.327 103.425L121.551 103.872ZM104.049 104.759H103.549V105.259H104.049V104.759ZM128.729 122.18L128.23 122.157L128.23 122.159L128.729 122.18ZM126.552 115.97L126.167 116.289L126.171 116.294L126.176 116.3L126.552 115.97ZM126.068 128.39L125.72 128.031L125.714 128.037L125.709 128.042L126.068 128.39ZM104.049 131.133H103.549V131.633H104.049V131.133ZM104.049 112.663V112.163H103.549V112.663H104.049ZM187.7 122.18L188.2 122.194L188.2 122.194L187.7 122.18ZM184.394 111.776L183.99 112.072L183.997 112.08L184.394 111.776ZM184.152 132.423L184.541 132.737L184.546 132.73L184.552 132.723L184.152 132.423ZM175.36 138.311L175.482 138.796L175.496 138.792L175.51 138.788L175.36 138.311ZM145.922 139.117H145.422V139.617H145.922V139.117ZM145.922 81.0469V80.5469H145.422V81.0469H145.922ZM173.505 81.7728L173.33 82.2409L173.349 82.248L173.368 82.2535L173.505 81.7728ZM181.571 87.1765L181.172 87.4778L181.177 87.4854L181.183 87.4927L181.571 87.1765ZM185.039 96.613L184.539 96.635L184.539 96.6364L185.039 96.613ZM181.732 106.13L181.344 105.814L181.334 105.827L181.325 105.839L181.732 106.13ZM180.361 107.824L179.981 107.498L179.617 107.923L180.08 108.238L180.361 107.824ZM154.471 88.9509V88.4509H153.971V88.9509H154.471ZM154.471 104.759H153.971V105.259H154.471V104.759ZM174.715 101.533L174.326 101.219L174.312 101.236L174.299 101.255L174.715 101.533ZM176.409 96.613H176.909V96.5995L176.908 96.586L176.409 96.613ZM174.312 91.5318L173.93 91.8543L173.937 91.8628L173.944 91.871L174.312 91.5318ZM176.973 115.97L176.589 116.289L176.593 116.294L176.598 116.3L176.973 115.97ZM179.151 122.18L178.652 122.157L178.652 122.159L179.151 122.18ZM154.471 112.663V112.163H153.971V112.663H154.471ZM154.471 131.133H153.971V131.633H154.471V131.133ZM176.49 128.39L176.142 128.031L176.136 128.037L176.131 128.042L176.49 128.39ZM237.502 131.133H238.002V130.633H237.502V131.133ZM206.37 131.133L205.968 130.835L205.378 131.633H206.37V131.133ZM237.502 139.117V139.617H238.002V139.117H237.502ZM195.562 139.117H195.062V139.617H195.562V139.117ZM195.562 131.133L195.161 130.835L195.062 130.968V131.133H195.562ZM226.775 89.0316L227.177 89.3293L227.768 88.5316H226.775V89.0316ZM195.562 89.0316H195.062V89.5316H195.562V89.0316ZM195.562 81.0469V80.5469H195.062V81.0469H195.562ZM237.502 81.0469H238.002V80.5469H237.502V81.0469ZM237.502 89.0316L237.904 89.3288L238.002 89.1964V89.0316H237.502ZM133.575 112.08C135.815 114.997 136.883 118.352 136.779 122.166L137.778 122.194C137.889 118.158 136.753 114.577 134.368 111.471L133.575 112.08ZM129.658 108.238C131.112 109.224 132.416 110.5 133.568 112.072L134.375 111.48C133.162 109.826 131.777 108.467 130.22 107.41L129.658 108.238ZM130.903 105.839C130.648 106.197 130.203 106.747 129.559 107.498L130.319 108.149C130.965 107.395 131.434 106.816 131.717 106.421L130.903 105.839ZM134.117 96.6364C134.272 99.9435 133.218 102.997 130.922 105.814L131.698 106.446C134.134 103.456 135.284 100.165 135.116 96.5896L134.117 96.6364ZM130.761 87.4927C132.839 90.0375 133.96 93.0776 134.117 96.635L135.116 96.5909C134.951 92.8358 133.76 89.5849 131.536 86.8603L130.761 87.4927ZM122.946 82.2535C126.237 83.1937 128.83 84.9358 130.75 87.4778L131.548 86.8752C129.488 84.1479 126.705 82.2875 123.221 81.292L122.946 82.2535ZM116.873 81.5469C119.713 81.5469 121.707 81.7904 122.908 82.2409L123.259 81.3046C121.879 80.7872 119.733 80.5469 116.873 80.5469V81.5469ZM95.5 81.5469H116.873V80.5469H95.5V81.5469ZM96 139.117V81.0469H95V139.117H96ZM118.083 138.617H95.5V139.617H118.083V138.617ZM124.817 137.826C122.71 138.353 120.465 138.617 118.083 138.617V139.617C120.54 139.617 122.866 139.344 125.06 138.796L124.817 137.826ZM133.341 132.109C131.148 134.824 128.302 136.732 124.789 137.834L125.088 138.788C128.78 137.631 131.795 135.614 134.119 132.737L133.341 132.109ZM136.779 122.166C136.674 125.882 135.525 129.196 133.33 132.123L134.13 132.723C136.451 129.628 137.668 126.113 137.778 122.194L136.779 122.166ZM118.244 88.4509H104.049V89.4509H118.244V88.4509ZM124.272 91.2094C122.722 89.3727 120.699 88.4509 118.244 88.4509V89.4509C120.414 89.4509 122.154 90.2497 123.508 91.8543L124.272 91.2094ZM126.486 96.586C126.373 94.4863 125.631 92.6805 124.257 91.1927L123.523 91.871C124.73 93.1791 125.386 94.7608 125.488 96.64L126.486 96.586ZM124.682 101.847C125.887 100.356 126.487 98.6034 126.487 96.613H125.487C125.487 98.3864 124.958 99.9141 123.904 101.219L124.682 101.847ZM121.775 104.319C123.025 103.694 124.009 102.86 124.709 101.81L123.877 101.255C123.287 102.141 122.443 102.867 121.327 103.425L121.775 104.319ZM118.244 105.259C119.363 105.259 120.542 104.935 121.775 104.319L121.327 103.425C120.194 103.991 119.169 104.259 118.244 104.259V105.259ZM104.049 105.259H118.244V104.259H104.049V105.259ZM103.549 88.9509V104.759H104.549V88.9509H103.549ZM129.229 122.203C129.342 119.708 128.572 117.512 126.927 115.64L126.176 116.3C127.65 117.977 128.331 119.92 128.23 122.157L129.229 122.203ZM126.415 128.75C128.183 127.039 129.116 124.844 129.229 122.201L128.23 122.159C128.127 124.571 127.286 126.516 125.72 128.031L126.415 128.75ZM118.002 131.633C121.683 131.633 124.525 130.698 126.426 128.739L125.709 128.042C124.062 129.739 121.526 130.633 118.002 130.633V131.633ZM104.049 131.633H118.002V130.633H104.049V131.633ZM103.549 112.663V131.133H104.549V112.663H103.549ZM119.615 112.163H104.049V113.163H119.615V112.163ZM126.936 115.651C125.016 113.335 122.564 112.163 119.615 112.163V113.163C122.258 113.163 124.431 114.196 126.167 116.289L126.936 115.651ZM188.2 122.194C188.311 118.158 187.175 114.577 184.79 111.471L183.997 112.08C186.237 114.997 187.305 118.352 187.201 122.166L188.2 122.194ZM184.552 132.723C186.873 129.628 188.09 126.113 188.2 122.194L187.201 122.166C187.096 125.882 185.947 129.196 183.752 132.123L184.552 132.723ZM175.51 138.788C179.202 137.631 182.217 135.614 184.541 132.737L183.763 132.109C181.57 134.824 178.724 136.732 175.211 137.834L175.51 138.788ZM168.505 139.617C170.962 139.617 173.288 139.344 175.482 138.796L175.239 137.826C173.131 138.353 170.887 138.617 168.505 138.617V139.617ZM145.922 139.617H168.505V138.617H145.922V139.617ZM145.422 81.0469V139.117H146.422V81.0469H145.422ZM167.295 80.5469H145.922V81.5469H167.295V80.5469ZM173.681 81.3046C172.301 80.7872 170.155 80.5469 167.295 80.5469V81.5469C170.135 81.5469 172.128 81.7904 173.33 82.2409L173.681 81.3046ZM181.97 86.8752C179.91 84.1479 177.127 82.2875 173.643 81.292L173.368 82.2535C176.658 83.1937 179.252 84.9358 181.172 87.4778L181.97 86.8752ZM185.538 96.5909C185.373 92.8358 184.182 89.5849 181.958 86.8603L181.183 87.4927C183.261 90.0375 184.382 93.0776 184.539 96.635L185.538 96.5909ZM182.12 106.446C184.556 103.456 185.706 100.165 185.538 96.5896L184.539 96.6364C184.694 99.9435 183.64 102.997 181.344 105.814L182.12 106.446ZM180.741 108.149C181.387 107.395 181.856 106.816 182.139 106.421L181.325 105.839C181.07 106.197 180.625 106.747 179.981 107.498L180.741 108.149ZM184.797 111.48C183.583 109.826 182.199 108.467 180.642 107.41L180.08 108.238C181.534 109.224 182.838 110.5 183.99 112.072L184.797 111.48ZM154.471 89.4509H168.666V88.4509H154.471V89.4509ZM154.971 104.759V88.9509H153.971V104.759H154.971ZM168.666 104.259H154.471V105.259H168.666V104.259ZM171.749 103.425C170.616 103.991 169.591 104.259 168.666 104.259V105.259C169.785 105.259 170.964 104.935 172.197 104.319L171.749 103.425ZM174.299 101.255C173.708 102.141 172.865 102.867 171.749 103.425L172.197 104.319C173.446 103.694 174.431 102.86 175.131 101.81L174.299 101.255ZM175.909 96.613C175.909 98.3864 175.38 99.9141 174.326 101.219L175.104 101.847C176.309 100.356 176.909 98.6034 176.909 96.613H175.909ZM173.944 91.871C175.152 93.1791 175.808 94.7608 175.91 96.64L176.908 96.586C176.795 94.4863 176.053 92.6805 174.679 91.1927L173.944 91.871ZM168.666 89.4509C170.835 89.4509 172.576 90.2497 173.93 91.8543L174.694 91.2094C173.144 89.3727 171.121 88.4509 168.666 88.4509V89.4509ZM176.598 116.3C178.072 117.977 178.753 119.92 178.652 122.157L179.651 122.203C179.764 119.708 178.994 117.512 177.349 115.64L176.598 116.3ZM170.037 113.163C172.68 113.163 174.853 114.196 176.589 116.289L177.358 115.651C175.438 113.335 172.986 112.163 170.037 112.163V113.163ZM154.471 113.163H170.037V112.163H154.471V113.163ZM154.971 131.133V112.663H153.971V131.133H154.971ZM168.424 130.633H154.471V131.633H168.424V130.633ZM176.131 128.042C174.484 129.739 171.948 130.633 168.424 130.633V131.633C172.105 131.633 174.946 130.698 176.848 128.739L176.131 128.042ZM178.652 122.159C178.549 124.571 177.708 126.516 176.142 128.031L176.837 128.75C178.605 127.039 179.538 124.844 179.651 122.201L178.652 122.159ZM237.502 130.633H206.37V131.633H237.502V130.633ZM238.002 139.117V131.133H237.002V139.117H238.002ZM195.562 139.617H237.502V138.617H195.562V139.617ZM195.062 131.133V139.117H196.062V131.133H195.062ZM226.374 88.7338L195.161 130.835L195.964 131.43L227.177 89.3293L226.374 88.7338ZM195.562 89.5316H226.775V88.5316H195.562V89.5316ZM195.062 81.0469V89.0316H196.062V81.0469H195.062ZM237.502 80.5469H195.562V81.5469H237.502V80.5469ZM238.002 89.0316V81.0469H237.002V89.0316H238.002ZM206.772 131.43L237.904 89.3288L237.1 88.7343L205.968 130.835L206.772 131.43Z" fill="url(#paint2_linear_2739_12493)" mask="url(#path-12-inside-2_2739_12493)"/>
									<g opacity="0.1" filter="url(#filter0_f_2739_12493)">
									<mask id="path-14-inside-3_2739_12493" fill="white">
									<path fill-rule="evenodd" clip-rule="evenodd" d="M137.278 122.18C137.386 118.255 136.284 114.787 133.972 111.776C132.789 110.163 131.445 108.845 129.939 107.824C130.584 107.071 131.041 106.506 131.31 106.13C133.676 103.227 134.778 100.054 134.617 96.613C134.456 92.9567 133.3 89.8112 131.149 87.1765C129.159 84.5419 126.471 82.7406 123.083 81.7728C121.793 81.2888 119.723 81.0469 116.873 81.0469H95.5V139.117H118.083C120.503 139.117 122.788 138.848 124.938 138.311C128.541 137.182 131.471 135.219 133.73 132.423C135.988 129.412 137.171 125.998 137.278 122.18ZM104.049 88.9509H118.244C120.556 88.9509 122.438 89.8112 123.89 91.5318C125.18 92.9298 125.879 94.6235 125.987 96.613C125.987 98.4949 125.422 100.135 124.293 101.533C123.648 102.501 122.734 103.28 121.551 103.872C120.368 104.463 119.266 104.759 118.244 104.759H104.049V88.9509ZM126.552 115.97C128.111 117.744 128.837 119.814 128.729 122.18C128.622 124.707 127.734 126.777 126.068 128.39C124.293 130.219 121.605 131.133 118.002 131.133H104.049V112.663H119.615C122.411 112.663 124.723 113.765 126.552 115.97ZM184.394 111.776C186.706 114.787 187.808 118.255 187.7 122.18C187.593 125.998 186.41 129.412 184.152 132.423C181.893 135.219 178.963 137.182 175.36 138.311C173.21 138.848 170.924 139.117 168.505 139.117H145.922V81.0469H167.295C170.145 81.0469 172.215 81.2888 173.505 81.7728C176.893 82.7406 179.581 84.5419 181.571 87.1765C183.721 89.8112 184.877 92.9567 185.039 96.613C185.2 100.054 184.098 103.227 181.732 106.13C181.463 106.506 181.006 107.071 180.361 107.824C181.866 108.845 183.211 110.163 184.394 111.776ZM168.666 88.9509H154.471V104.759H168.666C169.688 104.759 170.79 104.463 171.973 103.872C173.156 103.28 174.07 102.501 174.715 101.533C175.844 100.135 176.409 98.4949 176.409 96.613C176.301 94.6235 175.602 92.9298 174.312 91.5318C172.86 89.8112 170.978 88.9509 168.666 88.9509ZM179.151 122.18C179.259 119.814 178.533 117.744 176.973 115.97C175.145 113.765 172.833 112.663 170.037 112.663H154.471V131.133H168.424C172.027 131.133 174.715 130.219 176.49 128.39C178.156 126.777 179.044 124.707 179.151 122.18ZM206.37 131.133H237.502V139.117H195.562V131.133L226.775 89.0316H195.562V81.0469H237.502V89.0316L206.37 131.133Z"/>
									</mask>
									<path d="M133.972 111.776L133.568 112.072L133.575 112.08L133.972 111.776ZM137.278 122.18L137.778 122.194L137.778 122.194L137.278 122.18ZM129.939 107.824L129.559 107.498L129.195 107.923L129.658 108.238L129.939 107.824ZM131.31 106.13L130.922 105.814L130.912 105.827L130.903 105.839L131.31 106.13ZM134.617 96.613L134.117 96.635L134.117 96.6364L134.617 96.613ZM131.149 87.1765L130.75 87.4778L130.755 87.4854L130.761 87.4927L131.149 87.1765ZM123.083 81.7728L122.908 82.2409L122.927 82.248L122.946 82.2535L123.083 81.7728ZM95.5 81.0469V80.5469H95V81.0469H95.5ZM95.5 139.117H95V139.617H95.5V139.117ZM124.938 138.311L125.06 138.796L125.074 138.792L125.088 138.788L124.938 138.311ZM133.73 132.423L134.119 132.737L134.124 132.73L134.13 132.723L133.73 132.423ZM104.049 88.9509V88.4509H103.549V88.9509H104.049ZM123.89 91.5318L123.508 91.8543L123.515 91.8628L123.523 91.871L123.89 91.5318ZM125.987 96.613H126.487V96.5995L126.486 96.586L125.987 96.613ZM124.293 101.533L123.904 101.219L123.89 101.236L123.877 101.255L124.293 101.533ZM121.551 103.872L121.327 103.425H121.327L121.551 103.872ZM104.049 104.759H103.549V105.259H104.049V104.759ZM128.729 122.18L128.23 122.157L128.23 122.159L128.729 122.18ZM126.552 115.97L126.167 116.289L126.171 116.294L126.176 116.3L126.552 115.97ZM126.068 128.39L125.72 128.031L125.714 128.037L125.709 128.042L126.068 128.39ZM104.049 131.133H103.549V131.633H104.049V131.133ZM104.049 112.663V112.163H103.549V112.663H104.049ZM187.7 122.18L188.2 122.194L188.2 122.194L187.7 122.18ZM184.394 111.776L183.99 112.072L183.997 112.08L184.394 111.776ZM184.152 132.423L184.541 132.737L184.546 132.73L184.552 132.723L184.152 132.423ZM175.36 138.311L175.482 138.796L175.496 138.792L175.51 138.788L175.36 138.311ZM145.922 139.117H145.422V139.617H145.922V139.117ZM145.922 81.0469V80.5469H145.422V81.0469H145.922ZM173.505 81.7728L173.33 82.2409L173.349 82.248L173.368 82.2535L173.505 81.7728ZM181.571 87.1765L181.172 87.4778L181.177 87.4854L181.183 87.4927L181.571 87.1765ZM185.039 96.613L184.539 96.635L184.539 96.6364L185.039 96.613ZM181.732 106.13L181.344 105.814L181.334 105.827L181.325 105.839L181.732 106.13ZM180.361 107.824L179.981 107.498L179.617 107.923L180.08 108.238L180.361 107.824ZM154.471 88.9509V88.4509H153.971V88.9509H154.471ZM154.471 104.759H153.971V105.259H154.471V104.759ZM171.973 103.872L171.749 103.425L171.973 103.872ZM174.715 101.533L174.326 101.219L174.312 101.236L174.299 101.255L174.715 101.533ZM176.409 96.613H176.909V96.5995L176.908 96.586L176.409 96.613ZM174.312 91.5318L173.93 91.8543L173.937 91.8628L173.944 91.871L174.312 91.5318ZM176.973 115.97L176.589 116.289L176.593 116.294L176.598 116.3L176.973 115.97ZM179.151 122.18L178.652 122.157L178.652 122.159L179.151 122.18ZM154.471 112.663V112.163H153.971V112.663H154.471ZM154.471 131.133H153.971V131.633H154.471V131.133ZM176.49 128.39L176.142 128.031L176.136 128.037L176.131 128.042L176.49 128.39ZM237.502 131.133H238.002V130.633H237.502V131.133ZM206.37 131.133L205.968 130.835L205.378 131.633H206.37V131.133ZM237.502 139.117V139.617H238.002V139.117H237.502ZM195.562 139.117H195.062V139.617H195.562V139.117ZM195.562 131.133L195.161 130.835L195.062 130.968V131.133H195.562ZM226.775 89.0316L227.177 89.3293L227.768 88.5316H226.775V89.0316ZM195.562 89.0316H195.062V89.5316H195.562V89.0316ZM195.562 81.0469V80.5469H195.062V81.0469H195.562ZM237.502 81.0469H238.002V80.5469H237.502V81.0469ZM237.502 89.0316L237.904 89.3288L238.002 89.1964V89.0316H237.502ZM133.575 112.08C135.815 114.997 136.883 118.352 136.779 122.166L137.778 122.194C137.889 118.158 136.753 114.577 134.368 111.471L133.575 112.08ZM129.658 108.238C131.112 109.224 132.416 110.5 133.568 112.072L134.375 111.48C133.162 109.826 131.777 108.467 130.22 107.41L129.658 108.238ZM130.903 105.839C130.648 106.197 130.203 106.747 129.559 107.498L130.319 108.149C130.965 107.395 131.434 106.816 131.717 106.421L130.903 105.839ZM134.117 96.6364C134.272 99.9435 133.218 102.997 130.922 105.814L131.698 106.446C134.134 103.456 135.284 100.165 135.116 96.5896L134.117 96.6364ZM130.761 87.4927C132.839 90.0375 133.96 93.0776 134.117 96.635L135.116 96.5909C134.951 92.8358 133.76 89.5849 131.536 86.8603L130.761 87.4927ZM122.946 82.2535C126.237 83.1937 128.83 84.9358 130.75 87.4778L131.548 86.8752C129.488 84.1479 126.705 82.2875 123.221 81.292L122.946 82.2535ZM116.873 81.5469C119.713 81.5469 121.707 81.7904 122.908 82.2409L123.259 81.3046C121.879 80.7872 119.733 80.5469 116.873 80.5469V81.5469ZM95.5 81.5469H116.873V80.5469H95.5V81.5469ZM96 139.117V81.0469H95V139.117H96ZM118.083 138.617H95.5V139.617H118.083V138.617ZM124.817 137.826C122.71 138.353 120.465 138.617 118.083 138.617V139.617C120.54 139.617 122.866 139.344 125.06 138.796L124.817 137.826ZM133.341 132.109C131.148 134.824 128.302 136.732 124.789 137.834L125.088 138.788C128.78 137.631 131.795 135.614 134.119 132.737L133.341 132.109ZM136.779 122.166C136.674 125.882 135.525 129.196 133.33 132.123L134.13 132.723C136.451 129.628 137.668 126.113 137.778 122.194L136.779 122.166ZM118.244 88.4509H104.049V89.4509H118.244V88.4509ZM124.272 91.2094C122.722 89.3727 120.699 88.4509 118.244 88.4509V89.4509C120.414 89.4509 122.154 90.2497 123.508 91.8543L124.272 91.2094ZM126.486 96.586C126.373 94.4863 125.631 92.6805 124.257 91.1927L123.523 91.871C124.73 93.1791 125.386 94.7608 125.488 96.64L126.486 96.586ZM124.682 101.847C125.887 100.356 126.487 98.6034 126.487 96.613H125.487C125.487 98.3864 124.958 99.9141 123.904 101.219L124.682 101.847ZM121.775 104.319C123.025 103.694 124.009 102.86 124.709 101.81L123.877 101.255C123.287 102.141 122.443 102.867 121.327 103.425L121.775 104.319ZM118.244 105.259C119.363 105.259 120.542 104.935 121.775 104.319L121.327 103.425C120.194 103.991 119.169 104.259 118.244 104.259V105.259ZM104.049 105.259H118.244V104.259H104.049V105.259ZM103.549 88.9509V104.759H104.549V88.9509H103.549ZM129.229 122.203C129.342 119.708 128.572 117.512 126.927 115.64L126.176 116.3C127.65 117.977 128.331 119.92 128.23 122.157L129.229 122.203ZM126.415 128.75C128.183 127.039 129.116 124.844 129.229 122.201L128.23 122.159C128.127 124.571 127.286 126.516 125.72 128.031L126.415 128.75ZM118.002 131.633C121.683 131.633 124.525 130.698 126.426 128.739L125.709 128.042C124.062 129.739 121.526 130.633 118.002 130.633V131.633ZM104.049 131.633H118.002V130.633H104.049V131.633ZM103.549 112.663V131.133H104.549V112.663H103.549ZM119.615 112.163H104.049V113.163H119.615V112.163ZM126.936 115.651C125.016 113.335 122.564 112.163 119.615 112.163V113.163C122.258 113.163 124.431 114.196 126.167 116.289L126.936 115.651ZM188.2 122.194C188.311 118.158 187.175 114.577 184.79 111.471L183.997 112.08C186.237 114.997 187.305 118.352 187.201 122.166L188.2 122.194ZM184.552 132.723C186.873 129.628 188.09 126.113 188.2 122.194L187.201 122.166C187.096 125.882 185.947 129.196 183.752 132.123L184.552 132.723ZM175.51 138.788C179.202 137.631 182.217 135.614 184.541 132.737L183.763 132.109C181.57 134.824 178.724 136.732 175.211 137.834L175.51 138.788ZM168.505 139.617C170.962 139.617 173.288 139.344 175.482 138.796L175.239 137.826C173.131 138.353 170.887 138.617 168.505 138.617V139.617ZM145.922 139.617H168.505V138.617H145.922V139.617ZM145.422 81.0469V139.117H146.422V81.0469H145.422ZM167.295 80.5469H145.922V81.5469H167.295V80.5469ZM173.681 81.3046C172.301 80.7872 170.155 80.5469 167.295 80.5469V81.5469C170.135 81.5469 172.128 81.7904 173.33 82.2409L173.681 81.3046ZM181.97 86.8752C179.91 84.1479 177.127 82.2875 173.643 81.292L173.368 82.2535C176.658 83.1937 179.252 84.9358 181.172 87.4778L181.97 86.8752ZM185.538 96.5909C185.373 92.8358 184.182 89.5849 181.958 86.8603L181.183 87.4927C183.261 90.0375 184.382 93.0776 184.539 96.635L185.538 96.5909ZM182.12 106.446C184.556 103.456 185.706 100.165 185.538 96.5896L184.539 96.6364C184.694 99.9435 183.64 102.997 181.344 105.814L182.12 106.446ZM180.741 108.149C181.387 107.395 181.856 106.816 182.139 106.421L181.325 105.839C181.07 106.197 180.625 106.747 179.981 107.498L180.741 108.149ZM184.797 111.48C183.583 109.826 182.199 108.467 180.642 107.41L180.08 108.238C181.534 109.224 182.838 110.5 183.99 112.072L184.797 111.48ZM154.471 89.4509H168.666V88.4509H154.471V89.4509ZM154.971 104.759V88.9509H153.971V104.759H154.971ZM168.666 104.259H154.471V105.259H168.666V104.259ZM171.749 103.425C170.616 103.991 169.591 104.259 168.666 104.259V105.259C169.785 105.259 170.964 104.935 172.197 104.319L171.749 103.425ZM174.299 101.255C173.708 102.141 172.865 102.867 171.749 103.425L172.197 104.319C173.446 103.694 174.431 102.86 175.131 101.81L174.299 101.255ZM175.909 96.613C175.909 98.3864 175.38 99.9141 174.326 101.219L175.104 101.847C176.309 100.356 176.909 98.6034 176.909 96.613H175.909ZM173.944 91.871C175.152 93.1791 175.808 94.7608 175.91 96.64L176.908 96.586C176.795 94.4863 176.053 92.6805 174.679 91.1927L173.944 91.871ZM168.666 89.4509C170.835 89.4509 172.576 90.2497 173.93 91.8543L174.694 91.2094C173.144 89.3727 171.121 88.4509 168.666 88.4509V89.4509ZM176.598 116.3C178.072 117.977 178.753 119.92 178.652 122.157L179.651 122.203C179.764 119.708 178.994 117.512 177.349 115.64L176.598 116.3ZM170.037 113.163C172.68 113.163 174.853 114.196 176.589 116.289L177.358 115.651C175.438 113.335 172.986 112.163 170.037 112.163V113.163ZM154.471 113.163H170.037V112.163H154.471V113.163ZM154.971 131.133V112.663H153.971V131.133H154.971ZM168.424 130.633H154.471V131.633H168.424V130.633ZM176.131 128.042C174.484 129.739 171.948 130.633 168.424 130.633V131.633C172.105 131.633 174.946 130.698 176.848 128.739L176.131 128.042ZM178.652 122.159C178.549 124.571 177.708 126.516 176.142 128.031L176.837 128.75C178.605 127.039 179.538 124.844 179.651 122.201L178.652 122.159ZM237.502 130.633H206.37V131.633H237.502V130.633ZM238.002 139.117V131.133H237.002V139.117H238.002ZM195.562 139.617H237.502V138.617H195.562V139.617ZM195.062 131.133V139.117H196.062V131.133H195.062ZM226.374 88.7338L195.161 130.835L195.964 131.43L227.177 89.3293L226.374 88.7338ZM195.562 89.5316H226.775V88.5316H195.562V89.5316ZM195.062 81.0469V89.0316H196.062V81.0469H195.062ZM237.502 80.5469H195.562V81.5469H237.502V80.5469ZM238.002 89.0316V81.0469H237.002V89.0316H238.002ZM206.772 131.43L237.904 89.3288L237.1 88.7343L205.968 130.835L206.772 131.43Z" fill="url(#paint3_linear_2739_12493)" mask="url(#path-14-inside-3_2739_12493)"/>
									</g>
									<mask id="mask0_2739_12493" style="mask-type:alpha" maskUnits="userSpaceOnUse" x="195" y="81" width="43" height="59">
									<path d="M206.37 131.133H237.502V139.117H195.562V131.133L226.775 89.0316H195.562V81.0469H237.502V89.0316L206.37 131.133Z" fill="url(#paint4_linear_2739_12493)"/>
									</mask>
									<g mask="url(#mask0_2739_12493)">
									</g>
									<circle cx="3" cy="3" r="3.25" transform="matrix(-1 0 0 1 43.5 107)" fill="#141728" stroke="url(#paint5_linear_2739_12493)" stroke-width="0.5"/>
									<circle cx="3" cy="3" r="3.25" transform="matrix(-1 0 0 1 289.5 107)" fill="#141728" stroke="url(#paint6_linear_2739_12493)" stroke-width="0.5"/>
									<defs>
									<filter id="filter0_f_2739_12493" x="94.5" y="80.0469" width="144.004" height="60.0703" filterUnits="userSpaceOnUse" color-interpolation-filters="sRGB">
									<feFlood flood-opacity="0" result="BackgroundImageFix"/>
									<feBlend mode="normal" in="SourceGraphic" in2="BackgroundImageFix" result="shape"/>
									<feGaussianBlur stdDeviation="0.5" result="effect1_foregroundBlur_2739_12493"/>
									</filter>
									<linearGradient id="paint0_linear_2739_12493" x1="37.5" y1="166" x2="22" y2="-94.5" gradientUnits="userSpaceOnUse">
									<stop stop-color="#1F2338"/>
									<stop offset="0.446428" stop-color="#333953"/>
									<stop offset="1" stop-color="#253475"/>
									</linearGradient>
									<linearGradient id="paint1_linear_2739_12493" x1="163.5" y1="160" x2="163.5" y2="60" gradientUnits="userSpaceOnUse">
									<stop stop-color="#2B3553"/>
									<stop offset="1" stop-color="#434857"/>
									</linearGradient>
									<linearGradient id="paint2_linear_2739_12493" x1="166.501" y1="81.0469" x2="166.501" y2="151.389" gradientUnits="userSpaceOnUse">
									<stop stop-color="#303D65"/>
									<stop offset="1" stop-color="#3B4668"/>
									</linearGradient>
									<linearGradient id="paint3_linear_2739_12493" x1="159.001" y1="139" x2="159.001" y2="95.5" gradientUnits="userSpaceOnUse">
									<stop stop-color="#AFCAF2"/>
									<stop offset="1" stop-color="white" stop-opacity="0"/>
									</linearGradient>
									<linearGradient id="paint4_linear_2739_12493" x1="166.111" y1="80.7491" x2="130.365" y2="162.423" gradientUnits="userSpaceOnUse">
									<stop stop-color="#A1C6FB"/>
									<stop offset="1" stop-color="white"/>
									</linearGradient>
									<linearGradient id="paint5_linear_2739_12493" x1="3" y1="0" x2="3" y2="5" gradientUnits="userSpaceOnUse">
									<stop stop-color="#1D202F" stop-opacity="0"/>
									<stop offset="1" stop-color="#242C45"/>
									</linearGradient>
									<linearGradient id="paint6_linear_2739_12493" x1="3" y1="0" x2="3" y2="5" gradientUnits="userSpaceOnUse">
									<stop stop-color="#1D202F" stop-opacity="0"/>
									<stop offset="1" stop-color="#242C45"/>
									</linearGradient>
									</defs>
								</svg>									