							<svg width="84" height="24" viewBox="0 0 84 24" fill="none" xmlns="http://www.w3.org/2000/svg">
								<path fill-rule="evenodd" clip-rule="evenodd" d="M48.0051 15.7734C48.0437 14.3636 47.6478 13.118 46.8174 12.0366C46.3926 11.4572 45.9098 10.9841 45.3691 10.6172C45.6008 10.3468 45.765 10.144 45.8615 10.0089C46.7112 8.96602 47.1071 7.82664 47.0492 6.5907C46.9912 5.27751 46.576 4.14779 45.8036 3.20152C45.089 2.25525 44.1235 1.60832 42.9068 1.26071C42.4434 1.0869 41.6999 1 40.6764 1H33V21.8565H41.1109C41.9799 21.8565 42.8006 21.7599 43.5731 21.5668C44.867 21.1613 45.9194 20.4564 46.7305 19.4522C47.5416 18.3708 47.9665 17.1445 48.0051 15.7734ZM36.0705 3.8388H41.1688C41.9992 3.8388 42.6751 4.14779 43.1965 4.76576C43.66 5.26786 43.911 5.87617 43.9497 6.5907C43.9497 7.26661 43.7469 7.85561 43.3414 8.35771C43.1096 8.70532 42.7813 8.98534 42.3565 9.19776C41.9316 9.41019 41.5357 9.51641 41.1688 9.51641H36.0705V3.8388ZM44.1524 13.5429C44.7125 14.1802 44.9732 14.9236 44.9346 15.7734C44.8959 16.681 44.5773 17.4245 43.9786 18.0038C43.3413 18.6604 42.3758 18.9887 41.0819 18.9887H36.0705V12.3552H41.6612C42.6654 12.3552 43.4958 12.7511 44.1524 13.5429ZM64.9268 12.0366C65.7572 13.118 66.1531 14.3636 66.1145 15.7734C66.0758 17.1445 65.651 18.3708 64.8399 19.4522C64.0288 20.4564 62.9763 21.1613 61.6825 21.5668C60.91 21.7599 60.0893 21.8565 59.2202 21.8565H51.1094V1H58.7857C59.8092 1 60.5527 1.0869 61.0162 1.26071C62.2328 1.60832 63.1984 2.25525 63.913 3.20152C64.6854 4.14779 65.1006 5.27751 65.1586 6.5907C65.2165 7.82664 64.8206 8.96602 63.9709 10.0089C63.8743 10.144 63.7102 10.3468 63.4784 10.6172C64.0192 10.9841 64.502 11.4572 64.9268 12.0366ZM59.2782 3.8388H54.1799V9.51641H59.2782C59.6451 9.51641 60.041 9.41019 60.4658 9.19776C60.8907 8.98534 61.219 8.70532 61.4507 8.35771C61.8563 7.85561 62.059 7.26661 62.059 6.5907C62.0204 5.87617 61.7694 5.26786 61.3059 4.76576C60.7845 4.14779 60.1086 3.8388 59.2782 3.8388ZM63.0439 15.7734C63.0826 14.9236 62.8218 14.1802 62.2618 13.5429C61.6052 12.7511 60.7748 12.3552 59.7706 12.3552H54.1799V18.9887H59.1913C60.4851 18.9887 61.4507 18.6604 62.088 18.0038C62.6867 17.4245 63.0053 16.681 63.0439 15.7734ZM72.8191 18.9887H84.0005V21.8565H68.9375V18.9887L80.1479 3.86777H68.9375V1H84.0005V3.86777L72.8191 18.9887Z" fill="url(#paint0_linear_2694_6369)"/>
								<g clip-path="url(#clip0_2694_6369)">
								<path d="M7.94458 11.4995C7.94458 13.8096 9.60752 15.6826 11.6585 15.6826C13.7095 15.6826 15.3724 13.8096 15.3724 11.4995C15.3724 9.74969 14.4181 8.25064 13.0642 7.62702L23.1989 9.86434C23.277 10.398 23.317 10.9444 23.317 11.4995C23.317 17.8503 18.0973 23 11.6585 23C5.21976 23 0 17.8503 0 11.4995C0 5.14861 5.21976 0 11.6585 0L13.2898 0.112509L25 0.9215L24.2851 8.24528L22.8098 8.13706L12.1499 7.35271C11.9886 7.32914 11.8251 7.31628 11.6585 7.31628C9.60752 7.31628 7.94458 9.18929 7.94458 11.4995Z" fill="url(#paint1_linear_2694_6369)"/>
								<path d="M23.1975 9.86319L13.0627 7.62587C12.7738 7.49193 12.4679 7.39871 12.1484 7.35156L22.8083 8.13591C22.9823 8.69417 23.1131 9.27171 23.1975 9.86319Z" fill="#8B9FCE"/>
								</g>
								<defs>
								<linearGradient id="paint0_linear_2694_6369" x1="58.36" y1="0.893044" x2="45.5214" y2="30.227" gradientUnits="userSpaceOnUse">
								<stop stop-color="#A1C6FB"/>
								<stop offset="1" stop-color="white"/>
								</linearGradient>
								<linearGradient id="paint1_linear_2694_6369" x1="12.5" y1="8.48809" x2="12.5" y2="16.8393" gradientUnits="userSpaceOnUse">
								<stop stop-color="#EEEEEE"/>
								<stop offset="0.51" stop-color="#C8DCF5"/>
								<stop offset="1" stop-color="#CBD5E2"/>
								</linearGradient>
								<clipPath id="clip0_2694_6369">
								<rect width="25" height="23" fill="white"/>
								</clipPath>
								</defs>
							</svg>