<svg width="1800" height="207" viewBox="0 0 1800 207" fill="none" xmlns="http://www.w3.org/2000/svg">
<g filter="url(#filter0_b_1_412)">
<path fill-rule="evenodd" clip-rule="evenodd" d="M0 43.3199H124.995C130.434 43.3199 135.674 44.1716 140.704 45.8794C145.734 47.5869 150.201 50.0505 154.087 53.2776C157.999 56.4228 161.097 60.2755 163.373 64.8169C165.682 69.4223 166.814 74.5911 166.814 80.2799C166.814 84.4759 166.166 88.6149 164.876 92.6903L164.873 92.6977L164.871 92.7051C163.736 96.1945 162.266 99.595 160.463 102.906C165.207 108.868 167.583 115.817 167.583 123.673C167.583 129.226 166.618 134.529 164.682 139.57L164.68 139.577L164.677 139.584C162.739 144.523 159.981 148.794 156.398 152.372C152.923 155.942 148.755 158.743 143.92 160.78C139.132 162.841 133.839 163.853 128.069 163.853H0.461229V130.107H133.142V121.073H0V86.7132H133.142V77.0666H0V43.3199ZM143.136 158.94C147.749 156.998 151.695 154.34 154.974 150.967C158.357 147.593 160.97 143.555 162.815 138.853C164.66 134.049 165.583 128.989 165.583 123.673C165.583 115.802 163.072 108.953 158.049 103.127C160.099 99.5488 161.739 95.8688 162.969 92.0866C164.199 88.2021 164.814 84.2666 164.814 80.2799C164.814 74.8621 163.738 70.0066 161.585 65.7132C159.433 61.4199 156.512 57.791 152.822 54.8266C149.132 51.7599 144.879 49.4088 140.061 47.7732C135.244 46.1377 130.222 45.3199 124.995 45.3199H2V75.0666H135.142V88.7132H2V119.073H135.142V132.107H2.46123V161.853H128.069C133.604 161.853 138.626 160.882 143.136 158.94ZM177.576 164.313V129.187H185.57V81.6599C185.57 76.2732 186.653 71.2736 188.84 66.6915L188.845 66.6825L188.849 66.6737C191.108 62.0604 194.077 58.0722 197.756 54.7269C201.436 51.3803 205.704 48.7976 210.542 46.975C215.388 45.1489 220.497 44.2399 225.852 44.2399H311.026C316.373 44.2399 321.473 45.1458 326.312 46.9657C331.243 48.6794 335.607 51.2012 339.387 54.5345C343.273 57.7698 346.357 61.656 348.627 66.1794C351.035 70.7707 352.231 75.7892 352.231 81.1999V129.187H364.376V164.313H177.576ZM346.848 67.0932C344.696 62.7999 341.775 59.1199 338.085 56.0532C334.498 52.8843 330.347 50.4821 325.632 48.8466C321.019 47.1088 316.151 46.2399 311.026 46.2399H225.852C220.728 46.2399 215.859 47.1088 211.247 48.8466C206.635 50.5843 202.586 53.0377 199.101 56.2066C195.616 59.3755 192.798 63.1577 190.645 67.5532C188.595 71.8466 187.57 76.5488 187.57 81.6599V131.187H179.576V162.313H362.376V131.187H350.231V81.1999C350.231 76.0888 349.103 71.3866 346.848 67.0932ZM374.369 43.3199H506.282C512.038 43.3199 517.544 44.2764 522.79 46.1959C528.02 48.008 532.685 50.6253 536.768 54.052C540.874 57.3955 544.122 61.4451 546.501 66.186C548.909 70.8837 550.101 76.0538 550.101 81.6599C550.101 87.1434 549.021 92.2837 546.846 97.056C544.69 101.785 541.723 105.931 537.95 109.48C534.285 113.026 529.984 115.862 525.066 117.995L525.056 117.999L525.047 118.003C520.188 120.049 515.106 121.073 509.818 121.073H409.887V164.313H374.369V43.3199ZM536.57 108.033C540.157 104.66 542.976 100.724 545.026 96.2266C547.076 91.7288 548.101 86.8732 548.101 81.6599C548.101 76.3443 546.973 71.4888 544.718 67.0932C542.463 62.5954 539.388 58.7621 535.494 55.5932C531.599 52.3221 527.14 49.8177 522.118 48.0799C517.096 46.2399 511.817 45.3199 506.282 45.3199H376.369V162.313H407.887V119.073H509.818C514.841 119.073 519.658 118.102 524.27 116.16C528.985 114.115 533.085 111.407 536.57 108.033ZM604.332 73.2266L609.098 63.7199C609.508 63.2088 609.867 62.6977 610.174 62.1866C610.482 61.5732 610.789 61.011 611.097 60.4999C614.889 54.6732 618.579 50.4821 622.166 47.9266C625.754 45.2688 629.495 43.531 633.39 42.7132C639.539 41.691 645.023 42.5599 649.84 45.3199C654.657 47.9777 659.423 53.0377 664.138 60.4999C664.548 61.2155 664.958 61.8799 665.368 62.4932C665.778 63.1066 666.188 63.771 666.598 64.4866L671.518 73.8399L720.562 162.313H685.97L668.597 130.113H606.946L589.727 162.313H554.827L604.332 73.2266ZM608.144 132.113L590.925 164.313H551.427L602.563 72.292L607.405 62.6339L607.538 62.4685C607.88 62.0423 608.174 61.6252 608.423 61.2177C608.738 60.5926 609.058 60.009 609.383 59.4689L609.401 59.4386L609.421 59.4089C613.275 53.4871 617.121 49.0691 620.991 46.308C624.777 43.506 628.775 41.6386 632.979 40.7559L633.02 40.7472L633.062 40.7403C639.601 39.6533 645.557 40.5654 650.82 43.5762C656.054 46.4686 661.036 51.8454 665.829 59.4316L665.852 59.4681L665.874 59.5056C666.263 60.1858 666.649 60.8108 667.031 61.3818C667.469 62.0375 667.903 62.7414 668.333 63.4923L668.351 63.5236L673.267 72.8702L673.288 72.9088L723.957 164.313H684.776L667.403 132.113H608.144ZM725.474 42.8599H854.774C860.478 42.8599 865.459 43.2207 869.699 43.9589C873.951 44.597 877.695 45.7218 880.893 47.37C884.177 49.0092 886.949 51.1555 889.181 53.8166C891.46 56.3133 893.494 59.3165 895.294 62.8021L895.308 62.8287L895.321 62.8557C901.126 74.9714 901.008 87.2664 895.007 99.5574L895.002 99.5668L894.382 100.803C894.133 101.3 893.833 101.782 893.489 102.249L893.156 102.802L893.353 103.116L893.367 103.138L894.765 105.307L894.791 105.352C895.216 106.094 895.593 106.791 895.92 107.444C896.169 107.941 896.52 108.516 896.988 109.169L897.066 109.278L897.129 109.397C900.135 115.07 901.663 120.903 901.667 126.873C901.772 132.813 900.469 138.354 897.749 143.46C895.12 148.588 891.144 152.963 885.892 156.598C880.575 160.277 874.126 162.668 866.61 163.83L866.6 163.831C864.449 164.153 862.249 164.313 860.001 164.313H725.474V42.8599ZM895.977 142.533C898.539 137.729 899.769 132.515 899.667 126.893C899.667 121.271 898.232 115.751 895.362 110.333C894.85 109.618 894.439 108.953 894.132 108.34C893.824 107.727 893.466 107.062 893.056 106.347L891.672 104.2L890.903 102.973L891.365 101.9L891.826 101.133C892.133 100.724 892.39 100.315 892.595 99.9066L893.21 98.6799C898.949 86.9243 899.052 75.271 893.517 63.7199C891.775 60.3466 889.827 57.4843 887.675 55.1332C885.625 52.6799 883.063 50.6866 879.988 49.1532C877.015 47.6199 873.479 46.5466 869.379 45.9332C865.28 45.2177 860.411 44.8599 854.774 44.8599H727.474V162.313H860.001C862.153 162.313 864.255 162.16 866.305 161.853C873.582 160.729 879.731 158.429 884.754 154.953C889.776 151.478 893.517 147.338 895.977 142.533ZM911.492 74.7196L911.497 74.6938C912.238 70.7849 913.305 67.2575 914.712 64.1266L914.724 64.1007L914.736 64.0752C916.254 60.9403 918.16 58.1637 920.458 55.7589C922.732 53.278 925.421 51.0312 928.511 49.0123L928.534 48.9968L928.559 48.982C929.945 48.1312 931.338 47.3819 932.737 46.7363C934.27 45.9742 935.859 45.3725 937.502 44.9322C939.501 44.3051 941.38 43.8726 943.134 43.6495C944.923 43.3208 947.432 43.1163 950.601 43.0143M950.603 43.0143L955.247 42.8599H1084.27V76.2999H945.134V131.027H1084.27V164.313H951.744C945.864 164.313 940.813 163.634 936.646 162.213C932.471 160.788 928.46 158.396 924.612 155.09L924.606 155.085L924.6 155.08C919.561 150.683 915.877 146.294 913.672 141.896L913.659 141.87L913.646 141.843C911.572 137.377 910.539 132.59 910.539 127.507V87.7932C910.539 83.0066 910.852 78.6546 911.488 74.7456L911.492 74.7196M943.134 133.027V74.2999H1082.27V44.8599H955.28L950.667 45.0132C947.49 45.1154 945.082 45.3199 943.442 45.6266C941.802 45.831 940.008 46.2399 938.06 46.8532C936.523 47.2621 935.037 47.8243 933.602 48.5399C932.269 49.1532 930.937 49.8688 929.605 50.6866C926.632 52.6288 924.07 54.7754 921.918 57.1266C919.765 59.3754 917.971 61.9821 916.536 64.9466C915.204 67.911 914.179 71.2843 913.462 75.0666C912.847 78.8488 912.539 83.091 912.539 87.7932V127.507C912.539 132.311 913.513 136.809 915.46 141C917.51 145.089 920.995 149.28 925.915 153.573C929.605 156.742 933.397 158.991 937.292 160.32C941.187 161.649 946.004 162.313 951.744 162.313H1082.27V133.027H943.134ZM1086.61 42.8599H1257.88V76.2999H1189.62V164.313H1155.02V76.2999H1086.61V42.8599ZM1157.02 74.2999V162.313H1187.62V74.2999H1255.88V44.8599H1088.61V74.2999H1157.02ZM1260.9 42.8599H1390.2C1395.91 42.8599 1400.89 43.2207 1405.13 43.9589C1409.38 44.597 1413.12 45.7218 1416.32 47.37C1419.61 49.009 1422.38 51.155 1424.61 53.8157C1426.89 56.3126 1428.92 59.3161 1430.72 62.8021L1430.74 62.8287L1430.75 62.8557C1436.56 74.9714 1436.44 87.2664 1430.44 99.5574L1430.43 99.5668L1430.43 99.5762L1429.81 100.803C1429.56 101.3 1429.26 101.782 1428.92 102.248L1428.59 102.802L1428.78 103.116L1428.8 103.138L1430.19 105.307L1430.22 105.352C1430.65 106.094 1431.02 106.791 1431.35 107.444C1431.6 107.942 1431.95 108.516 1432.42 109.169L1432.5 109.278L1432.56 109.397C1435.56 115.069 1437.09 120.901 1437.1 126.87C1437.2 132.811 1435.9 138.353 1433.18 143.46C1430.55 148.588 1426.57 152.963 1421.32 156.598C1416 160.277 1409.56 162.668 1402.04 163.83L1402.03 163.831C1399.88 164.153 1397.68 164.313 1395.43 164.313H1260.9V42.8599ZM1431.41 142.533C1433.97 137.729 1435.2 132.515 1435.1 126.893C1435.1 121.271 1433.66 115.751 1430.79 110.333C1430.28 109.618 1429.87 108.953 1429.56 108.34C1429.25 107.727 1428.9 107.062 1428.49 106.347L1427.1 104.2L1426.33 102.973L1426.79 101.9L1427.26 101.133C1427.56 100.724 1427.82 100.315 1428.02 99.9066L1428.64 98.6799C1434.38 86.9243 1434.48 75.271 1428.95 63.7199C1427.2 60.3466 1425.26 57.4843 1423.1 55.1332C1421.05 52.6799 1418.49 50.6866 1415.42 49.1532C1412.45 47.6199 1408.91 46.5466 1404.81 45.9332C1400.71 45.2177 1395.84 44.8599 1390.2 44.8599H1262.9V162.313H1395.43C1397.58 162.313 1399.68 162.16 1401.73 161.853C1409.01 160.729 1415.16 158.429 1420.18 154.953C1425.21 151.478 1428.95 147.338 1431.41 142.533ZM1446.74 131.027H1587.41V119.387H1484.87C1479.42 119.387 1474.48 118.48 1470.1 116.621L1470.07 116.609L1470.04 116.597C1465.74 114.617 1461.59 111.366 1457.57 106.943C1453.68 102.847 1450.86 98.8187 1449.2 94.8509C1447.54 90.8921 1446.74 86.4844 1446.74 81.6599V42.8599H1481.33V86.0999H1587.41V42.8599H1622.16V127.047C1622.16 132.442 1621.02 137.405 1618.72 141.899C1616.5 146.429 1612.64 150.879 1607.29 155.272L1607.28 155.279C1604.42 157.603 1601.62 159.435 1598.89 160.744L1598.87 160.751L1598.85 160.759C1596.23 161.959 1593.16 162.919 1589.67 163.657L1589.64 163.664L1589.6 163.67C1587.08 164.108 1583.66 164.313 1579.42 164.313H1446.74V131.027ZM1589.41 88.0999H1479.33V44.8599H1448.74V81.6599C1448.74 86.2599 1449.51 90.3999 1451.04 94.0799C1452.58 97.7599 1455.25 101.593 1459.04 105.58C1462.93 109.873 1466.88 112.94 1470.88 114.78C1474.98 116.518 1479.64 117.387 1484.87 117.387H1589.41V133.027H1448.74V162.313H1579.42C1583.62 162.313 1586.9 162.109 1589.26 161.7C1592.64 160.984 1595.56 160.064 1598.02 158.94C1600.58 157.713 1603.25 155.975 1606.02 153.727C1611.24 149.433 1614.88 145.191 1616.93 141C1619.09 136.809 1620.16 132.158 1620.16 127.047V44.8599H1589.41V88.0999ZM1636.26 143.913C1634.93 139.824 1634.26 135.582 1634.26 131.187V45.6266H1664.09V132.873L1744.19 54.3666C1751.98 46.8021 1760.13 43.0199 1768.64 43.0199C1772.43 43.0199 1776.07 43.5821 1779.55 44.7066C1783.04 45.7288 1786.16 47.4154 1788.93 49.7666C1791.7 52.0154 1793.9 54.9288 1795.54 58.5066C1797.18 61.9821 1798 66.1732 1798 71.0799V162.313H1768.33V74.7599L1688.23 152.653C1684.54 156.64 1680.59 159.553 1676.39 161.393C1672.29 163.131 1667.98 164 1663.47 164C1658.86 164 1654.71 163.131 1651.02 161.393C1647.43 159.655 1644.41 157.304 1641.95 154.34C1639.49 151.375 1637.59 147.9 1636.26 143.913ZM1689.66 154.051C1685.83 158.183 1681.67 161.263 1677.19 163.225L1677.18 163.23L1677.17 163.235C1672.82 165.078 1668.25 166 1663.47 166C1658.61 166 1654.16 165.081 1650.17 163.203L1650.16 163.198L1650.15 163.193C1646.31 161.335 1643.06 158.809 1640.41 155.617C1637.78 152.446 1635.77 148.747 1634.37 144.547L1634.36 144.54L1634.36 144.533C1632.96 140.239 1632.26 135.788 1632.26 131.187V43.6266H1666.09V128.113L1742.8 52.9317C1750.85 45.1094 1759.47 41.0199 1768.64 41.0199C1772.62 41.0199 1776.46 41.6096 1780.14 42.7948C1783.88 43.8945 1787.24 45.7082 1790.21 48.2275C1793.23 50.6863 1795.6 53.8487 1797.36 57.667C1799.15 61.4697 1800 65.9633 1800 71.0799V164.313H1766.33V79.4945L1689.66 154.051ZM1704.25 0.939158L1704.73 2.36591C1704.85 2.71142 1704.96 3.09442 1705.06 3.51037L1705.39 4.48637L1705.41 4.61804C1705.81 6.67628 1706.29 8.38586 1706.84 9.76872L1706.85 9.78668L1706.86 9.80477C1708.55 14.2763 1710.36 16.8628 1712.09 18.0486C1713.91 19.2227 1715.95 19.5355 1718.41 18.8674C1719.63 18.482 1720.8 17.7019 1721.92 16.408L1721.95 16.3802L1721.97 16.3533C1723.15 15.0978 1724.37 12.9764 1725.56 9.80932C1725.84 9.06023 1726.07 8.31506 1726.26 7.57359L1726.28 7.49893L1726.3 7.42593C1726.6 6.55197 1726.89 5.57198 1727.19 4.48393C1727.37 3.75001 1727.43 3.27308 1727.43 2.99989V0.915771L1750.62 1.87167L1749.96 4.2941C1749.65 5.43337 1749.34 6.52296 1749.03 7.56267C1748.69 8.67306 1748.25 9.77328 1747.71 10.8629C1744.35 19.5332 1739.82 26.1416 1734.02 30.5042C1728.41 34.811 1722.46 37.0466 1716.21 37.0466C1709.88 37.0466 1703.88 34.8758 1698.25 30.6681L1698.24 30.6552L1698.22 30.6419C1692.63 26.2688 1688.1 19.5939 1684.53 10.8053L1683.26 7.64818L1683.24 7.56267C1682.91 6.46416 1682.63 5.31793 1682.42 4.12526L1682 1.86373L1704.25 0.939158ZM1732.81 28.9132C1738.25 24.8243 1742.6 18.5377 1745.88 10.0532C1746.39 9.03101 1746.8 8.00878 1747.11 6.98656C1747.23 6.58087 1747.35 6.16713 1747.48 5.74533C1747.66 5.10433 1747.85 4.44474 1748.03 3.76656L1729.43 2.99989C1729.43 3.00039 1729.43 3.00089 1729.43 3.00138C1729.43 3.11245 1729.43 3.23075 1729.42 3.35628C1729.38 3.8082 1729.28 4.35385 1729.12 4.99323C1728.82 6.11767 1728.51 7.13989 1728.2 8.05989C1728 8.87767 1727.74 9.69545 1727.43 10.5132C1726.2 13.7843 1724.87 16.1866 1723.43 17.7199C1722.1 19.2532 1720.62 20.2754 1718.98 20.7866C1716 21.6043 1713.34 21.2466 1710.98 19.7132C1708.73 18.1799 1706.73 15.1132 1704.99 10.5132C1704.37 8.9799 1703.86 7.1399 1703.45 4.99323L1703.14 4.07322C1703.04 3.66434 1702.94 3.30656 1702.83 2.99989L1684.38 3.76656C1684.51 4.44657 1684.65 5.10788 1684.81 5.7505C1684.92 6.1705 1685.03 6.58253 1685.15 6.98656L1686.38 10.0532C1689.87 18.6399 1694.22 24.9777 1699.45 29.0666C1704.78 33.0532 1710.37 35.0466 1716.21 35.0466C1721.95 35.0466 1727.48 33.0021 1732.81 28.9132ZM217.398 129.187H319.019V78.1399H217.398V129.187ZM514.891 77.0666H409.887V87.9399H514.891V77.0666ZM623.55 100.213H651.839L637.848 74.7599L623.55 100.213ZM626.967 98.2132H648.457L637.829 78.8774L626.967 98.2132ZM758.069 118.307H867.227V133.027H758.069V118.307ZM760.069 131.027H865.227V120.307H760.069V131.027ZM758.069 74.2999H865.843V87.9466H758.069V74.2999ZM760.069 85.9466H863.843V76.2999H760.069V85.9466ZM1293.5 118.307H1402.66V133.027H1293.5V118.307ZM1295.5 131.027H1400.66V120.307H1295.5V131.027ZM1293.5 74.2999H1401.27V87.9466H1293.5V74.2999ZM1295.5 85.9466H1399.27V76.2999H1295.5V85.9466ZM321.019 131.187V76.1399H215.398V131.187H321.019ZM516.891 75.0666V89.9399H407.887V75.0666H516.891Z" fill="url(#paint0_linear_1_412)"/>
<path fill-rule="evenodd" clip-rule="evenodd" d="M0 43.3199H124.995C130.434 43.3199 135.674 44.1716 140.704 45.8794C145.734 47.5869 150.201 50.0505 154.087 53.2776C157.999 56.4228 161.097 60.2755 163.373 64.8169C165.682 69.4223 166.814 74.5911 166.814 80.2799C166.814 84.4759 166.166 88.6149 164.876 92.6903L164.873 92.6977L164.871 92.7051C163.736 96.1945 162.266 99.595 160.463 102.906C165.207 108.868 167.583 115.817 167.583 123.673C167.583 129.226 166.618 134.529 164.682 139.57L164.68 139.577L164.677 139.584C162.739 144.523 159.981 148.794 156.398 152.372C152.923 155.942 148.755 158.743 143.92 160.78C139.132 162.841 133.839 163.853 128.069 163.853H0.461229V130.107H133.142V121.073H0V86.7132H133.142V77.0666H0V43.3199ZM143.136 158.94C147.749 156.998 151.695 154.34 154.974 150.967C158.357 147.593 160.97 143.555 162.815 138.853C164.66 134.049 165.583 128.989 165.583 123.673C165.583 115.802 163.072 108.953 158.049 103.127C160.099 99.5488 161.739 95.8688 162.969 92.0866C164.199 88.2021 164.814 84.2666 164.814 80.2799C164.814 74.8621 163.738 70.0066 161.585 65.7132C159.433 61.4199 156.512 57.791 152.822 54.8266C149.132 51.7599 144.879 49.4088 140.061 47.7732C135.244 46.1377 130.222 45.3199 124.995 45.3199H2V75.0666H135.142V88.7132H2V119.073H135.142V132.107H2.46123V161.853H128.069C133.604 161.853 138.626 160.882 143.136 158.94ZM177.576 164.313V129.187H185.57V81.6599C185.57 76.2732 186.653 71.2736 188.84 66.6915L188.845 66.6825L188.849 66.6737C191.108 62.0604 194.077 58.0722 197.756 54.7269C201.436 51.3803 205.704 48.7976 210.542 46.975C215.388 45.1489 220.497 44.2399 225.852 44.2399H311.026C316.373 44.2399 321.473 45.1458 326.312 46.9657C331.243 48.6794 335.607 51.2012 339.387 54.5345C343.273 57.7698 346.357 61.656 348.627 66.1794C351.035 70.7707 352.231 75.7892 352.231 81.1999V129.187H364.376V164.313H177.576ZM346.848 67.0932C344.696 62.7999 341.775 59.1199 338.085 56.0532C334.498 52.8843 330.347 50.4821 325.632 48.8466C321.019 47.1088 316.151 46.2399 311.026 46.2399H225.852C220.728 46.2399 215.859 47.1088 211.247 48.8466C206.635 50.5843 202.586 53.0377 199.101 56.2066C195.616 59.3755 192.798 63.1577 190.645 67.5532C188.595 71.8466 187.57 76.5488 187.57 81.6599V131.187H179.576V162.313H362.376V131.187H350.231V81.1999C350.231 76.0888 349.103 71.3866 346.848 67.0932ZM374.369 43.3199H506.282C512.038 43.3199 517.544 44.2764 522.79 46.1959C528.02 48.008 532.685 50.6253 536.768 54.052C540.874 57.3955 544.122 61.4451 546.501 66.186C548.909 70.8837 550.101 76.0538 550.101 81.6599C550.101 87.1434 549.021 92.2837 546.846 97.056C544.69 101.785 541.723 105.931 537.95 109.48C534.285 113.026 529.984 115.862 525.066 117.995L525.056 117.999L525.047 118.003C520.188 120.049 515.106 121.073 509.818 121.073H409.887V164.313H374.369V43.3199ZM536.57 108.033C540.157 104.66 542.976 100.724 545.026 96.2266C547.076 91.7288 548.101 86.8732 548.101 81.6599C548.101 76.3443 546.973 71.4888 544.718 67.0932C542.463 62.5954 539.388 58.7621 535.494 55.5932C531.599 52.3221 527.14 49.8177 522.118 48.0799C517.096 46.2399 511.817 45.3199 506.282 45.3199H376.369V162.313H407.887V119.073H509.818C514.841 119.073 519.658 118.102 524.27 116.16C528.985 114.115 533.085 111.407 536.57 108.033ZM604.332 73.2266L609.098 63.7199C609.508 63.2088 609.867 62.6977 610.174 62.1866C610.482 61.5732 610.789 61.011 611.097 60.4999C614.889 54.6732 618.579 50.4821 622.166 47.9266C625.754 45.2688 629.495 43.531 633.39 42.7132C639.539 41.691 645.023 42.5599 649.84 45.3199C654.657 47.9777 659.423 53.0377 664.138 60.4999C664.548 61.2155 664.958 61.8799 665.368 62.4932C665.778 63.1066 666.188 63.771 666.598 64.4866L671.518 73.8399L720.562 162.313H685.97L668.597 130.113H606.946L589.727 162.313H554.827L604.332 73.2266ZM608.144 132.113L590.925 164.313H551.427L602.563 72.292L607.405 62.6339L607.538 62.4685C607.88 62.0423 608.174 61.6252 608.423 61.2177C608.738 60.5926 609.058 60.009 609.383 59.4689L609.401 59.4386L609.421 59.4089C613.275 53.4871 617.121 49.0691 620.991 46.308C624.777 43.506 628.775 41.6386 632.979 40.7559L633.02 40.7472L633.062 40.7403C639.601 39.6533 645.557 40.5654 650.82 43.5762C656.054 46.4686 661.036 51.8454 665.829 59.4316L665.852 59.4681L665.874 59.5056C666.263 60.1858 666.649 60.8108 667.031 61.3818C667.469 62.0375 667.903 62.7414 668.333 63.4923L668.351 63.5236L673.267 72.8702L673.288 72.9088L723.957 164.313H684.776L667.403 132.113H608.144ZM725.474 42.8599H854.774C860.478 42.8599 865.459 43.2207 869.699 43.9589C873.951 44.597 877.695 45.7218 880.893 47.37C884.177 49.0092 886.949 51.1555 889.181 53.8166C891.46 56.3133 893.494 59.3165 895.294 62.8021L895.308 62.8287L895.321 62.8557C901.126 74.9714 901.008 87.2664 895.007 99.5574L895.002 99.5668L894.382 100.803C894.133 101.3 893.833 101.782 893.489 102.249L893.156 102.802L893.353 103.116L893.367 103.138L894.765 105.307L894.791 105.352C895.216 106.094 895.593 106.791 895.92 107.444C896.169 107.941 896.52 108.516 896.988 109.169L897.066 109.278L897.129 109.397C900.135 115.07 901.663 120.903 901.667 126.873C901.772 132.813 900.469 138.354 897.749 143.46C895.12 148.588 891.144 152.963 885.892 156.598C880.575 160.277 874.126 162.668 866.61 163.83L866.6 163.831C864.449 164.153 862.249 164.313 860.001 164.313H725.474V42.8599ZM895.977 142.533C898.539 137.729 899.769 132.515 899.667 126.893C899.667 121.271 898.232 115.751 895.362 110.333C894.85 109.618 894.439 108.953 894.132 108.34C893.824 107.727 893.466 107.062 893.056 106.347L891.672 104.2L890.903 102.973L891.365 101.9L891.826 101.133C892.133 100.724 892.39 100.315 892.595 99.9066L893.21 98.6799C898.949 86.9243 899.052 75.271 893.517 63.7199C891.775 60.3466 889.827 57.4843 887.675 55.1332C885.625 52.6799 883.063 50.6866 879.988 49.1532C877.015 47.6199 873.479 46.5466 869.379 45.9332C865.28 45.2177 860.411 44.8599 854.774 44.8599H727.474V162.313H860.001C862.153 162.313 864.255 162.16 866.305 161.853C873.582 160.729 879.731 158.429 884.754 154.953C889.776 151.478 893.517 147.338 895.977 142.533ZM911.492 74.7196L911.497 74.6938C912.238 70.7849 913.305 67.2575 914.712 64.1266L914.724 64.1007L914.736 64.0752C916.254 60.9403 918.16 58.1637 920.458 55.7589C922.732 53.278 925.421 51.0312 928.511 49.0123L928.534 48.9968L928.559 48.982C929.945 48.1312 931.338 47.3819 932.737 46.7363C934.27 45.9742 935.859 45.3725 937.502 44.9322C939.501 44.3051 941.38 43.8726 943.134 43.6495C944.923 43.3208 947.432 43.1163 950.601 43.0143M950.603 43.0143L955.247 42.8599H1084.27V76.2999H945.134V131.027H1084.27V164.313H951.744C945.864 164.313 940.813 163.634 936.646 162.213C932.471 160.788 928.46 158.396 924.612 155.09L924.606 155.085L924.6 155.08C919.561 150.683 915.877 146.294 913.672 141.896L913.659 141.87L913.646 141.843C911.572 137.377 910.539 132.59 910.539 127.507V87.7932C910.539 83.0066 910.852 78.6546 911.488 74.7456L911.492 74.7196M943.134 133.027V74.2999H1082.27V44.8599H955.28L950.667 45.0132C947.49 45.1154 945.082 45.3199 943.442 45.6266C941.802 45.831 940.008 46.2399 938.06 46.8532C936.523 47.2621 935.037 47.8243 933.602 48.5399C932.269 49.1532 930.937 49.8688 929.605 50.6866C926.632 52.6288 924.07 54.7754 921.918 57.1266C919.765 59.3754 917.971 61.9821 916.536 64.9466C915.204 67.911 914.179 71.2843 913.462 75.0666C912.847 78.8488 912.539 83.091 912.539 87.7932V127.507C912.539 132.311 913.513 136.809 915.46 141C917.51 145.089 920.995 149.28 925.915 153.573C929.605 156.742 933.397 158.991 937.292 160.32C941.187 161.649 946.004 162.313 951.744 162.313H1082.27V133.027H943.134ZM1086.61 42.8599H1257.88V76.2999H1189.62V164.313H1155.02V76.2999H1086.61V42.8599ZM1157.02 74.2999V162.313H1187.62V74.2999H1255.88V44.8599H1088.61V74.2999H1157.02ZM1260.9 42.8599H1390.2C1395.91 42.8599 1400.89 43.2207 1405.13 43.9589C1409.38 44.597 1413.12 45.7218 1416.32 47.37C1419.61 49.009 1422.38 51.155 1424.61 53.8157C1426.89 56.3126 1428.92 59.3161 1430.72 62.8021L1430.74 62.8287L1430.75 62.8557C1436.56 74.9714 1436.44 87.2664 1430.44 99.5574L1430.43 99.5668L1430.43 99.5762L1429.81 100.803C1429.56 101.3 1429.26 101.782 1428.92 102.248L1428.59 102.802L1428.78 103.116L1428.8 103.138L1430.19 105.307L1430.22 105.352C1430.65 106.094 1431.02 106.791 1431.35 107.444C1431.6 107.942 1431.95 108.516 1432.42 109.169L1432.5 109.278L1432.56 109.397C1435.56 115.069 1437.09 120.901 1437.1 126.87C1437.2 132.811 1435.9 138.353 1433.18 143.46C1430.55 148.588 1426.57 152.963 1421.32 156.598C1416 160.277 1409.56 162.668 1402.04 163.83L1402.03 163.831C1399.88 164.153 1397.68 164.313 1395.43 164.313H1260.9V42.8599ZM1431.41 142.533C1433.97 137.729 1435.2 132.515 1435.1 126.893C1435.1 121.271 1433.66 115.751 1430.79 110.333C1430.28 109.618 1429.87 108.953 1429.56 108.34C1429.25 107.727 1428.9 107.062 1428.49 106.347L1427.1 104.2L1426.33 102.973L1426.79 101.9L1427.26 101.133C1427.56 100.724 1427.82 100.315 1428.02 99.9066L1428.64 98.6799C1434.38 86.9243 1434.48 75.271 1428.95 63.7199C1427.2 60.3466 1425.26 57.4843 1423.1 55.1332C1421.05 52.6799 1418.49 50.6866 1415.42 49.1532C1412.45 47.6199 1408.91 46.5466 1404.81 45.9332C1400.71 45.2177 1395.84 44.8599 1390.2 44.8599H1262.9V162.313H1395.43C1397.58 162.313 1399.68 162.16 1401.73 161.853C1409.01 160.729 1415.16 158.429 1420.18 154.953C1425.21 151.478 1428.95 147.338 1431.41 142.533ZM1446.74 131.027H1587.41V119.387H1484.87C1479.42 119.387 1474.48 118.48 1470.1 116.621L1470.07 116.609L1470.04 116.597C1465.74 114.617 1461.59 111.366 1457.57 106.943C1453.68 102.847 1450.86 98.8187 1449.2 94.8509C1447.54 90.8921 1446.74 86.4844 1446.74 81.6599V42.8599H1481.33V86.0999H1587.41V42.8599H1622.16V127.047C1622.16 132.442 1621.02 137.405 1618.72 141.899C1616.5 146.429 1612.64 150.879 1607.29 155.272L1607.28 155.279C1604.42 157.603 1601.62 159.435 1598.89 160.744L1598.87 160.751L1598.85 160.759C1596.23 161.959 1593.16 162.919 1589.67 163.657L1589.64 163.664L1589.6 163.67C1587.08 164.108 1583.66 164.313 1579.42 164.313H1446.74V131.027ZM1589.41 88.0999H1479.33V44.8599H1448.74V81.6599C1448.74 86.2599 1449.51 90.3999 1451.04 94.0799C1452.58 97.7599 1455.25 101.593 1459.04 105.58C1462.93 109.873 1466.88 112.94 1470.88 114.78C1474.98 116.518 1479.64 117.387 1484.87 117.387H1589.41V133.027H1448.74V162.313H1579.42C1583.62 162.313 1586.9 162.109 1589.26 161.7C1592.64 160.984 1595.56 160.064 1598.02 158.94C1600.58 157.713 1603.25 155.975 1606.02 153.727C1611.24 149.433 1614.88 145.191 1616.93 141C1619.09 136.809 1620.16 132.158 1620.16 127.047V44.8599H1589.41V88.0999ZM1636.26 143.913C1634.93 139.824 1634.26 135.582 1634.26 131.187V45.6266H1664.09V132.873L1744.19 54.3666C1751.98 46.8021 1760.13 43.0199 1768.64 43.0199C1772.43 43.0199 1776.07 43.5821 1779.55 44.7066C1783.04 45.7288 1786.16 47.4154 1788.93 49.7666C1791.7 52.0154 1793.9 54.9288 1795.54 58.5066C1797.18 61.9821 1798 66.1732 1798 71.0799V162.313H1768.33V74.7599L1688.23 152.653C1684.54 156.64 1680.59 159.553 1676.39 161.393C1672.29 163.131 1667.98 164 1663.47 164C1658.86 164 1654.71 163.131 1651.02 161.393C1647.43 159.655 1644.41 157.304 1641.95 154.34C1639.49 151.375 1637.59 147.9 1636.26 143.913ZM1689.66 154.051C1685.83 158.183 1681.67 161.263 1677.19 163.225L1677.18 163.23L1677.17 163.235C1672.82 165.078 1668.25 166 1663.47 166C1658.61 166 1654.16 165.081 1650.17 163.203L1650.16 163.198L1650.15 163.193C1646.31 161.335 1643.06 158.809 1640.41 155.617C1637.78 152.446 1635.77 148.747 1634.37 144.547L1634.36 144.54L1634.36 144.533C1632.96 140.239 1632.26 135.788 1632.26 131.187V43.6266H1666.09V128.113L1742.8 52.9317C1750.85 45.1094 1759.47 41.0199 1768.64 41.0199C1772.62 41.0199 1776.46 41.6096 1780.14 42.7948C1783.88 43.8945 1787.24 45.7082 1790.21 48.2275C1793.23 50.6863 1795.6 53.8487 1797.36 57.667C1799.15 61.4697 1800 65.9633 1800 71.0799V164.313H1766.33V79.4945L1689.66 154.051ZM1704.25 0.939158L1704.73 2.36591C1704.85 2.71142 1704.96 3.09442 1705.06 3.51037L1705.39 4.48637L1705.41 4.61804C1705.81 6.67628 1706.29 8.38586 1706.84 9.76872L1706.85 9.78668L1706.86 9.80477C1708.55 14.2763 1710.36 16.8628 1712.09 18.0486C1713.91 19.2227 1715.95 19.5355 1718.41 18.8674C1719.63 18.482 1720.8 17.7019 1721.92 16.408L1721.95 16.3802L1721.97 16.3533C1723.15 15.0978 1724.37 12.9764 1725.56 9.80932C1725.84 9.06023 1726.07 8.31506 1726.26 7.57359L1726.28 7.49893L1726.3 7.42593C1726.6 6.55197 1726.89 5.57198 1727.19 4.48393C1727.37 3.75001 1727.43 3.27308 1727.43 2.99989V0.915771L1750.62 1.87167L1749.96 4.2941C1749.65 5.43337 1749.34 6.52296 1749.03 7.56267C1748.69 8.67306 1748.25 9.77328 1747.71 10.8629C1744.35 19.5332 1739.82 26.1416 1734.02 30.5042C1728.41 34.811 1722.46 37.0466 1716.21 37.0466C1709.88 37.0466 1703.88 34.8758 1698.25 30.6681L1698.24 30.6552L1698.22 30.6419C1692.63 26.2688 1688.1 19.5939 1684.53 10.8053L1683.26 7.64818L1683.24 7.56267C1682.91 6.46416 1682.63 5.31793 1682.42 4.12526L1682 1.86373L1704.25 0.939158ZM1732.81 28.9132C1738.25 24.8243 1742.6 18.5377 1745.88 10.0532C1746.39 9.03101 1746.8 8.00878 1747.11 6.98656C1747.23 6.58087 1747.35 6.16713 1747.48 5.74533C1747.66 5.10433 1747.85 4.44474 1748.03 3.76656L1729.43 2.99989C1729.43 3.00039 1729.43 3.00089 1729.43 3.00138C1729.43 3.11245 1729.43 3.23075 1729.42 3.35628C1729.38 3.8082 1729.28 4.35385 1729.12 4.99323C1728.82 6.11767 1728.51 7.13989 1728.2 8.05989C1728 8.87767 1727.74 9.69545 1727.43 10.5132C1726.2 13.7843 1724.87 16.1866 1723.43 17.7199C1722.1 19.2532 1720.62 20.2754 1718.98 20.7866C1716 21.6043 1713.34 21.2466 1710.98 19.7132C1708.73 18.1799 1706.73 15.1132 1704.99 10.5132C1704.37 8.9799 1703.86 7.1399 1703.45 4.99323L1703.14 4.07322C1703.04 3.66434 1702.94 3.30656 1702.83 2.99989L1684.38 3.76656C1684.51 4.44657 1684.65 5.10788 1684.81 5.7505C1684.92 6.1705 1685.03 6.58253 1685.15 6.98656L1686.38 10.0532C1689.87 18.6399 1694.22 24.9777 1699.45 29.0666C1704.78 33.0532 1710.37 35.0466 1716.21 35.0466C1721.95 35.0466 1727.48 33.0021 1732.81 28.9132ZM217.398 129.187H319.019V78.1399H217.398V129.187ZM514.891 77.0666H409.887V87.9399H514.891V77.0666ZM623.55 100.213H651.839L637.848 74.7599L623.55 100.213ZM626.967 98.2132H648.457L637.829 78.8774L626.967 98.2132ZM758.069 118.307H867.227V133.027H758.069V118.307ZM760.069 131.027H865.227V120.307H760.069V131.027ZM758.069 74.2999H865.843V87.9466H758.069V74.2999ZM760.069 85.9466H863.843V76.2999H760.069V85.9466ZM1293.5 118.307H1402.66V133.027H1293.5V118.307ZM1295.5 131.027H1400.66V120.307H1295.5V131.027ZM1293.5 74.2999H1401.27V87.9466H1293.5V74.2999ZM1295.5 85.9466H1399.27V76.2999H1295.5V85.9466ZM321.019 131.187V76.1399H215.398V131.187H321.019ZM516.891 75.0666V89.9399H407.887V75.0666H516.891Z" fill="url(#paint1_linear_1_412)" fill-opacity="0.2"/>
<path fill-rule="evenodd" clip-rule="evenodd" d="M0 43.3199H124.995C130.434 43.3199 135.674 44.1716 140.704 45.8794C145.734 47.5869 150.201 50.0505 154.087 53.2776C157.999 56.4228 161.097 60.2755 163.373 64.8169C165.682 69.4223 166.814 74.5911 166.814 80.2799C166.814 84.4759 166.166 88.6149 164.876 92.6903L164.873 92.6977L164.871 92.7051C163.736 96.1945 162.266 99.595 160.463 102.906C165.207 108.868 167.583 115.817 167.583 123.673C167.583 129.226 166.618 134.529 164.682 139.57L164.68 139.577L164.677 139.584C162.739 144.523 159.981 148.794 156.398 152.372C152.923 155.942 148.755 158.743 143.92 160.78C139.132 162.841 133.839 163.853 128.069 163.853H0.461229V130.107H133.142V121.073H0V86.7132H133.142V77.0666H0V43.3199ZM143.136 158.94C147.749 156.998 151.695 154.34 154.974 150.967C158.357 147.593 160.97 143.555 162.815 138.853C164.66 134.049 165.583 128.989 165.583 123.673C165.583 115.802 163.072 108.953 158.049 103.127C160.099 99.5488 161.739 95.8688 162.969 92.0866C164.199 88.2021 164.814 84.2666 164.814 80.2799C164.814 74.8621 163.738 70.0066 161.585 65.7132C159.433 61.4199 156.512 57.791 152.822 54.8266C149.132 51.7599 144.879 49.4088 140.061 47.7732C135.244 46.1377 130.222 45.3199 124.995 45.3199H2V75.0666H135.142V88.7132H2V119.073H135.142V132.107H2.46123V161.853H128.069C133.604 161.853 138.626 160.882 143.136 158.94ZM177.576 164.313V129.187H185.57V81.6599C185.57 76.2732 186.653 71.2736 188.84 66.6915L188.845 66.6825L188.849 66.6737C191.108 62.0604 194.077 58.0722 197.756 54.7269C201.436 51.3803 205.704 48.7976 210.542 46.975C215.388 45.1489 220.497 44.2399 225.852 44.2399H311.026C316.373 44.2399 321.473 45.1458 326.312 46.9657C331.243 48.6794 335.607 51.2012 339.387 54.5345C343.273 57.7698 346.357 61.656 348.627 66.1794C351.035 70.7707 352.231 75.7892 352.231 81.1999V129.187H364.376V164.313H177.576ZM346.848 67.0932C344.696 62.7999 341.775 59.1199 338.085 56.0532C334.498 52.8843 330.347 50.4821 325.632 48.8466C321.019 47.1088 316.151 46.2399 311.026 46.2399H225.852C220.728 46.2399 215.859 47.1088 211.247 48.8466C206.635 50.5843 202.586 53.0377 199.101 56.2066C195.616 59.3755 192.798 63.1577 190.645 67.5532C188.595 71.8466 187.57 76.5488 187.57 81.6599V131.187H179.576V162.313H362.376V131.187H350.231V81.1999C350.231 76.0888 349.103 71.3866 346.848 67.0932ZM374.369 43.3199H506.282C512.038 43.3199 517.544 44.2764 522.79 46.1959C528.02 48.008 532.685 50.6253 536.768 54.052C540.874 57.3955 544.122 61.4451 546.501 66.186C548.909 70.8837 550.101 76.0538 550.101 81.6599C550.101 87.1434 549.021 92.2837 546.846 97.056C544.69 101.785 541.723 105.931 537.95 109.48C534.285 113.026 529.984 115.862 525.066 117.995L525.056 117.999L525.047 118.003C520.188 120.049 515.106 121.073 509.818 121.073H409.887V164.313H374.369V43.3199ZM536.57 108.033C540.157 104.66 542.976 100.724 545.026 96.2266C547.076 91.7288 548.101 86.8732 548.101 81.6599C548.101 76.3443 546.973 71.4888 544.718 67.0932C542.463 62.5954 539.388 58.7621 535.494 55.5932C531.599 52.3221 527.14 49.8177 522.118 48.0799C517.096 46.2399 511.817 45.3199 506.282 45.3199H376.369V162.313H407.887V119.073H509.818C514.841 119.073 519.658 118.102 524.27 116.16C528.985 114.115 533.085 111.407 536.57 108.033ZM604.332 73.2266L609.098 63.7199C609.508 63.2088 609.867 62.6977 610.174 62.1866C610.482 61.5732 610.789 61.011 611.097 60.4999C614.889 54.6732 618.579 50.4821 622.166 47.9266C625.754 45.2688 629.495 43.531 633.39 42.7132C639.539 41.691 645.023 42.5599 649.84 45.3199C654.657 47.9777 659.423 53.0377 664.138 60.4999C664.548 61.2155 664.958 61.8799 665.368 62.4932C665.778 63.1066 666.188 63.771 666.598 64.4866L671.518 73.8399L720.562 162.313H685.97L668.597 130.113H606.946L589.727 162.313H554.827L604.332 73.2266ZM608.144 132.113L590.925 164.313H551.427L602.563 72.292L607.405 62.6339L607.538 62.4685C607.88 62.0423 608.174 61.6252 608.423 61.2177C608.738 60.5926 609.058 60.009 609.383 59.4689L609.401 59.4386L609.421 59.4089C613.275 53.4871 617.121 49.0691 620.991 46.308C624.777 43.506 628.775 41.6386 632.979 40.7559L633.02 40.7472L633.062 40.7403C639.601 39.6533 645.557 40.5654 650.82 43.5762C656.054 46.4686 661.036 51.8454 665.829 59.4316L665.852 59.4681L665.874 59.5056C666.263 60.1858 666.649 60.8108 667.031 61.3818C667.469 62.0375 667.903 62.7414 668.333 63.4923L668.351 63.5236L673.267 72.8702L673.288 72.9088L723.957 164.313H684.776L667.403 132.113H608.144ZM725.474 42.8599H854.774C860.478 42.8599 865.459 43.2207 869.699 43.9589C873.951 44.597 877.695 45.7218 880.893 47.37C884.177 49.0092 886.949 51.1555 889.181 53.8166C891.46 56.3133 893.494 59.3165 895.294 62.8021L895.308 62.8287L895.321 62.8557C901.126 74.9714 901.008 87.2664 895.007 99.5574L895.002 99.5668L894.382 100.803C894.133 101.3 893.833 101.782 893.489 102.249L893.156 102.802L893.353 103.116L893.367 103.138L894.765 105.307L894.791 105.352C895.216 106.094 895.593 106.791 895.92 107.444C896.169 107.941 896.52 108.516 896.988 109.169L897.066 109.278L897.129 109.397C900.135 115.07 901.663 120.903 901.667 126.873C901.772 132.813 900.469 138.354 897.749 143.46C895.12 148.588 891.144 152.963 885.892 156.598C880.575 160.277 874.126 162.668 866.61 163.83L866.6 163.831C864.449 164.153 862.249 164.313 860.001 164.313H725.474V42.8599ZM895.977 142.533C898.539 137.729 899.769 132.515 899.667 126.893C899.667 121.271 898.232 115.751 895.362 110.333C894.85 109.618 894.439 108.953 894.132 108.34C893.824 107.727 893.466 107.062 893.056 106.347L891.672 104.2L890.903 102.973L891.365 101.9L891.826 101.133C892.133 100.724 892.39 100.315 892.595 99.9066L893.21 98.6799C898.949 86.9243 899.052 75.271 893.517 63.7199C891.775 60.3466 889.827 57.4843 887.675 55.1332C885.625 52.6799 883.063 50.6866 879.988 49.1532C877.015 47.6199 873.479 46.5466 869.379 45.9332C865.28 45.2177 860.411 44.8599 854.774 44.8599H727.474V162.313H860.001C862.153 162.313 864.255 162.16 866.305 161.853C873.582 160.729 879.731 158.429 884.754 154.953C889.776 151.478 893.517 147.338 895.977 142.533ZM911.492 74.7196L911.497 74.6938C912.238 70.7849 913.305 67.2575 914.712 64.1266L914.724 64.1007L914.736 64.0752C916.254 60.9403 918.16 58.1637 920.458 55.7589C922.732 53.278 925.421 51.0312 928.511 49.0123L928.534 48.9968L928.559 48.982C929.945 48.1312 931.338 47.3819 932.737 46.7363C934.27 45.9742 935.859 45.3725 937.502 44.9322C939.501 44.3051 941.38 43.8726 943.134 43.6495C944.923 43.3208 947.432 43.1163 950.601 43.0143M950.603 43.0143L955.247 42.8599H1084.27V76.2999H945.134V131.027H1084.27V164.313H951.744C945.864 164.313 940.813 163.634 936.646 162.213C932.471 160.788 928.46 158.396 924.612 155.09L924.606 155.085L924.6 155.08C919.561 150.683 915.877 146.294 913.672 141.896L913.659 141.87L913.646 141.843C911.572 137.377 910.539 132.59 910.539 127.507V87.7932C910.539 83.0066 910.852 78.6546 911.488 74.7456L911.492 74.7196M943.134 133.027V74.2999H1082.27V44.8599H955.28L950.667 45.0132C947.49 45.1154 945.082 45.3199 943.442 45.6266C941.802 45.831 940.008 46.2399 938.06 46.8532C936.523 47.2621 935.037 47.8243 933.602 48.5399C932.269 49.1532 930.937 49.8688 929.605 50.6866C926.632 52.6288 924.07 54.7754 921.918 57.1266C919.765 59.3754 917.971 61.9821 916.536 64.9466C915.204 67.911 914.179 71.2843 913.462 75.0666C912.847 78.8488 912.539 83.091 912.539 87.7932V127.507C912.539 132.311 913.513 136.809 915.46 141C917.51 145.089 920.995 149.28 925.915 153.573C929.605 156.742 933.397 158.991 937.292 160.32C941.187 161.649 946.004 162.313 951.744 162.313H1082.27V133.027H943.134ZM1086.61 42.8599H1257.88V76.2999H1189.62V164.313H1155.02V76.2999H1086.61V42.8599ZM1157.02 74.2999V162.313H1187.62V74.2999H1255.88V44.8599H1088.61V74.2999H1157.02ZM1260.9 42.8599H1390.2C1395.91 42.8599 1400.89 43.2207 1405.13 43.9589C1409.38 44.597 1413.12 45.7218 1416.32 47.37C1419.61 49.009 1422.38 51.155 1424.61 53.8157C1426.89 56.3126 1428.92 59.3161 1430.72 62.8021L1430.74 62.8287L1430.75 62.8557C1436.56 74.9714 1436.44 87.2664 1430.44 99.5574L1430.43 99.5668L1430.43 99.5762L1429.81 100.803C1429.56 101.3 1429.26 101.782 1428.92 102.248L1428.59 102.802L1428.78 103.116L1428.8 103.138L1430.19 105.307L1430.22 105.352C1430.65 106.094 1431.02 106.791 1431.35 107.444C1431.6 107.942 1431.95 108.516 1432.42 109.169L1432.5 109.278L1432.56 109.397C1435.56 115.069 1437.09 120.901 1437.1 126.87C1437.2 132.811 1435.9 138.353 1433.18 143.46C1430.55 148.588 1426.57 152.963 1421.32 156.598C1416 160.277 1409.56 162.668 1402.04 163.83L1402.03 163.831C1399.88 164.153 1397.68 164.313 1395.43 164.313H1260.9V42.8599ZM1431.41 142.533C1433.97 137.729 1435.2 132.515 1435.1 126.893C1435.1 121.271 1433.66 115.751 1430.79 110.333C1430.28 109.618 1429.87 108.953 1429.56 108.34C1429.25 107.727 1428.9 107.062 1428.49 106.347L1427.1 104.2L1426.33 102.973L1426.79 101.9L1427.26 101.133C1427.56 100.724 1427.82 100.315 1428.02 99.9066L1428.64 98.6799C1434.38 86.9243 1434.48 75.271 1428.95 63.7199C1427.2 60.3466 1425.26 57.4843 1423.1 55.1332C1421.05 52.6799 1418.49 50.6866 1415.42 49.1532C1412.45 47.6199 1408.91 46.5466 1404.81 45.9332C1400.71 45.2177 1395.84 44.8599 1390.2 44.8599H1262.9V162.313H1395.43C1397.58 162.313 1399.68 162.16 1401.73 161.853C1409.01 160.729 1415.16 158.429 1420.18 154.953C1425.21 151.478 1428.95 147.338 1431.41 142.533ZM1446.74 131.027H1587.41V119.387H1484.87C1479.42 119.387 1474.48 118.48 1470.1 116.621L1470.07 116.609L1470.04 116.597C1465.74 114.617 1461.59 111.366 1457.57 106.943C1453.68 102.847 1450.86 98.8187 1449.2 94.8509C1447.54 90.8921 1446.74 86.4844 1446.74 81.6599V42.8599H1481.33V86.0999H1587.41V42.8599H1622.16V127.047C1622.16 132.442 1621.02 137.405 1618.72 141.899C1616.5 146.429 1612.64 150.879 1607.29 155.272L1607.28 155.279C1604.42 157.603 1601.62 159.435 1598.89 160.744L1598.87 160.751L1598.85 160.759C1596.23 161.959 1593.16 162.919 1589.67 163.657L1589.64 163.664L1589.6 163.67C1587.08 164.108 1583.66 164.313 1579.42 164.313H1446.74V131.027ZM1589.41 88.0999H1479.33V44.8599H1448.74V81.6599C1448.74 86.2599 1449.51 90.3999 1451.04 94.0799C1452.58 97.7599 1455.25 101.593 1459.04 105.58C1462.93 109.873 1466.88 112.94 1470.88 114.78C1474.98 116.518 1479.64 117.387 1484.87 117.387H1589.41V133.027H1448.74V162.313H1579.42C1583.62 162.313 1586.9 162.109 1589.26 161.7C1592.64 160.984 1595.56 160.064 1598.02 158.94C1600.58 157.713 1603.25 155.975 1606.02 153.727C1611.24 149.433 1614.88 145.191 1616.93 141C1619.09 136.809 1620.16 132.158 1620.16 127.047V44.8599H1589.41V88.0999ZM1636.26 143.913C1634.93 139.824 1634.26 135.582 1634.26 131.187V45.6266H1664.09V132.873L1744.19 54.3666C1751.98 46.8021 1760.13 43.0199 1768.64 43.0199C1772.43 43.0199 1776.07 43.5821 1779.55 44.7066C1783.04 45.7288 1786.16 47.4154 1788.93 49.7666C1791.7 52.0154 1793.9 54.9288 1795.54 58.5066C1797.18 61.9821 1798 66.1732 1798 71.0799V162.313H1768.33V74.7599L1688.23 152.653C1684.54 156.64 1680.59 159.553 1676.39 161.393C1672.29 163.131 1667.98 164 1663.47 164C1658.86 164 1654.71 163.131 1651.02 161.393C1647.43 159.655 1644.41 157.304 1641.95 154.34C1639.49 151.375 1637.59 147.9 1636.26 143.913ZM1689.66 154.051C1685.83 158.183 1681.67 161.263 1677.19 163.225L1677.18 163.23L1677.17 163.235C1672.82 165.078 1668.25 166 1663.47 166C1658.61 166 1654.16 165.081 1650.17 163.203L1650.16 163.198L1650.15 163.193C1646.31 161.335 1643.06 158.809 1640.41 155.617C1637.78 152.446 1635.77 148.747 1634.37 144.547L1634.36 144.54L1634.36 144.533C1632.96 140.239 1632.26 135.788 1632.26 131.187V43.6266H1666.09V128.113L1742.8 52.9317C1750.85 45.1094 1759.47 41.0199 1768.64 41.0199C1772.62 41.0199 1776.46 41.6096 1780.14 42.7948C1783.88 43.8945 1787.24 45.7082 1790.21 48.2275C1793.23 50.6863 1795.6 53.8487 1797.36 57.667C1799.15 61.4697 1800 65.9633 1800 71.0799V164.313H1766.33V79.4945L1689.66 154.051ZM1704.25 0.939158L1704.73 2.36591C1704.85 2.71142 1704.96 3.09442 1705.06 3.51037L1705.39 4.48637L1705.41 4.61804C1705.81 6.67628 1706.29 8.38586 1706.84 9.76872L1706.85 9.78668L1706.86 9.80477C1708.55 14.2763 1710.36 16.8628 1712.09 18.0486C1713.91 19.2227 1715.95 19.5355 1718.41 18.8674C1719.63 18.482 1720.8 17.7019 1721.92 16.408L1721.95 16.3802L1721.97 16.3533C1723.15 15.0978 1724.37 12.9764 1725.56 9.80932C1725.84 9.06023 1726.07 8.31506 1726.26 7.57359L1726.28 7.49893L1726.3 7.42593C1726.6 6.55197 1726.89 5.57198 1727.19 4.48393C1727.37 3.75001 1727.43 3.27308 1727.43 2.99989V0.915771L1750.62 1.87167L1749.96 4.2941C1749.65 5.43337 1749.34 6.52296 1749.03 7.56267C1748.69 8.67306 1748.25 9.77328 1747.71 10.8629C1744.35 19.5332 1739.82 26.1416 1734.02 30.5042C1728.41 34.811 1722.46 37.0466 1716.21 37.0466C1709.88 37.0466 1703.88 34.8758 1698.25 30.6681L1698.24 30.6552L1698.22 30.6419C1692.63 26.2688 1688.1 19.5939 1684.53 10.8053L1683.26 7.64818L1683.24 7.56267C1682.91 6.46416 1682.63 5.31793 1682.42 4.12526L1682 1.86373L1704.25 0.939158ZM1732.81 28.9132C1738.25 24.8243 1742.6 18.5377 1745.88 10.0532C1746.39 9.03101 1746.8 8.00878 1747.11 6.98656C1747.23 6.58087 1747.35 6.16713 1747.48 5.74533C1747.66 5.10433 1747.85 4.44474 1748.03 3.76656L1729.43 2.99989C1729.43 3.00039 1729.43 3.00089 1729.43 3.00138C1729.43 3.11245 1729.43 3.23075 1729.42 3.35628C1729.38 3.8082 1729.28 4.35385 1729.12 4.99323C1728.82 6.11767 1728.51 7.13989 1728.2 8.05989C1728 8.87767 1727.74 9.69545 1727.43 10.5132C1726.2 13.7843 1724.87 16.1866 1723.43 17.7199C1722.1 19.2532 1720.62 20.2754 1718.98 20.7866C1716 21.6043 1713.34 21.2466 1710.98 19.7132C1708.73 18.1799 1706.73 15.1132 1704.99 10.5132C1704.37 8.9799 1703.86 7.1399 1703.45 4.99323L1703.14 4.07322C1703.04 3.66434 1702.94 3.30656 1702.83 2.99989L1684.38 3.76656C1684.51 4.44657 1684.65 5.10788 1684.81 5.7505C1684.92 6.1705 1685.03 6.58253 1685.15 6.98656L1686.38 10.0532C1689.87 18.6399 1694.22 24.9777 1699.45 29.0666C1704.78 33.0532 1710.37 35.0466 1716.21 35.0466C1721.95 35.0466 1727.48 33.0021 1732.81 28.9132ZM217.398 129.187H319.019V78.1399H217.398V129.187ZM514.891 77.0666H409.887V87.9399H514.891V77.0666ZM623.55 100.213H651.839L637.848 74.7599L623.55 100.213ZM626.967 98.2132H648.457L637.829 78.8774L626.967 98.2132ZM758.069 118.307H867.227V133.027H758.069V118.307ZM760.069 131.027H865.227V120.307H760.069V131.027ZM758.069 74.2999H865.843V87.9466H758.069V74.2999ZM760.069 85.9466H863.843V76.2999H760.069V85.9466ZM1293.5 118.307H1402.66V133.027H1293.5V118.307ZM1295.5 131.027H1400.66V120.307H1295.5V131.027ZM1293.5 74.2999H1401.27V87.9466H1293.5V74.2999ZM1295.5 85.9466H1399.27V76.2999H1295.5V85.9466ZM321.019 131.187V76.1399H215.398V131.187H321.019ZM516.891 75.0666V89.9399H407.887V75.0666H516.891Z" fill="url(#paint2_radial_1_412)" fill-opacity="0.4"/>
</g>
<defs>
<filter id="filter0_b_1_412" x="-5" y="-4.08423" width="1810" height="175.084" filterUnits="userSpaceOnUse" color-interpolation-filters="sRGB">
<feFlood flood-opacity="0" result="BackgroundImageFix"/>
<feGaussianBlur in="BackgroundImageFix" stdDeviation="2.5"/>
<feComposite in2="SourceAlpha" operator="in" result="effect1_backgroundBlur_1_412"/>
<feBlend mode="normal" in="SourceGraphic" in2="effect1_backgroundBlur_1_412" result="shape"/>
</filter>
<linearGradient id="paint0_linear_1_412" x1="900" y1="0.915771" x2="900" y2="166" gradientUnits="userSpaceOnUse">
<stop stop-color="#018197"/>
<stop offset="1" stop-color="#22CF48"/>
</linearGradient>
<linearGradient id="paint1_linear_1_412" x1="810" y1="102.303" x2="824.181" y2="-33.9828" gradientUnits="userSpaceOnUse">
<stop stop-color="#0265A5"/>
<stop offset="1" stop-color="#00FF66"/>
</linearGradient>
<radialGradient id="paint2_radial_1_412" cx="0" cy="0" r="1" gradientUnits="userSpaceOnUse" gradientTransform="translate(1689.38 161.376) rotate(-16.8957) scale(247.397 248.574)">
<stop stop-color="#44D1F0"/>
<stop offset="1" stop-color="#4B84DA" stop-opacity="0.34"/>
</radialGradient>
</defs>
</svg>
