						<svg class="header__logo-svg logo__svg" width="84" height="24" viewBox="0 0 84 24" fill="none"
							xmlns="http://www.w3.org/2000/svg">
							<path fill-rule="evenodd" clip-rule="evenodd"
								d="M46.5935 16.3527C46.6337 14.8877 46.2223 13.5932 45.3593 12.4694C44.9178 11.8673 44.4161 11.3756 43.8541 10.9943C44.0949 10.7133 44.2655 10.5026 44.3659 10.3621C45.2489 9.27841 45.6603 8.09435 45.6001 6.80994C45.5399 5.44526 45.1084 4.27123 44.3057 3.28785C43.5631 2.30448 42.5597 1.63217 41.2953 1.27093C40.8137 1.09031 40.041 1 38.9774 1H31V22.6744H39.4289C40.332 22.6744 41.185 22.5741 41.9877 22.3734C43.3323 21.9519 44.4261 21.2194 45.269 20.1758C46.1119 19.052 46.5534 17.7776 46.5935 16.3527ZM34.191 3.95013H39.4891C40.3521 3.95013 41.0545 4.27123 41.5964 4.91343C42.078 5.43522 42.3389 6.06739 42.3791 6.80994C42.3791 7.51235 42.1683 8.12445 41.7469 8.64625C41.5061 9.00749 41.1649 9.29848 40.7234 9.51924C40.2819 9.74 39.8704 9.85038 39.4891 9.85038H34.191V3.95013ZM42.5898 14.0347C43.1718 14.697 43.4427 15.4697 43.4026 16.3527C43.3624 17.2959 43.0313 18.0686 42.4092 18.6707C41.7469 19.353 40.7434 19.6942 39.3988 19.6942H34.191V12.8005H40.0009C41.0445 12.8005 41.9074 13.2119 42.5898 14.0347ZM64.1796 12.4694C65.0426 13.5932 65.454 14.8877 65.4138 16.3527C65.3737 17.7776 64.9322 19.052 64.0893 20.1758C63.2464 21.2194 62.1526 21.9519 60.808 22.3734C60.0053 22.5741 59.1523 22.6744 58.2492 22.6744H49.8203V1H57.7977C58.8613 1 59.634 1.09031 60.1157 1.27093C61.38 1.63217 62.3834 2.30448 63.126 3.28785C63.9287 4.27123 64.3602 5.44526 64.4204 6.80994C64.4806 8.09435 64.0692 9.27841 63.1862 10.3621C63.0858 10.5026 62.9153 10.7133 62.6744 10.9943C63.2364 11.3756 63.7381 11.8673 64.1796 12.4694ZM58.3095 3.95013H53.0113V9.85038H58.3095C58.6908 9.85038 59.1022 9.74 59.5437 9.51924C59.9852 9.29848 60.3264 9.00749 60.5672 8.64625C60.9886 8.12445 61.1994 7.51235 61.1994 6.80994C61.1592 6.06739 60.8983 5.43522 60.4167 4.91343C59.8748 4.27123 59.1724 3.95013 58.3095 3.95013ZM62.2229 16.3527C62.263 15.4697 61.9921 14.697 61.4101 14.0347C60.7277 13.2119 59.8648 12.8005 58.8212 12.8005H53.0113V19.6942H58.2191C59.5638 19.6942 60.5672 19.353 61.2295 18.6707C61.8516 18.0686 62.1827 17.2959 62.2229 16.3527ZM72.3815 19.6942H84.0014V22.6744H68.3477V19.6942L79.9976 3.98023H68.3477V1H84.0014V3.98023L72.3815 19.6942Z"
								fill="url(#paint0_linear_2757_162796)" />
							<path
								d="M8.28999 11.9994C8.28999 14.4101 10.0252 16.3645 12.1654 16.3645C14.3056 16.3645 16.0408 14.4101 16.0408 11.9994C16.0408 10.1736 15.045 8.60936 13.6322 7.95863L24.2076 10.2932C24.289 10.85 24.3308 11.4203 24.3308 11.9994C24.3308 18.6264 18.8841 24 12.1654 24C5.4467 24 0 18.6264 0 11.9994C0 5.37247 5.4467 0 12.1654 0L13.8676 0.1174L26.087 0.961565L25.3409 8.60377L23.8015 8.49085L12.6782 7.6724C12.5098 7.6478 12.3393 7.63438 12.1654 7.63438C10.0252 7.63438 8.28999 9.58882 8.28999 11.9994Z"
								fill="url(#paint1_linear_2757_162796)" />
							<path
								d="M24.2052 10.2927L13.6298 7.95811C13.3283 7.81835 13.0092 7.72107 12.6758 7.67188L23.7992 8.49032C23.9807 9.07285 24.1172 9.67551 24.2052 10.2927Z"
								fill="#8B9FCE" />
							<defs>
								<linearGradient id="paint0_linear_2757_162796" x1="57.3549" y1="0.888849" x2="44.013" y2="31.3733"
									gradientUnits="userSpaceOnUse">
									<stop stop-color="#A1C6FB" />
									<stop offset="1" stop-color="white" />
								</linearGradient>
								<linearGradient id="paint1_linear_2757_162796" x1="13.0435" y1="8.85714" x2="13.0435" y2="17.5714"
									gradientUnits="userSpaceOnUse">
									<stop stop-color="#EEEEEE" />
									<stop offset="0.51" stop-color="#C8DCF5" />
									<stop offset="1" stop-color="#CBD5E2" />
								</linearGradient>
							</defs>
						</svg>