<svg xmlns="http://www.w3.org/2000/svg" width="9.93" height="9.93"><path d="M4.965 0c1.348 0 1.517.006 2.047.03a3.645 3.645 0 011.205.231 2.538 2.538 0 011.452 1.452A3.645 3.645 0 019.9 2.918c.024.53.03.7.03 2.047s-.006 1.517-.03 2.047a3.645 3.645 0 01-.231 1.205 2.538 2.538 0 01-1.452 1.452 3.645 3.645 0 01-1.205.231c-.53.024-.7.03-2.047.03s-1.517-.006-2.047-.03a3.646 3.646 0 01-1.205-.231A2.539 2.539 0 01.261 8.217 3.644 3.644 0 01.03 7.012c-.024-.53-.03-.7-.03-2.047s.006-1.517.03-2.047a3.644 3.644 0 01.231-1.205A2.539 2.539 0 011.713.261 3.646 3.646 0 012.918.03C3.447.006 3.616 0 4.965 0zm2.006.924C6.447.9 6.29.895 4.965.895S3.482.9 2.959.924a2.748 2.748 0 00-.922.171 1.645 1.645 0 00-.942.942 2.747 2.747 0 00-.171.922C.9 3.483.895 3.64.895 4.965s0 1.483.029 2.006a2.747 2.747 0 00.171.922 1.644 1.644 0 00.942.942 2.748 2.748 0 00.922.171c.523.024.68.029 2.006.029s1.483-.005 2.006-.029a2.747 2.747 0 00.922-.171 1.644 1.644 0 00.942-.942 2.747 2.747 0 00.171-.922c.024-.524.029-.681.029-2.006s-.005-1.483-.029-2.006a2.747 2.747 0 00-.171-.922 1.644 1.644 0 00-.942-.942 2.747 2.747 0 00-.922-.171zm-2.006 5.7A1.655 1.655 0 103.31 4.969 1.655 1.655 0 004.965 6.62zm0-4.2a2.549 2.549 0 11-2.549 2.549 2.549 2.549 0 012.549-2.558zm3.246-.1a.6.6 0 11-.6-.6.6.6 0 01.6.591z" fill="#fff" fill-rule="evenodd"/></svg>