<svg xmlns="http://www.w3.org/2000/svg" width="161.67" height="60.217"><g data-name="Group 1108" fill="#fff" fill-rule="evenodd"><path data-name="Path 9215" d="M158.25 41.114a1 1 0 010 1.994h-1.951v-1.994zm-1.951-1.631v-2.16a.432.432 0 00-.439-.441h-1.6a.434.434 0 00-.441.441v6.971a.434.434 0 00.441.441h4.211c1.894 0 3.2-.633 3.2-2.627s-1.305-2.629-3.2-2.629zm-11.006-2.6a.434.434 0 00-.441.441v.852a.434.434 0 00.441.441h2.288v5.677a.434.434 0 00.441.441h1.6a.434.434 0 00.441-.441v-5.68h2.288a.434.434 0 00.441-.441v-.852a.434.434 0 00-.441-.441zm-4.83 1.586a1.756 1.756 0 011.542.675.952.952 0 00.822.528h1.072a.434.434 0 00.441-.441c0-1.673-1.529-2.5-4.053-2.5-2.7 0-4.255 1.381-4.255 4.081s1.542 4.064 4.329 4.064c2.524 0 4.05-.82 4.05-2.493a.432.432 0 00-.439-.441H142.9a.951.951 0 00-.822.528 1.756 1.756 0 01-1.542.675c-1.466 0-1.952-.719-1.952-2.333s.486-2.344 1.879-2.344zm-9.64-1.733c-2.774 0-4.331 1.366-4.331 4.066s1.557 4.079 4.331 4.079 4.328-1.379 4.328-4.079-1.554-4.067-4.328-4.067zm0 6.517c-1.248 0-1.85-.717-1.85-2.451s.6-2.435 1.85-2.435 1.849.7 1.849 2.435-.604 2.45-1.849 2.45zm-10.6 1.484a.754.754 0 00.675-.5l1.836-4.418v4.475a.432.432 0 00.441.441h1.555a.432.432 0 00.439-.441v-6.971a.432.432 0 00-.439-.441h-2.466a.744.744 0 00-.646.53l-1.747 4.271-1.742-4.269a.747.747 0 00-.646-.53h-2.466a.434.434 0 00-.441.441v6.969a.434.434 0 00.441.441h1.555a.434.434 0 00.441-.441v-4.48l1.834 4.418a.758.758 0 00.675.5zm-13.194-2.7v-4.714a.432.432 0 00-.439-.441h-1.5a.434.434 0 00-.441.441v6.971a.434.434 0 00.441.441h2.019a1.06 1.06 0 00.809-.515l2.524-4.623v4.7a.432.432 0 00.439.441h1.5a.434.434 0 00.441-.441v-6.974a.434.434 0 00-.441-.441h-2.01a1.022 1.022 0 00-.809.514zm-8.849 2.7a.434.434 0 00.441-.441v-2.673a1.544 1.544 0 011.408.953l.764 1.484a1.183 1.183 0 001.1.675h1.35c.381 0 .47-.281.249-.675l-1.071-1.967a2.246 2.246 0 00-1.526-1.292 2.18 2.18 0 001.526-1.29l.777-1.953c.163-.395.131-.675-.25-.675h-1.35a1.071 1.071 0 00-1.027.675l-.544 1.468a1.423 1.423 0 01-1.408.969v-2.672a.434.434 0 00-.441-.441h-1.6a.432.432 0 00-.439.441v2.671a1.426 1.426 0 01-1.41-.969l-.544-1.468a1.069 1.069 0 00-1.027-.675h-1.349c-.381 0-.41.281-.249.675l.777 1.953a2.186 2.186 0 001.529 1.29 2.248 2.248 0 00-1.529 1.292l-1.069 1.967c-.221.394-.133.675.249.675h1.351a1.187 1.187 0 001.1-.675l.762-1.484a1.546 1.546 0 011.41-.953v2.672a.432.432 0 00.439.441zm-13.853-2.7v-4.714a.434.434 0 00-.441-.441h-1.5a.432.432 0 00-.439.441v6.971a.432.432 0 00.439.441h2.012a1.054 1.054 0 00.806-.515l2.524-4.623v4.7a.434.434 0 00.441.441h1.5a.432.432 0 00.44-.444v-6.971a.432.432 0 00-.439-.441h-2.01a1.013 1.013 0 00-.806.514zm-9.306-2.085v-1.47h2.1a.734.734 0 110 1.468zm2.377 1.571a.808.808 0 110 1.615h-2.374v-1.617zm.176 3.215c1.88 0 3.128-.544 3.128-2.2a2.032 2.032 0 00-1.245-1.924 1.711 1.711 0 00.88-1.6c0-1.513-1.379-2.13-3.068-2.13h-4.284a.434.434 0 00-.441.441v6.969a.434.434 0 00.441.441zm-12.721-1.736l.837-3.331a1.242 1.242 0 011.319-1.057h1.292v4.387zm5.489 1.733a.432.432 0 00.439-.441v-6.971a.432.432 0 00-.439-.441h-3.256c-1.615 0-3.157.412-3.6 2.172l-.977 3.948h-.557a.434.434 0 00-.441.441v.851a.434.434 0 00.441.441zm-13.165-6.37c1.085 0 1.615.586 1.657 1.686h-3.325a1.546 1.546 0 011.669-1.685zm3.743 3.2a.432.432 0 00.439-.441v-.41c0-2.584-1.571-3.979-4.182-3.979s-4.184 1.44-4.184 4.081 1.571 4.064 4.184 4.064c2.348 0 3.919-.528 3.919-2.054a.432.432 0 00-.441-.439h-1.071a1.011 1.011 0 00-.822.381 1.853 1.853 0 01-1.408.484 1.587 1.587 0 01-1.834-1.686zm-12.092 2.508a.671.671 0 00.675.662h1.334a.688.688 0 00.691-.675v-8.936a.68.68 0 00-.691-.677h-1.334a.675.675 0 00-.675.677v3.242h-4.933v-3.242a.675.675 0 00-.675-.677h-1.334a.68.68 0 00-.691.677v8.936a.688.688 0 00.691.675h1.335a.671.671 0 00.675-.662v-3.682h4.933zm-25.772-4.475c0 3.816 2.1 5.355 5.768 5.355s5.768-1.539 5.768-5.355-2.1-5.356-5.768-5.356-5.768 1.539-5.768 5.356zm5.768-3.42c2.2 0 3.068 1.218 3.068 3.42s-.867 3.42-3.068 3.42-3.068-1.219-3.068-3.42.867-3.42 3.068-3.42zm-11.286.294c.822 0 1.864.294 1.864 1.241s-1.043 1.239-1.864 1.239h-3.053v-2.48zm-1.306 4.505a2.138 2.138 0 011.82 1.174l1.219 1.909a1.479 1.479 0 001.1.675h1.716c.383 0 .486-.294.25-.675l-1.306-2.07c-.586-.925-1.027-1.439-1.629-1.66 1.482-.292 2.7-1.027 2.7-2.618 0-2.034-1.6-3.266-3.743-3.266h-5.914a.661.661 0 00-.659.675v8.938a.683.683 0 00.675.675h1.348a.675.675 0 00.675-.675v-3.082zm-15.57-6.53a.661.661 0 00-.662.675v8.938a.685.685 0 00.675.675h1.35a.673.673 0 00.675-.675v-1.615h3.435c2.73 0 4.329-1.232 4.329-4s-1.6-4-4.329-4zm4.647 2.025c1.408 0 2.451.294 2.451 1.974S6.721 40.42 5.309 40.42H2.7v-3.948z"/><path data-name="Path 9216" d="M78.5 17.717a1.074 1.074 0 00-.3 1.227c.282.466.785.417 1.265.477a2.064 2.064 0 011.128.4 1.73 1.73 0 01.6 1.713 5.621 5.621 0 00-.145.94 6.955 6.955 0 00.915.3c1.085.345 2.182.654 3.279.956.674.187 1.35.383 2.038.512.282.054.834.21.956-.149.554-1.9 1.063-3.8 1.548-5.713.028-.12.056-.24.086-.358a3.7 3.7 0 01.351-.973.835.835 0 01.556-.407c.554-.107.863.316.914.813v.049c-.206 1.211-.541 2.452-.866 3.638s-.663 2.34-1 3.509a1.869 1.869 0 01-.613 1.054 1.74 1.74 0 01-.921.3 5.269 5.269 0 01-1.32-.111c-.728-.137-1.462-.347-2.176-.544a88.583 88.583 0 01-3.341-.977 5.826 5.826 0 01-1.531-.644 1.15 1.15 0 01-.465-.7 2.86 2.86 0 01-.06-.934c.025-.284.092-.544.135-.82 0-.031.018-.127.022-.139a1.718 1.718 0 00-.3-.053c-.308-.038-.621-.073-.925-.133a1.894 1.894 0 01-.809-.325 2.5 2.5 0 01-.782-.854 2.641 2.641 0 01.863-3.48 2.779 2.779 0 011.081-.387 1.894 1.894 0 01.867.086c.3.089.591.2.882.311a2.313 2.313 0 01.255.107.956.956 0 00.082-.162c.114-.259.217-.507.348-.759a2.3 2.3 0 01.367-.563.926.926 0 01.433-.256.636.636 0 01.41.044.6.6 0 01.305.3 1.037 1.037 0 01.069.457 5.333 5.333 0 01-.405 1.272v.012l-.006.012c-.3.584-.544 1.151-1.256 1.286a2.1 2.1 0 01-1.184-.17c-.258-.1-.513-.2-.777-.275a.666.666 0 00-.573.111zm7.072-2.364a1.073 1.073 0 001.226.3c.468-.282.417-.785.478-1.265a2.051 2.051 0 01.4-1.128 1.734 1.734 0 011.714-.6 5.661 5.661 0 00.94.145 7.044 7.044 0 00.3-.915c.347-1.085.654-2.182.958-3.279.186-.674.381-1.351.512-2.038.052-.282.209-.834-.151-.956-1.9-.554-3.8-1.063-5.712-1.549-.12-.028-.24-.055-.36-.086a3.71 3.71 0 01-.971-.351.825.825 0 01-.407-.557c-.108-.553.314-.861.813-.913h.047c1.212.206 2.454.541 3.638.866s2.341.662 3.51 1a1.875 1.875 0 011.054.612 1.726 1.726 0 01.3.921 5.2 5.2 0 01-.111 1.321c-.137.728-.347 1.462-.544 2.176a91.094 91.094 0 01-.976 3.342 5.832 5.832 0 01-.644 1.531 1.152 1.152 0 01-.7.465 2.883 2.883 0 01-.936.06c-.284-.025-.542-.092-.82-.134a.946.946 0 01-.139-.022 1.734 1.734 0 00-.051.3c-.039.308-.074.62-.133.926a1.91 1.91 0 01-.326.809 2.477 2.477 0 01-.854.782 2.642 2.642 0 01-3.48-.863 2.8 2.8 0 01-.387-1.081 1.918 1.918 0 01.086-.867c.089-.3.2-.591.311-.883a2.656 2.656 0 01.108-.253 1.048 1.048 0 00-.162-.082c-.26-.114-.507-.216-.76-.348a2.3 2.3 0 01-.562-.367.914.914 0 01-.256-.433.635.635 0 01.043-.41.6.6 0 01.3-.306 1.043 1.043 0 01.457-.069 5.348 5.348 0 011.274.405h.012l.01.006c.585.3 1.152.544 1.286 1.256a2.092 2.092 0 01-.168 1.184c-.1.257-.2.513-.277.776a.663.663 0 00.111.571zm-2.22-7.051a1.072 1.072 0 00.3-1.227c-.282-.467-.785-.417-1.265-.477a2.061 2.061 0 01-1.127-.4 1.732 1.732 0 01-.6-1.712 5.519 5.519 0 00.145-.94 7.015 7.015 0 00-.916-.3 83.985 83.985 0 00-3.278-.956c-.674-.187-1.35-.383-2.039-.512-.281-.054-.833-.21-.956.149-.554 1.9-1.063 3.8-1.549 5.714-.028.12-.056.238-.086.358a3.7 3.7 0 01-.351.972.835.835 0 01-.556.407c-.554.107-.863-.316-.913-.813v-.049c.2-1.211.539-2.452.864-3.638s.662-2.34 1-3.508a1.871 1.871 0 01.613-1.055 1.737 1.737 0 01.921-.3 5.285 5.285 0 011.32.111c.729.138 1.463.347 2.176.544 1.116.308 2.239.624 3.342.977a5.836 5.836 0 011.531.644 1.152 1.152 0 01.465.7 2.914 2.914 0 01.061.934c-.027.284-.094.544-.136.822a.818.818 0 01-.022.137 1.752 1.752 0 00.3.053c.308.038.621.073.926.133a1.891 1.891 0 01.809.325 2.5 2.5 0 01.782.854 2.642 2.642 0 01-.863 3.48 2.779 2.779 0 01-1.081.387 1.9 1.9 0 01-.867-.086c-.3-.089-.591-.2-.882-.311a2.267 2.267 0 01-.254-.107.93.93 0 00-.082.162c-.114.259-.216.507-.348.759a2.308 2.308 0 01-.367.563.924.924 0 01-.433.256.637.637 0 01-.409-.044.6.6 0 01-.306-.3 1.037 1.037 0 01-.068-.458 5.315 5.315 0 01.405-1.272v-.012l.006-.012c.3-.584.544-1.151 1.256-1.286a2.109 2.109 0 011.185.17c.257.1.513.2.776.275a.667.667 0 00.572-.112zM76.1 10.646a1.076 1.076 0 00-1.227-.3c-.466.282-.417.785-.477 1.266a2.069 2.069 0 01-.4 1.128 1.733 1.733 0 01-1.714.6 5.5 5.5 0 00-.94-.143 7.187 7.187 0 00-.3.916 89.754 89.754 0 00-.956 3.277c-.187.674-.383 1.351-.512 2.04-.054.281-.209.833.149.955 1.9.556 3.8 1.064 5.713 1.55l.358.085a3.757 3.757 0 01.973.352.827.827 0 01.407.556c.107.553-.314.861-.813.912h-.049c-1.211-.206-2.452-.541-3.638-.864s-2.34-.664-3.509-1a1.876 1.876 0 01-1.054-.613 1.722 1.722 0 01-.3-.92 5.211 5.211 0 01.11-1.322c.137-.727.347-1.462.544-2.176.309-1.114.624-2.239.977-3.34a5.826 5.826 0 01.644-1.531 1.159 1.159 0 01.7-.466 2.9 2.9 0 01.934-.06c.284.025.544.092.822.135l.137.022a1.72 1.72 0 00.053-.3c.038-.308.074-.62.133-.925a1.885 1.885 0 01.326-.809 2.492 2.492 0 01.852-.782 2.643 2.643 0 013.48.863 2.812 2.812 0 01.389 1.082 1.915 1.915 0 01-.088.867c-.089.3-.2.591-.311.882a2.315 2.315 0 01-.107.255.95.95 0 00.162.08c.259.114.507.218.76.348a2.363 2.363 0 01.562.367.931.931 0 01.256.433.635.635 0 01-.044.41.6.6 0 01-.3.307 1.036 1.036 0 01-.457.067 5.2 5.2 0 01-1.272-.405h-.012l-.01-.006c-.585-.3-1.152-.545-1.287-1.256a2.1 2.1 0 01.17-1.184c.1-.258.2-.515.277-.778a.662.662 0 00-.111-.575z"/></g><g data-name="продажа и строительство"><g data-name="Group 1024" style="isolation:isolate" fill="#4ab7fd"><path data-name="Path 8587" d="M23.395 53.095v4.9h-.472v-4.451h-3.392v4.451h-.472v-4.9h4.335z"/><path data-name="Path 8588" d="M27.427 52.997a2.14 2.14 0 011.665.721 2.888 2.888 0 010 3.651 2.142 2.142 0 01-1.665.72 2.23 2.23 0 01-1.224-.342 2.3 2.3 0 01-.833-.931v3.4h-.472v-7.122h.468v1.176a2.291 2.291 0 01.833-.931 2.231 2.231 0 011.228-.342zm-.071 4.638a1.77 1.77 0 001.38-.592 2.379 2.379 0 000-3 1.779 1.779 0 00-1.38-.588 1.9 1.9 0 00-1.424.591 2.26 2.26 0 000 3 1.891 1.891 0 001.424.589z"/><path data-name="Path 8589" d="M31.469 53.729a2.54 2.54 0 013.561 0 2.636 2.636 0 01.005 3.636 2.548 2.548 0 01-3.57 0 2.63 2.63 0 010-3.631zm3.223.315a2.055 2.055 0 00-2.885 0 2.2 2.2 0 000 3 2.044 2.044 0 002.885 0 2.205 2.205 0 000-3z"/><path data-name="Path 8590" d="M41.183 57.546h.891v1.789h-.472v-1.344h-5.093v1.344h-.472v-1.789h.819q.473-.3.721-1.852l.418-2.6h3.187zm-3.757 0h3.285V53.54h-2.315l-.355 2.163a3.892 3.892 0 01-.615 1.843z"/><path data-name="Path 8591" d="M46.943 53.095h.472v4.9h-.472v-1.166a2.319 2.319 0 01-.833.922 2.218 2.218 0 01-1.215.342 2.154 2.154 0 01-1.674-.72 2.891 2.891 0 010-3.651 2.143 2.143 0 011.666-.721 2.235 2.235 0 011.224.343 2.3 2.3 0 01.833.931zm-1.986 4.54a1.893 1.893 0 001.425-.592 2.263 2.263 0 000-3 1.9 1.9 0 00-1.425-.591 1.775 1.775 0 00-1.38.591 2.377 2.377 0 000 3 1.769 1.769 0 001.38.592z"/><path data-name="Path 8592" d="M56.005 57.992h-.641l-2.929-2.457v2.457h-.471v-2.457l-2.93 2.457h-.64l3.035-2.582-2.768-2.315h.641l2.662 2.235v-2.235h.471v2.235l2.662-2.235h.641L52.97 55.41z"/><path data-name="Path 8593" d="M60.661 53.095h.472v4.9h-.472v-1.166a2.313 2.313 0 01-.833.922 2.216 2.216 0 01-1.216.342 2.153 2.153 0 01-1.673-.72 2.89 2.89 0 010-3.651 2.141 2.141 0 011.665-.721 2.232 2.232 0 011.224.343 2.29 2.29 0 01.833.931zm-1.985 4.54a1.892 1.892 0 001.425-.592 2.263 2.263 0 000-3 1.9 1.9 0 00-1.425-.591 1.775 1.775 0 00-1.38.591 2.374 2.374 0 000 3 1.77 1.77 0 001.375.592z"/><path data-name="Path 8594" d="M68.931 53.095h.624v4.9h-.472v-2.662l.026-1.709-3.222 4.371h-.624v-4.9h.472v2.663l-.026 1.708z"/><path data-name="Path 8595" d="M75.965 58.089a2.425 2.425 0 01-1.785-.725 2.646 2.646 0 010-3.641 2.575 2.575 0 013.272-.258 2.27 2.27 0 01.863 1.259h-.5a1.832 1.832 0 00-.694-.93 1.943 1.943 0 00-1.148-.352 1.97 1.97 0 00-1.461.6 2.214 2.214 0 000 3 2.056 2.056 0 002.6.25 1.822 1.822 0 00.7-.93h.5a2.267 2.267 0 01-.868 1.259 2.463 2.463 0 01-1.479.468z"/><path data-name="Path 8596" d="M82.802 53.095v.445h-1.78v4.451h-.471V53.54h-1.79v-.445h4.041z"/><path data-name="Path 8597" d="M86.356 52.997a2.138 2.138 0 011.664.721 2.889 2.889 0 010 3.651 2.14 2.14 0 01-1.664.72 2.231 2.231 0 01-1.225-.342 2.3 2.3 0 01-.832-.931v3.4h-.472v-7.122h.472v1.176a2.285 2.285 0 01.832-.931 2.232 2.232 0 011.225-.342zm-.071 4.638a1.77 1.77 0 001.38-.592 2.382 2.382 0 000-3 1.78 1.78 0 00-1.38-.588 1.9 1.9 0 00-1.425.591 2.26 2.26 0 000 3 1.9 1.9 0 001.425.589z"/><path data-name="Path 8598" d="M90.397 53.729a2.539 2.539 0 013.56 0 2.633 2.633 0 010 3.636 2.547 2.547 0 01-3.57 0 2.63 2.63 0 01.005-3.631zm3.222.315a2.053 2.053 0 00-2.884 0 2.2 2.2 0 000 3 2.043 2.043 0 002.884 0 2.2 2.2 0 000-3z"/><path data-name="Path 8599" d="M99.575 53.095h.623v4.9h-.472v-2.662l.028-1.709-3.224 4.371h-.622v-4.9h.472v2.663l-.027 1.708z"/><path data-name="Path 8600" d="M105.219 53.095v.445h-1.781v4.451h-.472V53.54h-1.789v-.445h4.042z"/><path data-name="Path 8601" d="M108.228 52.997a2.251 2.251 0 011.78.748 2.772 2.772 0 01.641 1.95h-4.416a1.949 1.949 0 00.6 1.419 2.023 2.023 0 001.429.521 2.209 2.209 0 001.06-.249 1.652 1.652 0 00.7-.72h.489a2.2 2.2 0 01-.9 1.059 2.588 2.588 0 01-1.363.365 2.436 2.436 0 01-1.8-.7 2.469 2.469 0 01-.7-1.825 2.544 2.544 0 01.7-1.843 2.368 2.368 0 011.78-.725zm0 .445a1.9 1.9 0 00-1.344.5 2.045 2.045 0 00-.641 1.3h3.907a2.064 2.064 0 00-.609-1.3 1.81 1.81 0 00-1.313-.5z"/><path data-name="Path 8602" d="M112.796 53.095h3.187v4.9h-.472v-4.451h-2.315l-.409 2.555a3.894 3.894 0 01-.5 1.545 1.016 1.016 0 01-.873.449 3 3 0 01-.3-.018v-.436h.222a.7.7 0 00.623-.33 3.517 3.517 0 00.356-1.237z"/><path data-name="Path 8603" d="M119.665 54.814q1.692 0 1.692 1.557a1.627 1.627 0 01-.423 1.189 1.738 1.738 0 01-1.295.431h-2.2v-4.9h.472v1.719zm-.036 2.724q1.256 0 1.256-1.167a1.205 1.205 0 00-.267-.832 1.257 1.257 0 00-.962-.3h-1.745v2.3z"/><path data-name="Path 8604" d="M124.868 58.089a2.424 2.424 0 01-1.785-.725 2.646 2.646 0 010-3.641 2.575 2.575 0 013.272-.258 2.275 2.275 0 01.863 1.259h-.5a1.83 1.83 0 00-.695-.93 1.939 1.939 0 00-1.148-.352 1.969 1.969 0 00-1.461.6 2.213 2.213 0 000 3 2.056 2.056 0 002.6.25 1.822 1.822 0 00.7-.93h.5a2.271 2.271 0 01-.868 1.259 2.464 2.464 0 01-1.478.468z"/><path data-name="Path 8605" d="M131.705 53.095v.445h-1.78v4.451h-.472V53.54h-1.789v-.445h4.041z"/><path data-name="Path 8606" d="M135.711 55.401a1.3 1.3 0 01.748.45 1.217 1.217 0 01.25.761 1.289 1.289 0 01-.414 1 1.857 1.857 0 01-1.287.379h-2.323v-4.9h2.1q1.681 0 1.682 1.246a1.1 1.1 0 01-.756 1.064zm.286-1a.855.855 0 00-.272-.677 1.452 1.452 0 00-.957-.241h-1.612v1.781h1.576a1.549 1.549 0 00.962-.24.759.759 0 00.302-.618zm-1 3.2q1.229 0 1.228-1.015a.87.87 0 00-.293-.681 1.43 1.43 0 00-.963-.263h-1.816v1.959z"/><path data-name="Path 8607" d="M138.319 53.729a2.539 2.539 0 013.56 0 2.633 2.633 0 010 3.636 2.547 2.547 0 01-3.57 0 2.629 2.629 0 010-3.631zm3.222.315a2.053 2.053 0 00-2.884 0 2.2 2.2 0 000 3 2.043 2.043 0 002.884 0 2.2 2.2 0 000-3z"/></g></g></svg>