<svg width="137" height="60" viewBox="0 0 137 60" fill="none" xmlns="http://www.w3.org/2000/svg">
<path d="M2.71395e-05 30.0072C-0.00734115 13.4159 13.4029 0 29.9963 0C46.5824 0 59.9926 13.4159 60 30.0072C60.0074 46.569 46.5087 60.0807 29.8342 59.9996C13.4619 59.9186 -0.0220777 46.5911 2.71395e-05 30.0072ZM48.8592 18.8899C48.8444 18.8899 48.8223 18.8825 48.8076 18.8825C48.8076 18.6615 48.8076 18.4405 48.8076 18.2194C48.8002 17.7627 48.6086 17.5048 48.1739 17.3943C47.7097 17.2691 47.2308 17.2027 46.7887 17.048C45.4255 16.5765 44.0698 16.0755 42.7214 15.5819C42.3456 15.4419 41.9624 15.3093 41.594 15.1473C41.0488 14.9041 40.5182 14.6315 39.9804 14.3663C39.4498 14.1011 38.9193 13.8285 38.3962 13.5412C38.0425 13.3423 37.7109 13.1139 37.372 12.9002C36.1341 12.1045 34.8594 11.3604 33.6805 10.4911C32.5826 9.67332 31.5879 8.71557 30.5563 7.81675C30.1363 7.45575 30.0111 7.45575 29.5837 7.83149C29.1342 8.22932 28.6995 8.64189 28.2206 9.00289C26.9974 9.94591 25.789 10.9037 24.5143 11.773C23.3354 12.5761 22.0975 13.2981 20.8523 14.0127C20.1965 14.3884 19.4892 14.661 18.8039 14.9778C18.3839 15.1694 17.9713 15.383 17.5439 15.5598C16.8218 15.8472 16.0924 16.1271 15.3555 16.385C14.5229 16.6723 13.6829 16.9302 12.843 17.188C12.4082 17.3206 11.9588 17.4017 11.5314 17.5416C11.4061 17.5858 11.2661 17.7553 11.244 17.8879C11.1998 18.1237 11.2219 18.3815 11.2588 18.6173C11.384 19.5235 11.524 20.4296 11.6567 21.3358C11.8482 22.6767 12.0324 24.0249 12.2388 25.3658C12.3861 26.3309 12.5482 27.3034 12.7472 28.2538C13.0714 29.7493 13.4324 31.2375 13.7861 32.7257C14.1398 34.2287 14.6334 35.6874 15.2303 37.1093C15.9966 38.929 17.2197 40.4393 18.5534 41.8318C20.2407 43.5926 21.8912 45.3902 23.7996 46.9373C25.2364 48.1014 26.5922 49.3612 27.9922 50.5694C28.5669 51.0631 29.1711 51.5272 29.7605 52.0061C29.9816 52.1829 30.1658 52.1534 30.3869 51.9766C31.0647 51.4167 31.7647 50.8715 32.4426 50.3116C33.4963 49.4349 34.5868 48.5876 35.5889 47.652C37.3573 46.0017 39.0741 44.2998 40.7909 42.598C41.5719 41.817 42.3603 41.0287 43.0235 40.152C43.9519 38.9364 44.8508 37.6913 45.2782 36.181C45.5876 35.0833 45.9855 34.015 46.3097 32.9247C46.5234 32.2248 46.6929 31.5101 46.8623 30.7955C47.0097 30.1914 47.135 29.5799 47.2529 28.9684C47.415 28.1138 47.555 27.2592 47.7097 26.4046C47.8571 25.5942 48.0192 24.7911 48.1444 23.9807C48.2771 23.1261 48.3581 22.2567 48.4834 21.4021C48.6013 20.5549 48.7339 19.7224 48.8592 18.8899Z" fill="url(#paint0_linear_1_426)"/>
<path d="M2.71395e-05 30.0072C-0.00734115 13.4159 13.4029 0 29.9963 0C46.5824 0 59.9926 13.4159 60 30.0072C60.0074 46.569 46.5087 60.0807 29.8342 59.9996C13.4619 59.9186 -0.0220777 46.5911 2.71395e-05 30.0072ZM48.8592 18.8899C48.8444 18.8899 48.8223 18.8825 48.8076 18.8825C48.8076 18.6615 48.8076 18.4405 48.8076 18.2194C48.8002 17.7627 48.6086 17.5048 48.1739 17.3943C47.7097 17.2691 47.2308 17.2027 46.7887 17.048C45.4255 16.5765 44.0698 16.0755 42.7214 15.5819C42.3456 15.4419 41.9624 15.3093 41.594 15.1473C41.0488 14.9041 40.5182 14.6315 39.9804 14.3663C39.4498 14.1011 38.9193 13.8285 38.3962 13.5412C38.0425 13.3423 37.7109 13.1139 37.372 12.9002C36.1341 12.1045 34.8594 11.3604 33.6805 10.4911C32.5826 9.67332 31.5879 8.71557 30.5563 7.81675C30.1363 7.45575 30.0111 7.45575 29.5837 7.83149C29.1342 8.22932 28.6995 8.64189 28.2206 9.00289C26.9974 9.94591 25.789 10.9037 24.5143 11.773C23.3354 12.5761 22.0975 13.2981 20.8523 14.0127C20.1965 14.3884 19.4892 14.661 18.8039 14.9778C18.3839 15.1694 17.9713 15.383 17.5439 15.5598C16.8218 15.8472 16.0924 16.1271 15.3555 16.385C14.5229 16.6723 13.6829 16.9302 12.843 17.188C12.4082 17.3206 11.9588 17.4017 11.5314 17.5416C11.4061 17.5858 11.2661 17.7553 11.244 17.8879C11.1998 18.1237 11.2219 18.3815 11.2588 18.6173C11.384 19.5235 11.524 20.4296 11.6567 21.3358C11.8482 22.6767 12.0324 24.0249 12.2388 25.3658C12.3861 26.3309 12.5482 27.3034 12.7472 28.2538C13.0714 29.7493 13.4324 31.2375 13.7861 32.7257C14.1398 34.2287 14.6334 35.6874 15.2303 37.1093C15.9966 38.929 17.2197 40.4393 18.5534 41.8318C20.2407 43.5926 21.8912 45.3902 23.7996 46.9373C25.2364 48.1014 26.5922 49.3612 27.9922 50.5694C28.5669 51.0631 29.1711 51.5272 29.7605 52.0061C29.9816 52.1829 30.1658 52.1534 30.3869 51.9766C31.0647 51.4167 31.7647 50.8715 32.4426 50.3116C33.4963 49.4349 34.5868 48.5876 35.5889 47.652C37.3573 46.0017 39.0741 44.2998 40.7909 42.598C41.5719 41.817 42.3603 41.0287 43.0235 40.152C43.9519 38.9364 44.8508 37.6913 45.2782 36.181C45.5876 35.0833 45.9855 34.015 46.3097 32.9247C46.5234 32.2248 46.6929 31.5101 46.8623 30.7955C47.0097 30.1914 47.135 29.5799 47.2529 28.9684C47.415 28.1138 47.555 27.2592 47.7097 26.4046C47.8571 25.5942 48.0192 24.7911 48.1444 23.9807C48.2771 23.1261 48.3581 22.2567 48.4834 21.4021C48.6013 20.5549 48.7339 19.7224 48.8592 18.8899Z" fill="url(#paint1_linear_1_426)" fill-opacity="0.2"/>
<path d="M2.71395e-05 30.0072C-0.00734115 13.4159 13.4029 0 29.9963 0C46.5824 0 59.9926 13.4159 60 30.0072C60.0074 46.569 46.5087 60.0807 29.8342 59.9996C13.4619 59.9186 -0.0220777 46.5911 2.71395e-05 30.0072ZM48.8592 18.8899C48.8444 18.8899 48.8223 18.8825 48.8076 18.8825C48.8076 18.6615 48.8076 18.4405 48.8076 18.2194C48.8002 17.7627 48.6086 17.5048 48.1739 17.3943C47.7097 17.2691 47.2308 17.2027 46.7887 17.048C45.4255 16.5765 44.0698 16.0755 42.7214 15.5819C42.3456 15.4419 41.9624 15.3093 41.594 15.1473C41.0488 14.9041 40.5182 14.6315 39.9804 14.3663C39.4498 14.1011 38.9193 13.8285 38.3962 13.5412C38.0425 13.3423 37.7109 13.1139 37.372 12.9002C36.1341 12.1045 34.8594 11.3604 33.6805 10.4911C32.5826 9.67332 31.5879 8.71557 30.5563 7.81675C30.1363 7.45575 30.0111 7.45575 29.5837 7.83149C29.1342 8.22932 28.6995 8.64189 28.2206 9.00289C26.9974 9.94591 25.789 10.9037 24.5143 11.773C23.3354 12.5761 22.0975 13.2981 20.8523 14.0127C20.1965 14.3884 19.4892 14.661 18.8039 14.9778C18.3839 15.1694 17.9713 15.383 17.5439 15.5598C16.8218 15.8472 16.0924 16.1271 15.3555 16.385C14.5229 16.6723 13.6829 16.9302 12.843 17.188C12.4082 17.3206 11.9588 17.4017 11.5314 17.5416C11.4061 17.5858 11.2661 17.7553 11.244 17.8879C11.1998 18.1237 11.2219 18.3815 11.2588 18.6173C11.384 19.5235 11.524 20.4296 11.6567 21.3358C11.8482 22.6767 12.0324 24.0249 12.2388 25.3658C12.3861 26.3309 12.5482 27.3034 12.7472 28.2538C13.0714 29.7493 13.4324 31.2375 13.7861 32.7257C14.1398 34.2287 14.6334 35.6874 15.2303 37.1093C15.9966 38.929 17.2197 40.4393 18.5534 41.8318C20.2407 43.5926 21.8912 45.3902 23.7996 46.9373C25.2364 48.1014 26.5922 49.3612 27.9922 50.5694C28.5669 51.0631 29.1711 51.5272 29.7605 52.0061C29.9816 52.1829 30.1658 52.1534 30.3869 51.9766C31.0647 51.4167 31.7647 50.8715 32.4426 50.3116C33.4963 49.4349 34.5868 48.5876 35.5889 47.652C37.3573 46.0017 39.0741 44.2998 40.7909 42.598C41.5719 41.817 42.3603 41.0287 43.0235 40.152C43.9519 38.9364 44.8508 37.6913 45.2782 36.181C45.5876 35.0833 45.9855 34.015 46.3097 32.9247C46.5234 32.2248 46.6929 31.5101 46.8623 30.7955C47.0097 30.1914 47.135 29.5799 47.2529 28.9684C47.415 28.1138 47.555 27.2592 47.7097 26.4046C47.8571 25.5942 48.0192 24.7911 48.1444 23.9807C48.2771 23.1261 48.3581 22.2567 48.4834 21.4021C48.6013 20.5549 48.7339 19.7224 48.8592 18.8899Z" fill="url(#paint2_radial_1_426)" fill-opacity="0.4"/>
<path fill-rule="evenodd" clip-rule="evenodd" d="M43.4605 22.6768C43.5001 22.5091 43.5398 22.3411 43.577 22.1723C43.519 21.3875 43.4175 21.2785 42.6996 21.0169L42.631 20.9922C42.008 20.7678 41.3797 20.5415 40.7851 20.2611C40.549 20.1493 40.3127 20.038 40.0765 19.9267C38.7311 19.293 37.3876 18.6601 36.086 17.943C34.3166 16.9693 32.6125 15.8648 31.0099 14.6076C30.4515 14.1716 30.2702 14.1862 29.6973 14.6004C29.4328 14.7881 29.1698 14.9789 28.9066 15.1697C28.1817 15.6956 27.456 16.2221 26.6952 16.6859C25.2376 17.5797 23.7582 18.459 22.2281 19.2147C21.1823 19.7309 20.0955 20.1685 19.0104 20.6054C18.5831 20.7774 18.1562 20.9493 17.7321 21.1259C17.2317 21.3293 17.094 21.4601 17.1665 21.9906C17.3115 23.1097 17.4855 24.2287 17.6741 25.3478C17.7841 25.9934 17.913 26.6352 18.0417 27.2759C18.0912 27.5223 18.1406 27.7685 18.189 28.0147C18.2262 28.2076 18.2614 28.4013 18.2966 28.5949C18.3781 29.0431 18.4597 29.4917 18.566 29.9331C18.7691 30.8124 18.9866 31.6917 19.2405 32.5564C19.2949 32.7403 19.3477 32.926 19.4007 33.1122C19.6155 33.8674 19.8327 34.6313 20.1759 35.325C20.6183 36.2261 21.1766 37.1126 21.8583 37.8393C22.018 38.0083 22.1776 38.1776 22.3373 38.3469C24.1133 40.2306 25.8968 42.1221 27.9062 43.7689C28.3215 44.1125 28.7142 44.4851 29.1059 44.8566C29.3024 45.043 29.4987 45.2291 29.6973 45.4112C30.1324 45.8109 30.4225 45.8109 30.8649 45.433C30.9954 45.3167 31.1187 45.2077 31.2492 45.0987C31.6184 44.775 31.9927 44.4565 32.367 44.1379C33.1691 43.4553 33.9712 42.7727 34.7227 42.0394C34.9283 41.8391 35.1344 41.6393 35.3406 41.4395C36.7416 40.0817 38.1419 38.7246 39.3493 37.1853C39.9149 36.4586 40.379 35.6738 40.6908 34.8018C40.9447 34.0969 41.1622 33.3848 41.3798 32.6654C41.5973 31.9533 41.7931 31.2338 41.9744 30.5072C42.1412 29.8459 42.279 29.1701 42.4167 28.4943C42.4436 28.3632 42.4707 28.232 42.4978 28.1008C42.6387 27.4179 42.7798 26.7342 42.8954 26.0454C42.9556 25.6765 43.0066 25.3076 43.0576 24.9386C43.117 24.5082 43.1765 24.0778 43.2507 23.6474C43.308 23.3221 43.3841 22.9999 43.4605 22.6768ZM24.3591 24.0472C24.1197 24.3967 24 24.7878 24 25.2205V32.7594H26.3821V25.6074L32.7145 32.0605C33.2093 32.5597 33.7161 32.8593 34.2348 32.9592C34.7615 33.059 35.2643 32.9758 35.7431 32.7095C36.1581 32.4848 36.4693 32.177 36.6768 31.7859C36.8923 31.3865 37 30.8789 37 30.2631V23.1985H34.6179V30.4254L28.2974 23.9474C27.8425 23.4731 27.3677 23.1777 26.8729 23.0612C26.3861 22.9447 25.8953 22.9946 25.4006 23.2109C24.9457 23.4106 24.5985 23.6894 24.3591 24.0472Z" fill="url(#paint3_linear_1_426)"/>
<path fill-rule="evenodd" clip-rule="evenodd" d="M43.4605 22.6768C43.5001 22.5091 43.5398 22.3411 43.577 22.1723C43.519 21.3875 43.4175 21.2785 42.6996 21.0169L42.631 20.9922C42.008 20.7678 41.3797 20.5415 40.7851 20.2611C40.549 20.1493 40.3127 20.038 40.0765 19.9267C38.7311 19.293 37.3876 18.6601 36.086 17.943C34.3166 16.9693 32.6125 15.8648 31.0099 14.6076C30.4515 14.1716 30.2702 14.1862 29.6973 14.6004C29.4328 14.7881 29.1698 14.9789 28.9066 15.1697C28.1817 15.6956 27.456 16.2221 26.6952 16.6859C25.2376 17.5797 23.7582 18.459 22.2281 19.2147C21.1823 19.7309 20.0955 20.1685 19.0104 20.6054C18.5831 20.7774 18.1562 20.9493 17.7321 21.1259C17.2317 21.3293 17.094 21.4601 17.1665 21.9906C17.3115 23.1097 17.4855 24.2287 17.6741 25.3478C17.7841 25.9934 17.913 26.6352 18.0417 27.2759C18.0912 27.5223 18.1406 27.7685 18.189 28.0147C18.2262 28.2076 18.2614 28.4013 18.2966 28.5949C18.3781 29.0431 18.4597 29.4917 18.566 29.9331C18.7691 30.8124 18.9866 31.6917 19.2405 32.5564C19.2949 32.7403 19.3477 32.926 19.4007 33.1122C19.6155 33.8674 19.8327 34.6313 20.1759 35.325C20.6183 36.2261 21.1766 37.1126 21.8583 37.8393C22.018 38.0083 22.1776 38.1776 22.3373 38.3469C24.1133 40.2306 25.8968 42.1221 27.9062 43.7689C28.3215 44.1125 28.7142 44.4851 29.1059 44.8566C29.3024 45.043 29.4987 45.2291 29.6973 45.4112C30.1324 45.8109 30.4225 45.8109 30.8649 45.433C30.9954 45.3167 31.1187 45.2077 31.2492 45.0987C31.6184 44.775 31.9927 44.4565 32.367 44.1379C33.1691 43.4553 33.9712 42.7727 34.7227 42.0394C34.9283 41.8391 35.1344 41.6393 35.3406 41.4395C36.7416 40.0817 38.1419 38.7246 39.3493 37.1853C39.9149 36.4586 40.379 35.6738 40.6908 34.8018C40.9447 34.0969 41.1622 33.3848 41.3798 32.6654C41.5973 31.9533 41.7931 31.2338 41.9744 30.5072C42.1412 29.8459 42.279 29.1701 42.4167 28.4943C42.4436 28.3632 42.4707 28.232 42.4978 28.1008C42.6387 27.4179 42.7798 26.7342 42.8954 26.0454C42.9556 25.6765 43.0066 25.3076 43.0576 24.9386C43.117 24.5082 43.1765 24.0778 43.2507 23.6474C43.308 23.3221 43.3841 22.9999 43.4605 22.6768ZM24.3591 24.0472C24.1197 24.3967 24 24.7878 24 25.2205V32.7594H26.3821V25.6074L32.7145 32.0605C33.2093 32.5597 33.7161 32.8593 34.2348 32.9592C34.7615 33.059 35.2643 32.9758 35.7431 32.7095C36.1581 32.4848 36.4693 32.177 36.6768 31.7859C36.8923 31.3865 37 30.8789 37 30.2631V23.1985H34.6179V30.4254L28.2974 23.9474C27.8425 23.4731 27.3677 23.1777 26.8729 23.0612C26.3861 22.9447 25.8953 22.9946 25.4006 23.2109C24.9457 23.4106 24.5985 23.6894 24.3591 24.0472Z" fill="url(#paint4_linear_1_426)" fill-opacity="0.2"/>
<path fill-rule="evenodd" clip-rule="evenodd" d="M43.4605 22.6768C43.5001 22.5091 43.5398 22.3411 43.577 22.1723C43.519 21.3875 43.4175 21.2785 42.6996 21.0169L42.631 20.9922C42.008 20.7678 41.3797 20.5415 40.7851 20.2611C40.549 20.1493 40.3127 20.038 40.0765 19.9267C38.7311 19.293 37.3876 18.6601 36.086 17.943C34.3166 16.9693 32.6125 15.8648 31.0099 14.6076C30.4515 14.1716 30.2702 14.1862 29.6973 14.6004C29.4328 14.7881 29.1698 14.9789 28.9066 15.1697C28.1817 15.6956 27.456 16.2221 26.6952 16.6859C25.2376 17.5797 23.7582 18.459 22.2281 19.2147C21.1823 19.7309 20.0955 20.1685 19.0104 20.6054C18.5831 20.7774 18.1562 20.9493 17.7321 21.1259C17.2317 21.3293 17.094 21.4601 17.1665 21.9906C17.3115 23.1097 17.4855 24.2287 17.6741 25.3478C17.7841 25.9934 17.913 26.6352 18.0417 27.2759C18.0912 27.5223 18.1406 27.7685 18.189 28.0147C18.2262 28.2076 18.2614 28.4013 18.2966 28.5949C18.3781 29.0431 18.4597 29.4917 18.566 29.9331C18.7691 30.8124 18.9866 31.6917 19.2405 32.5564C19.2949 32.7403 19.3477 32.926 19.4007 33.1122C19.6155 33.8674 19.8327 34.6313 20.1759 35.325C20.6183 36.2261 21.1766 37.1126 21.8583 37.8393C22.018 38.0083 22.1776 38.1776 22.3373 38.3469C24.1133 40.2306 25.8968 42.1221 27.9062 43.7689C28.3215 44.1125 28.7142 44.4851 29.1059 44.8566C29.3024 45.043 29.4987 45.2291 29.6973 45.4112C30.1324 45.8109 30.4225 45.8109 30.8649 45.433C30.9954 45.3167 31.1187 45.2077 31.2492 45.0987C31.6184 44.775 31.9927 44.4565 32.367 44.1379C33.1691 43.4553 33.9712 42.7727 34.7227 42.0394C34.9283 41.8391 35.1344 41.6393 35.3406 41.4395C36.7416 40.0817 38.1419 38.7246 39.3493 37.1853C39.9149 36.4586 40.379 35.6738 40.6908 34.8018C40.9447 34.0969 41.1622 33.3848 41.3798 32.6654C41.5973 31.9533 41.7931 31.2338 41.9744 30.5072C42.1412 29.8459 42.279 29.1701 42.4167 28.4943C42.4436 28.3632 42.4707 28.232 42.4978 28.1008C42.6387 27.4179 42.7798 26.7342 42.8954 26.0454C42.9556 25.6765 43.0066 25.3076 43.0576 24.9386C43.117 24.5082 43.1765 24.0778 43.2507 23.6474C43.308 23.3221 43.3841 22.9999 43.4605 22.6768ZM24.3591 24.0472C24.1197 24.3967 24 24.7878 24 25.2205V32.7594H26.3821V25.6074L32.7145 32.0605C33.2093 32.5597 33.7161 32.8593 34.2348 32.9592C34.7615 33.059 35.2643 32.9758 35.7431 32.7095C36.1581 32.4848 36.4693 32.177 36.6768 31.7859C36.8923 31.3865 37 30.8789 37 30.2631V23.1985H34.6179V30.4254L28.2974 23.9474C27.8425 23.4731 27.3677 23.1777 26.8729 23.0612C26.3861 22.9447 25.8953 22.9946 25.4006 23.2109C24.9457 23.4106 24.5985 23.6894 24.3591 24.0472Z" fill="url(#paint5_radial_1_426)" fill-opacity="0.4"/>
<path d="M68.9482 14.4647C68.9482 13.7895 69.1458 13.1793 69.5409 12.634C69.9359 12.0757 70.5088 11.6407 71.2595 11.3291C72.076 10.9916 72.886 10.9137 73.6893 11.0954C74.5058 11.2772 75.2894 11.7381 76.0401 12.4782L86.4705 22.586V11.3097H90.4017V22.3328C90.4017 23.2936 90.2239 24.0856 89.8683 24.7088C89.5259 25.319 89.0123 25.7994 88.3275 26.15C87.5373 26.5654 86.7076 26.6953 85.8384 26.5395C84.9824 26.3837 84.1461 25.9163 83.3296 25.1372L72.8794 15.0684V26.2279H68.9482V14.4647Z" fill="white"/>
<path d="M92.1679 16.0811C92.1679 16.0162 92.1679 15.9513 92.1679 15.8864C92.1679 15.8085 92.1745 15.7306 92.1876 15.6527C92.2271 15.0684 92.3391 14.5621 92.5235 14.1336C92.721 13.7051 93.0173 13.2897 93.4124 12.8872C93.5178 12.7833 93.6231 12.6859 93.7285 12.595C93.8339 12.5042 93.9458 12.4068 94.0643 12.3029C94.4989 11.9653 94.9401 11.7251 95.3879 11.5823C95.8488 11.4265 96.448 11.3356 97.1856 11.3097H97.6004H113.661V15.049H96.099V16.8602H113.661V20.7163L96.099 20.7553V22.5081H113.661V26.2279H97.5411C96.6719 26.2279 95.9476 26.1175 95.3681 25.8968C94.7887 25.6761 94.2553 25.3385 93.768 24.8841C93.1754 24.2998 92.7605 23.748 92.5235 23.2286C92.2864 22.6963 92.1679 22.1121 92.1679 21.4759V16.0811Z" fill="white"/>
<path d="M133.069 15.049H119.379V22.5081H133.069V15.049ZM115.448 15.7501C115.448 15.0879 115.606 14.4777 115.922 13.9194C116.251 13.3611 116.791 12.8093 117.542 12.264C117.963 11.9394 118.391 11.7057 118.826 11.5628C119.274 11.42 119.827 11.3356 120.485 11.3097H120.88H132.2C132.753 11.3097 133.253 11.3876 133.701 11.5434C134.149 11.6862 134.583 11.9199 135.005 12.2445C135.189 12.3743 135.374 12.5496 135.558 12.7703C135.834 13.0689 136.065 13.3481 136.249 13.6078C136.434 13.8674 136.579 14.1271 136.684 14.3868C136.802 14.6465 136.881 14.9191 136.921 15.2048C136.974 15.4774 137 15.7695 137 16.0811V21.6317C137 22.2679 136.888 22.8262 136.664 23.3065C136.453 23.7869 136.091 24.2933 135.578 24.8256C135.064 25.319 134.544 25.6761 134.017 25.8968C133.49 26.1175 132.865 26.2279 132.14 26.2279H120.327C119.919 26.2279 119.544 26.2019 119.201 26.15C118.872 26.085 118.562 25.9942 118.273 25.8773C117.983 25.7475 117.706 25.5852 117.443 25.3904C117.18 25.1827 116.916 24.9295 116.653 24.6309C116.231 24.1765 115.922 23.6961 115.724 23.1897C115.54 22.6833 115.448 22.0861 115.448 21.398V15.7501Z" fill="white"/>
<path d="M72.4645 33.7064L78.5292 45.0412L84.7321 33.7064H89.1967L82.5394 45.8786C82.3287 46.2422 82.164 46.5213 82.0455 46.7161C81.9402 46.8978 81.8216 47.0666 81.6899 47.2224C81.2685 47.7288 80.8602 48.1053 80.4651 48.352C80.0832 48.5987 79.642 48.7675 79.1416 48.8584C78.6675 48.9363 78.2197 48.9363 77.7983 48.8584C77.39 48.7934 76.9883 48.6247 76.5932 48.352C76.1982 48.0793 75.8096 47.6963 75.4277 47.2029C75.0458 46.7096 74.6507 46.0864 74.2424 45.3333L68 33.7064H72.4645Z" fill="white"/>
<path d="M108.419 37.4457H94.0179V39.3543H108.419V37.4457ZM90.0867 33.7064H107.016C107.28 33.7064 107.543 33.7259 107.807 33.7649C108.676 33.8817 109.459 34.1414 110.157 34.5439C110.829 34.9464 111.356 35.4463 111.738 36.0435C112.133 36.6278 112.37 37.251 112.449 37.9132C112.528 38.5753 112.449 39.244 112.212 39.9191C111.975 40.5813 111.573 41.185 111.007 41.7303C110.282 42.4185 109.367 42.8534 108.261 43.0352C108.024 43.0741 107.767 43.0936 107.491 43.0936H94.0179V48.6247H90.0867V33.7064Z" fill="white"/>
<path d="M114.138 36.8615C114.138 36.1863 114.336 35.5761 114.731 35.0308C115.126 34.4725 115.699 34.0375 116.45 33.7259C117.266 33.3883 118.076 33.3104 118.879 33.4922C119.696 33.674 120.479 34.1349 121.23 34.875L131.661 44.9827V33.7064H135.592V44.7296C135.592 45.6904 135.414 46.4824 135.058 47.1056C134.716 47.7158 134.202 48.1962 133.517 48.5468C132.727 48.9622 131.898 49.0921 131.028 48.9363C130.172 48.7805 129.336 48.3131 128.52 47.534L118.069 37.4652V48.6247H114.138V36.8615Z" fill="white"/>
<defs>
<linearGradient id="paint0_linear_1_426" x1="30" y1="0" x2="30" y2="60" gradientUnits="userSpaceOnUse">
<stop stop-color="#018197"/>
<stop offset="1" stop-color="#22CF48"/>
</linearGradient>
<linearGradient id="paint1_linear_1_426" x1="27" y1="36.8494" x2="51.8367" y2="14.9573" gradientUnits="userSpaceOnUse">
<stop stop-color="#0265A5"/>
<stop offset="1" stop-color="#00FF66"/>
</linearGradient>
<radialGradient id="paint2_radial_1_426" cx="0" cy="0" r="1" gradientUnits="userSpaceOnUse" gradientTransform="translate(56.3125 58.3193) rotate(-73.1985) scale(27.2978 27.2928)">
<stop stop-color="#44D1F0"/>
<stop offset="1" stop-color="#4B84DA" stop-opacity="0.34"/>
</radialGradient>
<linearGradient id="paint3_linear_1_426" x1="30.3627" y1="14.2852" x2="30.3627" y2="45.7137" gradientUnits="userSpaceOnUse">
<stop stop-color="#018197"/>
<stop offset="1" stop-color="#22CF48"/>
</linearGradient>
<linearGradient id="paint4_linear_1_426" x1="29.0413" y1="33.5872" x2="41.5879" y2="24.2875" gradientUnits="userSpaceOnUse">
<stop stop-color="#0265A5"/>
<stop offset="1" stop-color="#00FF66"/>
</linearGradient>
<radialGradient id="paint5_radial_1_426" cx="0" cy="0" r="1" gradientUnits="userSpaceOnUse" gradientTransform="translate(41.9528 44.8333) rotate(-75.7531) scale(14.1228 12.1717)">
<stop stop-color="#44D1F0"/>
<stop offset="1" stop-color="#4B84DA" stop-opacity="0.34"/>
</radialGradient>
</defs>
</svg>
