<svg width="34" height="34" viewBox="0 0 34 34" fill="none" xmlns="http://www.w3.org/2000/svg">
<g clip-path="url(#clip0_314_164)">
<path d="M15.8 20.64C15.8 23.5 14.31 25.3 11.93 25.3C9.55 25.3 8.06 23.49 8.06 20.64C8.06 17.77 9.55 15.97 11.93 15.97C14.31 15.97 15.8 17.77 15.8 20.64ZM19.12 10.55L18.08 10.62C17.49 10.66 17.23 10.87 17.23 11.25C17.23 11.65 17.56 11.87 18.02 11.87C18.65 11.87 19.12 11.46 19.12 10.91V10.55ZM34 17C34 26.49 26.49 34 17 34C7.51 34 0 26.49 0 17C0 7.51 7.51 0 17 0C26.49 0 34 7.51 34 17ZM20.94 10.34C20.94 11.72 21.7 12.56 22.94 12.56C23.99 12.56 24.65 11.97 24.76 11.13H23.94C23.83 11.59 23.47 11.84 22.94 11.84C22.24 11.84 21.81 11.27 21.81 10.34C21.81 9.42 22.24 8.87 22.94 8.87C23.5 8.87 23.85 9.19 23.94 9.6H24.76C24.65 8.78 24.01 8.16 22.94 8.16C21.7 8.15 20.94 8.99 20.94 10.34ZM9.51 8.24V12.48H10.35V9.88C10.35 9.33 10.74 8.89 11.25 8.89C11.75 8.89 12.07 9.19 12.07 9.67V12.48H12.89V9.8C12.89 9.29 13.24 8.89 13.79 8.89C14.34 8.89 14.61 9.17 14.61 9.76V12.48H15.45V9.55C15.45 8.67 14.95 8.15 14.09 8.15C13.5 8.15 13.01 8.45 12.8 8.91H12.73C12.54 8.45 12.14 8.15 11.56 8.15C10.99 8.15 10.56 8.43 10.38 8.91H10.32V8.23L9.51 8.24ZM17.29 20.64C17.29 16.95 15.23 14.63 11.93 14.63C8.63 14.63 6.57 16.95 6.57 20.64C6.57 24.33 8.63 26.64 11.93 26.64C15.23 26.64 17.29 24.32 17.29 20.64ZM17.81 12.55C18.37 12.55 18.83 12.31 19.09 11.88H19.16V12.48H19.97V9.58C19.97 8.69 19.37 8.16 18.3 8.16C17.33 8.16 16.65 8.63 16.56 9.34H17.37C17.46 9.03 17.79 8.86 18.26 8.86C18.83 8.86 19.13 9.12 19.13 9.59V9.96L17.98 10.03C16.97 10.09 16.4 10.53 16.4 11.3C16.39 12.06 16.99 12.55 17.81 12.55ZM26.98 23.14C26.98 21.49 26.02 20.53 23.6 20L22.31 19.72C20.72 19.37 20.1 18.74 20.1 17.83C20.1 16.65 21.22 15.94 22.67 15.94C24.19 15.94 25.19 16.72 25.32 18H26.77C26.7 16.03 25.03 14.64 22.71 14.64C20.3 14.64 18.61 15.99 18.61 17.9C18.61 19.55 19.62 20.61 21.95 21.12L23.24 21.4C24.85 21.75 25.5 22.4 25.5 23.37C25.5 24.51 24.35 25.34 22.78 25.34C21.11 25.34 19.95 24.58 19.78 23.33H18.33C18.47 25.34 20.16 26.64 22.7 26.64C25.29 26.64 26.98 25.29 26.98 23.14Z" fill="url(#paint0_linear_314_164)"/>
<path d="M15.8 20.64C15.8 23.5 14.31 25.3 11.93 25.3C9.55 25.3 8.06 23.49 8.06 20.64C8.06 17.77 9.55 15.97 11.93 15.97C14.31 15.97 15.8 17.77 15.8 20.64ZM19.12 10.55L18.08 10.62C17.49 10.66 17.23 10.87 17.23 11.25C17.23 11.65 17.56 11.87 18.02 11.87C18.65 11.87 19.12 11.46 19.12 10.91V10.55ZM34 17C34 26.49 26.49 34 17 34C7.51 34 0 26.49 0 17C0 7.51 7.51 0 17 0C26.49 0 34 7.51 34 17ZM20.94 10.34C20.94 11.72 21.7 12.56 22.94 12.56C23.99 12.56 24.65 11.97 24.76 11.13H23.94C23.83 11.59 23.47 11.84 22.94 11.84C22.24 11.84 21.81 11.27 21.81 10.34C21.81 9.42 22.24 8.87 22.94 8.87C23.5 8.87 23.85 9.19 23.94 9.6H24.76C24.65 8.78 24.01 8.16 22.94 8.16C21.7 8.15 20.94 8.99 20.94 10.34ZM9.51 8.24V12.48H10.35V9.88C10.35 9.33 10.74 8.89 11.25 8.89C11.75 8.89 12.07 9.19 12.07 9.67V12.48H12.89V9.8C12.89 9.29 13.24 8.89 13.79 8.89C14.34 8.89 14.61 9.17 14.61 9.76V12.48H15.45V9.55C15.45 8.67 14.95 8.15 14.09 8.15C13.5 8.15 13.01 8.45 12.8 8.91H12.73C12.54 8.45 12.14 8.15 11.56 8.15C10.99 8.15 10.56 8.43 10.38 8.91H10.32V8.23L9.51 8.24ZM17.29 20.64C17.29 16.95 15.23 14.63 11.93 14.63C8.63 14.63 6.57 16.95 6.57 20.64C6.57 24.33 8.63 26.64 11.93 26.64C15.23 26.64 17.29 24.32 17.29 20.64ZM17.81 12.55C18.37 12.55 18.83 12.31 19.09 11.88H19.16V12.48H19.97V9.58C19.97 8.69 19.37 8.16 18.3 8.16C17.33 8.16 16.65 8.63 16.56 9.34H17.37C17.46 9.03 17.79 8.86 18.26 8.86C18.83 8.86 19.13 9.12 19.13 9.59V9.96L17.98 10.03C16.97 10.09 16.4 10.53 16.4 11.3C16.39 12.06 16.99 12.55 17.81 12.55ZM26.98 23.14C26.98 21.49 26.02 20.53 23.6 20L22.31 19.72C20.72 19.37 20.1 18.74 20.1 17.83C20.1 16.65 21.22 15.94 22.67 15.94C24.19 15.94 25.19 16.72 25.32 18H26.77C26.7 16.03 25.03 14.64 22.71 14.64C20.3 14.64 18.61 15.99 18.61 17.9C18.61 19.55 19.62 20.61 21.95 21.12L23.24 21.4C24.85 21.75 25.5 22.4 25.5 23.37C25.5 24.51 24.35 25.34 22.78 25.34C21.11 25.34 19.95 24.58 19.78 23.33H18.33C18.47 25.34 20.16 26.64 22.7 26.64C25.29 26.64 26.98 25.29 26.98 23.14Z" fill="url(#paint1_linear_314_164)" fill-opacity="0.2"/>
<path d="M15.8 20.64C15.8 23.5 14.31 25.3 11.93 25.3C9.55 25.3 8.06 23.49 8.06 20.64C8.06 17.77 9.55 15.97 11.93 15.97C14.31 15.97 15.8 17.77 15.8 20.64ZM19.12 10.55L18.08 10.62C17.49 10.66 17.23 10.87 17.23 11.25C17.23 11.65 17.56 11.87 18.02 11.87C18.65 11.87 19.12 11.46 19.12 10.91V10.55ZM34 17C34 26.49 26.49 34 17 34C7.51 34 0 26.49 0 17C0 7.51 7.51 0 17 0C26.49 0 34 7.51 34 17ZM20.94 10.34C20.94 11.72 21.7 12.56 22.94 12.56C23.99 12.56 24.65 11.97 24.76 11.13H23.94C23.83 11.59 23.47 11.84 22.94 11.84C22.24 11.84 21.81 11.27 21.81 10.34C21.81 9.42 22.24 8.87 22.94 8.87C23.5 8.87 23.85 9.19 23.94 9.6H24.76C24.65 8.78 24.01 8.16 22.94 8.16C21.7 8.15 20.94 8.99 20.94 10.34ZM9.51 8.24V12.48H10.35V9.88C10.35 9.33 10.74 8.89 11.25 8.89C11.75 8.89 12.07 9.19 12.07 9.67V12.48H12.89V9.8C12.89 9.29 13.24 8.89 13.79 8.89C14.34 8.89 14.61 9.17 14.61 9.76V12.48H15.45V9.55C15.45 8.67 14.95 8.15 14.09 8.15C13.5 8.15 13.01 8.45 12.8 8.91H12.73C12.54 8.45 12.14 8.15 11.56 8.15C10.99 8.15 10.56 8.43 10.38 8.91H10.32V8.23L9.51 8.24ZM17.29 20.64C17.29 16.95 15.23 14.63 11.93 14.63C8.63 14.63 6.57 16.95 6.57 20.64C6.57 24.33 8.63 26.64 11.93 26.64C15.23 26.64 17.29 24.32 17.29 20.64ZM17.81 12.55C18.37 12.55 18.83 12.31 19.09 11.88H19.16V12.48H19.97V9.58C19.97 8.69 19.37 8.16 18.3 8.16C17.33 8.16 16.65 8.63 16.56 9.34H17.37C17.46 9.03 17.79 8.86 18.26 8.86C18.83 8.86 19.13 9.12 19.13 9.59V9.96L17.98 10.03C16.97 10.09 16.4 10.53 16.4 11.3C16.39 12.06 16.99 12.55 17.81 12.55ZM26.98 23.14C26.98 21.49 26.02 20.53 23.6 20L22.31 19.72C20.72 19.37 20.1 18.74 20.1 17.83C20.1 16.65 21.22 15.94 22.67 15.94C24.19 15.94 25.19 16.72 25.32 18H26.77C26.7 16.03 25.03 14.64 22.71 14.64C20.3 14.64 18.61 15.99 18.61 17.9C18.61 19.55 19.62 20.61 21.95 21.12L23.24 21.4C24.85 21.75 25.5 22.4 25.5 23.37C25.5 24.51 24.35 25.34 22.78 25.34C21.11 25.34 19.95 24.58 19.78 23.33H18.33C18.47 25.34 20.16 26.64 22.7 26.64C25.29 26.64 26.98 25.29 26.98 23.14Z" fill="url(#paint2_radial_314_164)" fill-opacity="0.4"/>
</g>
<defs>
<linearGradient id="paint0_linear_314_164" x1="17" y1="0" x2="17" y2="34" gradientUnits="userSpaceOnUse">
<stop stop-color="#018197"/>
<stop offset="1" stop-color="#22CF48"/>
</linearGradient>
<linearGradient id="paint1_linear_314_164" x1="15.3" y1="20.8813" x2="29.3742" y2="8.47583" gradientUnits="userSpaceOnUse">
<stop stop-color="#0265A5"/>
<stop offset="1" stop-color="#00FF66"/>
</linearGradient>
<radialGradient id="paint2_radial_314_164" cx="0" cy="0" r="1" gradientUnits="userSpaceOnUse" gradientTransform="translate(31.9104 33.0476) rotate(-73.1985) scale(15.4688 15.4659)">
<stop stop-color="#44D1F0"/>
<stop offset="1" stop-color="#4B84DA" stop-opacity="0.34"/>
</radialGradient>
<clipPath id="clip0_314_164">
<rect width="34" height="34" fill="white"/>
</clipPath>
</defs>
</svg>
