								<svg width="16" height="16" viewBox="0 0 16 16" fill="none" xmlns="http://www.w3.org/2000/svg">
									<path
										d="M14.5 7.13397C15.1667 7.51888 15.1667 8.48112 14.5 8.86603L5.5 14.0622C4.83333 14.4471 4 13.966 4 13.1962L4 2.80385C4 2.03405 4.83333 1.55292 5.5 1.93782L14.5 7.13397Z"
										fill="url(#paint0_linear_2694_20224)" />
									<mask id="mask0_2694_20224" style="mask-type:alpha" maskUnits="userSpaceOnUse" x="4" y="1" width="11"
										height="14">
										<path
											d="M14.5 7.13397C15.1667 7.51888 15.1667 8.48112 14.5 8.86603L5.5 14.0622C4.83333 14.4471 4 13.966 4 13.1962L4 2.80385C4 2.03405 4.83333 1.55292 5.5 1.93782L14.5 7.13397Z"
											fill="url(#paint1_linear_2694_20224)" />
									</mask>
									<g mask="url(#mask0_2694_20224)">
										<g filter="url(#filter0_f_2694_20224)">
											<circle cx="20" cy="12" r="5" fill="#40527B" />
										</g>
										<g filter="url(#filter1_f_2694_20224)">
											<ellipse cx="5.5" cy="-2" rx="5.5" ry="5" fill="#40527B" />
										</g>
									</g>
									<defs>
										<filter id="filter0_f_2694_20224" x="8" y="0" width="24" height="24" filterUnits="userSpaceOnUse"
											color-interpolation-filters="sRGB">
											<feFlood flood-opacity="0" result="BackgroundImageFix" />
											<feBlend mode="normal" in="SourceGraphic" in2="BackgroundImageFix" result="shape" />
											<feGaussianBlur stdDeviation="3.5" result="effect1_foregroundBlur_2694_20224" />
										</filter>
										<filter id="filter1_f_2694_20224" x="-7" y="-14" width="25" height="24" filterUnits="userSpaceOnUse"
											color-interpolation-filters="sRGB">
											<feFlood flood-opacity="0" result="BackgroundImageFix" />
											<feBlend mode="normal" in="SourceGraphic" in2="BackgroundImageFix" result="shape" />
											<feGaussianBlur stdDeviation="3.5" result="effect1_foregroundBlur_2694_20224" />
										</filter>
										<linearGradient id="paint0_linear_2694_20224" x1="16" y1="8" x2="-3.49691e-07" y2="8"
											gradientUnits="userSpaceOnUse">
											<stop stop-color="#303F61" />
											<stop offset="1" stop-color="#1A1C21" />
										</linearGradient>
										<linearGradient id="paint1_linear_2694_20224" x1="17" y1="8" x2="5.08598e-08" y2="8"
											gradientUnits="userSpaceOnUse">
											<stop stop-color="#303F61" />
											<stop offset="1" stop-color="#1A1C21" />
										</linearGradient>
									</defs>
								</svg>