<svg width="16" height="16" viewBox="0 0 16 16" fill="none" xmlns="http://www.w3.org/2000/svg">
<g clip-path="url(#clip0_3052_180)">
<mask id="mask0_3052_180" style="mask-type:luminance" maskUnits="userSpaceOnUse" x="0" y="0" width="16" height="16">
<path d="M16 0H0V16H16V0Z" fill="white"/>
</mask>
<g mask="url(#mask0_3052_180)">
<path d="M15.6112 7.05714L14.52 5.9661C14.261 5.70711 14.0488 5.19531 14.0488 4.82827V3.28527C14.0488 2.55127 13.4492 1.95165 12.7154 1.95126H11.1717C10.8051 1.95126 10.2927 1.73864 10.0337 1.47984L8.94266 0.388806C8.42426 -0.129602 7.57545 -0.129602 7.05704 0.388806L5.966 1.48062C5.70678 1.73961 5.1938 1.95165 4.82797 1.95165H3.28498C2.55195 1.95165 1.95155 2.55127 1.95155 3.28527V4.82831C1.95155 5.1939 1.73936 5.70731 1.48033 5.96614L0.389099 7.05718C-0.1297 7.57559 -0.1297 8.42439 0.389099 8.94362L1.48033 10.0347C1.73952 10.2936 1.95155 10.8069 1.95155 11.1725V12.7155C1.95155 13.4488 2.55195 14.0492 3.28498 14.0492H4.82801C5.19462 14.0492 5.70702 14.2613 5.96604 14.5202L7.05708 15.6116C7.57549 16.1296 8.4243 16.1296 8.9427 15.6116L10.0337 14.5202C10.293 14.2612 10.8052 14.0492 11.1718 14.0492H12.7154C13.4492 14.0492 14.0488 13.4488 14.0488 12.7155V11.1725C14.0488 10.8053 14.2612 10.2935 14.52 10.0347L15.6113 8.94362C16.1293 8.42439 16.1293 7.57555 15.6112 7.05714ZM7.1536 10.7881C7.03643 10.9053 6.84649 10.9052 6.72934 10.7881L4.21173 8.27013C4.09457 8.15297 4.09459 7.96301 4.21176 7.84586L4.7303 7.32743C4.84746 7.2103 5.03739 7.21031 5.15454 7.32746L6.72958 8.9025C6.84673 9.01964 7.03666 9.01966 7.15382 8.90252L10.845 5.21219C10.9622 5.09506 11.1521 5.09507 11.2693 5.21222L11.7876 5.73059C11.9048 5.84776 11.9048 6.03772 11.7876 6.15487L7.1536 10.7881Z" fill="url(#paint0_linear_3052_180)"/>
<path d="M13.7988 4.82827V3.28527C13.7988 2.68934 13.3111 2.20158 12.7152 2.20126H11.1717C10.9459 2.20126 10.6929 2.1373 10.4667 2.04355C10.2404 1.94979 10.0165 1.81606 9.85698 1.6567L8.76587 0.565583C8.34509 0.144806 7.65458 0.144806 7.2338 0.565583L6.14282 1.65734C5.98313 1.81689 5.75876 1.95067 5.53252 2.04427C5.30628 2.13787 5.05333 2.20165 4.82796 2.20165H3.28496C2.68993 2.20165 2.20153 2.68941 2.20153 3.28527V4.82831C2.20153 5.0536 2.1377 5.30661 2.04405 5.53286C1.95043 5.75909 1.81673 5.98338 1.65707 6.14293L0.565835 7.23397C0.144832 7.65466 0.144581 8.34523 0.565924 8.76692L1.65702 9.85781C1.81677 10.0174 1.95049 10.2417 2.04412 10.468C2.13775 10.6942 2.20153 10.9472 2.20153 11.1725V12.7155C2.20153 13.3107 2.69003 13.7992 3.28496 13.7992H4.82799C5.05375 13.7992 5.30675 13.863 5.53297 13.9566C5.75919 14.0503 5.98317 14.1839 6.14272 14.3433L7.23377 15.4348C7.65454 15.8551 8.34521 15.8551 8.76597 15.4348L9.85702 14.3433C10.0167 14.1838 10.2407 14.0502 10.4669 13.9566C10.6931 13.8629 10.946 13.7992 11.1718 13.7992H12.7154C13.311 13.7992 13.7988 13.3108 13.7988 12.7155V11.1725C13.7988 10.9464 13.8627 10.6934 13.9564 10.4672C14.0501 10.2411 14.1838 10.0173 14.3433 9.85787L15.4343 8.76706C15.7313 8.46928 15.8654 8.01201 15.5747 7.49917C15.0636 6.59764 13.8727 6.21471 13.7988 4.82827Z" stroke="url(#paint1_linear_3052_180)" stroke-width="0.5"/>
<mask id="mask1_3052_180" style="mask-type:alpha" maskUnits="userSpaceOnUse" x="0" y="0" width="16" height="16">
<path d="M15.6112 7.05714L14.52 5.9661C14.261 5.70711 14.0488 5.19531 14.0488 4.82827V3.28527C14.0488 2.55127 13.4492 1.95165 12.7154 1.95126H11.1717C10.8051 1.95126 10.2927 1.73864 10.0337 1.47984L8.94267 0.388806C8.42426 -0.129602 7.57545 -0.129602 7.05704 0.388806L5.966 1.48062C5.70678 1.73961 5.1938 1.95165 4.82798 1.95165H3.28498C2.55195 1.95165 1.95155 2.55127 1.95155 3.28527V4.82831C1.95155 5.1939 1.73936 5.70731 1.48033 5.96614L0.389099 7.05718C-0.1297 7.57559 -0.1297 8.42439 0.389099 8.94362L1.48033 10.0347C1.73952 10.2936 1.95155 10.8069 1.95155 11.1725V12.7155C1.95155 13.4487 2.55195 14.0492 3.28498 14.0492H4.82801C5.19462 14.0492 5.70702 14.2613 5.96604 14.5202L7.05708 15.6116C7.57549 16.1296 8.4243 16.1296 8.9427 15.6116L10.0337 14.5202C10.293 14.2612 10.8052 14.0492 11.1718 14.0492H12.7154C13.4492 14.0492 14.0488 13.4487 14.0488 12.7155V11.1725C14.0488 10.8053 14.2612 10.2935 14.52 10.0347L15.6113 8.94362C16.1293 8.42439 16.1293 7.57555 15.6112 7.05714ZM7.1536 10.7881C7.03643 10.9053 6.84649 10.9052 6.72934 10.7881L4.21173 8.27013C4.09457 8.15297 4.09459 7.96301 4.21176 7.84586L4.7303 7.32743C4.84746 7.2103 5.03739 7.21031 5.15454 7.32746L6.72958 8.9025C6.84673 9.01964 7.03666 9.01965 7.15382 8.90252L10.845 5.21219C10.9622 5.09506 11.1521 5.09507 11.2693 5.21222L11.7876 5.73059C11.9048 5.84776 11.9048 6.03772 11.7876 6.15487L7.1536 10.7881Z" fill="url(#paint2_linear_3052_180)"/>
</mask>
<g mask="url(#mask1_3052_180)">
<g filter="url(#filter0_f_3052_180)">
<path d="M3.32812 17.3346C6.64183 17.3346 9.32812 14.9468 9.32812 12.0013C9.32812 9.05578 6.64183 6.66797 3.32812 6.66797C0.0144165 6.66797 -2.67188 9.05578 -2.67188 12.0013C-2.67188 14.9468 0.0144165 17.3346 3.32812 17.3346Z" fill="#303E61"/>
</g>
<g filter="url(#filter1_f_3052_180)">
<path d="M16.6615 13.3346C20.7115 13.3346 23.9948 10.0514 23.9948 6.0013C23.9948 1.95121 20.7115 -1.33203 16.6615 -1.33203C12.6114 -1.33203 9.32812 1.95121 9.32812 6.0013C9.32812 10.0514 12.6114 13.3346 16.6615 13.3346Z" fill="#40527B"/>
</g>
</g>
</g>
</g>
<defs>
<filter id="filter0_f_3052_180" x="-7.67188" y="1.66797" width="22" height="20.668" filterUnits="userSpaceOnUse" color-interpolation-filters="sRGB">
<feFlood flood-opacity="0" result="BackgroundImageFix"/>
<feBlend mode="normal" in="SourceGraphic" in2="BackgroundImageFix" result="shape"/>
<feGaussianBlur stdDeviation="2.5" result="effect1_foregroundBlur_3052_180"/>
</filter>
<filter id="filter1_f_3052_180" x="2.32812" y="-8.33203" width="28.668" height="28.668" filterUnits="userSpaceOnUse" color-interpolation-filters="sRGB">
<feFlood flood-opacity="0" result="BackgroundImageFix"/>
<feBlend mode="normal" in="SourceGraphic" in2="BackgroundImageFix" result="shape"/>
<feGaussianBlur stdDeviation="3.5" result="effect1_foregroundBlur_3052_180"/>
</filter>
<linearGradient id="paint0_linear_3052_180" x1="7.99988" y1="0" x2="7.99988" y2="16.0001" gradientUnits="userSpaceOnUse">
<stop stop-color="#354261"/>
<stop offset="1" stop-color="#343C50"/>
</linearGradient>
<linearGradient id="paint1_linear_3052_180" x1="7.99988" y1="-1.32042e-07" x2="4" y2="14.6667" gradientUnits="userSpaceOnUse">
<stop stop-color="#AEC4FA"/>
<stop offset="1" stop-color="#7E90BA"/>
</linearGradient>
<linearGradient id="paint2_linear_3052_180" x1="7.99988" y1="0" x2="7.99988" y2="16.0001" gradientUnits="userSpaceOnUse">
<stop stop-color="#9FACCB"/>
<stop offset="1" stop-color="#343C50"/>
</linearGradient>
<clipPath id="clip0_3052_180">
<rect width="16" height="16" fill="white"/>
</clipPath>
</defs>
</svg>
