<svg width="768" height="224" viewBox="0 0 768 224" fill="none" xmlns="http://www.w3.org/2000/svg">
  <g clip-path="url(#clip0_2451_1441)">
    <path d="M820.606 224V23.2373C778.49 35.4817 795.852 125.44 780.017 129.043C764.182 132.646 757.869 98.5608 753.635 99.5151C749.4 100.469 754.386 145.608 729.507 128.325C718.713 120.827 723.139 83.5561 743.883 78.1544C764.627 72.7527 774.062 45.8332 754.43 36.1413C719.755 19.0227 754.43 0.730225 754.43 0.730225C735.59 0.730225 718.945 11.7106 729.507 23.2373C740.068 34.7639 728.048 80.0647 707.705 68.538C687.362 57.0114 698.661 21.0096 698.661 21.0096C648.151 59.1787 725.136 92.1339 694.232 107.264C663.328 122.393 651.17 80.7825 651.17 80.7825C624.788 102.386 693.329 166.494 650.375 165.044C607.421 163.595 654.897 113.181 622.49 100.951C590.083 88.72 608.923 53.4222 608.923 53.4222C556.159 75.7439 631.495 180.787 584.968 180.787C538.441 180.787 595.357 132.646 570.477 123.286C545.598 113.927 570.477 88.9578 570.477 88.9578C570.477 88.9578 541.075 98.7972 545.598 113.927C550.12 129.056 527.634 137.273 524.489 112.491C521.344 87.7094 541.827 69.2835 541.827 69.2835C466.999 88.72 528.26 146.353 495.839 165.072C463.417 183.791 448.854 130.506 448.854 130.506C448.854 130.506 438.552 142.033 447.597 169.393C456.641 196.753 413.673 198.203 425.737 159.316C427.676 131.224 393.33 131.224 393.33 131.224C393.33 131.224 427.076 163.981 393.33 166.521C359.584 169.062 376.946 131.224 376.946 131.224C329.456 147.596 366.933 183.087 356.386 188.843C345.839 194.6 333.775 189.561 333.024 178.766C332.273 167.971 306.705 151.978 306.705 151.978C306.705 151.978 333.024 193.896 296.08 193.896C259.137 193.896 290.195 137.573 264.425 134.123C238.654 130.672 257.176 98.5608 257.176 98.5608C257.176 98.5608 234.062 100.661 232.018 120.015C229.973 139.368 259.577 178.766 219.202 177.33C178.827 175.895 229.749 101.71 201.865 93.0684C173.98 84.4269 176.985 64.9503 176.985 64.9503C144.578 103.837 201.865 116.122 176.985 131.969C152.106 147.817 143.061 108.916 143.061 108.916C118.933 131.969 173.214 188.139 123.773 185.986C74.3319 183.832 128.701 120.015 94.0534 112.519C59.4062 105.023 74.6691 86.257 74.6691 86.257C47.5356 106.425 89.5312 130.533 56.3586 139.175C23.1859 147.817 22.5806 96.7252 37.5183 80.8377C52.456 64.9503 55.829 47.5449 37.5183 42.1432C19.2076 36.7415 21.5379 13.9344 21.5379 13.9344C-2.17599 42.7434 30.8434 42.7434 15.6584 61.3874C0.473511 80.0313 -6.67862 46.0444 -6.67862 46.0444C-54.7068 77.8543 6.96712 129.47 -29.7922 129.47C-66.5515 129.47 -77.8203 90.4583 -77.8203 90.4583V224.9L820.606 224Z" fill="#BBFF00" />
  </g>
  <defs>
    <clipPath id="clip0_2451_1441">
      <rect width="768" height="224" fill="white" />
    </clipPath>
  </defs>
</svg>