        <svg width="1920" height="478" viewBox="0 0 1920 478" fill="none" xmlns="http://www.w3.org/2000/svg">
          <path d="M1920 476.08V47.992C1830 74.101 1867.1 265.919 1833.26 273.602C1799.42 281.284 1785.93 208.605 1776.88 210.64C1767.83 212.675 1778.48 308.924 1725.31 272.071C1702.25 256.083 1711.71 176.61 1756.04 165.092C1800.37 153.574 1820.53 96.1736 1778.58 75.5074C1704.47 39.0052 1778.58 0 1778.58 0C1738.31 0 1702.74 23.4136 1725.31 47.992C1747.88 72.5704 1722.2 169.166 1678.72 144.587C1635.25 120.009 1659.39 43.2418 1659.39 43.2418C1551.45 124.63 1715.97 194.901 1649.93 227.162C1583.89 259.423 1557.9 170.696 1557.9 170.696C1501.52 216.762 1648 353.459 1556.2 350.369C1464.41 347.278 1565.87 239.781 1496.61 213.701C1427.36 187.621 1467.62 112.356 1467.62 112.356C1354.86 159.952 1515.86 383.936 1416.43 383.936C1316.99 383.936 1438.63 281.284 1385.46 261.327C1332.29 241.37 1385.46 188.129 1385.46 188.129C1385.46 188.129 1322.62 209.109 1332.29 241.37C1341.95 273.631 1293.9 291.151 1287.18 238.309C1280.46 185.467 1324.23 146.177 1324.23 146.177C1164.32 187.621 1295.24 310.513 1225.95 350.428C1156.66 390.342 1125.54 276.722 1125.54 276.722C1125.54 276.722 1103.52 301.3 1122.85 359.641C1142.18 417.981 1050.35 421.072 1076.14 338.153C1080.28 278.252 1006.88 278.252 1006.88 278.252C1006.88 278.252 1079 348.102 1006.88 353.518C934.764 358.935 971.868 278.252 971.868 278.252C870.377 313.162 950.47 388.841 927.93 401.115C905.39 413.389 879.608 402.646 878.003 379.627C876.397 356.609 821.757 322.506 821.757 322.506C821.757 322.506 878.003 411.888 799.052 411.888C720.101 411.888 786.475 291.791 731.401 284.434C676.328 277.077 715.91 208.605 715.91 208.605C715.91 208.605 666.515 213.084 662.145 254.351C657.775 295.618 721.042 379.627 634.758 376.566C548.474 373.505 657.298 215.32 597.706 196.894C538.115 178.467 544.537 136.937 544.537 136.937C475.281 219.856 597.706 246.05 544.537 279.842C491.368 313.634 472.039 230.685 472.039 230.685C420.475 279.842 536.478 399.614 430.819 395.022C325.16 390.43 441.35 254.351 367.306 238.368C293.263 222.384 325.88 182.369 325.88 182.369C267.894 225.374 357.642 276.781 286.75 295.207C215.857 313.634 214.564 204.691 246.487 170.814C278.41 136.937 285.618 99.8233 246.487 88.3052C207.355 76.7871 212.335 28.1553 212.335 28.1553C161.657 89.585 232.222 89.585 199.771 129.34C167.319 169.095 152.035 96.6238 152.035 96.6238C49.3953 164.452 181.197 274.514 102.639 274.514C24.0823 274.514 0 191.328 0 191.328V478L1920 476.08Z" fill="#BBFF00" />
        </svg>