							<svg width="60" height="60" viewBox="0 0 60 60" fill="none" xmlns="http://www.w3.org/2000/svg">
								<g filter="url(#filter0_b_2729_2857)">
									<rect width="60" height="60" rx="12" fill="#131827" />
								</g>
								<mask id="mask0_2729_2857" style="mask-type:alpha" maskUnits="userSpaceOnUse" x="0" y="0" width="60" height="60">
									<rect x="0.25" y="0.25" width="59.5" height="59.5" rx="11.75" fill="#131827" stroke="url(#paint0_linear_2729_2857)" stroke-width="0.5" />
								</mask>
								<g mask="url(#mask0_2729_2857)">
									<rect x="6" y="3" width="1" height="1" fill="#323F5F" />
									<rect x="2" y="3" width="1" height="1" fill="#323F5F" />
									<rect x="10" y="3" width="1" height="1" fill="#323F5F" />
									<rect x="14" y="3" width="1" height="1" fill="#323F5F" />
									<rect x="18" y="3" width="1" height="1" fill="#323F5F" />
									<rect x="22" y="3" width="1" height="1" fill="#323F5F" />
									<rect x="26" y="3" width="1" height="1" fill="#323F5F" />
									<rect x="30" y="3" width="1" height="1" fill="#323F5F" />
									<rect x="34" y="3" width="1" height="1" fill="#323F5F" />
									<rect x="38" y="3" width="1" height="1" fill="#323F5F" />
									<rect x="42" y="3" width="1" height="1" fill="#323F5F" />
									<rect x="46" y="3" width="1" height="1" fill="#323F5F" />
									<rect x="50" y="3" width="1" height="1" fill="#323F5F" />
									<rect x="54" y="3" width="1" height="1" fill="#323F5F" />
									<rect x="58" y="3" width="1" height="1" fill="#323F5F" />
									<rect x="6" y="7" width="1" height="1" fill="#323F5F" />
									<rect x="2" y="7" width="1" height="1" fill="#323F5F" />
									<rect x="10" y="7" width="1" height="1" fill="#323F5F" />
									<rect x="14" y="7" width="1" height="1" fill="#323F5F" />
									<rect x="18" y="7" width="1" height="1" fill="#323F5F" />
									<rect opacity="0.3" x="22" y="7" width="1" height="1" fill="#323F5F" />
									<rect opacity="0.3" x="26" y="7" width="1" height="1" fill="#323F5F" />
									<rect opacity="0.3" x="30" y="7" width="1" height="1" fill="#323F5F" />
									<rect x="34" y="7" width="1" height="1" fill="#323F5F" />
									<rect opacity="0.6" x="38" y="7" width="1" height="1" fill="#323F5F" />
									<rect opacity="0.6" x="42" y="7" width="1" height="1" fill="#323F5F" />
									<rect opacity="0.6" x="46" y="7" width="1" height="1" fill="#323F5F" />
									<rect x="50" y="7" width="1" height="1" fill="#323F5F" />
									<rect x="54" y="7" width="1" height="1" fill="#323F5F" />
									<rect x="58" y="7" width="1" height="1" fill="#323F5F" />
									<rect opacity="0.6" x="6" y="11" width="1" height="1" fill="#323F5F" />
									<rect x="2" y="11" width="1" height="1" fill="#323F5F" />
									<rect opacity="0.3" x="10" y="11" width="1" height="1" fill="#323F5F" />
									<rect opacity="0.3" x="14" y="11" width="1" height="1" fill="#323F5F" />
									<rect x="18" y="11" width="1" height="1" fill="#323F5F" />
									<rect x="22" y="11" width="1" height="1" fill="#323F5F" />
									<rect x="26" y="11" width="1" height="1" fill="#323F5F" />
									<rect opacity="0.3" x="30" y="11" width="1" height="1" fill="#323F5F" />
									<rect opacity="0.3" x="34" y="11" width="1" height="1" fill="#323F5F" />
									<rect opacity="0.3" x="38" y="11" width="1" height="1" fill="#323F5F" />
									<rect opacity="0.6" x="42" y="11" width="1" height="1" fill="#323F5F" />
									<rect opacity="0.3" x="46" y="11" width="1" height="1" fill="#323F5F" />
									<rect opacity="0.3" x="50" y="11" width="1" height="1" fill="#323F5F" />
									<rect x="54" y="11" width="1" height="1" fill="#323F5F" />
									<rect x="58" y="11" width="1" height="1" fill="#323F5F" />
									<rect opacity="0.6" x="6" y="15" width="1" height="1" fill="#323F5F" />
									<rect opacity="0.6" x="2" y="15" width="1" height="1" fill="#323F5F" />
									<rect opacity="0.1" x="10" y="15" width="1" height="1" fill="#323F5F" />
									<rect opacity="0.1" x="14" y="15" width="1" height="1" fill="#323F5F" />
									<rect opacity="0.1" x="18" y="15" width="1" height="1" fill="#323F5F" />
									<rect opacity="0.1" x="22" y="15" width="1" height="1" fill="#323F5F" />
									<rect opacity="0.1" x="26" y="15" width="1" height="1" fill="#323F5F" />
									<rect opacity="0.3" x="30" y="15" width="1" height="1" fill="#323F5F" />
									<rect opacity="0.3" x="34" y="15" width="1" height="1" fill="#323F5F" />
									<rect opacity="0.3" x="38" y="15" width="1" height="1" fill="#323F5F" />
									<rect opacity="0.3" x="42" y="15" width="1" height="1" fill="#323F5F" />
									<rect opacity="0.3" x="46" y="15" width="1" height="1" fill="#323F5F" />
									<rect opacity="0.3" x="50" y="15" width="1" height="1" fill="#323F5F" />
									<rect x="54" y="15" width="1" height="1" fill="#323F5F" />
									<rect x="58" y="15" width="1" height="1" fill="#323F5F" />
									<rect x="6" y="19" width="1" height="1" fill="#323F5F" />
									<rect x="2" y="19" width="1" height="1" fill="#323F5F" />
									<rect x="10" y="19" width="1" height="1" fill="#323F5F" />
									<rect x="14" y="19" width="1" height="1" fill="#323F5F" />
									<rect x="18" y="19" width="1" height="1" fill="#323F5F" />
									<rect x="22" y="19" width="1" height="1" fill="#323F5F" />
									<rect x="26" y="19" width="1" height="1" fill="#323F5F" />
									<rect x="30" y="19" width="1" height="1" fill="#323F5F" />
									<rect x="34" y="19" width="1" height="1" fill="#323F5F" />
									<rect x="38" y="19" width="1" height="1" fill="#323F5F" />
									<rect x="42" y="19" width="1" height="1" fill="#323F5F" />
									<rect x="46" y="19" width="1" height="1" fill="#323F5F" />
									<rect x="50" y="19" width="1" height="1" fill="#323F5F" />
									<rect opacity="0.6" x="54" y="19" width="1" height="1" fill="#323F5F" />
									<rect x="58" y="19" width="1" height="1" fill="#323F5F" />
									<g opacity="0.3">
										<rect x="6" y="23" width="1" height="1" fill="#323F5F" />
										<rect x="2" y="23" width="1" height="1" fill="#323F5F" />
										<rect x="10" y="23" width="1" height="1" fill="#323F5F" />
										<rect x="14" y="23" width="1" height="1" fill="#323F5F" />
										<rect x="18" y="23" width="1" height="1" fill="#323F5F" />
										<rect x="22" y="23" width="1" height="1" fill="#323F5F" />
										<rect x="26" y="23" width="1" height="1" fill="#323F5F" />
										<rect x="30" y="23" width="1" height="1" fill="#323F5F" />
										<rect x="34" y="23" width="1" height="1" fill="#323F5F" />
										<rect x="38" y="23" width="1" height="1" fill="#323F5F" />
										<rect x="42" y="23" width="1" height="1" fill="#323F5F" />
										<rect x="46" y="23" width="1" height="1" fill="#323F5F" />
										<rect x="50" y="23" width="1" height="1" fill="#323F5F" />
										<rect opacity="0.6" x="54" y="23" width="1" height="1" fill="#323F5F" />
										<rect x="58" y="23" width="1" height="1" fill="#323F5F" />
									</g>
									<g opacity="0.3">
										<rect x="6" y="27" width="1" height="1" fill="#323F5F" />
										<rect opacity="0.1" x="2" y="27" width="1" height="1" fill="#323F5F" />
										<rect x="10" y="27" width="1" height="1" fill="#323F5F" />
										<rect x="14" y="27" width="1" height="1" fill="#323F5F" />
										<rect x="18" y="27" width="1" height="1" fill="#323F5F" />
										<rect x="22" y="27" width="1" height="1" fill="#323F5F" />
										<rect x="26" y="27" width="1" height="1" fill="#323F5F" />
										<rect x="30" y="27" width="1" height="1" fill="#323F5F" />
										<rect x="34" y="27" width="1" height="1" fill="#323F5F" />
										<rect x="38" y="27" width="1" height="1" fill="#323F5F" />
										<rect x="42" y="27" width="1" height="1" fill="#323F5F" />
										<rect x="46" y="27" width="1" height="1" fill="#323F5F" />
										<rect x="50" y="27" width="1" height="1" fill="#323F5F" />
										<rect opacity="0.3" x="54" y="27" width="1" height="1" fill="#323F5F" />
										<rect x="58" y="27" width="1" height="1" fill="#323F5F" />
									</g>
									<g opacity="0.3">
										<rect x="6" y="31" width="1" height="1" fill="#323F5F" />
										<rect x="2" y="31" width="1" height="1" fill="#323F5F" />
										<rect x="10" y="31" width="1" height="1" fill="#323F5F" />
										<rect x="14" y="31" width="1" height="1" fill="#323F5F" />
										<rect x="18" y="31" width="1" height="1" fill="#323F5F" />
										<rect x="22" y="31" width="1" height="1" fill="#323F5F" />
										<rect x="26" y="31" width="1" height="1" fill="#323F5F" />
										<rect x="30" y="31" width="1" height="1" fill="#323F5F" />
										<rect x="34" y="31" width="1" height="1" fill="#323F5F" />
										<rect x="38" y="31" width="1" height="1" fill="#323F5F" />
										<rect x="42" y="31" width="1" height="1" fill="#323F5F" />
										<rect x="46" y="31" width="1" height="1" fill="#323F5F" />
										<rect x="50" y="31" width="1" height="1" fill="#323F5F" />
										<rect opacity="0.3" x="54" y="31" width="1" height="1" fill="#323F5F" />
										<rect x="58" y="31" width="1" height="1" fill="#323F5F" />
									</g>
									<rect x="6" y="35" width="1" height="1" fill="#323F5F" />
									<rect opacity="0.3" x="2" y="35" width="1" height="1" fill="#323F5F" />
									<rect x="10" y="35" width="1" height="1" fill="#323F5F" />
									<rect x="14" y="35" width="1" height="1" fill="#323F5F" />
									<rect x="18" y="35" width="1" height="1" fill="#323F5F" />
									<rect x="22" y="35" width="1" height="1" fill="#323F5F" />
									<rect x="26" y="35" width="1" height="1" fill="#323F5F" />
									<rect x="30" y="35" width="1" height="1" fill="#323F5F" />
									<rect x="34" y="35" width="1" height="1" fill="#323F5F" />
									<rect x="38" y="35" width="1" height="1" fill="#323F5F" />
									<rect x="42" y="35" width="1" height="1" fill="#323F5F" />
									<rect x="46" y="35" width="1" height="1" fill="#323F5F" />
									<rect x="50" y="35" width="1" height="1" fill="#323F5F" />
									<rect opacity="0.3" x="54" y="35" width="1" height="1" fill="#323F5F" />
									<rect x="58" y="35" width="1" height="1" fill="#323F5F" />
									<g opacity="0.1">
										<rect x="6" y="39" width="1" height="1" fill="#323F5F" />
										<rect opacity="0.6" x="2" y="39" width="1" height="1" fill="#323F5F" />
										<rect x="10" y="39" width="1" height="1" fill="#323F5F" />
										<rect x="14" y="39" width="1" height="1" fill="#323F5F" />
										<rect x="18" y="39" width="1" height="1" fill="#323F5F" />
										<rect x="22" y="39" width="1" height="1" fill="#323F5F" />
										<rect x="26" y="39" width="1" height="1" fill="#323F5F" />
										<rect x="30" y="39" width="1" height="1" fill="#323F5F" />
										<rect x="34" y="39" width="1" height="1" fill="#323F5F" />
										<rect x="38" y="39" width="1" height="1" fill="#323F5F" />
										<rect x="42" y="39" width="1" height="1" fill="#323F5F" />
										<rect x="46" y="39" width="1" height="1" fill="#323F5F" />
										<rect x="50" y="39" width="1" height="1" fill="#323F5F" />
										<rect opacity="0.3" x="54" y="39" width="1" height="1" fill="#323F5F" />
										<rect x="58" y="39" width="1" height="1" fill="#323F5F" />
									</g>
									<rect opacity="0.3" x="6" y="43" width="1" height="1" fill="#323F5F" />
									<rect opacity="0.3" x="2" y="43" width="1" height="1" fill="#323F5F" />
									<rect opacity="0.3" x="10" y="43" width="1" height="1" fill="#323F5F" />
									<rect opacity="0.3" x="14" y="43" width="1" height="1" fill="#323F5F" />
									<rect opacity="0.1" x="18" y="43" width="1" height="1" fill="#323F5F" />
									<rect opacity="0.1" x="22" y="43" width="1" height="1" fill="#323F5F" />
									<rect opacity="0.1" x="26" y="43" width="1" height="1" fill="#323F5F" />
									<rect opacity="0.1" x="30" y="43" width="1" height="1" fill="#323F5F" />
									<rect opacity="0.1" x="34" y="43" width="1" height="1" fill="#323F5F" />
									<rect opacity="0.1" x="38" y="43" width="1" height="1" fill="#323F5F" />
									<rect opacity="0.1" x="42" y="43" width="1" height="1" fill="#323F5F" />
									<rect opacity="0.1" x="46" y="43" width="1" height="1" fill="#323F5F" />
									<rect opacity="0.1" x="50" y="43" width="1" height="1" fill="#323F5F" />
									<rect opacity="0.1" x="54" y="43" width="1" height="1" fill="#323F5F" />
									<rect x="58" y="43" width="1" height="1" fill="#323F5F" />
									<rect x="6" y="47" width="1" height="1" fill="#323F5F" />
									<rect x="2" y="47" width="1" height="1" fill="#323F5F" />
									<rect opacity="0.6" x="10" y="47" width="1" height="1" fill="#323F5F" />
									<rect x="14" y="47" width="1" height="1" fill="#323F5F" />
									<rect opacity="0.3" x="18" y="47" width="1" height="1" fill="#323F5F" />
									<rect opacity="0.3" x="22" y="47" width="1" height="1" fill="#323F5F" />
									<rect opacity="0.3" x="26" y="47" width="1" height="1" fill="#323F5F" />
									<rect opacity="0.3" x="30" y="47" width="1" height="1" fill="#323F5F" />
									<rect x="34" y="47" width="1" height="1" fill="#323F5F" />
									<rect x="38" y="47" width="1" height="1" fill="#323F5F" />
									<rect opacity="0.6" x="42" y="47" width="1" height="1" fill="#323F5F" />
									<rect x="46" y="47" width="1" height="1" fill="#323F5F" />
									<rect opacity="0.6" x="50" y="47" width="1" height="1" fill="#323F5F" />
									<rect x="54" y="47" width="1" height="1" fill="#323F5F" />
									<rect x="58" y="47" width="1" height="1" fill="#323F5F" />
									<rect opacity="0.3" x="6" y="51" width="1" height="1" fill="#323F5F" />
									<rect x="2" y="51" width="1" height="1" fill="#323F5F" />
									<rect x="10" y="51" width="1" height="1" fill="#323F5F" />
									<rect x="14" y="51" width="1" height="1" fill="#323F5F" />
									<rect opacity="0.6" x="18" y="51" width="1" height="1" fill="#323F5F" />
									<rect opacity="0.3" x="22" y="51" width="1" height="1" fill="#323F5F" />
									<rect x="26" y="51" width="1" height="1" fill="#323F5F" />
									<rect opacity="0.3" x="30" y="51" width="1" height="1" fill="#323F5F" />
									<rect x="34" y="51" width="1" height="1" fill="#323F5F" />
									<rect opacity="0.3" x="38" y="51" width="1" height="1" fill="#323F5F" />
									<rect x="42" y="51" width="1" height="1" fill="#323F5F" />
									<rect x="46" y="51" width="1" height="1" fill="#323F5F" />
									<rect opacity="0.6" x="50" y="51" width="1" height="1" fill="#323F5F" />
									<rect x="54" y="51" width="1" height="1" fill="#323F5F" />
									<rect x="58" y="51" width="1" height="1" fill="#323F5F" />
									<rect x="6" y="55" width="1" height="1" fill="#323F5F" />
									<rect x="2" y="55" width="1" height="1" fill="#323F5F" />
									<rect x="10" y="55" width="1" height="1" fill="#323F5F" />
									<rect x="14" y="55" width="1" height="1" fill="#323F5F" />
									<rect x="18" y="55" width="1" height="1" fill="#323F5F" />
									<rect x="22" y="55" width="1" height="1" fill="#323F5F" />
									<rect x="26" y="55" width="1" height="1" fill="#323F5F" />
									<rect x="30" y="55" width="1" height="1" fill="#323F5F" />
									<rect opacity="0.3" x="34" y="55" width="1" height="1" fill="#323F5F" />
									<rect x="38" y="55" width="1" height="1" fill="#323F5F" />
									<rect x="42" y="55" width="1" height="1" fill="#323F5F" />
									<rect x="46" y="55" width="1" height="1" fill="#323F5F" />
									<rect x="50" y="55" width="1" height="1" fill="#323F5F" />
									<rect x="54" y="55" width="1" height="1" fill="#323F5F" />
									<rect x="58" y="55" width="1" height="1" fill="#323F5F" />
									<rect x="6" y="59" width="1" height="1" fill="#323F5F" />
									<rect x="2" y="59" width="1" height="1" fill="#323F5F" />
									<rect x="10" y="59" width="1" height="1" fill="#323F5F" />
									<rect x="14" y="59" width="1" height="1" fill="#323F5F" />
									<rect x="18" y="59" width="1" height="1" fill="#323F5F" />
									<rect x="22" y="59" width="1" height="1" fill="#323F5F" />
									<rect x="26" y="59" width="1" height="1" fill="#323F5F" />
									<rect x="30" y="59" width="1" height="1" fill="#323F5F" />
									<rect x="34" y="59" width="1" height="1" fill="#323F5F" />
									<rect x="38" y="59" width="1" height="1" fill="#323F5F" />
									<rect x="42" y="59" width="1" height="1" fill="#323F5F" />
									<rect x="46" y="59" width="1" height="1" fill="#323F5F" />
									<rect x="50" y="59" width="1" height="1" fill="#323F5F" />
									<rect x="54" y="59" width="1" height="1" fill="#323F5F" />
									<rect x="58" y="59" width="1" height="1" fill="#323F5F" />
								</g>
								<rect opacity="0.7" width="60" height="60" rx="12" fill="url(#paint1_radial_2729_2857)" />
								<path d="M30 14.6437C25.5295 14.6437 21.9059 18.2688 21.9059 22.7407C21.9059 24.6902 22.5967 26.4829 23.7469 27.8808C23.8817 28.0446 23.8126 28.2949 23.6339 28.3654C21.7283 29.1172 19.9917 30.1986 18.4804 31.532C18.3829 31.6181 18.2507 31.6168 18.1682 31.5478C16.3881 30.0588 15.25 27.8264 15.25 25.327C15.25 22.0563 17.1836 19.248 19.9646 17.9634C20.4072 17.759 20.5652 17.2067 20.3255 16.7951C19.8416 15.964 19.5647 14.9955 19.5647 13.9581C19.5647 10.8037 22.1176 8.25 25.2706 8.25C26.8954 8.25 28.3575 8.93391 29.3945 10.023C29.7201 10.3651 30.2799 10.3655 30.6057 10.023C31.647 8.9283 33.1032 8.25 34.7294 8.25C37.8824 8.25 40.4353 10.8037 40.4353 13.9581C40.4353 14.9906 40.1513 15.9613 39.6658 16.8006C39.4284 17.2111 39.5879 17.7578 40.0268 17.961C42.8128 19.2511 44.75 22.0615 44.75 25.327C44.75 27.8264 43.6119 30.0588 41.8318 31.5478C41.7493 31.6168 41.6171 31.6181 41.5196 31.532C40.0083 30.1986 38.2717 29.1172 36.3661 28.3654C36.1874 28.2949 36.1183 28.0446 36.2531 27.8808C37.4033 26.4829 38.0941 24.6902 38.0941 22.7407C38.0941 18.2688 34.4705 14.6437 30 14.6437Z" fill="url(#paint2_linear_2729_2857)" stroke="url(#paint3_linear_2729_2857)" stroke-width="0.5" />
								<g filter="url(#filter1_b_2729_2857)">
									<path d="M40.4263 36.352C37.9069 33.6355 33.7093 34.462 30.0043 34.462C26.2932 34.462 22.0897 33.6398 19.5676 36.3623C17.3492 38.757 16 41.9173 16 45.3851C16 52.8716 44 52.8716 44 45.3851C44 41.9142 42.6484 38.7479 40.4263 36.352Z" fill="url(#paint4_linear_2729_2857)" />
									<path d="M30.0043 34.712C30.7078 34.712 31.4305 34.6824 32.1501 34.6529C32.3842 34.6433 32.618 34.6337 32.8507 34.6251C33.8031 34.5902 34.7425 34.5722 35.6418 34.6377C37.4403 34.7685 39.045 35.2304 40.243 36.522C42.4246 38.8743 43.75 41.9807 43.75 45.3851C43.75 46.2337 43.3561 46.9898 42.6279 47.6573C41.8961 48.3282 40.8364 48.899 39.541 49.3608C36.9516 50.2839 33.4823 50.75 30 50.75C26.5177 50.75 23.0484 50.2839 20.459 49.3608C19.1636 48.899 18.1039 48.3282 17.3721 47.6573C16.6439 46.9898 16.25 46.2337 16.25 45.3851C16.25 41.9839 17.5729 38.8833 19.751 36.5322C20.9504 35.2375 22.5573 34.7732 24.3584 34.6406C25.259 34.5742 26.1998 34.5914 27.1536 34.6259C27.3899 34.6345 27.6274 34.6441 27.8652 34.6537C28.5826 34.6828 29.303 34.712 30.0043 34.712Z" stroke="url(#paint5_linear_2729_2857)" stroke-width="0.5" />
								</g>
								<g filter="url(#filter2_b_2729_2857)">
									<rect x="0.25" y="0.25" width="59.5" height="59.5" rx="11.75" stroke="url(#paint6_linear_2729_2857)" stroke-width="0.5" />
								</g>
								<defs>
									<filter id="filter0_b_2729_2857" x="-110" y="-110" width="280" height="280" filterUnits="userSpaceOnUse" color-interpolation-filters="sRGB">
										<feFlood flood-opacity="0" result="BackgroundImageFix" />
										<feGaussianBlur in="BackgroundImageFix" stdDeviation="55" />
										<feComposite in2="SourceAlpha" operator="in" result="effect1_backgroundBlur_2729_2857" />
										<feBlend mode="normal" in="SourceGraphic" in2="effect1_backgroundBlur_2729_2857" result="shape" />
									</filter>
									<filter id="filter1_b_2729_2857" x="-94" y="-75.6562" width="248" height="236.656" filterUnits="userSpaceOnUse" color-interpolation-filters="sRGB">
										<feFlood flood-opacity="0" result="BackgroundImageFix" />
										<feGaussianBlur in="BackgroundImageFix" stdDeviation="55" />
										<feComposite in2="SourceAlpha" operator="in" result="effect1_backgroundBlur_2729_2857" />
										<feBlend mode="normal" in="SourceGraphic" in2="effect1_backgroundBlur_2729_2857" result="shape" />
									</filter>
									<filter id="filter2_b_2729_2857" x="-110" y="-110" width="280" height="280" filterUnits="userSpaceOnUse" color-interpolation-filters="sRGB">
										<feFlood flood-opacity="0" result="BackgroundImageFix" />
										<feGaussianBlur in="BackgroundImageFix" stdDeviation="55" />
										<feComposite in2="SourceAlpha" operator="in" result="effect1_backgroundBlur_2729_2857" />
										<feBlend mode="normal" in="SourceGraphic" in2="effect1_backgroundBlur_2729_2857" result="shape" />
									</filter>
									<linearGradient id="paint0_linear_2729_2857" x1="30" y1="0" x2="30" y2="60" gradientUnits="userSpaceOnUse">
										<stop stop-color="#212941" />
										<stop offset="0.469183" stop-color="#2C3A65" />
										<stop offset="1" stop-color="#272C3D" />
									</linearGradient>
									<radialGradient id="paint1_radial_2729_2857" cx="0" cy="0" r="1" gradientUnits="userSpaceOnUse" gradientTransform="translate(30 30) rotate(90) scale(30)">
										<stop stop-color="#131827" stop-opacity="0" />
										<stop offset="1" stop-color="#131827" />
									</radialGradient>
									<linearGradient id="paint2_linear_2729_2857" x1="30" y1="16.8571" x2="30" y2="25.5714" gradientUnits="userSpaceOnUse">
										<stop stop-color="#FEF0F0" />
										<stop offset="0.51" stop-color="#C8DCF5" />
										<stop offset="1" stop-color="#CBD5E2" />
									</linearGradient>
									<linearGradient id="paint3_linear_2729_2857" x1="30" y1="16.8571" x2="30" y2="25.5714" gradientUnits="userSpaceOnUse">
										<stop stop-color="#ACC8E2" />
										<stop offset="0.51" stop-color="#C8DCF5" />
										<stop offset="1" stop-color="white" />
									</linearGradient>
									<linearGradient id="paint4_linear_2729_2857" x1="30" y1="33" x2="30" y2="51" gradientUnits="userSpaceOnUse">
										<stop stop-color="#131827" />
										<stop offset="1" stop-color="#303953" />
									</linearGradient>
									<linearGradient id="paint5_linear_2729_2857" x1="30" y1="33" x2="30" y2="51" gradientUnits="userSpaceOnUse">
										<stop stop-color="#212941" />
										<stop offset="0.469183" stop-color="#2C3A65" />
										<stop offset="1" stop-color="#272C3D" />
									</linearGradient>
									<linearGradient id="paint6_linear_2729_2857" x1="30" y1="0" x2="30" y2="60" gradientUnits="userSpaceOnUse">
										<stop stop-color="#212941" />
										<stop offset="0.469183" stop-color="#2C3A65" />
										<stop offset="1" stop-color="#272C3D" />
									</linearGradient>
								</defs>
							</svg>