<svg width="24" height="24" viewBox="0 0 24 24" fill="none" xmlns="http://www.w3.org/2000/svg">
<circle cx="12" cy="12" r="12" fill="white"/>
<path fill-rule="evenodd" clip-rule="evenodd" d="M13 6.5C13 6.22386 12.7761 6 12.5 6C12.2239 6 12 6.22386 12 6.5V11H6.5C6.22386 11 6 11.2239 6 11.5C6 11.7761 6.22386 12 6.5 12H12L12 17.5C12 17.7761 12.2239 18 12.5 18C12.7761 18 13 17.7761 13 17.5L13 12H17.5C17.7761 12 18 11.7761 18 11.5C18 11.2239 17.7761 11 17.5 11H13V6.5Z" fill="url(#paint0_linear_1_606)"/>
<path fill-rule="evenodd" clip-rule="evenodd" d="M13 6.5C13 6.22386 12.7761 6 12.5 6C12.2239 6 12 6.22386 12 6.5V11H6.5C6.22386 11 6 11.2239 6 11.5C6 11.7761 6.22386 12 6.5 12H12L12 17.5C12 17.7761 12.2239 18 12.5 18C12.7761 18 13 17.7761 13 17.5L13 12H17.5C17.7761 12 18 11.7761 18 11.5C18 11.2239 17.7761 11 17.5 11H13V6.5Z" fill="url(#paint1_linear_1_606)" fill-opacity="0.2"/>
<path fill-rule="evenodd" clip-rule="evenodd" d="M13 6.5C13 6.22386 12.7761 6 12.5 6C12.2239 6 12 6.22386 12 6.5V11H6.5C6.22386 11 6 11.2239 6 11.5C6 11.7761 6.22386 12 6.5 12H12L12 17.5C12 17.7761 12.2239 18 12.5 18C12.7761 18 13 17.7761 13 17.5L13 12H17.5C17.7761 12 18 11.7761 18 11.5C18 11.2239 17.7761 11 17.5 11H13V6.5Z" fill="url(#paint2_radial_1_606)" fill-opacity="0.4"/>
<defs>
<linearGradient id="paint0_linear_1_606" x1="12" y1="6" x2="12" y2="18" gradientUnits="userSpaceOnUse">
<stop stop-color="#018197"/>
<stop offset="1" stop-color="#22CF48"/>
</linearGradient>
<linearGradient id="paint1_linear_1_606" x1="11.4" y1="13.3699" x2="16.3673" y2="8.99147" gradientUnits="userSpaceOnUse">
<stop stop-color="#0265A5"/>
<stop offset="1" stop-color="#00FF66"/>
</linearGradient>
<radialGradient id="paint2_radial_1_606" cx="0" cy="0" r="1" gradientUnits="userSpaceOnUse" gradientTransform="translate(17.2625 17.6639) rotate(-73.1985) scale(5.45957 5.45856)">
<stop stop-color="#44D1F0"/>
<stop offset="1" stop-color="#4B84DA" stop-opacity="0.34"/>
</radialGradient>
</defs>
</svg>
