										<svg width="1496" height="660" viewBox="0 0 1496 660" fill="none" xmlns="http://www.w3.org/2000/svg">
											<path d="M0 24C0 10.7452 10.7452 0 24 0H1472C1485.25 0 1496 10.7452 1496 24V636C1496 649.255 1485.25 660 1472 660H24C10.7452 660 0 649.255 0 636V24Z" fill="#F2F3F5" />
											<g filter="url(#filter0_f_2457_3432)">
												<circle cx="998" cy="356" r="150" transform="rotate(-180 998 356)" fill="white" />
											</g>
											<g opacity="0.3" filter="url(#filter1_bf_2457_3432)">
												<path d="M-24 -5.99999C-24 -11.5228 -19.5228 -16 -14 -16H1510C1515.52 -16 1520 -11.5228 1520 -6V244H-24V-5.99999Z" fill="url(#paint0_linear_2457_3432)" />
											</g>
											<defs>
												<filter id="filter0_f_2457_3432" x="548" y="-94" width="900" height="900" filterUnits="userSpaceOnUse" color-interpolation-filters="sRGB">
													<feFlood flood-opacity="0" result="BackgroundImageFix" />
													<feBlend mode="normal" in="SourceGraphic" in2="BackgroundImageFix" result="shape" />
													<feGaussianBlur stdDeviation="150" result="effect1_foregroundBlur_2457_3432" />
												</filter>
												<filter id="filter1_bf_2457_3432" x="-84" y="-76" width="1664" height="380" filterUnits="userSpaceOnUse" color-interpolation-filters="sRGB">
													<feFlood flood-opacity="0" result="BackgroundImageFix" />
													<feGaussianBlur in="BackgroundImageFix" stdDeviation="15" />
													<feComposite in2="SourceAlpha" operator="in" result="effect1_backgroundBlur_2457_3432" />
													<feBlend mode="normal" in="SourceGraphic" in2="effect1_backgroundBlur_2457_3432" result="shape" />
													<feGaussianBlur stdDeviation="30" result="effect2_foregroundBlur_2457_3432" />
												</filter>
												<linearGradient id="paint0_linear_2457_3432" x1="748" y1="-16" x2="748" y2="244" gradientUnits="userSpaceOnUse">
													<stop stop-color="#3461FF" stop-opacity="0.7" />
													<stop offset="1" stop-color="#3461FF" stop-opacity="0" />
												</linearGradient>
											</defs>
										</svg>