<svg width="36" height="37" viewBox="0 0 36 37" fill="none" xmlns="http://www.w3.org/2000/svg">
<g clip-path="url(#clip0_3052_223)">
<path d="M30.8002 9.50156L33.5002 10.9016C35.1002 11.8016 35.8002 13.7016 35.0002 15.4016L33.7002 18.1016C33.6002 18.3016 33.6002 18.6016 33.7002 18.8016L35.0002 21.5016C35.8002 23.2016 35.2002 25.1016 33.5002 26.0016L30.8002 27.4016C30.6002 27.5016 30.4002 27.7016 30.4002 28.0016L29.9002 31.0016C29.6002 32.8016 27.9002 34.0016 26.1002 33.8016L23.1002 33.4016C22.8002 33.4016 22.6002 33.4016 22.4002 33.6016L20.2002 35.7016C19.5002 36.3016 18.7002 36.7016 17.8002 36.7016C17.0002 36.7016 16.1002 36.4016 15.4002 35.7016L13.2002 33.6016C13.0002 33.4016 12.8002 33.3016 12.5002 33.4016L9.5002 33.8016C9.3002 33.8016 9.2002 33.8016 9.0002 33.8016C7.4002 33.8016 6.0002 32.6016 5.7002 31.0016L5.2002 28.0016C5.2002 27.8016 5.0002 27.5016 4.8002 27.4016L2.1002 26.0016C0.500197 25.1016 -0.199803 23.2016 0.600197 21.5016L1.9002 18.8016C2.0002 18.6016 2.0002 18.3016 1.9002 18.1016L0.600197 15.4016C-0.199803 13.7016 0.400197 11.8016 2.1002 10.9016L5.7002 21.6016L17.8002 36.7016L30.4002 28.0016L30.8002 9.50156ZM30.8002 9.50156C30.6002 9.40156 30.4002 9.20156 30.4002 8.90156L29.9002 5.90156C29.6002 4.10156 27.9002 2.90156 26.1002 3.10156L23.1002 3.50156C22.8002 3.50156 22.6002 3.50156 22.4002 3.30156L20.2002 1.20156C18.9002 -0.0984375 16.8002 -0.0984375 15.5002 1.20156L13.3002 3.30156C13.1002 3.50156 12.9002 3.60156 12.6002 3.50156L9.6002 3.10156C7.7002 2.90156 6.0002 4.10156 5.7002 5.90156L5.2002 8.90156C5.2002 9.10156 5.0002 9.40156 4.8002 9.50156L2.1002 10.9016L5.7002 21.6016L17.8002 36.7016L30.4002 28.0016L30.8002 9.50156ZM13.6002 9.40156C15.6002 9.40156 17.2002 11.0016 17.2002 13.0016C17.2002 15.0016 15.6002 16.6016 13.6002 16.6016C11.6002 16.6016 10.0002 15.0016 10.0002 13.0016C10.0002 11.0016 11.7002 9.40156 13.6002 9.40156ZM21.9002 27.6016C19.9002 27.6016 18.3002 26.0016 18.3002 24.0016C18.3002 22.0016 19.9002 20.4016 21.9002 20.4016C23.9002 20.4016 25.5002 22.0016 25.5002 24.0016C25.5002 26.0016 23.9002 27.6016 21.9002 27.6016Z" fill="url(#paint0_radial_3052_223)"/>
<path d="M33.6002 18.1016L35.0002 15.4016C35.8002 13.7016 35.1002 11.8016 33.5002 10.9016L30.8002 9.50156C30.6002 9.40156 30.4002 9.20156 30.4002 8.90156L29.9002 5.90156C29.6002 4.10156 27.9002 2.90156 26.1002 3.10156L23.1002 3.50156C22.8002 3.50156 22.6002 3.50156 22.4002 3.30156L20.2002 1.20156C18.9002 -0.0984375 16.8002 -0.0984375 15.5002 1.20156L13.3002 3.30156C13.1002 3.50156 12.9002 3.60156 12.6002 3.50156L9.6002 3.10156C7.7002 2.90156 6.0002 4.10156 5.7002 5.90156L5.2002 8.90156C5.2002 9.10156 5.0002 9.40156 4.8002 9.50156L2.1002 10.9016C0.400197 11.8016 -0.199803 13.8016 0.600197 15.5016L1.9002 18.2016C2.0002 18.4016 2.0002 18.7016 1.9002 18.9016L0.600197 21.6016C-0.199803 23.3016 0.500197 25.2016 2.1002 26.1016L4.8002 27.5016C5.0002 27.6016 5.2002 27.9016 5.2002 28.1016L5.7002 31.1016M33.6002 18.1016L33.4002 18.0016M33.6002 18.1016C33.5002 18.3016 33.5002 18.6016 33.6002 18.8016L34.9002 21.5016C35.7002 23.2016 35.1002 25.1016 33.4002 26.0016L30.7002 27.4016C30.5002 27.5016 30.3002 27.7016 30.3002 28.0016L29.9002 31.1016C29.6002 32.9016 27.9002 34.1016 26.1002 33.9016L23.1002 33.5016C22.8002 33.5016 22.6002 33.5016 22.4002 33.7016L20.2002 35.8016C19.5002 36.4016 18.7002 36.8016 17.8002 36.8016C17.0002 36.8016 16.1002 36.5016 15.4002 35.8016L13.2002 33.7016C13.0002 33.5016 12.8002 33.4016 12.5002 33.5016L9.5002 33.9016C9.3002 33.9016 9.2002 33.9016 9.0002 33.9016C7.4002 33.9016 6.0002 32.7016 5.7002 31.1016M5.7002 31.1016H5.9002M13.6002 9.40156C15.6002 9.40156 17.2002 11.0016 17.2002 13.0016C17.2002 15.0016 15.6002 16.6016 13.6002 16.6016C11.6002 16.6016 10.0002 15.0016 10.0002 13.0016C10.0002 11.0016 11.7002 9.40156 13.6002 9.40156ZM21.9002 27.6016C19.9002 27.6016 18.3002 26.0016 18.3002 24.0016C18.3002 22.0016 19.9002 20.4016 21.9002 20.4016C23.9002 20.4016 25.5002 22.0016 25.5002 24.0016C25.5002 26.0016 23.9002 27.6016 21.9002 27.6016Z" stroke="url(#paint1_linear_3052_223)" stroke-width="0.5"/>
<path d="M21.8992 22.3008C20.8992 22.3008 20.1992 23.1008 20.1992 24.0008C20.1992 25.0008 20.9992 25.7008 21.8992 25.7008C22.8992 25.7008 23.5992 24.9008 23.5992 24.0008C23.6992 23.1008 22.8992 22.3008 21.8992 22.3008Z" fill="url(#paint2_radial_3052_223)"/>
<path d="M13.5984 11.2031C12.5984 11.2031 11.8984 12.0031 11.8984 12.9031C11.8984 13.9031 12.6984 14.6031 13.5984 14.6031C14.5984 14.6031 15.2984 13.8031 15.2984 12.9031C15.3984 12.0031 14.5984 11.2031 13.5984 11.2031Z" fill="url(#paint3_radial_3052_223)"/>
<path d="M25.3 12.4031C25.7 12.0031 25.7 11.4031 25.3 11.0031C24.9 10.6031 24.3 10.6031 23.9 11.0031L10.3 24.7031C9.9 25.1031 9.9 25.7031 10.3 26.1031C10.7 26.5031 11.3 26.5031 11.7 26.1031L25.3 12.4031Z" fill="#2F3558"/>
</g>
<defs>
<radialGradient id="paint0_radial_3052_223" cx="0" cy="0" r="1" gradientUnits="userSpaceOnUse" gradientTransform="translate(17.759 15.053) rotate(-103.771) scale(113.105 177.186)">
<stop stop-color="white"/>
<stop offset="0.51" stop-color="#318BF8"/>
<stop offset="1" stop-color="#318EFE"/>
</radialGradient>
<linearGradient id="paint1_linear_3052_223" x1="17.5004" y1="0.528663" x2="18.0522" y2="37.0577" gradientUnits="userSpaceOnUse">
<stop stop-color="#EEEEEE"/>
<stop offset="0.4703" stop-color="#81B6F6"/>
<stop offset="1" stop-color="#CBD5E2"/>
</linearGradient>
<radialGradient id="paint2_radial_3052_223" cx="0" cy="0" r="1" gradientUnits="userSpaceOnUse" gradientTransform="translate(21.9536 23.7315) rotate(-104.329) scale(10.8987 17.7073)">
<stop stop-color="white"/>
<stop offset="0.51" stop-color="#318BF8"/>
<stop offset="1" stop-color="#318EFE"/>
</radialGradient>
<radialGradient id="paint3_radial_3052_223" cx="0" cy="0" r="1" gradientUnits="userSpaceOnUse" gradientTransform="translate(13.6304 12.6587) rotate(-104.328) scale(10.8988 17.7073)">
<stop stop-color="white"/>
<stop offset="0.51" stop-color="#318BF8"/>
<stop offset="1" stop-color="#318EFE"/>
</radialGradient>
<clipPath id="clip0_3052_223">
<rect width="36" height="37" fill="white"/>
</clipPath>
</defs>
</svg>
