								<svg width="44" height="44" viewBox="0 0 44 44" fill="none" xmlns="http://www.w3.org/2000/svg">
									<g clip-path="url(#clip0_2694_9030)">
										<path d="M22 43.25C33.7361 43.25 43.25 33.7361 43.25 22C43.25 10.2639 33.7361 0.75 22 0.75C10.2639 0.75 0.75 10.2639 0.75 22C0.75 33.7361 10.2639 43.25 22 43.25Z" fill="url(#paint0_radial_2694_9030)" stroke="url(#paint1_linear_2694_9030)" stroke-width="0.5" />
										<path d="M7.94852 16.0638L7.94851 16.0638C7.15317 17.9444 6.75 19.9421 6.75 22C6.75 24.0579 7.15317 26.0556 7.94851 27.9362L7.94852 27.9362C8.71674 29.7522 9.81621 31.3832 11.2165 32.7835C12.6168 34.1838 14.2478 35.2833 16.0638 36.0515L16.0638 36.0515C17.9444 36.8468 19.9421 37.25 22 37.25C24.0579 37.25 26.0556 36.8468 27.9362 36.0515L27.9362 36.0515C29.7522 35.2833 31.3832 34.1838 32.7835 32.7835C34.1838 31.3832 35.2833 29.7522 36.0515 27.9362L36.0515 27.9362C36.8468 26.0556 37.25 24.0579 37.25 22C37.25 19.9421 36.8468 17.9444 36.0515 16.0638L36.0515 16.0638C35.2833 14.2478 34.1838 12.6168 32.7835 11.2165C31.3832 9.81621 29.7522 8.71675 27.9362 7.94852L27.9362 7.94851C26.0556 7.15318 24.0579 6.75 22 6.75C19.9421 6.75 17.9444 7.15318 16.0638 7.94851L16.0638 7.94852C14.2478 8.71675 12.6168 9.81621 11.2165 11.2165C9.81621 12.6168 8.71674 14.2478 7.94852 16.0638Z" fill="#070917" stroke="url(#paint2_linear_2694_9030)" stroke-width="0.5" />
										<g filter="url(#filter0_f_2694_9030)">
											<path d="M10 22C10 21.595 10.3173 21.2021 10.943 20.8322C11.5475 20.475 12.4125 20.1542 13.5146 19.8787C14.6167 19.6031 15.9 19.3869 17.329 19.2358C18.8086 19.0793 20.3802 19 22 19C23.6198 19 25.1914 19.0793 26.671 19.2358C28.1 19.3869 29.3833 19.6031 30.4854 19.8787C31.5875 20.1542 32.4525 20.475 33.057 20.8322C33.6827 21.2021 34 21.595 34 22C34 22.405 33.6827 22.7979 33.057 23.1678C32.4525 23.525 31.5875 23.8458 30.4854 24.1213C29.3833 24.3969 28.1 24.6131 26.671 24.7642C25.1914 24.9207 23.6198 25 22 25C20.3802 25 18.8086 24.9207 17.329 24.7642C15.9 24.6131 14.6167 24.3969 13.5146 24.1213C12.4125 23.8458 11.5475 23.525 10.943 23.1678C10.3173 22.7979 10 22.405 10 22Z" fill="#B0B8EB" />
										</g>
										<path d="M12 22C12 21.73 12.0529 21.4681 12.1572 21.2215C12.2579 20.9833 12.4021 20.7694 12.5858 20.5858C12.7694 20.4021 12.9833 20.2579 13.2215 20.1572C13.4681 20.0529 13.73 20 14 20C14.27 20 14.5319 20.0529 14.7785 20.1572C15.0167 20.2579 15.2306 20.4021 15.4142 20.5858C15.5979 20.7694 15.7421 20.9833 15.8428 21.2215C15.9471 21.4681 16 21.73 16 22C16 22.27 15.9471 22.5319 15.8428 22.7785C15.7421 23.0167 15.5979 23.2306 15.4142 23.4142C15.2305 23.5979 15.0167 23.7421 14.7785 23.8428C14.5319 23.9471 14.27 24 14 24C13.73 24 13.4681 23.9471 13.2215 23.8428C12.9833 23.7421 12.7694 23.5979 12.5858 23.4142C12.4021 23.2306 12.2579 23.0167 12.1572 22.7785C12.0529 22.5319 12 22.27 12 22Z" fill="url(#paint3_radial_2694_9030)" />
										<path d="M20 22C20 21.73 20.0529 21.4681 20.1572 21.2215C20.2579 20.9833 20.4021 20.7694 20.5858 20.5858C20.7694 20.4021 20.9833 20.2579 21.2215 20.1572C21.4681 20.0529 21.73 20 22 20C22.27 20 22.5319 20.0529 22.7785 20.1572C23.0167 20.2579 23.2306 20.4021 23.4142 20.5858C23.5979 20.7694 23.7421 20.9833 23.8428 21.2215C23.9471 21.4681 24 21.73 24 22C24 22.27 23.9471 22.5319 23.8428 22.7785C23.7421 23.0167 23.5979 23.2306 23.4142 23.4142C23.2305 23.5979 23.0167 23.7421 22.7785 23.8428C22.5319 23.9471 22.27 24 22 24C21.73 24 21.4681 23.9471 21.2215 23.8428C20.9833 23.7421 20.7694 23.5979 20.5858 23.4142C20.4021 23.2306 20.2579 23.0167 20.1572 22.7785C20.0529 22.5319 20 22.27 20 22Z" fill="url(#paint4_radial_2694_9030)" />
										<path d="M27 22C27 21.73 27.0529 21.4681 27.1572 21.2215C27.2579 20.9833 27.4021 20.7694 27.5858 20.5858C27.7694 20.4021 27.9833 20.2579 28.2215 20.1572C28.4681 20.0529 28.73 20 29 20C29.27 20 29.5319 20.0529 29.7785 20.1572C30.0167 20.2579 30.2306 20.4021 30.4142 20.5858C30.5979 20.7694 30.7421 20.9833 30.8428 21.2215C30.9471 21.4681 31 21.73 31 22C31 22.27 30.9471 22.5319 30.8428 22.7785C30.7421 23.0167 30.5979 23.2306 30.4142 23.4142C30.2305 23.5979 30.0167 23.7421 29.7785 23.8428C29.5319 23.9471 29.27 24 29 24C28.73 24 28.4681 23.9471 28.2215 23.8428C27.9833 23.7421 27.7694 23.5979 27.5858 23.4142C27.4021 23.2306 27.2579 23.0167 27.1572 22.7785C27.0529 22.5319 27 22.27 27 22Z" fill="url(#paint5_radial_2694_9030)" />
									</g>
									<defs>
										<filter id="filter0_f_2694_9030" x="-2" y="7" width="48" height="30" filterUnits="userSpaceOnUse" color-interpolation-filters="sRGB">
											<feFlood flood-opacity="0" result="BackgroundImageFix" />
											<feBlend mode="normal" in="SourceGraphic" in2="BackgroundImageFix" result="shape" />
											<feGaussianBlur stdDeviation="6" result="effect1_foregroundBlur_2694_9030" />
										</filter>
										<radialGradient id="paint0_radial_2694_9030" cx="0" cy="0" r="1" gradientUnits="userSpaceOnUse" gradientTransform="translate(22 17.9853) rotate(-104.328) scale(132.276 214.91)">
											<stop stop-color="white" />
											<stop offset="0.51" stop-color="#318BF8" />
											<stop offset="1" stop-color="white" />
											<stop offset="1" stop-color="#318EFE" />
										</radialGradient>
										<linearGradient id="paint1_linear_2694_9030" x1="23.8529" y1="0.999999" x2="24.4706" y2="43.6176" gradientUnits="userSpaceOnUse">
											<stop stop-color="#EEEEEE" />
											<stop offset="0.470342" stop-color="#81B6F6" />
											<stop offset="1" stop-color="#CBD5E2" />
										</linearGradient>
										<linearGradient id="paint2_linear_2694_9030" x1="37.75" y1="21.25" x2="7" y2="21.9999" gradientUnits="userSpaceOnUse">
											<stop stop-color="white" />
											<stop offset="0.51" stop-color="#E9EEF5" />
											<stop offset="1" stop-color="white" />
										</linearGradient>
										<radialGradient id="paint3_radial_2694_9030" cx="0" cy="0" r="1" gradientUnits="userSpaceOnUse" gradientTransform="translate(40.5 29.75) rotate(-160.178) scale(22.8542 9.15398e-06)">
											<stop stop-color="#EEEEEE" />
											<stop offset="1" stop-color="#D3E5FA" />
										</radialGradient>
										<radialGradient id="paint4_radial_2694_9030" cx="0" cy="0" r="1" gradientUnits="userSpaceOnUse" gradientTransform="translate(48.5 29.75) rotate(-160.178) scale(22.8542 9.15398e-06)">
											<stop stop-color="#EEEEEE" />
											<stop offset="1" stop-color="#D3E5FA" />
										</radialGradient>
										<radialGradient id="paint5_radial_2694_9030" cx="0" cy="0" r="1" gradientUnits="userSpaceOnUse" gradientTransform="translate(55.5 29.75) rotate(-160.178) scale(22.8542 9.15398e-06)">
											<stop stop-color="#EEEEEE" />
											<stop offset="1" stop-color="#D3E5FA" />
										</radialGradient>
										<clipPath id="clip0_2694_9030">
											<rect width="44" height="44" fill="white" />
										</clipPath>
									</defs>
								</svg>