								<svg width="86" height="77" viewBox="0 0 86 77" fill="none" xmlns="http://www.w3.org/2000/svg">
									<g opacity="0.3" filter="url(#filter0_f_2694_9040)">
										<ellipse cx="43" cy="38.5" rx="19" ry="14.5" fill="url(#paint0_linear_2694_9040)" />
									</g>
									<path d="M42.1646 16.4921L42.1646 16.4921L41.4725 22.3257C40.5923 29.7437 34.7437 35.5923 27.3257 36.4725L21.4921 37.1646L21.4921 37.1646C20.5026 37.2821 20.5026 38.7179 21.4921 38.8354L21.4921 38.8354L27.3257 39.5275C34.7437 40.4077 40.5923 46.2563 41.4725 53.6742L42.1646 59.5079C42.2821 60.4974 43.7179 60.4974 43.8354 59.5079L44.5275 53.6742C45.4077 46.2563 51.2563 40.4077 58.6742 39.5275L64.5079 38.8354C65.4974 38.7179 65.4974 37.2821 64.5079 37.1646L58.6742 36.4725C51.2563 35.5923 45.4077 29.7437 44.5275 22.3257L43.8354 16.4921L43.8354 16.4921C43.7179 15.5026 42.2821 15.5026 42.1646 16.4921Z" fill="url(#paint1_linear_2694_9040)" stroke="url(#paint2_linear_2694_9040)" stroke-width="0.5" />
									<path d="M26.8399 18.1422C26.8624 17.9526 27.1376 17.9526 27.1601 18.1422L27.3489 19.7332C27.5927 21.7876 29.2124 23.4073 31.2668 23.6511L32.8577 23.8399C33.0474 23.8624 33.0474 24.1376 32.8577 24.1601L31.2668 24.3489C29.2124 24.5927 27.5927 26.2124 27.3489 28.2668L27.1601 29.8577C27.1376 30.0474 26.8624 30.0474 26.8399 29.8577L26.6511 28.2668C26.4073 26.2124 24.7876 24.5927 22.7332 24.3489L21.1422 24.1601C20.9526 24.1376 20.9526 23.8624 21.1422 23.8399L22.7332 23.6511C24.7876 23.4073 26.4073 21.7876 26.6511 19.7332L26.8399 18.1422Z" fill="url(#paint3_linear_2694_9040)" />
									<path d="M61.4066 51.083C61.4197 50.9723 61.5803 50.9723 61.5934 51.083L61.7035 52.011C61.8457 53.2094 62.7906 54.1543 63.9889 54.2965L64.917 54.4066C65.0277 54.4197 65.0277 54.5803 64.917 54.5934L63.9889 54.7035C62.7906 54.8457 61.8457 55.7906 61.7035 56.9889L61.5934 57.917C61.5803 58.0277 61.4197 58.0277 61.4066 57.917L61.2965 56.9889C61.1543 55.7906 60.2094 54.8457 59.011 54.7035L58.083 54.5934C57.9723 54.5803 57.9723 54.4197 58.083 54.4066L59.011 54.2965C60.2094 54.1543 61.1543 53.2094 61.2965 52.011L61.4066 51.083Z" fill="url(#paint4_linear_2694_9040)" />
									<path opacity="0.3" d="M47.9733 54.0237C47.9771 53.9921 48.0229 53.9921 48.0267 54.0237L48.0581 54.2889C48.0988 54.6313 48.3687 54.9012 48.7111 54.9419L48.9763 54.9733C49.0079 54.9771 49.0079 55.0229 48.9763 55.0267L48.7111 55.0581C48.3687 55.0988 48.0988 55.3687 48.0581 55.7111L48.0267 55.9763C48.0229 56.0079 47.9771 56.0079 47.9733 55.9763L47.9419 55.7111C47.9012 55.3687 47.6313 55.0988 47.2889 55.0581L47.0237 55.0267C46.9921 55.0229 46.9921 54.9771 47.0237 54.9733L47.2889 54.9419C47.6313 54.9012 47.9012 54.6313 47.9419 54.2889L47.9733 54.0237Z" fill="url(#paint5_linear_2694_9040)" />
									<g filter="url(#filter1_f_2694_9040)">
										<circle cx="43" cy="38" r="5" fill="#8B9FCE" />
									</g>
									<path d="M54.7155 37.6798C55.0948 37.7248 55.0948 38.2752 54.7155 38.3202L51.5336 38.6978C47.4248 39.1853 44.1853 42.4248 43.6978 46.5335L43.3202 49.7155C43.2752 50.0948 42.7248 50.0948 42.6798 49.7155L42.3022 46.5335C41.8147 42.4248 38.5752 39.1853 34.4665 38.6978L31.2845 38.3202C30.9052 38.2752 30.9052 37.7248 31.2845 37.6798L34.4665 37.3022C38.5752 36.8147 41.8147 33.5752 42.3022 29.4664L42.6798 26.2845C42.7248 25.9052 43.2752 25.9052 43.3202 26.2845L43.6978 29.4664C44.1853 33.5752 47.4248 36.8147 51.5336 37.3022L54.7155 37.6798Z" fill="url(#paint6_linear_2694_9040)" />
									<defs>
										<filter id="filter0_f_2694_9040" x="0" y="0" width="86" height="77" filterUnits="userSpaceOnUse" color-interpolation-filters="sRGB">
											<feFlood flood-opacity="0" result="BackgroundImageFix" />
											<feBlend mode="normal" in="SourceGraphic" in2="BackgroundImageFix" result="shape" />
											<feGaussianBlur stdDeviation="12" result="effect1_foregroundBlur_2694_9040" />
										</filter>
										<filter id="filter1_f_2694_9040" x="27" y="22" width="32" height="32" filterUnits="userSpaceOnUse" color-interpolation-filters="sRGB">
											<feFlood flood-opacity="0" result="BackgroundImageFix" />
											<feBlend mode="normal" in="SourceGraphic" in2="BackgroundImageFix" result="shape" />
											<feGaussianBlur stdDeviation="5.5" result="effect1_foregroundBlur_2694_9040" />
										</filter>
										<linearGradient id="paint0_linear_2694_9040" x1="43" y1="34.7024" x2="43" y2="45.2321" gradientUnits="userSpaceOnUse">
											<stop stop-color="#C8D9FA" />
											<stop offset="0.51" stop-color="#C8DCF5" />
											<stop offset="1" stop-color="#D0E1F5" />
										</linearGradient>
										<linearGradient id="paint1_linear_2694_9040" x1="56.4444" y1="33.1111" x2="64.2156" y2="147.888" gradientUnits="userSpaceOnUse">
											<stop stop-color="white" />
											<stop offset="0.51" stop-color="#318BF8" />
											<stop offset="1" stop-color="#318EFE" />
											<stop offset="1" stop-color="white" />
										</linearGradient>
										<linearGradient id="paint2_linear_2694_9040" x1="44.9412" y1="16" x2="45.5883" y2="60.6471" gradientUnits="userSpaceOnUse">
											<stop stop-color="#EEEEEE" />
											<stop offset="0.470342" stop-color="#81B6F6" />
											<stop offset="1" stop-color="#CBD5E2" />
										</linearGradient>
										<linearGradient id="paint3_linear_2694_9040" x1="27" y1="22.4286" x2="27" y2="26.7857" gradientUnits="userSpaceOnUse">
											<stop stop-color="#EEEEEE" />
											<stop offset="0.51" stop-color="#C8DCF5" />
											<stop offset="1" stop-color="#CBD5E2" />
										</linearGradient>
										<linearGradient id="paint4_linear_2694_9040" x1="61.5" y1="53.5833" x2="61.5" y2="56.125" gradientUnits="userSpaceOnUse">
											<stop stop-color="#EEEEEE" />
											<stop offset="0.51" stop-color="#C8DCF5" />
											<stop offset="1" stop-color="#CBD5E2" />
										</linearGradient>
										<linearGradient id="paint5_linear_2694_9040" x1="48" y1="54.7381" x2="48" y2="55.4643" gradientUnits="userSpaceOnUse">
											<stop stop-color="#EEEEEE" />
											<stop offset="0.51" stop-color="#C8DCF5" />
											<stop offset="1" stop-color="#CBD5E2" />
										</linearGradient>
										<linearGradient id="paint6_linear_2694_9040" x1="46.1429" y1="38" x2="37.4286" y2="38" gradientUnits="userSpaceOnUse">
											<stop stop-color="#EEEEEE" />
											<stop offset="0.51" stop-color="#C8DCF5" />
											<stop offset="1" stop-color="#CBD5E2" />
										</linearGradient>
									</defs>
								</svg>