								<svg width="364" height="40" viewBox="0 0 364 40" fill="none" xmlns="http://www.w3.org/2000/svg">
									<path d="M61.5795 27.1621C58.8405 27.2836 56.8171 27.1778 55.515 26.5647C54.6434 26.1628 54.0082 25.2324 53.9544 24.1696C53.9061 23.271 53.9221 22.8055 54.3526 22.2717C55.3158 21.082 57.8344 20.8227 60.4279 20.7276C62.1765 20.6644 64.8511 20.8545 66.815 21.0767C66.799 22.8798 66.675 24.688 66.2768 25.4757C65.5776 26.8817 63.0699 27.0982 61.5795 27.1621ZM71.1309 10.98C68.6769 7.76782 64.2432 6.80032 59.6422 7.03291C54.9769 7.27085 51.7212 8.20656 50.8926 8.50556C50.3759 8.6881 50.4457 9.11079 50.4406 9.36447C50.4191 10.2158 50.349 12.4073 50.349 13.2955C50.3544 13.6921 50.8656 13.8743 51.2907 13.7289C52.9912 13.1605 56.1335 12.2459 58.6576 12.0504C61.3802 11.8443 65.0878 12.0504 66.1048 13.5231C66.5943 14.2208 66.6161 15.289 66.6753 16.3783C64.9748 16.2304 62.4565 16.0243 59.9545 16.1561C58.0067 16.2565 54.2773 16.4101 52.0767 17.523C50.2849 18.4216 49.241 19.2468 48.6811 20.7745C48.2292 22.0011 48.111 23.4819 48.2506 24.682C48.5789 27.4312 49.585 28.8063 50.9467 29.758C53.0883 31.2596 55.7949 32.0581 61.3911 31.9363C68.8333 31.7884 70.7971 29.504 71.7817 27.8756C73.4608 25.1154 73.17 20.7591 73.1216 18.0836C73.1005 16.9735 72.9281 13.3223 71.1309 10.98Z" fill="url(#paint0_linear_2694_8273)" />
									<path d="M98.0195 25.5699C96.6956 27.0029 94.2958 27.2562 92.3265 27.2562C90.3569 27.2562 87.9652 27.0079 86.6413 25.5803C85.3175 24.1422 85.2316 22.1755 85.2316 19.6796C85.2316 17.2055 85.3178 15.2806 86.6359 13.8451C87.9597 12.4124 90.0879 12.1666 92.3269 12.1666C94.5758 12.1666 96.6962 12.4124 98.0198 13.8451C99.3331 15.2809 99.4295 17.2055 99.4295 19.6796C99.4295 22.1651 99.3327 24.1422 98.0195 25.5699ZM92.3265 7.38672C88.5702 7.38672 84.8226 7.83616 82.4494 10.0566C80.0711 12.2695 79.1562 15.6007 79.1562 19.6796C79.1562 23.7617 79.974 27.0343 82.3526 29.2501C84.731 31.4598 88.5814 31.9993 92.3265 31.9993C96.0828 31.9993 99.817 31.5445 102.195 29.3344C104.563 27.1133 105.499 23.7614 105.499 19.6793C105.499 15.6003 104.67 12.346 102.292 10.1306C99.9247 7.91799 96.0825 7.38672 92.3265 7.38672Z" fill="url(#paint1_linear_2694_8273)" />
									<path d="M163.59 7.82422H158.273C158.047 7.82422 157.875 7.9989 157.875 8.2104V31.1974C157.875 31.4035 158.047 31.5782 158.273 31.5782H163.59C163.816 31.5782 163.999 31.4035 163.999 31.1974V8.21008C163.999 7.99858 163.816 7.82422 163.59 7.82422Z" fill="url(#paint2_linear_2694_8273)" />
									<path d="M138.891 7.42969C135.253 7.42969 132.939 8.16743 131.54 8.84946H130.572C129.205 8.13029 126.784 7.42969 122.984 7.42969C120.175 7.42969 116.732 7.62545 114.601 9.31998C112.847 10.7183 112.438 12.5794 112.438 16.4078V31.1862C112.438 31.3977 112.62 31.5667 112.847 31.5667H118.152C118.378 31.5667 118.572 31.3977 118.572 31.1862V31.1333C118.572 31.1333 118.572 21.7954 118.572 19.0251C118.572 16.8308 118.475 14.5439 118.97 13.6901C119.368 13.0291 119.971 12.2864 122.855 12.2864C126.299 12.2864 127.106 12.5136 127.644 13.9598C127.773 14.3007 127.838 14.7901 127.87 15.3849V20.2891V31.1865C127.87 31.398 128.053 31.567 128.279 31.567H133.585H133.595C133.821 31.567 134.004 31.398 134.004 31.1865V20.2888V15.3846C134.036 14.7898 134.09 14.3007 134.22 13.9595C134.768 12.5133 135.575 12.286 139.019 12.286C141.893 12.286 142.506 13.0288 142.894 13.6898C143.399 14.5436 143.302 16.8305 143.302 19.0248C143.302 21.7951 143.302 31.133 143.302 31.133V31.1859C143.302 31.3974 143.485 31.5664 143.711 31.5664H149.017C149.243 31.5664 149.437 31.3974 149.437 31.1859V17.312C149.437 13.3385 149.296 11.3028 147.338 9.56862C145.165 7.66511 141.699 7.42969 138.891 7.42969Z" fill="url(#paint3_linear_2694_8273)" />
									<path d="M40.3451 7.82422H35.0337C34.8076 7.82422 34.625 7.9989 34.625 8.2104V31.1974C34.625 31.4035 34.8079 31.5782 35.0337 31.5782H40.3451C40.5713 31.5782 40.7539 31.4035 40.7539 31.1974V8.21008C40.7539 7.99858 40.5713 7.82422 40.3451 7.82422Z" fill="url(#paint4_linear_2694_8273)" />
									<path d="M18.025 19.5054L27.4582 8.42297C27.6626 8.18503 27.4797 7.82812 27.1568 7.82812H20.3553C20.1938 7.82812 20.043 7.89674 19.9408 8.02106L13.7098 15.8627L7.63439 8.02137C7.53221 7.89705 7.38135 7.82844 7.21446 7.82844H0.391487C0.068612 7.82844 -0.114286 8.18535 0.0903932 8.42329L9.63635 19.7119L0.0795026 30.9844C-0.114286 31.2274 0.068612 31.5767 0.386362 31.5767H7.20389C7.37078 31.5767 7.52677 31.5028 7.6235 31.3756L13.9894 23.5608L20.0215 31.3756C20.1186 31.5025 20.2746 31.5767 20.436 31.5767H27.1728C27.4957 31.5767 27.6786 31.2277 27.4797 30.9844L18.025 19.5054Z" fill="url(#paint5_linear_2694_8273)" />
									<defs>
										<linearGradient id="paint0_linear_2694_8273" x1="60.6831" y1="16.2072" x2="60.6831" y2="25.2658" gradientUnits="userSpaceOnUse">
											<stop stop-color="#EEEEEE" />
											<stop offset="0.51" stop-color="#C8DCF5" />
											<stop offset="1" stop-color="#CBD5E2" />
										</linearGradient>
										<linearGradient id="paint1_linear_2694_8273" x1="92.3278" y1="16.4699" x2="92.3278" y2="25.4066" gradientUnits="userSpaceOnUse">
											<stop stop-color="#EEEEEE" />
											<stop offset="0.51" stop-color="#C8DCF5" />
											<stop offset="1" stop-color="#CBD5E2" />
										</linearGradient>
										<linearGradient id="paint2_linear_2694_8273" x1="160.937" y1="16.5906" x2="160.937" y2="25.2155" gradientUnits="userSpaceOnUse">
											<stop stop-color="#EEEEEE" />
											<stop offset="0.51" stop-color="#C8DCF5" />
											<stop offset="1" stop-color="#CBD5E2" />
										</linearGradient>
										<linearGradient id="paint3_linear_2694_8273" x1="130.937" y1="16.3375" x2="130.937" y2="25.1016" gradientUnits="userSpaceOnUse">
											<stop stop-color="#EEEEEE" />
											<stop offset="0.51" stop-color="#C8DCF5" />
											<stop offset="1" stop-color="#CBD5E2" />
										</linearGradient>
										<linearGradient id="paint4_linear_2694_8273" x1="37.6894" y1="16.5906" x2="37.6894" y2="25.2155" gradientUnits="userSpaceOnUse">
											<stop stop-color="#EEEEEE" />
											<stop offset="0.51" stop-color="#C8DCF5" />
											<stop offset="1" stop-color="#CBD5E2" />
										</linearGradient>
										<linearGradient id="paint5_linear_2694_8273" x1="13.7812" y1="16.5925" x2="13.7812" y2="25.2155" gradientUnits="userSpaceOnUse">
											<stop stop-color="#EEEEEE" />
											<stop offset="0.51" stop-color="#C8DCF5" />
											<stop offset="1" stop-color="#CBD5E2" />
										</linearGradient>
									</defs>
								</svg>