								<svg width="160" height="34" viewBox="0 0 160 34" fill="none" xmlns="http://www.w3.org/2000/svg">
									<path d="M67.075 7.56641C64.1688 7.56641 60.8844 8.91328 58.9063 11.5664V7.98828H52V33.082H58.9063V18.807C58.9063 16.2383 60.8844 13.5008 64.5906 13.5008C67.4531 13.5008 70.4 15.4789 70.4 18.807V33.082H77.3063V17.5445C77.2625 11.7758 73.1375 7.56641 67.075 7.56641Z" fill="url(#paint0_linear_2694_8260)" />
									<path d="M126.228 7.98828L119.997 25.082L113.766 7.98828H105.891L116.206 33.082H123.788L134.103 7.98828H126.228Z" fill="url(#paint1_linear_2694_8260)" />
									<path d="M31.4125 15.5664C32.5906 14.007 34.4437 13.082 36.7188 13.082C39.2031 13.082 41.0969 14.5133 42.0656 16.5758L30.025 21.5852C29.6875 18.9758 30.3625 16.9977 31.4125 15.5664ZM44.6781 25.3758C41.7719 27.5227 40.1313 28.0289 37.4781 28.0289C35.0781 28.0289 33.225 27.2695 31.9187 26.007L49.5187 18.682C49.1406 15.9445 48.0875 13.5445 46.5281 11.6914C44.2125 8.99766 40.8031 7.56641 36.6344 7.56641C29.0563 7.56641 23.3281 13.1664 23.3281 20.5352C23.3281 28.1133 29.0531 33.5039 37.3906 33.5039C42.0656 33.5039 46.8219 31.3133 49.0531 28.7039L44.6781 25.3758Z" fill="url(#paint2_linear_2694_8260)" />
									<path d="M22.6531 26.7672H6.99063V0.492188H0V33.0828H22.6531V26.7672Z" fill="url(#paint3_linear_2694_8260)" />
									<path d="M146.486 13.4602C142.655 13.4602 139.833 16.3664 139.833 20.5352C139.833 24.4945 142.78 27.6102 146.57 27.6102C150.402 27.6102 153.223 24.6195 153.223 20.5352C153.223 16.5758 150.233 13.4602 146.486 13.4602ZM146.486 33.5039C138.948 33.5039 133.055 27.9039 133.055 20.5352C133.055 13.2508 138.992 7.56641 146.57 7.56641C154.108 7.56641 160.002 13.1664 160.002 20.5352C160.002 27.8195 154.064 33.5039 146.486 33.5039Z" fill="url(#paint4_linear_2694_8260)" />
									<path d="M93.4313 13.4602C89.6 13.4602 86.7781 16.3664 86.7781 20.5352C86.7781 24.4945 89.725 27.6102 93.5156 27.6102C97.3469 27.6102 100.169 24.6195 100.169 20.5352C100.169 16.5758 97.1781 13.4602 93.4313 13.4602ZM93.4313 33.5039C85.8938 33.5039 80 27.9039 80 20.5352C80 13.2508 85.9375 7.56641 93.5156 7.56641C101.053 7.56641 106.947 13.1664 106.947 20.5352C106.947 27.8195 101.009 33.5039 93.4313 33.5039Z" fill="url(#paint5_linear_2694_8260)" />
									<defs>
										<linearGradient id="paint0_linear_2694_8260" x1="64.6531" y1="16.9829" x2="64.6531" y2="26.2475" gradientUnits="userSpaceOnUse">
											<stop stop-color="#EEEEEE" />
											<stop offset="0.51" stop-color="#C8DCF5" />
											<stop offset="1" stop-color="#CBD5E2" />
										</linearGradient>
										<linearGradient id="paint1_linear_2694_8260" x1="119.997" y1="17.2491" x2="119.997" y2="26.3605" gradientUnits="userSpaceOnUse">
											<stop stop-color="#EEEEEE" />
											<stop offset="0.51" stop-color="#C8DCF5" />
											<stop offset="1" stop-color="#CBD5E2" />
										</linearGradient>
										<linearGradient id="paint2_linear_2694_8260" x1="36.4234" y1="17.1386" x2="36.4234" y2="26.5564" gradientUnits="userSpaceOnUse">
											<stop stop-color="#EEEEEE" />
											<stop offset="0.51" stop-color="#C8DCF5" />
											<stop offset="1" stop-color="#CBD5E2" />
										</linearGradient>
										<linearGradient id="paint3_linear_2694_8260" x1="11.3266" y1="12.5197" x2="11.3266" y2="24.3532" gradientUnits="userSpaceOnUse">
											<stop stop-color="#EEEEEE" />
											<stop offset="0.51" stop-color="#C8DCF5" />
											<stop offset="1" stop-color="#CBD5E2" />
										</linearGradient>
										<linearGradient id="paint4_linear_2694_8260" x1="146.528" y1="17.1386" x2="146.528" y2="26.5564" gradientUnits="userSpaceOnUse">
											<stop stop-color="#EEEEEE" />
											<stop offset="0.51" stop-color="#C8DCF5" />
											<stop offset="1" stop-color="#CBD5E2" />
										</linearGradient>
										<linearGradient id="paint5_linear_2694_8260" x1="93.4734" y1="17.1386" x2="93.4734" y2="26.5564" gradientUnits="userSpaceOnUse">
											<stop stop-color="#EEEEEE" />
											<stop offset="0.51" stop-color="#C8DCF5" />
											<stop offset="1" stop-color="#CBD5E2" />
										</linearGradient>
									</defs>
								</svg>