								<svg width="400" height="122" viewBox="0 0 400 122" fill="none" xmlns="http://www.w3.org/2000/svg">
									<g opacity="0.3" filter="url(#filter0_f_2757_162922)">
										<path
											d="M267.591 96.5938H319.862V110H249.445V96.5938L301.852 25.9063H249.445V12.5H319.862V25.9063L267.591 96.5938Z"
											fill="url(#paint0_linear_2757_162922)" />
										<path
											d="M230.719 64.0938C234.601 69.1493 236.451 74.9722 236.271 81.5625C236.09 87.9722 234.104 93.7049 230.312 98.7604C226.521 103.455 221.601 106.75 215.552 108.646C211.941 109.549 208.104 110 204.042 110H166.125V12.5H202.01C206.795 12.5 210.271 12.9063 212.438 13.7188C218.125 15.3438 222.639 18.3681 225.979 22.7917C229.59 27.2153 231.531 32.4965 231.802 38.6354C232.073 44.4132 230.222 49.7396 226.25 54.6146C225.799 55.2465 225.031 56.1944 223.948 57.4583C226.476 59.1736 228.733 61.3854 230.719 64.0938ZM204.312 25.7708H180.479V52.3125H204.312C206.028 52.3125 207.878 51.816 209.865 50.8229C211.851 49.8299 213.385 48.5208 214.469 46.8958C216.365 44.5486 217.312 41.7951 217.312 38.6354C217.132 35.2951 215.958 32.4514 213.792 30.1042C211.354 27.2153 208.194 25.7708 204.312 25.7708ZM221.917 81.5625C222.097 77.5903 220.878 74.1146 218.26 71.1354C215.191 67.434 211.309 65.5833 206.615 65.5833H180.479V96.5938H203.906C209.955 96.5938 214.469 95.059 217.448 91.9896C220.247 89.2813 221.736 85.8056 221.917 81.5625Z"
											fill="url(#paint1_linear_2757_162922)" />
										<path
											d="M146.039 64.0938C149.921 69.1493 151.772 74.9722 151.591 81.5625C151.411 87.9722 149.424 93.7049 145.633 98.7604C141.841 103.455 136.921 106.75 130.872 108.646C127.261 109.549 123.424 110 119.362 110H81.4453V12.5H117.331C122.115 12.5 125.591 12.9063 127.758 13.7188C133.445 15.3438 137.959 18.3681 141.299 22.7917C144.911 27.2153 146.852 32.4965 147.122 38.6354C147.393 44.4132 145.543 49.7396 141.57 54.6146C141.119 55.2465 140.352 56.1944 139.268 57.4583C141.796 59.1736 144.053 61.3854 146.039 64.0938ZM119.633 25.7708H95.7995V52.3125H119.633C121.348 52.3125 123.199 51.816 125.185 50.8229C127.171 49.8299 128.706 48.5208 129.789 46.8958C131.685 44.5486 132.633 41.7951 132.633 38.6354C132.452 35.2951 131.279 32.4514 129.112 30.1042C126.674 27.2153 123.515 25.7708 119.633 25.7708ZM137.237 81.5625C137.418 77.5903 136.199 74.1146 133.581 71.1354C130.511 67.434 126.629 65.5833 121.935 65.5833H95.7995V96.5938H119.227C125.275 96.5938 129.789 95.059 132.768 91.9896C135.567 89.2813 137.056 85.8056 137.237 81.5625Z"
											fill="url(#paint2_linear_2757_162922)" />
									</g>
									<path
										d="M146.041 64.0937C149.923 69.1493 151.773 74.9722 151.593 81.5625C151.412 87.9722 149.426 93.7049 145.634 98.7604C141.843 103.455 136.923 106.75 130.874 108.646C127.263 109.549 123.426 110 119.364 110H81.4469V12.5H117.332C122.117 12.5 125.593 12.9062 127.759 13.7187C133.447 15.3437 137.961 18.3681 141.301 22.7917C144.912 27.2153 146.853 32.4965 147.124 38.6354C147.395 44.4132 145.544 49.7396 141.572 54.6146C141.121 55.2465 140.353 56.1944 139.27 57.4583C141.798 59.1736 144.055 61.3854 146.041 64.0937ZM119.634 25.7708H95.8011V52.3125H119.634C121.35 52.3125 123.2 51.816 125.187 50.8229C127.173 49.8299 128.707 48.5208 129.791 46.8958C131.687 44.5486 132.634 41.7951 132.634 38.6354C132.454 35.2951 131.28 32.4514 129.114 30.1042C126.676 27.2153 123.516 25.7708 119.634 25.7708ZM137.239 81.5625C137.419 77.5903 136.2 74.1146 133.582 71.1354C130.513 67.434 126.631 65.5833 121.937 65.5833H95.8011V96.5937H119.228C125.277 96.5937 129.791 95.059 132.77 91.9896C135.568 89.2812 137.058 85.8056 137.239 81.5625ZM230.718 64.0937C234.6 69.1493 236.451 74.9722 236.271 81.5625C236.09 87.9722 234.104 93.7049 230.312 98.7604C226.521 103.455 221.6 106.75 215.552 108.646C211.941 109.549 208.104 110 204.041 110H166.125V12.5H202.01C206.795 12.5 210.271 12.9062 212.437 13.7187C218.125 15.3437 222.639 18.3681 225.979 22.7917C229.59 27.2153 231.531 32.4965 231.802 38.6354C232.073 44.4132 230.222 49.7396 226.25 54.6146C225.798 55.2465 225.031 56.1944 223.948 57.4583C226.475 59.1736 228.732 61.3854 230.718 64.0937ZM204.312 25.7708H180.479V52.3125H204.312C206.027 52.3125 207.878 51.816 209.864 50.8229C211.85 49.8299 213.385 48.5208 214.468 46.8958C216.364 44.5486 217.312 41.7951 217.312 38.6354C217.132 35.2951 215.958 32.4514 213.791 30.1042C211.354 27.2153 208.194 25.7708 204.312 25.7708ZM221.916 81.5625C222.097 77.5903 220.878 74.1146 218.26 71.1354C215.191 67.434 211.309 65.5833 206.614 65.5833H180.479V96.5937H203.906C209.955 96.5937 214.468 95.059 217.448 91.9896C220.246 89.2812 221.736 85.8056 221.916 81.5625ZM267.594 96.5937H319.865V110H249.448V96.5937L301.854 25.9062H249.448V12.5H319.865V25.9062L267.594 96.5937Z"
										fill="url(#paint3_linear_2757_162922)" />
									<defs>
										<filter id="filter0_f_2757_162922" x="69.4453" y="0.5" width="262.418" height="121.5"
											filterUnits="userSpaceOnUse" color-interpolation-filters="sRGB">
											<feFlood flood-opacity="0" result="BackgroundImageFix" />
											<feBlend mode="normal" in="SourceGraphic" in2="BackgroundImageFix" result="shape" />
											<feGaussianBlur stdDeviation="6" result="effect1_foregroundBlur_2757_162922" />
										</filter>
										<linearGradient id="paint0_linear_2757_162922" x1="199.997" y1="12" x2="139.979" y2="149.13"
											gradientUnits="userSpaceOnUse">
											<stop stop-color="#A1C6FB" />
											<stop offset="1" stop-color="white" />
										</linearGradient>
										<linearGradient id="paint1_linear_2757_162922" x1="200" y1="12" x2="139.982" y2="149.13"
											gradientUnits="userSpaceOnUse">
											<stop stop-color="#A1C6FB" />
											<stop offset="1" stop-color="white" />
										</linearGradient>
										<linearGradient id="paint2_linear_2757_162922" x1="199.998" y1="12" x2="139.98" y2="149.13"
											gradientUnits="userSpaceOnUse">
											<stop stop-color="#A1C6FB" />
											<stop offset="1" stop-color="white" />
										</linearGradient>
										<linearGradient id="paint3_linear_2757_162922" x1="200" y1="12" x2="139.982" y2="149.13"
											gradientUnits="userSpaceOnUse">
											<stop stop-color="#ADCDFA" />
											<stop offset="1" stop-color="white" />
										</linearGradient>
									</defs>
								</svg>