								<svg width="263" height="122" viewBox="0 0 263 122" fill="none" xmlns="http://www.w3.org/2000/svg">
									<g opacity="0.3" filter="url(#filter0_f_2694_21842)">
										<path
											d="M198.591 96.5938H250.862V110H180.445V96.5938L232.852 25.9063H180.445V12.5H250.862V25.9063L198.591 96.5938Z"
											fill="url(#paint0_linear_2694_21842)" />
										<path
											d="M161.719 64.0938C165.601 69.1493 167.451 74.9722 167.271 81.5625C167.09 87.9722 165.104 93.7049 161.312 98.7604C157.521 103.455 152.601 106.75 146.552 108.646C142.941 109.549 139.104 110 135.042 110H97.125V12.5H133.01C137.795 12.5 141.271 12.9063 143.438 13.7188C149.125 15.3438 153.639 18.3681 156.979 22.7917C160.59 27.2153 162.531 32.4965 162.802 38.6354C163.073 44.4132 161.222 49.7396 157.25 54.6146C156.799 55.2465 156.031 56.1944 154.948 57.4583C157.476 59.1736 159.733 61.3854 161.719 64.0938ZM135.312 25.7708H111.479V52.3125H135.312C137.028 52.3125 138.878 51.816 140.865 50.8229C142.851 49.8299 144.385 48.5208 145.469 46.8958C147.365 44.5486 148.312 41.7951 148.312 38.6354C148.132 35.2951 146.958 32.4514 144.792 30.1042C142.354 27.2153 139.194 25.7708 135.312 25.7708ZM152.917 81.5625C153.097 77.5903 151.878 74.1146 149.26 71.1354C146.191 67.434 142.309 65.5833 137.615 65.5833H111.479V96.5938H134.906C140.955 96.5938 145.469 95.059 148.448 91.9896C151.247 89.2813 152.736 85.8056 152.917 81.5625Z"
											fill="url(#paint1_linear_2694_21842)" />
										<path
											d="M77.0391 64.0938C80.921 69.1493 82.7717 74.9722 82.5911 81.5625C82.4106 87.9722 80.4245 93.7049 76.6328 98.7604C72.8411 103.455 67.921 106.75 61.8724 108.646C58.2613 109.549 54.4245 110 50.362 110H12.4453V12.5H48.3307C53.1155 12.5 56.5911 12.9063 58.7578 13.7188C64.4453 15.3438 68.9592 18.3681 72.2995 22.7917C75.9106 27.2153 77.8516 32.4965 78.1224 38.6354C78.3932 44.4132 76.5425 49.7396 72.5703 54.6146C72.1189 55.2465 71.3516 56.1944 70.2682 57.4583C72.796 59.1736 75.053 61.3854 77.0391 64.0938ZM50.6328 25.7708H26.7995V52.3125H50.6328C52.3481 52.3125 54.1988 51.816 56.1849 50.8229C58.171 49.8299 59.7057 48.5208 60.7891 46.8958C62.6849 44.5486 63.6328 41.7951 63.6328 38.6354C63.4523 35.2951 62.2787 32.4514 60.112 30.1042C57.6745 27.2153 54.5148 25.7708 50.6328 25.7708ZM68.237 81.5625C68.4175 77.5903 67.1988 74.1146 64.5807 71.1354C61.5113 67.434 57.6293 65.5833 52.9349 65.5833H26.7995V96.5938H50.2266C56.2752 96.5938 60.7891 95.059 63.7682 91.9896C66.5668 89.2813 68.0564 85.8056 68.237 81.5625Z"
											fill="url(#paint2_linear_2694_21842)" />
									</g>
									<defs>
										<filter id="filter0_f_2694_21842" x="0.445312" y="0.5" width="262.418" height="121.5"
											filterUnits="userSpaceOnUse" color-interpolation-filters="sRGB">
											<feFlood flood-opacity="0" result="BackgroundImageFix" />
											<feBlend mode="normal" in="SourceGraphic" in2="BackgroundImageFix" result="shape" />
											<feGaussianBlur stdDeviation="6" result="effect1_foregroundBlur_2694_21842" />
										</filter>
										<linearGradient id="paint0_linear_2694_21842" x1="130.997" y1="12" x2="70.9791" y2="149.13"
											gradientUnits="userSpaceOnUse">
											<stop stop-color="#A1C6FB" />
											<stop offset="1" stop-color="white" />
										</linearGradient>
										<linearGradient id="paint1_linear_2694_21842" x1="131" y1="12" x2="70.9823" y2="149.13"
											gradientUnits="userSpaceOnUse">
											<stop stop-color="#A1C6FB" />
											<stop offset="1" stop-color="white" />
										</linearGradient>
										<linearGradient id="paint2_linear_2694_21842" x1="130.998" y1="12" x2="70.9803" y2="149.13"
											gradientUnits="userSpaceOnUse">
											<stop stop-color="#A1C6FB" />
											<stop offset="1" stop-color="white" />
										</linearGradient>
									</defs>
								</svg>