						<svg width="1202" height="578" viewBox="0 0 1202 578" fill="none" xmlns="http://www.w3.org/2000/svg">
							<rect x="401" y="1" width="400" height="76" fill="url(#paint0_linear_2694_19912)"/>
							<rect x="801" y="1" width="400" height="76" fill="url(#paint1_linear_2694_19912)"/>
							<rect x="1" y="1" width="400" height="76" fill="url(#paint2_linear_2694_19912)"/>
							<rect x="1.25" y="1.25" width="1199.5" height="575.5" stroke="#212941" stroke-width="0.5"/>
							<line x1="400.75" y1="577" x2="400.75" y2="1" stroke="#212941" stroke-width="0.5"/>
							<line x1="2" y1="120.75" x2="1202" y2="120.75" stroke="url(#paint3_linear_2694_19912)" stroke-width="0.5"/>
							<line x1="2" y1="196.75" x2="1202" y2="196.75" stroke="url(#paint4_linear_2694_19912)" stroke-width="0.5"/>
							<line x1="2" y1="76.75" x2="1202" y2="76.7501" stroke="url(#paint5_linear_2694_19912)" stroke-width="0.5"/>
							<line x1="800.75" y1="577" x2="800.75" y2="1" stroke="#212941" stroke-width="0.5"/>
							<circle cx="400.75" cy="1.25" r="0.75" fill="white"/>
							<circle cx="400.75" cy="76.75" r="0.75" fill="white"/>
							<circle cx="1.25" cy="76.75" r="0.75" fill="white"/>
							<circle cx="400.75" cy="120.75" r="0.75" fill="white"/>
							<circle cx="400.75" cy="196.75" r="0.75" fill="white"/>
							<circle cx="1.25" cy="120.75" r="0.75" fill="white"/>
							<circle cx="1.25" cy="196.75" r="0.75" fill="white"/>
							<circle cx="400.75" cy="576.75" r="0.75" fill="white"/>
							<circle cx="1.25" cy="1.75" r="0.75" fill="white"/>
							<circle cx="1.25" cy="576.75" r="0.75" fill="white"/>
							<circle cx="800.75" cy="1.25" r="0.75" fill="white"/>
							<circle cx="800.75" cy="76.75" r="0.75" fill="white"/>
							<circle cx="1201.25" cy="76.75" r="0.75" fill="white"/>
							<circle cx="800.75" cy="120.75" r="0.75" fill="white"/>
							<circle cx="800.75" cy="196.75" r="0.75" fill="white"/>
							<circle cx="1201.25" cy="120.75" r="0.75" fill="white"/>
							<circle cx="1201.25" cy="196.75" r="0.75" fill="white"/>
							<circle cx="800.75" cy="576.75" r="0.75" fill="white"/>
							<circle cx="1200.75" cy="1.75" r="0.75" fill="white"/>
							<circle cx="1200.75" cy="576.75" r="0.75" fill="white"/>
							<defs>
							<linearGradient id="paint0_linear_2694_19912" x1="801" y1="18.8823" x2="401" y2="18.8823" gradientUnits="userSpaceOnUse">
							<stop stop-color="#131827" stop-opacity="0"/>
							<stop offset="0.49" stop-color="#1D2A51" stop-opacity="0.51"/>
							<stop offset="1" stop-color="#131827" stop-opacity="0"/>
							</linearGradient>
							<linearGradient id="paint1_linear_2694_19912" x1="1201" y1="18.8823" x2="801" y2="18.8823" gradientUnits="userSpaceOnUse">
							<stop stop-color="#131827" stop-opacity="0"/>
							<stop offset="0.49" stop-color="#1D2A51" stop-opacity="0.51"/>
							<stop offset="1" stop-color="#131827" stop-opacity="0"/>
							</linearGradient>
							<linearGradient id="paint2_linear_2694_19912" x1="401" y1="18.8823" x2="1" y2="18.8823" gradientUnits="userSpaceOnUse">
							<stop stop-color="#131827" stop-opacity="0"/>
							<stop offset="0.49" stop-color="#1D2A51" stop-opacity="0.51"/>
							<stop offset="1" stop-color="#131827" stop-opacity="0"/>
							</linearGradient>
							<linearGradient id="paint3_linear_2694_19912" x1="1202" y1="121" x2="2" y2="121" gradientUnits="userSpaceOnUse">
							<stop stop-color="#212A41" stop-opacity="0"/>
							<stop offset="0.242142" stop-color="#212A41" stop-opacity="0.6"/>
							<stop offset="0.499974" stop-color="#212A41"/>
							<stop offset="0.762142" stop-color="#212A41" stop-opacity="0.6"/>
							<stop offset="1" stop-color="#212A41" stop-opacity="0"/>
							</linearGradient>
							<linearGradient id="paint4_linear_2694_19912" x1="1202" y1="197" x2="2" y2="197" gradientUnits="userSpaceOnUse">
							<stop stop-color="#212A41" stop-opacity="0"/>
							<stop offset="0.242142" stop-color="#212A41" stop-opacity="0.6"/>
							<stop offset="0.499974" stop-color="#212A41"/>
							<stop offset="0.762142" stop-color="#212A41" stop-opacity="0.6"/>
							<stop offset="1" stop-color="#212A41" stop-opacity="0"/>
							</linearGradient>
							<linearGradient id="paint5_linear_2694_19912" x1="1202" y1="77" x2="2" y2="77.0001" gradientUnits="userSpaceOnUse">
							<stop stop-color="#212A41" stop-opacity="0"/>
							<stop offset="0.242142" stop-color="#212A41" stop-opacity="0.6"/>
							<stop offset="0.499974" stop-color="#212A41"/>
							<stop offset="0.762142" stop-color="#212A41" stop-opacity="0.6"/>
							<stop offset="1" stop-color="#212A41" stop-opacity="0"/>
							</linearGradient>
							</defs>
						</svg>