									<svg width="44" height="44" viewBox="0 0 44 44" fill="none" xmlns="http://www.w3.org/2000/svg">
										<g clip-path="url(#clip0_2694_19974)">
										<path d="M22 44C34.1503 44 44 34.1503 44 22C44 9.84974 34.1503 0 22 0C9.84974 0 0 9.84974 0 22C0 34.1503 9.84974 44 22 44Z" fill="url(#paint0_linear_2694_19974)"/>
										<path d="M15.2853 6.10568L15.2853 6.10569C13.2311 6.97466 11.3862 8.2183 9.80226 9.80226C8.21829 11.3862 6.97466 13.2311 6.10569 15.2853L6.33593 15.3827L6.10568 15.2853C5.20605 17.4125 4.75 19.6721 4.75 22C4.75 24.3279 5.20605 26.5875 6.10568 28.7147L6.33593 28.6173L6.10569 28.7147C6.97466 30.7689 8.21829 32.6138 9.80226 34.1977C11.3862 35.7817 13.2311 37.0253 15.2853 37.8943L15.3827 37.6641L15.2853 37.8943C17.4125 38.7939 19.6721 39.25 22 39.25C24.3279 39.25 26.5875 38.7939 28.7147 37.8943L28.6173 37.6641L28.7147 37.8943C30.7689 37.0253 32.6138 35.7817 34.1977 34.1977C35.7817 32.6138 37.0253 30.7689 37.8943 28.7147L37.8943 28.7147C38.7939 26.5875 39.25 24.3279 39.25 22C39.25 19.6721 38.7939 17.4125 37.8943 15.2853L37.8943 15.2853C37.0253 13.2311 35.7817 11.3862 34.1977 9.80226C32.6138 8.2183 30.7689 6.97467 28.7147 6.10569L28.7147 6.10568C26.5875 5.20605 24.3279 4.75 22 4.75C19.6721 4.75 17.4125 5.20605 15.2853 6.10568Z" fill="url(#paint1_radial_2694_19974)" stroke="url(#paint2_linear_2694_19974)" stroke-width="0.5"/>
										<path d="M12.5556 18.0101L12.5556 18.0101C12.021 19.2742 11.75 20.617 11.75 22C11.75 23.383 12.021 24.7258 12.5556 25.9899L12.5556 25.9899C13.0719 27.2105 13.811 28.3068 14.7521 29.2479C15.6931 30.189 16.7895 30.9281 18.0101 31.4444L18.0101 31.4444C19.2742 31.979 20.617 32.25 22 32.25C23.383 32.25 24.7258 31.979 25.9899 31.4444L25.9899 31.4444C27.2105 30.9281 28.3068 30.189 29.2479 29.2479C30.189 28.3069 30.9281 27.2105 31.4444 25.9899L31.4444 25.9899C31.979 24.7258 32.25 23.383 32.25 22C32.25 20.617 31.979 19.2742 31.4444 18.0101L31.4444 18.0101C30.9281 16.7895 30.189 15.6932 29.2479 14.7521C28.3068 13.811 27.2105 13.0719 25.9899 12.5556L25.9899 12.5556C24.7258 12.021 23.383 11.75 22 11.75C20.617 11.75 19.2742 12.021 18.0101 12.5556L18.0101 12.5556C16.7895 13.0719 15.6931 13.811 14.7521 14.7521C13.811 15.6932 13.0719 16.7895 12.5556 18.0101Z" fill="#070917" stroke="url(#paint3_linear_2694_19974)" stroke-width="0.5"/>
										<g filter="url(#filter0_f_2694_19974)">
										<path d="M15 22C15 21.0551 15.1851 20.1383 15.5501 19.2752C15.9027 18.4417 16.4073 17.6931 17.0502 17.0502C17.6931 16.4073 18.4417 15.9027 19.2752 15.5501C20.1383 15.1851 21.0551 15 22 15C22.9449 15 23.8617 15.1851 24.7248 15.5501C25.5583 15.9027 26.3069 16.4073 26.9498 17.0502C27.5927 17.6931 28.0973 18.4417 28.4499 19.2752C28.8149 20.1383 29 21.0551 29 22C29 22.9449 28.8149 23.8617 28.4499 24.7248C28.0973 25.5583 27.5927 26.3069 26.9498 26.9498C26.3069 27.5927 25.5583 28.0973 24.7248 28.4499C23.8617 28.8149 22.9449 29 22 29C21.0551 29 20.1383 28.8149 19.2752 28.4499C18.4417 28.0973 17.6931 27.5927 17.0502 26.9498C16.4073 26.3069 15.9027 25.5583 15.5501 24.7248C15.1851 23.8617 15 22.9449 15 22Z" fill="#B0B8EB"/>
										</g>
										<path d="M18 22C18 21.4601 18.1058 20.9362 18.3143 20.443C18.5158 19.9667 18.8042 19.5389 19.1715 19.1715C19.5389 18.8042 19.9667 18.5158 20.443 18.3143C20.9362 18.1058 21.4601 18 22 18C22.5399 18 23.0638 18.1058 23.557 18.3143C24.0333 18.5158 24.4611 18.8042 24.8285 19.1715C25.1958 19.5389 25.4842 19.9667 25.6857 20.443C25.8942 20.9362 26 21.4601 26 22C26 22.5399 25.8942 23.0638 25.6857 23.557C25.4842 24.0333 25.1958 24.4611 24.8285 24.8285C24.4611 25.1958 24.0333 25.4842 23.557 25.6857C23.0638 25.8942 22.5399 26 22 26C21.4601 26 20.9362 25.8942 20.443 25.6857C19.9667 25.4842 19.5389 25.1958 19.1715 24.8285C18.8042 24.4611 18.5158 24.0333 18.3143 23.557C18.1058 23.0638 18 22.5399 18 22Z" fill="url(#paint4_radial_2694_19974)"/>
										</g>
										<defs>
										<filter id="filter0_f_2694_19974" x="3" y="3" width="38" height="38" filterUnits="userSpaceOnUse" color-interpolation-filters="sRGB">
										<feFlood flood-opacity="0" result="BackgroundImageFix"/>
										<feBlend mode="normal" in="SourceGraphic" in2="BackgroundImageFix" result="shape"/>
										<feGaussianBlur stdDeviation="6" result="effect1_foregroundBlur_2694_19974"/>
										</filter>
										<linearGradient id="paint0_linear_2694_19974" x1="22" y1="0" x2="12" y2="49.5" gradientUnits="userSpaceOnUse">
										<stop stop-color="#798CB9"/>
										<stop offset="0.522142" stop-color="#5069A5"/>
										<stop offset="1" stop-color="#576689"/>
										</linearGradient>
										<radialGradient id="paint1_radial_2694_19974" cx="0" cy="0" r="1" gradientUnits="userSpaceOnUse" gradientTransform="translate(25.25 22) rotate(-14.3282) scale(107.081 173.975)">
										<stop stop-color="white"/>
										<stop offset="0.51" stop-color="#318BF8"/>
										<stop offset="1" stop-color="white"/>
										<stop offset="1" stop-color="#318EFE"/>
										</radialGradient>
										<linearGradient id="paint2_linear_2694_19974" x1="39" y1="23.5" x2="4.5" y2="24" gradientUnits="userSpaceOnUse">
										<stop stop-color="#EEEEEE"/>
										<stop offset="0.470342" stop-color="#81B6F6"/>
										<stop offset="1" stop-color="#CBD5E2"/>
										</linearGradient>
										<linearGradient id="paint3_linear_2694_19974" x1="32.5" y1="21.5" x2="12" y2="22" gradientUnits="userSpaceOnUse">
										<stop stop-color="white"/>
										<stop offset="0.51" stop-color="#E9EEF5"/>
										<stop offset="1" stop-color="white"/>
										</linearGradient>
										<radialGradient id="paint4_radial_2694_19974" cx="0" cy="0" r="1" gradientUnits="userSpaceOnUse" gradientTransform="translate(75 37.5) rotate(-160.178) scale(45.7083 1.8308e-05)">
										<stop stop-color="#EEEEEE"/>
										<stop offset="1" stop-color="#D3E5FA"/>
										</radialGradient>
										<clipPath id="clip0_2694_19974">
										<rect width="44" height="44" fill="white"/>
										</clipPath>
										</defs>
									</svg>