								<svg width="44" height="44" viewBox="0 0 44 44" fill="none" xmlns="http://www.w3.org/2000/svg">
									<path d="M1.74986 23.0796C1.61941 23.2929 1.61927 23.2928 1.61912 23.2927L1.61878 23.2925L1.6179 23.292L1.61546 23.2905L1.60786 23.2856C1.60164 23.2817 1.59311 23.2761 1.5826 23.2691C1.56159 23.2549 1.53249 23.2347 1.49774 23.2086C1.42853 23.1567 1.33537 23.0807 1.23852 22.9832C1.04921 22.7925 0.823127 22.4968 0.764387 22.1196C0.702969 21.7251 0.832069 21.2942 1.25389 20.8647C1.66733 20.4436 2.36926 20.0141 3.48339 19.5883C9.98941 16.985 33.3734 7.50039 39.1893 5.14007V5.12897L39.3501 5.06758L39.4393 5.30114C39.3501 5.06758 39.3502 5.06754 39.3503 5.06749L39.3506 5.06737L39.3515 5.06704L39.3544 5.06597L39.3642 5.06235C39.3725 5.05929 39.3844 5.05498 39.3996 5.04962C39.4301 5.03891 39.4739 5.02399 39.529 5.00647C39.6392 4.97149 39.7955 4.92595 39.9818 4.88299C40.3515 4.79776 40.8529 4.71951 41.3522 4.76188C41.8513 4.80423 42.3771 4.97022 42.7524 5.40235C43.1288 5.83581 43.3139 6.49087 43.2301 7.42468C43.1501 8.51451 42.6671 11.5834 42.0771 15.3324C41.8619 16.6993 41.6326 18.1566 41.4034 19.6413L41.4031 19.6433L38.7189 36.1526C38.7187 36.1534 38.7186 36.1543 38.7185 36.1552C38.5433 37.3874 38.118 38.2118 37.5019 38.7009C36.8843 39.1913 36.1182 39.3106 35.3356 39.224C33.7855 39.0522 32.0588 38.0608 30.9194 37.2711L30.9129 37.2665L30.9129 37.2664C30.8255 37.2017 30.3803 36.9165 29.6944 36.4771C29.6146 36.426 29.5315 36.3728 29.4454 36.3176C28.6268 35.7932 27.5456 35.099 26.3902 34.3422C24.084 32.8316 21.4676 31.0621 20.0586 29.8946L20.0579 29.894C19.6622 29.5637 19.2066 29.0414 19.0989 28.3761C18.9876 27.688 19.2589 26.9239 20.1608 26.1503C24.0224 22.6833 28.6354 18.375 31.4243 15.6431C31.7292 15.3436 32.0361 14.9421 32.242 14.5665C32.345 14.3786 32.4181 14.2055 32.4552 14.0611C32.4941 13.9099 32.4847 13.8249 32.4691 13.7877L32.4687 13.7868C32.4632 13.7736 32.4511 13.7446 32.3593 13.7333C32.25 13.7199 32.0629 13.7403 31.7696 13.8392C31.1876 14.0355 30.2835 14.5068 28.9455 15.3975L28.9447 15.398L13.8067 25.3916L13.7998 25.3962L13.669 25.183C13.7997 25.3961 13.7996 25.3961 13.7994 25.3962L13.7991 25.3964L13.7983 25.3969L13.7964 25.3981L13.7905 25.4016L13.7711 25.4127C13.7547 25.4218 13.7316 25.4343 13.7018 25.4494C13.6422 25.4796 13.5556 25.5202 13.4426 25.5651C13.2165 25.6549 12.8847 25.7619 12.4505 25.8375C11.5808 25.9889 10.3071 26.0131 8.65868 25.5282C7.04421 25.055 5.29699 24.502 3.95411 24.0677C3.28246 23.8504 2.71161 23.6627 2.30863 23.5293C2.10713 23.4625 1.94759 23.4094 1.83838 23.3729L1.71336 23.3311L1.68113 23.3203L1.67293 23.3175L1.67085 23.3168L1.67032 23.3166L1.67018 23.3166L1.74986 23.0796ZM1.74986 23.0796L1.61941 23.2929L1.64344 23.3076L1.67013 23.3166L1.74986 23.0796Z" fill="url(#paint0_radial_2694_12075)" stroke="url(#paint1_linear_2694_12075)" stroke-width="0.5"/>
									<defs>
									<radialGradient id="paint0_radial_2694_12075" cx="0" cy="0" r="1" gradientUnits="userSpaceOnUse" gradientTransform="translate(33 27) rotate(-111.33) scale(120.236 233.782)">
									<stop stop-color="white"/>
									<stop offset="0.51" stop-color="#318BF8"/>
									<stop offset="1" stop-color="white"/>
									<stop offset="1" stop-color="#318EFE"/>
									</radialGradient>
									<linearGradient id="paint1_linear_2694_12075" x1="23.8529" y1="5" x2="24.2578" y2="39.5025" gradientUnits="userSpaceOnUse">
									<stop stop-color="#EEEEEE"/>
									<stop offset="0.470342" stop-color="#81B6F6"/>
									<stop offset="1" stop-color="#CBD5E2"/>
									</linearGradient>
									</defs>
								</svg>