								<svg width="55" height="32" viewBox="0 0 55 32" fill="none" xmlns="http://www.w3.org/2000/svg">
									<g clip-path="url(#clip0_2771_10640)">
									<path d="M54.7314 15.9945C54.7314 24.6767 47.6409 31.7303 38.9133 31.7303C35.2596 31.7303 31.9096 30.5007 29.2316 28.4192C31.0531 26.5317 32.4516 24.2453 33.2973 21.7215C33.4274 21.3548 33.5466 20.9665 33.6442 20.5783C34.9344 22.0451 36.81 22.9726 38.9133 22.9726C42.7729 22.9726 45.9279 19.8341 45.9279 15.9945C45.9279 12.1549 42.7729 9.0272 38.9133 9.0272C36.8208 9.0272 34.9235 9.94395 33.6442 11.4108C32.5601 12.6403 31.9096 14.2365 31.9096 15.9945C31.9096 17.1054 31.7903 18.1947 31.5626 19.2409C30.9446 22.1637 29.5135 24.7953 27.5078 26.8661C26.9657 27.4269 26.402 27.9446 25.784 28.4192C23.1061 30.49 19.7343 31.7303 16.0915 31.7303C7.36392 31.7303 0.273438 24.6767 0.273438 15.9945C0.273438 7.31234 7.36392 0.269531 16.0807 0.269531C19.7235 0.269531 23.0844 1.49906 25.7623 3.56983C23.9409 5.45726 22.5423 7.74375 21.6967 10.2675C21.5666 10.6342 21.4473 11.0225 21.3497 11.4108C20.0596 9.94395 18.1731 9.0272 16.0807 9.0272C12.221 9.0272 9.07691 12.1549 9.07691 15.9945C9.07691 19.8341 12.221 22.9726 16.0807 22.9726C18.1839 22.9726 20.0704 22.0451 21.3497 20.5783C22.4339 19.3487 23.0952 17.7525 23.0952 15.9945C23.0952 14.8836 23.2145 13.7943 23.4313 12.7589C24.0493 9.8361 25.4804 7.20448 27.497 5.1337C28.0391 4.56208 28.6137 4.04439 29.2316 3.58062C31.9096 1.50984 35.2596 0.269531 38.9025 0.269531C47.63 0.269531 54.7205 7.32312 54.7205 15.9945H54.7314Z" fill="url(#paint0_radial_2771_10640)" stroke="url(#paint1_linear_2771_10640)" stroke-width="0.5"/>
									</g>
									<defs>
									<radialGradient id="paint0_radial_2771_10640" cx="0" cy="0" r="1" gradientUnits="userSpaceOnUse" gradientTransform="translate(27.497 16.0243) scale(35.0729 22.3299)">
									<stop stop-color="white"/>
									<stop offset="0.28" stop-color="#FCFDFE"/>
									<stop offset="0.41" stop-color="#F5F9FE"/>
									<stop offset="0.52" stop-color="#E8F2FE"/>
									<stop offset="0.61" stop-color="#D5E7FD"/>
									<stop offset="0.68" stop-color="#BDDAFD"/>
									<stop offset="0.75" stop-color="#A0CAFC"/>
									<stop offset="0.76" stop-color="#9DC8FC"/>
									<stop offset="0.8" stop-color="#A4CCFC"/>
									<stop offset="0.86" stop-color="#B8D7FC"/>
									<stop offset="0.93" stop-color="#D9E9FD"/>
									<stop offset="1" stop-color="#318EFE"/>
									</radialGradient>
									<linearGradient id="paint1_linear_2771_10640" x1="0.00239471" y1="16.0053" x2="55.0024" y2="16.0053" gradientUnits="userSpaceOnUse">
									<stop stop-color="#EEEEEE"/>
									<stop offset="0.47" stop-color="#81B6F6"/>
									<stop offset="1" stop-color="#CBD5E2"/>
									</linearGradient>
									<clipPath id="clip0_2771_10640">
									<rect width="55" height="32" fill="white"/>
									</clipPath>
									</defs>
								</svg>