								<svg width="44" height="44" viewBox="0 0 44 44" fill="none" xmlns="http://www.w3.org/2000/svg">
									<g clip-path="url(#clip0_2694_12090)">
									<path d="M10.7128 16.7316L10.7128 16.7316C10.0739 18.2423 9.75 19.847 9.75 21.5C9.75 23.153 10.0739 24.7577 10.7128 26.2684L10.7128 26.2684C11.3299 27.7272 12.2131 29.0374 13.3378 30.1622C14.4626 31.2869 15.7728 32.1701 17.2316 32.7872L17.2316 32.7872C18.7423 33.4261 20.347 33.75 22 33.75C23.653 33.75 25.2577 33.4261 26.7684 32.7872L26.7684 32.7872C28.2272 32.1701 29.5374 31.2869 30.6622 30.1622C31.7869 29.0374 32.6701 27.7272 33.2872 26.2684L33.2872 26.2684C33.9261 24.7577 34.25 23.153 34.25 21.5C34.25 19.847 33.9261 18.2423 33.2872 16.7316L33.2872 16.7316C32.6701 15.2728 31.7869 13.9626 30.6622 12.8378C29.5374 11.7131 28.2272 10.8299 26.7684 10.2128L26.7684 10.2128C25.2577 9.57386 23.653 9.25 22 9.25C20.347 9.25 18.7423 9.57386 17.2316 10.2128L17.2316 10.2128C15.7728 10.8299 14.4626 11.7131 13.3378 12.8378C12.2131 13.9626 11.3299 15.2728 10.7128 16.7316Z" fill="#070917" stroke="url(#paint0_linear_2694_12090)" stroke-width="0.5"/>
									<g filter="url(#filter0_f_2694_12090)">
									<path d="M15 22C15 21.0551 15.1851 20.1383 15.5501 19.2752C15.9027 18.4417 16.4073 17.6931 17.0502 17.0502C17.6931 16.4073 18.4417 15.9027 19.2752 15.5501C20.1383 15.1851 21.0551 15 22 15C22.9449 15 23.8617 15.1851 24.7248 15.5501C25.5583 15.9027 26.3069 16.4073 26.9498 17.0502C27.5927 17.6931 28.0973 18.4417 28.4499 19.2752C28.8149 20.1383 29 21.0551 29 22C29 22.9449 28.8149 23.8617 28.4499 24.7248C28.0973 25.5583 27.5927 26.3069 26.9498 26.9498C26.3069 27.5927 25.5583 28.0973 24.7248 28.4499C23.8617 28.8149 22.9449 29 22 29C21.0551 29 20.1383 28.8149 19.2752 28.4499C18.4417 28.0973 17.6931 27.5927 17.0502 26.9498C16.4073 26.3069 15.9027 25.5583 15.5501 24.7248C15.1851 23.8617 15 22.9449 15 22Z" fill="#B0B8EB"/>
									</g>
									<path d="M18 22C18 21.4601 18.1058 20.9362 18.3143 20.443C18.5158 19.9667 18.8042 19.5389 19.1715 19.1715C19.5389 18.8042 19.9667 18.5158 20.443 18.3143C20.9362 18.1058 21.4601 18 22 18C22.5399 18 23.0638 18.1058 23.557 18.3143C24.0333 18.5158 24.4611 18.8042 24.8285 19.1715C25.1958 19.5389 25.4842 19.9667 25.6857 20.443C25.8942 20.9362 26 21.4601 26 22C26 22.5399 25.8942 23.0638 25.6857 23.557C25.4842 24.0333 25.1958 24.4611 24.8285 24.8285C24.4611 25.1958 24.0333 25.4842 23.557 25.6857C23.0638 25.8942 22.5399 26 22 26C21.4601 26 20.9362 25.8942 20.443 25.6857C19.9667 25.4842 19.5389 25.1958 19.1715 24.8285C18.8042 24.4611 18.5158 24.0333 18.3143 23.557C18.1058 23.0638 18 22.5399 18 22Z" fill="url(#paint1_radial_2694_12090)"/>
									<path d="M22 26C24.2091 26 26 24.2091 26 22C26 19.7909 24.2091 18 22 18C19.7909 18 18 19.7909 18 22C18 24.2091 19.7909 26 22 26Z" fill="url(#paint2_linear_2694_12090)"/>
									<mask id="path-5-outside-1_2694_12090" maskUnits="userSpaceOnUse" x="-1" y="-1" width="46" height="46" fill="black">
									<rect fill="white" x="-1" y="-1" width="46" height="46"/>
									<path fill-rule="evenodd" clip-rule="evenodd" d="M24.3123 0.0115159L18.7751 0L17.2013 3.95911C15.7593 4.34229 14.3819 4.89511 13.0939 5.59628C12.6295 5.84879 12.1768 6.12058 11.7367 6.41065L8.08755 4.81641L4.16406 8.7234L5.85079 12.6358C5.11667 13.8995 4.52585 15.2603 4.10214 16.697C3.9528 17.2013 3.82429 17.7148 3.71747 18.2367L0.0115159 19.6891L0 25.2263L3.95998 26.8005C4.34313 28.2417 4.89569 29.6179 5.5964 30.9045C5.84996 31.3704 6.12288 31.8247 6.41416 32.2662L4.82031 35.9145L8.72731 39.838L12.6416 38.1505C13.904 38.8832 15.2627 39.473 16.6971 39.8962C17.1998 40.0447 17.7118 40.1728 18.2322 40.2795L19.6852 43.9872L25.2224 43.9987L26.7963 40.0395C28.239 39.6563 29.6167 39.1033 30.9046 38.4019C31.3685 38.1497 31.8208 37.8782 32.2605 37.5884L35.9106 39.1831L39.8341 35.2758L38.1472 31.3631C38.8815 30.0992 39.4725 28.7382 39.8963 27.3012C40.0451 26.7986 40.1733 26.2869 40.2799 25.7667L43.9911 24.3123L44.0026 18.7751L40.0389 17.1994C39.6557 15.7576 39.103 14.3808 38.402 13.0937C38.1491 12.6286 37.8769 12.1751 37.5862 11.7344L39.1795 8.08755L35.2722 4.16406L31.3614 5.85006C30.098 5.11622 28.7377 4.52561 27.3013 4.10202C26.7981 3.953 26.2857 3.82471 25.7649 3.71803L24.3123 0.0115159ZM9.46574 21.1589C9.00168 28.088 14.2473 34.0791 21.1771 34.5335C27.9907 34.9804 34.0758 29.6523 34.5324 22.8393C34.9964 15.9102 29.7508 9.91941 22.821 9.46468C16.0074 9.01774 9.92233 14.3459 9.46574 21.1589Z"/>
									</mask>
									<path fill-rule="evenodd" clip-rule="evenodd" d="M24.3123 0.0115159L18.7751 0L17.2013 3.95911C15.7593 4.34229 14.3819 4.89511 13.0939 5.59628C12.6295 5.84879 12.1768 6.12058 11.7367 6.41065L8.08755 4.81641L4.16406 8.7234L5.85079 12.6358C5.11667 13.8995 4.52585 15.2603 4.10214 16.697C3.9528 17.2013 3.82429 17.7148 3.71747 18.2367L0.0115159 19.6891L0 25.2263L3.95998 26.8005C4.34313 28.2417 4.89569 29.6179 5.5964 30.9045C5.84996 31.3704 6.12288 31.8247 6.41416 32.2662L4.82031 35.9145L8.72731 39.838L12.6416 38.1505C13.904 38.8832 15.2627 39.473 16.6971 39.8962C17.1998 40.0447 17.7118 40.1728 18.2322 40.2795L19.6852 43.9872L25.2224 43.9987L26.7963 40.0395C28.239 39.6563 29.6167 39.1033 30.9046 38.4019C31.3685 38.1497 31.8208 37.8782 32.2605 37.5884L35.9106 39.1831L39.8341 35.2758L38.1472 31.3631C38.8815 30.0992 39.4725 28.7382 39.8963 27.3012C40.0451 26.7986 40.1733 26.2869 40.2799 25.7667L43.9911 24.3123L44.0026 18.7751L40.0389 17.1994C39.6557 15.7576 39.103 14.3808 38.402 13.0937C38.1491 12.6286 37.8769 12.1751 37.5862 11.7344L39.1795 8.08755L35.2722 4.16406L31.3614 5.85006C30.098 5.11622 28.7377 4.52561 27.3013 4.10202C26.7981 3.953 26.2857 3.82471 25.7649 3.71803L24.3123 0.0115159ZM9.46574 21.1589C9.00168 28.088 14.2473 34.0791 21.1771 34.5335C27.9907 34.9804 34.0758 29.6523 34.5324 22.8393C34.9964 15.9102 29.7508 9.91941 22.821 9.46468C16.0074 9.01774 9.92233 14.3459 9.46574 21.1589Z" fill="url(#paint3_radial_2694_12090)"/>
									<path d="M18.7751 0L18.7761 -0.499999L18.436 -0.500706L18.3104 -0.184697L18.7751 0ZM24.3123 0.0115159L24.7779 -0.17092L24.6537 -0.487775L24.3134 -0.488483L24.3123 0.0115159ZM17.2013 3.95911L17.3297 4.44234L17.5729 4.3777L17.6659 4.14381L17.2013 3.95911ZM13.0939 5.59628L13.3327 6.03554L13.3329 6.03543L13.0939 5.59628ZM11.7367 6.41065L11.5366 6.86883L11.7853 6.9775L12.0119 6.8281L11.7367 6.41065ZM8.08755 4.81641L8.28772 4.35822L7.97588 4.22199L7.73475 4.46211L8.08755 4.81641ZM4.16406 8.7234L3.81125 8.36911L3.57028 8.60907L3.70491 8.92135L4.16406 8.7234ZM5.85079 12.6358L6.28313 12.887L6.40966 12.6692L6.30994 12.4379L5.85079 12.6358ZM4.10214 16.697L4.58156 16.8389L4.58171 16.8384L4.10214 16.697ZM3.71747 18.2367L3.89991 18.7023L4.15286 18.6031L4.20732 18.337L3.71747 18.2367ZM0.0115159 19.6891L-0.17092 19.2235L-0.487775 19.3477L-0.488483 19.688L0.0115159 19.6891ZM0 25.2263L-0.499999 25.2253L-0.500706 25.5654L-0.184697 25.691L0 25.2263ZM3.95998 26.8005L4.44319 26.672L4.37854 26.4288L4.14468 26.3358L3.95998 26.8005ZM5.5964 30.9045L6.03559 30.6655L6.0355 30.6653L5.5964 30.9045ZM6.41416 32.2662L6.87234 32.4664L6.98106 32.2176L6.83151 31.9909L6.41416 32.2662ZM4.82031 35.9145L4.36213 35.7143L4.22589 36.0262L4.46601 36.2673L4.82031 35.9145ZM8.72731 39.838L8.37301 40.1908L8.61297 40.4318L8.92526 40.2972L8.72731 39.838ZM12.6416 38.1505L12.8926 37.718L12.6749 37.5917L12.4436 37.6913L12.6416 38.1505ZM16.6971 39.8962L16.8387 39.4167L16.8386 39.4166L16.6971 39.8962ZM18.2322 40.2795L18.6977 40.0971L18.5986 39.8442L18.3326 39.7897L18.2322 40.2795ZM19.6852 43.9872L19.2196 44.1697L19.3438 44.4865L19.6841 44.4872L19.6852 43.9872ZM25.2224 43.9987L25.2214 44.4987L25.5615 44.4994L25.6871 44.1834L25.2224 43.9987ZM26.7963 40.0395L26.6679 39.5562L26.4246 39.6209L26.3316 39.8548L26.7963 40.0395ZM30.9046 38.4019L30.6657 37.9627L30.6654 37.9628L30.9046 38.4019ZM32.2605 37.5884L32.4606 37.1302L32.2119 37.0216L31.9853 37.1709L32.2605 37.5884ZM35.9106 39.1831L35.7104 39.6412L36.0223 39.7775L36.2634 39.5373L35.9106 39.1831ZM39.8341 35.2758L40.1869 35.63L40.4279 35.3901L40.2932 35.0778L39.8341 35.2758ZM38.1472 31.3631L37.7149 31.1119L37.5883 31.3297L37.6881 31.5611L38.1472 31.3631ZM39.8963 27.3012L39.4169 27.1593L39.4167 27.1598L39.8963 27.3012ZM40.2799 25.7667L40.0974 25.3012L39.8446 25.4003L39.7901 25.6663L40.2799 25.7667ZM43.9911 24.3123L44.1736 24.7779L44.4904 24.6537L44.4911 24.3134L43.9911 24.3123ZM44.0026 18.7751L44.5026 18.7761L44.5033 18.436L44.1873 18.3104L44.0026 18.7751ZM40.0389 17.1994L39.5557 17.3279L39.6203 17.5711L39.8542 17.6641L40.0389 17.1994ZM38.402 13.0937L37.9628 13.3326L37.9629 13.3329L38.402 13.0937ZM37.5862 11.7344L37.1281 11.5342L37.0194 11.783L37.1688 12.0097L37.5862 11.7344ZM39.1795 8.08755L39.6376 8.28772L39.7739 7.97587L39.5337 7.73473L39.1795 8.08755ZM35.2722 4.16406L35.6264 3.81124L35.3865 3.57029L35.0742 3.70491L35.2722 4.16406ZM31.3614 5.85006L31.1103 6.28242L31.3281 6.40892L31.5594 6.30921L31.3614 5.85006ZM27.3013 4.10202L27.1594 4.58144L27.1599 4.5816L27.3013 4.10202ZM25.7649 3.71803L25.2993 3.90047L25.3984 4.15336L25.6645 4.20786L25.7649 3.71803ZM21.1771 34.5335L21.2098 34.0346H21.2098L21.1771 34.5335ZM9.46574 21.1589L8.96686 21.1255L8.96685 21.1255L9.46574 21.1589ZM34.5324 22.8393L35.0313 22.8727V22.8727L34.5324 22.8393ZM22.821 9.46468L22.8538 8.96576L22.8538 8.96576L22.821 9.46468ZM18.774 0.499999L24.3113 0.511515L24.3134 -0.488483L18.7761 -0.499999L18.774 0.499999ZM17.6659 4.14381L19.2397 0.184697L18.3104 -0.184697L16.7366 3.77441L17.6659 4.14381ZM17.0729 3.47588C15.5919 3.86943 14.1774 4.43716 12.8548 5.15713L13.3329 6.03543C14.5864 5.35306 15.9267 4.81516 17.3297 4.44234L17.0729 3.47588ZM12.855 5.15702C12.3782 5.4163 11.9133 5.69537 11.4615 5.9932L12.0119 6.8281C12.4402 6.54578 12.8808 6.28127 13.3327 6.03554L12.855 5.15702ZM7.88738 5.27459L11.5366 6.86883L11.9369 5.95247L8.28772 4.35822L7.88738 5.27459ZM4.51687 9.0777L8.44036 5.1707L7.73475 4.46211L3.81125 8.36911L4.51687 9.0777ZM6.30994 12.4379L4.62321 8.52546L3.70491 8.92135L5.39164 12.8338L6.30994 12.4379ZM5.41845 12.3847C4.66453 13.6824 4.05773 15.08 3.62256 16.5555L4.58171 16.8384C4.99397 15.4406 5.56881 14.1166 6.28313 12.887L5.41845 12.3847ZM3.62271 16.555C3.46931 17.073 3.33732 17.6005 3.22763 18.1365L4.20732 18.337C4.31125 17.8291 4.43629 17.3295 4.58156 16.8389L3.62271 16.555ZM3.53504 17.7712L-0.17092 19.2235L0.193952 20.1546L3.89991 18.7023L3.53504 17.7712ZM-0.488483 19.688L-0.499999 25.2253L0.499999 25.2274L0.511515 19.6901L-0.488483 19.688ZM-0.184697 25.691L3.77528 27.2651L4.14468 26.3358L0.184697 24.7617L-0.184697 25.691ZM3.47677 26.9289C3.87029 28.4091 4.43776 29.8225 5.1573 31.1436L6.0355 30.6653C5.35361 29.4133 4.81598 28.0742 4.44319 26.672L3.47677 26.9289ZM5.15721 31.1434C5.41756 31.6219 5.69776 32.0883 5.99681 32.5416L6.83151 31.9909C6.548 31.5612 6.28237 31.119 6.03559 30.6655L5.15721 31.1434ZM5.2785 36.1147L6.87234 32.4664L5.95598 32.0661L4.36213 35.7143L5.2785 36.1147ZM9.08161 39.4852L5.17461 35.5617L4.46601 36.2673L8.37301 40.1908L9.08161 39.4852ZM12.4436 37.6913L8.52936 39.3789L8.92526 40.2972L12.8395 38.6096L12.4436 37.6913ZM12.3906 38.5829C13.687 39.3354 15.0825 39.9412 16.5556 40.3757L16.8386 39.4166C15.443 39.0049 14.121 38.4311 12.8926 37.718L12.3906 38.5829ZM16.5554 40.3757C17.0717 40.5282 17.5974 40.6598 18.1317 40.7693L18.3326 39.7897C17.8262 39.6859 17.3279 39.5612 16.8387 39.4167L16.5554 40.3757ZM17.7666 40.4619L19.2196 44.1697L20.1507 43.8048L18.6977 40.0971L17.7666 40.4619ZM19.6841 44.4872L25.2214 44.4987L25.2235 43.4987L19.6862 43.4872L19.6841 44.4872ZM25.6871 44.1834L27.2609 40.2242L26.3316 39.8548L24.7578 43.814L25.6871 44.1834ZM26.9246 40.5227C28.4064 40.1292 29.8213 39.5613 31.1437 38.841L30.6654 37.9628C29.4122 38.6454 28.0716 39.1834 26.6679 39.5562L26.9246 40.5227ZM31.1434 38.8412C31.6198 38.5822 32.0842 38.3034 32.5356 38.0059L31.9853 37.1709C31.5574 37.4529 31.1172 37.7172 30.6657 37.9627L31.1434 38.8412ZM36.1108 38.7249L32.4606 37.1302L32.0603 38.0466L35.7104 39.6412L36.1108 38.7249ZM39.4813 34.9215L35.5578 38.8288L36.2634 39.5373L40.1869 35.63L39.4813 34.9215ZM37.6881 31.5611L39.375 35.4737L40.2932 35.0778L38.6063 31.1652L37.6881 31.5611ZM38.5795 31.6143C39.3337 30.3163 39.9406 28.9185 40.3759 27.4427L39.4167 27.1598C39.0044 28.5579 38.4294 29.8821 37.7149 31.1119L38.5795 31.6143ZM40.3757 27.4432C40.5286 26.9269 40.6602 26.4013 40.7697 25.8671L39.7901 25.6663C39.6863 26.1725 39.5617 26.6703 39.4169 27.1593L40.3757 27.4432ZM40.4623 26.2323L44.1736 24.7779L43.8087 23.8468L40.0974 25.3012L40.4623 26.2323ZM44.4911 24.3134L44.5026 18.7761L43.5026 18.774L43.4911 24.3113L44.4911 24.3134ZM44.1873 18.3104L40.2236 16.7348L39.8542 17.6641L43.8179 19.2397L44.1873 18.3104ZM40.5221 17.071C40.1286 15.5902 39.561 14.1762 38.8411 12.8546L37.9629 13.3329C38.6451 14.5854 39.1829 15.9251 39.5557 17.3279L40.5221 17.071ZM38.8413 12.8549C38.5816 12.3773 38.302 11.9117 38.0037 11.4592L37.1688 12.0097C37.4517 12.4386 37.7166 12.88 37.9628 13.3326L38.8413 12.8549ZM38.7213 7.88738L37.1281 11.5342L38.0444 11.9346L39.6376 8.28772L38.7213 7.88738ZM34.9179 4.51688L38.8252 8.44038L39.5337 7.73473L35.6264 3.81124L34.9179 4.51688ZM31.5594 6.30921L35.4701 4.62321L35.0742 3.70491L31.1635 5.39091L31.5594 6.30921ZM31.6126 5.41771C30.3151 4.66407 28.9179 4.05749 27.4428 3.62244L27.1599 4.5816C28.5574 4.99374 29.881 5.56837 31.1103 6.28242L31.6126 5.41771ZM27.4433 3.6226C26.9264 3.46952 26.4001 3.33776 25.8652 3.2282L25.6645 4.20786C26.1713 4.31167 26.6698 4.43648 27.1594 4.58144L27.4433 3.6226ZM23.8468 0.193952L25.2993 3.90047L26.2304 3.5356L24.7779 -0.17092L23.8468 0.193952ZM21.2098 34.0346C14.5559 33.5983 9.51903 27.8457 9.96462 21.1923L8.96685 21.1255C8.48433 28.3304 13.9387 34.5599 21.1444 35.0324L21.2098 34.0346ZM34.0335 22.8059C33.5954 29.3436 27.7482 34.4635 21.2098 34.0346L21.1444 35.0324C28.2333 35.4974 34.5562 29.961 35.0313 22.8727L34.0335 22.8059ZM22.7883 9.96361C29.4422 10.4002 34.4791 16.1525 34.0335 22.8059L35.0313 22.8727C35.5138 15.6678 30.0594 9.43858 22.8538 8.96576L22.7883 9.96361ZM9.96462 21.1923C10.4028 14.6546 16.2499 9.53473 22.7883 9.96361L22.8538 8.96576C15.7648 8.50076 9.44189 14.0372 8.96686 21.1255L9.96462 21.1923Z" fill="url(#paint4_linear_2694_12090)" mask="url(#path-5-outside-1_2694_12090)"/>
									</g>
									<defs>
									<filter id="filter0_f_2694_12090" x="3" y="3" width="38" height="38" filterUnits="userSpaceOnUse" color-interpolation-filters="sRGB">
									<feFlood flood-opacity="0" result="BackgroundImageFix"/>
									<feBlend mode="normal" in="SourceGraphic" in2="BackgroundImageFix" result="shape"/>
									<feGaussianBlur stdDeviation="6" result="effect1_foregroundBlur_2694_12090"/>
									</filter>
									<linearGradient id="paint0_linear_2694_12090" x1="34.6" y1="20.9" x2="10" y2="21.4999" gradientUnits="userSpaceOnUse">
									<stop stop-color="white"/>
									<stop offset="0.51" stop-color="#E9EEF5"/>
									<stop offset="1" stop-color="white"/>
									</linearGradient>
									<radialGradient id="paint1_radial_2694_12090" cx="0" cy="0" r="1" gradientUnits="userSpaceOnUse" gradientTransform="translate(75 37.5) rotate(-160.178) scale(45.7083 1.8308e-05)">
									<stop stop-color="#EEEEEE"/>
									<stop offset="1" stop-color="#D3E5FA"/>
									</radialGradient>
									<linearGradient id="paint2_linear_2694_12090" x1="22" y1="20.9524" x2="22" y2="23.8571" gradientUnits="userSpaceOnUse">
									<stop stop-color="#EEEEEE"/>
									<stop offset="0.51" stop-color="#C8DCF5"/>
									<stop offset="1" stop-color="#CBD5E2"/>
									</linearGradient>
									<radialGradient id="paint3_radial_2694_12090" cx="0" cy="0" r="1" gradientUnits="userSpaceOnUse" gradientTransform="translate(22.0013 17.7936) rotate(-104.329) scale(138.572 225.156)">
									<stop stop-color="white"/>
									<stop offset="0.51" stop-color="#318BF8"/>
									<stop offset="1" stop-color="white"/>
									<stop offset="1" stop-color="#318EFE"/>
									</radialGradient>
									<linearGradient id="paint4_linear_2694_12090" x1="23.9426" y1="-1.04354e-06" x2="24.5896" y2="44.6458" gradientUnits="userSpaceOnUse">
									<stop stop-color="#EEEEEE"/>
									<stop offset="0.470342" stop-color="#81B6F6"/>
									<stop offset="1" stop-color="#CBD5E2"/>
									</linearGradient>
									<clipPath id="clip0_2694_12090">
									<rect width="44" height="44" fill="white"/>
									</clipPath>
									</defs>
								</svg>