								<svg width="60" height="41" viewBox="0 0 60 41" fill="none" xmlns="http://www.w3.org/2000/svg">
									<g clip-path="url(#clip0_2775_6323)">
										<g style="mix-blend-mode:color-dodge">
											<path d="M39.6132 5.91835L59.6494 0.356724L54.2824 21.1194L49.5093 16.1732L49.3294 15.9868L49.1495 16.1732L32.7174 33.2011L22.53 22.6442L22.3507 22.4584L22.1708 22.6436L4.89504 40.4229L1.11484 34.6048L22.3501 12.5989L32.5375 23.1564L32.7174 23.3429L32.8973 23.1564L44.4049 11.231L44.5724 11.0574L44.4049 10.8838L39.6132 5.91835Z" fill="url(#paint0_linear_2775_6323)" style="mix-blend-mode:color-dodge" />
											<path d="M39.6132 5.91835L59.6494 0.356724L54.2824 21.1194L49.5093 16.1732L49.3294 15.9868L49.1495 16.1732L32.7174 33.2011L22.53 22.6442L22.3507 22.4584L22.1708 22.6436L4.89504 40.4229L1.11484 34.6048L22.3501 12.5989L32.5375 23.1564L32.7174 23.3429L32.8973 23.1564L44.4049 11.231L44.5724 11.0574L44.4049 10.8838L39.6132 5.91835Z" stroke="url(#paint1_linear_2775_6323)" stroke-width="0.5" />
										</g>
									</g>
									<defs>
										<linearGradient id="paint0_linear_2775_6323" x1="30.3983" y1="0" x2="30.3983" y2="40.8333" gradientUnits="userSpaceOnUse">
											<stop stop-color="white" />
											<stop offset="1" stop-color="#8EB6F4" />
										</linearGradient>
										<linearGradient id="paint1_linear_2775_6323" x1="32.8311" y1="44.5714" x2="30.5237" y2="-7.42665" gradientUnits="userSpaceOnUse">
											<stop stop-color="white" />
											<stop offset="1" stop-color="#BED3F3" />
										</linearGradient>
										<clipPath id="clip0_2775_6323">
											<rect width="60" height="41" fill="white" />
										</clipPath>
									</defs>
								</svg>