								<svg width="40" height="40" viewBox="0 0 40 40" fill="none" xmlns="http://www.w3.org/2000/svg">
									<circle cx="20.5" cy="19.5" r="1.5" fill="url(#paint0_linear_2775_5600)"/>
									<path fill-rule="evenodd" clip-rule="evenodd" d="M20 37C29.3888 37 37 29.3888 37 20C37 10.6112 29.3888 3 20 3C10.6112 3 3 10.6112 3 20C3 29.3888 10.6112 37 20 37ZM20 40C31.0457 40 40 31.0457 40 20C40 8.9543 31.0457 0 20 0C8.9543 0 0 8.9543 0 20C0 31.0457 8.9543 40 20 40Z" fill="url(#paint1_linear_2775_5600)"/>
									<path fill-rule="evenodd" clip-rule="evenodd" d="M21.9991 1.45839C22.0221 2.01019 21.5934 2.47616 21.0416 2.49915C15.2416 2.74082 10.6262 4.6669 7.46356 7.88811C3.5654 11.8585 2.5 15.7034 2.5 21.5H0.5C0.5 14.2152 2.44631 10.1435 6.03644 6.48693C9.6238 2.83313 14.7584 0.759216 20.9584 0.500883C21.5102 0.477891 21.9761 0.90658 21.9991 1.45839Z" fill="url(#paint2_linear_2775_5600)"/>
									<path fill-rule="evenodd" clip-rule="evenodd" d="M19 37.5C29.5089 37.5 37.5 30.5 37.5 19L39.5 19C39.5 22.7762 38.9305 26.0173 37.2134 29.1124C33.8514 35.7158 27.0835 39.5 19 39.5C18.4477 39.5 18 39.0523 18 38.5C18 37.9477 18.4477 37.5 19 37.5Z" fill="url(#paint3_linear_2775_5600)"/>
									<defs>
									<linearGradient id="paint0_linear_2775_5600" x1="20" y1="16.5" x2="17.5" y2="27.5" gradientUnits="userSpaceOnUse">
									<stop stop-color="#92B8E7"/>
									<stop offset="0.51" stop-color="#C8DCF5"/>
									<stop offset="1" stop-color="#CBD5E2"/>
									</linearGradient>
									<linearGradient id="paint1_linear_2775_5600" x1="20" y1="-43.0769" x2="20" y2="83.0769" gradientUnits="userSpaceOnUse">
									<stop stop-color="#111525"/>
									<stop offset="0.494234" stop-color="#1B1E2E"/>
									<stop offset="1" stop-color="#111524"/>
									</linearGradient>
									<linearGradient id="paint2_linear_2775_5600" x1="19" y1="3.50001" x2="3.50004" y2="21" gradientUnits="userSpaceOnUse">
									<stop stop-color="#92B8E7"/>
									<stop offset="0.51" stop-color="#C8DCF5" stop-opacity="0.4"/>
									<stop offset="1" stop-color="#CBD5E2" stop-opacity="0"/>
									</linearGradient>
									<linearGradient id="paint3_linear_2775_5600" x1="19" y1="38" x2="36.5" y2="17" gradientUnits="userSpaceOnUse">
									<stop stop-color="#92B8E7"/>
									<stop offset="0.51" stop-color="#C8DCF5" stop-opacity="0.4"/>
									<stop offset="1" stop-color="#CBD5E2" stop-opacity="0"/>
									</linearGradient>
									</defs>
								</svg>