						<svg width="1496" height="397" viewBox="0 0 1496 397" fill="none" xmlns="http://www.w3.org/2000/svg">
							<g clip-path="url(#clip0_2128_2018)">
								<path d="M1496.5 397V62.5C1426.35 82.9011 1455.27 232.784 1428.89 238.787C1402.51 244.79 1392 188 1384.95 189.59C1377.89 191.18 1386.2 266.387 1344.76 237.591C1326.78 225.098 1334.15 163 1368.7 154C1403.26 145 1418.97 100.148 1386.27 84C1328.51 55.478 1386.27 25 1386.27 25C1354.89 25 1327.16 43.2949 1344.76 62.5C1362.35 81.7051 1342.33 157.183 1308.44 137.978C1274.56 118.773 1293.38 58.7883 1293.38 58.7883C1209.24 122.384 1337.48 177.292 1286 202.5C1234.52 227.708 1214.27 158.379 1214.27 158.379C1170.33 194.374 1284.5 301.186 1212.95 298.771C1141.4 296.356 1220.48 212.36 1166.5 191.982C1112.52 171.604 1143.9 112.793 1143.9 112.793C1056.01 149.984 1181.5 325 1104 325C1026.5 325 1121.3 244.79 1079.86 229.196C1038.42 213.602 1079.86 172 1079.86 172C1079.86 172 1030.89 188.394 1038.42 213.602C1045.95 238.81 1008.5 252.5 1003.26 211.21C998.022 169.92 1032.14 139.22 1032.14 139.22C907.5 171.604 1009.54 267.629 955.538 298.817C901.534 330.005 877.276 241.225 877.276 241.225C877.276 241.225 860.117 260.43 875.182 306.016C890.247 351.603 818.675 354.018 838.77 289.226C842 242.421 784.79 242.421 784.79 242.421C784.79 242.421 841 297 784.79 301.232C728.581 305.465 757.5 242.421 757.5 242.421C678.395 269.699 740.822 328.833 723.254 338.424C705.686 348.015 685.59 339.62 684.339 321.633C683.088 303.647 640.5 277 640.5 277C640.5 277 684.339 346.842 622.802 346.842C561.266 346.842 613 253 570.074 247.251C527.148 241.502 558 188 558 188C558 188 519.5 191.5 516.094 223.745C512.688 255.99 562 321.633 494.748 319.241C427.495 316.849 512.316 193.247 465.868 178.849C419.421 164.451 424.427 132 424.427 132C370.447 196.791 465.868 217.259 424.427 243.663C382.985 270.067 367.92 205.253 367.92 205.253C327.73 243.663 418.146 337.251 335.792 333.663C253.438 330.075 344 223.745 286.288 211.256C228.577 198.767 254 167.5 254 167.5C208.804 201.103 278.756 241.271 223.5 255.669C168.245 270.067 167.237 184.942 192.118 158.471C217 132 222.618 103 192.118 94C161.618 85 165.5 47 165.5 47C126 95 181 95 155.707 126.064C130.413 157.127 118.5 100.5 118.5 100.5C38.5 153.5 141.23 239.5 80 239.5C18.7704 239.5 0 174.5 0 174.5V398.5L1496.5 397Z" fill="#BBFF00" />
							</g>
							<defs>
								<clipPath id="clip0_2128_2018">
									<path d="M0 0H1496V373C1496 386.255 1485.25 397 1472 397H24C10.7451 397 0 386.255 0 373V0Z" fill="white" />
								</clipPath>
							</defs>
						</svg>