<svg width="328" height="106" viewBox="0 0 328 106" fill="none" xmlns="http://www.w3.org/2000/svg">
  <g clip-path="url(#clip0_2493_800)">
    <path d="M373.641 106V10.9964C353.844 16.7906 362.005 59.36 354.561 61.065C347.118 62.7699 344.15 46.6405 342.16 47.0921C340.169 47.5437 342.513 68.9039 330.817 60.7253C325.744 57.1771 327.824 39.5401 337.575 36.9839C347.327 34.4278 351.762 21.6891 342.533 17.1027C326.233 9.00197 342.533 0.345703 342.533 0.345703C333.677 0.345703 325.853 5.54178 330.817 10.9964C335.782 16.4509 330.132 37.8879 320.569 32.4333C311.006 26.9787 316.317 9.94217 316.317 9.94217C292.574 28.0043 328.763 43.5992 314.236 50.7588C299.708 57.9183 293.993 38.2276 293.993 38.2276C281.591 48.4508 313.811 78.7874 293.619 78.1015C273.428 77.4156 295.745 53.5592 280.511 47.7715C265.277 41.9837 274.134 25.2803 274.134 25.2803C249.331 35.8433 284.744 85.5509 262.873 85.5509C241.002 85.5509 267.756 62.7699 256.061 58.3409C244.366 53.912 256.061 42.0963 256.061 42.0963C256.061 42.0963 242.24 46.7524 244.366 53.912C246.492 61.0715 235.922 64.9597 234.443 53.2326C232.965 41.5055 242.593 32.7861 242.593 32.7861C207.418 41.9837 236.216 69.2566 220.975 78.1146C205.735 86.9726 198.889 61.7574 198.889 61.7574C198.889 61.7574 194.046 67.212 198.298 80.1592C202.549 93.1065 182.351 93.7924 188.022 75.3906C188.933 62.0971 172.788 62.0971 172.788 62.0971C172.788 62.0971 188.651 77.5984 172.788 78.8005C156.925 80.0026 165.086 62.0971 165.086 62.0971C142.762 69.8445 160.38 86.6394 155.422 89.3634C150.464 92.0875 144.793 89.7031 144.439 84.5948C144.086 79.4864 132.068 71.9181 132.068 71.9181C132.068 71.9181 144.439 91.7543 127.073 91.7543C109.707 91.7543 124.307 65.1017 112.192 63.4689C100.078 61.8361 108.785 46.6405 108.785 46.6405C108.785 46.6405 97.9199 47.6346 96.9586 56.7928C95.9974 65.9509 109.914 84.5948 90.9344 83.9154C71.955 83.236 95.8924 48.1308 82.7844 44.0415C69.6764 39.9522 71.0891 30.7356 71.0891 30.7356C55.8553 49.1374 82.7844 54.9506 71.0891 62.4498C59.3937 69.9491 55.1421 51.5407 55.1421 51.5407C43.8 62.4498 69.3164 89.0303 46.0752 88.0112C22.834 86.9922 48.3916 56.7928 32.1047 53.2456C15.8177 49.6985 22.9925 40.8182 22.9925 40.8182C10.2377 50.3621 29.9789 61.7705 14.3851 65.8598C-1.20864 69.9491 -1.49317 45.7719 5.52873 38.2537C12.5506 30.7356 14.1362 22.4991 5.52873 19.9429C-3.07875 17.3867 -1.98331 6.59409 -1.98331 6.59409C-13.1307 20.2269 2.39098 20.2269 -4.74712 29.0495C-11.8852 37.8721 -15.2473 21.789 -15.2473 21.789C-37.8243 36.8419 -8.83272 61.2674 -26.1125 61.2674C-43.3922 61.2674 -48.6895 42.8063 -48.6895 42.8063V106.426L373.641 106Z" fill="#BBFF00" />
  </g>
  <defs>
    <clipPath id="clip0_2493_800">
      <path d="M0 0H328V94C328 100.627 322.627 106 316 106H12C5.37259 106 0 100.627 0 94V0Z" fill="white" />
    </clipPath>
  </defs>
</svg>