								<svg width="85" height="76" viewBox="0 0 85 76" fill="none" xmlns="http://www.w3.org/2000/svg">
									<circle cx="42" cy="37" r="21.75" fill="#2F3558" stroke="url(#paint0_linear_2775_6296)" stroke-width="0.5"/>
									<circle cx="41.9984" cy="37.0023" r="17.85" fill="url(#paint1_radial_2775_6296)" stroke="url(#paint2_linear_2775_6296)" stroke-width="0.5"/>
									<g opacity="0.1" filter="url(#filter0_f_2775_6296)">
									<path d="M30.918 30.6758H33.6686L37.2789 43.519L41.0038 30.6758H44.2988L48.0524 43.519L51.6053 30.6758H54.3846L49.6856 45.8857H46.3618L42.637 33.5619L38.9121 45.8857H35.617L30.918 30.6758Z" fill="#232A3C"/>
									</g>
									<path d="M30.918 30.6758H33.6686L37.2789 43.519L41.0038 30.6758H44.2988L48.0524 43.519L51.6053 30.6758H54.3846L49.6856 45.8857H46.3618L42.637 33.5619L38.9121 45.8857H35.617L30.918 30.6758Z" fill="#242A3C"/>
									<path d="M30.918 30.6758H33.6686L37.2789 43.519L41.0038 30.6758H44.2988L48.0524 43.519L51.6053 30.6758H54.3846L49.6856 45.8857H46.3618L42.637 33.5619L38.9121 45.8857H35.617L30.918 30.6758Z" stroke="#212941"/>
									<mask id="mask0_2775_6296" style="mask-type:alpha" maskUnits="userSpaceOnUse" x="30" y="30" width="25" height="16">
									<path d="M30.918 30.6758H33.6686L37.2789 43.519L41.0038 30.6758H44.2988L48.0524 43.519L51.6053 30.6758H54.3846L49.6856 45.8857H46.3618L42.637 33.5619L38.9121 45.8857H35.617L30.918 30.6758Z" fill="#131827"/>
									<path d="M30.918 30.6758H33.6686L37.2789 43.519L41.0038 30.6758H44.2988L48.0524 43.519L51.6053 30.6758H54.3846L49.6856 45.8857H46.3618L42.637 33.5619L38.9121 45.8857H35.617L30.918 30.6758Z" stroke="#212941"/>
									</mask>
									<g mask="url(#mask0_2775_6296)">
									<g filter="url(#filter1_f_2775_6296)">
									<circle cx="39.6782" cy="46.9673" r="3.69383" fill="url(#paint3_linear_2775_6296)"/>
									</g>
									<g filter="url(#filter2_f_2775_6296)">
									<circle cx="33.5172" cy="29.9508" r="2.46255" fill="url(#paint4_linear_2775_6296)"/>
									</g>
									<g filter="url(#filter3_f_2775_6296)">
									<circle cx="54.5329" cy="30.0876" r="2.46255" fill="url(#paint5_linear_2775_6296)"/>
									</g>
									<g filter="url(#filter4_f_2775_6296)">
									<circle cx="42.2126" cy="28.6461" r="2.46255" fill="url(#paint6_linear_2775_6296)"/>
									</g>
									</g>
									<defs>
									<filter id="filter0_f_2775_6296" x="0.917969" y="0.675781" width="83.4648" height="75.2109" filterUnits="userSpaceOnUse" color-interpolation-filters="sRGB">
									<feFlood flood-opacity="0" result="BackgroundImageFix"/>
									<feBlend mode="normal" in="SourceGraphic" in2="BackgroundImageFix" result="shape"/>
									<feGaussianBlur stdDeviation="15" result="effect1_foregroundBlur_2775_6296"/>
									</filter>
									<filter id="filter1_f_2775_6296" x="-124.016" y="-116.727" width="327.387" height="327.387" filterUnits="userSpaceOnUse" color-interpolation-filters="sRGB">
									<feFlood flood-opacity="0" result="BackgroundImageFix"/>
									<feBlend mode="normal" in="SourceGraphic" in2="BackgroundImageFix" result="shape"/>
									<feGaussianBlur stdDeviation="80" result="effect1_foregroundBlur_2775_6296"/>
									</filter>
									<filter id="filter2_f_2775_6296" x="-12.9453" y="-16.5117" width="92.9258" height="92.9258" filterUnits="userSpaceOnUse" color-interpolation-filters="sRGB">
									<feFlood flood-opacity="0" result="BackgroundImageFix"/>
									<feBlend mode="normal" in="SourceGraphic" in2="BackgroundImageFix" result="shape"/>
									<feGaussianBlur stdDeviation="22" result="effect1_foregroundBlur_2775_6296"/>
									</filter>
									<filter id="filter3_f_2775_6296" x="8.07031" y="-16.375" width="92.9258" height="92.9258" filterUnits="userSpaceOnUse" color-interpolation-filters="sRGB">
									<feFlood flood-opacity="0" result="BackgroundImageFix"/>
									<feBlend mode="normal" in="SourceGraphic" in2="BackgroundImageFix" result="shape"/>
									<feGaussianBlur stdDeviation="22" result="effect1_foregroundBlur_2775_6296"/>
									</filter>
									<filter id="filter4_f_2775_6296" x="-4.25" y="-17.8164" width="92.9258" height="92.9258" filterUnits="userSpaceOnUse" color-interpolation-filters="sRGB">
									<feFlood flood-opacity="0" result="BackgroundImageFix"/>
									<feBlend mode="normal" in="SourceGraphic" in2="BackgroundImageFix" result="shape"/>
									<feGaussianBlur stdDeviation="22" result="effect1_foregroundBlur_2775_6296"/>
									</filter>
									<linearGradient id="paint0_linear_2775_6296" x1="42" y1="15" x2="42" y2="59" gradientUnits="userSpaceOnUse">
									<stop stop-color="#212941"/>
									<stop offset="1" stop-color="#3B435C"/>
									</linearGradient>
									<radialGradient id="paint1_radial_2775_6296" cx="0" cy="0" r="1" gradientUnits="userSpaceOnUse" gradientTransform="translate(41.9984 33.6376) rotate(-104.328) scale(110.86 180.115)">
									<stop stop-color="white"/>
									<stop offset="0.51" stop-color="#318BF8"/>
									<stop offset="1" stop-color="white"/>
									<stop offset="1" stop-color="#318EFE"/>
									</radialGradient>
									<linearGradient id="paint2_linear_2775_6296" x1="43.5514" y1="19.4023" x2="44.0691" y2="55.12" gradientUnits="userSpaceOnUse">
									<stop stop-color="#EEEEEE"/>
									<stop offset="0.470342" stop-color="#81B6F6"/>
									<stop offset="1" stop-color="#CBD5E2"/>
									</linearGradient>
									<linearGradient id="paint3_linear_2775_6296" x1="39.6782" y1="45.9998" x2="39.6782" y2="48.6823" gradientUnits="userSpaceOnUse">
									<stop stop-color="#EEEEEE"/>
									<stop offset="0.51" stop-color="#C8DCF5"/>
									<stop offset="1" stop-color="#CBD5E2"/>
									</linearGradient>
									<linearGradient id="paint4_linear_2775_6296" x1="33.5172" y1="29.3059" x2="33.5172" y2="31.0942" gradientUnits="userSpaceOnUse">
									<stop stop-color="#EEEEEE"/>
									<stop offset="0.51" stop-color="#C8DCF5"/>
									<stop offset="1" stop-color="#CBD5E2"/>
									</linearGradient>
									<linearGradient id="paint5_linear_2775_6296" x1="54.5329" y1="29.4426" x2="54.5329" y2="31.2309" gradientUnits="userSpaceOnUse">
									<stop stop-color="#EEEEEE"/>
									<stop offset="0.51" stop-color="#C8DCF5"/>
									<stop offset="1" stop-color="#CBD5E2"/>
									</linearGradient>
									<linearGradient id="paint6_linear_2775_6296" x1="42.2126" y1="28.0012" x2="42.2126" y2="29.7895" gradientUnits="userSpaceOnUse">
									<stop stop-color="#EEEEEE"/>
									<stop offset="0.51" stop-color="#C8DCF5"/>
									<stop offset="1" stop-color="#CBD5E2"/>
									</linearGradient>
									</defs>
								</svg>