<svg width="360" height="130" viewBox="0 0 360 130" fill="none" xmlns="http://www.w3.org/2000/svg">
  <path d="M366.55 118.969L379.799 100.384C379.929 100.211 380 99.9998 380 99.7826V66.3836C380 66.1319 379.905 65.8896 379.734 65.7048L366.516 51.4046C366.345 51.2198 366.25 50.9774 366.25 50.7258V10.6601C366.25 10.3927 366.143 10.1364 365.953 9.94855L356.542 0.655649C356.355 0.470826 356.103 0.367188 355.839 0.367188H341.537C341.273 0.367188 341.02 0.471687 340.832 0.657883L331.355 10.0765C331.168 10.2627 330.914 10.3672 330.65 10.3672L244.388 10.3672C244.138 10.3672 243.898 10.2737 243.713 10.1052L235.537 2.62916C235.352 2.46064 235.111 2.36719 234.862 2.36719H125.138C124.888 2.36719 124.648 2.46064 124.463 2.62916L116.287 10.1052C116.102 10.2737 115.861 10.3672 115.612 10.3672H-5.79084C-6.08232 10.3672 -6.35929 10.4944 -6.54926 10.7154L-19.7584 26.0861C-19.9143 26.2675 -20 26.4987 -20 26.7378V71.3508C-20 71.6024 -19.9051 71.8448 -19.7343 72.0296L-6.51567 86.3298C-6.34486 86.5146 -6.25 86.7569 -6.25 87.0086V119.074C-6.25 119.342 -6.14291 119.598 -5.95265 119.786L3.45789 129.079C3.64505 129.264 3.8975 129.367 4.16053 129.367H18.4626C18.7267 129.367 18.9802 129.263 19.1675 129.076L28.645 119.658C28.8323 119.472 29.0858 119.367 29.3499 119.367H303.5H365.751C366.065 119.367 366.361 119.22 366.55 118.969Z" stroke="#212941" stroke-width="0.3" />
  <path d="M337.299 94.027L345.751 84.4003C345.912 84.2178 346 83.9833 346 83.7405V41.6551C346 41.406 345.907 41.166 345.739 40.9818L341.835 36.6939C341.646 36.4858 341.377 36.3672 341.096 36.3672H244.388C244.139 36.3672 243.898 36.4606 243.713 36.6292L235.537 44.1052C235.352 44.2737 235.111 44.3672 234.862 44.3672H125.138C124.888 44.3672 124.648 44.2737 124.463 44.1052L116.287 36.6292C116.102 36.4606 115.862 36.3672 115.612 36.3672H24.1789C23.905 36.3672 23.6431 36.4795 23.4544 36.678L15.2754 46.3276C15.0986 46.5135 15 46.7603 15 47.0168V89.5481C15 89.8157 15.1073 90.0722 15.2978 90.2601L19.1703 94.0792C19.3574 94.2637 19.6097 94.3672 19.8725 94.3672H336.547C336.835 94.3672 337.109 94.2432 337.299 94.027Z" stroke="#212941" stroke-width="0.3" />
  <path d="M309.996 14.3671L331.839 14.3671C332.1 14.3671 332.351 14.2649 332.538 14.0823L342.955 3.902C343.141 3.71941 343.392 3.61719 343.654 3.61719L354.342 3.61719C354.601 3.61719 354.85 3.71795 355.037 3.8982L361.941 10.5724C362.136 10.7608 362.246 11.0203 362.246 11.2914V52.2257C362.246 52.4774 362.341 52.7197 362.512 52.9045L375.73 67.2047C375.901 67.3895 375.996 67.6319 375.996 67.8835V98.2879C375.996 98.5018 375.928 98.71 375.801 98.882L362.246 114.904C362.058 115.159 361.759 115.31 361.442 115.31L53.4961 114.867L27.9674 114.617C27.7054 114.617 27.4538 114.72 27.2669 114.904L17.6628 125.081C17.4758 125.264 17.2243 125.367 16.9623 125.367H5.65539C5.39309 125.367 5.14128 125.264 4.95425 125.08L-1.95505 118.286C-2.14623 118.098 -2.25391 117.841 -2.25391 117.573V85.261C-2.25391 85.0079 -2.34987 84.7642 -2.52244 84.5791L-15.7354 70.4053C-15.9079 70.2201 -16.0039 69.9765 -16.0039 69.7234V28.4863C-16.0039 28.2481 -15.9189 28.0177 -15.7641 27.8366L-4.55329 14.7175C-4.3633 14.4952 -4.08551 14.3672 -3.79306 14.3672H116.608C116.858 14.3672 117.098 14.2737 117.283 14.1052L125.46 6.62915C125.644 6.46063 125.885 6.36718 126.134 6.36718H233.858C234.108 6.36718 234.348 6.46063 234.533 6.62915L242.71 14.1052C242.894 14.2737 243.135 14.3672 243.384 14.3672H310.246" stroke="#212941" stroke-width="0.3" />
  <path d="M339.075 98.3672L349.758 85.9542C349.914 85.7728 350 85.5413 350 85.3019V38.1598C350 37.9079 349.905 37.6653 349.734 37.4805L344.538 31.8672L243.388 31.8672C243.139 31.8672 242.898 31.9606 242.714 32.1292L234.537 39.6052C234.352 39.7737 234.112 39.8672 233.862 39.8672L126.138 39.8672C125.889 39.8672 125.648 39.7737 125.463 39.6052L117.287 32.1292C117.102 31.9606 116.862 31.8672 116.612 31.8672H21.9247L11.242 44.2802C11.0859 44.4616 11 44.6931 11 44.9325V92.0123C11 92.3008 11.1246 92.5753 11.3418 92.7652L17.75 98.3672L50 98.3672H339.075Z" stroke="#212941" stroke-width="0.3" />
  <path d="M309.996 18.3672L319.332 18.3672C319.597 18.3672 319.852 18.4725 320.039 18.6601L322.953 21.5743C323.141 21.7618 323.395 21.8672 323.66 21.8672L351.031 21.8672C351.326 21.8672 351.606 21.9974 351.796 22.2231L355.261 26.338C355.413 26.5183 355.496 26.7464 355.496 26.9822V57.237C355.496 57.4819 355.586 57.7183 355.749 57.9014L366.244 69.708C366.406 69.8911 366.496 70.1275 366.496 70.3724V90.9965C366.496 91.2357 366.41 91.4669 366.255 91.6483L353.045 107.019C352.855 107.24 352.578 107.367 352.287 107.367L299.996 107.367L41.6915 107.367C41.408 107.367 41.1378 107.247 40.9482 107.036L37.044 102.698C36.8544 102.488 36.5842 102.367 36.3007 102.367H10.8851C10.6349 102.367 10.3938 102.273 10.2094 102.104L4.82037 97.1644C4.61374 96.975 4.4961 96.7076 4.4961 96.4273V80.4974C4.4961 80.2525 4.40622 80.0161 4.2435 79.833L-6.25132 68.0264C-6.41403 67.8433 -6.50391 67.6069 -6.50391 67.362V37.2892C-6.50391 37.0194 -6.39486 36.761 -6.20152 36.5728L12.2049 18.6507C12.3916 18.4689 12.6419 18.3672 12.9025 18.3672L117.608 18.3672C117.858 18.3672 118.098 18.2737 118.283 18.1052L126.46 10.6292C126.644 10.4606 126.885 10.3672 127.134 10.3672H232.858C233.108 10.3672 233.348 10.4606 233.533 10.6292L241.71 18.1052C241.894 18.2737 242.135 18.3672 242.384 18.3672H310.246" stroke="#212941" stroke-width="0.3" />
</svg>