									<svg width="112" height="112" viewBox="0 0 112 112" fill="none" xmlns="http://www.w3.org/2000/svg">
										<rect x="0.25" y="0.25" width="111.5" height="111.5" rx="55.75" stroke="#212941" stroke-width="0.5"/>
										<mask id="path-2-inside-1_2805_3129" fill="white">
										<path d="M6 56C6 28.3858 28.3858 6 56 6C83.6142 6 106 28.3858 106 56C106 83.6142 83.6142 106 56 106C28.3858 106 6 83.6142 6 56Z"/>
										</mask>
										<path d="M6 56C6 28.3858 28.3858 6 56 6C83.6142 6 106 28.3858 106 56C106 83.6142 83.6142 106 56 106C28.3858 106 6 83.6142 6 56Z" fill="url(#paint0_linear_2805_3129)"/>
										<path d="M56 105.5C28.6619 105.5 6.5 83.3381 6.5 56H5.5C5.5 83.8904 28.1096 106.5 56 106.5V105.5ZM105.5 56C105.5 83.3381 83.3381 105.5 56 105.5V106.5C83.8904 106.5 106.5 83.8904 106.5 56H105.5ZM56 6.5C83.3381 6.5 105.5 28.6619 105.5 56H106.5C106.5 28.1096 83.8904 5.5 56 5.5V6.5ZM56 5.5C28.1096 5.5 5.5 28.1096 5.5 56H6.5C6.5 28.6619 28.6619 6.5 56 6.5V5.5Z" fill="#323F5F" mask="url(#path-2-inside-1_2805_3129)"/>
										<rect x="18.5" y="18.5" width="75" height="75" rx="37.5" stroke="url(#paint1_linear_2805_3129)"/>
										<rect x="19" y="19" width="74" height="74" rx="37" fill="#070917"/>
										<rect x="19" y="19" width="74" height="74" rx="37" fill="#070917"/>
										<rect x="21" y="21" width="70" height="70" rx="35" fill="#1F2338"/>
										<mask id="mask0_2805_3129" style="mask-type:alpha" maskUnits="userSpaceOnUse" x="21" y="21" width="70" height="70">
										<rect x="21" y="21" width="70" height="70" rx="35" fill="#1F2338"/>
										</mask>
										<g mask="url(#mask0_2805_3129)">
										<circle opacity="0.3" cx="60.25" cy="35.25" r="0.25" fill="#8B9FCE"/>
										<circle opacity="0.3" cx="59.25" cy="32.25" r="0.25" fill="#8B9FCE"/>
										<circle opacity="0.9" cx="85.25" cy="44.25" r="0.25" fill="#8B9FCE"/>
										<circle opacity="0.3" cx="71.25" cy="32.25" r="0.25" fill="#8B9FCE"/>
										<circle opacity="0.3" cx="81.25" cy="46.25" r="0.25" fill="#8B9FCE"/>
										<circle opacity="0.3" cx="82.25" cy="36.25" r="0.25" fill="#8B9FCE"/>
										<circle opacity="0.3" cx="65.25" cy="29.25" r="0.25" fill="#8B9FCE"/>
										<circle opacity="0.3" cx="76.25" cy="40.25" r="0.25" fill="#8B9FCE"/>
										<circle opacity="0.3" cx="40.25" cy="37.25" r="0.25" fill="#8B9FCE"/>
										<circle opacity="0.3" cx="40.25" cy="43.25" r="0.25" fill="#8B9FCE"/>
										<circle opacity="0.9" cx="47.25" cy="39.25" r="0.25" fill="#8B9FCE"/>
										<circle opacity="0.3" cx="43.25" cy="31.25" r="0.25" fill="#8B9FCE"/>
										<circle opacity="0.3" cx="54.25" cy="26.25" r="0.25" fill="#8B9FCE"/>
										<circle opacity="0.3" cx="56.25" cy="23.25" r="0.25" fill="#8B9FCE"/>
										<circle opacity="0.3" cx="57.25" cy="26.25" r="0.25" fill="#8B9FCE"/>
										<circle opacity="0.3" cx="65.25" cy="25.25" r="0.25" fill="#8B9FCE"/>
										<circle opacity="0.3" cx="61.25" cy="24.25" r="0.25" fill="#8B9FCE"/>
										<circle opacity="0.3" cx="51.25" cy="24.25" r="0.25" fill="#8B9FCE"/>
										<circle opacity="0.3" cx="46.25" cy="24.25" r="0.25" fill="#8B9FCE"/>
										<circle opacity="0.3" cx="64.25" cy="27.25" r="0.25" fill="#8B9FCE"/>
										<circle opacity="0.3" cx="70.25" cy="26.25" r="0.25" fill="#8B9FCE"/>
										<circle opacity="0.9" cx="32.25" cy="45.25" r="0.25" fill="#8B9FCE"/>
										<circle opacity="0.9" cx="25.25" cy="48.25" r="0.25" fill="#8B9FCE"/>
										<circle opacity="0.3" cx="33.25" cy="39.25" r="0.25" fill="#8B9FCE"/>
										<circle opacity="0.3" cx="54.25" cy="33.25" r="0.25" fill="#8B9FCE"/>
										<circle opacity="0.3" cx="51.25" cy="34.25" r="0.25" fill="#8B9FCE"/>
										<circle opacity="0.9" cx="45.25" cy="35.25" r="0.25" fill="#8B9FCE"/>
										<circle opacity="0.3" cx="50.25" cy="31.25" r="0.25" fill="#8B9FCE"/>
										<circle opacity="0.3" cx="53.25" cy="28.25" r="0.25" fill="#8B9FCE"/>
										<circle opacity="0.3" cx="44.25" cy="28.25" r="0.25" fill="#8B9FCE"/>
										<circle opacity="0.3" cx="41.25" cy="28.25" r="0.25" fill="#8B9FCE"/>
										<circle opacity="0.9" cx="38.25" cy="31.25" r="0.25" fill="#8B9FCE"/>
										<circle opacity="0.9" cx="41.25" cy="34.25" r="0.25" fill="#8B9FCE"/>
										<circle opacity="0.3" cx="63.25" cy="32.25" r="0.25" fill="#8B9FCE"/>
										<circle opacity="0.3" cx="61.25" cy="29.25" r="0.25" fill="#8B9FCE"/>
										<circle opacity="0.9" cx="68.25" cy="32.25" r="0.25" fill="#8B9FCE"/>
										<circle opacity="0.9" cx="71.25" cy="29.25" r="0.25" fill="#8B9FCE"/>
										<circle opacity="0.3" cx="74.25" cy="35.25" r="0.25" fill="#8B9FCE"/>
										<circle opacity="0.3" cx="34.25" cy="29.25" r="0.25" fill="#8B9FCE"/>
										<circle opacity="0.3" cx="29.25" cy="34.25" r="0.25" fill="#8B9FCE"/>
										<circle opacity="0.3" cx="28.25" cy="40.25" r="0.25" fill="#8B9FCE"/>
										<circle opacity="0.3" cx="69.25" cy="35.25" r="0.25" fill="#8B9FCE"/>
										<circle opacity="0.3" cx="77.25" cy="29.25" r="0.25" fill="#8B9FCE"/>
										<circle opacity="0.3" cx="37.25" cy="39.25" r="0.25" fill="#8B9FCE"/>
										<circle opacity="0.9" cx="39.25" cy="48.25" r="0.25" fill="#8B9FCE"/>
										<circle opacity="0.9" cx="24.25" cy="52.25" r="0.25" fill="#8B9FCE"/>
										<circle opacity="0.9" cx="56.25" cy="30.25" r="0.25" fill="#8B9FCE"/>
										<circle opacity="0.9" cx="49.25" cy="26.25" r="0.25" fill="#8B9FCE"/>
										<circle opacity="0.1" cx="32.25" cy="52.25" r="0.25" fill="#8B9FCE"/>
										<circle opacity="0.1" cx="29.25" cy="49.25" r="0.25" fill="#8B9FCE"/>
										<circle opacity="0.1" cx="28.25" cy="53.25" r="0.25" fill="#8B9FCE"/>
										<circle opacity="0.1" cx="30.25" cy="57.25" r="0.25" fill="#8B9FCE"/>
										<circle opacity="0.3" cx="32.25" cy="60.25" r="0.25" fill="#8B9FCE"/>
										<circle opacity="0.3" cx="30.25" cy="61.25" r="0.25" fill="#8B9FCE"/>
										<circle opacity="0.1" cx="32.25" cy="64.25" r="0.25" fill="#8B9FCE"/>
										<circle opacity="0.1" cx="28.25" cy="66.25" r="0.25" fill="#8B9FCE"/>
										<circle opacity="0.1" cx="30.25" cy="68.25" r="0.25" fill="#8B9FCE"/>
										<circle opacity="0.1" cx="32.25" cy="67.25" r="0.25" fill="#8B9FCE"/>
										<circle opacity="0.1" cx="28.25" cy="71.25" r="0.25" fill="#8B9FCE"/>
										<circle opacity="0.1" cx="32.25" cy="71.25" r="0.25" fill="#8B9FCE"/>
										<circle opacity="0.1" cx="30.25" cy="70.25" r="0.25" fill="#8B9FCE"/>
										<circle opacity="0.1" cx="32.25" cy="55.25" r="0.25" fill="#8B9FCE"/>
										<circle opacity="0.1" cx="31.25" cy="50.25" r="0.25" fill="#8B9FCE"/>
										<circle opacity="0.1" cx="37.25" cy="54.25" r="0.25" fill="#8B9FCE"/>
										<circle opacity="0.1" cx="78.25" cy="52.25" r="0.25" fill="#8B9FCE"/>
										<circle opacity="0.1" cx="81.25" cy="51.25" r="0.25" fill="#8B9FCE"/>
										<circle opacity="0.1" cx="78.25" cy="45.25" r="0.25" fill="#8B9FCE"/>
										<circle opacity="0.1" cx="79.25" cy="43.25" r="0.25" fill="#8B9FCE"/>
										<circle opacity="0.1" cx="82.25" cy="40.25" r="0.25" fill="#8B9FCE"/>
										<circle opacity="0.1" cx="80.25" cy="33.25" r="0.25" fill="#8B9FCE"/>
										<circle opacity="0.1" cx="36.25" cy="73.25" r="0.25" fill="#8B9FCE"/>
										<circle opacity="0.3" cx="38.25" cy="75.25" r="0.25" fill="#8B9FCE"/>
										<circle opacity="0.3" cx="38.25" cy="72.25" r="0.25" fill="#8B9FCE"/>
										<circle opacity="0.1" cx="37.25" cy="70.25" r="0.25" fill="#8B9FCE"/>
										<circle opacity="0.3" cx="36.25" cy="66.25" r="0.25" fill="#8B9FCE"/>
										<circle opacity="0.1" cx="36.25" cy="64.25" r="0.25" fill="#8B9FCE"/>
										<circle opacity="0.3" cx="36.25" cy="60.25" r="0.25" fill="#8B9FCE"/>
										<circle opacity="0.3" cx="40.25" cy="50.25" r="0.25" fill="#8B9FCE"/>
										<circle opacity="0.3" cx="36.25" cy="46.25" r="0.25" fill="#8B9FCE"/>
										<circle opacity="0.3" cx="25.25" cy="57.25" r="0.25" fill="#8B9FCE"/>
										<circle opacity="0.3" cx="35.25" cy="49.25" r="0.25" fill="#8B9FCE"/>
										<circle opacity="0.9" cx="32.25" cy="35.25" r="0.25" fill="#8B9FCE"/>
										<circle opacity="0.3" cx="73.25" cy="51.25" r="0.25" fill="#8B9FCE"/>
										<circle opacity="0.1" cx="85.25" cy="41.25" r="0.25" fill="#8B9FCE"/>
										<circle opacity="0.1" cx="86.25" cy="49.25" r="0.25" fill="#8B9FCE"/>
										<circle opacity="0.1" cx="82.25" cy="55.25" r="0.25" fill="#8B9FCE"/>
										<circle opacity="0.1" cx="86.25" cy="53.25" r="0.25" fill="#8B9FCE"/>
										<circle opacity="0.1" cx="88.25" cy="56.25" r="0.25" fill="#8B9FCE"/>
										<circle opacity="0.1" cx="87.25" cy="61.25" r="0.25" fill="#8B9FCE"/>
										<circle opacity="0.1" cx="85.25" cy="60.25" r="0.25" fill="#8B9FCE"/>
										<circle opacity="0.1" cx="85.25" cy="54.25" r="0.25" fill="#8B9FCE"/>
										<circle opacity="0.1" cx="70.25" cy="50.25" r="0.25" fill="#8B9FCE"/>
										<circle opacity="0.3" cx="74.25" cy="47.25" r="0.25" fill="#8B9FCE"/>
										<circle opacity="0.3" cx="71.25" cy="47.25" r="0.25" fill="#8B9FCE"/>
										<circle opacity="0.3" cx="74.25" cy="44.25" r="0.25" fill="#8B9FCE"/>
										<circle opacity="0.3" cx="77.25" cy="48.25" r="0.25" fill="#8B9FCE"/>
										<circle opacity="0.1" cx="79.25" cy="72.25" r="0.25" fill="#8B9FCE"/>
										<circle opacity="0.1" cx="78.25" cy="78.25" r="0.25" fill="#8B9FCE"/>
										<circle opacity="0.1" cx="78.25" cy="82.25" r="0.25" fill="#8B9FCE"/>
										<circle opacity="0.1" cx="80.25" cy="77.25" r="0.25" fill="#8B9FCE"/>
										<circle opacity="0.1" cx="82.25" cy="72.25" r="0.25" fill="#8B9FCE"/>
										<circle opacity="0.1" cx="80.25" cy="66.25" r="0.25" fill="#8B9FCE"/>
										<circle opacity="0.1" cx="82.25" cy="63.25" r="0.25" fill="#8B9FCE"/>
										<circle opacity="0.1" cx="83.25" cy="68.25" r="0.25" fill="#8B9FCE"/>
										<circle opacity="0.1" cx="85.25" cy="67.25" r="0.25" fill="#8B9FCE"/>
										<circle opacity="0.1" cx="79.25" cy="62.25" r="0.25" fill="#8B9FCE"/>
										<circle opacity="0.1" cx="81.25" cy="60.25" r="0.25" fill="#8B9FCE"/>
										<circle opacity="0.1" cx="83.25" cy="57.25" r="0.25" fill="#8B9FCE"/>
										<circle opacity="0.3" cx="81.25" cy="57.25" r="0.25" fill="#8B9FCE"/>
										<circle opacity="0.1" cx="71.25" cy="80.25" r="0.25" fill="#8B9FCE"/>
										<circle opacity="0.1" cx="70.25" cy="76.25" r="0.25" fill="#8B9FCE"/>
										<circle opacity="0.1" cx="70.25" cy="84.25" r="0.25" fill="#8B9FCE"/>
										<circle opacity="0.1" cx="64.25" cy="82.25" r="0.25" fill="#8B9FCE"/>
										<circle opacity="0.1" cx="59.25" cy="83.25" r="0.25" fill="#8B9FCE"/>
										<circle opacity="0.1" cx="66.25" cy="75.25" r="0.25" fill="#8B9FCE"/>
										<circle opacity="0.1" cx="65.25" cy="80.25" r="0.25" fill="#8B9FCE"/>
										<circle opacity="0.1" cx="66.25" cy="77.25" r="0.25" fill="#8B9FCE"/>
										<circle opacity="0.1" cx="62.25" cy="78.25" r="0.25" fill="#8B9FCE"/>
										<circle opacity="0.1" cx="56.25" cy="82.25" r="0.25" fill="#8B9FCE"/>
										<circle opacity="0.1" cx="57.25" cy="80.25" r="0.25" fill="#8B9FCE"/>
										<circle opacity="0.1" cx="60.25" cy="77.25" r="0.25" fill="#8B9FCE"/>
										<circle opacity="0.1" cx="50.25" cy="79.25" r="0.25" fill="#8B9FCE"/>
										<circle opacity="0.1" cx="48.25" cy="76.25" r="0.25" fill="#8B9FCE"/>
										<circle opacity="0.1" cx="48.25" cy="81.25" r="0.25" fill="#8B9FCE"/>
										<circle opacity="0.1" cx="45.25" cy="83.25" r="0.25" fill="#8B9FCE"/>
										<circle opacity="0.1" cx="43.25" cy="78.25" r="0.25" fill="#8B9FCE"/>
										<circle opacity="0.1" cx="46.25" cy="78.25" r="0.25" fill="#8B9FCE"/>
										<circle opacity="0.1" cx="45.25" cy="75.25" r="0.25" fill="#8B9FCE"/>
										<circle opacity="0.1" cx="45.25" cy="73.25" r="0.25" fill="#8B9FCE"/>
										<circle opacity="0.1" cx="53.25" cy="86.25" r="0.25" fill="#8B9FCE"/>
										<circle opacity="0.1" cx="59.25" cy="85.25" r="0.25" fill="#8B9FCE"/>
										<circle opacity="0.1" cx="52.25" cy="82.25" r="0.25" fill="#8B9FCE"/>
										<circle opacity="0.1" cx="53.25" cy="78.25" r="0.25" fill="#8B9FCE"/>
										<circle opacity="0.1" cx="51.25" cy="75.25" r="0.25" fill="#8B9FCE"/>
										<circle opacity="0.1" cx="50.25" cy="73.25" r="0.25" fill="#8B9FCE"/>
										<circle opacity="0.1" cx="74.25" cy="73.25" r="0.25" fill="#8B9FCE"/>
										<circle opacity="0.1" cx="74.25" cy="79.25" r="0.25" fill="#8B9FCE"/>
										<circle opacity="0.1" cx="75.25" cy="72.25" r="0.25" fill="#8B9FCE"/>
										<circle opacity="0.1" cx="74.25" cy="65.25" r="0.25" fill="#8B9FCE"/>
										<circle opacity="0.1" cx="76.25" cy="62.25" r="0.25" fill="#8B9FCE"/>
										<circle opacity="0.1" cx="78.25" cy="57.25" r="0.25" fill="#8B9FCE"/>
										<circle opacity="0.1" cx="37.25" cy="80.25" r="0.25" fill="#8B9FCE"/>
										<circle opacity="0.1" cx="39.25" cy="83.25" r="0.25" fill="#8B9FCE"/>
										<circle opacity="0.1" cx="41.25" cy="81.25" r="0.25" fill="#8B9FCE"/>
										<circle opacity="0.1" cx="32.25" cy="78.25" r="0.25" fill="#8B9FCE"/>
										<circle opacity="0.1" cx="29.25" cy="76.25" r="0.25" fill="#8B9FCE"/>
										<circle opacity="0.1" cx="32.25" cy="74.25" r="0.25" fill="#8B9FCE"/>
										<circle opacity="0.3" cx="70.25" cy="40.25" r="0.25" fill="#8B9FCE"/>
										<circle opacity="0.3" cx="65.25" cy="37.25" r="0.25" fill="#8B9FCE"/>
										<circle opacity="0.1" cx="63.25" cy="37.25" r="0.25" fill="#8B9FCE"/>
										<circle opacity="0.3" cx="68.25" cy="39.25" r="0.25" fill="#8B9FCE"/>
										<circle opacity="0.1" cx="66.25" cy="40.25" r="0.25" fill="#8B9FCE"/>
										<circle opacity="0.3" cx="76.25" cy="32.25" r="0.25" fill="#8B9FCE"/>
										<g class="opacity-svg" opacity="0.2" filter="url(#filter0_f_2805_3129)">
										<circle cx="56" cy="56" r="15" fill="url(#paint2_radial_2805_3129)"/>
										</g>
										</g>
										<g filter="url(#filter1_f_2805_3129)">
										<ellipse cx="58" cy="55.1179" rx="5" ry="4.94211" fill="url(#paint3_linear_2805_3129)"/>
										</g>
										<path d="M75.75 56.0866C75.75 56.6246 75.3023 57.2102 74.3022 57.7945C73.3197 58.3685 71.8814 58.894 70.0822 59.3385C66.4876 60.2268 61.5087 60.7788 56 60.7788C50.4913 60.7788 45.5124 60.2268 41.9178 59.3385C40.1186 58.894 38.6803 58.3685 37.6978 57.7945C36.6977 57.2102 36.25 56.6246 36.25 56.0866C36.25 55.5487 36.6977 54.9631 37.6978 54.3788C38.6803 53.8048 40.1186 53.2793 41.9178 52.8347C45.5124 51.9465 50.4913 51.3945 56 51.3945C61.5087 51.3945 66.4876 51.9465 70.0822 52.8347C71.8814 53.2793 73.3197 53.8048 74.3022 54.3788C75.3023 54.9631 75.75 55.5487 75.75 56.0866Z" stroke="url(#paint4_linear_2805_3129)" stroke-width="0.5"/>
										<path d="M55.4897 72.9532C55.4413 73.3512 55.3916 73.6714 55.3418 73.9104C55.292 73.6714 55.2423 73.3512 55.1939 72.9532C55.0732 71.9615 54.9639 70.5208 54.8719 68.734C54.6881 65.1621 54.5742 60.2245 54.5742 54.7685C54.5742 49.3124 54.6881 44.3748 54.8719 40.8029C54.9639 39.0161 55.0732 37.5754 55.1939 36.5837C55.2423 36.1857 55.292 35.8655 55.3418 35.6265C55.3916 35.8655 55.4413 36.1857 55.4897 36.5837C55.6104 37.5754 55.7197 39.0161 55.8117 40.8029C55.9955 44.3748 56.1094 49.3124 56.1094 54.7685C56.1094 60.2245 55.9955 65.1621 55.8117 68.734C55.7197 70.5208 55.6104 71.9615 55.4897 72.9532Z" stroke="url(#paint5_linear_2805_3129)" stroke-width="0.5"/>
										<path d="M69.1831 71.077C68.7545 71.5006 67.9798 71.6286 66.8413 71.3826C65.7163 71.1395 64.3101 70.5453 62.7134 69.6404C59.5231 67.8325 55.6228 64.814 51.7752 61.0109C47.9275 57.2077 44.8736 53.3527 43.0445 50.1993C42.1291 48.621 41.5279 47.2311 41.282 46.1191C41.0331 44.9939 41.1625 44.2281 41.5912 43.8045C42.0198 43.3808 42.7945 43.2529 43.9329 43.4989C45.0579 43.742 46.4641 44.3362 48.0609 45.241C51.2512 47.0489 55.1514 50.0674 58.9991 53.8706C62.8468 57.6737 65.9007 61.5288 67.7297 64.6821C68.6452 66.2604 69.2463 67.6503 69.4923 68.7623C69.7412 69.8876 69.6117 70.6533 69.1831 71.077Z" stroke="url(#paint6_linear_2805_3129)" stroke-width="0.5"/>
										<path d="M42.9419 71.2034C43.3504 71.6072 44.1049 71.7229 45.2313 71.4617C46.3421 71.2042 47.7355 70.5967 49.3214 69.6805C52.49 67.8501 56.3768 64.8173 60.2248 61.0138C64.0729 57.2102 67.1412 53.3684 68.9931 50.2366C69.92 48.669 70.5347 47.2918 70.7952 46.1938C71.0594 45.0804 70.9423 44.3347 70.5338 43.9309C70.1254 43.5271 69.3709 43.4115 68.2444 43.6726C67.1336 43.9301 65.7403 44.5376 64.1543 45.4538C60.9858 47.2842 57.099 50.317 53.2509 54.1206C49.4028 57.9241 46.3345 61.7659 44.4826 64.8977C43.5557 66.4653 42.9411 67.8425 42.6805 68.9405C42.4164 70.0539 42.5334 70.7997 42.9419 71.2034Z" stroke="url(#paint7_linear_2805_3129)" stroke-width="0.5"/>
										<defs>
										<filter id="filter0_f_2805_3129" x="37" y="37" width="38" height="38" filterUnits="userSpaceOnUse" color-interpolation-filters="sRGB">
										<feFlood flood-opacity="0" result="BackgroundImageFix"/>
										<feBlend mode="normal" in="SourceGraphic" in2="BackgroundImageFix" result="shape"/>
										<feGaussianBlur stdDeviation="2" result="effect1_foregroundBlur_2805_3129"/>
										</filter>
										<filter id="filter1_f_2805_3129" x="41" y="38.1758" width="34" height="33.8828" filterUnits="userSpaceOnUse" color-interpolation-filters="sRGB">
										<feFlood flood-opacity="0" result="BackgroundImageFix"/>
										<feBlend mode="normal" in="SourceGraphic" in2="BackgroundImageFix" result="shape"/>
										<feGaussianBlur stdDeviation="6" result="effect1_foregroundBlur_2805_3129"/>
										</filter>
										<linearGradient id="paint0_linear_2805_3129" x1="56" y1="6" x2="56" y2="106" gradientUnits="userSpaceOnUse">
										<stop stop-color="#1C2138"/>
										<stop offset="1" stop-color="#15182A"/>
										</linearGradient>
										<linearGradient id="paint1_linear_2805_3129" x1="56" y1="46.0476" x2="56" y2="73.6429" gradientUnits="userSpaceOnUse">
										<stop stop-color="#9CBCED"/>
										<stop offset="0.51" stop-color="#9CC3F2"/>
										<stop offset="1" stop-color="#82B4F0"/>
										</linearGradient>
										<radialGradient id="paint2_radial_2805_3129" cx="0" cy="0" r="1" gradientUnits="userSpaceOnUse" gradientTransform="translate(56 57.5179) rotate(-90) scale(18.9372 21.7125)">
										<stop stop-color="#92B8E7" stop-opacity="0"/>
										<stop offset="1" stop-color="#9DC1EB"/>
										</radialGradient>
										<linearGradient id="paint3_linear_2805_3129" x1="58" y1="53.8235" x2="58.4886" y2="60.5551" gradientUnits="userSpaceOnUse">
										<stop stop-color="#8FABF3"/>
										<stop offset="0.51" stop-color="#88B7EF"/>
										<stop offset="1" stop-color="#83B3ED"/>
										</linearGradient>
										<linearGradient id="paint4_linear_2805_3129" x1="56" y1="51.1445" x2="56" y2="61.0288" gradientUnits="userSpaceOnUse">
										<stop stop-color="white"/>
										<stop offset="0.245" stop-color="#8EA3EC" stop-opacity="0.755"/>
										<stop offset="1" stop-color="#1F2338" stop-opacity="0"/>
										</linearGradient>
										<linearGradient id="paint5_linear_2805_3129" x1="56.3594" y1="54.7685" x2="54.3242" y2="54.7685" gradientUnits="userSpaceOnUse">
										<stop stop-color="white"/>
										<stop offset="0.245" stop-color="#8EA3EC" stop-opacity="0.755"/>
										<stop offset="1" stop-color="#1F2338" stop-opacity="0"/>
										</linearGradient>
										<linearGradient id="paint6_linear_2805_3129" x1="59.1769" y1="53.6948" x2="51.6856" y2="61.2739" gradientUnits="userSpaceOnUse">
										<stop stop-color="white"/>
										<stop offset="0.245" stop-color="#8EA3EC" stop-opacity="0.755"/>
										<stop offset="1" stop-color="#1F2338" stop-opacity="0"/>
										</linearGradient>
										<linearGradient id="paint7_linear_2805_3129" x1="53.0731" y1="53.9448" x2="60.3173" y2="61.2739" gradientUnits="userSpaceOnUse">
										<stop stop-color="white"/>
										<stop offset="0.245" stop-color="#8EA3EC" stop-opacity="0.755"/>
										<stop offset="1" stop-color="#1F2338" stop-opacity="0"/>
										</linearGradient>
										</defs>
									</svg>