<svg width="45" height="24" viewBox="0 0 45 24" fill="none" xmlns="http://www.w3.org/2000/svg">
<path d="M9.59472 23.4251C9.96886 23.7935 10.4729 24 10.998 24L43 24C44.1046 24 45 23.1046 45 22L45 2.00001C45 0.895437 44.1046 7.71149e-06 43 7.51836e-06L2 3.49691e-07C0.895434 1.56562e-07 4.19629e-06 0.895432 4.19629e-06 2L4.19629e-06 13.1402C4.19629e-06 13.676 0.214988 14.1894 0.596771 14.5653L9.59472 23.4251Z" fill="url(#paint0_linear_1_418)"/>
<path d="M9.59472 23.4251C9.96886 23.7935 10.4729 24 10.998 24L43 24C44.1046 24 45 23.1046 45 22L45 2.00001C45 0.895437 44.1046 7.71149e-06 43 7.51836e-06L2 3.49691e-07C0.895434 1.56562e-07 4.19629e-06 0.895432 4.19629e-06 2L4.19629e-06 13.1402C4.19629e-06 13.676 0.214988 14.1894 0.596771 14.5653L9.59472 23.4251Z" fill="url(#paint1_linear_1_418)" fill-opacity="0.2"/>
<path d="M9.59472 23.4251C9.96886 23.7935 10.4729 24 10.998 24L43 24C44.1046 24 45 23.1046 45 22L45 2.00001C45 0.895437 44.1046 7.71149e-06 43 7.51836e-06L2 3.49691e-07C0.895434 1.56562e-07 4.19629e-06 0.895432 4.19629e-06 2L4.19629e-06 13.1402C4.19629e-06 13.676 0.214988 14.1894 0.596771 14.5653L9.59472 23.4251Z" fill="url(#paint2_radial_1_418)" fill-opacity="0.4"/>
<defs>
<linearGradient id="paint0_linear_1_418" x1="22.5" y1="24" x2="22.5" y2="3.93402e-06" gradientUnits="userSpaceOnUse">
<stop stop-color="#018197"/>
<stop offset="1" stop-color="#22CF48"/>
</linearGradient>
<linearGradient id="paint1_linear_1_418" x1="20.25" y1="9.26025" x2="29.1206" y2="23.9207" gradientUnits="userSpaceOnUse">
<stop stop-color="#0265A5"/>
<stop offset="1" stop-color="#00FF66"/>
</linearGradient>
<radialGradient id="paint2_radial_1_418" cx="0" cy="0" r="1" gradientUnits="userSpaceOnUse" gradientTransform="translate(42.2344 0.672297) rotate(60.4837) scale(12.012 18.6073)">
<stop stop-color="#44D1F0"/>
<stop offset="1" stop-color="#4B84DA" stop-opacity="0.34"/>
</radialGradient>
</defs>
</svg>
