									<svg width="44" height="44" viewBox="0 0 44 44" fill="none" xmlns="http://www.w3.org/2000/svg">
										<g clip-path="url(#clip0_2694_10207)">
										<path d="M22 44C34.1503 44 44 34.1503 44 22C44 9.84974 34.1503 0 22 0C9.84974 0 0 9.84974 0 22C0 34.1503 9.84974 44 22 44Z" fill="url(#paint0_linear_2694_10207)"/>
										<path d="M14.5068 4.26285L14.5068 4.26286C12.2145 5.23258 10.1557 6.62039 8.38803 8.38803C6.62038 10.1557 5.23258 12.2145 4.26286 14.5068L4.4931 14.6042L4.26285 14.5068C3.25893 16.8806 2.75 19.4021 2.75 22C2.75 24.5979 3.25893 27.1194 4.26285 29.4932L4.4931 29.3958L4.26285 29.4932C5.23258 31.7855 6.62038 33.8443 8.38803 35.612C10.1557 37.3796 12.2145 38.7674 14.5068 39.7371L14.6042 39.5069L14.5068 39.7372C16.8806 40.7411 19.4021 41.25 22 41.25C24.5979 41.25 27.1194 40.7411 29.4932 39.7372L29.3958 39.5069L29.4932 39.7371C31.7855 38.7674 33.8443 37.3796 35.612 35.612C37.3796 33.8443 38.7674 31.7855 39.7371 29.4932L39.7371 29.4932C40.7411 27.1194 41.25 24.5979 41.25 22C41.25 19.4021 40.7411 16.8806 39.7371 14.5068L39.7371 14.5068C38.7674 12.2145 37.3796 10.1557 35.612 8.38803C33.8443 6.62039 31.7855 5.23259 29.4932 4.26286L29.4932 4.26285C27.1194 3.25893 24.5979 2.75 22 2.75C19.4021 2.75 16.8806 3.25893 14.5068 4.26285Z" fill="url(#paint1_radial_2694_10207)" stroke="url(#paint2_linear_2694_10207)" stroke-width="0.5"/>
										<path d="M30.5 21.134C31.1667 21.5189 31.1667 22.4811 30.5 22.866L18.5 29.7942C17.8333 30.1791 17 29.698 17 28.9282L17 15.0718C17 14.302 17.8333 13.8209 18.5 14.2058L30.5 21.134Z" fill="url(#paint3_linear_2694_10207)"/>
										<mask id="mask0_2694_10207" style="mask-type:alpha" maskUnits="userSpaceOnUse" x="17" y="14" width="14" height="16">
										<path d="M30.375 21.3505C30.875 21.6392 30.875 22.3608 30.375 22.6495L18.375 29.5777C17.875 29.8664 17.25 29.5056 17.25 28.9282L17.25 15.0718C17.25 14.4944 17.875 14.1336 18.375 14.4223L30.375 21.3505Z" fill="url(#paint4_linear_2694_10207)" stroke="url(#paint5_linear_2694_10207)" stroke-width="0.5"/>
										</mask>
										<g mask="url(#mask0_2694_10207)">
										<g filter="url(#filter0_f_2694_10207)">
										<circle cx="37" cy="27" r="6.25" fill="#40527B"/>
										</g>
										<g filter="url(#filter1_f_2694_10207)">
										<ellipse cx="18.875" cy="9.5" rx="6.875" ry="6.25" fill="#40527B"/>
										</g>
										</g>
										</g>
										<defs>
										<filter id="filter0_f_2694_10207" x="23.75" y="13.75" width="26.5" height="26.5" filterUnits="userSpaceOnUse" color-interpolation-filters="sRGB">
										<feFlood flood-opacity="0" result="BackgroundImageFix"/>
										<feBlend mode="normal" in="SourceGraphic" in2="BackgroundImageFix" result="shape"/>
										<feGaussianBlur stdDeviation="3.5" result="effect1_foregroundBlur_2694_10207"/>
										</filter>
										<filter id="filter1_f_2694_10207" x="5" y="-3.75" width="27.75" height="26.5" filterUnits="userSpaceOnUse" color-interpolation-filters="sRGB">
										<feFlood flood-opacity="0" result="BackgroundImageFix"/>
										<feBlend mode="normal" in="SourceGraphic" in2="BackgroundImageFix" result="shape"/>
										<feGaussianBlur stdDeviation="3.5" result="effect1_foregroundBlur_2694_10207"/>
										</filter>
										<linearGradient id="paint0_linear_2694_10207" x1="22" y1="0" x2="12" y2="49.5" gradientUnits="userSpaceOnUse">
										<stop stop-color="#798CB9"/>
										<stop offset="0.522142" stop-color="#5069A5"/>
										<stop offset="1" stop-color="#576689"/>
										</linearGradient>
										<radialGradient id="paint1_radial_2694_10207" cx="0" cy="0" r="1" gradientUnits="userSpaceOnUse" gradientTransform="translate(25.6323 22) rotate(-14.3282) scale(119.679 194.442)">
										<stop stop-color="white"/>
										<stop offset="0.51" stop-color="#318BF8"/>
										<stop offset="1" stop-color="white"/>
										<stop offset="1" stop-color="#318EFE"/>
										</radialGradient>
										<linearGradient id="paint2_linear_2694_10207" x1="41" y1="23.6765" x2="2.44118" y2="24.2353" gradientUnits="userSpaceOnUse">
										<stop stop-color="#EEEEEE"/>
										<stop offset="0.470342" stop-color="#81B6F6"/>
										<stop offset="1" stop-color="#CBD5E2"/>
										</linearGradient>
										<linearGradient id="paint3_linear_2694_10207" x1="32" y1="22" x2="12" y2="22" gradientUnits="userSpaceOnUse">
										<stop stop-color="#303F61"/>
										<stop offset="1" stop-color="#1A1C21"/>
										</linearGradient>
										<linearGradient id="paint4_linear_2694_10207" x1="33.25" y1="22" x2="12" y2="22" gradientUnits="userSpaceOnUse">
										<stop stop-color="#303F61"/>
										<stop offset="1" stop-color="#1A1C21"/>
										</linearGradient>
										<linearGradient id="paint5_linear_2694_10207" x1="32" y1="22" x2="13.6667" y2="17.0003" gradientUnits="userSpaceOnUse">
										<stop stop-color="#AEC4FA"/>
										<stop offset="1" stop-color="#7E90BA"/>
										</linearGradient>
										<clipPath id="clip0_2694_10207">
										<rect width="44" height="44" fill="white"/>
										</clipPath>
										</defs>
									</svg>