									<svg width="45" height="44" viewBox="0 0 45 44" fill="none" xmlns="http://www.w3.org/2000/svg">
										<path d="M7.33746 37.561C-1.2479 28.9756 -1.2479 15.0244 7.33746 6.43902C15.9228 -2.14634 29.874 -2.14634 38.4594 6.43902C47.0448 15.0244 47.0448 28.9756 38.4594 37.561C29.874 46.1463 15.9228 46.1463 7.33746 37.561Z" fill="#323F5F" />
										<path d="M10.5802 34.3144C3.79619 27.5305 3.79619 16.4794 10.5802 9.68262C17.3641 2.88587 28.4152 2.89864 35.212 9.68262C38.4571 12.9277 40.2585 17.2331 40.3096 21.8197L32.6441 21.8963C32.6185 19.3284 31.6092 16.9137 29.795 15.0996C25.9878 11.2924 19.8043 11.2924 16.0099 15.0996C12.2155 18.9068 12.2027 25.0903 16.0099 28.8847C18.8461 31.7209 23.0238 32.4492 26.5372 31.0438L20.2004 24.707L25.6173 19.29L37.9333 31.606L35.2248 34.3144C28.4408 41.0984 17.3897 41.0984 10.593 34.3144H10.5802Z" fill="url(#paint0_radial_2694_8359)" stroke="url(#paint1_linear_2694_8359)" stroke-width="0.5" />
										<defs>
											<radialGradient id="paint0_radial_2694_8359" cx="0" cy="0" r="1" gradientUnits="userSpaceOnUse" gradientTransform="translate(22.8869 21.9993) rotate(45) scale(23.2137)">
												<stop stop-color="white" />
												<stop offset="0.28" stop-color="#FCFDFE" />
												<stop offset="0.41" stop-color="#F5F9FE" />
												<stop offset="0.52" stop-color="#E8F2FE" />
												<stop offset="0.61" stop-color="#D5E7FD" />
												<stop offset="0.68" stop-color="#BDDAFD" />
												<stop offset="0.75" stop-color="#A0CAFC" />
												<stop offset="0.76" stop-color="#9DC8FC" />
												<stop offset="0.8" stop-color="#A4CCFC" />
												<stop offset="0.86" stop-color="#B8D7FC" />
												<stop offset="0.93" stop-color="#D9E9FD" />
												<stop offset="1" stop-color="#318EFE" />
											</radialGradient>
											<linearGradient id="paint1_linear_2694_8359" x1="10.3479" y1="9.46028" x2="35.4259" y2="34.5384" gradientUnits="userSpaceOnUse">
												<stop stop-color="#EEEEEE" />
												<stop offset="0.47" stop-color="#81B6F6" />
												<stop offset="1" stop-color="#CBD5E2" />
											</linearGradient>
										</defs>
									</svg>