							<svg width="101" height="84" viewBox="0 0 101 84" fill="none" xmlns="http://www.w3.org/2000/svg">
								<g filter="url(#filter0_f_2694_10180)">
								<path d="M30 42C30 40.3802 30.542 38.8086 31.611 37.329C32.6437 35.9 34.1214 34.6167 36.0041 33.5146C37.8869 32.4125 40.0791 31.5475 42.5203 30.943C45.048 30.3173 47.7328 30 50.5 30C53.2672 30 55.952 30.3173 58.4797 30.943C60.9209 31.5475 63.1131 32.4125 64.9959 33.5146C66.8786 34.6167 68.3563 35.9 69.389 37.329C70.458 38.8086 71 40.3802 71 42C71 43.6198 70.458 45.1914 69.389 46.671C68.3563 48.1 66.8786 49.3833 64.9959 50.4854C63.1131 51.5875 60.9209 52.4525 58.4797 53.057C55.952 53.6827 53.2672 54 50.5 54C47.7328 54 45.048 53.6827 42.5203 53.057C40.0791 52.4525 37.8869 51.5875 36.0041 50.4854C34.1214 49.3833 32.6437 48.1 31.611 46.671C30.542 45.1914 30 43.6198 30 42Z" fill="#B0B8EB" fill-opacity="0.3"/>
								</g>
								<g filter="url(#filter1_b_2694_10180)">
								<circle cx="50" cy="42" r="22" fill="#131727"/>
								<circle cx="50" cy="42" r="21.75" stroke="url(#paint0_linear_2694_10180)" stroke-width="0.5"/>
								</g>
								<defs>
								<filter id="filter0_f_2694_10180" x="0" y="0" width="101" height="84" filterUnits="userSpaceOnUse" color-interpolation-filters="sRGB">
								<feFlood flood-opacity="0" result="BackgroundImageFix"/>
								<feBlend mode="normal" in="SourceGraphic" in2="BackgroundImageFix" result="shape"/>
								<feGaussianBlur stdDeviation="15" result="effect1_foregroundBlur_2694_10180"/>
								</filter>
								<filter id="filter1_b_2694_10180" x="-82" y="-90" width="264" height="264" filterUnits="userSpaceOnUse" color-interpolation-filters="sRGB">
								<feFlood flood-opacity="0" result="BackgroundImageFix"/>
								<feGaussianBlur in="BackgroundImageFix" stdDeviation="55"/>
								<feComposite in2="SourceAlpha" operator="in" result="effect1_backgroundBlur_2694_10180"/>
								<feBlend mode="normal" in="SourceGraphic" in2="effect1_backgroundBlur_2694_10180" result="shape"/>
								</filter>
								<linearGradient id="paint0_linear_2694_10180" x1="50" y1="20" x2="50" y2="64" gradientUnits="userSpaceOnUse">
								<stop stop-color="#212941"/>
								<stop offset="0.469183" stop-color="#2C3A65"/>
								<stop offset="1" stop-color="#272C3D"/>
								</linearGradient>
								</defs>
							</svg>