<svg width="360" height="233" viewBox="0 0 360 233" fill="none" xmlns="http://www.w3.org/2000/svg">
<g filter="url(#filter0_d_2495_2140)">
<g clip-path="url(#clip0_2495_2140)">
<path d="M16 25C16 18.3726 21.3726 13 28 13H332C338.627 13 344 18.3726 344 25V195C344 201.627 338.627 207 332 207H28C21.3726 207 16 201.627 16 195V25Z" fill="#F5F5F5"/>
<g opacity="0.3" filter="url(#filter1_bf_2495_2140)">
<path d="M8 7C8 1.47715 12.4772 -3 18 -3H342C347.523 -3 352 1.47715 352 7V117H8V7Z" fill="url(#paint0_linear_2495_2140)"/>
</g>
</g>
<path d="M16.5 25C16.5 18.6487 21.6487 13.5 28 13.5H332C338.351 13.5 343.5 18.6487 343.5 25V195C343.5 201.351 338.351 206.5 332 206.5H28C21.6487 206.5 16.5 201.351 16.5 195V25Z" stroke="url(#paint1_radial_2495_2140)"/>
<path d="M16.5 25C16.5 18.6487 21.6487 13.5 28 13.5H332C338.351 13.5 343.5 18.6487 343.5 25V195C343.5 201.351 338.351 206.5 332 206.5H28C21.6487 206.5 16.5 201.351 16.5 195V25Z" stroke="url(#paint2_radial_2495_2140)"/>
<path d="M16.5 25C16.5 18.6487 21.6487 13.5 28 13.5H332C338.351 13.5 343.5 18.6487 343.5 25V195C343.5 201.351 338.351 206.5 332 206.5H28C21.6487 206.5 16.5 201.351 16.5 195V25Z" stroke="url(#paint3_radial_2495_2140)"/>
</g>
<defs>
<filter id="filter0_d_2495_2140" x="-2.9781" y="0.0948892" width="365.956" height="231.956" filterUnits="userSpaceOnUse" color-interpolation-filters="sRGB">
<feFlood flood-opacity="0" result="BackgroundImageFix"/>
<feColorMatrix in="SourceAlpha" type="matrix" values="0 0 0 0 0 0 0 0 0 0 0 0 0 0 0 0 0 0 127 0" result="hardAlpha"/>
<feOffset dy="6.07299"/>
<feGaussianBlur stdDeviation="9.48905"/>
<feComposite in2="hardAlpha" operator="out"/>
<feColorMatrix type="matrix" values="0 0 0 0 0.113725 0 0 0 0 0.203922 0 0 0 0 0.529412 0 0 0 0.1 0"/>
<feBlend mode="normal" in2="BackgroundImageFix" result="effect1_dropShadow_2495_2140"/>
<feBlend mode="normal" in="SourceGraphic" in2="effect1_dropShadow_2495_2140" result="shape"/>
</filter>
<filter id="filter1_bf_2495_2140" x="-22" y="-33" width="404" height="180" filterUnits="userSpaceOnUse" color-interpolation-filters="sRGB">
<feFlood flood-opacity="0" result="BackgroundImageFix"/>
<feGaussianBlur in="BackgroundImageFix" stdDeviation="15"/>
<feComposite in2="SourceAlpha" operator="in" result="effect1_backgroundBlur_2495_2140"/>
<feBlend mode="normal" in="SourceGraphic" in2="effect1_backgroundBlur_2495_2140" result="shape"/>
<feGaussianBlur stdDeviation="15" result="effect2_foregroundBlur_2495_2140"/>
</filter>
<linearGradient id="paint0_linear_2495_2140" x1="180" y1="-3" x2="180" y2="117" gradientUnits="userSpaceOnUse">
<stop stop-color="#3461FF" stop-opacity="0.7"/>
<stop offset="1" stop-color="#3461FF" stop-opacity="0"/>
</linearGradient>
<radialGradient id="paint1_radial_2495_2140" cx="0" cy="0" r="1" gradientUnits="userSpaceOnUse" gradientTransform="translate(413.852 86.314) rotate(174.586) scale(537.931 132.423)">
<stop stop-color="white"/>
<stop offset="1" stop-color="white" stop-opacity="0"/>
</radialGradient>
<radialGradient id="paint2_radial_2495_2140" cx="0" cy="0" r="1" gradientUnits="userSpaceOnUse" gradientTransform="translate(-13.358 -99.7907) rotate(29.9028) scale(312.974 186.357)">
<stop stop-color="white"/>
<stop offset="1" stop-color="white" stop-opacity="0"/>
</radialGradient>
<radialGradient id="paint3_radial_2495_2140" cx="0" cy="0" r="1" gradientUnits="userSpaceOnUse" gradientTransform="translate(-115.605 275.05) rotate(-5.18489) scale(403.552 98.9098)">
<stop stop-color="white"/>
<stop offset="1" stop-color="white" stop-opacity="0"/>
</radialGradient>
<clipPath id="clip0_2495_2140">
<path d="M16 25C16 18.3726 21.3726 13 28 13H332C338.627 13 344 18.3726 344 25V195C344 201.627 338.627 207 332 207H28C21.3726 207 16 201.627 16 195V25Z" fill="white"/>
</clipPath>
</defs>
</svg>
