<svg width="1920" height="916" viewBox="0 0 1920 916" fill="none" xmlns="http://www.w3.org/2000/svg">
<circle opacity="0.9" cx="1296.5" cy="344.5" r="0.5" fill="#8B9FCE"/>
<circle opacity="0.9" cx="1292.5" cy="248.5" r="0.5" fill="#8B9FCE"/>
<circle opacity="0.9" cx="1264.5" cy="310.5" r="0.5" fill="#8B9FCE"/>
<circle opacity="0.9" cx="1248.5" cy="223.5" r="0.5" fill="#8B9FCE"/>
<circle opacity="0.9" cx="1252.5" cy="394.5" r="0.5" fill="#8B9FCE"/>
<circle opacity="0.9" cx="1335.5" cy="427.5" r="0.5" fill="#8B9FCE"/>
<circle opacity="0.9" cx="1336.5" cy="300.5" r="0.5" fill="#8B9FCE"/>
<circle opacity="0.9" cx="1406.5" cy="159.5" r="0.5" fill="#8B9FCE"/>
<circle opacity="0.9" cx="1328.5" cy="168.5" r="0.5" fill="#8B9FCE"/>
<circle opacity="0.9" cx="1388.5" cy="220.5" r="0.5" fill="#8B9FCE"/>
<circle opacity="0.9" cx="1292.5" cy="315.5" r="0.5" fill="#8B9FCE"/>
<circle opacity="0.9" cx="1344.5" cy="367.5" r="0.5" fill="#8B9FCE"/>
<circle opacity="0.9" cx="1363.5" cy="419.5" r="0.5" fill="#8B9FCE"/>
<circle opacity="0.9" cx="780.5" cy="284.5" r="0.5" fill="#8B9FCE"/>
<circle opacity="0.9" cx="776.5" cy="188.5" r="0.5" fill="#8B9FCE"/>
<circle opacity="0.9" cx="748.5" cy="250.5" r="0.5" fill="#8B9FCE"/>
<circle opacity="0.9" cx="732.5" cy="163.5" r="0.5" fill="#8B9FCE"/>
<circle opacity="0.9" cx="736.5" cy="334.5" r="0.5" fill="#8B9FCE"/>
<circle opacity="0.9" cx="819.5" cy="367.5" r="0.5" fill="#8B9FCE"/>
<circle opacity="0.9" cx="820.5" cy="240.5" r="0.5" fill="#8B9FCE"/>
<circle opacity="0.9" cx="890.5" cy="99.5" r="0.5" fill="#8B9FCE"/>
<circle opacity="0.9" cx="826.5" cy="163.5" r="0.5" fill="#8B9FCE"/>
<circle opacity="0.9" cx="811.5" cy="165.5" r="0.5" fill="#8B9FCE"/>
<circle opacity="0.9" cx="776.5" cy="255.5" r="0.5" fill="#8B9FCE"/>
<circle opacity="0.9" cx="828.5" cy="307.5" r="0.5" fill="#8B9FCE"/>
<circle opacity="0.9" cx="847.5" cy="359.5" r="0.5" fill="#8B9FCE"/>
<circle opacity="0.9" cx="489.5" cy="303.5" r="0.5" transform="rotate(90 489.5 303.5)" fill="#8B9FCE"/>
<circle opacity="0.9" cx="555.5" cy="317.5" r="0.5" transform="rotate(90 555.5 317.5)" fill="#8B9FCE"/>
<circle opacity="0.9" cx="523.5" cy="271.5" r="0.5" transform="rotate(90 523.5 271.5)" fill="#8B9FCE"/>
<circle opacity="0.9" cx="610.5" cy="255.5" r="0.5" transform="rotate(90 610.5 255.5)" fill="#8B9FCE"/>
<circle opacity="0.9" cx="439.5" cy="259.5" r="0.5" transform="rotate(90 439.5 259.5)" fill="#8B9FCE"/>
<circle opacity="0.9" cx="406.5" cy="342.5" r="0.5" transform="rotate(90 406.5 342.5)" fill="#8B9FCE"/>
<circle opacity="0.9" cx="469.5" cy="526.5" r="0.5" transform="rotate(90 469.5 526.5)" fill="#8B9FCE"/>
<circle opacity="0.9" cx="554.5" cy="384.5" r="0.5" transform="rotate(90 554.5 384.5)" fill="#8B9FCE"/>
<circle opacity="0.9" cx="535.5" cy="453.5" r="0.5" transform="rotate(90 535.5 453.5)" fill="#8B9FCE"/>
<circle opacity="0.9" cx="573.5" cy="461.5" r="0.5" transform="rotate(90 573.5 461.5)" fill="#8B9FCE"/>
<circle opacity="0.9" cx="541.5" cy="498.5" r="0.5" transform="rotate(90 541.5 498.5)" fill="#8B9FCE"/>
<circle opacity="0.9" cx="608.5" cy="521.5" r="0.5" transform="rotate(90 608.5 521.5)" fill="#8B9FCE"/>
<circle opacity="0.9" cx="625.5" cy="473.5" r="0.5" transform="rotate(90 625.5 473.5)" fill="#8B9FCE"/>
<circle opacity="0.9" cx="561.5" cy="545.5" r="0.5" transform="rotate(90 561.5 545.5)" fill="#8B9FCE"/>
<circle opacity="0.9" cx="675.5" cy="489.5" r="0.5" transform="rotate(90 675.5 489.5)" fill="#8B9FCE"/>
<circle opacity="0.9" cx="633.5" cy="415.5" r="0.5" transform="rotate(90 633.5 415.5)" fill="#8B9FCE"/>
<circle opacity="0.9" cx="626.5" cy="290.5" r="0.5" transform="rotate(90 626.5 290.5)" fill="#8B9FCE"/>
<circle opacity="0.9" cx="451.5" cy="446.5" r="0.5" transform="rotate(90 451.5 446.5)" fill="#8B9FCE"/>
<circle opacity="0.9" cx="674.5" cy="413.5" r="0.5" transform="rotate(90 674.5 413.5)" fill="#8B9FCE"/>
<circle opacity="0.9" cx="610.5" cy="349.5" r="0.5" transform="rotate(90 610.5 349.5)" fill="#8B9FCE"/>
<circle opacity="0.9" cx="608.5" cy="334.5" r="0.5" transform="rotate(90 608.5 334.5)" fill="#8B9FCE"/>
<circle opacity="0.9" cx="518.5" cy="299.5" r="0.5" transform="rotate(90 518.5 299.5)" fill="#8B9FCE"/>
<circle opacity="0.9" cx="466.5" cy="351.5" r="0.5" transform="rotate(90 466.5 351.5)" fill="#8B9FCE"/>
<circle opacity="0.9" cx="414.5" cy="370.5" r="0.5" transform="rotate(90 414.5 370.5)" fill="#8B9FCE"/>
<circle opacity="0.9" cx="477.5" cy="554.5" r="0.5" transform="rotate(90 477.5 554.5)" fill="#8B9FCE"/>
<circle opacity="0.9" cx="768.5" cy="349.5" r="0.5" transform="rotate(90 768.5 349.5)" fill="#8B9FCE"/>
<circle opacity="0.9" cx="834.5" cy="363.5" r="0.5" transform="rotate(90 834.5 363.5)" fill="#8B9FCE"/>
<circle opacity="0.9" cx="802.5" cy="317.5" r="0.5" transform="rotate(90 802.5 317.5)" fill="#8B9FCE"/>
<circle opacity="0.9" cx="889.5" cy="301.5" r="0.5" transform="rotate(90 889.5 301.5)" fill="#8B9FCE"/>
<circle opacity="0.9" cx="718.5" cy="305.5" r="0.5" transform="rotate(90 718.5 305.5)" fill="#8B9FCE"/>
<circle opacity="0.9" cx="685.5" cy="388.5" r="0.5" transform="rotate(90 685.5 388.5)" fill="#8B9FCE"/>
<circle opacity="0.9" cx="673.5" cy="312.5" r="0.5" transform="rotate(90 673.5 312.5)" fill="#8B9FCE"/>
<circle opacity="0.9" cx="833.5" cy="430.5" r="0.5" transform="rotate(90 833.5 430.5)" fill="#8B9FCE"/>
<circle opacity="0.9" cx="953.5" cy="459.5" r="0.5" transform="rotate(90 953.5 459.5)" fill="#8B9FCE"/>
<circle opacity="0.9" cx="889.5" cy="395.5" r="0.5" transform="rotate(90 889.5 395.5)" fill="#8B9FCE"/>
<circle opacity="0.9" cx="887.5" cy="380.5" r="0.5" transform="rotate(90 887.5 380.5)" fill="#8B9FCE"/>
<circle opacity="0.9" cx="797.5" cy="345.5" r="0.5" transform="rotate(90 797.5 345.5)" fill="#8B9FCE"/>
<circle opacity="0.9" cx="745.5" cy="397.5" r="0.5" transform="rotate(90 745.5 397.5)" fill="#8B9FCE"/>
<circle opacity="0.9" cx="693.5" cy="416.5" r="0.5" transform="rotate(90 693.5 416.5)" fill="#8B9FCE"/>
<circle opacity="0.9" cx="1074.5" cy="190.5" r="0.5" transform="rotate(90 1074.5 190.5)" fill="#8B9FCE"/>
<circle opacity="0.9" cx="1140.5" cy="204.5" r="0.5" transform="rotate(90 1140.5 204.5)" fill="#8B9FCE"/>
<circle opacity="0.9" cx="1108.5" cy="158.5" r="0.5" transform="rotate(90 1108.5 158.5)" fill="#8B9FCE"/>
<circle opacity="0.9" cx="1195.5" cy="142.5" r="0.5" transform="rotate(90 1195.5 142.5)" fill="#8B9FCE"/>
<circle opacity="0.9" cx="1024.5" cy="146.5" r="0.5" transform="rotate(90 1024.5 146.5)" fill="#8B9FCE"/>
<circle opacity="0.9" cx="991.5" cy="229.5" r="0.5" transform="rotate(90 991.5 229.5)" fill="#8B9FCE"/>
<circle opacity="0.9" cx="1139.5" cy="271.5" r="0.5" transform="rotate(90 1139.5 271.5)" fill="#8B9FCE"/>
<circle opacity="0.9" cx="1259.5" cy="300.5" r="0.5" transform="rotate(90 1259.5 300.5)" fill="#8B9FCE"/>
<circle opacity="0.9" cx="1195.5" cy="236.5" r="0.5" transform="rotate(90 1195.5 236.5)" fill="#8B9FCE"/>
<circle opacity="0.9" cx="1193.5" cy="221.5" r="0.5" transform="rotate(90 1193.5 221.5)" fill="#8B9FCE"/>
<circle opacity="0.9" cx="1103.5" cy="186.5" r="0.5" transform="rotate(90 1103.5 186.5)" fill="#8B9FCE"/>
<circle opacity="0.9" cx="1051.5" cy="238.5" r="0.5" transform="rotate(90 1051.5 238.5)" fill="#8B9FCE"/>
<circle opacity="0.9" cx="999.5" cy="257.5" r="0.5" transform="rotate(90 999.5 257.5)" fill="#8B9FCE"/>
<circle opacity="0.9" cx="526.5" cy="128.5" r="0.5" transform="rotate(90 526.5 128.5)" fill="#8B9FCE"/>
<circle opacity="0.9" cx="592.5" cy="142.5" r="0.5" transform="rotate(90 592.5 142.5)" fill="#8B9FCE"/>
<circle opacity="0.9" cx="560.5" cy="96.5" r="0.5" transform="rotate(90 560.5 96.5)" fill="#8B9FCE"/>
<circle opacity="0.9" cx="647.5" cy="80.5" r="0.5" transform="rotate(90 647.5 80.5)" fill="#8B9FCE"/>
<circle opacity="0.9" cx="476.5" cy="84.5" r="0.5" transform="rotate(90 476.5 84.5)" fill="#8B9FCE"/>
<circle opacity="0.9" cx="443.5" cy="167.5" r="0.5" transform="rotate(90 443.5 167.5)" fill="#8B9FCE"/>
<circle opacity="0.9" cx="591.5" cy="209.5" r="0.5" transform="rotate(90 591.5 209.5)" fill="#8B9FCE"/>
<circle opacity="0.9" cx="711.5" cy="238.5" r="0.5" transform="rotate(90 711.5 238.5)" fill="#8B9FCE"/>
<circle opacity="0.9" cx="647.5" cy="174.5" r="0.5" transform="rotate(90 647.5 174.5)" fill="#8B9FCE"/>
<circle opacity="0.9" cx="645.5" cy="159.5" r="0.5" transform="rotate(90 645.5 159.5)" fill="#8B9FCE"/>
<circle opacity="0.9" cx="555.5" cy="124.5" r="0.5" transform="rotate(90 555.5 124.5)" fill="#8B9FCE"/>
<circle opacity="0.9" cx="503.5" cy="176.5" r="0.5" transform="rotate(90 503.5 176.5)" fill="#8B9FCE"/>
<circle opacity="0.9" cx="451.5" cy="195.5" r="0.5" transform="rotate(90 451.5 195.5)" fill="#8B9FCE"/>
<circle opacity="0.9" cx="413.5" cy="79.5" r="0.5" transform="rotate(90 413.5 79.5)" fill="#8B9FCE"/>
<circle opacity="0.9" cx="536.5" cy="14.5" r="0.5" transform="rotate(90 536.5 14.5)" fill="#8B9FCE"/>
<circle opacity="0.9" cx="304.5" cy="78.5" r="0.5" transform="rotate(90 304.5 78.5)" fill="#8B9FCE"/>
<circle opacity="0.9" cx="452.5" cy="120.5" r="0.5" transform="rotate(90 452.5 120.5)" fill="#8B9FCE"/>
<circle opacity="0.9" cx="572.5" cy="149.5" r="0.5" transform="rotate(90 572.5 149.5)" fill="#8B9FCE"/>
<circle opacity="0.9" cx="508.5" cy="85.5" r="0.5" transform="rotate(90 508.5 85.5)" fill="#8B9FCE"/>
<circle opacity="0.9" cx="522.5" cy="36.5" r="0.5" transform="rotate(90 522.5 36.5)" fill="#8B9FCE"/>
<circle opacity="0.9" cx="486.5" cy="21.5" r="0.5" transform="rotate(90 486.5 21.5)" fill="#8B9FCE"/>
<circle opacity="0.9" cx="635.5" cy="23.5" r="0.5" transform="rotate(90 635.5 23.5)" fill="#8B9FCE"/>
<circle opacity="0.9" cx="545.5" cy="42.5" r="0.5" transform="rotate(90 545.5 42.5)" fill="#8B9FCE"/>
<circle opacity="0.9" cx="397.5" cy="108.5" r="0.5" transform="rotate(90 397.5 108.5)" fill="#8B9FCE"/>
<circle opacity="0.9" cx="364.5" cy="87.5" r="0.5" transform="rotate(90 364.5 87.5)" fill="#8B9FCE"/>
<circle opacity="0.9" cx="312.5" cy="106.5" r="0.5" transform="rotate(90 312.5 106.5)" fill="#8B9FCE"/>
<circle opacity="0.9" cx="1670.5" cy="211.5" r="0.5" fill="#8B9FCE"/>
<circle opacity="0.9" cx="1666.5" cy="115.5" r="0.5" fill="#8B9FCE"/>
<circle opacity="0.9" cx="1638.5" cy="177.5" r="0.5" fill="#8B9FCE"/>
<circle opacity="0.9" cx="1622.5" cy="90.5" r="0.5" fill="#8B9FCE"/>
<circle opacity="0.9" cx="1626.5" cy="261.5" r="0.5" fill="#8B9FCE"/>
<circle opacity="0.9" cx="1709.5" cy="294.5" r="0.5" fill="#8B9FCE"/>
<circle opacity="0.9" cx="1710.5" cy="167.5" r="0.5" fill="#8B9FCE"/>
<circle opacity="0.9" cx="1780.5" cy="26.5" r="0.5" fill="#8B9FCE"/>
<circle opacity="0.9" cx="1805.5" cy="136.5" r="0.5" fill="#8B9FCE"/>
<circle opacity="0.9" cx="1716.5" cy="90.5" r="0.5" fill="#8B9FCE"/>
<circle opacity="0.9" cx="1701.5" cy="92.5" r="0.5" fill="#8B9FCE"/>
<circle opacity="0.9" cx="1639.5" cy="29.5" r="0.5" fill="#8B9FCE"/>
<circle opacity="0.9" cx="1666.5" cy="182.5" r="0.5" fill="#8B9FCE"/>
<circle opacity="0.9" cx="1718.5" cy="234.5" r="0.5" fill="#8B9FCE"/>
<circle opacity="0.9" cx="1737.5" cy="286.5" r="0.5" fill="#8B9FCE"/>
<circle opacity="0.9" cx="100.5" cy="211.5" r="0.5" fill="#8B9FCE"/>
<circle opacity="0.9" cx="96.5" cy="115.5" r="0.5" fill="#8B9FCE"/>
<circle opacity="0.9" cx="68.5" cy="177.5" r="0.5" fill="#8B9FCE"/>
<circle opacity="0.9" cx="52.5" cy="90.5" r="0.5" fill="#8B9FCE"/>
<circle opacity="0.9" cx="56.5" cy="261.5" r="0.5" fill="#8B9FCE"/>
<circle opacity="0.9" cx="139.5" cy="294.5" r="0.5" fill="#8B9FCE"/>
<circle opacity="0.9" cx="140.5" cy="167.5" r="0.5" fill="#8B9FCE"/>
<circle opacity="0.9" cx="210.5" cy="26.5" r="0.5" fill="#8B9FCE"/>
<circle opacity="0.9" cx="146.5" cy="90.5" r="0.5" fill="#8B9FCE"/>
<circle opacity="0.9" cx="131.5" cy="92.5" r="0.5" fill="#8B9FCE"/>
<circle opacity="0.9" cx="96.5" cy="182.5" r="0.5" fill="#8B9FCE"/>
<circle opacity="0.9" cx="148.5" cy="234.5" r="0.5" fill="#8B9FCE"/>
<circle opacity="0.9" cx="167.5" cy="286.5" r="0.5" fill="#8B9FCE"/>
<circle opacity="0.9" cx="1635.5" cy="522.5" r="0.5" fill="#8B9FCE"/>
<circle opacity="0.9" cx="1631.5" cy="426.5" r="0.5" fill="#8B9FCE"/>
<circle opacity="0.9" cx="1413.5" cy="582.5" r="0.5" fill="#8B9FCE"/>
<circle opacity="0.9" cx="1603.5" cy="488.5" r="0.5" fill="#8B9FCE"/>
<circle opacity="0.9" cx="1385.5" cy="644.5" r="0.5" fill="#8B9FCE"/>
<circle opacity="0.9" cx="1587.5" cy="401.5" r="0.5" fill="#8B9FCE"/>
<circle opacity="0.9" cx="1369.5" cy="557.5" r="0.5" fill="#8B9FCE"/>
<circle opacity="0.9" cx="1284.5" cy="539.5" r="0.5" fill="#8B9FCE"/>
<circle opacity="0.9" cx="1260.5" cy="487.5" r="0.5" fill="#8B9FCE"/>
<circle opacity="0.9" cx="1292.5" cy="473.5" r="0.5" fill="#8B9FCE"/>
<circle opacity="0.9" cx="1141.5" cy="487.5" r="0.5" fill="#8B9FCE"/>
<circle opacity="0.9" cx="992.5" cy="492.5" r="0.5" fill="#8B9FCE"/>
<circle opacity="0.9" cx="812.5" cy="487.5" r="0.5" fill="#8B9FCE"/>
<circle opacity="0.9" cx="754.5" cy="503.5" r="0.5" fill="#8B9FCE"/>
<circle opacity="0.9" cx="761.5" cy="440.5" r="0.5" fill="#8B9FCE"/>
<circle opacity="0.9" cx="686.5" cy="552.5" r="0.5" fill="#8B9FCE"/>
<circle opacity="0.9" cx="1154.5" cy="474.5" r="0.5" fill="#8B9FCE"/>
<circle opacity="0.9" cx="1163.5" cy="523.5" r="0.5" fill="#8B9FCE"/>
<circle opacity="0.9" cx="1120.5" cy="435.5" r="0.5" fill="#8B9FCE"/>
<circle opacity="0.9" cx="1155.5" cy="411.5" r="0.5" fill="#8B9FCE"/>
<circle opacity="0.9" cx="1591.5" cy="572.5" r="0.5" fill="#8B9FCE"/>
<circle opacity="0.9" cx="1547.5" cy="664.5" r="0.5" fill="#8B9FCE"/>
<circle opacity="0.9" cx="1610.5" cy="642.5" r="0.5" fill="#8B9FCE"/>
<circle opacity="0.9" cx="1630.5" cy="700.5" r="0.5" fill="#8B9FCE"/>
<circle opacity="0.9" cx="1684.5" cy="689.5" r="0.5" fill="#8B9FCE"/>
<circle opacity="0.9" cx="1626.5" cy="762.5" r="0.5" fill="#8B9FCE"/>
<circle opacity="0.9" cx="1659.5" cy="737.5" r="0.5" fill="#8B9FCE"/>
<circle opacity="0.9" cx="1665.5" cy="783.5" r="0.5" fill="#8B9FCE"/>
<circle opacity="0.9" cx="1744.5" cy="826.5" r="0.5" fill="#8B9FCE"/>
<circle opacity="0.9" cx="1805.5" cy="819.5" r="0.5" fill="#8B9FCE"/>
<circle opacity="0.9" cx="1795.5" cy="872.5" r="0.5" fill="#8B9FCE"/>
<circle opacity="0.9" cx="1728.5" cy="859.5" r="0.5" fill="#8B9FCE"/>
<circle opacity="0.9" cx="1658.5" cy="874.5" r="0.5" fill="#8B9FCE"/>
<circle opacity="0.9" cx="1604.5" cy="896.5" r="0.5" fill="#8B9FCE"/>
<circle opacity="0.9" cx="1700.5" cy="761.5" r="0.5" fill="#8B9FCE"/>
<circle opacity="0.9" cx="1373.5" cy="728.5" r="0.5" fill="#8B9FCE"/>
<circle opacity="0.9" cx="1674.5" cy="605.5" r="0.5" fill="#8B9FCE"/>
<circle opacity="0.9" cx="1456.5" cy="761.5" r="0.5" fill="#8B9FCE"/>
<circle opacity="0.9" cx="1675.5" cy="478.5" r="0.5" fill="#8B9FCE"/>
<circle opacity="0.9" cx="1457.5" cy="634.5" r="0.5" fill="#8B9FCE"/>
<circle opacity="0.9" cx="1745.5" cy="337.5" r="0.5" fill="#8B9FCE"/>
<circle opacity="0.9" cx="1527.5" cy="493.5" r="0.5" fill="#8B9FCE"/>
<circle opacity="0.9" cx="1681.5" cy="401.5" r="0.5" fill="#8B9FCE"/>
<circle opacity="0.9" cx="1463.5" cy="557.5" r="0.5" fill="#8B9FCE"/>
<circle opacity="0.9" cx="1337.5" cy="515.5" r="0.5" fill="#8B9FCE"/>
<circle opacity="0.9" cx="1666.5" cy="403.5" r="0.5" fill="#8B9FCE"/>
<circle opacity="0.9" cx="1448.5" cy="559.5" r="0.5" fill="#8B9FCE"/>
<circle opacity="0.9" cx="1631.5" cy="493.5" r="0.5" fill="#8B9FCE"/>
<circle opacity="0.9" cx="1413.5" cy="649.5" r="0.5" fill="#8B9FCE"/>
<circle opacity="0.9" cx="1683.5" cy="545.5" r="0.5" fill="#8B9FCE"/>
<circle opacity="0.9" cx="1465.5" cy="701.5" r="0.5" fill="#8B9FCE"/>
<circle opacity="0.9" cx="1702.5" cy="597.5" r="0.5" fill="#8B9FCE"/>
<circle opacity="0.9" cx="1759.5" cy="593.5" r="0.5" fill="#8B9FCE"/>
<circle opacity="0.9" cx="1827.5" cy="558.5" r="0.5" fill="#8B9FCE"/>
<circle opacity="0.9" cx="1821.5" cy="625.5" r="0.5" fill="#8B9FCE"/>
<circle opacity="0.9" cx="1859.5" cy="635.5" r="0.5" fill="#8B9FCE"/>
<circle opacity="0.9" cx="1822.5" cy="702.5" r="0.5" fill="#8B9FCE"/>
<circle opacity="0.9" cx="1794.5" cy="763.5" r="0.5" fill="#8B9FCE"/>
<circle opacity="0.9" cx="1856.5" cy="729.5" r="0.5" fill="#8B9FCE"/>
<circle opacity="0.9" cx="65.5" cy="522.5" r="0.5" fill="#8B9FCE"/>
<circle opacity="0.9" cx="61.5" cy="426.5" r="0.5" fill="#8B9FCE"/>
<circle opacity="0.9" cx="0.5" cy="338.5" r="0.5" fill="#8B9FCE"/>
<circle opacity="0.9" cx="33.5" cy="488.5" r="0.5" fill="#8B9FCE"/>
<circle opacity="0.9" cx="17.5" cy="401.5" r="0.5" fill="#8B9FCE"/>
<circle opacity="0.9" cx="21.5" cy="572.5" r="0.5" fill="#8B9FCE"/>
<circle opacity="0.9" cx="104.5" cy="605.5" r="0.5" fill="#8B9FCE"/>
<circle opacity="0.9" cx="105.5" cy="478.5" r="0.5" fill="#8B9FCE"/>
<circle opacity="0.9" cx="175.5" cy="337.5" r="0.5" fill="#8B9FCE"/>
<circle opacity="0.9" cx="111.5" cy="401.5" r="0.5" fill="#8B9FCE"/>
<circle opacity="0.9" cx="96.5" cy="403.5" r="0.5" fill="#8B9FCE"/>
<circle opacity="0.9" cx="61.5" cy="493.5" r="0.5" fill="#8B9FCE"/>
<circle opacity="0.9" cx="113.5" cy="545.5" r="0.5" fill="#8B9FCE"/>
<circle opacity="0.9" cx="132.5" cy="597.5" r="0.5" fill="#8B9FCE"/>
<circle opacity="0.9" cx="1433.5" cy="67.5" r="0.5" transform="rotate(-90 1433.5 67.5)" fill="#8B9FCE"/>
<circle opacity="0.9" cx="1337.5" cy="71.5" r="0.5" transform="rotate(-90 1337.5 71.5)" fill="#8B9FCE"/>
<circle opacity="0.9" cx="1399.5" cy="99.5" r="0.5" transform="rotate(-90 1399.5 99.5)" fill="#8B9FCE"/>
<circle opacity="0.9" cx="1312.5" cy="115.5" r="0.5" transform="rotate(-90 1312.5 115.5)" fill="#8B9FCE"/>
<circle opacity="0.9" cx="1483.5" cy="111.5" r="0.5" transform="rotate(-90 1483.5 111.5)" fill="#8B9FCE"/>
<circle opacity="0.9" cx="1516.5" cy="28.5" r="0.5" transform="rotate(-90 1516.5 28.5)" fill="#8B9FCE"/>
<circle opacity="0.9" cx="1389.5" cy="27.5" r="0.5" transform="rotate(-90 1389.5 27.5)" fill="#8B9FCE"/>
<circle opacity="0.9" cx="1312.5" cy="21.5" r="0.5" transform="rotate(-90 1312.5 21.5)" fill="#8B9FCE"/>
<circle opacity="0.9" cx="1314.5" cy="36.5" r="0.5" transform="rotate(-90 1314.5 36.5)" fill="#8B9FCE"/>
<circle opacity="0.9" cx="1247.5" cy="46.5" r="0.5" transform="rotate(-90 1247.5 46.5)" fill="#8B9FCE"/>
<circle opacity="0.9" cx="1281.5" cy="71.5" r="0.5" transform="rotate(-90 1281.5 71.5)" fill="#8B9FCE"/>
<circle opacity="0.9" cx="1255.5" cy="165.5" r="0.5" transform="rotate(-90 1255.5 165.5)" fill="#8B9FCE"/>
<circle opacity="0.9" cx="1270.5" cy="157.5" r="0.5" transform="rotate(-90 1270.5 157.5)" fill="#8B9FCE"/>
<circle opacity="0.9" cx="1235.5" cy="102.5" r="0.5" transform="rotate(-90 1235.5 102.5)" fill="#8B9FCE"/>
<circle opacity="0.9" cx="1210.5" cy="35.5" r="0.5" transform="rotate(-90 1210.5 35.5)" fill="#8B9FCE"/>
<circle opacity="0.9" cx="1254.5" cy="14.5" r="0.5" transform="rotate(-90 1254.5 14.5)" fill="#8B9FCE"/>
<circle opacity="0.9" cx="1404.5" cy="71.5" r="0.5" transform="rotate(-90 1404.5 71.5)" fill="#8B9FCE"/>
<circle opacity="0.9" cx="1456.5" cy="19.5" r="0.5" transform="rotate(-90 1456.5 19.5)" fill="#8B9FCE"/>
<circle opacity="0.9" cx="1508.5" cy="0.5" r="0.5" transform="rotate(-90 1508.5 0.5)" fill="#8B9FCE"/>
<circle opacity="0.9" cx="1447.5" cy="395.5" r="0.5" fill="#8B9FCE"/>
<circle opacity="0.9" cx="1411.5" cy="301.5" r="0.5" fill="#8B9FCE"/>
<circle opacity="0.9" cx="1422.5" cy="355.5" r="0.5" fill="#8B9FCE"/>
<circle opacity="0.9" cx="1406.5" cy="268.5" r="0.5" fill="#8B9FCE"/>
<circle opacity="0.9" cx="1410.5" cy="439.5" r="0.5" fill="#8B9FCE"/>
<circle opacity="0.9" cx="1405.5" cy="502.5" r="0.5" fill="#8B9FCE"/>
<circle opacity="0.9" cx="1493.5" cy="472.5" r="0.5" fill="#8B9FCE"/>
<circle opacity="0.9" cx="1546.5" cy="316.5" r="0.5" fill="#8B9FCE"/>
<circle opacity="0.9" cx="1564.5" cy="204.5" r="0.5" fill="#8B9FCE"/>
<circle opacity="0.9" cx="1484.5" cy="205.5" r="0.5" fill="#8B9FCE"/>
<circle opacity="0.9" cx="1485.5" cy="270.5" r="0.5" fill="#8B9FCE"/>
<circle opacity="0.9" cx="1484.5" cy="337.5" r="0.5" fill="#8B9FCE"/>
<circle opacity="0.9" cx="1502.5" cy="412.5" r="0.5" fill="#8B9FCE"/>
<circle opacity="0.9" cx="1521.5" cy="464.5" r="0.5" fill="#8B9FCE"/>
<circle opacity="0.9" cx="1820.5" cy="383.5" r="0.5" fill="#8B9FCE"/>
<circle opacity="0.9" cx="1784.5" cy="289.5" r="0.5" fill="#8B9FCE"/>
<circle opacity="0.9" cx="1795.5" cy="343.5" r="0.5" fill="#8B9FCE"/>
<circle opacity="0.9" cx="1779.5" cy="256.5" r="0.5" fill="#8B9FCE"/>
<circle opacity="0.9" cx="1783.5" cy="427.5" r="0.5" fill="#8B9FCE"/>
<circle opacity="0.9" cx="1866.5" cy="460.5" r="0.5" fill="#8B9FCE"/>
<circle opacity="0.9" cx="1919.5" cy="304.5" r="0.5" fill="#8B9FCE"/>
<circle opacity="0.9" cx="1917.5" cy="192.5" r="0.5" fill="#8B9FCE"/>
<circle opacity="0.9" cx="1857.5" cy="193.5" r="0.5" fill="#8B9FCE"/>
<circle opacity="0.9" cx="1858.5" cy="258.5" r="0.5" fill="#8B9FCE"/>
<circle opacity="0.9" cx="1857.5" cy="325.5" r="0.5" fill="#8B9FCE"/>
<circle opacity="0.9" cx="1875.5" cy="400.5" r="0.5" fill="#8B9FCE"/>
<circle opacity="0.9" cx="1894.5" cy="452.5" r="0.5" fill="#8B9FCE"/>
<circle opacity="0.9" cx="250.5" cy="383.5" r="0.5" fill="#8B9FCE"/>
<circle opacity="0.9" cx="214.5" cy="289.5" r="0.5" fill="#8B9FCE"/>
<circle opacity="0.9" cx="225.5" cy="343.5" r="0.5" fill="#8B9FCE"/>
<circle opacity="0.9" cx="209.5" cy="256.5" r="0.5" fill="#8B9FCE"/>
<circle opacity="0.9" cx="213.5" cy="427.5" r="0.5" fill="#8B9FCE"/>
<circle opacity="0.9" cx="296.5" cy="460.5" r="0.5" fill="#8B9FCE"/>
<circle opacity="0.9" cx="349.5" cy="304.5" r="0.5" fill="#8B9FCE"/>
<circle opacity="0.9" cx="412.5" cy="488.5" r="0.5" fill="#8B9FCE"/>
<circle opacity="0.9" cx="377.5" cy="404.5" r="0.5" fill="#8B9FCE"/>
<circle opacity="0.9" cx="288.5" cy="553.5" r="0.5" fill="#8B9FCE"/>
<circle opacity="0.9" cx="272.5" cy="650.5" r="0.5" fill="#8B9FCE"/>
<circle opacity="0.9" cx="233.5" cy="688.5" r="0.5" fill="#8B9FCE"/>
<circle opacity="0.9" cx="325.5" cy="666.5" r="0.5" fill="#8B9FCE"/>
<circle opacity="0.9" cx="348.5" cy="742.5" r="0.5" fill="#8B9FCE"/>
<circle opacity="0.9" cx="271.5" cy="783.5" r="0.5" fill="#8B9FCE"/>
<circle opacity="0.9" cx="411.5" cy="720.5" r="0.5" fill="#8B9FCE"/>
<circle opacity="0.9" cx="488.5" cy="777.5" r="0.5" fill="#8B9FCE"/>
<circle opacity="0.9" cx="444.5" cy="643.5" r="0.5" fill="#8B9FCE"/>
<circle opacity="0.9" cx="476.5" cy="649.5" r="0.5" fill="#8B9FCE"/>
<circle opacity="0.9" cx="445.5" cy="582.5" r="0.5" fill="#8B9FCE"/>
<circle opacity="0.9" cx="517.5" cy="850.5" r="0.5" fill="#8B9FCE"/>
<circle opacity="0.9" cx="450.5" cy="888.5" r="0.5" fill="#8B9FCE"/>
<circle opacity="0.9" cx="439.5" cy="826.5" r="0.5" fill="#8B9FCE"/>
<circle opacity="0.9" cx="1476.5" cy="836.5" r="0.5" fill="#8B9FCE"/>
<circle opacity="0.9" cx="1528.5" cy="817.5" r="0.5" fill="#8B9FCE"/>
<circle opacity="0.9" cx="1541.5" cy="768.5" r="0.5" fill="#8B9FCE"/>
<circle opacity="0.9" cx="1611.5" cy="845.5" r="0.5" fill="#8B9FCE"/>
<circle opacity="0.9" cx="1522.5" cy="882.5" r="0.5" fill="#8B9FCE"/>
<circle opacity="0.9" cx="1425.5" cy="871.5" r="0.5" fill="#8B9FCE"/>
<circle opacity="0.9" cx="1414.5" cy="818.5" r="0.5" fill="#8B9FCE"/>
<circle opacity="0.9" cx="1360.5" cy="915.5" r="0.5" fill="#8B9FCE"/>
<circle opacity="0.9" cx="475.5" cy="694.5" r="0.5" fill="#8B9FCE"/>
<circle opacity="0.9" cx="303.5" cy="606.5" r="0.5" fill="#8B9FCE"/>
<circle opacity="0.9" cx="111.5" cy="667.5" r="0.5" fill="#8B9FCE"/>
<circle opacity="0.9" cx="167.5" cy="743.5" r="0.5" fill="#8B9FCE"/>
<circle opacity="0.9" cx="249.5" cy="736.5" r="0.5" fill="#8B9FCE"/>
<circle opacity="0.9" cx="105.5" cy="806.5" r="0.5" fill="#8B9FCE"/>
<circle opacity="0.9" cx="150.5" cy="854.5" r="0.5" fill="#8B9FCE"/>
<circle opacity="0.9" cx="183.5" cy="816.5" r="0.5" fill="#8B9FCE"/>
<circle opacity="0.9" cx="347.5" cy="790.5" r="0.5" fill="#8B9FCE"/>
<circle opacity="0.9" cx="306.5" cy="826.5" r="0.5" fill="#8B9FCE"/>
<circle opacity="0.9" cx="258.5" cy="815.5" r="0.5" fill="#8B9FCE"/>
<circle opacity="0.9" cx="413.5" cy="780.5" r="0.5" fill="#8B9FCE"/>
<circle opacity="0.9" cx="182.5" cy="497.5" r="0.5" fill="#8B9FCE"/>
<circle opacity="0.9" cx="226.5" cy="571.5" r="0.5" fill="#8B9FCE"/>
<circle opacity="0.9" cx="367.5" cy="192.5" r="0.5" fill="#8B9FCE"/>
<circle opacity="0.9" cx="287.5" cy="193.5" r="0.5" fill="#8B9FCE"/>
<circle opacity="0.9" cx="288.5" cy="258.5" r="0.5" fill="#8B9FCE"/>
<circle opacity="0.9" cx="287.5" cy="325.5" r="0.5" fill="#8B9FCE"/>
<circle opacity="0.9" cx="305.5" cy="400.5" r="0.5" fill="#8B9FCE"/>
<circle opacity="0.9" cx="368.5" cy="584.5" r="0.5" fill="#8B9FCE"/>
<circle opacity="0.9" cx="378.5" cy="665.5" r="0.5" fill="#8B9FCE"/>
<circle opacity="0.9" cx="324.5" cy="452.5" r="0.5" fill="#8B9FCE"/>
</svg>
