<svg width="337" height="184" viewBox="0 0 337 184" fill="none" xmlns="http://www.w3.org/2000/svg">
<path fill-rule="evenodd" clip-rule="evenodd" d="M5 107.5C5 109.709 6.79087 111.5 9 111.5C11.2091 111.5 13 109.709 13 107.5C13 105.291 11.2091 103.5 9 103.5C6.79087 103.5 5 105.291 5 107.5ZM9 112.5C6.23858 112.5 4 110.261 4 107.5C4 104.907 5.97334 102.776 8.50001 102.525L8.5 41.2858C8.5 21.5295 24.7424 5.5 44.805 5.5L147.5 5.49999C147.5 2.73857 149.739 0.499994 152.5 0.499994C155.261 0.499993 157.5 2.73857 157.5 5.49999C157.5 8.26141 155.261 10.5 152.5 10.5C150.081 10.5 148.063 8.78224 147.6 6.5L44.805 6.5C25.2815 6.5 9.5 22.0949 9.5 41.2858L9.50001 102.525C12.0267 102.776 14 104.907 14 107.5C14 110.261 11.7614 112.5 9 112.5ZM152.5 9.49999C150.291 9.49999 148.5 7.70913 148.5 5.49999C148.5 3.29086 150.291 1.49999 152.5 1.49999C154.709 1.49999 156.5 3.29086 156.5 5.49999C156.5 7.70913 154.709 9.49999 152.5 9.49999Z" fill="url(#paint0_linear_1_1700)"/>
<path fill-rule="evenodd" clip-rule="evenodd" d="M5 107.5C5 109.709 6.79087 111.5 9 111.5C11.2091 111.5 13 109.709 13 107.5C13 105.291 11.2091 103.5 9 103.5C6.79087 103.5 5 105.291 5 107.5ZM9 112.5C6.23858 112.5 4 110.261 4 107.5C4 104.907 5.97334 102.776 8.50001 102.525L8.5 41.2858C8.5 21.5295 24.7424 5.5 44.805 5.5L147.5 5.49999C147.5 2.73857 149.739 0.499994 152.5 0.499994C155.261 0.499993 157.5 2.73857 157.5 5.49999C157.5 8.26141 155.261 10.5 152.5 10.5C150.081 10.5 148.063 8.78224 147.6 6.5L44.805 6.5C25.2815 6.5 9.5 22.0949 9.5 41.2858L9.50001 102.525C12.0267 102.776 14 104.907 14 107.5C14 110.261 11.7614 112.5 9 112.5ZM152.5 9.49999C150.291 9.49999 148.5 7.70913 148.5 5.49999C148.5 3.29086 150.291 1.49999 152.5 1.49999C154.709 1.49999 156.5 3.29086 156.5 5.49999C156.5 7.70913 154.709 9.49999 152.5 9.49999Z" fill="url(#paint1_linear_1_1700)" fill-opacity="0.2"/>
<path fill-rule="evenodd" clip-rule="evenodd" d="M5 107.5C5 109.709 6.79087 111.5 9 111.5C11.2091 111.5 13 109.709 13 107.5C13 105.291 11.2091 103.5 9 103.5C6.79087 103.5 5 105.291 5 107.5ZM9 112.5C6.23858 112.5 4 110.261 4 107.5C4 104.907 5.97334 102.776 8.50001 102.525L8.5 41.2858C8.5 21.5295 24.7424 5.5 44.805 5.5L147.5 5.49999C147.5 2.73857 149.739 0.499994 152.5 0.499994C155.261 0.499993 157.5 2.73857 157.5 5.49999C157.5 8.26141 155.261 10.5 152.5 10.5C150.081 10.5 148.063 8.78224 147.6 6.5L44.805 6.5C25.2815 6.5 9.5 22.0949 9.5 41.2858L9.50001 102.525C12.0267 102.776 14 104.907 14 107.5C14 110.261 11.7614 112.5 9 112.5ZM152.5 9.49999C150.291 9.49999 148.5 7.70913 148.5 5.49999C148.5 3.29086 150.291 1.49999 152.5 1.49999C154.709 1.49999 156.5 3.29086 156.5 5.49999C156.5 7.70913 154.709 9.49999 152.5 9.49999Z" fill="url(#paint2_radial_1_1700)" fill-opacity="0.4"/>
<path opacity="0.4" fill-rule="evenodd" clip-rule="evenodd" d="M9.5 139.5C9.5 141.709 7.70914 143.5 5.5 143.5C3.29086 143.5 1.5 141.709 1.5 139.5C1.5 137.291 3.29086 135.5 5.5 135.5C7.70914 135.5 9.5 137.291 9.5 139.5ZM9.58859 142.379C10.1628 141.565 10.5 140.572 10.5 139.5C10.5 136.739 8.26142 134.5 5.5 134.5C2.73857 134.5 0.499998 136.739 0.499998 139.5C0.499998 142.261 2.73857 144.5 5.5 144.5C6.82881 144.5 8.03655 143.982 8.93204 143.136L39.0576 173.027L39.0578 173.027C45.8178 179.726 54.9959 183.502 64.5708 183.502L180.23 183.502C189.805 183.502 198.983 179.726 205.743 173.027L215.383 163.474C221.955 156.96 230.88 153.288 240.192 153.288L300.914 153.288C310.489 153.288 319.667 149.512 326.427 142.813C333.188 136.113 336.999 127.015 336.999 117.522L336.999 46.7617C336.999 26.9861 320.825 10.996 300.914 10.996L182.475 10.996C182.222 8.47124 180.091 6.49999 177.5 6.49999C174.739 6.49999 172.5 8.73856 172.5 11.5C172.5 14.2614 174.739 16.5 177.5 16.5C180.094 16.5 182.227 14.5246 182.476 11.996L300.914 11.996C320.281 11.996 335.999 27.5475 335.999 46.7617L335.999 117.522C335.999 126.747 332.295 135.59 325.723 142.103C319.151 148.616 310.227 152.288 300.914 152.288L240.192 152.288C230.617 152.288 221.439 156.064 214.679 162.763L205.039 172.316C198.467 178.83 189.542 182.502 180.23 182.502L64.5708 182.502C55.2586 182.502 46.3338 178.83 39.7617 172.316L9.58859 142.379ZM173.5 11.5C173.5 13.7091 175.291 15.5 177.5 15.5C179.709 15.5 181.5 13.7091 181.5 11.5C181.5 9.29086 179.709 7.49999 177.5 7.49999C175.291 7.49999 173.5 9.29086 173.5 11.5Z" fill="url(#paint3_linear_1_1700)"/>
<path d="M219 174.551L232.276 162.551" stroke="url(#paint4_linear_1_1700)" stroke-miterlimit="10" stroke-linecap="round"/>
<path d="M219 174.551L232.276 162.551" stroke="url(#paint5_linear_1_1700)" stroke-opacity="0.2" stroke-miterlimit="10" stroke-linecap="round"/>
<path d="M219 174.551L232.276 162.551" stroke="url(#paint6_radial_1_1700)" stroke-opacity="0.4" stroke-miterlimit="10" stroke-linecap="round"/>
<path d="M233.668 174.551L246.944 162.551" stroke="url(#paint7_linear_1_1700)" stroke-miterlimit="10" stroke-linecap="round"/>
<path d="M233.668 174.551L246.944 162.551" stroke="url(#paint8_linear_1_1700)" stroke-opacity="0.2" stroke-miterlimit="10" stroke-linecap="round"/>
<path d="M233.668 174.551L246.944 162.551" stroke="url(#paint9_radial_1_1700)" stroke-opacity="0.4" stroke-miterlimit="10" stroke-linecap="round"/>
<path d="M248.355 174.551L261.631 162.551" stroke="url(#paint10_linear_1_1700)" stroke-miterlimit="10" stroke-linecap="round"/>
<path d="M248.355 174.551L261.631 162.551" stroke="url(#paint11_linear_1_1700)" stroke-opacity="0.2" stroke-miterlimit="10" stroke-linecap="round"/>
<path d="M248.355 174.551L261.631 162.551" stroke="url(#paint12_radial_1_1700)" stroke-opacity="0.4" stroke-miterlimit="10" stroke-linecap="round"/>
<path d="M263.023 174.551L276.299 162.551" stroke="url(#paint13_linear_1_1700)" stroke-miterlimit="10" stroke-linecap="round"/>
<path d="M263.023 174.551L276.299 162.551" stroke="url(#paint14_linear_1_1700)" stroke-opacity="0.2" stroke-miterlimit="10" stroke-linecap="round"/>
<path d="M263.023 174.551L276.299 162.551" stroke="url(#paint15_radial_1_1700)" stroke-opacity="0.4" stroke-miterlimit="10" stroke-linecap="round"/>
<path d="M277.703 174.551L290.979 162.551" stroke="url(#paint16_linear_1_1700)" stroke-miterlimit="10" stroke-linecap="round"/>
<path d="M277.703 174.551L290.979 162.551" stroke="url(#paint17_linear_1_1700)" stroke-opacity="0.2" stroke-miterlimit="10" stroke-linecap="round"/>
<path d="M277.703 174.551L290.979 162.551" stroke="url(#paint18_radial_1_1700)" stroke-opacity="0.4" stroke-miterlimit="10" stroke-linecap="round"/>
<path d="M292.371 174.551L305.647 162.551" stroke="url(#paint19_linear_1_1700)" stroke-miterlimit="10" stroke-linecap="round"/>
<path d="M292.371 174.551L305.647 162.551" stroke="url(#paint20_linear_1_1700)" stroke-opacity="0.2" stroke-miterlimit="10" stroke-linecap="round"/>
<path d="M292.371 174.551L305.647 162.551" stroke="url(#paint21_radial_1_1700)" stroke-opacity="0.4" stroke-miterlimit="10" stroke-linecap="round"/>
<path d="M307.047 174.551L320.323 162.551" stroke="url(#paint22_linear_1_1700)" stroke-miterlimit="10" stroke-linecap="round"/>
<path d="M307.047 174.551L320.323 162.551" stroke="url(#paint23_linear_1_1700)" stroke-opacity="0.2" stroke-miterlimit="10" stroke-linecap="round"/>
<path d="M307.047 174.551L320.323 162.551" stroke="url(#paint24_radial_1_1700)" stroke-opacity="0.4" stroke-miterlimit="10" stroke-linecap="round"/>
<path d="M321.727 174.551L335.002 162.551" stroke="url(#paint25_linear_1_1700)" stroke-miterlimit="10" stroke-linecap="round"/>
<path d="M321.727 174.551L335.002 162.551" stroke="url(#paint26_linear_1_1700)" stroke-opacity="0.2" stroke-miterlimit="10" stroke-linecap="round"/>
<path d="M321.727 174.551L335.002 162.551" stroke="url(#paint27_radial_1_1700)" stroke-opacity="0.4" stroke-miterlimit="10" stroke-linecap="round"/>
<defs>
<linearGradient id="paint0_linear_1_1700" x1="4" y1="56.5" x2="157.5" y2="56.5" gradientUnits="userSpaceOnUse">
<stop stop-color="#018197"/>
<stop offset="1" stop-color="#22CF48"/>
</linearGradient>
<linearGradient id="paint1_linear_1_1700" x1="98.273" y1="62.1" x2="60.7929" y2="3.8227" gradientUnits="userSpaceOnUse">
<stop stop-color="#0265A5"/>
<stop offset="1" stop-color="#00FF66"/>
</linearGradient>
<radialGradient id="paint2_radial_1_1700" cx="0" cy="0" r="1" gradientUnits="userSpaceOnUse" gradientTransform="translate(153.2 7.38331) rotate(-167.576) scale(68.459 51.972)">
<stop stop-color="#44D1F0"/>
<stop offset="1" stop-color="#4B84DA" stop-opacity="0.34"/>
</radialGradient>
<linearGradient id="paint3_linear_1_1700" x1="0.499996" y1="95.001" x2="336.999" y2="95.001" gradientUnits="userSpaceOnUse">
<stop stop-color="white" stop-opacity="0.9"/>
<stop offset="1" stop-color="white" stop-opacity="0.34"/>
</linearGradient>
<linearGradient id="paint4_linear_1_1700" x1="219" y1="168.551" x2="232.276" y2="168.551" gradientUnits="userSpaceOnUse">
<stop stop-color="#018197"/>
<stop offset="1" stop-color="#22CF48"/>
</linearGradient>
<linearGradient id="paint5_linear_1_1700" x1="227.153" y1="169.151" x2="222.852" y2="163.752" gradientUnits="userSpaceOnUse">
<stop stop-color="#0265A5"/>
<stop offset="1" stop-color="#00FF66"/>
</linearGradient>
<radialGradient id="paint6_radial_1_1700" cx="0" cy="0" r="1" gradientUnits="userSpaceOnUse" gradientTransform="translate(231.904 163.288) rotate(-164.734) scale(5.99365 5.50077)">
<stop stop-color="#44D1F0"/>
<stop offset="1" stop-color="#4B84DA" stop-opacity="0.34"/>
</radialGradient>
<linearGradient id="paint7_linear_1_1700" x1="233.668" y1="168.551" x2="246.944" y2="168.551" gradientUnits="userSpaceOnUse">
<stop stop-color="#018197"/>
<stop offset="1" stop-color="#22CF48"/>
</linearGradient>
<linearGradient id="paint8_linear_1_1700" x1="241.821" y1="169.151" x2="237.52" y2="163.752" gradientUnits="userSpaceOnUse">
<stop stop-color="#0265A5"/>
<stop offset="1" stop-color="#00FF66"/>
</linearGradient>
<radialGradient id="paint9_radial_1_1700" cx="0" cy="0" r="1" gradientUnits="userSpaceOnUse" gradientTransform="translate(246.572 163.288) rotate(-164.734) scale(5.99363 5.50076)">
<stop stop-color="#44D1F0"/>
<stop offset="1" stop-color="#4B84DA" stop-opacity="0.34"/>
</radialGradient>
<linearGradient id="paint10_linear_1_1700" x1="248.355" y1="168.551" x2="261.631" y2="168.551" gradientUnits="userSpaceOnUse">
<stop stop-color="#018197"/>
<stop offset="1" stop-color="#22CF48"/>
</linearGradient>
<linearGradient id="paint11_linear_1_1700" x1="256.509" y1="169.151" x2="252.207" y2="163.752" gradientUnits="userSpaceOnUse">
<stop stop-color="#0265A5"/>
<stop offset="1" stop-color="#00FF66"/>
</linearGradient>
<radialGradient id="paint12_radial_1_1700" cx="0" cy="0" r="1" gradientUnits="userSpaceOnUse" gradientTransform="translate(261.259 163.288) rotate(-164.734) scale(5.99363 5.50076)">
<stop stop-color="#44D1F0"/>
<stop offset="1" stop-color="#4B84DA" stop-opacity="0.34"/>
</radialGradient>
<linearGradient id="paint13_linear_1_1700" x1="263.023" y1="168.551" x2="276.299" y2="168.551" gradientUnits="userSpaceOnUse">
<stop stop-color="#018197"/>
<stop offset="1" stop-color="#22CF48"/>
</linearGradient>
<linearGradient id="paint14_linear_1_1700" x1="271.177" y1="169.151" x2="266.875" y2="163.752" gradientUnits="userSpaceOnUse">
<stop stop-color="#0265A5"/>
<stop offset="1" stop-color="#00FF66"/>
</linearGradient>
<radialGradient id="paint15_radial_1_1700" cx="0" cy="0" r="1" gradientUnits="userSpaceOnUse" gradientTransform="translate(275.927 163.288) rotate(-164.734) scale(5.99363 5.50076)">
<stop stop-color="#44D1F0"/>
<stop offset="1" stop-color="#4B84DA" stop-opacity="0.34"/>
</radialGradient>
<linearGradient id="paint16_linear_1_1700" x1="277.703" y1="168.551" x2="290.979" y2="168.551" gradientUnits="userSpaceOnUse">
<stop stop-color="#018197"/>
<stop offset="1" stop-color="#22CF48"/>
</linearGradient>
<linearGradient id="paint17_linear_1_1700" x1="285.857" y1="169.151" x2="281.555" y2="163.752" gradientUnits="userSpaceOnUse">
<stop stop-color="#0265A5"/>
<stop offset="1" stop-color="#00FF66"/>
</linearGradient>
<radialGradient id="paint18_radial_1_1700" cx="0" cy="0" r="1" gradientUnits="userSpaceOnUse" gradientTransform="translate(290.607 163.288) rotate(-164.734) scale(5.99363 5.50076)">
<stop stop-color="#44D1F0"/>
<stop offset="1" stop-color="#4B84DA" stop-opacity="0.34"/>
</radialGradient>
<linearGradient id="paint19_linear_1_1700" x1="292.371" y1="168.551" x2="305.647" y2="168.551" gradientUnits="userSpaceOnUse">
<stop stop-color="#018197"/>
<stop offset="1" stop-color="#22CF48"/>
</linearGradient>
<linearGradient id="paint20_linear_1_1700" x1="300.524" y1="169.151" x2="296.223" y2="163.752" gradientUnits="userSpaceOnUse">
<stop stop-color="#0265A5"/>
<stop offset="1" stop-color="#00FF66"/>
</linearGradient>
<radialGradient id="paint21_radial_1_1700" cx="0" cy="0" r="1" gradientUnits="userSpaceOnUse" gradientTransform="translate(305.275 163.288) rotate(-164.734) scale(5.99365 5.50077)">
<stop stop-color="#44D1F0"/>
<stop offset="1" stop-color="#4B84DA" stop-opacity="0.34"/>
</radialGradient>
<linearGradient id="paint22_linear_1_1700" x1="307.047" y1="168.551" x2="320.323" y2="168.551" gradientUnits="userSpaceOnUse">
<stop stop-color="#018197"/>
<stop offset="1" stop-color="#22CF48"/>
</linearGradient>
<linearGradient id="paint23_linear_1_1700" x1="315.2" y1="169.151" x2="310.898" y2="163.752" gradientUnits="userSpaceOnUse">
<stop stop-color="#0265A5"/>
<stop offset="1" stop-color="#00FF66"/>
</linearGradient>
<radialGradient id="paint24_radial_1_1700" cx="0" cy="0" r="1" gradientUnits="userSpaceOnUse" gradientTransform="translate(319.951 163.288) rotate(-164.734) scale(5.99365 5.50077)">
<stop stop-color="#44D1F0"/>
<stop offset="1" stop-color="#4B84DA" stop-opacity="0.34"/>
</radialGradient>
<linearGradient id="paint25_linear_1_1700" x1="321.727" y1="168.551" x2="335.002" y2="168.551" gradientUnits="userSpaceOnUse">
<stop stop-color="#018197"/>
<stop offset="1" stop-color="#22CF48"/>
</linearGradient>
<linearGradient id="paint26_linear_1_1700" x1="329.88" y1="169.151" x2="325.578" y2="163.752" gradientUnits="userSpaceOnUse">
<stop stop-color="#0265A5"/>
<stop offset="1" stop-color="#00FF66"/>
</linearGradient>
<radialGradient id="paint27_radial_1_1700" cx="0" cy="0" r="1" gradientUnits="userSpaceOnUse" gradientTransform="translate(334.63 163.288) rotate(-164.734) scale(5.99362 5.50076)">
<stop stop-color="#44D1F0"/>
<stop offset="1" stop-color="#4B84DA" stop-opacity="0.34"/>
</radialGradient>
</defs>
</svg>
