<svg width="700" height="190" viewBox="0 0 700 190" fill="none" xmlns="http://www.w3.org/2000/svg">
<path d="M543.5 188L561.125 172" stroke="url(#paint0_linear_1_434)" stroke-miterlimit="10" stroke-linecap="round"/>
<path d="M543.5 188L561.125 172" stroke="url(#paint1_linear_1_434)" stroke-opacity="0.2" stroke-miterlimit="10" stroke-linecap="round"/>
<path d="M543.5 188L561.125 172" stroke="url(#paint2_radial_1_434)" stroke-opacity="0.4" stroke-miterlimit="10" stroke-linecap="round"/>
<path d="M562.977 188L580.601 172" stroke="url(#paint3_linear_1_434)" stroke-miterlimit="10" stroke-linecap="round"/>
<path d="M562.977 188L580.601 172" stroke="url(#paint4_linear_1_434)" stroke-opacity="0.2" stroke-miterlimit="10" stroke-linecap="round"/>
<path d="M562.977 188L580.601 172" stroke="url(#paint5_radial_1_434)" stroke-opacity="0.4" stroke-miterlimit="10" stroke-linecap="round"/>
<path d="M582.469 188L600.093 172" stroke="url(#paint6_linear_1_434)" stroke-miterlimit="10" stroke-linecap="round"/>
<path d="M582.469 188L600.093 172" stroke="url(#paint7_linear_1_434)" stroke-opacity="0.2" stroke-miterlimit="10" stroke-linecap="round"/>
<path d="M582.469 188L600.093 172" stroke="url(#paint8_radial_1_434)" stroke-opacity="0.4" stroke-miterlimit="10" stroke-linecap="round"/>
<path d="M601.945 188L619.57 172" stroke="url(#paint9_linear_1_434)" stroke-miterlimit="10" stroke-linecap="round"/>
<path d="M601.945 188L619.57 172" stroke="url(#paint10_linear_1_434)" stroke-opacity="0.2" stroke-miterlimit="10" stroke-linecap="round"/>
<path d="M601.945 188L619.57 172" stroke="url(#paint11_radial_1_434)" stroke-opacity="0.4" stroke-miterlimit="10" stroke-linecap="round"/>
<path d="M621.43 188L639.054 172" stroke="url(#paint12_linear_1_434)" stroke-miterlimit="10" stroke-linecap="round"/>
<path d="M621.43 188L639.054 172" stroke="url(#paint13_linear_1_434)" stroke-opacity="0.2" stroke-miterlimit="10" stroke-linecap="round"/>
<path d="M621.43 188L639.054 172" stroke="url(#paint14_radial_1_434)" stroke-opacity="0.4" stroke-miterlimit="10" stroke-linecap="round"/>
<path d="M640.906 188L658.531 172" stroke="url(#paint15_linear_1_434)" stroke-miterlimit="10" stroke-linecap="round"/>
<path d="M640.906 188L658.531 172" stroke="url(#paint16_linear_1_434)" stroke-opacity="0.2" stroke-miterlimit="10" stroke-linecap="round"/>
<path d="M640.906 188L658.531 172" stroke="url(#paint17_radial_1_434)" stroke-opacity="0.4" stroke-miterlimit="10" stroke-linecap="round"/>
<path d="M660.391 188L678.015 172" stroke="url(#paint18_linear_1_434)" stroke-miterlimit="10" stroke-linecap="round"/>
<path d="M660.391 188L678.015 172" stroke="url(#paint19_linear_1_434)" stroke-opacity="0.2" stroke-miterlimit="10" stroke-linecap="round"/>
<path d="M660.391 188L678.015 172" stroke="url(#paint20_radial_1_434)" stroke-opacity="0.4" stroke-miterlimit="10" stroke-linecap="round"/>
<path d="M679.875 188L697.5 172" stroke="url(#paint21_linear_1_434)" stroke-miterlimit="10" stroke-linecap="round"/>
<path d="M679.875 188L697.5 172" stroke="url(#paint22_linear_1_434)" stroke-opacity="0.2" stroke-miterlimit="10" stroke-linecap="round"/>
<path d="M679.875 188L697.5 172" stroke="url(#paint23_radial_1_434)" stroke-opacity="0.4" stroke-miterlimit="10" stroke-linecap="round"/>
<path fill-rule="evenodd" clip-rule="evenodd" d="M6 110.5C6 113.814 8.6863 116.5 12 116.5C15.3137 116.5 18 113.814 18 110.5C18 107.186 15.3137 104.5 12 104.5C8.6863 104.5 6 107.186 6 110.5ZM12 117.5C8.13401 117.5 5 114.366 5 110.5C5 106.858 7.7814 103.866 11.3359 103.531L11.3359 42.6422C11.3359 22.8446 27.4759 6.77429 47.4209 6.77429L413.037 6.77429C413.4 3.24929 416.379 0.499982 420 0.499982C423.866 0.499982 427 3.63399 427 7.49998C427 11.366 423.866 14.5 420 14.5C416.226 14.5 413.149 11.5131 413.005 7.77429L47.4209 7.77429C28.0231 7.77429 12.3359 23.402 12.3359 42.6422L12.3359 103.508C16.0459 103.683 19 106.747 19 110.5C19 114.366 15.866 117.5 12 117.5ZM414 7.49998C414 10.8137 416.686 13.5 420 13.5C423.314 13.5 426 10.8137 426 7.49998C426 4.18628 423.314 1.49998 420 1.49998C416.686 1.49998 414 4.18628 414 7.49998Z" fill="url(#paint24_linear_1_434)"/>
<path fill-rule="evenodd" clip-rule="evenodd" d="M6 110.5C6 113.814 8.6863 116.5 12 116.5C15.3137 116.5 18 113.814 18 110.5C18 107.186 15.3137 104.5 12 104.5C8.6863 104.5 6 107.186 6 110.5ZM12 117.5C8.13401 117.5 5 114.366 5 110.5C5 106.858 7.7814 103.866 11.3359 103.531L11.3359 42.6422C11.3359 22.8446 27.4759 6.77429 47.4209 6.77429L413.037 6.77429C413.4 3.24929 416.379 0.499982 420 0.499982C423.866 0.499982 427 3.63399 427 7.49998C427 11.366 423.866 14.5 420 14.5C416.226 14.5 413.149 11.5131 413.005 7.77429L47.4209 7.77429C28.0231 7.77429 12.3359 23.402 12.3359 42.6422L12.3359 103.508C16.0459 103.683 19 106.747 19 110.5C19 114.366 15.866 117.5 12 117.5ZM414 7.49998C414 10.8137 416.686 13.5 420 13.5C423.314 13.5 426 10.8137 426 7.49998C426 4.18628 423.314 1.49998 420 1.49998C416.686 1.49998 414 4.18628 414 7.49998Z" fill="url(#paint25_linear_1_434)" fill-opacity="0.2"/>
<path fill-rule="evenodd" clip-rule="evenodd" d="M6 110.5C6 113.814 8.6863 116.5 12 116.5C15.3137 116.5 18 113.814 18 110.5C18 107.186 15.3137 104.5 12 104.5C8.6863 104.5 6 107.186 6 110.5ZM12 117.5C8.13401 117.5 5 114.366 5 110.5C5 106.858 7.7814 103.866 11.3359 103.531L11.3359 42.6422C11.3359 22.8446 27.4759 6.77429 47.4209 6.77429L413.037 6.77429C413.4 3.24929 416.379 0.499982 420 0.499982C423.866 0.499982 427 3.63399 427 7.49998C427 11.366 423.866 14.5 420 14.5C416.226 14.5 413.149 11.5131 413.005 7.77429L47.4209 7.77429C28.0231 7.77429 12.3359 23.402 12.3359 42.6422L12.3359 103.508C16.0459 103.683 19 106.747 19 110.5C19 114.366 15.866 117.5 12 117.5ZM414 7.49998C414 10.8137 416.686 13.5 420 13.5C423.314 13.5 426 10.8137 426 7.49998C426 4.18628 423.314 1.49998 420 1.49998C416.686 1.49998 414 4.18628 414 7.49998Z" fill="url(#paint26_radial_1_434)" fill-opacity="0.4"/>
<path opacity="0.4" fill-rule="evenodd" clip-rule="evenodd" d="M13 143.5C13 146.814 10.3137 149.5 7 149.5C3.68629 149.5 0.999998 146.814 0.999998 143.5C0.999998 140.186 3.68629 137.5 7 137.5C10.3137 137.5 13 140.186 13 143.5ZM12.0553 148.342C13.2599 147.085 14 145.379 14 143.5C14 139.634 10.866 136.5 7 136.5C3.134 136.5 -2.33353e-06 139.634 -1.99418e-06 143.5C-1.65482e-06 147.366 3.13401 150.5 7 150.5C8.62693 150.5 10.1242 149.945 11.3129 149.014L41.0576 178.527L41.0578 178.527C47.8178 185.226 56.9959 189.002 66.5708 189.002L503.23 189.002C512.805 189.002 521.983 185.226 528.743 178.527L538.383 168.974C544.955 162.46 553.88 158.788 563.192 158.788L663.914 158.788C673.489 158.788 682.667 155.012 689.427 148.313C696.188 141.613 699.999 132.515 699.999 123.022L699.999 48.2617C699.999 28.4861 683.825 12.496 663.914 12.496L513 12.496C512.998 8.63181 509.865 5.49999 506 5.49999C502.134 5.49999 499 8.634 499 12.5C499 16.366 502.134 19.5 506 19.5C509.528 19.5 512.446 16.8902 512.93 13.496L663.914 13.496C683.281 13.496 698.999 29.0475 698.999 48.2617L698.999 123.022C698.999 132.247 695.295 141.09 688.724 147.603C682.151 154.116 673.227 157.788 663.914 157.788L563.192 157.788C553.617 157.788 544.439 161.564 537.679 168.263L528.039 177.816C521.467 184.33 512.542 188.002 503.23 188.002L66.5708 188.002C57.2586 188.002 48.3338 184.33 41.7617 177.816L12.0553 148.342ZM512 12.496L512 12.5C512 15.8137 509.314 18.5 506 18.5C502.686 18.5 500 15.8137 500 12.5C500 9.18629 502.686 6.49999 506 6.49999C509.312 6.49999 511.998 9.18411 512 12.496Z" fill="url(#paint27_linear_1_434)"/>
<defs>
<linearGradient id="paint0_linear_1_434" x1="543.5" y1="180" x2="561.125" y2="180" gradientUnits="userSpaceOnUse">
<stop stop-color="#018197"/>
<stop offset="1" stop-color="#22CF48"/>
</linearGradient>
<linearGradient id="paint1_linear_1_434" x1="554.324" y1="180.8" x2="548.583" y2="173.625" gradientUnits="userSpaceOnUse">
<stop stop-color="#0265A5"/>
<stop offset="1" stop-color="#00FF66"/>
</linearGradient>
<radialGradient id="paint2_radial_1_434" cx="0" cy="0" r="1" gradientUnits="userSpaceOnUse" gradientTransform="translate(560.631 172.983) rotate(-164.671) scale(7.95945 7.3321)">
<stop stop-color="#44D1F0"/>
<stop offset="1" stop-color="#4B84DA" stop-opacity="0.34"/>
</radialGradient>
<linearGradient id="paint3_linear_1_434" x1="562.977" y1="180" x2="580.601" y2="180" gradientUnits="userSpaceOnUse">
<stop stop-color="#018197"/>
<stop offset="1" stop-color="#22CF48"/>
</linearGradient>
<linearGradient id="paint4_linear_1_434" x1="573.801" y1="180.8" x2="568.06" y2="173.625" gradientUnits="userSpaceOnUse">
<stop stop-color="#0265A5"/>
<stop offset="1" stop-color="#00FF66"/>
</linearGradient>
<radialGradient id="paint5_radial_1_434" cx="0" cy="0" r="1" gradientUnits="userSpaceOnUse" gradientTransform="translate(580.107 172.983) rotate(-164.671) scale(7.95943 7.3321)">
<stop stop-color="#44D1F0"/>
<stop offset="1" stop-color="#4B84DA" stop-opacity="0.34"/>
</radialGradient>
<linearGradient id="paint6_linear_1_434" x1="582.469" y1="180" x2="600.093" y2="180" gradientUnits="userSpaceOnUse">
<stop stop-color="#018197"/>
<stop offset="1" stop-color="#22CF48"/>
</linearGradient>
<linearGradient id="paint7_linear_1_434" x1="593.293" y1="180.8" x2="587.552" y2="173.625" gradientUnits="userSpaceOnUse">
<stop stop-color="#0265A5"/>
<stop offset="1" stop-color="#00FF66"/>
</linearGradient>
<radialGradient id="paint8_radial_1_434" cx="0" cy="0" r="1" gradientUnits="userSpaceOnUse" gradientTransform="translate(599.6 172.983) rotate(-164.671) scale(7.95943 7.3321)">
<stop stop-color="#44D1F0"/>
<stop offset="1" stop-color="#4B84DA" stop-opacity="0.34"/>
</radialGradient>
<linearGradient id="paint9_linear_1_434" x1="601.945" y1="180" x2="619.57" y2="180" gradientUnits="userSpaceOnUse">
<stop stop-color="#018197"/>
<stop offset="1" stop-color="#22CF48"/>
</linearGradient>
<linearGradient id="paint10_linear_1_434" x1="612.77" y1="180.8" x2="607.028" y2="173.625" gradientUnits="userSpaceOnUse">
<stop stop-color="#0265A5"/>
<stop offset="1" stop-color="#00FF66"/>
</linearGradient>
<radialGradient id="paint11_radial_1_434" cx="0" cy="0" r="1" gradientUnits="userSpaceOnUse" gradientTransform="translate(619.076 172.983) rotate(-164.671) scale(7.95943 7.3321)">
<stop stop-color="#44D1F0"/>
<stop offset="1" stop-color="#4B84DA" stop-opacity="0.34"/>
</radialGradient>
<linearGradient id="paint12_linear_1_434" x1="621.43" y1="180" x2="639.054" y2="180" gradientUnits="userSpaceOnUse">
<stop stop-color="#018197"/>
<stop offset="1" stop-color="#22CF48"/>
</linearGradient>
<linearGradient id="paint13_linear_1_434" x1="632.254" y1="180.8" x2="626.513" y2="173.625" gradientUnits="userSpaceOnUse">
<stop stop-color="#0265A5"/>
<stop offset="1" stop-color="#00FF66"/>
</linearGradient>
<radialGradient id="paint14_radial_1_434" cx="0" cy="0" r="1" gradientUnits="userSpaceOnUse" gradientTransform="translate(638.561 172.983) rotate(-164.671) scale(7.95943 7.3321)">
<stop stop-color="#44D1F0"/>
<stop offset="1" stop-color="#4B84DA" stop-opacity="0.34"/>
</radialGradient>
<linearGradient id="paint15_linear_1_434" x1="640.906" y1="180" x2="658.531" y2="180" gradientUnits="userSpaceOnUse">
<stop stop-color="#018197"/>
<stop offset="1" stop-color="#22CF48"/>
</linearGradient>
<linearGradient id="paint16_linear_1_434" x1="651.731" y1="180.8" x2="645.989" y2="173.625" gradientUnits="userSpaceOnUse">
<stop stop-color="#0265A5"/>
<stop offset="1" stop-color="#00FF66"/>
</linearGradient>
<radialGradient id="paint17_radial_1_434" cx="0" cy="0" r="1" gradientUnits="userSpaceOnUse" gradientTransform="translate(658.037 172.983) rotate(-164.671) scale(7.95945 7.3321)">
<stop stop-color="#44D1F0"/>
<stop offset="1" stop-color="#4B84DA" stop-opacity="0.34"/>
</radialGradient>
<linearGradient id="paint18_linear_1_434" x1="660.391" y1="180" x2="678.015" y2="180" gradientUnits="userSpaceOnUse">
<stop stop-color="#018197"/>
<stop offset="1" stop-color="#22CF48"/>
</linearGradient>
<linearGradient id="paint19_linear_1_434" x1="671.215" y1="180.8" x2="665.474" y2="173.625" gradientUnits="userSpaceOnUse">
<stop stop-color="#0265A5"/>
<stop offset="1" stop-color="#00FF66"/>
</linearGradient>
<radialGradient id="paint20_radial_1_434" cx="0" cy="0" r="1" gradientUnits="userSpaceOnUse" gradientTransform="translate(677.522 172.983) rotate(-164.671) scale(7.95945 7.3321)">
<stop stop-color="#44D1F0"/>
<stop offset="1" stop-color="#4B84DA" stop-opacity="0.34"/>
</radialGradient>
<linearGradient id="paint21_linear_1_434" x1="679.875" y1="180" x2="697.5" y2="180" gradientUnits="userSpaceOnUse">
<stop stop-color="#018197"/>
<stop offset="1" stop-color="#22CF48"/>
</linearGradient>
<linearGradient id="paint22_linear_1_434" x1="690.699" y1="180.8" x2="684.958" y2="173.625" gradientUnits="userSpaceOnUse">
<stop stop-color="#0265A5"/>
<stop offset="1" stop-color="#00FF66"/>
</linearGradient>
<radialGradient id="paint23_radial_1_434" cx="0" cy="0" r="1" gradientUnits="userSpaceOnUse" gradientTransform="translate(697.006 172.983) rotate(-164.671) scale(7.95942 7.3321)">
<stop stop-color="#44D1F0"/>
<stop offset="1" stop-color="#4B84DA" stop-opacity="0.34"/>
</radialGradient>
<linearGradient id="paint24_linear_1_434" x1="5" y1="59" x2="427" y2="59" gradientUnits="userSpaceOnUse">
<stop stop-color="#018197"/>
<stop offset="1" stop-color="#22CF48"/>
</linearGradient>
<linearGradient id="paint25_linear_1_434" x1="264.174" y1="64.85" x2="244.328" y2="-16.3599" gradientUnits="userSpaceOnUse">
<stop stop-color="#0265A5"/>
<stop offset="1" stop-color="#00FF66"/>
</linearGradient>
<radialGradient id="paint26_radial_1_434" cx="0" cy="0" r="1" gradientUnits="userSpaceOnUse" gradientTransform="translate(415.179 7.69058) rotate(-175.215) scale(184.442 55.4004)">
<stop stop-color="#44D1F0"/>
<stop offset="1" stop-color="#4B84DA" stop-opacity="0.34"/>
</radialGradient>
<linearGradient id="paint27_linear_1_434" x1="-4.02109e-06" y1="97.251" x2="699.999" y2="97.251" gradientUnits="userSpaceOnUse">
<stop stop-color="white" stop-opacity="0.9"/>
<stop offset="1" stop-color="white" stop-opacity="0.34"/>
</linearGradient>
</defs>
</svg>
