								<svg width="308" height="146" viewBox="0 0 308 146" fill="none" xmlns="http://www.w3.org/2000/svg">
									<mask id="mask0_2775_5607" style="mask-type:alpha" maskUnits="userSpaceOnUse" x="0" y="0" width="308" height="146">
										<rect x="0.25" y="0.25" width="307.5" height="145.5" rx="15.75" fill="url(#paint0_linear_2775_5607)" stroke="url(#paint1_linear_2775_5607)" stroke-width="0.5" />
									</mask>
									<g mask="url(#mask0_2775_5607)">
										<rect x="6.5" y="6" width="1.5" height="1.5" fill="#191E30" />
										<rect x="16" y="6" width="1.5" height="1.5" fill="#191E30" />
										<rect x="25.5" y="6" width="1.5" height="1.5" fill="#191E30" />
										<rect x="35" y="6" width="1.5" height="1.5" fill="#191E30" />
										<rect x="44.5" y="6" width="1.5" height="1.5" fill="#191E30" />
										<rect x="54" y="6" width="1.5" height="1.5" fill="#191E30" />
										<rect x="63.5" y="6" width="1.5" height="1.5" fill="#191E30" />
										<rect x="73" y="6" width="1.5" height="1.5" fill="#191E30" />
										<rect x="82.5" y="6" width="1.5" height="1.5" fill="#191E30" />
										<rect x="92" y="6" width="1.5" height="1.5" fill="#191E30" />
										<rect x="101.5" y="6" width="1.5" height="1.5" fill="#191E30" />
										<rect x="111" y="6" width="1.5" height="1.5" fill="#191E30" />
										<rect x="120.5" y="6" width="1.5" height="1.5" fill="#191E30" />
										<rect x="130" y="6" width="1.5" height="1.5" fill="#191E30" />
										<rect x="139.5" y="6" width="1.5" height="1.5" fill="#191E30" />
										<rect x="149" y="6" width="1.5" height="1.5" fill="#191E30" />
										<rect x="158.5" y="6" width="1.5" height="1.5" fill="#191E30" />
										<rect x="168" y="6" width="1.5" height="1.5" fill="#191E30" />
										<rect x="177.5" y="6" width="1.5" height="1.5" fill="#191E30" />
										<rect x="187" y="6" width="1.5" height="1.5" fill="#191E30" />
										<rect x="196.5" y="6" width="1.5" height="1.5" fill="#191E30" />
										<rect x="206" y="6" width="1.5" height="1.5" fill="#191E30" />
										<rect x="215.5" y="6" width="1.5" height="1.5" fill="#191E30" />
										<rect x="225" y="6" width="1.5" height="1.5" fill="#191E30" />
										<rect x="234.5" y="6" width="1.5" height="1.5" fill="#191E30" />
										<rect x="244" y="6" width="1.5" height="1.5" fill="#191E30" />
										<rect x="253.5" y="6" width="1.5" height="1.5" fill="#191E30" />
										<rect x="263" y="6" width="1.5" height="1.5" fill="#191E30" />
										<rect x="272.5" y="6" width="1.5" height="1.5" fill="#191E30" />
										<rect x="282" y="6" width="1.5" height="1.5" fill="#191E30" />
										<rect x="291.5" y="6" width="1.5" height="1.5" fill="#191E30" />
										<rect x="301" y="6" width="1.5" height="1.5" fill="#191E30" />
										<rect x="6.5" y="15.5" width="1.5" height="1.5" fill="#191E30" />
										<rect x="16" y="15.5" width="1.5" height="1.5" fill="#191E30" />
										<rect x="25.5" y="15.5" width="1.5" height="1.5" fill="#191E30" />
										<rect x="35" y="15.5" width="1.5" height="1.5" fill="#191E30" />
										<rect x="44.5" y="15.5" width="1.5" height="1.5" fill="#191E30" />
										<rect x="54" y="15.5" width="1.5" height="1.5" fill="#191E30" />
										<rect x="63.5" y="15.5" width="1.5" height="1.5" fill="#191E30" />
										<rect x="73" y="15.5" width="1.5" height="1.5" fill="#191E30" />
										<rect x="82.5" y="15.5" width="1.5" height="1.5" fill="#191E30" />
										<rect x="92" y="15.5" width="1.5" height="1.5" fill="#191E30" />
										<rect x="101.5" y="15.5" width="1.5" height="1.5" fill="#191E30" />
										<rect x="111" y="15.5" width="1.5" height="1.5" fill="#191E30" />
										<rect x="120.5" y="15.5" width="1.5" height="1.5" fill="#191E30" />
										<rect x="130" y="15.5" width="1.5" height="1.5" fill="#191E30" />
										<rect x="139.5" y="15.5" width="1.5" height="1.5" fill="#191E30" />
										<rect x="149" y="15.5" width="1.5" height="1.5" fill="#191E30" />
										<rect x="158.5" y="15.5" width="1.5" height="1.5" fill="#191E30" />
										<rect x="168" y="15.5" width="1.5" height="1.5" fill="#191E30" />
										<rect x="177.5" y="15.5" width="1.5" height="1.5" fill="#191E30" />
										<rect x="187" y="15.5" width="1.5" height="1.5" fill="#191E30" />
										<rect x="196.5" y="15.5" width="1.5" height="1.5" fill="#191E30" />
										<rect x="206" y="15.5" width="1.5" height="1.5" fill="#191E30" />
										<rect x="215.5" y="15.5" width="1.5" height="1.5" fill="#191E30" />
										<rect x="225" y="15.5" width="1.5" height="1.5" fill="#191E30" />
										<rect x="234.5" y="15.5" width="1.5" height="1.5" fill="#191E30" />
										<rect x="244" y="15.5" width="1.5" height="1.5" fill="#191E30" />
										<rect x="253.5" y="15.5" width="1.5" height="1.5" fill="#191E30" />
										<rect x="263" y="15.5" width="1.5" height="1.5" fill="#191E30" />
										<rect x="272.5" y="15.5" width="1.5" height="1.5" fill="#191E30" />
										<rect x="282" y="15.5" width="1.5" height="1.5" fill="#191E30" />
										<rect x="291.5" y="15.5" width="1.5" height="1.5" fill="#191E30" />
										<rect x="301" y="15.5" width="1.5" height="1.5" fill="#191E30" />
										<rect x="6.5" y="25" width="1.5" height="1.5" fill="#191E30" />
										<rect x="16" y="25" width="1.5" height="1.5" fill="#191E30" />
										<rect x="25.5" y="25" width="1.5" height="1.5" fill="#191E30" />
										<rect x="35" y="25" width="1.5" height="1.5" fill="#191E30" />
										<rect x="44.5" y="25" width="1.5" height="1.5" fill="#191E30" />
										<rect x="54" y="25" width="1.5" height="1.5" fill="#191E30" />
										<rect x="63.5" y="25" width="1.5" height="1.5" fill="#191E30" />
										<rect x="73" y="25" width="1.5" height="1.5" fill="#191E30" />
										<rect x="82.5" y="25" width="1.5" height="1.5" fill="#191E30" />
										<rect x="92" y="25" width="1.5" height="1.5" fill="#191E30" />
										<rect x="101.5" y="25" width="1.5" height="1.5" fill="#191E30" />
										<rect x="111" y="25" width="1.5" height="1.5" fill="#191E30" />
										<rect x="120.5" y="25" width="1.5" height="1.5" fill="#191E30" />
										<rect x="130" y="25" width="1.5" height="1.5" fill="#191E30" />
										<rect x="139.5" y="25" width="1.5" height="1.5" fill="#191E30" />
										<rect x="149" y="25" width="1.5" height="1.5" fill="#191E30" />
										<rect x="158.5" y="25" width="1.5" height="1.5" fill="#191E30" />
										<rect x="168" y="25" width="1.5" height="1.5" fill="#191E30" />
										<rect x="177.5" y="25" width="1.5" height="1.5" fill="#191E30" />
										<rect x="187" y="25" width="1.5" height="1.5" fill="#191E30" />
										<rect x="196.5" y="25" width="1.5" height="1.5" fill="#191E30" />
										<rect x="206" y="25" width="1.5" height="1.5" fill="#191E30" />
										<rect x="215.5" y="25" width="1.5" height="1.5" fill="#191E30" />
										<rect x="225" y="25" width="1.5" height="1.5" fill="#191E30" />
										<rect x="234.5" y="25" width="1.5" height="1.5" fill="#191E30" />
										<rect x="244" y="25" width="1.5" height="1.5" fill="#191E30" />
										<rect x="253.5" y="25" width="1.5" height="1.5" fill="#191E30" />
										<rect x="263" y="25" width="1.5" height="1.5" fill="#191E30" />
										<rect x="272.5" y="25" width="1.5" height="1.5" fill="#191E30" />
										<rect x="282" y="25" width="1.5" height="1.5" fill="#191E30" />
										<rect x="291.5" y="25" width="1.5" height="1.5" fill="#191E30" />
										<rect x="301" y="25" width="1.5" height="1.5" fill="#191E30" />
										<rect x="6.5" y="34.5" width="1.5" height="1.5" fill="#191E30" />
										<rect x="16" y="34.5" width="1.5" height="1.5" fill="#191E30" />
										<rect x="25.5" y="34.5" width="1.5" height="1.5" fill="#191E30" />
										<rect x="35" y="34.5" width="1.5" height="1.5" fill="#191E30" />
										<rect x="44.5" y="34.5" width="1.5" height="1.5" fill="#191E30" />
										<rect x="54" y="34.5" width="1.5" height="1.5" fill="#191E30" />
										<rect x="63.5" y="34.5" width="1.5" height="1.5" fill="#191E30" />
										<rect x="73" y="34.5" width="1.5" height="1.5" fill="#191E30" />
										<rect x="82.5" y="34.5" width="1.5" height="1.5" fill="#191E30" />
										<rect x="92" y="34.5" width="1.5" height="1.5" fill="#191E30" />
										<rect x="101.5" y="34.5" width="1.5" height="1.5" fill="#191E30" />
										<rect x="111" y="34.5" width="1.5" height="1.5" fill="#191E30" />
										<rect x="120.5" y="34.5" width="1.5" height="1.5" fill="#191E30" />
										<rect x="130" y="34.5" width="1.5" height="1.5" fill="#191E30" />
										<rect x="139.5" y="34.5" width="1.5" height="1.5" fill="#191E30" />
										<rect x="149" y="34.5" width="1.5" height="1.5" fill="#191E30" />
										<rect x="158.5" y="34.5" width="1.5" height="1.5" fill="#191E30" />
										<rect x="168" y="34.5" width="1.5" height="1.5" fill="#191E30" />
										<rect x="177.5" y="34.5" width="1.5" height="1.5" fill="#191E30" />
										<rect x="187" y="34.5" width="1.5" height="1.5" fill="#191E30" />
										<rect x="196.5" y="34.5" width="1.5" height="1.5" fill="#191E30" />
										<rect x="206" y="34.5" width="1.5" height="1.5" fill="#191E30" />
										<rect x="215.5" y="34.5" width="1.5" height="1.5" fill="#191E30" />
										<rect x="225" y="34.5" width="1.5" height="1.5" fill="#191E30" />
										<rect x="234.5" y="34.5" width="1.5" height="1.5" fill="#191E30" />
										<rect x="244" y="34.5" width="1.5" height="1.5" fill="#191E30" />
										<rect x="253.5" y="34.5" width="1.5" height="1.5" fill="#191E30" />
										<rect x="263" y="34.5" width="1.5" height="1.5" fill="#191E30" />
										<rect x="272.5" y="34.5" width="1.5" height="1.5" fill="#191E30" />
										<rect x="282" y="34.5" width="1.5" height="1.5" fill="#191E30" />
										<rect x="291.5" y="34.5" width="1.5" height="1.5" fill="#191E30" />
										<rect x="301" y="34.5" width="1.5" height="1.5" fill="#191E30" />
										<rect x="6.5" y="44" width="1.5" height="1.5" fill="#191E30" />
										<rect x="16" y="44" width="1.5" height="1.5" fill="#191E30" />
										<rect x="25.5" y="44" width="1.5" height="1.5" fill="#191E30" />
										<rect x="35" y="44" width="1.5" height="1.5" fill="#191E30" />
										<rect x="44.5" y="44" width="1.5" height="1.5" fill="#191E30" />
										<rect x="54" y="44" width="1.5" height="1.5" fill="#191E30" />
										<rect x="63.5" y="44" width="1.5" height="1.5" fill="#191E30" />
										<rect x="73" y="44" width="1.5" height="1.5" fill="#191E30" />
										<rect x="82.5" y="44" width="1.5" height="1.5" fill="#191E30" />
										<rect x="92" y="44" width="1.5" height="1.5" fill="#191E30" />
										<rect x="101.5" y="44" width="1.5" height="1.5" fill="#191E30" />
										<rect x="111" y="44" width="1.5" height="1.5" fill="#191E30" />
										<rect x="120.5" y="44" width="1.5" height="1.5" fill="#191E30" />
										<rect x="130" y="44" width="1.5" height="1.5" fill="#191E30" />
										<rect x="139.5" y="44" width="1.5" height="1.5" fill="#191E30" />
										<rect x="149" y="44" width="1.5" height="1.5" fill="#191E30" />
										<rect x="158.5" y="44" width="1.5" height="1.5" fill="#191E30" />
										<rect x="168" y="44" width="1.5" height="1.5" fill="#191E30" />
										<rect x="177.5" y="44" width="1.5" height="1.5" fill="#191E30" />
										<rect x="187" y="44" width="1.5" height="1.5" fill="#191E30" />
										<rect x="196.5" y="44" width="1.5" height="1.5" fill="#191E30" />
										<rect x="206" y="44" width="1.5" height="1.5" fill="#191E30" />
										<rect x="215.5" y="44" width="1.5" height="1.5" fill="#191E30" />
										<rect x="225" y="44" width="1.5" height="1.5" fill="#191E30" />
										<rect x="234.5" y="44" width="1.5" height="1.5" fill="#191E30" />
										<rect x="244" y="44" width="1.5" height="1.5" fill="#191E30" />
										<rect x="253.5" y="44" width="1.5" height="1.5" fill="#191E30" />
										<rect x="263" y="44" width="1.5" height="1.5" fill="#191E30" />
										<rect x="272.5" y="44" width="1.5" height="1.5" fill="#191E30" />
										<rect x="282" y="44" width="1.5" height="1.5" fill="#191E30" />
										<rect x="291.5" y="44" width="1.5" height="1.5" fill="#191E30" />
										<rect x="301" y="44" width="1.5" height="1.5" fill="#191E30" />
										<rect x="6.5" y="53.5" width="1.5" height="1.5" fill="#191E30" />
										<rect x="16" y="53.5" width="1.5" height="1.5" fill="#191E30" />
										<rect x="25.5" y="53.5" width="1.5" height="1.5" fill="#191E30" />
										<rect x="35" y="53.5" width="1.5" height="1.5" fill="#191E30" />
										<rect x="44.5" y="53.5" width="1.5" height="1.5" fill="#191E30" />
										<rect x="54" y="53.5" width="1.5" height="1.5" fill="#191E30" />
										<rect x="63.5" y="53.5" width="1.5" height="1.5" fill="#191E30" />
										<rect x="73" y="53.5" width="1.5" height="1.5" fill="#191E30" />
										<rect x="82.5" y="53.5" width="1.5" height="1.5" fill="#191E30" />
										<rect x="92" y="53.5" width="1.5" height="1.5" fill="#191E30" />
										<rect x="101.5" y="53.5" width="1.5" height="1.5" fill="#191E30" />
										<rect x="111" y="53.5" width="1.5" height="1.5" fill="#191E30" />
										<rect x="120.5" y="53.5" width="1.5" height="1.5" fill="#191E30" />
										<rect x="130" y="53.5" width="1.5" height="1.5" fill="#191E30" />
										<rect x="139.5" y="53.5" width="1.5" height="1.5" fill="#191E30" />
										<rect x="149" y="53.5" width="1.5" height="1.5" fill="#191E30" />
										<rect x="158.5" y="53.5" width="1.5" height="1.5" fill="#191E30" />
										<rect x="168" y="53.5" width="1.5" height="1.5" fill="#191E30" />
										<rect x="177.5" y="53.5" width="1.5" height="1.5" fill="#191E30" />
										<rect x="187" y="53.5" width="1.5" height="1.5" fill="#191E30" />
										<rect x="196.5" y="53.5" width="1.5" height="1.5" fill="#191E30" />
										<rect x="206" y="53.5" width="1.5" height="1.5" fill="#191E30" />
										<rect x="215.5" y="53.5" width="1.5" height="1.5" fill="#191E30" />
										<rect x="225" y="53.5" width="1.5" height="1.5" fill="#191E30" />
										<rect x="234.5" y="53.5" width="1.5" height="1.5" fill="#191E30" />
										<rect x="244" y="53.5" width="1.5" height="1.5" fill="#191E30" />
										<rect x="253.5" y="53.5" width="1.5" height="1.5" fill="#191E30" />
										<rect x="263" y="53.5" width="1.5" height="1.5" fill="#191E30" />
										<rect x="272.5" y="53.5" width="1.5" height="1.5" fill="#191E30" />
										<rect x="282" y="53.5" width="1.5" height="1.5" fill="#191E30" />
										<rect x="291.5" y="53.5" width="1.5" height="1.5" fill="#191E30" />
										<rect x="301" y="53.5" width="1.5" height="1.5" fill="#191E30" />
										<rect x="6.5" y="63" width="1.5" height="1.5" fill="#191E30" />
										<rect x="16" y="63" width="1.5" height="1.5" fill="#191E30" />
										<rect x="25.5" y="63" width="1.5" height="1.5" fill="#191E30" />
										<rect x="35" y="63" width="1.5" height="1.5" fill="#191E30" />
										<rect x="44.5" y="63" width="1.5" height="1.5" fill="#191E30" />
										<rect x="54" y="63" width="1.5" height="1.5" fill="#191E30" />
										<rect x="63.5" y="63" width="1.5" height="1.5" fill="#191E30" />
										<rect x="73" y="63" width="1.5" height="1.5" fill="#191E30" />
										<rect x="82.5" y="63" width="1.5" height="1.5" fill="#191E30" />
										<rect x="92" y="63" width="1.5" height="1.5" fill="#191E30" />
										<rect x="101.5" y="63" width="1.5" height="1.5" fill="#191E30" />
										<rect x="111" y="63" width="1.5" height="1.5" fill="#191E30" />
										<rect x="120.5" y="63" width="1.5" height="1.5" fill="#191E30" />
										<rect x="130" y="63" width="1.5" height="1.5" fill="#191E30" />
										<rect x="139.5" y="63" width="1.5" height="1.5" fill="#191E30" />
										<rect x="149" y="63" width="1.5" height="1.5" fill="#191E30" />
										<rect x="158.5" y="63" width="1.5" height="1.5" fill="#191E30" />
										<rect x="168" y="63" width="1.5" height="1.5" fill="#191E30" />
										<rect x="177.5" y="63" width="1.5" height="1.5" fill="#191E30" />
										<rect x="187" y="63" width="1.5" height="1.5" fill="#191E30" />
										<rect x="196.5" y="63" width="1.5" height="1.5" fill="#191E30" />
										<rect x="206" y="63" width="1.5" height="1.5" fill="#191E30" />
										<rect x="215.5" y="63" width="1.5" height="1.5" fill="#191E30" />
										<rect x="225" y="63" width="1.5" height="1.5" fill="#191E30" />
										<rect x="234.5" y="63" width="1.5" height="1.5" fill="#191E30" />
										<rect x="244" y="63" width="1.5" height="1.5" fill="#191E30" />
										<rect x="253.5" y="63" width="1.5" height="1.5" fill="#191E30" />
										<rect x="263" y="63" width="1.5" height="1.5" fill="#191E30" />
										<rect x="272.5" y="63" width="1.5" height="1.5" fill="#191E30" />
										<rect x="282" y="63" width="1.5" height="1.5" fill="#191E30" />
										<rect x="291.5" y="63" width="1.5" height="1.5" fill="#191E30" />
										<rect x="301" y="63" width="1.5" height="1.5" fill="#191E30" />
										<rect x="6.5" y="72.5" width="1.5" height="1.5" fill="#191E30" />
										<rect x="16" y="72.5" width="1.5" height="1.5" fill="#191E30" />
										<rect x="25.5" y="72.5" width="1.5" height="1.5" fill="#191E30" />
										<rect x="35" y="72.5" width="1.5" height="1.5" fill="#191E30" />
										<rect x="44.5" y="72.5" width="1.5" height="1.5" fill="#191E30" />
										<rect x="54" y="72.5" width="1.5" height="1.5" fill="#191E30" />
										<rect x="63.5" y="72.5" width="1.5" height="1.5" fill="#191E30" />
										<rect x="73" y="72.5" width="1.5" height="1.5" fill="#191E30" />
										<rect x="82.5" y="72.5" width="1.5" height="1.5" fill="#191E30" />
										<rect x="92" y="72.5" width="1.5" height="1.5" fill="#191E30" />
										<rect x="101.5" y="72.5" width="1.5" height="1.5" fill="#191E30" />
										<rect x="111" y="72.5" width="1.5" height="1.5" fill="#191E30" />
										<rect x="120.5" y="72.5" width="1.5" height="1.5" fill="#191E30" />
										<rect x="130" y="72.5" width="1.5" height="1.5" fill="#191E30" />
										<rect x="139.5" y="72.5" width="1.5" height="1.5" fill="#191E30" />
										<rect x="149" y="72.5" width="1.5" height="1.5" fill="#191E30" />
										<rect x="158.5" y="72.5" width="1.5" height="1.5" fill="#191E30" />
										<rect x="168" y="72.5" width="1.5" height="1.5" fill="#191E30" />
										<rect x="177.5" y="72.5" width="1.5" height="1.5" fill="#191E30" />
										<rect x="187" y="72.5" width="1.5" height="1.5" fill="#191E30" />
										<rect x="196.5" y="72.5" width="1.5" height="1.5" fill="#191E30" />
										<rect x="206" y="72.5" width="1.5" height="1.5" fill="#191E30" />
										<rect x="215.5" y="72.5" width="1.5" height="1.5" fill="#191E30" />
										<rect x="225" y="72.5" width="1.5" height="1.5" fill="#191E30" />
										<rect x="234.5" y="72.5" width="1.5" height="1.5" fill="#191E30" />
										<rect x="244" y="72.5" width="1.5" height="1.5" fill="#191E30" />
										<rect x="253.5" y="72.5" width="1.5" height="1.5" fill="#191E30" />
										<rect x="263" y="72.5" width="1.5" height="1.5" fill="#191E30" />
										<rect x="272.5" y="72.5" width="1.5" height="1.5" fill="#191E30" />
										<rect x="282" y="72.5" width="1.5" height="1.5" fill="#191E30" />
										<rect x="291.5" y="72.5" width="1.5" height="1.5" fill="#191E30" />
										<rect x="301" y="72.5" width="1.5" height="1.5" fill="#191E30" />
										<rect x="6.5" y="82" width="1.5" height="1.5" fill="#191E30" />
										<rect x="16" y="82" width="1.5" height="1.5" fill="#191E30" />
										<rect x="25.5" y="82" width="1.5" height="1.5" fill="#191E30" />
										<rect x="35" y="82" width="1.5" height="1.5" fill="#191E30" />
										<rect x="44.5" y="82" width="1.5" height="1.5" fill="#191E30" />
										<rect x="54" y="82" width="1.5" height="1.5" fill="#191E30" />
										<rect x="63.5" y="82" width="1.5" height="1.5" fill="#191E30" />
										<rect x="73" y="82" width="1.5" height="1.5" fill="#191E30" />
										<rect x="82.5" y="82" width="1.5" height="1.5" fill="#191E30" />
										<rect x="92" y="82" width="1.5" height="1.5" fill="#191E30" />
										<rect x="101.5" y="82" width="1.5" height="1.5" fill="#191E30" />
										<rect x="111" y="82" width="1.5" height="1.5" fill="#191E30" />
										<rect x="120.5" y="82" width="1.5" height="1.5" fill="#191E30" />
										<rect x="130" y="82" width="1.5" height="1.5" fill="#191E30" />
										<rect x="139.5" y="82" width="1.5" height="1.5" fill="#191E30" />
										<rect x="149" y="82" width="1.5" height="1.5" fill="#191E30" />
										<rect x="158.5" y="82" width="1.5" height="1.5" fill="#191E30" />
										<rect x="168" y="82" width="1.5" height="1.5" fill="#191E30" />
										<rect x="177.5" y="82" width="1.5" height="1.5" fill="#191E30" />
										<rect x="187" y="82" width="1.5" height="1.5" fill="#191E30" />
										<rect x="196.5" y="82" width="1.5" height="1.5" fill="#191E30" />
										<rect x="206" y="82" width="1.5" height="1.5" fill="#191E30" />
										<rect x="215.5" y="82" width="1.5" height="1.5" fill="#191E30" />
										<rect x="225" y="82" width="1.5" height="1.5" fill="#191E30" />
										<rect x="234.5" y="82" width="1.5" height="1.5" fill="#191E30" />
										<rect x="244" y="82" width="1.5" height="1.5" fill="#191E30" />
										<rect x="253.5" y="82" width="1.5" height="1.5" fill="#191E30" />
										<rect x="263" y="82" width="1.5" height="1.5" fill="#191E30" />
										<rect x="272.5" y="82" width="1.5" height="1.5" fill="#191E30" />
										<rect x="282" y="82" width="1.5" height="1.5" fill="#191E30" />
										<rect x="291.5" y="82" width="1.5" height="1.5" fill="#191E30" />
										<rect x="301" y="82" width="1.5" height="1.5" fill="#191E30" />
										<rect x="6.5" y="91.5" width="1.5" height="1.5" fill="#191E30" />
										<rect x="16" y="91.5" width="1.5" height="1.5" fill="#191E30" />
										<rect x="25.5" y="91.5" width="1.5" height="1.5" fill="#191E30" />
										<rect x="35" y="91.5" width="1.5" height="1.5" fill="#191E30" />
										<rect x="44.5" y="91.5" width="1.5" height="1.5" fill="#191E30" />
										<rect x="54" y="91.5" width="1.5" height="1.5" fill="#191E30" />
										<rect x="63.5" y="91.5" width="1.5" height="1.5" fill="#191E30" />
										<rect x="73" y="91.5" width="1.5" height="1.5" fill="#191E30" />
										<rect x="82.5" y="91.5" width="1.5" height="1.5" fill="#191E30" />
										<rect x="92" y="91.5" width="1.5" height="1.5" fill="#191E30" />
										<rect x="101.5" y="91.5" width="1.5" height="1.5" fill="#191E30" />
										<rect x="111" y="91.5" width="1.5" height="1.5" fill="#191E30" />
										<rect x="120.5" y="91.5" width="1.5" height="1.5" fill="#191E30" />
										<rect x="130" y="91.5" width="1.5" height="1.5" fill="#191E30" />
										<rect x="139.5" y="91.5" width="1.5" height="1.5" fill="#191E30" />
										<rect x="149" y="91.5" width="1.5" height="1.5" fill="#191E30" />
										<rect x="158.5" y="91.5" width="1.5" height="1.5" fill="#191E30" />
										<rect x="168" y="91.5" width="1.5" height="1.5" fill="#191E30" />
										<rect x="177.5" y="91.5" width="1.5" height="1.5" fill="#191E30" />
										<rect x="187" y="91.5" width="1.5" height="1.5" fill="#191E30" />
										<rect x="196.5" y="91.5" width="1.5" height="1.5" fill="#191E30" />
										<rect x="206" y="91.5" width="1.5" height="1.5" fill="#191E30" />
										<rect x="215.5" y="91.5" width="1.5" height="1.5" fill="#191E30" />
										<rect x="225" y="91.5" width="1.5" height="1.5" fill="#191E30" />
										<rect x="234.5" y="91.5" width="1.5" height="1.5" fill="#191E30" />
										<rect x="244" y="91.5" width="1.5" height="1.5" fill="#191E30" />
										<rect x="253.5" y="91.5" width="1.5" height="1.5" fill="#191E30" />
										<rect x="263" y="91.5" width="1.5" height="1.5" fill="#191E30" />
										<rect x="272.5" y="91.5" width="1.5" height="1.5" fill="#191E30" />
										<rect x="282" y="91.5" width="1.5" height="1.5" fill="#191E30" />
										<rect x="291.5" y="91.5" width="1.5" height="1.5" fill="#191E30" />
										<rect x="301" y="91.5" width="1.5" height="1.5" fill="#191E30" />
										<rect x="6.5" y="101" width="1.5" height="1.5" fill="#191E30" />
										<rect x="16" y="101" width="1.5" height="1.5" fill="#191E30" />
										<rect x="25.5" y="101" width="1.5" height="1.5" fill="#191E30" />
										<rect x="35" y="101" width="1.5" height="1.5" fill="#191E30" />
										<rect x="44.5" y="101" width="1.5" height="1.5" fill="#191E30" />
										<rect x="54" y="101" width="1.5" height="1.5" fill="#191E30" />
										<rect x="63.5" y="101" width="1.5" height="1.5" fill="#191E30" />
										<rect x="73" y="101" width="1.5" height="1.5" fill="#191E30" />
										<rect x="82.5" y="101" width="1.5" height="1.5" fill="#191E30" />
										<rect x="92" y="101" width="1.5" height="1.5" fill="#191E30" />
										<rect x="101.5" y="101" width="1.5" height="1.5" fill="#191E30" />
										<rect x="111" y="101" width="1.5" height="1.5" fill="#191E30" />
										<rect x="120.5" y="101" width="1.5" height="1.5" fill="#191E30" />
										<rect x="130" y="101" width="1.5" height="1.5" fill="#191E30" />
										<rect x="139.5" y="101" width="1.5" height="1.5" fill="#191E30" />
										<rect x="149" y="101" width="1.5" height="1.5" fill="#191E30" />
										<rect x="158.5" y="101" width="1.5" height="1.5" fill="#191E30" />
										<rect x="168" y="101" width="1.5" height="1.5" fill="#191E30" />
										<rect x="177.5" y="101" width="1.5" height="1.5" fill="#191E30" />
										<rect x="187" y="101" width="1.5" height="1.5" fill="#191E30" />
										<rect x="196.5" y="101" width="1.5" height="1.5" fill="#191E30" />
										<rect x="206" y="101" width="1.5" height="1.5" fill="#191E30" />
										<rect x="215.5" y="101" width="1.5" height="1.5" fill="#191E30" />
										<rect x="225" y="101" width="1.5" height="1.5" fill="#191E30" />
										<rect x="234.5" y="101" width="1.5" height="1.5" fill="#191E30" />
										<rect x="244" y="101" width="1.5" height="1.5" fill="#191E30" />
										<rect x="253.5" y="101" width="1.5" height="1.5" fill="#191E30" />
										<rect x="263" y="101" width="1.5" height="1.5" fill="#191E30" />
										<rect x="272.5" y="101" width="1.5" height="1.5" fill="#191E30" />
										<rect x="282" y="101" width="1.5" height="1.5" fill="#191E30" />
										<rect x="291.5" y="101" width="1.5" height="1.5" fill="#191E30" />
										<rect x="301" y="101" width="1.5" height="1.5" fill="#191E30" />
										<rect x="6.5" y="110.5" width="1.5" height="1.5" fill="#191E30" />
										<rect x="16" y="110.5" width="1.5" height="1.5" fill="#191E30" />
										<rect x="25.5" y="110.5" width="1.5" height="1.5" fill="#191E30" />
										<rect x="35" y="110.5" width="1.5" height="1.5" fill="#191E30" />
										<rect x="44.5" y="110.5" width="1.5" height="1.5" fill="#191E30" />
										<rect x="54" y="110.5" width="1.5" height="1.5" fill="#191E30" />
										<rect x="63.5" y="110.5" width="1.5" height="1.5" fill="#191E30" />
										<rect x="73" y="110.5" width="1.5" height="1.5" fill="#191E30" />
										<rect x="82.5" y="110.5" width="1.5" height="1.5" fill="#191E30" />
										<rect x="92" y="110.5" width="1.5" height="1.5" fill="#191E30" />
										<rect x="101.5" y="110.5" width="1.5" height="1.5" fill="#191E30" />
										<rect x="111" y="110.5" width="1.5" height="1.5" fill="#191E30" />
										<rect x="120.5" y="110.5" width="1.5" height="1.5" fill="#191E30" />
										<rect x="130" y="110.5" width="1.5" height="1.5" fill="#191E30" />
										<rect x="139.5" y="110.5" width="1.5" height="1.5" fill="#191E30" />
										<rect x="149" y="110.5" width="1.5" height="1.5" fill="#191E30" />
										<rect x="158.5" y="110.5" width="1.5" height="1.5" fill="#191E30" />
										<rect x="168" y="110.5" width="1.5" height="1.5" fill="#191E30" />
										<rect x="177.5" y="110.5" width="1.5" height="1.5" fill="#191E30" />
										<rect x="187" y="110.5" width="1.5" height="1.5" fill="#191E30" />
										<rect x="196.5" y="110.5" width="1.5" height="1.5" fill="#191E30" />
										<rect x="206" y="110.5" width="1.5" height="1.5" fill="#191E30" />
										<rect x="215.5" y="110.5" width="1.5" height="1.5" fill="#191E30" />
										<rect x="225" y="110.5" width="1.5" height="1.5" fill="#191E30" />
										<rect x="234.5" y="110.5" width="1.5" height="1.5" fill="#191E30" />
										<rect x="244" y="110.5" width="1.5" height="1.5" fill="#191E30" />
										<rect x="253.5" y="110.5" width="1.5" height="1.5" fill="#191E30" />
										<rect x="263" y="110.5" width="1.5" height="1.5" fill="#191E30" />
										<rect x="272.5" y="110.5" width="1.5" height="1.5" fill="#191E30" />
										<rect x="282" y="110.5" width="1.5" height="1.5" fill="#191E30" />
										<rect x="291.5" y="110.5" width="1.5" height="1.5" fill="#191E30" />
										<rect x="301" y="110.5" width="1.5" height="1.5" fill="#191E30" />
										<rect x="6.5" y="120" width="1.5" height="1.5" fill="#191E30" />
										<rect x="16" y="120" width="1.5" height="1.5" fill="#191E30" />
										<rect x="25.5" y="120" width="1.5" height="1.5" fill="#191E30" />
										<rect x="35" y="120" width="1.5" height="1.5" fill="#191E30" />
										<rect x="44.5" y="120" width="1.5" height="1.5" fill="#191E30" />
										<rect x="54" y="120" width="1.5" height="1.5" fill="#191E30" />
										<rect x="63.5" y="120" width="1.5" height="1.5" fill="#191E30" />
										<rect x="73" y="120" width="1.5" height="1.5" fill="#191E30" />
										<rect x="82.5" y="120" width="1.5" height="1.5" fill="#191E30" />
										<rect x="92" y="120" width="1.5" height="1.5" fill="#191E30" />
										<rect x="101.5" y="120" width="1.5" height="1.5" fill="#191E30" />
										<rect x="111" y="120" width="1.5" height="1.5" fill="#191E30" />
										<rect x="120.5" y="120" width="1.5" height="1.5" fill="#191E30" />
										<rect x="130" y="120" width="1.5" height="1.5" fill="#191E30" />
										<rect x="139.5" y="120" width="1.5" height="1.5" fill="#191E30" />
										<rect x="149" y="120" width="1.5" height="1.5" fill="#191E30" />
										<rect x="158.5" y="120" width="1.5" height="1.5" fill="#191E30" />
										<rect x="168" y="120" width="1.5" height="1.5" fill="#191E30" />
										<rect x="177.5" y="120" width="1.5" height="1.5" fill="#191E30" />
										<rect x="187" y="120" width="1.5" height="1.5" fill="#191E30" />
										<rect x="196.5" y="120" width="1.5" height="1.5" fill="#191E30" />
										<rect x="206" y="120" width="1.5" height="1.5" fill="#191E30" />
										<rect x="215.5" y="120" width="1.5" height="1.5" fill="#191E30" />
										<rect x="225" y="120" width="1.5" height="1.5" fill="#191E30" />
										<rect x="234.5" y="120" width="1.5" height="1.5" fill="#191E30" />
										<rect x="244" y="120" width="1.5" height="1.5" fill="#191E30" />
										<rect x="253.5" y="120" width="1.5" height="1.5" fill="#191E30" />
										<rect x="263" y="120" width="1.5" height="1.5" fill="#191E30" />
										<rect x="272.5" y="120" width="1.5" height="1.5" fill="#191E30" />
										<rect x="282" y="120" width="1.5" height="1.5" fill="#191E30" />
										<rect x="291.5" y="120" width="1.5" height="1.5" fill="#191E30" />
										<rect x="301" y="120" width="1.5" height="1.5" fill="#191E30" />
										<rect x="6.5" y="129.5" width="1.5" height="1.5" fill="#191E30" />
										<rect x="16" y="129.5" width="1.5" height="1.5" fill="#191E30" />
										<rect x="25.5" y="129.5" width="1.5" height="1.5" fill="#191E30" />
										<rect x="35" y="129.5" width="1.5" height="1.5" fill="#191E30" />
										<rect x="44.5" y="129.5" width="1.5" height="1.5" fill="#191E30" />
										<rect x="54" y="129.5" width="1.5" height="1.5" fill="#191E30" />
										<rect x="63.5" y="129.5" width="1.5" height="1.5" fill="#191E30" />
										<rect x="73" y="129.5" width="1.5" height="1.5" fill="#191E30" />
										<rect x="82.5" y="129.5" width="1.5" height="1.5" fill="#191E30" />
										<rect x="92" y="129.5" width="1.5" height="1.5" fill="#191E30" />
										<rect x="101.5" y="129.5" width="1.5" height="1.5" fill="#191E30" />
										<rect x="111" y="129.5" width="1.5" height="1.5" fill="#191E30" />
										<rect x="120.5" y="129.5" width="1.5" height="1.5" fill="#191E30" />
										<rect x="130" y="129.5" width="1.5" height="1.5" fill="#191E30" />
										<rect x="139.5" y="129.5" width="1.5" height="1.5" fill="#191E30" />
										<rect x="149" y="129.5" width="1.5" height="1.5" fill="#191E30" />
										<rect x="158.5" y="129.5" width="1.5" height="1.5" fill="#191E30" />
										<rect x="168" y="129.5" width="1.5" height="1.5" fill="#191E30" />
										<rect x="177.5" y="129.5" width="1.5" height="1.5" fill="#191E30" />
										<rect x="187" y="129.5" width="1.5" height="1.5" fill="#191E30" />
										<rect x="196.5" y="129.5" width="1.5" height="1.5" fill="#191E30" />
										<rect x="206" y="129.5" width="1.5" height="1.5" fill="#191E30" />
										<rect x="215.5" y="129.5" width="1.5" height="1.5" fill="#191E30" />
										<rect x="225" y="129.5" width="1.5" height="1.5" fill="#191E30" />
										<rect x="234.5" y="129.5" width="1.5" height="1.5" fill="#191E30" />
										<rect x="244" y="129.5" width="1.5" height="1.5" fill="#191E30" />
										<rect x="253.5" y="129.5" width="1.5" height="1.5" fill="#191E30" />
										<rect x="263" y="129.5" width="1.5" height="1.5" fill="#191E30" />
										<rect x="272.5" y="129.5" width="1.5" height="1.5" fill="#191E30" />
										<rect x="282" y="129.5" width="1.5" height="1.5" fill="#191E30" />
										<rect x="291.5" y="129.5" width="1.5" height="1.5" fill="#191E30" />
										<rect x="301" y="129.5" width="1.5" height="1.5" fill="#191E30" />
										<rect x="6.5" y="139" width="1.5" height="1.5" fill="#191E30" />
										<rect x="16" y="139" width="1.5" height="1.5" fill="#191E30" />
										<rect x="25.5" y="139" width="1.5" height="1.5" fill="#191E30" />
										<rect x="35" y="139" width="1.5" height="1.5" fill="#191E30" />
										<rect x="44.5" y="139" width="1.5" height="1.5" fill="#191E30" />
										<rect x="54" y="139" width="1.5" height="1.5" fill="#191E30" />
										<rect x="63.5" y="139" width="1.5" height="1.5" fill="#191E30" />
										<rect x="73" y="139" width="1.5" height="1.5" fill="#191E30" />
										<rect x="82.5" y="139" width="1.5" height="1.5" fill="#191E30" />
										<rect x="92" y="139" width="1.5" height="1.5" fill="#191E30" />
										<rect x="101.5" y="139" width="1.5" height="1.5" fill="#191E30" />
										<rect x="111" y="139" width="1.5" height="1.5" fill="#191E30" />
										<rect x="120.5" y="139" width="1.5" height="1.5" fill="#191E30" />
										<rect x="130" y="139" width="1.5" height="1.5" fill="#191E30" />
										<rect x="139.5" y="139" width="1.5" height="1.5" fill="#191E30" />
										<rect x="149" y="139" width="1.5" height="1.5" fill="#191E30" />
										<rect x="158.5" y="139" width="1.5" height="1.5" fill="#191E30" />
										<rect x="168" y="139" width="1.5" height="1.5" fill="#191E30" />
										<rect x="177.5" y="139" width="1.5" height="1.5" fill="#191E30" />
										<rect x="187" y="139" width="1.5" height="1.5" fill="#191E30" />
										<rect x="196.5" y="139" width="1.5" height="1.5" fill="#191E30" />
										<rect x="206" y="139" width="1.5" height="1.5" fill="#191E30" />
										<rect x="215.5" y="139" width="1.5" height="1.5" fill="#191E30" />
										<rect x="225" y="139" width="1.5" height="1.5" fill="#191E30" />
										<rect x="234.5" y="139" width="1.5" height="1.5" fill="#191E30" />
										<rect x="244" y="139" width="1.5" height="1.5" fill="#191E30" />
										<rect x="253.5" y="139" width="1.5" height="1.5" fill="#191E30" />
										<rect x="263" y="139" width="1.5" height="1.5" fill="#191E30" />
										<rect x="272.5" y="139" width="1.5" height="1.5" fill="#191E30" />
										<rect x="282" y="139" width="1.5" height="1.5" fill="#191E30" />
										<rect x="291.5" y="139" width="1.5" height="1.5" fill="#191E30" />
										<rect x="301" y="139" width="1.5" height="1.5" fill="#191E30" />
									</g>
									<defs>
										<linearGradient id="paint0_linear_2775_5607" x1="154" y1="0" x2="154" y2="146" gradientUnits="userSpaceOnUse">
											<stop stop-color="#131829" />
											<stop offset="1" stop-color="#0C0E1A" />
										</linearGradient>
										<linearGradient id="paint1_linear_2775_5607" x1="154" y1="0" x2="154" y2="146" gradientUnits="userSpaceOnUse">
											<stop stop-color="#212941" />
											<stop offset="0.469183" stop-color="#2C3A65" />
											<stop offset="1" stop-color="#272C3D" />
										</linearGradient>
									</defs>
								</svg>