<svg width="790" height="392" viewBox="0 0 790 392" fill="none" xmlns="http://www.w3.org/2000/svg">
<mask id="mask0_118_1240" style="mask-type:alpha" maskUnits="userSpaceOnUse" x="0" y="0" width="790" height="392">
<path d="M790 16C790 7.16344 782.837 0 774 0H16C7.16345 0 0 7.16344 0 16V392H790V16Z" fill="url(#paint0_linear_118_1240)"/>
<path d="M790 16C790 7.16344 782.837 0 774 0H16C7.16345 0 0 7.16344 0 16V392H790V16Z" fill="url(#paint1_radial_118_1240)"/>
</mask>
<g mask="url(#mask0_118_1240)">
<mask id="mask1_118_1240" style="mask-type:alpha" maskUnits="userSpaceOnUse" x="0" y="228" width="790" height="334">
<g opacity="0.2" clip-path="url(#clip0_118_1240)">
<path d="M75.9692 288.703C84.3438 288.703 91.1896 295.477 91.1896 303.912H151.938C151.938 262.004 117.908 228 75.9692 228C34.03 228 0 262.004 0 303.912H60.7488C60.7488 295.544 67.5947 288.703 75.9692 288.703Z" fill="white"/>
<path d="M258.282 288.703C266.656 288.703 273.502 295.477 273.502 303.912H334.251C334.251 262.004 300.221 228 258.282 228C216.342 228 182.312 262.004 182.312 303.912H243.061C243.061 295.544 249.841 288.703 258.282 288.703Z" fill="white"/>
<path d="M151.938 303.912H91.1896C91.1896 312.28 84.4102 319.121 75.9692 319.121C34.03 319.121 0 353.059 0 394.967H60.7488C60.7488 386.599 67.5282 379.758 75.9692 379.758C81.1535 379.758 86.2712 379.226 91.1896 378.23V425.318H151.938V364.615H121.564C139.975 350.801 151.938 328.751 151.938 303.912Z" fill="white"/>
<path d="M364.625 273.561V334.264C406.564 334.264 440.594 300.259 440.594 258.352H379.845C379.779 266.72 373 273.561 364.625 273.561Z" fill="white"/>
<path d="M516.499 364.615H455.75V425.318H516.499V364.615Z" fill="white"/>
<path d="M698.811 364.615H638.062V425.318H698.811V364.615Z" fill="white"/>
<path d="M789.936 364.615H729.188V425.318H789.936V364.615Z" fill="white"/>
<path d="M607.686 364.615H546.938V425.318H607.686V364.615Z" fill="white"/>
<path d="M546.936 303.912V364.615H607.685V303.912C607.685 262.004 573.655 228 531.715 228H516.495H470.9H455.68V288.703V303.912V349.473V364.682H516.428V349.473V303.912V288.703H531.715C540.09 288.703 546.936 295.544 546.936 303.912Z" fill="white"/>
<path d="M714.032 288.703C672.092 288.703 638.062 322.708 638.062 364.615H698.811C698.811 356.247 705.591 349.406 714.032 349.406C722.406 349.406 729.186 356.181 729.186 364.615H789.934C790.001 322.708 755.971 288.703 714.032 288.703Z" fill="white"/>
<path d="M273.44 425.318H334.188V364.615V304.111C334.188 304.045 334.188 303.979 334.188 303.912H273.44V303.979C273.44 312.347 266.594 319.121 258.219 319.121H242.999V303.912H182.25V364.615V425.318H242.999V379.758H258.219C263.403 379.758 268.521 379.226 273.44 378.23V425.318Z" fill="white"/>
<path d="M425.374 364.615H364.625V425.318H425.374V364.615Z" fill="white"/>
</g>
</mask>
<g mask="url(#mask1_118_1240)">
<g filter="url(#filter0_f_118_1240)">
<ellipse cx="395" cy="304.5" rx="395" ry="70.5" fill="#293A2F"/>
</g>
</g>
</g>
<defs>
<filter id="filter0_f_118_1240" x="-334" y="-100" width="1458" height="809" filterUnits="userSpaceOnUse" color-interpolation-filters="sRGB">
<feFlood flood-opacity="0" result="BackgroundImageFix"/>
<feBlend mode="normal" in="SourceGraphic" in2="BackgroundImageFix" result="shape"/>
<feGaussianBlur stdDeviation="167" result="effect1_foregroundBlur_118_1240"/>
</filter>
<linearGradient id="paint0_linear_118_1240" x1="722.727" y1="435.852" x2="722.726" y2="-0.14789" gradientUnits="userSpaceOnUse">
<stop stop-color="#31912A"/>
<stop offset="1" stop-color="#89E685"/>
</linearGradient>
<radialGradient id="paint1_radial_118_1240" cx="0" cy="0" r="1" gradientUnits="userSpaceOnUse" gradientTransform="translate(-348 -67.0002) rotate(22.9874) scale(1319.52 5383.76)">
<stop stop-color="#3C9C35" stop-opacity="0.33"/>
<stop offset="0.546875" stop-color="#5BBF71" stop-opacity="0.696406"/>
<stop offset="1" stop-color="#65BB61"/>
</radialGradient>
<clipPath id="clip0_118_1240">
<rect width="790" height="334" fill="white" transform="translate(0 228)"/>
</clipPath>
</defs>
</svg>
