<svg width="768" height="908" viewBox="0 0 768 908" fill="none" xmlns="http://www.w3.org/2000/svg">
<path d="M768 908L0 908L7.05502e-05 101C7.13227e-05 92.1634 7.16352 84.9999 16.0001 84.9999L29 84.9999C37.8366 84.9999 45 77.8365 45 68.9999L45 15.9999C45 7.16339 52.1635 -6.25804e-05 61 -6.18079e-05L752 -1.39876e-06C760.837 -6.26248e-07 768 7.16345 768 16L768 908Z" fill="url(#paint0_linear_123_3341)"/>
<path d="M768 908L0 908L7.05502e-05 101C7.13227e-05 92.1634 7.16352 84.9999 16.0001 84.9999L29 84.9999C37.8366 84.9999 45 77.8365 45 68.9999L45 15.9999C45 7.16339 52.1635 -6.25804e-05 61 -6.18079e-05L752 -1.39876e-06C760.837 -6.26248e-07 768 7.16345 768 16L768 908Z" fill="url(#paint1_radial_123_3341)"/>
<mask id="mask0_123_3341" style="mask-type:alpha" maskUnits="userSpaceOnUse" x="0" y="0" width="768" height="908">
<path d="M768 908L0 908L7.05502e-05 101C7.13227e-05 92.1634 7.16352 84.9999 16.0001 84.9999L29.0001 84.9999C37.8366 84.9999 45.0001 77.8365 45.0001 68.9999L45.0001 15.9999C45.0001 7.16339 52.1635 -6.25804e-05 61.0001 -6.18079e-05L752 -1.39876e-06C760.837 -6.26248e-07 768 7.16345 768 16L768 908Z" fill="url(#paint2_radial_123_3341)"/>
</mask>
<g mask="url(#mask0_123_3341)">
<g filter="url(#filter0_f_123_3341)">
<circle cx="74" cy="719" r="207" transform="rotate(-180 74 719)" fill="url(#paint3_linear_123_3341)"/>
</g>
<g opacity="0.8" filter="url(#filter1_f_123_3341)">
<ellipse cx="768" cy="45" rx="294" ry="294" transform="rotate(-180 768 45)" fill="url(#paint4_linear_123_3341)"/>
</g>
<g opacity="0.6" filter="url(#filter2_f_123_3341)">
<ellipse cx="360" cy="637" rx="225" ry="225" transform="rotate(-180 360 637)" fill="white"/>
</g>
</g>
<defs>
<filter id="filter0_f_123_3341" x="-533" y="112" width="1214" height="1214" filterUnits="userSpaceOnUse" color-interpolation-filters="sRGB">
<feFlood flood-opacity="0" result="BackgroundImageFix"/>
<feBlend mode="normal" in="SourceGraphic" in2="BackgroundImageFix" result="shape"/>
<feGaussianBlur stdDeviation="200" result="effect1_foregroundBlur_123_3341"/>
</filter>
<filter id="filter1_f_123_3341" x="-46" y="-769" width="1628" height="1628" filterUnits="userSpaceOnUse" color-interpolation-filters="sRGB">
<feFlood flood-opacity="0" result="BackgroundImageFix"/>
<feBlend mode="normal" in="SourceGraphic" in2="BackgroundImageFix" result="shape"/>
<feGaussianBlur stdDeviation="260" result="effect1_foregroundBlur_123_3341"/>
</filter>
<filter id="filter2_f_123_3341" x="-165" y="112" width="1050" height="1050" filterUnits="userSpaceOnUse" color-interpolation-filters="sRGB">
<feFlood flood-opacity="0" result="BackgroundImageFix"/>
<feBlend mode="normal" in="SourceGraphic" in2="BackgroundImageFix" result="shape"/>
<feGaussianBlur stdDeviation="150" result="effect1_foregroundBlur_123_3341"/>
</filter>
<linearGradient id="paint0_linear_123_3341" x1="1195.5" y1="430.195" x2="1195.5" y2="1004.2" gradientUnits="userSpaceOnUse">
<stop stop-color="#31912A"/>
<stop offset="1" stop-color="#89E685"/>
</linearGradient>
<radialGradient id="paint1_radial_123_3341" cx="0" cy="0" r="1" gradientUnits="userSpaceOnUse" gradientTransform="translate(-2106.88 1298.17) rotate(-13.6115) scale(3757.93 9413.22)">
<stop stop-color="#3C9C35" stop-opacity="0.33"/>
<stop offset="1" stop-color="#47D97E"/>
</radialGradient>
<radialGradient id="paint2_radial_123_3341" cx="0" cy="0" r="1" gradientUnits="userSpaceOnUse" gradientTransform="translate(-2106.88 1298.18) rotate(-13.6115) scale(3757.93 9413.22)">
<stop stop-color="#3C9C35" stop-opacity="0"/>
<stop offset="1" stop-color="#7EDC7A"/>
</radialGradient>
<linearGradient id="paint3_linear_123_3341" x1="300.914" y1="695.736" x2="-143.75" y2="714.504" gradientUnits="userSpaceOnUse">
<stop stop-color="#2A90ED"/>
<stop offset="1" stop-color="#1BE3F0"/>
</linearGradient>
<linearGradient id="paint4_linear_123_3341" x1="1090.28" y1="11.9585" x2="458.732" y2="38.6146" gradientUnits="userSpaceOnUse">
<stop stop-color="#2A90ED"/>
<stop offset="1" stop-color="#1BE3F0"/>
</linearGradient>
</defs>
</svg>
