<svg width="790" height="392" viewBox="0 0 790 392" fill="none" xmlns="http://www.w3.org/2000/svg">
<path d="M790 16C790 7.16344 782.837 0 774 0H16C7.16345 0 0 7.16344 0 16V392H790V16Z" fill="#293A2F"/>
<mask id="mask0_137_1037" style="mask-type:alpha" maskUnits="userSpaceOnUse" x="0" y="0" width="790" height="392">
<path d="M790 16C790 7.16344 782.837 0 774 0H16C7.16345 0 0 7.16344 0 16V392H790V16Z" fill="url(#paint0_linear_137_1037)"/>
<path d="M790 16C790 7.16344 782.837 0 774 0H16C7.16345 0 0 7.16344 0 16V392H790V16Z" fill="url(#paint1_radial_137_1037)"/>
</mask>
<g mask="url(#mask0_137_1037)">
</g>
<defs>
<linearGradient id="paint0_linear_137_1037" x1="722.727" y1="435.852" x2="722.726" y2="-0.14789" gradientUnits="userSpaceOnUse">
<stop stop-color="#31912A"/>
<stop offset="1" stop-color="#89E685"/>
</linearGradient>
<radialGradient id="paint1_radial_137_1037" cx="0" cy="0" r="1" gradientUnits="userSpaceOnUse" gradientTransform="translate(-348 -67.0002) rotate(22.9874) scale(1319.52 5383.76)">
<stop stop-color="#3C9C35" stop-opacity="0.33"/>
<stop offset="0.546875" stop-color="#5BBF71" stop-opacity="0.696406"/>
<stop offset="1" stop-color="#65BB61"/>
</radialGradient>
</defs>
</svg>
