<svg width="328" height="304" viewBox="0 0 328 304" fill="none" xmlns="http://www.w3.org/2000/svg">
<mask id="mask0_132_582" style="mask-type:alpha" maskUnits="userSpaceOnUse" x="0" y="0" width="328" height="304">
<path d="M328 8.00001C328 3.58173 324.418 0 320 0H7.99999C3.58171 0 0 3.58172 0 8V304H328V8.00001Z" fill="url(#paint0_linear_132_582)"/>
<path d="M328 8.00001C328 3.58173 324.418 0 320 0H7.99999C3.58171 0 0 3.58172 0 8V304H328V8.00001Z" fill="url(#paint1_radial_132_582)"/>
</mask>
<g mask="url(#mask0_132_582)">
<mask id="mask1_132_582" style="mask-type:alpha" maskUnits="userSpaceOnUse" x="0" y="197" width="328" height="139">
<g opacity="0.2" clip-path="url(#clip0_132_582)">
<path d="M31.5416 222.203C35.0187 222.203 37.861 225.016 37.861 228.518H63.0833C63.0833 211.118 48.9544 197 31.5416 197C14.1289 197 0 211.118 0 228.518H25.2223C25.2223 225.044 28.0646 222.203 31.5416 222.203Z" fill="white"/>
<path d="M107.236 222.203C110.713 222.203 113.555 225.016 113.555 228.518H138.778C138.778 211.118 124.649 197 107.236 197C89.8232 197 75.6943 211.118 75.6943 228.518H100.917C100.917 225.044 103.731 222.203 107.236 222.203Z" fill="white"/>
<path d="M63.0833 228.518H37.861C37.861 231.992 35.0463 234.832 31.5416 234.832C14.1289 234.832 0 248.923 0 266.323H25.2223C25.2223 262.848 28.037 260.008 31.5416 260.008C33.6941 260.008 35.8189 259.787 37.861 259.374V278.924H63.0833V253.721H50.4722C58.1161 247.985 63.0833 238.831 63.0833 228.518Z" fill="white"/>
<path d="M151.389 215.916V241.12C168.801 241.12 182.93 227.001 182.93 209.602H157.708C157.68 213.076 154.866 215.916 151.389 215.916Z" fill="white"/>
<path d="M214.445 253.721H189.223V278.924H214.445V253.721Z" fill="white"/>
<path d="M189.223 302.198V304.156V327.401H214.445V304.156V302.198V278.925H189.223V302.198Z" fill="white"/>
<path d="M290.139 253.721H264.917V278.924H290.139V253.721Z" fill="white"/>
<path d="M327.973 253.721H302.751V278.924H327.973V253.721Z" fill="white"/>
<path d="M252.305 253.721H227.083V278.924H252.305V253.721Z" fill="white"/>
<path d="M327.973 278.925H302.751V304.128H327.973V278.925Z" fill="white"/>
<path d="M227.082 228.518V253.721H252.304V228.518C252.304 211.118 238.175 197 220.763 197H214.443H195.513H189.193V222.203V228.518V247.434V253.749H214.416V247.434V228.518V222.203H220.763C224.24 222.203 227.082 225.044 227.082 228.518Z" fill="white"/>
<path d="M100.917 278.925H75.6943V304.128H100.917V278.925Z" fill="white"/>
<path d="M296.459 222.203C279.046 222.203 264.917 236.321 264.917 253.721H290.139C290.139 250.247 292.954 247.406 296.459 247.406C299.936 247.406 302.75 250.219 302.75 253.721H327.973C328 236.321 313.871 222.203 296.459 222.203Z" fill="white"/>
<path d="M258.599 285.239C255.122 285.239 252.28 282.427 252.28 278.925H227.058C227.058 296.324 241.187 310.443 258.599 310.443C276.012 310.443 290.141 296.324 290.141 278.925H264.919C264.919 282.427 262.104 285.239 258.599 285.239Z" fill="white"/>
<path d="M138.751 278.925H113.528V304.128H138.751V278.925Z" fill="white"/>
<path d="M176.611 278.925H151.389V304.128H176.611V278.925Z" fill="white"/>
<path d="M113.529 278.924H138.751V253.721V228.6C138.751 228.573 138.751 228.545 138.751 228.518H113.529V228.545C113.529 232.02 110.687 234.832 107.21 234.832H100.89V228.518H75.668V253.721V278.924H100.89V260.008H107.21C109.362 260.008 111.487 259.787 113.529 259.374V278.924Z" fill="white"/>
<path d="M176.611 253.721H151.389V278.924H176.611V253.721Z" fill="white"/>
<path d="M63.0563 278.925H37.834V304.128H63.0563V278.925Z" fill="white"/>
</g>
</mask>
<g mask="url(#mask1_132_582)">
<g filter="url(#filter0_f_132_582)">
<ellipse cx="164" cy="267.5" rx="164" ry="68.5" fill="white"/>
</g>
</g>
</g>
<defs>
<filter id="filter0_f_132_582" x="-334" y="-135" width="996" height="805" filterUnits="userSpaceOnUse" color-interpolation-filters="sRGB">
<feFlood flood-opacity="0" result="BackgroundImageFix"/>
<feBlend mode="normal" in="SourceGraphic" in2="BackgroundImageFix" result="shape"/>
<feGaussianBlur stdDeviation="167" result="effect1_foregroundBlur_132_582"/>
</filter>
<linearGradient id="paint0_linear_132_582" x1="300.069" y1="435.852" x2="300.069" y2="-0.14789" gradientUnits="userSpaceOnUse">
<stop stop-color="#31912A"/>
<stop offset="1" stop-color="#89E685"/>
</linearGradient>
<radialGradient id="paint1_radial_132_582" cx="0" cy="0" r="1" gradientUnits="userSpaceOnUse" gradientTransform="translate(-144.486 -67.0002) rotate(45.616) scale(721.047 4090.57)">
<stop stop-color="#3C9C35" stop-opacity="0.33"/>
<stop offset="0.546875" stop-color="#5BBF71" stop-opacity="0.696406"/>
<stop offset="1" stop-color="#65BB61"/>
</radialGradient>
<clipPath id="clip0_132_582">
<rect width="328" height="138.673" fill="white" transform="translate(0 197)"/>
</clipPath>
</defs>
</svg>
