<svg width="328" height="620" viewBox="0 0 328 620" fill="none" xmlns="http://www.w3.org/2000/svg">
<path d="M328 596C328 600.418 324.418 604 320 604V604C315.582 604 312 607.582 312 612V612C312 616.418 308.418 620 304 620L8 620C3.58172 620 3.13127e-07 616.418 6.99385e-07 612L4.82574e-05 68C4.86436e-05 63.5817 3.58177 60 8.00005 60L168 60C172.418 60 176 56.4183 176 52L176 7.99999C176 3.58171 179.582 -1.29751e-05 184 -1.25889e-05L320 -6.99383e-07C324.418 -3.13124e-07 328 3.58172 328 8L328 596Z" fill="white"/>
</svg>
