<svg width="1920" height="510" viewBox="0 0 1920 510" fill="none" xmlns="http://www.w3.org/2000/svg">
<path d="M1920 510H0V136C0 127.163 7.16345 120 16 120H929C937.837 120 945 112.837 945 104V16C945 7.16345 952.163 0 961 0H1904C1912.84 0 1920 7.16345 1920 16V510Z" fill="url(#paint0_linear_85_3410)"/>
<path d="M1920 510H0V136C0 127.163 7.16345 120 16 120H929C937.837 120 945 112.837 945 104V16C945 7.16345 952.163 0 961 0H1904C1912.84 0 1920 7.16345 1920 16V510Z" fill="url(#paint1_radial_85_3410)"/>
<mask id="mask0_85_3410" style="mask-type:alpha" maskUnits="userSpaceOnUse" x="0" y="0" width="1920" height="510">
<path d="M1920 510H0V136C0 127.163 7.16345 120 16 120H929C937.837 120 945 112.837 945 104V16C945 7.16345 952.163 0 961 0H1904C1912.84 0 1920 7.16345 1920 16V510Z" fill="url(#paint2_linear_85_3410)"/>
<path d="M1920 510H0V136C0 127.163 7.16345 120 16 120H929C937.837 120 945 112.837 945 104V16C945 7.16345 952.163 0 961 0H1904C1912.84 0 1920 7.16345 1920 16V510Z" fill="url(#paint3_radial_85_3410)"/>
</mask>
<g mask="url(#mask0_85_3410)">
<g opacity="0.8" filter="url(#filter0_f_85_3410)">
<circle cx="1909.5" cy="-74.5" r="333.5" transform="rotate(180 1909.5 -74.5)" fill="url(#paint4_linear_85_3410)"/>
</g>
<g opacity="0.8" filter="url(#filter1_f_85_3410)">
<circle cx="114" cy="568" r="234" transform="rotate(180 114 568)" fill="url(#paint5_linear_85_3410)"/>
</g>
<g opacity="0.8" filter="url(#filter2_f_85_3410)">
<circle cx="454.5" cy="636.5" r="315.5" transform="rotate(180 454.5 636.5)" fill="white"/>
</g>
</g>
<defs>
<filter id="filter0_f_85_3410" x="816" y="-1168" width="2187" height="2187" filterUnits="userSpaceOnUse" color-interpolation-filters="sRGB">
<feFlood flood-opacity="0" result="BackgroundImageFix"/>
<feBlend mode="normal" in="SourceGraphic" in2="BackgroundImageFix" result="shape"/>
<feGaussianBlur stdDeviation="380" result="effect1_foregroundBlur_85_3410"/>
</filter>
<filter id="filter1_f_85_3410" x="-590" y="-136" width="1408" height="1408" filterUnits="userSpaceOnUse" color-interpolation-filters="sRGB">
<feFlood flood-opacity="0" result="BackgroundImageFix"/>
<feBlend mode="normal" in="SourceGraphic" in2="BackgroundImageFix" result="shape"/>
<feGaussianBlur stdDeviation="235" result="effect1_foregroundBlur_85_3410"/>
</filter>
<filter id="filter2_f_85_3410" x="-341" y="-159" width="1591" height="1591" filterUnits="userSpaceOnUse" color-interpolation-filters="sRGB">
<feFlood flood-opacity="0" result="BackgroundImageFix"/>
<feBlend mode="normal" in="SourceGraphic" in2="BackgroundImageFix" result="shape"/>
<feGaussianBlur stdDeviation="240" result="effect1_foregroundBlur_85_3410"/>
</filter>
<linearGradient id="paint0_linear_85_3410" x1="1756.5" y1="-91.8053" x2="1756.5" y2="482.195" gradientUnits="userSpaceOnUse">
<stop stop-color="#31912A"/>
<stop offset="1" stop-color="#89E685"/>
</linearGradient>
<radialGradient id="paint1_radial_85_3410" cx="0" cy="0" r="1" gradientUnits="userSpaceOnUse" gradientTransform="translate(-1545.88 776.176) rotate(-13.6115) scale(3757.93 9413.23)">
<stop stop-color="#3C9C35" stop-opacity="0.33"/>
<stop offset="1" stop-color="#47D97E"/>
</radialGradient>
<linearGradient id="paint2_linear_85_3410" x1="1756.5" y1="-91.8053" x2="1756.5" y2="482.195" gradientUnits="userSpaceOnUse">
<stop stop-color="#31912A"/>
<stop offset="1" stop-color="#89E685"/>
</linearGradient>
<radialGradient id="paint3_radial_85_3410" cx="0" cy="0" r="1" gradientUnits="userSpaceOnUse" gradientTransform="translate(-1545.88 776.176) rotate(-13.6115) scale(3757.93 9413.23)">
<stop stop-color="#3C9C35" stop-opacity="0.33"/>
<stop offset="1" stop-color="#7EDC7A"/>
</radialGradient>
<linearGradient id="paint4_linear_85_3410" x1="2275.08" y1="-111.981" x2="1558.68" y2="-81.7433" gradientUnits="userSpaceOnUse">
<stop stop-color="#2A90ED"/>
<stop offset="1" stop-color="#1BE3F0"/>
</linearGradient>
<linearGradient id="paint5_linear_85_3410" x1="370.511" y1="541.702" x2="-132.152" y2="562.918" gradientUnits="userSpaceOnUse">
<stop stop-color="#2A90ED"/>
<stop offset="1" stop-color="#1BE3F0"/>
</linearGradient>
</defs>
</svg>
