<?xml version="1.0" encoding="utf-8"?>
<!-- Generator: Adobe Illustrator 22.1.0, SVG Export Plug-In . SVG Version: 6.00 Build 0)  -->
<svg version="1.1" id="Layer_1" xmlns="http://www.w3.org/2000/svg" xmlns:xlink="http://www.w3.org/1999/xlink" x="0px" y="0px"
	 viewBox="0 0 709.1 72.7" style="enable-background:new 0 0 709.1 72.7;" xml:space="preserve">
<style type="text/css">
	.st0{fill:#FF0000;}
	.st1{fill:#FF8000;}
	.st2{fill:#17599D;}
	.st3{fill:#F7A619;}
	.st4{fill:#D30000;}
	.st5{fill:#003E99;}
	.st6{fill:#50B27E;}
</style>
<title>verified</title>
<g>
	<g>
		<path class="st0" d="M587.4,34c0.1-1.5,1.3-2.6,2.8-2.6c1.5,0.1,2.6,1.3,2.6,2.8c-0.1,1.4-1.2,2.6-2.7,2.6
			C588.6,36.8,587.4,35.6,587.4,34z M590.1,36.2c1.2,0.1,2.2-0.9,2.3-2c0.1-1.2-0.9-2.2-2-2.3c-1.2-0.1-2.2,0.9-2.3,2V34
			C588.1,35.2,589,36.2,590.1,36.2z M589.8,35.3h-0.6v-2.5h1c0.2,0,0.4,0,0.6,0.1c0.2,0.2,0.3,0.4,0.3,0.6c0,0.3-0.2,0.5-0.4,0.6
			l0.4,1.1h-0.6l-0.4-1h-0.4L589.8,35.3L589.8,35.3z M589.8,33.9h0.3c0.1,0,0.2,0,0.3,0c0.1-0.1,0.1-0.2,0.1-0.3s-0.1-0.2-0.1-0.3
			c-0.1,0-0.2-0.1-0.3,0h-0.3V33.9L589.8,33.9z"/>
		<path class="st0" d="M549.1,15.3l-0.7,4.8c-1.2-0.7-2.6-1.2-4.1-1.2c-3.3,0-5.7,3.4-5.7,8.3c0,3.4,1.6,5.4,4.2,5.4
			c1.3-0.1,2.7-0.5,3.8-1.1l-0.8,5c-1.3,0.4-2.6,0.6-4,0.6c-4.9,0-7.9-3.7-7.9-9.5c0-7.9,4.2-13.4,10.1-13.4c0.7,0,1.4,0.1,2,0.2
			l1.9,0.5C548.5,15.1,548.7,15.1,549.1,15.3z"/>
		<path class="st0" d="M534.2,18.6c-0.1,0-0.3,0-0.5,0c-1.5,0-2.3,0.8-3.7,2.9l0.4-2.7h-4.1l-2.8,18h4.5c1.6-11,2-12.9,4.2-12.9
			c0.1,0,0.2,0,0.3,0c0.3-1.8,0.9-3.6,1.7-5.2V18.6z"/>
		<path class="st0" d="M507.3,36.4c-1,0.4-2.1,0.6-3.2,0.6c-2.3,0-3.5-1.4-3.5-3.9c0-0.5,0-1.1,0.1-1.6l0.3-1.7l0.2-1.4l1.9-12.2
			h4.5l-0.5,2.7h2.3l-0.6,4.4h-2.3l-1.2,7.5c0,0.3-0.1,0.6-0.1,0.7c0,0.9,0.5,1.3,1.5,1.3c0.4,0,0.8,0,1.2-0.2L507.3,36.4z"/>
		<path class="st0" d="M489.6,24.4c0,2.3,1,3.8,3.4,5c1.8,0.9,2.1,1.2,2.1,2c0,1.1-0.8,1.6-2.6,1.6c-1.4,0-2.7-0.2-4-0.7l-0.6,4.1
			h0.2l0.8,0.2c0.3,0.1,0.7,0.1,1.2,0.2c1.1,0.1,1.9,0.1,2.4,0.1c4.7,0,6.9-1.9,6.9-6c0.2-2.2-1.1-4.2-3.2-5
			c-1.9-0.9-2.1-1.1-2.1-1.9c0-1,0.7-1.5,2.2-1.5c1.1,0,2.2,0.1,3.2,0.3l0.6-4.1c-1.3-0.2-2.6-0.3-3.9-0.4
			C491.3,18.3,489.6,21.1,489.6,24.4z"/>
		<path class="st0" d="M584.8,36.7h-4.3l0.2-1.8c-1,1.3-2.5,2-4.2,2c-3.2,0-5.4-3-5.4-7.4c0-6,3.3-11,7.3-11c1.7,0,3.1,0.8,4.3,2.4
			l1-6.3h4.4L584.8,36.7z M578.2,32.5c2.1,0,3.6-2.5,3.6-6c0-2.3-0.8-3.5-2.4-3.5c-2,0-3.5,2.5-3.5,6
			C575.9,31.2,576.7,32.4,578.2,32.5L578.2,32.5z"/>
		<path class="st0" d="M521.5,36.3c-1.5,0.5-3,0.7-4.6,0.7c-5,0-7.6-2.8-7.6-8c0-6.2,3.3-10.7,7.9-10.7c3.7,0,6.1,2.5,6.1,6.5
			c0,1.5-0.2,3-0.6,4.4h-8.9c0,0.2,0,0.4,0,0.6c0,2.1,1.3,3.2,3.9,3.2c1.6,0,3.2-0.4,4.7-1.1L521.5,36.3z M519,25.6
			c0-0.4,0-0.7,0-0.9c0-1.5-0.8-2.3-2.1-2.3c-1.3,0-2.4,1.1-2.9,3.2L519,25.6z"/>
		<polygon class="st0" points="471.5,36.7 467.1,36.7 469.6,19.7 463.9,36.7 460.8,36.7 460.4,19.8 457.7,36.7 453.5,36.7 457,14.6
			463.5,14.6 463.7,28.2 468,14.6 475,14.6 		"/>
		<path class="st0" d="M483.1,28.7c-0.3,0-0.7-0.1-1-0.1c-2.5,0-3.8,0.9-3.8,2.7c-0.1,0.9,0.5,1.7,1.4,1.8c0.1,0,0.1,0,0.2,0
			C481.7,33.2,483,31.3,483.1,28.7z M486.3,36.6h-3.7l0.1-1.9c-1.1,1.5-2.9,2.3-4.7,2.2c-2.4,0-4.1-2-4.1-4.9c0-4.4,2.9-6.9,7.9-6.9
			c0.6,0,1.2,0,1.8,0.1c0.1-0.4,0.2-0.8,0.2-1.2c0-1.2-0.8-1.6-2.9-1.6c-1.3,0-2.5,0.2-3.7,0.5l-0.6,0.2l-0.4,0.1l0.6-4.1
			c1.7-0.6,3.6-0.9,5.4-1c3.9,0,5.9,1.8,5.9,5.3c0,1.2-0.1,2.4-0.4,3.6l-0.9,6.4l-0.2,1.1l-0.1,0.9l-0.1,0.6L486.3,36.6z"/>
		<path class="st0" d="M556.8,28.7c-0.3,0-0.7-0.1-1-0.1c-2.6,0-3.9,0.9-3.9,2.7c-0.1,0.9,0.5,1.7,1.4,1.8c0.1,0,0.1,0,0.2,0
			C555.4,33.2,556.7,31.3,556.8,28.7z M560,36.6h-3.7l0.1-1.9c-1.1,1.5-2.9,2.3-4.7,2.2c-2.4,0-4.1-2-4.1-4.9c0-4.4,2.9-6.9,7.9-6.9
			c0.6,0,1.2,0,1.8,0.1c0.1-0.4,0.2-0.8,0.2-1.2c0-1.2-0.8-1.6-2.9-1.6c-1.3,0-2.5,0.2-3.7,0.5l-0.6,0.2l-0.4,0.1l0.6-4.1
			c1.7-0.6,3.5-0.9,5.4-1c3.9,0,5.9,1.8,5.9,5.3c0,1.2-0.2,2.4-0.4,3.6l-0.9,6.4l-0.1,1.1l-0.1,0.9l-0.1,0.6L560,36.6z"/>
		<path class="st0" d="M572.6,18.6c-0.1,0-0.3,0-0.5,0c-1.5,0-2.3,0.8-3.7,2.9l0.4-2.7h-4.1l-2.7,18h4.5c1.6-11,2-12.9,4.2-12.9
			c0.1,0,0.2,0,0.3,0c0.3-1.8,0.9-3.6,1.7-5.2L572.6,18.6z"/>
		<path class="st1" d="M553.7,54c0,4.1-1.3,6.5-3.2,6.5c-1.4,0-2.3-1.6-2.3-4c0-2.9,1.3-6.1,3.3-6.1C553.2,50.4,553.7,52.2,553.7,54
			z M558.2,54.1c0-4.5-2.2-8-6.4-8c-4.8,0-8,4.3-8,10.6c0,4.5,1.9,8.2,6.4,8.2S558.2,61.6,558.2,54.1L558.2,54.1z"/>
		<path class="st1" d="M545.2,42.9l-0.7,4.8c-1.1-0.7-2.4-1.1-3.8-1.2c-3.1,0-5.3,3.4-5.3,8.3c0,3.3,1.5,5.4,3.9,5.4
			c1.3-0.1,2.5-0.5,3.6-1.1l-0.7,5c-1.2,0.4-2.5,0.6-3.7,0.6c-4.5,0-7.3-3.7-7.3-9.5c0-7.9,3.9-13.4,9.5-13.4c0.6,0,1.3,0.1,1.9,0.2
			l1.7,0.5C544.8,42.7,544.9,42.7,545.2,42.9z"/>
		<path class="st1" d="M517.5,46.2c-0.1,0-0.3-0.1-0.4,0c-1.4,0-2.2,0.8-3.4,2.9l0.4-2.7h-3.8l-2.6,17.9h4.2
			c1.5-11,1.9-12.9,3.9-12.9c0.1,0,0.2,0,0.3,0c0.3-1.8,0.8-3.6,1.6-5.2H517.5z"/>
		<path class="st1" d="M572.2,64.1h-4l0.2-1.7c-0.9,1.2-2.3,2-3.9,2c-3.1,0-5.1-3-5.1-7.4c0-6,3.1-11,6.8-11c1.6,0,2.9,0.8,4,2.4
			l0.9-6.3h4.1L572.2,64.1z M566,59.9c2,0,3.3-2.5,3.3-6c0-2.3-0.8-3.5-2.2-3.5c-1.9,0-3.2,2.5-3.2,6
			C563.9,58.7,564.6,59.9,566,59.9L566,59.9z"/>
		<path class="st1" d="M478.1,64c-1.4,0.5-2.8,0.7-4.3,0.7c-4.7,0-7.1-2.8-7.1-8c0-6.1,3.1-10.7,7.3-10.7c3.5,0,5.7,2.5,5.7,6.5
			c0,1.5-0.2,3-0.5,4.4h-8.4c0,0.3,0,0.4,0,0.6c0,2.1,1.3,3.1,3.7,3.1c1.5,0,3-0.4,4.4-1.1L478.1,64z M475.8,53.3c0-0.4,0-0.7,0-0.9
			c0-1.5-0.7-2.3-2-2.3s-2.3,1.2-2.7,3.2H475.8z"/>
		<path class="st1" d="M528,64c-1.4,0.5-2.8,0.7-4.3,0.7c-4.7,0-7.1-2.8-7.1-8c0-6.1,3.1-10.7,7.3-10.7c3.5,0,5.7,2.5,5.7,6.5
			c0,1.5-0.2,3-0.5,4.4h-8.3c0,0.3,0,0.4,0,0.6c0,2.1,1.3,3.1,3.7,3.1c1.5,0,3-0.4,4.4-1.1L528,64z M525.7,53.3c0-0.4,0-0.7,0-0.9
			c0-1.5-0.7-2.3-2-2.3s-2.3,1.2-2.7,3.2H525.7z"/>
		<path class="st1" d="M586.6,64c-1.4,0.5-2.8,0.7-4.3,0.7c-4.7,0-7.1-2.8-7.1-8c0-6.1,3.1-10.7,7.3-10.7c3.5,0,5.7,2.5,5.7,6.5
			c0,1.5-0.2,3-0.5,4.4h-8.4c0,0.2,0,0.4,0,0.6c0,2.1,1.3,3.1,3.7,3.1c1.5,0,3-0.4,4.4-1.1L586.6,64z M584.2,53.3c0-0.4,0-0.7,0-0.9
			c0-1.5-0.7-2.3-2-2.3c-1.3,0-2.3,1.2-2.7,3.2H584.2z"/>
		<path class="st1" d="M465.7,47c-1-0.7-2.3-1.1-3.5-1c-1.7,0-3.1,0.3-3.1,2.2c0,3.2,6.2,2,6.2,8.8c0,6.2-4.1,7.8-7.8,7.8
			c-1.7-0.1-3.4-0.5-4.9-1.2l1-4.6c1.1,0.8,2.5,1.3,3.9,1.3c1.3,0,3.4-0.4,3.4-2.7c0-3.6-6.2-2.3-6.2-8.6c0-5.8,3.6-7.5,7.1-7.5
			c2,0,3.8,0.3,4.9,1L465.7,47z"/>
		<path class="st1" d="M490.4,64c-1.2,0.5-2.4,0.7-3.7,0.7c-3.7,0-5.9-3.7-5.9-8.1c0-5.8,3.2-10.5,8.1-10.5c1.4,0.1,2.8,0.5,4,1.2
			l-0.9,4.3c-0.8-0.6-1.8-0.9-2.8-1c-2.2,0-3.8,2.1-3.8,5.7c0,2.1,1.2,3.9,3,3.9c1,0,2-0.3,2.8-0.8L490.4,64z"/>
		<path class="st1" d="M506.1,59.5c-0.2,1.5-0.4,3-0.5,4.6h-4.1l0.3-2.9l0,0c-1.3,2-2.6,3.3-4.9,3.3c-2.5,0-3.9-2.7-3.9-6.1
			c0-1.3,0.1-2.5,0.3-3.8l1.1-8.3h4.5l-1.2,8.3c-0.2,0.9-0.3,1.8-0.3,2.7c0,1,0.5,2.1,1.7,2c1.8,0,2.9-2.3,3.2-4.9l1.2-8.2h4.3
			L506.1,59.5z"/>
		<path class="st1" d="M590.7,63.9h-0.6v-3h-1v-0.6h2.6v0.6h-1V63.9L590.7,63.9z"/>
		<path class="st1" d="M595.2,63.9h-0.6v-3l0,0l-0.6,3h-0.7l-0.6-3l0,0v3h-0.6v-3.6h1l0.6,2.8l0,0l0.6-2.8h1L595.2,63.9L595.2,63.9z
			"/>
	</g>
	<polygon class="st2" points="340.4,67.5 343.7,48.6 348.9,48.6 345.6,67.5 	"/>
	<path class="st2" d="M364.3,49.2c-1.5-0.5-3.1-0.8-4.6-0.8c-5.1,0-8.7,2.6-8.7,6.3c0,2.7,2.6,4.2,4.5,5.2s2.7,1.5,2.7,2.4
		c0,1.3-1.6,1.9-3.1,1.9c-1.7,0-3.3-0.3-4.9-1l-0.7-0.3l-0.7,4.2c1.8,0.7,3.8,1,5.8,1c5.4,0,8.9-2.5,9-6.5c0-2.1-1.4-3.8-4.3-5.2
		c-1.8-0.9-2.9-1.4-2.9-2.3s0.9-1.6,3-1.6c1.3,0,2.6,0.2,3.9,0.7l0.5,0.2L364.3,49.2L364.3,49.2L364.3,49.2z"/>
	<path class="st2" d="M377.6,48.8h-4c-1.2-0.1-2.3,0.5-2.7,1.6l-7.7,17.4h5.4c0,0,0.9-2.4,1.1-2.9h6.6c0.2,0.7,0.6,2.9,0.6,2.9h4.8
		L377.6,48.8L377.6,48.8L377.6,48.8z M371.2,61l2.1-5.3c0,0,0.4-1.1,0.7-1.8l0.3,1.6c0,0,1,4.5,1.2,5.5H371.2L371.2,61z"/>
	<path class="st2" d="M336.1,48.6L331,61.5l-0.5-2.6c-1.3-3.5-3.9-6.3-7.2-8l4.6,16.6h5.5l8.1-18.9H336.1L336.1,48.6z"/>
	<path class="st3" d="M326.3,48.6H318V49c6.5,1.6,10.8,5.4,12.6,9.9l-1.8-8.7C328.5,49.2,327.5,48.5,326.3,48.6L326.3,48.6
		L326.3,48.6z"/>
	<polygon class="st2" points="315,22 320.5,22 317.1,43.6 311.6,43.6 	"/>
	<path class="st2" d="M295.8,22h8.5c5.4,0,6.8,3.1,6.2,6.8c-0.5,2.9-2.7,5.3-5.6,5.9l5.4,8.8h-7l-4-8.4l-1.3,8.4h-5.6L295.8,22
		L295.8,22L295.8,22z M300.6,26.3l-0.9,5.4h1.6c1.6,0,3-1.1,3.3-2.7l0,0c0.2-1.2-0.6-2.4-1.8-2.7c-0.2,0-0.4,0-0.6,0L300.6,26.3
		L300.6,26.3z"/>
	<polygon class="st2" points="340.3,22 345.9,22 342.5,43.6 336.9,43.6 	"/>
	<polygon class="st2" points="350.1,22.2 362.3,22.2 361.5,26.9 354.9,26.9 354.3,30.6 360.6,30.6 359.9,35.3 353.6,35.3 353,39.1
		359.6,39.1 358.8,43.7 346.7,43.7 	"/>
	<polygon class="st2" points="280.3,22 292.5,22 291.8,26.7 285.1,26.7 284.5,30.4 290.8,30.4 290.1,35.1 283.8,35.1 283.2,38.9
		289.8,38.9 289.1,43.6 276.9,43.6 	"/>
	<polygon class="st2" points="324.7,22 337.1,22 336.3,26.7 329.5,26.7 329,30.4 335.1,30.4 334.4,35.1 328.2,35.1 326.9,43.6
		321.3,43.6 	"/>
	<path class="st2" d="M372.7,22.2h-7.2l-3.4,21.5h7.2c6.9,0,12.3-4.7,13.3-10.8C383.3,28.7,381.3,22.2,372.7,22.2z M376.9,32.8
		c-0.6,3.9-3.4,6.3-7,6.3h-1.6l2-12.2h1.1C375.7,26.9,377.3,29.9,376.9,32.8L376.9,32.8z"/>
	<path class="st2" d="M254.3,19.1h10.3l1.2,15.6c6.8-11.8,13.7-23,20.6-34.2h3.3c-7.4,14.2-14.6,28.5-21.6,43h-7.5l-1.8-17.2
		c-0.5-4.3-1.3-6.1-4.4-6.6L254.3,19.1L254.3,19.1L254.3,19.1z"/>
	<polygon class="st3" points="258.2,10.2 267,13.9 267.7,23.7 268.4,23.7 276.3,10.2 276.3,9.6 258.2,9.6 	"/>
	<polygon class="st2" points="304.8,55.8 309.1,55.8 311,61.8 314.8,55.8 318.9,55.8 308,73.3 303.8,73.3 308.4,65.9 	"/>
	<path class="st2" d="M300.2,55.5c-1.4,0-2.7,0.6-3.7,1.6l1.2-8.5h-3.6l-2.7,18.9h3.6l0.2-1.3c0.7,1.1,1.9,1.7,3.1,1.7
		c2.9,0,5.6-2.8,6.1-6.2C305,58.3,303.1,55.5,300.2,55.5z M300.7,61.7c-0.2,1.5-1.3,2.6-2.8,2.7c-1.2-0.1-2.1-1.1-2.1-2.3
		c0-0.1,0-0.3,0.1-0.4c0.2-1.5,1.3-2.6,2.8-2.7c1.2,0.1,2.1,1.1,2.1,2.3C300.7,61.4,300.7,61.6,300.7,61.7z"/>
	<g>
		<path class="st4" d="M11.1,36.2h3c1.5,0,2.7-0.4,3.5-1.2s1.3-1.9,1.3-3.3c0-1.4-0.4-2.5-1.1-3.2c-0.7-0.8-1.8-1.1-3.3-1.1
			c-1.3,0-2.4,0.4-3.2,1.1S10,30.2,10,31.4H5.2c0-1.5,0.4-2.8,1.2-4.1c0.8-1.2,1.9-2.2,3.3-2.9c1.4-0.7,3-1,4.8-1
			c2.9,0,5.2,0.7,6.8,2.2s2.5,3.5,2.5,6.1c0,1.3-0.4,2.5-1.2,3.7c-0.8,1.2-1.9,2-3.2,2.6c1.6,0.5,2.8,1.4,3.6,2.6
			c0.8,1.2,1.2,2.6,1.2,4.2c0,2.6-0.9,4.7-2.7,6.2c-1.8,1.5-4.1,2.3-7.1,2.3c-2.8,0-5.1-0.7-6.9-2.2s-2.7-3.5-2.7-5.9h4.8
			c0,1.3,0.4,2.3,1.3,3.1c0.9,0.8,2,1.2,3.5,1.2s2.7-0.4,3.5-1.2c0.9-0.8,1.3-2,1.3-3.5s-0.5-2.7-1.4-3.5s-2.2-1.2-4-1.2h-2.9v-3.9
			H11.1z"/>
		<path class="st3" d="M29.5,53V24h8.6c2.6,0,4.8,0.6,6.8,1.7s3.5,2.8,4.6,4.9s1.6,4.5,1.6,7.2v1.5c0,2.8-0.5,5.2-1.6,7.3
			s-2.7,3.7-4.7,4.8s-4.4,1.7-7,1.7L29.5,53L29.5,53z M34.6,28v20.9h3.3c2.6,0,4.7-0.8,6.1-2.5c1.4-1.7,2.1-4,2.2-7.1v-1.6
			c0-3.1-0.7-5.5-2.1-7.2s-3.4-2.5-6-2.5C38.1,28,34.6,28,34.6,28z"/>
		<path class="st5" d="M81.6,45.5c0-1.3-0.4-2.3-1.3-3s-2.5-1.4-4.9-2.1s-4.2-1.5-5.6-2.4c-2.6-1.7-4-3.8-4-6.5c0-2.3,1-4.3,2.9-5.8
			s4.4-2.3,7.4-2.3c2,0,3.8,0.4,5.4,1.1s2.8,1.8,3.7,3.2c0.9,1.4,1.4,2.9,1.4,4.6h-5c0-1.5-0.5-2.7-1.4-3.5s-2.3-1.3-4.1-1.3
			c-1.6,0-2.9,0.4-3.8,1.1s-1.4,1.7-1.4,2.9c0,1.1,0.5,1.9,1.5,2.7c1,0.7,2.6,1.4,4.9,2.1c2.3,0.7,4.1,1.4,5.4,2.3
			c1.4,0.9,2.4,1.8,3,3c0.6,1.1,1,2.4,1,3.9c0,2.4-0.9,4.3-2.8,5.8c-1.9,1.4-4.4,2.1-7.5,2.1c-2.1,0-4-0.4-5.8-1.2s-3.1-1.9-4.1-3.2
			c-1-1.4-1.5-3-1.5-4.8h5c0,1.6,0.5,2.9,1.6,3.8c1.1,0.9,2.7,1.4,4.7,1.4c1.8,0,3.1-0.4,4-1.1C81.1,47.6,81.6,46.7,81.6,45.5z"/>
		<path class="st5" d="M100.1,53.4c-3.1,0-5.6-1-7.5-2.9s-2.9-4.5-2.9-7.7v-0.6c0-2.2,0.4-4.1,1.2-5.8c0.8-1.7,2-3,3.5-4
			c1.5-0.9,3.2-1.4,5-1.4c2.9,0,5.2,0.9,6.8,2.8c1.6,1.9,2.4,4.5,2.4,8v2h-14c0.1,1.8,0.7,3.2,1.8,4.2c1,1,2.4,1.6,3.9,1.6
			c2.2,0,4-0.9,5.4-2.7l2.6,2.5c-0.9,1.3-2,2.3-3.5,3C103.5,53,101.9,53.4,100.1,53.4z M99.5,34.9c-1.3,0-2.4,0.5-3.2,1.4
			c-0.8,0.9-1.3,2.2-1.6,3.9h9.2v-0.4c-0.1-1.6-0.5-2.8-1.3-3.7S100.8,34.9,99.5,34.9z"/>
		<path class="st5" d="M121.3,49.5c1.2,0,2.2-0.4,3-1.1s1.2-1.6,1.3-2.6h4.6c-0.1,1.3-0.5,2.6-1.3,3.8s-1.8,2.1-3.2,2.8
			c-1.3,0.7-2.8,1-4.3,1c-3,0-5.4-1-7.2-2.9s-2.7-4.7-2.7-8.1v-0.5c0-3.3,0.9-5.9,2.6-7.9c1.8-2,4.1-3,7.2-3c2.6,0,4.7,0.7,6.3,2.2
			c1.6,1.5,2.5,3.5,2.5,5.9h-4.6c-0.1-1.2-0.5-2.3-1.3-3.1s-1.8-1.2-3-1.2c-1.6,0-2.8,0.6-3.6,1.7c-0.9,1.1-1.3,2.9-1.3,5.2v0.8
			c0,2.3,0.4,4.1,1.3,5.2C118.5,48.9,119.7,49.5,121.3,49.5z"/>
		<path class="st5" d="M146.9,50.9c-1.4,1.7-3.4,2.5-6.1,2.5c-2.3,0-4.1-0.7-5.3-2.1c-1.2-1.4-1.8-3.4-1.8-5.9v-14h4.8v13.9
			c0,2.7,1.1,4.1,3.4,4.1c2.4,0,3.9-0.8,4.8-2.5V31.4h4.8V53h-4.6L146.9,50.9z"/>
		<path class="st5" d="M167.9,35.8c-0.6-0.1-1.3-0.2-2-0.2c-2.2,0-3.7,0.9-4.5,2.6V53h-4.8V31.4h4.6l0.1,2.4
			c1.2-1.9,2.8-2.8,4.9-2.8c0.7,0,1.3,0.1,1.7,0.3V35.8z"/>
		<path class="st5" d="M180,53.4c-3.1,0-5.6-1-7.5-2.9s-2.9-4.5-2.9-7.7v-0.6c0-2.2,0.4-4.1,1.2-5.8s2-3,3.5-4
			c1.5-0.9,3.2-1.4,5-1.4c2.9,0,5.2,0.9,6.8,2.8s2.4,4.5,2.4,8v2h-14.1c0.1,1.8,0.7,3.2,1.8,4.2c1,1,2.4,1.6,3.9,1.6
			c2.2,0,4-0.9,5.4-2.7l2.6,2.5c-0.9,1.3-2,2.3-3.5,3C183.5,53,181.8,53.4,180,53.4z M179.5,34.9c-1.3,0-2.4,0.5-3.2,1.4
			s-1.3,2.2-1.6,3.9h9.2v-0.4c-0.1-1.6-0.5-2.8-1.3-3.7C181.9,35.3,180.8,34.9,179.5,34.9z"/>
	</g>
	<g>
		<path class="st6" d="M703,18.1l-21-6.3c-0.3-0.1-0.6-0.1-0.9,0l-21,6.3c-0.7,0.2-1.1,0.8-1.1,1.5v23.1c0,3,1.2,6.1,3.6,9.1
			c1.8,2.3,4.4,4.7,7.5,7c5.3,3.8,10.5,6.2,10.8,6.3c0.2,0.1,0.4,0.1,0.6,0.1s0.4,0,0.6-0.1c0.2-0.1,5.5-2.5,10.8-6.3
			c3.2-2.3,5.7-4.6,7.5-7c2.4-3.1,3.6-6.1,3.6-9.1V19.6C704.2,18.9,703.7,18.3,703,18.1z M692.1,48.5c0,0.6-0.5,1-1,1h-18.8
			c-0.6,0-1-0.5-1-1V36.3c0-0.6,0.5-1,1-1h1.4v-4.6c0-2.3,0.9-4.4,2.3-5.9c1.4-1.5,3.5-2.5,5.7-2.5s4.3,1,5.7,2.5s2.3,3.6,2.3,5.9
			v4.6h1.4c0.6,0,1,0.5,1,1L692.1,48.5L692.1,48.5z"/>
		<path class="st6" d="M681.6,26.1c-1.1,0-2.2,0.5-2.9,1.3c-0.8,0.8-1.3,2-1.3,3.3v4.6h8.4v-4.6c0-1.3-0.5-2.5-1.3-3.3
			C683.8,26.5,682.8,26.1,681.6,26.1z"/>
	</g>
</g>
</svg>
