<svg width="768" height="1020" viewBox="0 0 768 1020" fill="none" xmlns="http://www.w3.org/2000/svg">
<path d="M0 0L768 0V919C768 927.837 760.837 935 752 935H723V1004C723 1012.84 715.837 1020 707 1020H16C7.16344 1020 0 1012.84 0 1004V0Z" fill="url(#paint0_linear_123_2900)"/>
<path d="M0 0L768 0V919C768 927.837 760.837 935 752 935H723V1004C723 1012.84 715.837 1020 707 1020H16C7.16344 1020 0 1012.84 0 1004V0Z" fill="url(#paint1_radial_123_2900)"/>
<mask id="mask0_123_2900" style="mask-type:alpha" maskUnits="userSpaceOnUse" x="0" y="0" width="768" height="1020">
<path d="M0 0L768 0V919C768 927.837 760.837 935 752 935H739C730.163 935 723 942.163 723 951V1004C723 1012.84 715.837 1020 707 1020H16C7.16344 1020 0 1012.84 0 1004V0Z" fill="url(#paint2_radial_123_2900)"/>
</mask>
<g mask="url(#mask0_123_2900)">
<g filter="url(#filter0_f_123_2900)">
<circle cx="416" cy="436" r="207" fill="url(#paint3_linear_123_2900)"/>
</g>
<g filter="url(#filter1_f_123_2900)">
<ellipse cx="865" cy="84" rx="240" ry="218" fill="url(#paint4_linear_123_2900)"/>
</g>
<g opacity="0.6" filter="url(#filter2_f_123_2900)">
<ellipse cx="606" cy="584" rx="219" ry="206" fill="white"/>
</g>
</g>
<defs>
<filter id="filter0_f_123_2900" x="-191" y="-171" width="1214" height="1214" filterUnits="userSpaceOnUse" color-interpolation-filters="sRGB">
<feFlood flood-opacity="0" result="BackgroundImageFix"/>
<feBlend mode="normal" in="SourceGraphic" in2="BackgroundImageFix" result="shape"/>
<feGaussianBlur stdDeviation="200" result="effect1_foregroundBlur_123_2900"/>
</filter>
<filter id="filter1_f_123_2900" x="225" y="-534" width="1280" height="1236" filterUnits="userSpaceOnUse" color-interpolation-filters="sRGB">
<feFlood flood-opacity="0" result="BackgroundImageFix"/>
<feBlend mode="normal" in="SourceGraphic" in2="BackgroundImageFix" result="shape"/>
<feGaussianBlur stdDeviation="200" result="effect1_foregroundBlur_123_2900"/>
</filter>
<filter id="filter2_f_123_2900" x="87" y="78" width="1038" height="1012" filterUnits="userSpaceOnUse" color-interpolation-filters="sRGB">
<feFlood flood-opacity="0" result="BackgroundImageFix"/>
<feBlend mode="normal" in="SourceGraphic" in2="BackgroundImageFix" result="shape"/>
<feGaussianBlur stdDeviation="150" result="effect1_foregroundBlur_123_2900"/>
</filter>
<linearGradient id="paint0_linear_123_2900" x1="-427.5" y1="589.805" x2="-427.5" y2="15.8051" gradientUnits="userSpaceOnUse">
<stop stop-color="#31912A"/>
<stop offset="1" stop-color="#89E685"/>
</linearGradient>
<radialGradient id="paint1_radial_123_2900" cx="0" cy="0" r="1" gradientUnits="userSpaceOnUse" gradientTransform="translate(2874.88 -278.174) rotate(166.389) scale(3757.93 9413.21)">
<stop stop-color="#3C9C35" stop-opacity="0.33"/>
<stop offset="1" stop-color="#47D97E"/>
</radialGradient>
<radialGradient id="paint2_radial_123_2900" cx="0" cy="0" r="1" gradientUnits="userSpaceOnUse" gradientTransform="translate(2874.88 -278.179) rotate(166.389) scale(3757.93 9413.21)">
<stop stop-color="#3C9C35" stop-opacity="0"/>
<stop offset="1" stop-color="#7EDC7A"/>
</radialGradient>
<linearGradient id="paint3_linear_123_2900" x1="642.914" y1="412.736" x2="198.25" y2="431.504" gradientUnits="userSpaceOnUse">
<stop stop-color="#2A90ED"/>
<stop offset="1" stop-color="#1BE3F0"/>
</linearGradient>
<linearGradient id="paint4_linear_123_2900" x1="1128.09" y1="59.4999" x2="612.73" y2="83.4468" gradientUnits="userSpaceOnUse">
<stop stop-color="#2A90ED"/>
<stop offset="1" stop-color="#1BE3F0"/>
</linearGradient>
</defs>
</svg>
