<svg width="156" height="12" viewBox="0 0 156 12" fill="none" xmlns="http://www.w3.org/2000/svg">
<g opacity="0.3" clip-path="url(#clip0_22759_306)">
<path d="M-0.015625 6.52582C40.007 4.97743 80.0297 3.42904 120.107 1.88066C121.484 1.82536 122.86 1.71476 124.236 1.54886C127.98 1.16176 131.338 1.16176 134.476 4.25854C137.779 7.57651 142.458 5.91752 146.642 5.97282C147.083 5.97282 147.523 4.97743 147.909 4.42443C149.12 2.59955 150.771 1.88066 152.918 2.48895C154.9 3.04195 156.001 4.47973 156.056 6.52582C156.111 8.6825 155.01 10.2862 152.863 10.8392C150.771 11.3922 148.844 10.8392 147.964 8.7931C147.248 7.13411 146.147 7.13411 144.716 7.07881C139.761 6.80232 134.971 7.02351 131.448 11.3922C131.008 11.9452 129.631 12.0005 128.696 11.9452C107.611 10.9498 86.5809 9.78849 65.496 8.959C43.4203 8.0742 22.0602 7.13411 -0.015625 6.52582Z" fill="#F9BE7C"/>
</g>
<defs>
<clipPath id="clip0_22759_306">
<rect width="156" height="12" fill="white"/>
</clipPath>
</defs>
</svg>
