<svg width="1200" height="656" viewBox="0 0 1200 656" fill="none" xmlns="http://www.w3.org/2000/svg">
<path d="M1200 590C1200 598.837 1192.84 606 1184 606L1172 606C1163.16 606 1156 613.163 1156 622L1156 640C1156 648.837 1148.84 656 1140 656L16 656C7.16345 656 6.26248e-07 648.836 1.39876e-06 640L4.94813e-05 89.9999C5.02538e-05 81.1633 7.1635 73.9999 16.0001 73.9999L275 73.9999C283.837 73.9999 291 66.8365 291 57.9999L291 15.9999C291 7.16337 298.164 -7.88411e-05 307 -7.80685e-05L1184 -1.39877e-06C1192.84 -6.26251e-07 1200 7.16345 1200 16L1200 590Z" fill="white"/>
</svg>
