<svg width="678" height="936" viewBox="0 0 678 936" fill="none" xmlns="http://www.w3.org/2000/svg">
<path d="M678 870C678 878.837 670.837 886 662 886L650 886C641.163 886 634 893.163 634 902L634 920C634 928.837 626.837 936 618 936L16 936C7.16345 936 6.26249e-07 928.836 1.39877e-06 920L7.39597e-05 89.9999C7.47322e-05 81.1634 7.16353 73.9999 16.0001 73.9999L275 74C283.837 74 291 66.8365 291 58L291 16C291 7.16342 298.164 -3.32064e-05 307 -3.24339e-05L662 -1.39877e-06C670.837 -6.26252e-07 678 7.16345 678 16L678 870Z" fill="white"/>
</svg>
