<svg width="360" height="841" viewBox="0 0 360 841" fill="none" xmlns="http://www.w3.org/2000/svg">
<path d="M360 841L-3.05176e-05 841L4.3005e-05 2.9563e-05L360 6.10352e-05L360 841Z" fill="url(#paint0_linear_137_721)"/>
<path d="M360 841L-3.05176e-05 841L4.3005e-05 2.9563e-05L360 6.10352e-05L360 841Z" fill="url(#paint1_radial_137_721)"/>
<mask id="mask0_137_721" style="mask-type:alpha" maskUnits="userSpaceOnUse" x="0" y="0" width="360" height="841">
<path d="M360 841L-3.05176e-05 841L4.3005e-05 2.9563e-05L360 6.10352e-05L360 841Z" fill="url(#paint2_radial_137_721)"/>
</mask>
<g mask="url(#mask0_137_721)">
<g filter="url(#filter0_f_137_721)">
<ellipse cx="366" cy="31" rx="140" ry="140" transform="rotate(-180 366 31)" fill="url(#paint3_linear_137_721)"/>
</g>
<g filter="url(#filter1_f_137_721)">
<ellipse cx="322" cy="770" rx="121" ry="110" transform="rotate(-180 322 770)" fill="url(#paint4_linear_137_721)"/>
</g>
<g opacity="0.6" filter="url(#filter2_f_137_721)">
<ellipse cx="-71.5" cy="279.5" rx="114.5" ry="114.5" transform="rotate(-180 -71.5 279.5)" fill="white"/>
</g>
</g>
<defs>
<filter id="filter0_f_137_721" x="-114" y="-449" width="960" height="960" filterUnits="userSpaceOnUse" color-interpolation-filters="sRGB">
<feFlood flood-opacity="0" result="BackgroundImageFix"/>
<feBlend mode="normal" in="SourceGraphic" in2="BackgroundImageFix" result="shape"/>
<feGaussianBlur stdDeviation="170" result="effect1_foregroundBlur_137_721"/>
</filter>
<filter id="filter1_f_137_721" x="-39" y="420" width="722" height="700" filterUnits="userSpaceOnUse" color-interpolation-filters="sRGB">
<feFlood flood-opacity="0" result="BackgroundImageFix"/>
<feBlend mode="normal" in="SourceGraphic" in2="BackgroundImageFix" result="shape"/>
<feGaussianBlur stdDeviation="120" result="effect1_foregroundBlur_137_721"/>
</filter>
<filter id="filter2_f_137_721" x="-446" y="-95" width="749" height="749" filterUnits="userSpaceOnUse" color-interpolation-filters="sRGB">
<feFlood flood-opacity="0" result="BackgroundImageFix"/>
<feBlend mode="normal" in="SourceGraphic" in2="BackgroundImageFix" result="shape"/>
<feGaussianBlur stdDeviation="130" result="effect1_foregroundBlur_137_721"/>
</filter>
<linearGradient id="paint0_linear_137_721" x1="862.499" y1="115.429" x2="862.499" y2="1033.18" gradientUnits="userSpaceOnUse">
<stop stop-color="#31912A"/>
<stop offset="1" stop-color="#89E685"/>
</linearGradient>
<radialGradient id="paint1_radial_137_721" cx="0" cy="0" r="1" gradientUnits="userSpaceOnUse" gradientTransform="translate(-2439.88 1503.2) rotate(-21.1636) scale(3916.54 14440.9)">
<stop stop-color="#3C9C35" stop-opacity="0.33"/>
<stop offset="1" stop-color="#47D97E"/>
</radialGradient>
<radialGradient id="paint2_radial_137_721" cx="0" cy="0" r="1" gradientUnits="userSpaceOnUse" gradientTransform="translate(-2439.88 1342.9) rotate(-16.3531) scale(3806.37 11261.9)">
<stop stop-color="#3C9C35" stop-opacity="0"/>
<stop offset="1" stop-color="#7EDC7A"/>
</radialGradient>
<linearGradient id="paint3_linear_137_721" x1="519.468" y1="15.266" x2="218.729" y2="27.9593" gradientUnits="userSpaceOnUse">
<stop stop-color="#2A90ED"/>
<stop offset="1" stop-color="#1BE3F0"/>
</linearGradient>
<linearGradient id="paint4_linear_137_721" x1="454.64" y1="757.638" x2="194.813" y2="769.701" gradientUnits="userSpaceOnUse">
<stop stop-color="#2A90ED"/>
<stop offset="1" stop-color="#1BE3F0"/>
</linearGradient>
</defs>
</svg>
