<svg width="24" height="24" viewBox="0 0 24 24" fill="none" xmlns="http://www.w3.org/2000/svg">
<path d="M21.1293 4.63184C21.6848 5.31354 22.149 6.06044 22.5418 6.85203L11.8391 14.3489L7.34375 11.6668V8.45758L11.8153 11.1174L21.1293 4.63184Z" fill="#21A038"/>
<path d="M2.78021 11.4468C2.78021 11.2922 2.78021 11.1618 2.80401 11.0072L0.0941183 10.875C0.0941183 11.0519 0.0703125 11.2494 0.0703125 11.4245C0.0703125 14.5033 1.39153 17.2953 3.52215 19.3181L5.44447 17.4928C3.79989 15.9543 2.78021 13.8216 2.78021 11.4468Z" fill="url(#paint0_linear_22843_1771)"/>
<path d="M11.8178 2.87203C11.9804 2.87203 12.1193 2.87203 12.282 2.89438L12.4209 0.322155C12.2344 0.322155 12.0261 0.299805 11.8416 0.299805C8.59804 0.299805 5.65604 1.55332 3.52344 3.57609L5.44576 5.40142C7.06852 3.84057 9.338 2.87203 11.8178 2.87203Z" fill="url(#paint1_linear_22843_1771)"/>
<path d="M11.8218 20.0226C11.6592 20.0226 11.5203 20.0226 11.3576 20.0002L11.2188 22.5724C11.4052 22.5724 11.6135 22.5948 11.798 22.5948C15.0416 22.5948 17.9855 21.3413 20.1162 19.3185L18.1938 17.4932C16.5711 19.0764 14.3234 20.0226 11.8218 20.0226Z" fill="url(#paint2_linear_22843_1771)"/>
<path d="M16.9089 4.36758L19.2022 2.76203C17.1867 1.22354 14.6156 0.277344 11.8125 0.277344V2.84957C13.713 2.87192 15.4726 3.42138 16.9089 4.36758Z" fill="url(#paint3_linear_22843_1771)"/>
<path d="M23.5901 11.4477C23.5901 10.766 23.5207 10.1066 23.4036 9.44727L20.8783 11.2279C20.8783 11.2931 20.8783 11.3825 20.8783 11.4477C20.8783 13.9771 19.7197 16.242 17.8906 17.8028L19.7197 19.7157C22.0844 17.6929 23.5901 14.724 23.5901 11.4477Z" fill="#21A038"/>
<path d="M11.8203 20.0232C9.15605 20.0232 6.76952 18.9243 5.12493 17.1865L3.10938 18.9243C5.2638 21.1892 8.36847 22.5955 11.8203 22.5955V20.0232Z" fill="url(#paint4_linear_22843_1771)"/>
<path d="M5.76982 5.09256L3.93875 3.17969C1.55222 5.2248 0.0703125 8.17141 0.0703125 11.4477H2.7802C2.7802 8.94066 3.93875 6.65527 5.76982 5.09256Z" fill="url(#paint5_linear_22843_1771)"/>
<defs>
<linearGradient id="paint0_linear_22843_1771" x1="3.23317" y1="19.0053" x2="0.74856" y2="11.3213" gradientUnits="userSpaceOnUse">
<stop offset="0.1444" stop-color="#F2E913"/>
<stop offset="0.3037" stop-color="#E7E518"/>
<stop offset="0.5823" stop-color="#CADB26"/>
<stop offset="0.891" stop-color="#A3CD39"/>
</linearGradient>
<linearGradient id="paint1_linear_22843_1771" x1="4.29639" y1="3.28572" x2="11.2097" y2="0.466967" gradientUnits="userSpaceOnUse">
<stop offset="0.0592" stop-color="#0FA8E0"/>
<stop offset="0.5385" stop-color="#0099F9"/>
<stop offset="0.9234" stop-color="#0291EB"/>
</linearGradient>
<linearGradient id="paint2_linear_22843_1771" x1="11.0604" y1="20.407" x2="19.3848" y2="18.3942" gradientUnits="userSpaceOnUse">
<stop offset="0.1226" stop-color="#A3CD39"/>
<stop offset="0.2846" stop-color="#86C339"/>
<stop offset="0.8693" stop-color="#21A038"/>
</linearGradient>
<linearGradient id="paint3_linear_22843_1771" x1="11.2557" y1="1.9163" x2="18.1429" y2="4.18992" gradientUnits="userSpaceOnUse">
<stop offset="0.0566" stop-color="#0291EB"/>
<stop offset="0.79" stop-color="#0C8ACB"/>
</linearGradient>
<linearGradient id="paint4_linear_22843_1771" x1="3.79846" y1="19.3312" x2="11.1627" y2="22.2752" gradientUnits="userSpaceOnUse">
<stop offset="0.1324" stop-color="#F2E913"/>
<stop offset="0.2977" stop-color="#EBE716"/>
<stop offset="0.5306" stop-color="#D9E01F"/>
<stop offset="0.8023" stop-color="#BBD62D"/>
<stop offset="0.9829" stop-color="#A3CD39"/>
</linearGradient>
<linearGradient id="paint5_linear_22843_1771" x1="2.14735" y1="11.7585" x2="4.8401" y2="4.26392" gradientUnits="userSpaceOnUse">
<stop offset="0.0698" stop-color="#A3CD39"/>
<stop offset="0.2599" stop-color="#81C55F"/>
<stop offset="0.9216" stop-color="#0FA8E0"/>
</linearGradient>
</defs>
</svg>
