<svg width="1920" height="1708" viewBox="0 0 1920 1708" fill="none" xmlns="http://www.w3.org/2000/svg">
<rect width="1920" height="1682" fill="#75A265"/>
<path d="M1264.02 63C1256.27 63 1250 69.27 1250 77C1250 69.27 1243.73 63 1236 63C1243.73 63 1250 56.73 1250 49C1250 56.73 1256.27 63 1264.02 63Z" fill="#E5B265" stroke="#111214" stroke-miterlimit="10" stroke-linecap="round"/>
<path d="M276.02 403C268.27 403 262 409.27 262 417C262 409.27 255.73 403 248 403C255.73 403 262 396.73 262 389C262 396.73 268.27 403 276.02 403Z" fill="#E5B265" stroke="#111214" stroke-miterlimit="10" stroke-linecap="round"/>
<path d="M101.03 98C85.53 98 73 110.54 73 126C73 110.54 60.46 98 45 98C60.46 98 73 85.47 73 70C73 85.47 85.53 98 101.03 98Z" fill="#E5B265" stroke="#111214" stroke-miterlimit="10" stroke-linecap="round"/>
<path d="M147 517.5C124.592 517.5 106.478 535.638 106.478 558C106.478 535.638 88.3498 517.5 66 517.5C88.3498 517.5 106.478 499.376 106.478 477C106.478 499.376 124.592 517.5 147 517.5Z" fill="#E5B265" stroke="#111214" stroke-miterlimit="10" stroke-linecap="round"/>
<path d="M1733 177.5C1704.51 177.5 1681.47 200.565 1681.47 229C1681.47 200.565 1658.42 177.5 1630 177.5C1658.42 177.5 1681.47 154.454 1681.47 126C1681.47 154.454 1704.51 177.5 1733 177.5Z" fill="#E5B265" stroke="#111214" stroke-miterlimit="10" stroke-linecap="round"/>
<path d="M77 557.5C65.1046 557.5 55.4885 567.129 55.4885 579C55.4885 567.129 45.8647 557.5 34 557.5C45.8647 557.5 55.4885 547.879 55.4885 536C55.4885 547.879 65.1046 557.5 77 557.5Z" fill="#E5B265" stroke="#111214" stroke-miterlimit="10" stroke-linecap="round"/>
<path d="M279 242C248.57 242 223.971 266.632 223.971 297C223.971 266.632 199.352 242 169 242C199.352 242 223.971 217.388 223.971 187C223.971 217.388 248.57 242 279 242Z" fill="#E5B265" stroke="#111214" stroke-miterlimit="10" stroke-linecap="round"/>
<path d="M527 121C513.721 121 502.987 131.749 502.987 145C502.987 131.749 492.244 121 479 121C492.244 121 502.987 110.26 502.987 97C502.987 110.26 513.721 121 527 121Z" fill="#E5B265" stroke="#111214" stroke-miterlimit="10" stroke-linecap="round"/>
<path d="M1786 403C1763.87 403 1745.98 420.914 1745.98 443C1745.98 420.914 1728.07 403 1706 403C1728.07 403 1745.98 385.1 1745.98 363C1745.98 385.1 1763.87 403 1786 403Z" fill="#E5B265" stroke="#111214" stroke-miterlimit="10" stroke-linecap="round"/>
<path d="M1811 422.5C1799.93 422.5 1790.99 431.233 1790.99 442C1790.99 431.233 1782.04 422.5 1771 422.5C1782.04 422.5 1790.99 413.774 1790.99 403C1790.99 413.774 1799.93 422.5 1811 422.5Z" fill="#E5B265" stroke="#111214" stroke-miterlimit="10" stroke-linecap="round"/>
<path d="M1859.03 33C1843.53 33 1831 45.54 1831 61C1831 45.54 1818.46 33 1803 33C1818.46 33 1831 20.47 1831 5C1831 20.47 1843.53 33 1859.03 33Z" fill="#E5B265" stroke="#111214" stroke-miterlimit="10" stroke-linecap="round"/>
<path d="M1070 149.5C1052.02 149.5 1037.48 164.055 1037.48 182C1037.48 164.055 1022.94 149.5 1005 149.5C1022.94 149.5 1037.48 134.956 1037.48 117C1037.48 134.956 1052.02 149.5 1070 149.5Z" fill="#E5B265" stroke="#111214" stroke-miterlimit="10" stroke-linecap="round"/>
<path d="M712 126C688.209 126 668.977 145.258 668.977 169C668.977 145.258 649.729 126 626 126C649.729 126 668.977 106.758 668.977 83C668.977 106.758 688.209 126 712 126Z" stroke="#111214" stroke-miterlimit="10" stroke-linecap="round"/>
<path d="M733 86.5C721.105 86.5 711.488 96.1289 711.488 108C711.488 96.1289 701.865 86.5 690 86.5C701.865 86.5 711.488 76.8788 711.488 65C711.488 76.8788 721.105 86.5 733 86.5Z" stroke="#111214" stroke-miterlimit="10" stroke-linecap="round"/>
<path d="M1856 322.5C1841.89 322.5 1830.49 333.92 1830.49 348C1830.49 333.92 1819.07 322.5 1805 322.5C1819.07 322.5 1830.49 311.089 1830.49 297C1830.49 311.089 1841.89 322.5 1856 322.5Z" stroke="#111214" stroke-miterlimit="10" stroke-linecap="round"/>
<path d="M294 622C267.443 622 245.974 643.497 245.974 670C245.974 643.497 224.489 622 198 622C224.489 622 245.974 600.52 245.974 574C245.974 600.52 267.443 622 294 622Z" stroke="#111214" stroke-miterlimit="10" stroke-linecap="round"/>
<path d="M1397.87 209.12C1420.83 209.12 1439.43 190.513 1439.43 167.56C1439.43 144.607 1420.83 126 1397.87 126C1374.92 126 1356.31 144.607 1356.31 167.56C1356.31 190.513 1374.92 209.12 1397.87 209.12Z" fill="#E5B265" stroke="#111214" stroke-miterlimit="10" stroke-linecap="round"/>
<path d="M1477.44 137.062C1480.16 144.152 1464.47 157.202 1439.36 170.192C1429.18 175.462 1417.46 180.732 1404.78 185.582C1392.1 190.432 1379.87 194.362 1368.78 197.242C1341.41 204.352 1321.01 205.142 1318.3 198.052C1315.59 190.962 1331.29 177.922 1356.4 164.922C1356.3 166.262 1356.29 167.622 1356.33 168.982C1343.68 176.182 1336.29 182.642 1337.65 186.172C1339.01 189.702 1347.93 189.572 1361.09 186.882C1372.06 184.632 1385.94 180.502 1400.69 174.852C1415.44 169.202 1428.53 162.992 1438.19 157.332C1449.78 150.532 1456.44 144.512 1455.15 141.142C1453.79 137.602 1443.98 137.742 1429.76 140.842C1428.88 139.812 1427.96 138.812 1427 137.872C1454.37 130.762 1474.75 129.982 1477.46 137.062H1477.44Z" fill="#B75A5A" stroke="#111214" stroke-miterlimit="10"/>
<path d="M1324.73 1420.55C1310.13 1420.55 1305.4 1440.15 1318.38 1446.81L1776.81 1682H1837.71L1331.08 1422.07C1329.12 1421.06 1326.94 1420.55 1324.74 1420.55H1324.73Z" fill="#424242" stroke="#111214" stroke-miterlimit="10"/>
<path d="M1810.03 1115H1809.33C1804.93 1115 1800.79 1117.08 1798.18 1120.6L1380.5 1682H1415.85L1821.18 1137.2C1828 1128.03 1821.45 1115 1810.03 1115Z" fill="#424242" stroke="#111214" stroke-miterlimit="10"/>
<path d="M1446.03 1614.99V1682H1242.21L1321.17 1614.99H1446.03Z" fill="#B75A5A" stroke="#111214" stroke-miterlimit="10"/>
<path d="M1509.88 1614.99V1682H1306.07L1385.03 1614.99H1509.88Z" fill="#B75A5A" stroke="#111214" stroke-miterlimit="10"/>
<path d="M1341.89 1427.11C1370.2 1439.09 1449.47 1465.18 1523.81 1420.54L1565.27 1453.09L1808.8 1129.4C1810.15 1127.61 1812.53 1126.98 1814.58 1127.86C1829.27 1134.22 1890.41 1156.55 1985.89 1135.87L2001.05 1141.96C2001.05 1141.96 1878.11 1551.27 1706.47 1572.34C1554.12 1591.05 1381.75 1462.64 1340.35 1429.65C1338.98 1428.56 1340.27 1426.41 1341.88 1427.09L1341.89 1427.11Z" fill="#E5B265" stroke="#111214" stroke-miterlimit="10" stroke-linecap="round"/>
<path d="M2009.13 1115H2008.42C2004.03 1115 1999.89 1117.08 1997.27 1120.6L1579.59 1682H1614.94L2020.27 1137.2C2027.09 1128.03 2020.55 1115 2009.13 1115Z" fill="#424242" stroke="#111214" stroke-miterlimit="10"/>
<path d="M1328.83 1443.76C1332.88 1443.76 1336.16 1440.48 1336.16 1436.43C1336.16 1432.38 1332.88 1429.1 1328.83 1429.1C1324.78 1429.1 1321.49 1432.38 1321.49 1436.43C1321.49 1440.48 1324.78 1443.76 1328.83 1443.76Z" fill="#E5C7B6" stroke="#111214" stroke-miterlimit="10" stroke-linecap="round"/>
<path d="M1496.32 1426.28L1446.03 1614.99H1302.52L1347.67 1374.37C1358.42 1317.1 1421.12 1286.14 1473.12 1312.44L1703.89 1429.11L1653.6 1505.47L1496.32 1426.29V1426.28Z" fill="#75A265" stroke="#111214" stroke-miterlimit="10" stroke-linecap="round"/>
<path d="M1669.04 1238.84H1487.65C1484.58 1238.84 1482.09 1241.33 1482.09 1244.41V1365.72C1482.09 1368.8 1484.58 1371.29 1487.65 1371.29H1669.04C1672.11 1371.29 1674.6 1368.8 1674.6 1365.72V1244.41C1674.6 1241.33 1672.11 1238.84 1669.04 1238.84Z" fill="#E5C7B6" stroke="#111214" stroke-miterlimit="10" stroke-linecap="round"/>
<path d="M1660.86 1238.84H1479.47C1476.4 1238.84 1473.91 1241.33 1473.91 1244.41V1365.72C1473.91 1368.8 1476.4 1371.29 1479.47 1371.29H1660.86C1663.93 1371.29 1666.42 1368.8 1666.42 1365.72V1244.41C1666.42 1241.33 1663.93 1238.84 1660.86 1238.84Z" fill="white" stroke="#111214" stroke-miterlimit="10" stroke-linecap="round"/>
<path d="M1573.71 1291.88H1566.62C1561.46 1291.88 1557.28 1296.06 1557.28 1301.22V1308.92C1557.28 1314.07 1561.46 1318.25 1566.62 1318.25H1573.71C1578.86 1318.25 1583.04 1314.07 1583.04 1308.92V1301.22C1583.04 1296.06 1578.86 1291.88 1573.71 1291.88Z" fill="white" stroke="#111214" stroke-miterlimit="10" stroke-linecap="round"/>
<path d="M1509.89 1433.1V1614.99H1366.38L1411.53 1374.37C1422.28 1317.1 1484.97 1286.14 1536.98 1312.44L1767.75 1429.11L1705.9 1512.25L1509.89 1433.11V1433.1Z" fill="#75A265" stroke="#111214" stroke-miterlimit="10" stroke-linecap="round"/>
<path d="M1523.81 1420.55C1509.22 1420.55 1504.49 1440.15 1517.47 1446.81L1975.89 1682H2036.8L1530.17 1422.07C1528.21 1421.06 1526.02 1420.55 1523.82 1420.55H1523.81Z" fill="#424242" stroke="#111214" stroke-miterlimit="10"/>
<path d="M1708.87 1535.7C1712.92 1535.7 1716.21 1532.42 1716.21 1528.37C1716.21 1524.32 1712.92 1521.04 1708.87 1521.04C1704.82 1521.04 1701.54 1524.32 1701.54 1528.37C1701.54 1532.42 1704.82 1535.7 1708.87 1535.7Z" fill="#E5C7B6" stroke="#111214" stroke-miterlimit="10" stroke-linecap="round"/>
<path d="M1830.91 1623.05C1835.67 1626.95 1841.59 1629.11 1847.74 1629.07C1859.97 1629.01 1879.45 1630.43 1880.89 1640C1883.02 1654.02 1869.78 1653.65 1852.28 1655.04C1839.28 1656.08 1780.76 1664.33 1776.07 1655.04C1770.05 1643.1 1815.55 1623.32 1815.98 1620.31C1816.98 1613.21 1824.86 1618.11 1830.9 1623.04L1830.91 1623.05Z" fill="#E5C7B6" stroke="#111214" stroke-miterlimit="10" stroke-linecap="round"/>
<path d="M1526.97 1443.76C1531.02 1443.76 1534.31 1440.48 1534.31 1436.43C1534.31 1432.38 1531.02 1429.1 1526.97 1429.1C1522.92 1429.1 1519.64 1432.38 1519.64 1436.43C1519.64 1440.48 1522.92 1443.76 1526.97 1443.76Z" fill="#E5C7B6" stroke="#111214" stroke-miterlimit="10" stroke-linecap="round"/>
<path d="M1222 1682H2057" stroke="#111214" stroke-miterlimit="10"/>
<path d="M1754.92 1293.01C1764.94 1295.3 1774.92 1289.06 1777.2 1279.07C1779.48 1269.09 1773.2 1259.13 1763.18 1256.84C1753.16 1254.56 1743.18 1260.79 1740.91 1270.78C1738.62 1280.77 1744.9 1290.73 1754.92 1293.01Z" fill="#E5C7B6" stroke="#111214" stroke-miterlimit="10" stroke-linecap="round"/>
<path d="M1752.76 1292.38L1749.2 1307.97L1774.44 1313.73L1777.21 1279.08" fill="#E5C7B6"/>
<path d="M1752.76 1292.38L1749.2 1307.97L1774.44 1313.73L1777.21 1279.08" stroke="#111214" stroke-miterlimit="10"/>
<path d="M1777.21 1279.08L1774.44 1313.73L1749.2 1307.97L1752.76 1292.38" stroke="#111214" stroke-miterlimit="10" stroke-linecap="round"/>
<path d="M1767.75 1429.1L1796.29 1384.63L1754.18 1325.16L1692.1 1390.86L1767.75 1429.1Z" fill="#B75A5A" stroke="#111214" stroke-miterlimit="10"/>
<path d="M1775.83 1296.41L1823.97 1272.19L1810.9 1267.95L1825.15 1193L1804.7 1202.13L1746.21 1156.27V1183.25L1692.1 1190.74L1714.7 1229.34L1694.97 1240.22L1744.2 1262.94L1765.81 1266.95L1766.43 1287.82L1776.65 1286.17L1775.83 1296.41Z" fill="#424242" stroke="#111214" stroke-miterlimit="10" stroke-linecap="round"/>
<path d="M1776.13 1653.99C1774.38 1650.4 1733.3 1564.59 1738.66 1444.05C1740.07 1412.38 1738.28 1414.2 1738.28 1414.2L1708.27 1399.03L1652.51 1370.84C1652.51 1370.84 1675.56 1374.84 1674.6 1364.55V1323.11C1706.13 1302.51 1738.14 1296.48 1766.15 1307.02C1782.43 1313.15 1804.45 1327.75 1816.97 1362.43C1825.07 1384.89 1828.25 1412.87 1826.69 1447.95C1822.37 1545.04 1855.09 1614.85 1855.43 1615.55L1855.35 1615.39L1776.13 1653.98V1653.99Z" fill="#B75A5A" stroke="#111214" stroke-miterlimit="10"/>
<path d="M1692.1 1390.86L1707.02 1364.61C1707.02 1364.61 1692.62 1341.19 1720.87 1325.16" stroke="#111214" stroke-miterlimit="10" stroke-linecap="round"/>
<path d="M1822.64 1682C1855.38 1682 1903.97 1682.2 1913.67 1667.26C1923.36 1652.33 1907.12 1644.97 1900.04 1647.88C1892.95 1650.78 1822.64 1682 1822.64 1682Z" fill="#E5C7B6" stroke="#111214" stroke-miterlimit="10" stroke-linecap="round"/>
<path d="M1811.23 1682C1843.96 1682 1892.56 1682.2 1902.25 1667.26C1911.95 1652.33 1895.71 1644.97 1888.63 1647.88C1881.55 1650.78 1811.23 1682 1811.23 1682Z" fill="#E5C7B6" stroke="#111214" stroke-miterlimit="10" stroke-linecap="round"/>
<path d="M1776.12 1653.99C1781 1667.3 1790.31 1681.99 1811.22 1681.99C1832.14 1681.99 1896.07 1680.4 1894.71 1658.13C1893.35 1635.86 1858.48 1652.12 1858.48 1652.12C1858.48 1652.12 1837.45 1638.71 1814.15 1643.46" fill="#E5C7B6"/>
<path d="M1776.12 1653.99C1781 1667.3 1790.31 1681.99 1811.22 1681.99C1832.14 1681.99 1896.07 1680.4 1894.71 1658.13C1893.35 1635.86 1858.48 1652.12 1858.48 1652.12C1858.48 1652.12 1837.45 1638.71 1814.15 1643.46" stroke="#111214" stroke-miterlimit="10" stroke-linecap="round"/>
<path d="M1671.12 1371.6C1668.99 1375.21 1670.35 1379.87 1674.09 1381.76L1738.27 1414.21V1398.5L1680.68 1368.83C1677.27 1367.07 1673.07 1368.28 1671.12 1371.59V1371.6Z" fill="#E5C7B6" stroke="#111214" stroke-miterlimit="10" stroke-linecap="round"/>
<path d="M34.0798 1254.21C33.4125 1246.15 35.4995 1238.15 40.1589 1231.63C49.4048 1218.66 62.4971 1196.84 53.1541 1187.92C39.4793 1174.86 29.9179 1189.23 15.2603 1206.8C4.37631 1219.84 -47.3864 1276.56 -40.7978 1288.69C-32.3041 1304.31 22.2373 1270.33 25.841 1272.19C34.3347 1276.58 34.917 1264.42 34.0677 1254.2L34.0798 1254.21Z" fill="#E5C7B6" stroke="#111214" stroke-miterlimit="10" stroke-linecap="round"/>
<path d="M-36.3359 1217.58C-11.7408 1182.72 24.5514 1130.84 48.1152 1132.02C71.6669 1133.2 67.4929 1156.15 58.9993 1161.46C50.5056 1166.77 -36.3359 1217.57 -36.3359 1217.57V1217.58Z" fill="#E5C7B6" stroke="#111214" stroke-miterlimit="10" stroke-linecap="round"/>
<path d="M-44.9375 1229.75C-20.3423 1194.89 15.9498 1143.01 39.5136 1144.19C63.0653 1145.37 58.8913 1168.32 50.3977 1173.63C41.904 1178.93 -44.9375 1229.74 -44.9375 1229.74V1229.75Z" fill="#E5C7B6" stroke="#111214" stroke-miterlimit="10" stroke-linecap="round"/>
<path d="M-40.7803 1288.69C-51.6037 1273.25 -60.6433 1252.02 -44.9301 1229.75C-29.2168 1207.48 20.5317 1140.64 43.7922 1159.25C67.0405 1177.85 23.1283 1202.44 23.1283 1202.44C23.1283 1202.44 21.9392 1235.15 -0.738834 1256.3" fill="#E5C7B6"/>
<path d="M-40.7803 1288.69C-51.6037 1273.25 -60.6433 1252.02 -44.9301 1229.75C-29.2168 1207.48 20.5317 1140.64 43.7922 1159.25C67.0405 1177.85 23.1283 1202.44 23.1283 1202.44C23.1283 1202.44 21.9392 1235.15 -0.738835 1256.3" stroke="#111214" stroke-miterlimit="10" stroke-linecap="round"/>
<path d="M445.952 1254.21C446.62 1246.15 444.533 1238.15 439.873 1231.63C430.627 1218.66 417.535 1196.84 426.878 1187.92C440.553 1174.86 450.114 1189.23 464.772 1206.8C475.656 1219.84 527.419 1276.56 520.83 1288.69C512.336 1304.31 457.795 1270.33 454.191 1272.19C445.697 1276.58 445.115 1264.42 445.964 1254.2L445.952 1254.21Z" fill="#E5C7B6" stroke="#111214" stroke-miterlimit="10" stroke-linecap="round"/>
<path d="M516.397 1217.58C491.802 1182.72 455.51 1130.84 431.946 1132.02C408.394 1133.2 412.568 1156.15 421.062 1161.46C429.555 1166.77 516.397 1217.57 516.397 1217.57V1217.58Z" fill="#E5C7B6" stroke="#111214" stroke-miterlimit="10" stroke-linecap="round"/>
<path d="M524.959 1229.75C500.364 1194.89 464.072 1143.01 440.508 1144.19C416.957 1145.37 421.131 1168.32 429.624 1173.63C438.118 1178.93 524.959 1229.74 524.959 1229.74V1229.75Z" fill="#E5C7B6" stroke="#111214" stroke-miterlimit="10" stroke-linecap="round"/>
<path d="M520.815 1288.69C531.639 1273.25 540.678 1252.02 524.965 1229.75C509.252 1207.48 459.503 1140.64 436.243 1159.25C412.995 1177.85 456.907 1202.44 456.907 1202.44C456.907 1202.44 458.096 1235.15 480.774 1256.3" fill="#E5C7B6"/>
<path d="M520.815 1288.69C531.639 1273.25 540.678 1252.02 524.965 1229.75C509.252 1207.48 459.503 1140.64 436.243 1159.25C412.995 1177.85 456.907 1202.44 456.907 1202.44C456.907 1202.44 458.096 1235.15 480.774 1256.3" stroke="#111214" stroke-miterlimit="10" stroke-linecap="round"/>
<path d="M353.828 1351.23H126.234V1395.17H353.828V1351.23Z" fill="#E5B265" stroke="#111214" stroke-miterlimit="10" stroke-linecap="round"/>
<path d="M258.264 1248.95H221.766L230.49 1206.89H249.552L258.264 1248.95Z" fill="#E5C7B6" stroke="#111214" stroke-miterlimit="10" stroke-linecap="round"/>
<path d="M240.024 1221.09C251.825 1221.09 261.391 1211.52 261.391 1199.7C261.391 1187.89 251.825 1178.32 240.024 1178.32C228.223 1178.32 218.656 1187.89 218.656 1199.7C218.656 1211.52 228.223 1221.09 240.024 1221.09Z" fill="#E5C7B6" stroke="#111214" stroke-miterlimit="10" stroke-linecap="round"/>
<path d="M386.487 1395.17H93.5529C12.657 1395.17 -52.9141 1460.8 -52.9141 1541.77C-52.9141 1622.74 12.657 1688.37 93.5529 1688.37H386.487C467.383 1688.37 532.954 1622.74 532.954 1541.77C532.954 1460.8 467.383 1395.17 386.487 1395.17Z" fill="#B75A5A" stroke="#111214" stroke-miterlimit="10"/>
<path d="M73.625 1537.2H406.394" stroke="#111214" stroke-miterlimit="10" stroke-linecap="round"/>
<path d="M314.083 1380.69C333.946 1391.58 354.488 1402.84 376.002 1410.16C392.079 1415.64 407.549 1418.38 422.292 1418.38C436.185 1418.38 449.435 1415.95 461.945 1411.09C500.688 1396.05 529.518 1359.52 550.085 1299.4L445.625 1263.6C433.965 1297.69 424.051 1306.47 422.159 1307.9C420.86 1307.9 416.468 1307.56 407.246 1303.95C395.573 1299.35 381.765 1291.79 367.144 1283.77C330.342 1263.6 288.626 1240.73 240.043 1240.73C191.459 1240.73 149.743 1263.6 112.941 1283.77C98.3199 1291.79 84.5116 1299.35 72.8389 1303.95C63.6051 1307.58 59.2249 1307.9 57.9265 1307.9C56.0337 1306.47 46.1203 1297.69 34.4598 1263.6L-70 1299.4C-49.4332 1359.52 -20.6034 1396.05 18.1398 1411.09C30.6619 1415.95 43.8998 1418.38 57.793 1418.38C72.5356 1418.38 88.0062 1415.64 104.083 1410.16C125.597 1402.84 146.139 1391.58 166.002 1380.69" fill="#E5B265"/>
<path d="M314.083 1380.69C333.946 1391.58 354.488 1402.84 376.002 1410.16C392.079 1415.64 407.549 1418.38 422.292 1418.38C436.185 1418.38 449.435 1415.95 461.945 1411.09C500.688 1396.05 529.518 1359.52 550.085 1299.4L445.625 1263.6C433.965 1297.69 424.051 1306.47 422.159 1307.9C420.86 1307.9 416.468 1307.56 407.246 1303.95C395.573 1299.35 381.765 1291.79 367.144 1283.77C330.342 1263.6 288.626 1240.73 240.043 1240.73C191.459 1240.73 149.743 1263.6 112.941 1283.77C98.3199 1291.79 84.5116 1299.35 72.8389 1303.95C63.6051 1307.58 59.2249 1307.9 57.9265 1307.9C56.0337 1306.47 46.1203 1297.69 34.4598 1263.6L-70 1299.4C-49.4332 1359.52 -20.6034 1396.05 18.1398 1411.09C30.6619 1415.95 43.8998 1418.38 57.793 1418.38C72.5356 1418.38 88.0062 1415.64 104.083 1410.16C125.597 1402.84 146.139 1391.58 166.002 1380.69" stroke="#111214" stroke-miterlimit="10" stroke-linecap="round"/>
<path d="M157.016 1537.2V1688.38C157.016 1688.38 191.124 1688.38 210.174 1698.31L240.035 1703.8V1575.54C240.035 1554.37 222.89 1537.21 201.729 1537.21H157.016V1537.2Z" fill="#E5C7B6" stroke="#111214" stroke-miterlimit="10" stroke-linecap="round"/>
<path d="M228.268 1660.42C232.551 1660.42 236.568 1661.58 240.014 1663.6V1703.8C236.568 1705.83 232.551 1707 228.268 1707C215.419 1707 205.008 1696.57 205.008 1683.7C205.008 1678.54 206.694 1673.77 209.534 1669.91C213.768 1664.15 220.575 1660.42 228.268 1660.42Z" fill="#E5C7B6" stroke="#111214" stroke-miterlimit="10" stroke-linecap="round"/>
<path d="M228.271 1620.21C232.469 1620.21 236.437 1621.12 240.016 1622.75V1674.44C236.437 1676.07 232.469 1676.98 228.271 1676.98C221.088 1676.98 214.523 1674.32 209.536 1669.91C203.639 1664.7 199.914 1657.08 199.914 1648.59C199.914 1644.31 200.86 1640.25 202.559 1636.61C207.073 1626.93 216.889 1620.21 228.271 1620.21Z" fill="#E5C7B6" stroke="#111214" stroke-miterlimit="10" stroke-linecap="round"/>
<path d="M219.789 1565.75C227.312 1565.75 234.277 1568.09 240.028 1572.06V1630.78C234.289 1634.75 227.312 1637.08 219.789 1637.08C214.644 1637.08 209.742 1635.99 205.325 1634.02C192.864 1628.47 184.164 1615.96 184.164 1601.42C184.164 1581.72 200.12 1565.75 219.801 1565.75H219.789Z" fill="#E5C7B6" stroke="#111214" stroke-miterlimit="10" stroke-linecap="round"/>
<path d="M323.035 1537.2V1688.38C323.035 1688.38 288.927 1688.38 269.877 1698.31L240.016 1703.8V1575.54C240.016 1554.37 257.161 1537.21 278.322 1537.21C282.29 1537.21 323.035 1537.21 323.035 1537.21V1537.2Z" fill="#E5C7B6" stroke="#111214" stroke-miterlimit="10" stroke-linecap="round"/>
<path d="M251.761 1660.42C247.478 1660.42 243.462 1661.58 240.016 1663.6V1703.8C243.462 1705.83 247.478 1707 251.761 1707C264.611 1707 275.022 1696.57 275.022 1683.7C275.022 1678.54 273.335 1673.77 270.496 1669.91C266.261 1664.15 259.454 1660.42 251.761 1660.42Z" fill="#E5C7B6" stroke="#111214" stroke-miterlimit="10" stroke-linecap="round"/>
<path d="M251.761 1620.21C247.563 1620.21 243.595 1621.12 240.016 1622.75V1674.44C243.595 1676.07 247.563 1676.98 251.761 1676.98C258.944 1676.98 265.509 1674.32 270.496 1669.91C276.393 1664.7 280.118 1657.08 280.118 1648.59C280.118 1644.31 279.171 1640.25 277.473 1636.61C272.959 1626.93 263.143 1620.21 251.761 1620.21Z" fill="#E5C7B6" stroke="#111214" stroke-miterlimit="10" stroke-linecap="round"/>
<path d="M260.255 1565.75C252.732 1565.75 245.767 1568.09 240.016 1572.06V1630.78C245.755 1634.75 252.732 1637.08 260.255 1637.08C265.4 1637.08 270.302 1635.99 274.718 1634.02C287.18 1628.47 295.88 1615.96 295.88 1601.42C295.88 1581.72 279.924 1565.75 260.243 1565.75H260.255Z" fill="#E5C7B6" stroke="#111214" stroke-miterlimit="10" stroke-linecap="round"/>
<path d="M287.669 1247.74L240.02 1291.59L192.383 1247.74" stroke="#111214" stroke-miterlimit="10" stroke-linecap="round"/>
<path d="M240.024 1334.38C251.825 1334.38 261.391 1324.81 261.391 1313C261.391 1301.18 251.825 1291.61 240.024 1291.61C228.223 1291.61 218.656 1301.18 218.656 1313C218.656 1324.81 228.223 1334.38 240.024 1334.38Z" fill="#75A265" stroke="#111214" stroke-miterlimit="10" stroke-linecap="round"/>
<path d="M240.018 1322.66C245.352 1322.66 249.676 1318.33 249.676 1312.99C249.676 1307.65 245.352 1303.32 240.018 1303.32C234.684 1303.32 230.359 1307.65 230.359 1312.99C230.359 1318.33 234.684 1322.66 240.018 1322.66Z" fill="#E5B265" stroke="#111214" stroke-miterlimit="10" stroke-linecap="round"/>
<path d="M504.462 1680.67H561V1597.25H504.462V1680.67Z" fill="#E5B265" stroke="#111214" stroke-miterlimit="10" stroke-linecap="round"/>
<path d="M504.462 1597.25H561V1568.91H504.462V1597.25Z" stroke="#111214" stroke-miterlimit="10" stroke-linecap="round"/>
<path d="M518.802 1597.24L490.719 1541.73" stroke="#111214" stroke-miterlimit="10" stroke-linecap="round"/>
<path d="M217.541 898.036C214.011 898.16 210.555 898.53 207.17 899.066C181.302 859.201 135.77 833.511 84.8147 835.303C72.5056 835.735 60.6306 837.757 49.3642 841.139C37.2119 808.198 5.00035 785.234 -32.005 786.535C-46.1246 787.032 -59.287 791.015 -70.7278 797.598C-79.2955 759.042 -114.338 730.844 -155.251 732.283C-168.59 732.752 -181.075 736.334 -192.068 742.288C-214.172 729.348 -240.072 722.317 -267.556 723.284C-322.667 725.221 -369.193 758.778 -390.333 805.902C-400.593 801.921 -411.801 799.903 -423.498 800.314C-469.634 801.936 -505.728 840.655 -504.106 886.783C-550.243 888.405 -586.337 927.124 -584.715 973.252C-583.677 1002.78 -567.434 1028.15 -543.792 1042.2C-546.473 1050.89 -547.777 1060.15 -547.44 1069.75C-545.818 1115.88 -507.093 1151.97 -460.957 1150.34C-434.06 1149.4 -410.605 1135.85 -396.02 1115.57C-372.134 1132.08 -342.922 1141.33 -311.661 1140.23C-261.46 1138.47 -218.39 1110.47 -195.13 1069.88C-168.388 1100.1 -128.862 1118.59 -85.3825 1117.06C-52.2717 1115.89 -22.2621 1103.31 1.01491 1083.22C26.4095 1104.06 59.2156 1116.12 94.6449 1114.87C137.095 1113.38 174.451 1093.13 199.035 1062.37C206.789 1064.43 214.975 1065.41 223.415 1065.11C269.552 1063.49 305.646 1024.77 304.024 978.643C302.402 932.515 263.677 896.427 217.541 898.049L217.541 898.036Z" fill="white" stroke="#111214" stroke-miterlimit="10" stroke-linecap="round"/>
<path d="M2387.73 719.65C2384.38 719.65 2381.1 719.885 2377.87 720.28C2354.69 681.665 2312.4 655.819 2264.05 655.819C2252.37 655.819 2241.05 657.338 2230.26 660.166C2219.85 628.566 2190.09 605.745 2154.98 605.745C2141.58 605.745 2128.97 609.079 2117.91 614.933C2111.08 578.133 2078.81 550.262 2039.99 550.262C2027.34 550.262 2015.39 553.238 2004.77 558.511C1984.26 545.52 1959.95 538 1933.87 538C1881.58 538 1836.38 568.23 1814.78 612.154C1805.18 608.042 1794.63 605.758 1783.53 605.758C1739.76 605.758 1704.27 641.223 1704.27 684.962C1660.49 684.962 1625 720.428 1625 764.167C1625 792.162 1639.55 816.736 1661.48 830.826C1658.65 838.964 1657.11 847.694 1657.11 856.795C1657.11 900.534 1692.6 936 1736.37 936C1761.89 936 1784.57 923.948 1799.07 905.227C1821.15 921.663 1848.53 931.394 1878.19 931.394C1925.82 931.394 1967.56 906.314 1990.96 868.65C2015.29 898.163 2052.13 916.983 2093.38 916.983C2124.8 916.983 2153.65 906.067 2176.38 887.815C2199.75 908.401 2230.44 920.91 2264.05 920.91C2304.33 920.91 2340.4 902.979 2364.72 874.664C2372 876.874 2379.73 878.072 2387.73 878.072C2431.51 878.072 2467 842.606 2467 798.867C2467 755.128 2431.51 719.662 2387.73 719.662V719.65Z" fill="white" stroke="#111214" stroke-miterlimit="10" stroke-linecap="round"/>
</svg>
