<svg width="24" height="24" viewBox="0 0 24 24" fill="none" xmlns="http://www.w3.org/2000/svg">
<path opacity="0.3" d="M9.80313 3.3001C10.2031 2.9001 10.3031 2.6001 10.5031 2.5001C11.3031 1.8001 12.5031 1.8001 13.4031 2.5001C13.6031 2.6001 13.8031 2.9001 14.1031 3.3001C14.3031 3.5001 14.4031 3.6001 14.4031 3.7001C14.8031 4.1001 15.4031 4.3001 16.0031 4.3001H16.5031C17.1031 4.2001 17.4031 4.2001 17.6031 4.2001C18.7031 4.3001 19.5031 5.2001 19.6031 6.2001C19.6031 6.4001 19.6031 6.7001 19.5031 7.3001V7.8001C19.5031 8.4001 19.7031 8.9001 20.1031 9.4001C20.2031 9.5001 20.3031 9.6001 20.5031 9.7001C20.9031 10.1001 21.2031 10.2001 21.3031 10.4001C22.0031 11.2001 22.0031 12.4001 21.3031 13.3001C21.2031 13.5001 20.9031 13.7001 20.5031 14.0001C20.3031 14.2001 20.2031 14.3001 20.1031 14.3001C19.7031 14.7001 19.5031 15.3001 19.5031 15.9001V16.4001C19.6031 17.0001 19.6031 17.3001 19.6031 17.5001C19.5031 18.6001 18.6031 19.4001 17.6031 19.5001C17.4031 19.5001 17.1031 19.5001 16.5031 19.4001C16.2031 19.4001 16.1031 19.4001 16.0031 19.4001C15.4031 19.4001 14.9031 19.6001 14.4031 20.0001C14.3031 20.1001 14.2031 20.2001 14.1031 20.4001C13.7031 20.8001 13.6031 21.1001 13.4031 21.2001C12.6031 21.9001 11.4031 21.9001 10.5031 21.2001C10.3031 21.1001 10.1031 20.8001 9.80313 20.4001C9.60313 20.2001 9.50313 20.1001 9.50313 20.0001C9.10313 19.6001 8.50313 19.4001 7.90313 19.4001C7.80313 19.4001 7.60313 19.4001 7.40313 19.4001C6.80313 19.5001 6.50313 19.5001 6.30313 19.5001C5.20313 19.4001 4.40313 18.5001 4.30313 17.5001C4.30313 17.3001 4.30313 17.0001 4.40313 16.4001C4.40313 16.1001 4.40313 16.0001 4.40313 15.9001C4.40313 15.3001 4.20313 14.8001 3.80313 14.3001C3.70313 14.2001 3.60313 14.1001 3.40313 14.0001C3.00313 13.6001 2.70313 13.5001 2.60313 13.3001C1.90312 12.5001 1.90312 11.3001 2.60313 10.4001C2.70313 10.2001 3.00313 10.0001 3.40313 9.7001C3.60313 9.5001 3.70313 9.4001 3.80313 9.4001C4.20313 9.0001 4.40313 8.4001 4.40313 7.8001C4.40313 7.7001 4.40313 7.5001 4.40313 7.3001C4.30313 6.8001 4.30313 6.5001 4.30313 6.3001C4.40313 5.2001 5.30313 4.4001 6.30313 4.3001C6.50313 4.3001 6.80313 4.3001 7.40313 4.4001H7.90313C8.50313 4.4001 9.00313 4.2001 9.50313 3.8001C9.60313 3.6001 9.70313 3.5001 9.80313 3.3001Z" fill="#989CCF"/>
<path d="M12 16.1C11.4 16.1 11 15.7 11 15.1C11 14.5 11.4 14.1 12 14.1C12.6 14.1 13 14.5 13 15.1C13 15.7 12.6 16.1 12 16.1Z" fill="white"/>
<path d="M12.0031 13.3C11.6031 13.3 11.2031 13 11.2031 12.5V7.99995C11.2031 7.59995 11.5031 7.19995 12.0031 7.19995C12.5031 7.19995 12.8031 7.49995 12.8031 7.99995V12.5C12.7031 13 12.4031 13.3 12.0031 13.3Z" fill="white"/>
</svg>
