<svg width="60" height="60" viewBox="0 0 60 60" fill="none" xmlns="http://www.w3.org/2000/svg">
<circle cx="30" cy="30" r="30" fill="#4E17C1"/>
<path fill-rule="evenodd" clip-rule="evenodd" d="M39.0979 17.6699H20.9003C19.1776 17.6699 17.7773 19.0737 17.7773 20.7957V32.7216C17.7773 34.444 19.178 35.8445 20.9003 35.8445H23.9827C24.4536 35.8445 24.836 36.2246 24.836 36.696V41.397C24.836 41.7621 25.0182 42.0567 25.3426 42.2234C25.668 42.3906 26.0144 42.3624 26.3103 42.1479L34.776 36.0074C34.9216 35.9018 35.0972 35.8446 35.2772 35.8446H39.098C40.8205 35.8446 42.2212 34.4443 42.2212 32.7217V20.7957C42.2212 19.0734 40.8209 17.6699 39.0979 17.6699Z" fill="white"/>
</svg>
