<svg width="109" height="36" viewBox="0 0 109 36" fill="none" xmlns="http://www.w3.org/2000/svg">
<rect width="109" height="36" rx="18" fill="white"/>
<path d="M18.1602 8.44553H23.5502C25.2662 8.44553 26.6082 8.87086 27.5762 9.72153C28.5442 10.5575 29.0282 11.8555 29.0282 13.6155C29.0282 14.5102 28.8668 15.2949 28.5442 15.9695C28.2362 16.6442 27.8035 17.2015 27.2462 17.6415C26.7768 18.0229 26.1902 18.3235 25.4862 18.5435C24.7822 18.7635 24.0048 18.8735 23.1542 18.8735H20.0742V23.9995H18.1602V8.44553ZM23.0662 17.1355C23.6235 17.1355 24.1662 17.0695 24.6942 16.9375C25.2222 16.7909 25.6548 16.5635 25.9922 16.2555C26.3295 15.9622 26.5935 15.6029 26.7842 15.1775C26.9748 14.7522 27.0702 14.2022 27.0702 13.5275C27.0702 11.2982 25.8675 10.1835 23.4622 10.1835H20.0742V17.1355H23.0662Z" fill="#17141A"/>
<path d="M33.9316 18.1695V23.9995H32.0176V8.44553H37.8476C38.6982 8.44553 39.4682 8.53353 40.1576 8.70953C40.8469 8.88553 41.4336 9.1642 41.9176 9.54553C42.4016 9.92686 42.7682 10.4329 43.0176 11.0635C43.2816 11.6795 43.4136 12.4275 43.4136 13.3075C43.4136 13.9529 43.3182 14.5322 43.1276 15.0455C42.9369 15.5442 42.6802 15.9842 42.3576 16.3655C42.0496 16.7322 41.6829 17.0402 41.2576 17.2895C40.8322 17.5242 40.3922 17.7075 39.9376 17.8395L43.1936 23.9995H41.1036L38.0016 18.1695H33.9316ZM37.2316 16.4315C37.8036 16.4315 38.3389 16.3875 38.8376 16.2995C39.3509 16.2115 39.7982 16.0502 40.1796 15.8155C40.5609 15.5809 40.8616 15.2655 41.0816 14.8695C41.3162 14.4589 41.4409 13.9162 41.4556 13.2415C41.4556 12.1269 41.1256 11.3422 40.4656 10.8875C39.8202 10.4182 38.8816 10.1835 37.6496 10.1835H33.9316V16.4315H37.2316Z" fill="#17141A"/>
<path d="M52.966 24.1755C51.7487 24.1755 50.6854 23.9775 49.776 23.5815C48.8667 23.1709 48.104 22.6135 47.488 21.9095C46.872 21.2055 46.41 20.3695 46.102 19.4015C45.794 18.4335 45.64 17.3775 45.64 16.2335C45.64 15.0895 45.794 14.0335 46.102 13.0655C46.41 12.0829 46.872 11.2395 47.488 10.5355C48.104 9.83153 48.8667 9.28153 49.776 8.88553C50.6854 8.47486 51.7487 8.26953 52.966 8.26953C54.1687 8.26953 55.2247 8.47486 56.134 8.88553C57.0434 9.28153 57.806 9.83153 58.422 10.5355C59.038 11.2395 59.5 12.0829 59.808 13.0655C60.116 14.0335 60.27 15.0895 60.27 16.2335C60.27 17.3775 60.116 18.4335 59.808 19.4015C59.5 20.3695 59.038 21.2055 58.422 21.9095C57.806 22.6135 57.0434 23.1709 56.134 23.5815C55.2247 23.9775 54.1687 24.1755 52.966 24.1755ZM52.966 10.0075C52.042 10.0075 51.2427 10.1762 50.568 10.5135C49.8934 10.8362 49.336 11.2835 48.896 11.8555C48.456 12.4275 48.126 13.0949 47.906 13.8575C47.686 14.6055 47.576 15.3975 47.576 16.2335C47.576 17.0695 47.6787 17.8615 47.884 18.6095C48.104 19.3575 48.434 20.0175 48.874 20.5895C49.314 21.1615 49.8714 21.6162 50.546 21.9535C51.2354 22.2762 52.042 22.4375 52.966 22.4375C53.89 22.4375 54.6894 22.2762 55.364 21.9535C56.0387 21.6162 56.5887 21.1689 57.014 20.6115C57.454 20.0395 57.7767 19.3795 57.982 18.6315C58.202 17.8835 58.312 17.0842 58.312 16.2335C58.312 15.3829 58.202 14.5835 57.982 13.8355C57.7767 13.0729 57.454 12.4129 57.014 11.8555C56.574 11.2835 56.0167 10.8362 55.342 10.5135C54.6674 10.1762 53.8754 10.0075 52.966 10.0075Z" fill="#17141A"/>
<path d="M63.2344 23.9995V8.44553H73.6844V10.1835H65.1484V16.0135H72.6064V17.7735H65.1484V23.9995H63.2344Z" fill="#17141A"/>
<path d="M78.3183 23.9995H76.4043V8.44553H78.3183V23.9995Z" fill="#17141A"/>
<path d="M85.5286 23.9995V10.1835H80.5346V8.44553H92.4366V10.1835H87.4426V23.9995H85.5286Z" fill="#17141A"/>
</svg>
